<?xml version="1.0" encoding="utf-8" standalone="no"?>
<!DOCTYPE svg PUBLIC "-//W3C//DTD SVG 1.1//EN"
  "http://www.w3.org/Graphics/SVG/1.1/DTD/svg11.dtd">
<svg xmlns:xlink="http://www.w3.org/1999/xlink" width="460.8pt" height="345.6pt" viewBox="0 0 460.8 345.6" xmlns="http://www.w3.org/2000/svg" version="1.1">
 <metadata>
  <rdf:RDF xmlns:dc="http://purl.org/dc/elements/1.1/" xmlns:cc="http://creativecommons.org/ns#" xmlns:rdf="http://www.w3.org/1999/02/22-rdf-syntax-ns#">
   <cc:Work>
    <dc:type rdf:resource="http://purl.org/dc/dcmitype/StillImage"/>
    <dc:date>2023-09-13T16:28:03.276834</dc:date>
    <dc:format>image/svg+xml</dc:format>
    <dc:creator>
     <cc:Agent>
      <dc:title>Matplotlib v3.7.1, https://matplotlib.org/</dc:title>
     </cc:Agent>
    </dc:creator>
   </cc:Work>
  </rdf:RDF>
 </metadata>
 <defs>
  <style type="text/css">*{stroke-linejoin: round; stroke-linecap: butt}</style>
 </defs>
 <g id="figure_1">
  <g id="patch_1">
   <path d="M 0 345.6 
L 460.8 345.6 
L 460.8 0 
L 0 0 
z
" style="fill: #ffffff"/>
  </g>
  <g id="axes_1">
   <g id="patch_2">
    <path d="M 57.6 307.584 
L 414.72 307.584 
L 414.72 41.472 
L 57.6 41.472 
z
" style="fill: #ffffff"/>
   </g>
   <g id="matplotlib.axis_1">
    <g id="xtick_1">
     <g id="line2d_1">
      <defs>
       <path id="m3d98ed6dac" d="M 0 0 
L 0 3.5 
" style="stroke: #000000; stroke-width: 0.8"/>
      </defs>
      <g>
       <use xlink:href="#m3d98ed6dac" x="71.653838" y="307.584" style="stroke: #000000; stroke-width: 0.8"/>
      </g>
     </g>
     <g id="text_1">
      <!-- 0 -->
      <g transform="translate(68.472588 322.182437) scale(0.1 -0.1)">
       <defs>
        <path id="DejaVuSans-30" d="M 2034 4250 
Q 1547 4250 1301 3770 
Q 1056 3291 1056 2328 
Q 1056 1369 1301 889 
Q 1547 409 2034 409 
Q 2525 409 2770 889 
Q 3016 1369 3016 2328 
Q 3016 3291 2770 3770 
Q 2525 4250 2034 4250 
z
M 2034 4750 
Q 2819 4750 3233 4129 
Q 3647 3509 3647 2328 
Q 3647 1150 3233 529 
Q 2819 -91 2034 -91 
Q 1250 -91 836 529 
Q 422 1150 422 2328 
Q 422 3509 836 4129 
Q 1250 4750 2034 4750 
z
" transform="scale(0.015625)"/>
       </defs>
       <use xlink:href="#DejaVuSans-30"/>
      </g>
     </g>
    </g>
    <g id="xtick_2">
     <g id="line2d_2">
      <g>
       <use xlink:href="#m3d98ed6dac" x="115.231629" y="307.584" style="stroke: #000000; stroke-width: 0.8"/>
      </g>
     </g>
     <g id="text_2">
      <!-- 20 -->
      <g transform="translate(108.869129 322.182437) scale(0.1 -0.1)">
       <defs>
        <path id="DejaVuSans-32" d="M 1228 531 
L 3431 531 
L 3431 0 
L 469 0 
L 469 531 
Q 828 903 1448 1529 
Q 2069 2156 2228 2338 
Q 2531 2678 2651 2914 
Q 2772 3150 2772 3378 
Q 2772 3750 2511 3984 
Q 2250 4219 1831 4219 
Q 1534 4219 1204 4116 
Q 875 4013 500 3803 
L 500 4441 
Q 881 4594 1212 4672 
Q 1544 4750 1819 4750 
Q 2544 4750 2975 4387 
Q 3406 4025 3406 3419 
Q 3406 3131 3298 2873 
Q 3191 2616 2906 2266 
Q 2828 2175 2409 1742 
Q 1991 1309 1228 531 
z
" transform="scale(0.015625)"/>
       </defs>
       <use xlink:href="#DejaVuSans-32"/>
       <use xlink:href="#DejaVuSans-30" x="63.623047"/>
      </g>
     </g>
    </g>
    <g id="xtick_3">
     <g id="line2d_3">
      <g>
       <use xlink:href="#m3d98ed6dac" x="158.80942" y="307.584" style="stroke: #000000; stroke-width: 0.8"/>
      </g>
     </g>
     <g id="text_3">
      <!-- 40 -->
      <g transform="translate(152.44692 322.182437) scale(0.1 -0.1)">
       <defs>
        <path id="DejaVuSans-34" d="M 2419 4116 
L 825 1625 
L 2419 1625 
L 2419 4116 
z
M 2253 4666 
L 3047 4666 
L 3047 1625 
L 3713 1625 
L 3713 1100 
L 3047 1100 
L 3047 0 
L 2419 0 
L 2419 1100 
L 313 1100 
L 313 1709 
L 2253 4666 
z
" transform="scale(0.015625)"/>
       </defs>
       <use xlink:href="#DejaVuSans-34"/>
       <use xlink:href="#DejaVuSans-30" x="63.623047"/>
      </g>
     </g>
    </g>
    <g id="xtick_4">
     <g id="line2d_4">
      <g>
       <use xlink:href="#m3d98ed6dac" x="202.387212" y="307.584" style="stroke: #000000; stroke-width: 0.8"/>
      </g>
     </g>
     <g id="text_4">
      <!-- 60 -->
      <g transform="translate(196.024712 322.182437) scale(0.1 -0.1)">
       <defs>
        <path id="DejaVuSans-36" d="M 2113 2584 
Q 1688 2584 1439 2293 
Q 1191 2003 1191 1497 
Q 1191 994 1439 701 
Q 1688 409 2113 409 
Q 2538 409 2786 701 
Q 3034 994 3034 1497 
Q 3034 2003 2786 2293 
Q 2538 2584 2113 2584 
z
M 3366 4563 
L 3366 3988 
Q 3128 4100 2886 4159 
Q 2644 4219 2406 4219 
Q 1781 4219 1451 3797 
Q 1122 3375 1075 2522 
Q 1259 2794 1537 2939 
Q 1816 3084 2150 3084 
Q 2853 3084 3261 2657 
Q 3669 2231 3669 1497 
Q 3669 778 3244 343 
Q 2819 -91 2113 -91 
Q 1303 -91 875 529 
Q 447 1150 447 2328 
Q 447 3434 972 4092 
Q 1497 4750 2381 4750 
Q 2619 4750 2861 4703 
Q 3103 4656 3366 4563 
z
" transform="scale(0.015625)"/>
       </defs>
       <use xlink:href="#DejaVuSans-36"/>
       <use xlink:href="#DejaVuSans-30" x="63.623047"/>
      </g>
     </g>
    </g>
    <g id="xtick_5">
     <g id="line2d_5">
      <g>
       <use xlink:href="#m3d98ed6dac" x="245.965003" y="307.584" style="stroke: #000000; stroke-width: 0.8"/>
      </g>
     </g>
     <g id="text_5">
      <!-- 80 -->
      <g transform="translate(239.602503 322.182437) scale(0.1 -0.1)">
       <defs>
        <path id="DejaVuSans-38" d="M 2034 2216 
Q 1584 2216 1326 1975 
Q 1069 1734 1069 1313 
Q 1069 891 1326 650 
Q 1584 409 2034 409 
Q 2484 409 2743 651 
Q 3003 894 3003 1313 
Q 3003 1734 2745 1975 
Q 2488 2216 2034 2216 
z
M 1403 2484 
Q 997 2584 770 2862 
Q 544 3141 544 3541 
Q 544 4100 942 4425 
Q 1341 4750 2034 4750 
Q 2731 4750 3128 4425 
Q 3525 4100 3525 3541 
Q 3525 3141 3298 2862 
Q 3072 2584 2669 2484 
Q 3125 2378 3379 2068 
Q 3634 1759 3634 1313 
Q 3634 634 3220 271 
Q 2806 -91 2034 -91 
Q 1263 -91 848 271 
Q 434 634 434 1313 
Q 434 1759 690 2068 
Q 947 2378 1403 2484 
z
M 1172 3481 
Q 1172 3119 1398 2916 
Q 1625 2713 2034 2713 
Q 2441 2713 2670 2916 
Q 2900 3119 2900 3481 
Q 2900 3844 2670 4047 
Q 2441 4250 2034 4250 
Q 1625 4250 1398 4047 
Q 1172 3844 1172 3481 
z
" transform="scale(0.015625)"/>
       </defs>
       <use xlink:href="#DejaVuSans-38"/>
       <use xlink:href="#DejaVuSans-30" x="63.623047"/>
      </g>
     </g>
    </g>
    <g id="xtick_6">
     <g id="line2d_6">
      <g>
       <use xlink:href="#m3d98ed6dac" x="289.542794" y="307.584" style="stroke: #000000; stroke-width: 0.8"/>
      </g>
     </g>
     <g id="text_6">
      <!-- 100 -->
      <g transform="translate(279.999044 322.182437) scale(0.1 -0.1)">
       <defs>
        <path id="DejaVuSans-31" d="M 794 531 
L 1825 531 
L 1825 4091 
L 703 3866 
L 703 4441 
L 1819 4666 
L 2450 4666 
L 2450 531 
L 3481 531 
L 3481 0 
L 794 0 
L 794 531 
z
" transform="scale(0.015625)"/>
       </defs>
       <use xlink:href="#DejaVuSans-31"/>
       <use xlink:href="#DejaVuSans-30" x="63.623047"/>
       <use xlink:href="#DejaVuSans-30" x="127.246094"/>
      </g>
     </g>
    </g>
    <g id="xtick_7">
     <g id="line2d_7">
      <g>
       <use xlink:href="#m3d98ed6dac" x="333.120586" y="307.584" style="stroke: #000000; stroke-width: 0.8"/>
      </g>
     </g>
     <g id="text_7">
      <!-- 120 -->
      <g transform="translate(323.576836 322.182437) scale(0.1 -0.1)">
       <use xlink:href="#DejaVuSans-31"/>
       <use xlink:href="#DejaVuSans-32" x="63.623047"/>
       <use xlink:href="#DejaVuSans-30" x="127.246094"/>
      </g>
     </g>
    </g>
    <g id="xtick_8">
     <g id="line2d_8">
      <g>
       <use xlink:href="#m3d98ed6dac" x="376.698377" y="307.584" style="stroke: #000000; stroke-width: 0.8"/>
      </g>
     </g>
     <g id="text_8">
      <!-- 140 -->
      <g transform="translate(367.154627 322.182437) scale(0.1 -0.1)">
       <use xlink:href="#DejaVuSans-31"/>
       <use xlink:href="#DejaVuSans-34" x="63.623047"/>
       <use xlink:href="#DejaVuSans-30" x="127.246094"/>
      </g>
     </g>
    </g>
    <g id="text_9">
     <!-- epoch -->
     <g transform="translate(220.931875 335.860562) scale(0.1 -0.1)">
      <defs>
       <path id="DejaVuSans-65" d="M 3597 1894 
L 3597 1613 
L 953 1613 
Q 991 1019 1311 708 
Q 1631 397 2203 397 
Q 2534 397 2845 478 
Q 3156 559 3463 722 
L 3463 178 
Q 3153 47 2828 -22 
Q 2503 -91 2169 -91 
Q 1331 -91 842 396 
Q 353 884 353 1716 
Q 353 2575 817 3079 
Q 1281 3584 2069 3584 
Q 2775 3584 3186 3129 
Q 3597 2675 3597 1894 
z
M 3022 2063 
Q 3016 2534 2758 2815 
Q 2500 3097 2075 3097 
Q 1594 3097 1305 2825 
Q 1016 2553 972 2059 
L 3022 2063 
z
" transform="scale(0.015625)"/>
       <path id="DejaVuSans-70" d="M 1159 525 
L 1159 -1331 
L 581 -1331 
L 581 3500 
L 1159 3500 
L 1159 2969 
Q 1341 3281 1617 3432 
Q 1894 3584 2278 3584 
Q 2916 3584 3314 3078 
Q 3713 2572 3713 1747 
Q 3713 922 3314 415 
Q 2916 -91 2278 -91 
Q 1894 -91 1617 61 
Q 1341 213 1159 525 
z
M 3116 1747 
Q 3116 2381 2855 2742 
Q 2594 3103 2138 3103 
Q 1681 3103 1420 2742 
Q 1159 2381 1159 1747 
Q 1159 1113 1420 752 
Q 1681 391 2138 391 
Q 2594 391 2855 752 
Q 3116 1113 3116 1747 
z
" transform="scale(0.015625)"/>
       <path id="DejaVuSans-6f" d="M 1959 3097 
Q 1497 3097 1228 2736 
Q 959 2375 959 1747 
Q 959 1119 1226 758 
Q 1494 397 1959 397 
Q 2419 397 2687 759 
Q 2956 1122 2956 1747 
Q 2956 2369 2687 2733 
Q 2419 3097 1959 3097 
z
M 1959 3584 
Q 2709 3584 3137 3096 
Q 3566 2609 3566 1747 
Q 3566 888 3137 398 
Q 2709 -91 1959 -91 
Q 1206 -91 779 398 
Q 353 888 353 1747 
Q 353 2609 779 3096 
Q 1206 3584 1959 3584 
z
" transform="scale(0.015625)"/>
       <path id="DejaVuSans-63" d="M 3122 3366 
L 3122 2828 
Q 2878 2963 2633 3030 
Q 2388 3097 2138 3097 
Q 1578 3097 1268 2742 
Q 959 2388 959 1747 
Q 959 1106 1268 751 
Q 1578 397 2138 397 
Q 2388 397 2633 464 
Q 2878 531 3122 666 
L 3122 134 
Q 2881 22 2623 -34 
Q 2366 -91 2075 -91 
Q 1284 -91 818 406 
Q 353 903 353 1747 
Q 353 2603 823 3093 
Q 1294 3584 2113 3584 
Q 2378 3584 2631 3529 
Q 2884 3475 3122 3366 
z
" transform="scale(0.015625)"/>
       <path id="DejaVuSans-68" d="M 3513 2113 
L 3513 0 
L 2938 0 
L 2938 2094 
Q 2938 2591 2744 2837 
Q 2550 3084 2163 3084 
Q 1697 3084 1428 2787 
Q 1159 2491 1159 1978 
L 1159 0 
L 581 0 
L 581 4863 
L 1159 4863 
L 1159 2956 
Q 1366 3272 1645 3428 
Q 1925 3584 2291 3584 
Q 2894 3584 3203 3211 
Q 3513 2838 3513 2113 
z
" transform="scale(0.015625)"/>
      </defs>
      <use xlink:href="#DejaVuSans-65"/>
      <use xlink:href="#DejaVuSans-70" x="61.523438"/>
      <use xlink:href="#DejaVuSans-6f" x="125"/>
      <use xlink:href="#DejaVuSans-63" x="186.181641"/>
      <use xlink:href="#DejaVuSans-68" x="241.162109"/>
     </g>
    </g>
   </g>
   <g id="matplotlib.axis_2">
    <g id="ytick_1">
     <g id="line2d_9">
      <defs>
       <path id="mc589d41924" d="M 0 0 
L -3.5 0 
" style="stroke: #000000; stroke-width: 0.8"/>
      </defs>
      <g>
       <use xlink:href="#mc589d41924" x="57.6" y="307.584" style="stroke: #000000; stroke-width: 0.8"/>
      </g>
     </g>
     <g id="text_10">
      <!-- 0.0 -->
      <g transform="translate(34.696875 311.383219) scale(0.1 -0.1)">
       <defs>
        <path id="DejaVuSans-2e" d="M 684 794 
L 1344 794 
L 1344 0 
L 684 0 
L 684 794 
z
" transform="scale(0.015625)"/>
       </defs>
       <use xlink:href="#DejaVuSans-30"/>
       <use xlink:href="#DejaVuSans-2e" x="63.623047"/>
       <use xlink:href="#DejaVuSans-30" x="95.410156"/>
      </g>
     </g>
    </g>
    <g id="ytick_2">
     <g id="line2d_10">
      <g>
       <use xlink:href="#mc589d41924" x="57.6" y="260.881542" style="stroke: #000000; stroke-width: 0.8"/>
      </g>
     </g>
     <g id="text_11">
      <!-- 0.2 -->
      <g transform="translate(34.696875 264.680761) scale(0.1 -0.1)">
       <use xlink:href="#DejaVuSans-30"/>
       <use xlink:href="#DejaVuSans-2e" x="63.623047"/>
       <use xlink:href="#DejaVuSans-32" x="95.410156"/>
      </g>
     </g>
    </g>
    <g id="ytick_3">
     <g id="line2d_11">
      <g>
       <use xlink:href="#mc589d41924" x="57.6" y="214.179085" style="stroke: #000000; stroke-width: 0.8"/>
      </g>
     </g>
     <g id="text_12">
      <!-- 0.4 -->
      <g transform="translate(34.696875 217.978303) scale(0.1 -0.1)">
       <use xlink:href="#DejaVuSans-30"/>
       <use xlink:href="#DejaVuSans-2e" x="63.623047"/>
       <use xlink:href="#DejaVuSans-34" x="95.410156"/>
      </g>
     </g>
    </g>
    <g id="ytick_4">
     <g id="line2d_12">
      <g>
       <use xlink:href="#mc589d41924" x="57.6" y="167.476627" style="stroke: #000000; stroke-width: 0.8"/>
      </g>
     </g>
     <g id="text_13">
      <!-- 0.6 -->
      <g transform="translate(34.696875 171.275846) scale(0.1 -0.1)">
       <use xlink:href="#DejaVuSans-30"/>
       <use xlink:href="#DejaVuSans-2e" x="63.623047"/>
       <use xlink:href="#DejaVuSans-36" x="95.410156"/>
      </g>
     </g>
    </g>
    <g id="ytick_5">
     <g id="line2d_13">
      <g>
       <use xlink:href="#mc589d41924" x="57.6" y="120.774169" style="stroke: #000000; stroke-width: 0.8"/>
      </g>
     </g>
     <g id="text_14">
      <!-- 0.8 -->
      <g transform="translate(34.696875 124.573388) scale(0.1 -0.1)">
       <use xlink:href="#DejaVuSans-30"/>
       <use xlink:href="#DejaVuSans-2e" x="63.623047"/>
       <use xlink:href="#DejaVuSans-38" x="95.410156"/>
      </g>
     </g>
    </g>
    <g id="ytick_6">
     <g id="line2d_14">
      <g>
       <use xlink:href="#mc589d41924" x="57.6" y="74.071711" style="stroke: #000000; stroke-width: 0.8"/>
      </g>
     </g>
     <g id="text_15">
      <!-- 1.0 -->
      <g transform="translate(34.696875 77.87093) scale(0.1 -0.1)">
       <use xlink:href="#DejaVuSans-31"/>
       <use xlink:href="#DejaVuSans-2e" x="63.623047"/>
       <use xlink:href="#DejaVuSans-30" x="95.410156"/>
      </g>
     </g>
    </g>
   </g>
   <g id="line2d_15">
    <path d="M 73.832727 219.591218 
L 76.011617 104.747226 
L 78.190506 110.59179 
L 80.369396 94.639171 
L 82.548286 89.206767 
L 84.727175 95.943218 
L 86.906065 88.078395 
L 89.084954 92.531074 
L 91.263844 89.49055 
L 93.442733 88.240556 
L 95.621623 88.112178 
L 97.800513 92.8081 
L 99.979402 88.733797 
L 102.158292 94.213498 
L 104.337181 90.544598 
L 106.516071 91.227027 
L 108.69496 88.27434 
L 110.87385 89.368929 
L 113.052739 94.875656 
L 115.231629 92.294589 
L 117.410519 91.010812 
L 119.589408 91.767565 
L 121.768298 91.17973 
L 123.947187 88.260826 
L 126.126077 89.889196 
L 128.304966 88.625689 
L 130.483856 88.29461 
L 132.662746 89.429739 
L 134.841635 89.781089 
L 137.020525 87.808126 
L 139.199414 90.166222 
L 141.378304 88.645959 
L 143.557193 88.281096 
L 145.736083 95.044574 
L 147.914973 86.66624 
L 150.093862 87.808126 
L 152.272752 89.294605 
L 154.451641 88.537852 
L 156.630531 88.551365 
L 158.80942 86.740564 
L 160.98831 89.382442 
L 163.1672 88.672986 
L 167.524979 89.950007 
L 169.703868 89.895953 
L 171.882758 88.112178 
L 174.061647 89.058119 
L 176.240537 87.564884 
L 180.598316 88.875688 
L 182.777206 87.835153 
L 184.956095 88.29461 
L 187.134985 86.422998 
L 189.313874 87.409479 
L 191.492764 88.720283 
L 193.671653 88.922985 
L 195.850543 88.70677 
L 198.029433 89.828386 
L 200.208322 88.395961 
L 202.387212 88.902715 
L 204.566101 87.504073 
L 206.744991 89.355415 
L 208.92388 88.348664 
L 213.28166 88.679743 
L 215.460549 93.098639 
L 217.639439 87.625694 
L 219.818328 90.118925 
L 221.997218 93.963499 
L 224.176107 88.450014 
L 226.354997 89.51082 
L 228.533887 88.477041 
L 230.712776 88.321637 
L 232.891666 87.950017 
L 235.070555 88.632446 
L 237.249445 89.193254 
L 239.428334 88.213529 
L 241.607224 86.618943 
L 243.786113 90.605409 
L 245.965003 87.727045 
L 248.143893 92.267562 
L 250.322782 92.963504 
L 252.501672 90.666219 
L 254.680561 90.666219 
L 256.859451 88.672986 
L 259.03834 86.970292 
L 261.21723 89.254064 
L 263.39612 87.247318 
L 265.575009 87.652721 
L 267.753899 86.558132 
L 269.932788 88.659473 
L 272.111678 86.970292 
L 274.290567 88.70677 
L 276.469457 89.010822 
L 280.827236 87.497317 
L 283.006126 87.598668 
L 285.185015 89.618927 
L 287.363905 87.558127 
L 289.542794 88.260826 
L 291.721684 88.504068 
L 293.900574 88.186502 
L 296.079463 88.321637 
L 298.258353 87.740559 
L 300.437242 89.375685 
L 302.616132 87.172994 
L 304.795021 88.943255 
L 306.973911 87.652721 
L 309.1528 87.956774 
L 311.33169 87.544614 
L 313.51058 88.429744 
L 315.689469 87.179751 
L 317.868359 88.348664 
L 320.047248 87.652721 
L 322.226138 94.794576 
L 324.405027 89.598657 
L 326.583917 87.781099 
L 328.762807 88.801364 
L 330.941696 89.53109 
L 333.120586 87.90272 
L 335.299475 87.443263 
L 337.478365 87.382452 
L 339.657254 88.064881 
L 341.836144 89.362172 
L 344.015034 88.308123 
L 346.193923 86.25408 
L 348.372813 89.855412 
L 350.551702 86.21354 
L 352.730592 90.206762 
L 354.909481 89.693251 
L 357.088371 89.037849 
L 359.267261 87.11894 
L 361.44615 88.828391 
L 363.62504 87.909477 
L 365.803929 88.213529 
L 367.982819 87.956774 
L 370.161708 90.112168 
L 372.340598 89.064876 
L 374.519487 87.733802 
L 376.698377 89.463523 
L 378.877267 88.679743 
L 381.056156 87.679748 
L 383.235046 89.767575 
L 385.413935 89.90271 
L 387.592825 91.227027 
L 389.771714 88.571635 
L 391.950604 87.983801 
L 394.129494 92.463507 
L 396.308383 94.247281 
L 398.487273 87.193264 
L 398.487273 87.193264 
" clip-path="url(#p35435cdb47)" style="fill: none; stroke: #1f77b4; stroke-linecap: square"/>
   </g>
   <g id="line2d_16">
    <path d="M 73.832727 149.370582 
L 76.011617 146.955151 
L 78.190506 149.364846 
L 89.084954 149.376317 
L 91.263844 160.247476 
L 93.442733 147.318637 
L 95.621623 141.69312 
L 97.800513 123.334765 
L 99.979402 122.800515 
L 102.158292 146.660822 
L 104.337181 110.423461 
L 106.516071 111.4092 
L 108.69496 106.212722 
L 110.87385 105.284177 
L 113.052739 106.690925 
L 115.231629 106.946414 
L 117.410519 105.580472 
L 119.589408 103.414467 
L 121.768298 111.914115 
L 123.947187 108.370697 
L 128.304966 111.43706 
L 130.483856 107.121438 
L 132.662746 108.755488 
L 134.841635 104.506237 
L 137.020525 109.309567 
L 139.199414 110.004747 
L 141.378304 117.756937 
L 143.557193 112.875437 
L 145.736083 112.643219 
L 147.914973 120.718417 
L 150.093862 111.852333 
L 152.272752 104.888734 
L 154.451641 110.46312 
L 156.630531 111.829062 
L 158.80942 103.272219 
L 160.98831 107.903966 
L 163.1672 105.747138 
L 165.346089 110.355942 
L 167.524979 109.404126 
L 169.703868 110.342996 
L 171.882758 104.523772 
L 174.061647 105.148812 
L 176.240537 110.077182 
L 178.419426 107.52147 
L 180.598316 101.509687 
L 182.777206 102.973629 
L 184.956095 109.571939 
L 187.134985 110.497043 
L 189.313874 106.134551 
L 191.492764 103.613909 
L 193.671653 102.405457 
L 195.850543 101.912013 
L 198.029433 102.538527 
L 200.208322 100.142598 
L 202.387212 105.912985 
L 204.566101 103.218466 
L 206.744991 105.441666 
L 208.92388 103.573103 
L 211.10277 107.797936 
L 213.28166 103.676839 
L 215.460549 107.297609 
L 217.639439 101.947084 
L 219.818328 103.392343 
L 221.997218 105.075557 
L 224.176107 107.463128 
L 226.354997 114.764976 
L 228.533887 101.919224 
L 230.712776 102.927907 
L 232.891666 104.153895 
L 235.070555 105.740255 
L 237.249445 106.3748 
L 239.428334 105.152253 
L 241.607224 103.052947 
L 243.786113 106.569653 
L 248.143893 106.986073 
L 250.322782 102.948883 
L 252.501672 103.591786 
L 254.680561 104.987881 
L 256.859451 102.909224 
L 259.03834 102.694869 
L 261.21723 117.506037 
L 263.39612 102.919877 
L 265.575009 103.562451 
L 267.753899 102.974777 
L 269.932788 107.081779 
L 272.111678 107.00705 
L 276.469457 105.10227 
L 278.648347 106.666507 
L 280.827236 107.82006 
L 283.006126 103.181102 
L 285.185015 105.315806 
L 287.363905 110.107336 
L 289.542794 105.810396 
L 291.721684 105.360053 
L 293.900574 99.859249 
L 296.079463 102.642264 
L 298.258353 102.965271 
L 300.437242 102.962977 
L 302.616132 103.311878 
L 304.795021 103.100637 
L 306.973911 103.696669 
L 309.1528 102.249115 
L 311.33169 104.983293 
L 313.51058 103.769104 
L 315.689469 102.971335 
L 317.868359 106.233699 
L 320.047248 101.656524 
L 322.226138 105.241076 
L 324.405027 102.641116 
L 326.583917 107.464276 
L 328.762807 105.618984 
L 330.941696 99.961838 
L 333.120586 103.00493 
L 335.299475 106.548677 
L 337.478365 100.718801 
L 339.657254 105.949203 
L 341.836144 103.526561 
L 344.015034 104.172577 
L 346.193923 102.98166 
L 348.372813 105.462642 
L 350.551702 103.833181 
L 352.730592 110.755974 
L 354.909481 105.583914 
L 357.088371 102.678481 
L 359.267261 102.127843 
L 361.44615 108.434774 
L 363.62504 103.239443 
L 365.803929 102.091626 
L 367.982819 104.828098 
L 370.161708 102.089332 
L 372.340598 101.7324 
L 374.519487 102.074091 
L 376.698377 103.877429 
L 378.877267 102.60031 
L 381.056156 102.618993 
L 383.235046 101.22978 
L 385.413935 102.838264 
L 387.592825 102.417256 
L 389.771714 102.840559 
L 391.950604 104.131771 
L 394.129494 104.744191 
L 396.308383 104.026888 
L 398.487273 105.921015 
L 398.487273 105.921015 
" clip-path="url(#p35435cdb47)" style="fill: none; stroke: #ff7f0e; stroke-linecap: square"/>
   </g>
   <g id="line2d_17">
    <path d="M 73.832727 149.732677 
L 76.011617 149.289677 
L 78.190506 151.964551 
L 80.369396 151.232969 
L 82.548286 129.940296 
L 84.727175 114.056438 
L 86.906065 109.09653 
L 89.084954 94.083482 
L 91.263844 97.460405 
L 93.442733 114.996441 
L 95.621623 91.480332 
L 97.800513 90.637367 
L 99.979402 99.819695 
L 102.158292 93.589854 
L 104.337181 92.103907 
L 106.516071 91.18078 
L 108.69496 93.22111 
L 110.87385 113.454802 
L 113.052739 90.471137 
L 115.231629 91.319165 
L 117.410519 88.505062 
L 119.589408 93.412654 
L 121.768298 88.865368 
L 123.947187 93.027034 
L 126.126077 89.029067 
L 128.304966 96.481587 
L 130.483856 89.093197 
L 132.662746 90.917512 
L 134.841635 91.782416 
L 137.020525 87.570966 
L 139.199414 90.762251 
L 141.378304 91.957084 
L 143.557193 89.242551 
L 145.736083 88.036748 
L 147.914973 99.772442 
L 150.093862 92.675165 
L 152.272752 92.586565 
L 154.451641 88.83246 
L 156.630531 93.803338 
L 158.80942 88.269639 
L 160.98831 88.580161 
L 163.1672 87.717788 
L 165.346089 88.485654 
L 167.524979 93.792368 
L 169.703868 87.978525 
L 171.882758 90.066108 
L 174.061647 90.010417 
L 176.240537 90.171585 
L 178.419426 89.611295 
L 180.598316 88.34727 
L 182.777206 91.959615 
L 184.956095 88.918528 
L 187.134985 94.976232 
L 189.313874 95.042893 
L 191.492764 90.512483 
L 193.671653 88.571723 
L 195.850543 88.413931 
L 198.029433 87.268882 
L 200.208322 94.183052 
L 202.387212 93.193264 
L 204.566101 91.103149 
L 206.744991 93.684361 
L 208.92388 88.649353 
L 211.10277 94.086014 
L 213.28166 88.785207 
L 215.460549 89.123574 
L 219.818328 88.959875 
L 221.997218 90.995142 
L 224.176107 91.066866 
L 226.354997 88.01734 
L 228.533887 87.019115 
L 230.712776 90.404476 
L 232.891666 88.161632 
L 235.070555 89.977508 
L 237.249445 86.678216 
L 241.607224 91.862577 
L 243.786113 88.319424 
L 245.965003 90.307438 
L 248.143893 88.202978 
L 250.322782 88.763268 
L 252.501672 91.596778 
L 254.680561 89.794402 
L 256.859451 89.764025 
L 259.03834 91.058428 
L 261.21723 87.074806 
L 263.39612 90.437384 
L 265.575009 86.949922 
L 267.753899 88.782675 
L 269.932788 91.660063 
L 272.111678 87.027553 
L 274.290567 89.267865 
L 276.469457 88.175133 
L 278.648347 100.903989 
L 280.827236 90.648337 
L 283.006126 88.3363 
L 285.185015 93.201702 
L 287.363905 91.616185 
L 289.542794 89.639141 
L 291.721684 89.30668 
L 293.900574 94.615926 
L 296.079463 89.639141 
L 298.258353 90.609521 
L 300.437242 88.446839 
L 302.616132 90.232339 
L 304.795021 93.684361 
L 306.973911 88.638384 
L 309.1528 88.890683 
L 311.33169 88.785207 
L 313.51058 89.835749 
L 315.689469 90.124331 
L 317.868359 89.09826 
L 320.047248 92.946872 
L 322.226138 87.63172 
L 324.405027 89.289804 
L 326.583917 89.511726 
L 328.762807 91.482863 
L 330.941696 88.696607 
L 333.120586 87.834234 
L 337.478365 90.77322 
L 339.657254 88.474685 
L 341.836144 94.491042 
L 344.015034 96.839362 
L 346.193923 89.996916 
L 348.372813 89.09826 
L 350.551702 91.008643 
L 352.730592 91.114119 
L 354.909481 88.571723 
L 357.088371 89.181797 
L 359.267261 88.610538 
L 361.44615 89.223143 
L 363.62504 90.484638 
L 365.803929 89.511726 
L 367.982819 89.337058 
L 370.161708 93.650608 
L 372.340598 89.00966 
L 374.519487 87.786981 
L 376.698377 89.270397 
L 378.877267 89.710865 
L 381.056156 91.01455 
L 383.235046 89.991009 
L 385.413935 88.219855 
L 387.592825 90.113362 
L 389.771714 88.83246 
L 391.950604 87.338074 
L 394.129494 87.268882 
L 396.308383 88.959875 
L 398.487273 87.590373 
L 398.487273 87.590373 
" clip-path="url(#p35435cdb47)" style="fill: none; stroke: #2ca02c; stroke-linecap: square"/>
   </g>
   <g id="line2d_18">
    <path d="M 73.832727 149.333949 
L 76.011617 151.015491 
L 78.190506 150.936173 
L 84.727175 151.047218 
L 86.906065 142.406841 
L 89.084954 115.496876 
L 91.263844 117.966311 
L 93.442733 95.979352 
L 95.621623 98.231984 
L 97.800513 100.754298 
L 99.979402 90.569862 
L 102.158292 101.283085 
L 104.337181 93.457039 
L 106.516071 92.320147 
L 108.69496 92.177374 
L 110.87385 92.58454 
L 113.052739 91.447649 
L 115.231629 96.169715 
L 117.410519 96.323064 
L 119.589408 92.531662 
L 121.768298 96.286049 
L 123.947187 91.135664 
L 126.126077 89.982909 
L 128.304966 89.871864 
L 130.483856 90.633317 
L 132.662746 89.760818 
L 134.841635 90.495832 
L 137.020525 90.887134 
L 139.199414 89.935318 
L 141.378304 93.171494 
L 143.557193 89.718515 
L 145.736083 91.177967 
L 147.914973 90.130969 
L 150.093862 90.612165 
L 152.272752 90.733786 
L 154.451641 91.484664 
L 156.630531 90.025212 
L 158.80942 90.442953 
L 160.98831 90.310757 
L 163.1672 88.941199 
L 165.346089 89.491137 
L 167.524979 90.363635 
L 169.703868 91.807224 
L 171.882758 91.54283 
L 174.061647 90.215575 
L 176.240537 89.147426 
L 178.419426 90.157409 
L 180.598316 90.189136 
L 182.777206 88.793138 
L 184.956095 89.163289 
L 187.134985 92.848934 
L 189.313874 89.501713 
L 191.492764 88.809002 
L 193.671653 95.01696 
L 195.850543 90.908286 
L 198.029433 94.361264 
L 200.208322 93.393584 
L 202.387212 89.60747 
L 204.566101 90.437666 
L 206.744991 92.367738 
L 208.92388 89.60747 
L 211.10277 89.898303 
L 213.28166 90.564574 
L 215.460549 91.611572 
L 217.639439 89.766106 
L 219.818328 88.872456 
L 221.997218 90.32662 
L 224.176107 89.734379 
L 226.354997 88.766699 
L 228.533887 92.01345 
L 230.712776 92.674434 
L 232.891666 88.026397 
L 235.070555 89.697364 
L 237.249445 89.660349 
L 239.428334 90.844831 
L 241.607224 91.019331 
L 243.786113 88.655654 
L 245.965003 88.597487 
L 248.143893 89.068108 
L 250.322782 92.367738 
L 252.501672 90.453529 
L 254.680561 89.665637 
L 256.859451 89.792546 
L 259.03834 88.46529 
L 261.21723 93.240236 
L 263.39612 88.766699 
L 265.575009 89.226744 
L 269.932788 89.861288 
L 272.111678 88.914759 
L 274.290567 91.289012 
L 276.469457 88.951774 
L 280.827236 88.539321 
L 283.006126 87.952367 
L 285.185015 88.052837 
L 287.363905 89.216168 
L 289.542794 91.225558 
L 291.721684 88.708532 
L 293.900574 88.798426 
L 296.079463 87.836034 
L 298.258353 88.914759 
L 300.437242 88.031685 
L 302.616132 90.242014 
L 304.795021 92.642707 
L 306.973911 92.256692 
L 309.1528 89.951182 
L 311.33169 89.105123 
L 313.51058 90.32662 
L 315.689469 89.279622 
L 317.868359 90.527559 
L 320.047248 88.290791 
L 322.226138 91.003468 
L 324.405027 89.760818 
L 326.583917 93.938235 
L 328.762807 89.31135 
L 330.941696 88.682093 
L 335.299475 89.834849 
L 341.836144 90.384787 
L 344.015034 92.394177 
L 346.193923 90.305469 
L 348.372813 92.246117 
L 350.551702 89.972333 
L 352.730592 92.029314 
L 354.909481 89.612758 
L 357.088371 89.020517 
L 359.267261 89.771394 
L 361.44615 91.844239 
L 363.62504 91.056346 
L 365.803929 89.945894 
L 367.982819 93.150342 
L 370.161708 89.982909 
L 372.340598 89.35894 
L 374.519487 89.766106 
L 376.698377 90.321332 
L 381.056156 89.718515 
L 383.235046 89.871864 
L 385.413935 95.011672 
L 387.592825 90.532847 
L 389.771714 92.277844 
L 391.950604 89.380092 
L 394.129494 89.575743 
L 396.308383 94.921778 
L 398.487273 89.306062 
L 398.487273 89.306062 
" clip-path="url(#p35435cdb47)" style="fill: none; stroke: #d62728; stroke-linecap: square"/>
   </g>
   <g id="patch_3">
    <path d="M 57.6 307.584 
L 57.6 41.472 
" style="fill: none; stroke: #000000; stroke-width: 0.8; stroke-linejoin: miter; stroke-linecap: square"/>
   </g>
   <g id="patch_4">
    <path d="M 414.72 307.584 
L 414.72 41.472 
" style="fill: none; stroke: #000000; stroke-width: 0.8; stroke-linejoin: miter; stroke-linecap: square"/>
   </g>
   <g id="patch_5">
    <path d="M 57.6 307.584 
L 414.72 307.584 
" style="fill: none; stroke: #000000; stroke-width: 0.8; stroke-linejoin: miter; stroke-linecap: square"/>
   </g>
   <g id="patch_6">
    <path d="M 57.6 41.472 
L 414.72 41.472 
" style="fill: none; stroke: #000000; stroke-width: 0.8; stroke-linejoin: miter; stroke-linecap: square"/>
   </g>
   <g id="text_16">
    <!-- Accuracy of FC -->
    <g transform="translate(191.528437 35.472) scale(0.12 -0.12)">
     <defs>
      <path id="DejaVuSans-41" d="M 2188 4044 
L 1331 1722 
L 3047 1722 
L 2188 4044 
z
M 1831 4666 
L 2547 4666 
L 4325 0 
L 3669 0 
L 3244 1197 
L 1141 1197 
L 716 0 
L 50 0 
L 1831 4666 
z
" transform="scale(0.015625)"/>
      <path id="DejaVuSans-75" d="M 544 1381 
L 544 3500 
L 1119 3500 
L 1119 1403 
Q 1119 906 1312 657 
Q 1506 409 1894 409 
Q 2359 409 2629 706 
Q 2900 1003 2900 1516 
L 2900 3500 
L 3475 3500 
L 3475 0 
L 2900 0 
L 2900 538 
Q 2691 219 2414 64 
Q 2138 -91 1772 -91 
Q 1169 -91 856 284 
Q 544 659 544 1381 
z
M 1991 3584 
L 1991 3584 
z
" transform="scale(0.015625)"/>
      <path id="DejaVuSans-72" d="M 2631 2963 
Q 2534 3019 2420 3045 
Q 2306 3072 2169 3072 
Q 1681 3072 1420 2755 
Q 1159 2438 1159 1844 
L 1159 0 
L 581 0 
L 581 3500 
L 1159 3500 
L 1159 2956 
Q 1341 3275 1631 3429 
Q 1922 3584 2338 3584 
Q 2397 3584 2469 3576 
Q 2541 3569 2628 3553 
L 2631 2963 
z
" transform="scale(0.015625)"/>
      <path id="DejaVuSans-61" d="M 2194 1759 
Q 1497 1759 1228 1600 
Q 959 1441 959 1056 
Q 959 750 1161 570 
Q 1363 391 1709 391 
Q 2188 391 2477 730 
Q 2766 1069 2766 1631 
L 2766 1759 
L 2194 1759 
z
M 3341 1997 
L 3341 0 
L 2766 0 
L 2766 531 
Q 2569 213 2275 61 
Q 1981 -91 1556 -91 
Q 1019 -91 701 211 
Q 384 513 384 1019 
Q 384 1609 779 1909 
Q 1175 2209 1959 2209 
L 2766 2209 
L 2766 2266 
Q 2766 2663 2505 2880 
Q 2244 3097 1772 3097 
Q 1472 3097 1187 3025 
Q 903 2953 641 2809 
L 641 3341 
Q 956 3463 1253 3523 
Q 1550 3584 1831 3584 
Q 2591 3584 2966 3190 
Q 3341 2797 3341 1997 
z
" transform="scale(0.015625)"/>
      <path id="DejaVuSans-79" d="M 2059 -325 
Q 1816 -950 1584 -1140 
Q 1353 -1331 966 -1331 
L 506 -1331 
L 506 -850 
L 844 -850 
Q 1081 -850 1212 -737 
Q 1344 -625 1503 -206 
L 1606 56 
L 191 3500 
L 800 3500 
L 1894 763 
L 2988 3500 
L 3597 3500 
L 2059 -325 
z
" transform="scale(0.015625)"/>
      <path id="DejaVuSans-20" transform="scale(0.015625)"/>
      <path id="DejaVuSans-66" d="M 2375 4863 
L 2375 4384 
L 1825 4384 
Q 1516 4384 1395 4259 
Q 1275 4134 1275 3809 
L 1275 3500 
L 2222 3500 
L 2222 3053 
L 1275 3053 
L 1275 0 
L 697 0 
L 697 3053 
L 147 3053 
L 147 3500 
L 697 3500 
L 697 3744 
Q 697 4328 969 4595 
Q 1241 4863 1831 4863 
L 2375 4863 
z
" transform="scale(0.015625)"/>
      <path id="DejaVuSans-46" d="M 628 4666 
L 3309 4666 
L 3309 4134 
L 1259 4134 
L 1259 2759 
L 3109 2759 
L 3109 2228 
L 1259 2228 
L 1259 0 
L 628 0 
L 628 4666 
z
" transform="scale(0.015625)"/>
      <path id="DejaVuSans-43" d="M 4122 4306 
L 4122 3641 
Q 3803 3938 3442 4084 
Q 3081 4231 2675 4231 
Q 1875 4231 1450 3742 
Q 1025 3253 1025 2328 
Q 1025 1406 1450 917 
Q 1875 428 2675 428 
Q 3081 428 3442 575 
Q 3803 722 4122 1019 
L 4122 359 
Q 3791 134 3420 21 
Q 3050 -91 2638 -91 
Q 1578 -91 968 557 
Q 359 1206 359 2328 
Q 359 3453 968 4101 
Q 1578 4750 2638 4750 
Q 3056 4750 3426 4639 
Q 3797 4528 4122 4306 
z
" transform="scale(0.015625)"/>
     </defs>
     <use xlink:href="#DejaVuSans-41"/>
     <use xlink:href="#DejaVuSans-63" x="66.658203"/>
     <use xlink:href="#DejaVuSans-63" x="121.638672"/>
     <use xlink:href="#DejaVuSans-75" x="176.619141"/>
     <use xlink:href="#DejaVuSans-72" x="239.998047"/>
     <use xlink:href="#DejaVuSans-61" x="281.111328"/>
     <use xlink:href="#DejaVuSans-63" x="342.390625"/>
     <use xlink:href="#DejaVuSans-79" x="397.371094"/>
     <use xlink:href="#DejaVuSans-20" x="456.550781"/>
     <use xlink:href="#DejaVuSans-6f" x="488.337891"/>
     <use xlink:href="#DejaVuSans-66" x="549.519531"/>
     <use xlink:href="#DejaVuSans-20" x="584.724609"/>
     <use xlink:href="#DejaVuSans-46" x="616.511719"/>
     <use xlink:href="#DejaVuSans-43" x="674.03125"/>
    </g>
   </g>
   <g id="legend_1">
    <g id="patch_7">
     <path d="M 64.6 302.584 
L 173.157812 302.584 
Q 175.157812 302.584 175.157812 300.584 
L 175.157812 242.8715 
Q 175.157812 240.8715 173.157812 240.8715 
L 64.6 240.8715 
Q 62.6 240.8715 62.6 242.8715 
L 62.6 300.584 
Q 62.6 302.584 64.6 302.584 
z
" style="fill: #ffffff; opacity: 0.8; stroke: #cccccc; stroke-linejoin: miter"/>
    </g>
    <g id="line2d_19">
     <path d="M 66.6 248.969937 
L 76.6 248.969937 
L 86.6 248.969937 
" style="fill: none; stroke: #1f77b4; stroke-linecap: square"/>
    </g>
    <g id="text_17">
     <!-- 2000 samples -->
     <g transform="translate(94.6 252.469937) scale(0.1 -0.1)">
      <defs>
       <path id="DejaVuSans-73" d="M 2834 3397 
L 2834 2853 
Q 2591 2978 2328 3040 
Q 2066 3103 1784 3103 
Q 1356 3103 1142 2972 
Q 928 2841 928 2578 
Q 928 2378 1081 2264 
Q 1234 2150 1697 2047 
L 1894 2003 
Q 2506 1872 2764 1633 
Q 3022 1394 3022 966 
Q 3022 478 2636 193 
Q 2250 -91 1575 -91 
Q 1294 -91 989 -36 
Q 684 19 347 128 
L 347 722 
Q 666 556 975 473 
Q 1284 391 1588 391 
Q 1994 391 2212 530 
Q 2431 669 2431 922 
Q 2431 1156 2273 1281 
Q 2116 1406 1581 1522 
L 1381 1569 
Q 847 1681 609 1914 
Q 372 2147 372 2553 
Q 372 3047 722 3315 
Q 1072 3584 1716 3584 
Q 2034 3584 2315 3537 
Q 2597 3491 2834 3397 
z
" transform="scale(0.015625)"/>
       <path id="DejaVuSans-6d" d="M 3328 2828 
Q 3544 3216 3844 3400 
Q 4144 3584 4550 3584 
Q 5097 3584 5394 3201 
Q 5691 2819 5691 2113 
L 5691 0 
L 5113 0 
L 5113 2094 
Q 5113 2597 4934 2840 
Q 4756 3084 4391 3084 
Q 3944 3084 3684 2787 
Q 3425 2491 3425 1978 
L 3425 0 
L 2847 0 
L 2847 2094 
Q 2847 2600 2669 2842 
Q 2491 3084 2119 3084 
Q 1678 3084 1418 2786 
Q 1159 2488 1159 1978 
L 1159 0 
L 581 0 
L 581 3500 
L 1159 3500 
L 1159 2956 
Q 1356 3278 1631 3431 
Q 1906 3584 2284 3584 
Q 2666 3584 2933 3390 
Q 3200 3197 3328 2828 
z
" transform="scale(0.015625)"/>
       <path id="DejaVuSans-6c" d="M 603 4863 
L 1178 4863 
L 1178 0 
L 603 0 
L 603 4863 
z
" transform="scale(0.015625)"/>
      </defs>
      <use xlink:href="#DejaVuSans-32"/>
      <use xlink:href="#DejaVuSans-30" x="63.623047"/>
      <use xlink:href="#DejaVuSans-30" x="127.246094"/>
      <use xlink:href="#DejaVuSans-30" x="190.869141"/>
      <use xlink:href="#DejaVuSans-20" x="254.492188"/>
      <use xlink:href="#DejaVuSans-73" x="286.279297"/>
      <use xlink:href="#DejaVuSans-61" x="338.378906"/>
      <use xlink:href="#DejaVuSans-6d" x="399.658203"/>
      <use xlink:href="#DejaVuSans-70" x="497.070312"/>
      <use xlink:href="#DejaVuSans-6c" x="560.546875"/>
      <use xlink:href="#DejaVuSans-65" x="588.330078"/>
      <use xlink:href="#DejaVuSans-73" x="649.853516"/>
     </g>
    </g>
    <g id="line2d_20">
     <path d="M 66.6 263.648062 
L 76.6 263.648062 
L 86.6 263.648062 
" style="fill: none; stroke: #ff7f0e; stroke-linecap: square"/>
    </g>
    <g id="text_18">
     <!-- 5000 samples -->
     <g transform="translate(94.6 267.148062) scale(0.1 -0.1)">
      <defs>
       <path id="DejaVuSans-35" d="M 691 4666 
L 3169 4666 
L 3169 4134 
L 1269 4134 
L 1269 2991 
Q 1406 3038 1543 3061 
Q 1681 3084 1819 3084 
Q 2600 3084 3056 2656 
Q 3513 2228 3513 1497 
Q 3513 744 3044 326 
Q 2575 -91 1722 -91 
Q 1428 -91 1123 -41 
Q 819 9 494 109 
L 494 744 
Q 775 591 1075 516 
Q 1375 441 1709 441 
Q 2250 441 2565 725 
Q 2881 1009 2881 1497 
Q 2881 1984 2565 2268 
Q 2250 2553 1709 2553 
Q 1456 2553 1204 2497 
Q 953 2441 691 2322 
L 691 4666 
z
" transform="scale(0.015625)"/>
      </defs>
      <use xlink:href="#DejaVuSans-35"/>
      <use xlink:href="#DejaVuSans-30" x="63.623047"/>
      <use xlink:href="#DejaVuSans-30" x="127.246094"/>
      <use xlink:href="#DejaVuSans-30" x="190.869141"/>
      <use xlink:href="#DejaVuSans-20" x="254.492188"/>
      <use xlink:href="#DejaVuSans-73" x="286.279297"/>
      <use xlink:href="#DejaVuSans-61" x="338.378906"/>
      <use xlink:href="#DejaVuSans-6d" x="399.658203"/>
      <use xlink:href="#DejaVuSans-70" x="497.070312"/>
      <use xlink:href="#DejaVuSans-6c" x="560.546875"/>
      <use xlink:href="#DejaVuSans-65" x="588.330078"/>
      <use xlink:href="#DejaVuSans-73" x="649.853516"/>
     </g>
    </g>
    <g id="line2d_21">
     <path d="M 66.6 278.326187 
L 76.6 278.326187 
L 86.6 278.326187 
" style="fill: none; stroke: #2ca02c; stroke-linecap: square"/>
    </g>
    <g id="text_19">
     <!-- 8000 samples -->
     <g transform="translate(94.6 281.826187) scale(0.1 -0.1)">
      <use xlink:href="#DejaVuSans-38"/>
      <use xlink:href="#DejaVuSans-30" x="63.623047"/>
      <use xlink:href="#DejaVuSans-30" x="127.246094"/>
      <use xlink:href="#DejaVuSans-30" x="190.869141"/>
      <use xlink:href="#DejaVuSans-20" x="254.492188"/>
      <use xlink:href="#DejaVuSans-73" x="286.279297"/>
      <use xlink:href="#DejaVuSans-61" x="338.378906"/>
      <use xlink:href="#DejaVuSans-6d" x="399.658203"/>
      <use xlink:href="#DejaVuSans-70" x="497.070312"/>
      <use xlink:href="#DejaVuSans-6c" x="560.546875"/>
      <use xlink:href="#DejaVuSans-65" x="588.330078"/>
      <use xlink:href="#DejaVuSans-73" x="649.853516"/>
     </g>
    </g>
    <g id="line2d_22">
     <path d="M 66.6 293.004312 
L 76.6 293.004312 
L 86.6 293.004312 
" style="fill: none; stroke: #d62728; stroke-linecap: square"/>
    </g>
    <g id="text_20">
     <!-- 10000 samples -->
     <g transform="translate(94.6 296.504312) scale(0.1 -0.1)">
      <use xlink:href="#DejaVuSans-31"/>
      <use xlink:href="#DejaVuSans-30" x="63.623047"/>
      <use xlink:href="#DejaVuSans-30" x="127.246094"/>
      <use xlink:href="#DejaVuSans-30" x="190.869141"/>
      <use xlink:href="#DejaVuSans-30" x="254.492188"/>
      <use xlink:href="#DejaVuSans-20" x="318.115234"/>
      <use xlink:href="#DejaVuSans-73" x="349.902344"/>
      <use xlink:href="#DejaVuSans-61" x="402.001953"/>
      <use xlink:href="#DejaVuSans-6d" x="463.28125"/>
      <use xlink:href="#DejaVuSans-70" x="560.693359"/>
      <use xlink:href="#DejaVuSans-6c" x="624.169922"/>
      <use xlink:href="#DejaVuSans-65" x="651.953125"/>
      <use xlink:href="#DejaVuSans-73" x="713.476562"/>
     </g>
    </g>
   </g>
  </g>
 </g>
 <defs>
  <clipPath id="p35435cdb47">
   <rect x="57.6" y="41.472" width="357.12" height="266.112"/>
  </clipPath>
 </defs>
</svg>
