<?xml version="1.0" encoding="utf-8" standalone="no"?>
<!DOCTYPE svg PUBLIC "-//W3C//DTD SVG 1.1//EN"
  "http://www.w3.org/Graphics/SVG/1.1/DTD/svg11.dtd">
<svg xmlns:xlink="http://www.w3.org/1999/xlink" width="460.8pt" height="345.6pt" viewBox="0 0 460.8 345.6" xmlns="http://www.w3.org/2000/svg" version="1.1">
 <metadata>
  <rdf:RDF xmlns:dc="http://purl.org/dc/elements/1.1/" xmlns:cc="http://creativecommons.org/ns#" xmlns:rdf="http://www.w3.org/1999/02/22-rdf-syntax-ns#">
   <cc:Work>
    <dc:type rdf:resource="http://purl.org/dc/dcmitype/StillImage"/>
    <dc:date>2023-09-13T16:28:03.103361</dc:date>
    <dc:format>image/svg+xml</dc:format>
    <dc:creator>
     <cc:Agent>
      <dc:title>Matplotlib v3.7.1, https://matplotlib.org/</dc:title>
     </cc:Agent>
    </dc:creator>
   </cc:Work>
  </rdf:RDF>
 </metadata>
 <defs>
  <style type="text/css">*{stroke-linejoin: round; stroke-linecap: butt}</style>
 </defs>
 <g id="figure_1">
  <g id="patch_1">
   <path d="M 0 345.6 
L 460.8 345.6 
L 460.8 0 
L 0 0 
z
" style="fill: #ffffff"/>
  </g>
  <g id="axes_1">
   <g id="patch_2">
    <path d="M 57.6 307.584 
L 414.72 307.584 
L 414.72 41.472 
L 57.6 41.472 
z
" style="fill: #ffffff"/>
   </g>
   <g id="matplotlib.axis_1">
    <g id="xtick_1">
     <g id="line2d_1">
      <defs>
       <path id="m7af8871c47" d="M 0 0 
L 0 3.5 
" style="stroke: #000000; stroke-width: 0.8"/>
      </defs>
      <g>
       <use xlink:href="#m7af8871c47" x="71.653838" y="307.584" style="stroke: #000000; stroke-width: 0.8"/>
      </g>
     </g>
     <g id="text_1">
      <!-- 0 -->
      <g transform="translate(68.472588 322.182437) scale(0.1 -0.1)">
       <defs>
        <path id="DejaVuSans-30" d="M 2034 4250 
Q 1547 4250 1301 3770 
Q 1056 3291 1056 2328 
Q 1056 1369 1301 889 
Q 1547 409 2034 409 
Q 2525 409 2770 889 
Q 3016 1369 3016 2328 
Q 3016 3291 2770 3770 
Q 2525 4250 2034 4250 
z
M 2034 4750 
Q 2819 4750 3233 4129 
Q 3647 3509 3647 2328 
Q 3647 1150 3233 529 
Q 2819 -91 2034 -91 
Q 1250 -91 836 529 
Q 422 1150 422 2328 
Q 422 3509 836 4129 
Q 1250 4750 2034 4750 
z
" transform="scale(0.015625)"/>
       </defs>
       <use xlink:href="#DejaVuSans-30"/>
      </g>
     </g>
    </g>
    <g id="xtick_2">
     <g id="line2d_2">
      <g>
       <use xlink:href="#m7af8871c47" x="115.231629" y="307.584" style="stroke: #000000; stroke-width: 0.8"/>
      </g>
     </g>
     <g id="text_2">
      <!-- 20 -->
      <g transform="translate(108.869129 322.182437) scale(0.1 -0.1)">
       <defs>
        <path id="DejaVuSans-32" d="M 1228 531 
L 3431 531 
L 3431 0 
L 469 0 
L 469 531 
Q 828 903 1448 1529 
Q 2069 2156 2228 2338 
Q 2531 2678 2651 2914 
Q 2772 3150 2772 3378 
Q 2772 3750 2511 3984 
Q 2250 4219 1831 4219 
Q 1534 4219 1204 4116 
Q 875 4013 500 3803 
L 500 4441 
Q 881 4594 1212 4672 
Q 1544 4750 1819 4750 
Q 2544 4750 2975 4387 
Q 3406 4025 3406 3419 
Q 3406 3131 3298 2873 
Q 3191 2616 2906 2266 
Q 2828 2175 2409 1742 
Q 1991 1309 1228 531 
z
" transform="scale(0.015625)"/>
       </defs>
       <use xlink:href="#DejaVuSans-32"/>
       <use xlink:href="#DejaVuSans-30" x="63.623047"/>
      </g>
     </g>
    </g>
    <g id="xtick_3">
     <g id="line2d_3">
      <g>
       <use xlink:href="#m7af8871c47" x="158.80942" y="307.584" style="stroke: #000000; stroke-width: 0.8"/>
      </g>
     </g>
     <g id="text_3">
      <!-- 40 -->
      <g transform="translate(152.44692 322.182437) scale(0.1 -0.1)">
       <defs>
        <path id="DejaVuSans-34" d="M 2419 4116 
L 825 1625 
L 2419 1625 
L 2419 4116 
z
M 2253 4666 
L 3047 4666 
L 3047 1625 
L 3713 1625 
L 3713 1100 
L 3047 1100 
L 3047 0 
L 2419 0 
L 2419 1100 
L 313 1100 
L 313 1709 
L 2253 4666 
z
" transform="scale(0.015625)"/>
       </defs>
       <use xlink:href="#DejaVuSans-34"/>
       <use xlink:href="#DejaVuSans-30" x="63.623047"/>
      </g>
     </g>
    </g>
    <g id="xtick_4">
     <g id="line2d_4">
      <g>
       <use xlink:href="#m7af8871c47" x="202.387212" y="307.584" style="stroke: #000000; stroke-width: 0.8"/>
      </g>
     </g>
     <g id="text_4">
      <!-- 60 -->
      <g transform="translate(196.024712 322.182437) scale(0.1 -0.1)">
       <defs>
        <path id="DejaVuSans-36" d="M 2113 2584 
Q 1688 2584 1439 2293 
Q 1191 2003 1191 1497 
Q 1191 994 1439 701 
Q 1688 409 2113 409 
Q 2538 409 2786 701 
Q 3034 994 3034 1497 
Q 3034 2003 2786 2293 
Q 2538 2584 2113 2584 
z
M 3366 4563 
L 3366 3988 
Q 3128 4100 2886 4159 
Q 2644 4219 2406 4219 
Q 1781 4219 1451 3797 
Q 1122 3375 1075 2522 
Q 1259 2794 1537 2939 
Q 1816 3084 2150 3084 
Q 2853 3084 3261 2657 
Q 3669 2231 3669 1497 
Q 3669 778 3244 343 
Q 2819 -91 2113 -91 
Q 1303 -91 875 529 
Q 447 1150 447 2328 
Q 447 3434 972 4092 
Q 1497 4750 2381 4750 
Q 2619 4750 2861 4703 
Q 3103 4656 3366 4563 
z
" transform="scale(0.015625)"/>
       </defs>
       <use xlink:href="#DejaVuSans-36"/>
       <use xlink:href="#DejaVuSans-30" x="63.623047"/>
      </g>
     </g>
    </g>
    <g id="xtick_5">
     <g id="line2d_5">
      <g>
       <use xlink:href="#m7af8871c47" x="245.965003" y="307.584" style="stroke: #000000; stroke-width: 0.8"/>
      </g>
     </g>
     <g id="text_5">
      <!-- 80 -->
      <g transform="translate(239.602503 322.182437) scale(0.1 -0.1)">
       <defs>
        <path id="DejaVuSans-38" d="M 2034 2216 
Q 1584 2216 1326 1975 
Q 1069 1734 1069 1313 
Q 1069 891 1326 650 
Q 1584 409 2034 409 
Q 2484 409 2743 651 
Q 3003 894 3003 1313 
Q 3003 1734 2745 1975 
Q 2488 2216 2034 2216 
z
M 1403 2484 
Q 997 2584 770 2862 
Q 544 3141 544 3541 
Q 544 4100 942 4425 
Q 1341 4750 2034 4750 
Q 2731 4750 3128 4425 
Q 3525 4100 3525 3541 
Q 3525 3141 3298 2862 
Q 3072 2584 2669 2484 
Q 3125 2378 3379 2068 
Q 3634 1759 3634 1313 
Q 3634 634 3220 271 
Q 2806 -91 2034 -91 
Q 1263 -91 848 271 
Q 434 634 434 1313 
Q 434 1759 690 2068 
Q 947 2378 1403 2484 
z
M 1172 3481 
Q 1172 3119 1398 2916 
Q 1625 2713 2034 2713 
Q 2441 2713 2670 2916 
Q 2900 3119 2900 3481 
Q 2900 3844 2670 4047 
Q 2441 4250 2034 4250 
Q 1625 4250 1398 4047 
Q 1172 3844 1172 3481 
z
" transform="scale(0.015625)"/>
       </defs>
       <use xlink:href="#DejaVuSans-38"/>
       <use xlink:href="#DejaVuSans-30" x="63.623047"/>
      </g>
     </g>
    </g>
    <g id="xtick_6">
     <g id="line2d_6">
      <g>
       <use xlink:href="#m7af8871c47" x="289.542794" y="307.584" style="stroke: #000000; stroke-width: 0.8"/>
      </g>
     </g>
     <g id="text_6">
      <!-- 100 -->
      <g transform="translate(279.999044 322.182437) scale(0.1 -0.1)">
       <defs>
        <path id="DejaVuSans-31" d="M 794 531 
L 1825 531 
L 1825 4091 
L 703 3866 
L 703 4441 
L 1819 4666 
L 2450 4666 
L 2450 531 
L 3481 531 
L 3481 0 
L 794 0 
L 794 531 
z
" transform="scale(0.015625)"/>
       </defs>
       <use xlink:href="#DejaVuSans-31"/>
       <use xlink:href="#DejaVuSans-30" x="63.623047"/>
       <use xlink:href="#DejaVuSans-30" x="127.246094"/>
      </g>
     </g>
    </g>
    <g id="xtick_7">
     <g id="line2d_7">
      <g>
       <use xlink:href="#m7af8871c47" x="333.120586" y="307.584" style="stroke: #000000; stroke-width: 0.8"/>
      </g>
     </g>
     <g id="text_7">
      <!-- 120 -->
      <g transform="translate(323.576836 322.182437) scale(0.1 -0.1)">
       <use xlink:href="#DejaVuSans-31"/>
       <use xlink:href="#DejaVuSans-32" x="63.623047"/>
       <use xlink:href="#DejaVuSans-30" x="127.246094"/>
      </g>
     </g>
    </g>
    <g id="xtick_8">
     <g id="line2d_8">
      <g>
       <use xlink:href="#m7af8871c47" x="376.698377" y="307.584" style="stroke: #000000; stroke-width: 0.8"/>
      </g>
     </g>
     <g id="text_8">
      <!-- 140 -->
      <g transform="translate(367.154627 322.182437) scale(0.1 -0.1)">
       <use xlink:href="#DejaVuSans-31"/>
       <use xlink:href="#DejaVuSans-34" x="63.623047"/>
       <use xlink:href="#DejaVuSans-30" x="127.246094"/>
      </g>
     </g>
    </g>
    <g id="text_9">
     <!-- epoch -->
     <g transform="translate(220.931875 335.860562) scale(0.1 -0.1)">
      <defs>
       <path id="DejaVuSans-65" d="M 3597 1894 
L 3597 1613 
L 953 1613 
Q 991 1019 1311 708 
Q 1631 397 2203 397 
Q 2534 397 2845 478 
Q 3156 559 3463 722 
L 3463 178 
Q 3153 47 2828 -22 
Q 2503 -91 2169 -91 
Q 1331 -91 842 396 
Q 353 884 353 1716 
Q 353 2575 817 3079 
Q 1281 3584 2069 3584 
Q 2775 3584 3186 3129 
Q 3597 2675 3597 1894 
z
M 3022 2063 
Q 3016 2534 2758 2815 
Q 2500 3097 2075 3097 
Q 1594 3097 1305 2825 
Q 1016 2553 972 2059 
L 3022 2063 
z
" transform="scale(0.015625)"/>
       <path id="DejaVuSans-70" d="M 1159 525 
L 1159 -1331 
L 581 -1331 
L 581 3500 
L 1159 3500 
L 1159 2969 
Q 1341 3281 1617 3432 
Q 1894 3584 2278 3584 
Q 2916 3584 3314 3078 
Q 3713 2572 3713 1747 
Q 3713 922 3314 415 
Q 2916 -91 2278 -91 
Q 1894 -91 1617 61 
Q 1341 213 1159 525 
z
M 3116 1747 
Q 3116 2381 2855 2742 
Q 2594 3103 2138 3103 
Q 1681 3103 1420 2742 
Q 1159 2381 1159 1747 
Q 1159 1113 1420 752 
Q 1681 391 2138 391 
Q 2594 391 2855 752 
Q 3116 1113 3116 1747 
z
" transform="scale(0.015625)"/>
       <path id="DejaVuSans-6f" d="M 1959 3097 
Q 1497 3097 1228 2736 
Q 959 2375 959 1747 
Q 959 1119 1226 758 
Q 1494 397 1959 397 
Q 2419 397 2687 759 
Q 2956 1122 2956 1747 
Q 2956 2369 2687 2733 
Q 2419 3097 1959 3097 
z
M 1959 3584 
Q 2709 3584 3137 3096 
Q 3566 2609 3566 1747 
Q 3566 888 3137 398 
Q 2709 -91 1959 -91 
Q 1206 -91 779 398 
Q 353 888 353 1747 
Q 353 2609 779 3096 
Q 1206 3584 1959 3584 
z
" transform="scale(0.015625)"/>
       <path id="DejaVuSans-63" d="M 3122 3366 
L 3122 2828 
Q 2878 2963 2633 3030 
Q 2388 3097 2138 3097 
Q 1578 3097 1268 2742 
Q 959 2388 959 1747 
Q 959 1106 1268 751 
Q 1578 397 2138 397 
Q 2388 397 2633 464 
Q 2878 531 3122 666 
L 3122 134 
Q 2881 22 2623 -34 
Q 2366 -91 2075 -91 
Q 1284 -91 818 406 
Q 353 903 353 1747 
Q 353 2603 823 3093 
Q 1294 3584 2113 3584 
Q 2378 3584 2631 3529 
Q 2884 3475 3122 3366 
z
" transform="scale(0.015625)"/>
       <path id="DejaVuSans-68" d="M 3513 2113 
L 3513 0 
L 2938 0 
L 2938 2094 
Q 2938 2591 2744 2837 
Q 2550 3084 2163 3084 
Q 1697 3084 1428 2787 
Q 1159 2491 1159 1978 
L 1159 0 
L 581 0 
L 581 4863 
L 1159 4863 
L 1159 2956 
Q 1366 3272 1645 3428 
Q 1925 3584 2291 3584 
Q 2894 3584 3203 3211 
Q 3513 2838 3513 2113 
z
" transform="scale(0.015625)"/>
      </defs>
      <use xlink:href="#DejaVuSans-65"/>
      <use xlink:href="#DejaVuSans-70" x="61.523438"/>
      <use xlink:href="#DejaVuSans-6f" x="125"/>
      <use xlink:href="#DejaVuSans-63" x="186.181641"/>
      <use xlink:href="#DejaVuSans-68" x="241.162109"/>
     </g>
    </g>
   </g>
   <g id="matplotlib.axis_2">
    <g id="ytick_1">
     <g id="line2d_9">
      <defs>
       <path id="m77c3270d46" d="M 0 0 
L -3.5 0 
" style="stroke: #000000; stroke-width: 0.8"/>
      </defs>
      <g>
       <use xlink:href="#m77c3270d46" x="57.6" y="307.584" style="stroke: #000000; stroke-width: 0.8"/>
      </g>
     </g>
     <g id="text_10">
      <!-- 0.0 -->
      <g transform="translate(34.696875 311.383219) scale(0.1 -0.1)">
       <defs>
        <path id="DejaVuSans-2e" d="M 684 794 
L 1344 794 
L 1344 0 
L 684 0 
L 684 794 
z
" transform="scale(0.015625)"/>
       </defs>
       <use xlink:href="#DejaVuSans-30"/>
       <use xlink:href="#DejaVuSans-2e" x="63.623047"/>
       <use xlink:href="#DejaVuSans-30" x="95.410156"/>
      </g>
     </g>
    </g>
    <g id="ytick_2">
     <g id="line2d_10">
      <g>
       <use xlink:href="#m77c3270d46" x="57.6" y="259.799762" style="stroke: #000000; stroke-width: 0.8"/>
      </g>
     </g>
     <g id="text_11">
      <!-- 0.2 -->
      <g transform="translate(34.696875 263.598981) scale(0.1 -0.1)">
       <use xlink:href="#DejaVuSans-30"/>
       <use xlink:href="#DejaVuSans-2e" x="63.623047"/>
       <use xlink:href="#DejaVuSans-32" x="95.410156"/>
      </g>
     </g>
    </g>
    <g id="ytick_3">
     <g id="line2d_11">
      <g>
       <use xlink:href="#m77c3270d46" x="57.6" y="212.015524" style="stroke: #000000; stroke-width: 0.8"/>
      </g>
     </g>
     <g id="text_12">
      <!-- 0.4 -->
      <g transform="translate(34.696875 215.814743) scale(0.1 -0.1)">
       <use xlink:href="#DejaVuSans-30"/>
       <use xlink:href="#DejaVuSans-2e" x="63.623047"/>
       <use xlink:href="#DejaVuSans-34" x="95.410156"/>
      </g>
     </g>
    </g>
    <g id="ytick_4">
     <g id="line2d_12">
      <g>
       <use xlink:href="#m77c3270d46" x="57.6" y="164.231286" style="stroke: #000000; stroke-width: 0.8"/>
      </g>
     </g>
     <g id="text_13">
      <!-- 0.6 -->
      <g transform="translate(34.696875 168.030505) scale(0.1 -0.1)">
       <use xlink:href="#DejaVuSans-30"/>
       <use xlink:href="#DejaVuSans-2e" x="63.623047"/>
       <use xlink:href="#DejaVuSans-36" x="95.410156"/>
      </g>
     </g>
    </g>
    <g id="ytick_5">
     <g id="line2d_13">
      <g>
       <use xlink:href="#m77c3270d46" x="57.6" y="116.447048" style="stroke: #000000; stroke-width: 0.8"/>
      </g>
     </g>
     <g id="text_14">
      <!-- 0.8 -->
      <g transform="translate(34.696875 120.246266) scale(0.1 -0.1)">
       <use xlink:href="#DejaVuSans-30"/>
       <use xlink:href="#DejaVuSans-2e" x="63.623047"/>
       <use xlink:href="#DejaVuSans-38" x="95.410156"/>
      </g>
     </g>
    </g>
    <g id="ytick_6">
     <g id="line2d_14">
      <g>
       <use xlink:href="#m77c3270d46" x="57.6" y="68.66281" style="stroke: #000000; stroke-width: 0.8"/>
      </g>
     </g>
     <g id="text_15">
      <!-- 1.0 -->
      <g transform="translate(34.696875 72.462028) scale(0.1 -0.1)">
       <use xlink:href="#DejaVuSans-31"/>
       <use xlink:href="#DejaVuSans-2e" x="63.623047"/>
       <use xlink:href="#DejaVuSans-30" x="95.410156"/>
      </g>
     </g>
    </g>
   </g>
   <g id="line2d_15">
    <path d="M 73.832727 141.611743 
L 76.011617 235.057236 
L 78.190506 223.684893 
L 80.369396 248.524594 
L 82.548286 260.08305 
L 84.727175 249.895493 
L 86.906065 263.348201 
L 89.084954 254.963389 
L 91.263844 263.019143 
L 95.621623 263.916624 
L 97.800513 258.516625 
L 99.979402 263.433522 
L 102.158292 251.950279 
L 104.337181 262.739588 
L 106.516071 260.841245 
L 108.69496 264.635208 
L 110.87385 261.47097 
L 113.052739 252.750876 
L 115.231629 260.089387 
L 117.410519 259.438134 
L 119.589408 257.356162 
L 123.947187 265.466939 
L 126.126077 264.276354 
L 128.304966 262.589031 
L 130.483856 263.358661 
L 132.662746 263.882171 
L 134.841635 264.256146 
L 137.020525 265.903256 
L 139.199414 261.419127 
L 141.378304 266.540888 
L 143.557193 264.900404 
L 145.736083 254.96937 
L 147.914973 267.613282 
L 152.272752 265.132219 
L 154.451641 266.382844 
L 156.630531 266.167017 
L 158.80942 266.721498 
L 160.98831 263.696129 
L 163.1672 264.296248 
L 165.346089 265.176544 
L 167.524979 259.648413 
L 169.703868 261.889405 
L 171.882758 266.700026 
L 174.061647 260.697381 
L 176.240537 267.213575 
L 178.419426 265.472187 
L 180.598316 263.042943 
L 182.777206 268.172081 
L 184.956095 265.030864 
L 187.134985 268.349692 
L 189.313874 264.899015 
L 191.492764 264.509038 
L 193.671653 262.989903 
L 195.850543 261.320634 
L 198.029433 263.508891 
L 200.208322 266.634689 
L 202.387212 264.112153 
L 204.566101 267.189294 
L 206.744991 259.693443 
L 208.92388 263.840905 
L 211.10277 266.703526 
L 213.28166 263.264804 
L 215.460549 255.977787 
L 217.639439 267.061743 
L 219.818328 260.124658 
L 221.997218 255.501816 
L 224.176107 266.378817 
L 226.354997 264.135224 
L 228.533887 264.452178 
L 230.712776 264.920473 
L 232.891666 266.944591 
L 237.249445 263.528063 
L 239.428334 265.715099 
L 241.607224 268.897244 
L 243.786113 260.181198 
L 245.965003 266.57784 
L 248.143893 257.342886 
L 250.322782 256.021763 
L 252.501672 263.586108 
L 254.680561 261.720089 
L 259.03834 269.24629 
L 261.21723 262.099595 
L 263.39612 266.496418 
L 265.575009 264.976361 
L 267.753899 267.491185 
L 269.932788 264.873955 
L 272.111678 266.970018 
L 274.290567 262.467514 
L 276.469457 264.887843 
L 278.648347 266.035713 
L 280.827236 265.943871 
L 283.006126 266.382965 
L 285.185015 262.766407 
L 289.542794 265.48238 
L 291.721684 264.633111 
L 293.900574 265.484662 
L 296.079463 266.58125 
L 298.258353 265.737247 
L 300.437242 264.294372 
L 302.616132 266.444193 
L 304.795021 265.303422 
L 306.973911 266.498867 
L 309.1528 265.823418 
L 311.33169 267.065527 
L 313.51058 261.82274 
L 315.689469 267.291518 
L 317.868359 262.56381 
L 320.047248 263.119102 
L 322.226138 256.491029 
L 324.405027 260.378672 
L 326.583917 265.890706 
L 328.762807 263.563647 
L 330.941696 263.759676 
L 333.120586 267.150545 
L 335.299475 265.140949 
L 337.478365 267.034617 
L 339.657254 267.073655 
L 341.836144 265.264146 
L 344.015034 265.204584 
L 346.193923 267.637185 
L 348.372813 263.656319 
L 350.551702 266.673926 
L 352.730592 262.836045 
L 354.909481 263.783134 
L 357.088371 264.434996 
L 359.267261 267.308098 
L 361.44615 264.307114 
L 363.62504 265.059488 
L 365.803929 266.057911 
L 367.982819 266.733029 
L 370.161708 262.283975 
L 372.340598 266.054048 
L 374.519487 266.417549 
L 376.698377 265.338882 
L 378.877267 263.572505 
L 381.056156 266.261395 
L 383.235046 261.397402 
L 385.413935 263.586774 
L 387.592825 260.614154 
L 389.771714 266.254345 
L 391.950604 266.507259 
L 394.129494 257.418316 
L 396.308383 253.230125 
L 398.487273 267.217957 
L 398.487273 267.217957 
" clip-path="url(#p96719821fd)" style="fill: none; stroke: #1f77b4; stroke-linecap: square"/>
   </g>
   <g id="line2d_16">
    <path d="M 73.832727 146.770349 
L 76.011617 145.449442 
L 78.190506 154.209693 
L 80.369396 146.853615 
L 82.548286 156.873864 
L 84.727175 155.992358 
L 86.906065 156.248649 
L 89.084954 157.404391 
L 91.263844 156.460567 
L 93.442733 167.398565 
L 97.800513 199.365708 
L 99.979402 202.986869 
L 102.158292 178.467336 
L 104.337181 223.702003 
L 106.516071 221.073 
L 108.69496 228.838771 
L 110.87385 228.011658 
L 113.052739 225.493341 
L 115.231629 221.524754 
L 117.410519 232.337732 
L 119.589408 233.837902 
L 121.768298 210.472473 
L 123.947187 226.441608 
L 126.126077 221.090345 
L 128.304966 219.295682 
L 130.483856 230.698379 
L 132.662746 218.855235 
L 134.841635 231.535426 
L 137.020525 224.297561 
L 139.199414 223.175933 
L 141.378304 199.648872 
L 143.557193 224.101301 
L 145.736083 175.837841 
L 147.914973 181.211128 
L 150.093862 219.45216 
L 152.272752 224.841553 
L 154.451641 191.144963 
L 156.630531 208.38675 
L 158.80942 234.814052 
L 160.98831 202.165138 
L 163.1672 222.714987 
L 165.346089 222.71001 
L 167.524979 222.021345 
L 169.703868 218.100821 
L 171.882758 233.072401 
L 174.061647 215.799634 
L 176.240537 217.895219 
L 178.419426 197.772723 
L 180.598316 233.802307 
L 182.777206 232.565179 
L 184.956095 213.286308 
L 187.134985 210.527051 
L 189.313874 229.273835 
L 191.492764 231.349206 
L 193.671653 224.7835 
L 195.850543 229.594723 
L 198.029433 231.954341 
L 200.208322 231.849194 
L 202.387212 218.655935 
L 204.566101 225.116757 
L 206.744991 220.611163 
L 208.92388 232.657096 
L 211.10277 209.225462 
L 213.28166 224.040002 
L 215.460549 215.341151 
L 217.639439 230.986079 
L 219.818328 229.111703 
L 221.997218 226.740274 
L 224.176107 220.94365 
L 226.354997 193.979334 
L 228.533887 231.422311 
L 230.712776 231.969422 
L 232.891666 228.192267 
L 235.070555 220.773067 
L 237.249445 223.108026 
L 239.428334 219.970533 
L 241.607224 230.048251 
L 243.786113 219.842871 
L 245.965003 225.022896 
L 248.143893 214.303195 
L 250.322782 214.096525 
L 252.501672 220.938823 
L 254.680561 221.362807 
L 259.03834 231.974854 
L 261.21723 182.018112 
L 263.39612 229.784034 
L 265.575009 227.062087 
L 267.753899 227.179916 
L 269.932788 217.681151 
L 272.111678 212.663736 
L 274.290567 223.767561 
L 276.469457 214.630748 
L 278.648347 223.078811 
L 280.827236 219.862167 
L 283.006126 231.009349 
L 285.185015 223.665874 
L 287.363905 213.136581 
L 289.542794 221.436532 
L 291.721684 225.687372 
L 293.900574 241.182914 
L 296.079463 222.717522 
L 298.258353 223.771263 
L 300.437242 230.532367 
L 302.616132 225.626336 
L 304.795021 227.606841 
L 306.973911 225.122275 
L 309.1528 231.05022 
L 311.33169 223.335252 
L 313.51058 231.974057 
L 315.689469 232.6627 
L 317.868359 222.409208 
L 320.047248 220.462567 
L 322.226138 221.657443 
L 324.405027 228.260153 
L 326.583917 215.374902 
L 328.762807 215.892997 
L 330.941696 235.16867 
L 333.120586 225.27557 
L 335.299475 217.466201 
L 337.478365 230.104651 
L 339.657254 223.555964 
L 341.836144 224.708743 
L 344.015034 226.624624 
L 346.193923 223.136358 
L 348.372813 216.776995 
L 350.551702 229.602186 
L 352.730592 207.702059 
L 354.909481 223.106289 
L 357.088371 229.879447 
L 359.267261 229.05244 
L 361.44615 218.203982 
L 363.62504 230.755271 
L 365.803929 223.31869 
L 367.982819 217.954625 
L 372.340598 230.148833 
L 374.519487 234.092527 
L 376.698377 230.966555 
L 378.877267 228.556817 
L 381.056156 231.975132 
L 383.235046 235.157982 
L 385.413935 229.050183 
L 387.592825 231.086947 
L 389.771714 226.935472 
L 391.950604 226.282332 
L 394.129494 224.379403 
L 396.308383 226.903409 
L 398.487273 226.858543 
L 398.487273 226.858543 
" clip-path="url(#p96719821fd)" style="fill: none; stroke: #ff7f0e; stroke-linecap: square"/>
   </g>
   <g id="line2d_17">
    <path d="M 73.832727 158.00692 
L 76.011617 100.415834 
L 78.190506 145.068216 
L 80.369396 155.450594 
L 82.548286 187.705309 
L 84.727175 210.996443 
L 86.906065 229.010971 
L 89.084954 242.791827 
L 91.263844 246.733271 
L 93.442733 216.88336 
L 95.621623 259.879698 
L 97.800513 259.799192 
L 99.979402 240.622253 
L 102.158292 256.980856 
L 104.337181 256.987617 
L 106.516071 254.242597 
L 108.69496 257.856456 
L 110.87385 215.489405 
L 113.052739 257.274456 
L 117.410519 263.881036 
L 119.589408 255.632027 
L 121.768298 261.792261 
L 123.947187 255.244001 
L 126.126077 261.54796 
L 128.304966 245.402567 
L 130.483856 262.733023 
L 132.662746 259.104393 
L 134.841635 252.229548 
L 137.020525 264.381995 
L 139.199414 260.159758 
L 141.378304 257.696304 
L 143.557193 264.048187 
L 145.736083 263.335356 
L 147.914973 241.642793 
L 150.093862 255.613393 
L 152.272752 259.879325 
L 154.451641 264.484099 
L 156.630531 253.724506 
L 158.80942 263.911507 
L 160.98831 262.418276 
L 163.1672 264.959268 
L 165.346089 262.567388 
L 167.524979 255.76164 
L 169.703868 264.186255 
L 171.882758 258.757519 
L 174.061647 260.880041 
L 176.240537 260.269811 
L 178.419426 259.283742 
L 180.598316 264.285293 
L 182.777206 254.960217 
L 184.956095 261.875733 
L 187.134985 251.781618 
L 189.313874 250.175314 
L 191.492764 260.176676 
L 193.671653 263.176301 
L 195.850543 262.050885 
L 198.029433 265.781707 
L 200.208322 252.869249 
L 202.387212 253.897514 
L 204.566101 261.60435 
L 206.744991 250.491012 
L 208.92388 263.92306 
L 211.10277 253.819161 
L 213.28166 264.02768 
L 215.460549 264.512612 
L 217.639439 262.367989 
L 219.818328 263.099902 
L 221.997218 261.112775 
L 224.176107 260.134093 
L 226.354997 264.901803 
L 228.533887 266.735318 
L 230.712776 258.499846 
L 232.891666 265.697113 
L 235.070555 257.945935 
L 237.249445 266.660045 
L 239.428334 264.702246 
L 241.607224 255.26743 
L 243.786113 263.841382 
L 245.965003 257.483365 
L 248.143893 264.050469 
L 250.322782 262.48205 
L 252.501672 257.777455 
L 254.680561 260.326949 
L 256.859451 263.444153 
L 259.03834 259.756676 
L 261.21723 266.495115 
L 263.39612 261.043251 
L 265.575009 266.110969 
L 267.753899 262.641658 
L 269.932788 252.877256 
L 272.111678 267.606607 
L 274.290567 261.98553 
L 276.469457 266.211797 
L 278.648347 230.676221 
L 280.827236 260.833826 
L 283.006126 263.665419 
L 285.185015 253.801399 
L 287.363905 256.517165 
L 289.542794 262.975402 
L 291.721684 261.933644 
L 293.900574 253.296893 
L 296.079463 259.962103 
L 298.258353 258.712212 
L 300.437242 262.149915 
L 302.616132 261.227143 
L 304.795021 254.555486 
L 306.973911 263.788656 
L 309.1528 262.877454 
L 311.33169 264.427231 
L 313.51058 259.695451 
L 315.689469 264.043178 
L 317.868359 263.184475 
L 320.047248 252.064116 
L 322.226138 267.382891 
L 324.405027 262.478739 
L 326.583917 261.202827 
L 328.762807 255.535663 
L 330.941696 262.695883 
L 333.120586 262.343395 
L 335.299475 259.606318 
L 337.478365 258.340591 
L 339.657254 263.864609 
L 341.836144 249.559577 
L 344.015034 248.791609 
L 346.193923 260.843032 
L 348.372813 263.069626 
L 350.551702 259.198311 
L 352.730592 259.460445 
L 354.909481 263.351053 
L 357.088371 263.731019 
L 359.267261 265.225724 
L 361.44615 263.869857 
L 363.62504 261.604492 
L 365.803929 262.238572 
L 367.982819 263.932869 
L 370.161708 241.958932 
L 372.340598 263.993221 
L 374.519487 264.604779 
L 376.698377 263.528682 
L 378.877267 263.089838 
L 381.056156 251.748031 
L 383.235046 261.369729 
L 385.413935 264.619468 
L 387.592825 260.99992 
L 389.771714 263.127138 
L 391.950604 267.005157 
L 394.129494 266.85508 
L 396.308383 262.222818 
L 398.487273 263.519682 
L 398.487273 263.519682 
" clip-path="url(#p96719821fd)" style="fill: none; stroke: #2ca02c; stroke-linecap: square"/>
   </g>
   <g id="line2d_18">
    <path d="M 73.832727 146.131634 
L 76.011617 156.500014 
L 78.190506 156.262193 
L 80.369396 155.369849 
L 82.548286 154.861523 
L 84.727175 153.129214 
L 86.906065 180.773308 
L 89.084954 210.733151 
L 91.263844 194.079205 
L 93.442733 242.04657 
L 95.621623 241.881113 
L 97.800513 235.587022 
L 99.979402 257.133607 
L 102.158292 232.403489 
L 104.337181 248.130975 
L 106.516071 253.443335 
L 108.69496 253.584861 
L 110.87385 253.348616 
L 113.052739 256.154491 
L 115.231629 249.064275 
L 117.410519 244.505175 
L 119.589408 253.844446 
L 121.768298 244.119263 
L 123.947187 257.309798 
L 126.126077 256.595244 
L 128.304966 258.730098 
L 130.483856 254.452197 
L 132.662746 259.674417 
L 134.841635 257.521409 
L 137.020525 257.120502 
L 139.199414 255.990572 
L 141.378304 253.382634 
L 143.557193 258.0702 
L 147.914973 255.697143 
L 150.093862 257.964028 
L 152.272752 258.541386 
L 154.451641 256.366273 
L 156.630531 256.765973 
L 158.80942 258.960208 
L 160.98831 257.933321 
L 163.1672 261.622094 
L 165.346089 257.356198 
L 167.524979 259.081978 
L 169.703868 256.026619 
L 171.882758 257.872556 
L 174.061647 258.450127 
L 176.240537 258.544918 
L 178.419426 257.268756 
L 180.598316 257.865197 
L 182.777206 260.828101 
L 184.956095 258.478815 
L 187.134985 248.575348 
L 189.313874 257.70863 
L 191.492764 260.179008 
L 193.671653 250.530961 
L 195.850543 255.418365 
L 198.029433 239.783541 
L 200.208322 252.154834 
L 202.387212 258.873108 
L 204.566101 255.266733 
L 206.744991 254.600896 
L 208.92388 256.884414 
L 211.10277 255.881907 
L 213.28166 254.709536 
L 215.460549 252.581303 
L 217.639439 259.158181 
L 219.818328 259.616845 
L 221.997218 254.719985 
L 224.176107 257.238291 
L 226.354997 257.480328 
L 228.533887 248.191954 
L 230.712776 252.563068 
L 232.891666 261.337534 
L 235.070555 256.793437 
L 237.249445 258.138197 
L 239.428334 258.427534 
L 241.607224 251.970746 
L 243.786113 259.79508 
L 245.965003 259.897788 
L 248.143893 260.473159 
L 250.322782 254.942989 
L 252.501672 258.482504 
L 254.680561 258.086983 
L 256.859451 256.817803 
L 259.03834 259.538905 
L 261.21723 248.925092 
L 263.39612 260.310704 
L 265.575009 259.540461 
L 267.753899 257.567361 
L 269.932788 257.798795 
L 272.111678 259.165262 
L 274.290567 252.224706 
L 276.469457 259.220039 
L 278.648347 258.927212 
L 280.827236 259.41627 
L 283.006126 260.655289 
L 285.185015 258.940154 
L 287.363905 257.63639 
L 289.542794 253.515127 
L 291.721684 259.437778 
L 293.900574 261.618331 
L 296.079463 261.926231 
L 298.258353 259.545548 
L 300.437242 262.893329 
L 302.616132 253.490707 
L 304.795021 255.80338 
L 306.973911 254.829735 
L 309.1528 257.221633 
L 311.33169 259.199913 
L 313.51058 254.264571 
L 315.689469 255.910218 
L 317.868359 257.823357 
L 320.047248 260.6642 
L 322.226138 256.407525 
L 324.405027 258.557243 
L 326.583917 249.19001 
L 328.762807 256.37109 
L 330.941696 257.824148 
L 333.120586 257.981249 
L 335.299475 256.786619 
L 337.478365 257.636461 
L 339.657254 256.910874 
L 341.836144 258.475355 
L 344.015034 251.473083 
L 346.193923 257.631765 
L 348.372813 254.207925 
L 350.551702 256.707319 
L 352.730592 255.036302 
L 354.909481 259.008741 
L 357.088371 257.648797 
L 359.267261 256.925367 
L 361.44615 253.526466 
L 363.62504 256.525211 
L 365.803929 257.906491 
L 367.982819 254.868623 
L 370.161708 257.313764 
L 372.340598 258.950112 
L 374.519487 255.477945 
L 376.698377 257.593361 
L 378.877267 257.567578 
L 381.056156 257.102644 
L 383.235046 256.900026 
L 385.413935 246.961081 
L 387.592825 255.189526 
L 389.771714 248.75829 
L 391.950604 255.999842 
L 394.129494 257.935803 
L 396.308383 248.674461 
L 398.487273 258.565339 
L 398.487273 258.565339 
" clip-path="url(#p96719821fd)" style="fill: none; stroke: #d62728; stroke-linecap: square"/>
   </g>
   <g id="patch_3">
    <path d="M 57.6 307.584 
L 57.6 41.472 
" style="fill: none; stroke: #000000; stroke-width: 0.8; stroke-linejoin: miter; stroke-linecap: square"/>
   </g>
   <g id="patch_4">
    <path d="M 414.72 307.584 
L 414.72 41.472 
" style="fill: none; stroke: #000000; stroke-width: 0.8; stroke-linejoin: miter; stroke-linecap: square"/>
   </g>
   <g id="patch_5">
    <path d="M 57.6 307.584 
L 414.72 307.584 
" style="fill: none; stroke: #000000; stroke-width: 0.8; stroke-linejoin: miter; stroke-linecap: square"/>
   </g>
   <g id="patch_6">
    <path d="M 57.6 41.472 
L 414.72 41.472 
" style="fill: none; stroke: #000000; stroke-width: 0.8; stroke-linejoin: miter; stroke-linecap: square"/>
   </g>
   <g id="text_16">
    <!-- CrossEntropyLoss of FC -->
    <g transform="translate(166.00875 35.472) scale(0.12 -0.12)">
     <defs>
      <path id="DejaVuSans-43" d="M 4122 4306 
L 4122 3641 
Q 3803 3938 3442 4084 
Q 3081 4231 2675 4231 
Q 1875 4231 1450 3742 
Q 1025 3253 1025 2328 
Q 1025 1406 1450 917 
Q 1875 428 2675 428 
Q 3081 428 3442 575 
Q 3803 722 4122 1019 
L 4122 359 
Q 3791 134 3420 21 
Q 3050 -91 2638 -91 
Q 1578 -91 968 557 
Q 359 1206 359 2328 
Q 359 3453 968 4101 
Q 1578 4750 2638 4750 
Q 3056 4750 3426 4639 
Q 3797 4528 4122 4306 
z
" transform="scale(0.015625)"/>
      <path id="DejaVuSans-72" d="M 2631 2963 
Q 2534 3019 2420 3045 
Q 2306 3072 2169 3072 
Q 1681 3072 1420 2755 
Q 1159 2438 1159 1844 
L 1159 0 
L 581 0 
L 581 3500 
L 1159 3500 
L 1159 2956 
Q 1341 3275 1631 3429 
Q 1922 3584 2338 3584 
Q 2397 3584 2469 3576 
Q 2541 3569 2628 3553 
L 2631 2963 
z
" transform="scale(0.015625)"/>
      <path id="DejaVuSans-73" d="M 2834 3397 
L 2834 2853 
Q 2591 2978 2328 3040 
Q 2066 3103 1784 3103 
Q 1356 3103 1142 2972 
Q 928 2841 928 2578 
Q 928 2378 1081 2264 
Q 1234 2150 1697 2047 
L 1894 2003 
Q 2506 1872 2764 1633 
Q 3022 1394 3022 966 
Q 3022 478 2636 193 
Q 2250 -91 1575 -91 
Q 1294 -91 989 -36 
Q 684 19 347 128 
L 347 722 
Q 666 556 975 473 
Q 1284 391 1588 391 
Q 1994 391 2212 530 
Q 2431 669 2431 922 
Q 2431 1156 2273 1281 
Q 2116 1406 1581 1522 
L 1381 1569 
Q 847 1681 609 1914 
Q 372 2147 372 2553 
Q 372 3047 722 3315 
Q 1072 3584 1716 3584 
Q 2034 3584 2315 3537 
Q 2597 3491 2834 3397 
z
" transform="scale(0.015625)"/>
      <path id="DejaVuSans-45" d="M 628 4666 
L 3578 4666 
L 3578 4134 
L 1259 4134 
L 1259 2753 
L 3481 2753 
L 3481 2222 
L 1259 2222 
L 1259 531 
L 3634 531 
L 3634 0 
L 628 0 
L 628 4666 
z
" transform="scale(0.015625)"/>
      <path id="DejaVuSans-6e" d="M 3513 2113 
L 3513 0 
L 2938 0 
L 2938 2094 
Q 2938 2591 2744 2837 
Q 2550 3084 2163 3084 
Q 1697 3084 1428 2787 
Q 1159 2491 1159 1978 
L 1159 0 
L 581 0 
L 581 3500 
L 1159 3500 
L 1159 2956 
Q 1366 3272 1645 3428 
Q 1925 3584 2291 3584 
Q 2894 3584 3203 3211 
Q 3513 2838 3513 2113 
z
" transform="scale(0.015625)"/>
      <path id="DejaVuSans-74" d="M 1172 4494 
L 1172 3500 
L 2356 3500 
L 2356 3053 
L 1172 3053 
L 1172 1153 
Q 1172 725 1289 603 
Q 1406 481 1766 481 
L 2356 481 
L 2356 0 
L 1766 0 
Q 1100 0 847 248 
Q 594 497 594 1153 
L 594 3053 
L 172 3053 
L 172 3500 
L 594 3500 
L 594 4494 
L 1172 4494 
z
" transform="scale(0.015625)"/>
      <path id="DejaVuSans-79" d="M 2059 -325 
Q 1816 -950 1584 -1140 
Q 1353 -1331 966 -1331 
L 506 -1331 
L 506 -850 
L 844 -850 
Q 1081 -850 1212 -737 
Q 1344 -625 1503 -206 
L 1606 56 
L 191 3500 
L 800 3500 
L 1894 763 
L 2988 3500 
L 3597 3500 
L 2059 -325 
z
" transform="scale(0.015625)"/>
      <path id="DejaVuSans-4c" d="M 628 4666 
L 1259 4666 
L 1259 531 
L 3531 531 
L 3531 0 
L 628 0 
L 628 4666 
z
" transform="scale(0.015625)"/>
      <path id="DejaVuSans-20" transform="scale(0.015625)"/>
      <path id="DejaVuSans-66" d="M 2375 4863 
L 2375 4384 
L 1825 4384 
Q 1516 4384 1395 4259 
Q 1275 4134 1275 3809 
L 1275 3500 
L 2222 3500 
L 2222 3053 
L 1275 3053 
L 1275 0 
L 697 0 
L 697 3053 
L 147 3053 
L 147 3500 
L 697 3500 
L 697 3744 
Q 697 4328 969 4595 
Q 1241 4863 1831 4863 
L 2375 4863 
z
" transform="scale(0.015625)"/>
      <path id="DejaVuSans-46" d="M 628 4666 
L 3309 4666 
L 3309 4134 
L 1259 4134 
L 1259 2759 
L 3109 2759 
L 3109 2228 
L 1259 2228 
L 1259 0 
L 628 0 
L 628 4666 
z
" transform="scale(0.015625)"/>
     </defs>
     <use xlink:href="#DejaVuSans-43"/>
     <use xlink:href="#DejaVuSans-72" x="69.824219"/>
     <use xlink:href="#DejaVuSans-6f" x="108.6875"/>
     <use xlink:href="#DejaVuSans-73" x="169.869141"/>
     <use xlink:href="#DejaVuSans-73" x="221.96875"/>
     <use xlink:href="#DejaVuSans-45" x="274.068359"/>
     <use xlink:href="#DejaVuSans-6e" x="337.251953"/>
     <use xlink:href="#DejaVuSans-74" x="400.630859"/>
     <use xlink:href="#DejaVuSans-72" x="439.839844"/>
     <use xlink:href="#DejaVuSans-6f" x="478.703125"/>
     <use xlink:href="#DejaVuSans-70" x="539.884766"/>
     <use xlink:href="#DejaVuSans-79" x="603.361328"/>
     <use xlink:href="#DejaVuSans-4c" x="662.541016"/>
     <use xlink:href="#DejaVuSans-6f" x="716.503906"/>
     <use xlink:href="#DejaVuSans-73" x="777.685547"/>
     <use xlink:href="#DejaVuSans-73" x="829.785156"/>
     <use xlink:href="#DejaVuSans-20" x="881.884766"/>
     <use xlink:href="#DejaVuSans-6f" x="913.671875"/>
     <use xlink:href="#DejaVuSans-66" x="974.853516"/>
     <use xlink:href="#DejaVuSans-20" x="1010.058594"/>
     <use xlink:href="#DejaVuSans-46" x="1041.845703"/>
     <use xlink:href="#DejaVuSans-43" x="1099.365234"/>
    </g>
   </g>
   <g id="legend_1">
    <g id="patch_7">
     <path d="M 299.162188 108.1845 
L 407.72 108.1845 
Q 409.72 108.1845 409.72 106.1845 
L 409.72 48.472 
Q 409.72 46.472 407.72 46.472 
L 299.162188 46.472 
Q 297.162188 46.472 297.162188 48.472 
L 297.162188 106.1845 
Q 297.162188 108.1845 299.162188 108.1845 
z
" style="fill: #ffffff; opacity: 0.8; stroke: #cccccc; stroke-linejoin: miter"/>
    </g>
    <g id="line2d_19">
     <path d="M 301.162188 54.570438 
L 311.162188 54.570438 
L 321.162188 54.570438 
" style="fill: none; stroke: #1f77b4; stroke-linecap: square"/>
    </g>
    <g id="text_17">
     <!-- 2000 samples -->
     <g transform="translate(329.162188 58.070438) scale(0.1 -0.1)">
      <defs>
       <path id="DejaVuSans-61" d="M 2194 1759 
Q 1497 1759 1228 1600 
Q 959 1441 959 1056 
Q 959 750 1161 570 
Q 1363 391 1709 391 
Q 2188 391 2477 730 
Q 2766 1069 2766 1631 
L 2766 1759 
L 2194 1759 
z
M 3341 1997 
L 3341 0 
L 2766 0 
L 2766 531 
Q 2569 213 2275 61 
Q 1981 -91 1556 -91 
Q 1019 -91 701 211 
Q 384 513 384 1019 
Q 384 1609 779 1909 
Q 1175 2209 1959 2209 
L 2766 2209 
L 2766 2266 
Q 2766 2663 2505 2880 
Q 2244 3097 1772 3097 
Q 1472 3097 1187 3025 
Q 903 2953 641 2809 
L 641 3341 
Q 956 3463 1253 3523 
Q 1550 3584 1831 3584 
Q 2591 3584 2966 3190 
Q 3341 2797 3341 1997 
z
" transform="scale(0.015625)"/>
       <path id="DejaVuSans-6d" d="M 3328 2828 
Q 3544 3216 3844 3400 
Q 4144 3584 4550 3584 
Q 5097 3584 5394 3201 
Q 5691 2819 5691 2113 
L 5691 0 
L 5113 0 
L 5113 2094 
Q 5113 2597 4934 2840 
Q 4756 3084 4391 3084 
Q 3944 3084 3684 2787 
Q 3425 2491 3425 1978 
L 3425 0 
L 2847 0 
L 2847 2094 
Q 2847 2600 2669 2842 
Q 2491 3084 2119 3084 
Q 1678 3084 1418 2786 
Q 1159 2488 1159 1978 
L 1159 0 
L 581 0 
L 581 3500 
L 1159 3500 
L 1159 2956 
Q 1356 3278 1631 3431 
Q 1906 3584 2284 3584 
Q 2666 3584 2933 3390 
Q 3200 3197 3328 2828 
z
" transform="scale(0.015625)"/>
       <path id="DejaVuSans-6c" d="M 603 4863 
L 1178 4863 
L 1178 0 
L 603 0 
L 603 4863 
z
" transform="scale(0.015625)"/>
      </defs>
      <use xlink:href="#DejaVuSans-32"/>
      <use xlink:href="#DejaVuSans-30" x="63.623047"/>
      <use xlink:href="#DejaVuSans-30" x="127.246094"/>
      <use xlink:href="#DejaVuSans-30" x="190.869141"/>
      <use xlink:href="#DejaVuSans-20" x="254.492188"/>
      <use xlink:href="#DejaVuSans-73" x="286.279297"/>
      <use xlink:href="#DejaVuSans-61" x="338.378906"/>
      <use xlink:href="#DejaVuSans-6d" x="399.658203"/>
      <use xlink:href="#DejaVuSans-70" x="497.070312"/>
      <use xlink:href="#DejaVuSans-6c" x="560.546875"/>
      <use xlink:href="#DejaVuSans-65" x="588.330078"/>
      <use xlink:href="#DejaVuSans-73" x="649.853516"/>
     </g>
    </g>
    <g id="line2d_20">
     <path d="M 301.162188 69.248563 
L 311.162188 69.248563 
L 321.162188 69.248563 
" style="fill: none; stroke: #ff7f0e; stroke-linecap: square"/>
    </g>
    <g id="text_18">
     <!-- 5000 samples -->
     <g transform="translate(329.162188 72.748563) scale(0.1 -0.1)">
      <defs>
       <path id="DejaVuSans-35" d="M 691 4666 
L 3169 4666 
L 3169 4134 
L 1269 4134 
L 1269 2991 
Q 1406 3038 1543 3061 
Q 1681 3084 1819 3084 
Q 2600 3084 3056 2656 
Q 3513 2228 3513 1497 
Q 3513 744 3044 326 
Q 2575 -91 1722 -91 
Q 1428 -91 1123 -41 
Q 819 9 494 109 
L 494 744 
Q 775 591 1075 516 
Q 1375 441 1709 441 
Q 2250 441 2565 725 
Q 2881 1009 2881 1497 
Q 2881 1984 2565 2268 
Q 2250 2553 1709 2553 
Q 1456 2553 1204 2497 
Q 953 2441 691 2322 
L 691 4666 
z
" transform="scale(0.015625)"/>
      </defs>
      <use xlink:href="#DejaVuSans-35"/>
      <use xlink:href="#DejaVuSans-30" x="63.623047"/>
      <use xlink:href="#DejaVuSans-30" x="127.246094"/>
      <use xlink:href="#DejaVuSans-30" x="190.869141"/>
      <use xlink:href="#DejaVuSans-20" x="254.492188"/>
      <use xlink:href="#DejaVuSans-73" x="286.279297"/>
      <use xlink:href="#DejaVuSans-61" x="338.378906"/>
      <use xlink:href="#DejaVuSans-6d" x="399.658203"/>
      <use xlink:href="#DejaVuSans-70" x="497.070312"/>
      <use xlink:href="#DejaVuSans-6c" x="560.546875"/>
      <use xlink:href="#DejaVuSans-65" x="588.330078"/>
      <use xlink:href="#DejaVuSans-73" x="649.853516"/>
     </g>
    </g>
    <g id="line2d_21">
     <path d="M 301.162188 83.926688 
L 311.162188 83.926688 
L 321.162188 83.926688 
" style="fill: none; stroke: #2ca02c; stroke-linecap: square"/>
    </g>
    <g id="text_19">
     <!-- 8000 samples -->
     <g transform="translate(329.162188 87.426688) scale(0.1 -0.1)">
      <use xlink:href="#DejaVuSans-38"/>
      <use xlink:href="#DejaVuSans-30" x="63.623047"/>
      <use xlink:href="#DejaVuSans-30" x="127.246094"/>
      <use xlink:href="#DejaVuSans-30" x="190.869141"/>
      <use xlink:href="#DejaVuSans-20" x="254.492188"/>
      <use xlink:href="#DejaVuSans-73" x="286.279297"/>
      <use xlink:href="#DejaVuSans-61" x="338.378906"/>
      <use xlink:href="#DejaVuSans-6d" x="399.658203"/>
      <use xlink:href="#DejaVuSans-70" x="497.070312"/>
      <use xlink:href="#DejaVuSans-6c" x="560.546875"/>
      <use xlink:href="#DejaVuSans-65" x="588.330078"/>
      <use xlink:href="#DejaVuSans-73" x="649.853516"/>
     </g>
    </g>
    <g id="line2d_22">
     <path d="M 301.162188 98.604813 
L 311.162188 98.604813 
L 321.162188 98.604813 
" style="fill: none; stroke: #d62728; stroke-linecap: square"/>
    </g>
    <g id="text_20">
     <!-- 10000 samples -->
     <g transform="translate(329.162188 102.104813) scale(0.1 -0.1)">
      <use xlink:href="#DejaVuSans-31"/>
      <use xlink:href="#DejaVuSans-30" x="63.623047"/>
      <use xlink:href="#DejaVuSans-30" x="127.246094"/>
      <use xlink:href="#DejaVuSans-30" x="190.869141"/>
      <use xlink:href="#DejaVuSans-30" x="254.492188"/>
      <use xlink:href="#DejaVuSans-20" x="318.115234"/>
      <use xlink:href="#DejaVuSans-73" x="349.902344"/>
      <use xlink:href="#DejaVuSans-61" x="402.001953"/>
      <use xlink:href="#DejaVuSans-6d" x="463.28125"/>
      <use xlink:href="#DejaVuSans-70" x="560.693359"/>
      <use xlink:href="#DejaVuSans-6c" x="624.169922"/>
      <use xlink:href="#DejaVuSans-65" x="651.953125"/>
      <use xlink:href="#DejaVuSans-73" x="713.476562"/>
     </g>
    </g>
   </g>
  </g>
 </g>
 <defs>
  <clipPath id="p96719821fd">
   <rect x="57.6" y="41.472" width="357.12" height="266.112"/>
  </clipPath>
 </defs>
</svg>
