<?xml version="1.0" encoding="utf-8" standalone="no"?>
<!DOCTYPE svg PUBLIC "-//W3C//DTD SVG 1.1//EN"
  "http://www.w3.org/Graphics/SVG/1.1/DTD/svg11.dtd">
<svg xmlns:xlink="http://www.w3.org/1999/xlink" width="460.8pt" height="345.6pt" viewBox="0 0 460.8 345.6" xmlns="http://www.w3.org/2000/svg" version="1.1">
 <metadata>
  <rdf:RDF xmlns:dc="http://purl.org/dc/elements/1.1/" xmlns:cc="http://creativecommons.org/ns#" xmlns:rdf="http://www.w3.org/1999/02/22-rdf-syntax-ns#">
   <cc:Work>
    <dc:type rdf:resource="http://purl.org/dc/dcmitype/StillImage"/>
    <dc:date>2023-09-13T16:28:03.363091</dc:date>
    <dc:format>image/svg+xml</dc:format>
    <dc:creator>
     <cc:Agent>
      <dc:title>Matplotlib v3.7.1, https://matplotlib.org/</dc:title>
     </cc:Agent>
    </dc:creator>
   </cc:Work>
  </rdf:RDF>
 </metadata>
 <defs>
  <style type="text/css">*{stroke-linejoin: round; stroke-linecap: butt}</style>
 </defs>
 <g id="figure_1">
  <g id="patch_1">
   <path d="M 0 345.6 
L 460.8 345.6 
L 460.8 0 
L 0 0 
z
" style="fill: #ffffff"/>
  </g>
  <g id="axes_1">
   <g id="patch_2">
    <path d="M 57.6 307.584 
L 414.72 307.584 
L 414.72 41.472 
L 57.6 41.472 
z
" style="fill: #ffffff"/>
   </g>
   <g id="matplotlib.axis_1">
    <g id="xtick_1">
     <g id="line2d_1">
      <defs>
       <path id="m857ef70105" d="M 0 0 
L 0 3.5 
" style="stroke: #000000; stroke-width: 0.8"/>
      </defs>
      <g>
       <use xlink:href="#m857ef70105" x="71.653838" y="307.584" style="stroke: #000000; stroke-width: 0.8"/>
      </g>
     </g>
     <g id="text_1">
      <!-- 0 -->
      <g transform="translate(68.472588 322.182437) scale(0.1 -0.1)">
       <defs>
        <path id="DejaVuSans-30" d="M 2034 4250 
Q 1547 4250 1301 3770 
Q 1056 3291 1056 2328 
Q 1056 1369 1301 889 
Q 1547 409 2034 409 
Q 2525 409 2770 889 
Q 3016 1369 3016 2328 
Q 3016 3291 2770 3770 
Q 2525 4250 2034 4250 
z
M 2034 4750 
Q 2819 4750 3233 4129 
Q 3647 3509 3647 2328 
Q 3647 1150 3233 529 
Q 2819 -91 2034 -91 
Q 1250 -91 836 529 
Q 422 1150 422 2328 
Q 422 3509 836 4129 
Q 1250 4750 2034 4750 
z
" transform="scale(0.015625)"/>
       </defs>
       <use xlink:href="#DejaVuSans-30"/>
      </g>
     </g>
    </g>
    <g id="xtick_2">
     <g id="line2d_2">
      <g>
       <use xlink:href="#m857ef70105" x="115.231629" y="307.584" style="stroke: #000000; stroke-width: 0.8"/>
      </g>
     </g>
     <g id="text_2">
      <!-- 20 -->
      <g transform="translate(108.869129 322.182437) scale(0.1 -0.1)">
       <defs>
        <path id="DejaVuSans-32" d="M 1228 531 
L 3431 531 
L 3431 0 
L 469 0 
L 469 531 
Q 828 903 1448 1529 
Q 2069 2156 2228 2338 
Q 2531 2678 2651 2914 
Q 2772 3150 2772 3378 
Q 2772 3750 2511 3984 
Q 2250 4219 1831 4219 
Q 1534 4219 1204 4116 
Q 875 4013 500 3803 
L 500 4441 
Q 881 4594 1212 4672 
Q 1544 4750 1819 4750 
Q 2544 4750 2975 4387 
Q 3406 4025 3406 3419 
Q 3406 3131 3298 2873 
Q 3191 2616 2906 2266 
Q 2828 2175 2409 1742 
Q 1991 1309 1228 531 
z
" transform="scale(0.015625)"/>
       </defs>
       <use xlink:href="#DejaVuSans-32"/>
       <use xlink:href="#DejaVuSans-30" x="63.623047"/>
      </g>
     </g>
    </g>
    <g id="xtick_3">
     <g id="line2d_3">
      <g>
       <use xlink:href="#m857ef70105" x="158.80942" y="307.584" style="stroke: #000000; stroke-width: 0.8"/>
      </g>
     </g>
     <g id="text_3">
      <!-- 40 -->
      <g transform="translate(152.44692 322.182437) scale(0.1 -0.1)">
       <defs>
        <path id="DejaVuSans-34" d="M 2419 4116 
L 825 1625 
L 2419 1625 
L 2419 4116 
z
M 2253 4666 
L 3047 4666 
L 3047 1625 
L 3713 1625 
L 3713 1100 
L 3047 1100 
L 3047 0 
L 2419 0 
L 2419 1100 
L 313 1100 
L 313 1709 
L 2253 4666 
z
" transform="scale(0.015625)"/>
       </defs>
       <use xlink:href="#DejaVuSans-34"/>
       <use xlink:href="#DejaVuSans-30" x="63.623047"/>
      </g>
     </g>
    </g>
    <g id="xtick_4">
     <g id="line2d_4">
      <g>
       <use xlink:href="#m857ef70105" x="202.387212" y="307.584" style="stroke: #000000; stroke-width: 0.8"/>
      </g>
     </g>
     <g id="text_4">
      <!-- 60 -->
      <g transform="translate(196.024712 322.182437) scale(0.1 -0.1)">
       <defs>
        <path id="DejaVuSans-36" d="M 2113 2584 
Q 1688 2584 1439 2293 
Q 1191 2003 1191 1497 
Q 1191 994 1439 701 
Q 1688 409 2113 409 
Q 2538 409 2786 701 
Q 3034 994 3034 1497 
Q 3034 2003 2786 2293 
Q 2538 2584 2113 2584 
z
M 3366 4563 
L 3366 3988 
Q 3128 4100 2886 4159 
Q 2644 4219 2406 4219 
Q 1781 4219 1451 3797 
Q 1122 3375 1075 2522 
Q 1259 2794 1537 2939 
Q 1816 3084 2150 3084 
Q 2853 3084 3261 2657 
Q 3669 2231 3669 1497 
Q 3669 778 3244 343 
Q 2819 -91 2113 -91 
Q 1303 -91 875 529 
Q 447 1150 447 2328 
Q 447 3434 972 4092 
Q 1497 4750 2381 4750 
Q 2619 4750 2861 4703 
Q 3103 4656 3366 4563 
z
" transform="scale(0.015625)"/>
       </defs>
       <use xlink:href="#DejaVuSans-36"/>
       <use xlink:href="#DejaVuSans-30" x="63.623047"/>
      </g>
     </g>
    </g>
    <g id="xtick_5">
     <g id="line2d_5">
      <g>
       <use xlink:href="#m857ef70105" x="245.965003" y="307.584" style="stroke: #000000; stroke-width: 0.8"/>
      </g>
     </g>
     <g id="text_5">
      <!-- 80 -->
      <g transform="translate(239.602503 322.182437) scale(0.1 -0.1)">
       <defs>
        <path id="DejaVuSans-38" d="M 2034 2216 
Q 1584 2216 1326 1975 
Q 1069 1734 1069 1313 
Q 1069 891 1326 650 
Q 1584 409 2034 409 
Q 2484 409 2743 651 
Q 3003 894 3003 1313 
Q 3003 1734 2745 1975 
Q 2488 2216 2034 2216 
z
M 1403 2484 
Q 997 2584 770 2862 
Q 544 3141 544 3541 
Q 544 4100 942 4425 
Q 1341 4750 2034 4750 
Q 2731 4750 3128 4425 
Q 3525 4100 3525 3541 
Q 3525 3141 3298 2862 
Q 3072 2584 2669 2484 
Q 3125 2378 3379 2068 
Q 3634 1759 3634 1313 
Q 3634 634 3220 271 
Q 2806 -91 2034 -91 
Q 1263 -91 848 271 
Q 434 634 434 1313 
Q 434 1759 690 2068 
Q 947 2378 1403 2484 
z
M 1172 3481 
Q 1172 3119 1398 2916 
Q 1625 2713 2034 2713 
Q 2441 2713 2670 2916 
Q 2900 3119 2900 3481 
Q 2900 3844 2670 4047 
Q 2441 4250 2034 4250 
Q 1625 4250 1398 4047 
Q 1172 3844 1172 3481 
z
" transform="scale(0.015625)"/>
       </defs>
       <use xlink:href="#DejaVuSans-38"/>
       <use xlink:href="#DejaVuSans-30" x="63.623047"/>
      </g>
     </g>
    </g>
    <g id="xtick_6">
     <g id="line2d_6">
      <g>
       <use xlink:href="#m857ef70105" x="289.542794" y="307.584" style="stroke: #000000; stroke-width: 0.8"/>
      </g>
     </g>
     <g id="text_6">
      <!-- 100 -->
      <g transform="translate(279.999044 322.182437) scale(0.1 -0.1)">
       <defs>
        <path id="DejaVuSans-31" d="M 794 531 
L 1825 531 
L 1825 4091 
L 703 3866 
L 703 4441 
L 1819 4666 
L 2450 4666 
L 2450 531 
L 3481 531 
L 3481 0 
L 794 0 
L 794 531 
z
" transform="scale(0.015625)"/>
       </defs>
       <use xlink:href="#DejaVuSans-31"/>
       <use xlink:href="#DejaVuSans-30" x="63.623047"/>
       <use xlink:href="#DejaVuSans-30" x="127.246094"/>
      </g>
     </g>
    </g>
    <g id="xtick_7">
     <g id="line2d_7">
      <g>
       <use xlink:href="#m857ef70105" x="333.120586" y="307.584" style="stroke: #000000; stroke-width: 0.8"/>
      </g>
     </g>
     <g id="text_7">
      <!-- 120 -->
      <g transform="translate(323.576836 322.182437) scale(0.1 -0.1)">
       <use xlink:href="#DejaVuSans-31"/>
       <use xlink:href="#DejaVuSans-32" x="63.623047"/>
       <use xlink:href="#DejaVuSans-30" x="127.246094"/>
      </g>
     </g>
    </g>
    <g id="xtick_8">
     <g id="line2d_8">
      <g>
       <use xlink:href="#m857ef70105" x="376.698377" y="307.584" style="stroke: #000000; stroke-width: 0.8"/>
      </g>
     </g>
     <g id="text_8">
      <!-- 140 -->
      <g transform="translate(367.154627 322.182437) scale(0.1 -0.1)">
       <use xlink:href="#DejaVuSans-31"/>
       <use xlink:href="#DejaVuSans-34" x="63.623047"/>
       <use xlink:href="#DejaVuSans-30" x="127.246094"/>
      </g>
     </g>
    </g>
    <g id="text_9">
     <!-- epoch -->
     <g transform="translate(220.931875 335.860562) scale(0.1 -0.1)">
      <defs>
       <path id="DejaVuSans-65" d="M 3597 1894 
L 3597 1613 
L 953 1613 
Q 991 1019 1311 708 
Q 1631 397 2203 397 
Q 2534 397 2845 478 
Q 3156 559 3463 722 
L 3463 178 
Q 3153 47 2828 -22 
Q 2503 -91 2169 -91 
Q 1331 -91 842 396 
Q 353 884 353 1716 
Q 353 2575 817 3079 
Q 1281 3584 2069 3584 
Q 2775 3584 3186 3129 
Q 3597 2675 3597 1894 
z
M 3022 2063 
Q 3016 2534 2758 2815 
Q 2500 3097 2075 3097 
Q 1594 3097 1305 2825 
Q 1016 2553 972 2059 
L 3022 2063 
z
" transform="scale(0.015625)"/>
       <path id="DejaVuSans-70" d="M 1159 525 
L 1159 -1331 
L 581 -1331 
L 581 3500 
L 1159 3500 
L 1159 2969 
Q 1341 3281 1617 3432 
Q 1894 3584 2278 3584 
Q 2916 3584 3314 3078 
Q 3713 2572 3713 1747 
Q 3713 922 3314 415 
Q 2916 -91 2278 -91 
Q 1894 -91 1617 61 
Q 1341 213 1159 525 
z
M 3116 1747 
Q 3116 2381 2855 2742 
Q 2594 3103 2138 3103 
Q 1681 3103 1420 2742 
Q 1159 2381 1159 1747 
Q 1159 1113 1420 752 
Q 1681 391 2138 391 
Q 2594 391 2855 752 
Q 3116 1113 3116 1747 
z
" transform="scale(0.015625)"/>
       <path id="DejaVuSans-6f" d="M 1959 3097 
Q 1497 3097 1228 2736 
Q 959 2375 959 1747 
Q 959 1119 1226 758 
Q 1494 397 1959 397 
Q 2419 397 2687 759 
Q 2956 1122 2956 1747 
Q 2956 2369 2687 2733 
Q 2419 3097 1959 3097 
z
M 1959 3584 
Q 2709 3584 3137 3096 
Q 3566 2609 3566 1747 
Q 3566 888 3137 398 
Q 2709 -91 1959 -91 
Q 1206 -91 779 398 
Q 353 888 353 1747 
Q 353 2609 779 3096 
Q 1206 3584 1959 3584 
z
" transform="scale(0.015625)"/>
       <path id="DejaVuSans-63" d="M 3122 3366 
L 3122 2828 
Q 2878 2963 2633 3030 
Q 2388 3097 2138 3097 
Q 1578 3097 1268 2742 
Q 959 2388 959 1747 
Q 959 1106 1268 751 
Q 1578 397 2138 397 
Q 2388 397 2633 464 
Q 2878 531 3122 666 
L 3122 134 
Q 2881 22 2623 -34 
Q 2366 -91 2075 -91 
Q 1284 -91 818 406 
Q 353 903 353 1747 
Q 353 2603 823 3093 
Q 1294 3584 2113 3584 
Q 2378 3584 2631 3529 
Q 2884 3475 3122 3366 
z
" transform="scale(0.015625)"/>
       <path id="DejaVuSans-68" d="M 3513 2113 
L 3513 0 
L 2938 0 
L 2938 2094 
Q 2938 2591 2744 2837 
Q 2550 3084 2163 3084 
Q 1697 3084 1428 2787 
Q 1159 2491 1159 1978 
L 1159 0 
L 581 0 
L 581 4863 
L 1159 4863 
L 1159 2956 
Q 1366 3272 1645 3428 
Q 1925 3584 2291 3584 
Q 2894 3584 3203 3211 
Q 3513 2838 3513 2113 
z
" transform="scale(0.015625)"/>
      </defs>
      <use xlink:href="#DejaVuSans-65"/>
      <use xlink:href="#DejaVuSans-70" x="61.523438"/>
      <use xlink:href="#DejaVuSans-6f" x="125"/>
      <use xlink:href="#DejaVuSans-63" x="186.181641"/>
      <use xlink:href="#DejaVuSans-68" x="241.162109"/>
     </g>
    </g>
   </g>
   <g id="matplotlib.axis_2">
    <g id="ytick_1">
     <g id="line2d_9">
      <defs>
       <path id="m893aa05561" d="M 0 0 
L -3.5 0 
" style="stroke: #000000; stroke-width: 0.8"/>
      </defs>
      <g>
       <use xlink:href="#m893aa05561" x="57.6" y="307.584" style="stroke: #000000; stroke-width: 0.8"/>
      </g>
     </g>
     <g id="text_10">
      <!-- 0.0 -->
      <g transform="translate(34.696875 311.383219) scale(0.1 -0.1)">
       <defs>
        <path id="DejaVuSans-2e" d="M 684 794 
L 1344 794 
L 1344 0 
L 684 0 
L 684 794 
z
" transform="scale(0.015625)"/>
       </defs>
       <use xlink:href="#DejaVuSans-30"/>
       <use xlink:href="#DejaVuSans-2e" x="63.623047"/>
       <use xlink:href="#DejaVuSans-30" x="95.410156"/>
      </g>
     </g>
    </g>
    <g id="ytick_2">
     <g id="line2d_10">
      <g>
       <use xlink:href="#m893aa05561" x="57.6" y="260.51418" style="stroke: #000000; stroke-width: 0.8"/>
      </g>
     </g>
     <g id="text_11">
      <!-- 0.2 -->
      <g transform="translate(34.696875 264.313399) scale(0.1 -0.1)">
       <use xlink:href="#DejaVuSans-30"/>
       <use xlink:href="#DejaVuSans-2e" x="63.623047"/>
       <use xlink:href="#DejaVuSans-32" x="95.410156"/>
      </g>
     </g>
    </g>
    <g id="ytick_3">
     <g id="line2d_11">
      <g>
       <use xlink:href="#m893aa05561" x="57.6" y="213.44436" style="stroke: #000000; stroke-width: 0.8"/>
      </g>
     </g>
     <g id="text_12">
      <!-- 0.4 -->
      <g transform="translate(34.696875 217.243578) scale(0.1 -0.1)">
       <use xlink:href="#DejaVuSans-30"/>
       <use xlink:href="#DejaVuSans-2e" x="63.623047"/>
       <use xlink:href="#DejaVuSans-34" x="95.410156"/>
      </g>
     </g>
    </g>
    <g id="ytick_4">
     <g id="line2d_12">
      <g>
       <use xlink:href="#m893aa05561" x="57.6" y="166.374539" style="stroke: #000000; stroke-width: 0.8"/>
      </g>
     </g>
     <g id="text_13">
      <!-- 0.6 -->
      <g transform="translate(34.696875 170.173758) scale(0.1 -0.1)">
       <use xlink:href="#DejaVuSans-30"/>
       <use xlink:href="#DejaVuSans-2e" x="63.623047"/>
       <use xlink:href="#DejaVuSans-36" x="95.410156"/>
      </g>
     </g>
    </g>
    <g id="ytick_5">
     <g id="line2d_13">
      <g>
       <use xlink:href="#m893aa05561" x="57.6" y="119.304719" style="stroke: #000000; stroke-width: 0.8"/>
      </g>
     </g>
     <g id="text_14">
      <!-- 0.8 -->
      <g transform="translate(34.696875 123.103938) scale(0.1 -0.1)">
       <use xlink:href="#DejaVuSans-30"/>
       <use xlink:href="#DejaVuSans-2e" x="63.623047"/>
       <use xlink:href="#DejaVuSans-38" x="95.410156"/>
      </g>
     </g>
    </g>
    <g id="ytick_6">
     <g id="line2d_14">
      <g>
       <use xlink:href="#m893aa05561" x="57.6" y="72.234899" style="stroke: #000000; stroke-width: 0.8"/>
      </g>
     </g>
     <g id="text_15">
      <!-- 1.0 -->
      <g transform="translate(34.696875 76.034118) scale(0.1 -0.1)">
       <use xlink:href="#DejaVuSans-31"/>
       <use xlink:href="#DejaVuSans-2e" x="63.623047"/>
       <use xlink:href="#DejaVuSans-30" x="95.410156"/>
      </g>
     </g>
    </g>
   </g>
   <g id="line2d_15">
    <path d="M 73.832727 230.795076 
L 76.011617 105.69892 
L 78.190506 110.874005 
L 80.369396 96.127419 
L 82.548286 89.785959 
L 84.727175 96.67335 
L 86.906065 88.352038 
L 89.084954 94.538859 
L 91.263844 90.03172 
L 93.442733 88.688734 
L 95.621623 88.631902 
L 97.800513 93.062343 
L 99.979402 88.860067 
L 102.158292 94.477875 
L 104.337181 90.90035 
L 106.516071 91.412505 
L 108.69496 88.489788 
L 110.87385 90.215264 
L 113.052739 95.084466 
L 115.231629 93.849649 
L 117.410519 92.384512 
L 119.589408 93.321517 
L 121.768298 92.582611 
L 123.947187 88.728101 
L 126.126077 90.386441 
L 128.304966 89.282889 
L 130.483856 88.708746 
L 132.662746 89.59183 
L 134.841635 90.854973 
L 137.020525 87.813679 
L 139.199414 91.375853 
L 141.378304 89.188684 
L 143.557193 88.92625 
L 145.736083 95.446802 
L 147.914973 86.938671 
L 150.093862 87.872756 
L 152.272752 89.494683 
L 154.451641 88.849969 
L 156.630531 88.942965 
L 158.80942 87.048156 
L 160.98831 90.251363 
L 163.1672 88.92243 
L 167.524979 90.937833 
L 169.703868 90.898234 
L 171.882758 88.214587 
L 174.061647 90.038762 
L 176.240537 87.799625 
L 178.419426 88.50914 
L 180.598316 89.736386 
L 182.777206 88.135095 
L 184.956095 88.916282 
L 187.134985 86.758114 
L 189.313874 87.769082 
L 191.492764 89.457163 
L 193.671653 89.4834 
L 195.850543 89.335487 
L 198.029433 90.689929 
L 200.208322 88.427545 
L 202.387212 89.509841 
L 204.566101 87.711143 
L 206.744991 89.931236 
L 208.92388 88.913622 
L 211.10277 88.882303 
L 213.28166 88.69461 
L 215.460549 93.4087 
L 217.639439 87.877231 
L 219.818328 91.398753 
L 221.997218 94.208443 
L 224.176107 88.98134 
L 226.354997 89.574744 
L 228.533887 88.577751 
L 230.712776 88.617862 
L 232.891666 88.372646 
L 235.070555 88.871866 
L 237.249445 89.53443 
L 239.428334 88.457691 
L 241.607224 86.610639 
L 243.786113 90.654723 
L 245.965003 87.739711 
L 248.143893 94.164149 
L 250.322782 93.345355 
L 252.501672 90.838088 
L 254.680561 91.641832 
L 256.859451 89.124543 
L 259.03834 86.903809 
L 261.21723 89.303265 
L 263.39612 87.317479 
L 265.575009 88.125942 
L 267.753899 86.696816 
L 269.932788 89.288967 
L 272.111678 87.14756 
L 274.290567 89.228495 
L 276.469457 89.613445 
L 278.648347 88.313368 
L 280.827236 87.723576 
L 283.006126 87.723009 
L 285.185015 90.266409 
L 287.363905 88.043212 
L 289.542794 88.806948 
L 293.900574 88.842198 
L 296.079463 88.559974 
L 298.258353 87.960023 
L 300.437242 89.448518 
L 302.616132 87.145922 
L 304.795021 89.348843 
L 306.973911 87.864274 
L 309.1528 88.440718 
L 311.33169 87.797046 
L 313.51058 89.041725 
L 315.689469 87.307709 
L 317.868359 88.544657 
L 320.047248 88.207753 
L 322.226138 97.390417 
L 324.405027 90.48612 
L 326.583917 87.985519 
L 328.762807 89.725246 
L 330.941696 89.907654 
L 333.120586 88.239934 
L 335.299475 87.843463 
L 337.478365 87.620807 
L 339.657254 88.346618 
L 341.836144 90.114131 
L 344.015034 88.671343 
L 346.193923 86.39557 
L 348.372813 90.069778 
L 350.551702 86.234926 
L 352.730592 90.459193 
L 354.909481 90.00779 
L 357.088371 89.226213 
L 359.267261 87.298278 
L 361.44615 88.939835 
L 363.62504 88.446885 
L 365.803929 88.632233 
L 367.982819 88.38675 
L 370.161708 90.234233 
L 372.340598 89.424334 
L 374.519487 87.887381 
L 376.698377 90.279327 
L 378.877267 88.912793 
L 381.056156 87.747052 
L 383.235046 89.853521 
L 385.413935 89.956227 
L 387.592825 91.367378 
L 389.771714 88.692618 
L 391.950604 88.347616 
L 394.129494 92.659748 
L 396.308383 94.564787 
L 398.487273 87.32757 
L 398.487273 87.32757 
" clip-path="url(#pcce317bf7e)" style="fill: none; stroke: #1f77b4; stroke-linecap: square"/>
   </g>
   <g id="line2d_16">
    <path d="M 73.832727 212.589921 
L 76.011617 204.324204 
L 78.190506 212.633009 
L 89.084954 212.586389 
L 91.263844 161.193113 
L 93.442733 194.826001 
L 95.621623 182.254263 
L 97.800513 127.349301 
L 99.979402 127.311055 
L 102.158292 200.484098 
L 104.337181 112.235572 
L 106.516071 113.222383 
L 108.69496 109.4319 
L 110.87385 107.080153 
L 113.052739 108.749584 
L 115.231629 111.372979 
L 117.410519 108.126132 
L 119.589408 107.138853 
L 121.768298 120.530171 
L 123.947187 114.527065 
L 126.126077 117.24635 
L 128.304966 118.628913 
L 130.483856 111.222256 
L 132.662746 115.968101 
L 134.841635 107.430678 
L 137.020525 115.7521 
L 139.199414 115.181541 
L 141.378304 131.502531 
L 143.557193 123.022943 
L 145.736083 114.037936 
L 147.914973 137.142671 
L 150.093862 115.46918 
L 152.272752 109.293042 
L 154.451641 111.677793 
L 156.630531 120.253663 
L 158.80942 105.466726 
L 160.98831 114.261819 
L 163.1672 107.392351 
L 165.346089 116.697734 
L 167.524979 114.136902 
L 169.703868 115.167168 
L 171.882758 107.557615 
L 174.061647 106.808089 
L 176.240537 111.779528 
L 178.419426 108.921824 
L 180.598316 103.897069 
L 182.777206 106.337799 
L 184.956095 116.280126 
L 187.134985 118.434345 
L 189.313874 109.019212 
L 191.492764 106.226626 
L 193.671653 105.912884 
L 195.850543 104.060317 
L 198.029433 106.088611 
L 200.208322 102.668939 
L 202.387212 109.702552 
L 204.566101 106.905745 
L 206.744991 109.438722 
L 208.92388 106.163426 
L 211.10277 115.158513 
L 213.28166 105.651881 
L 215.460549 111.312442 
L 217.639439 105.176052 
L 219.818328 106.618522 
L 221.997218 109.995568 
L 224.176107 110.427809 
L 226.354997 125.36721 
L 228.533887 104.603438 
L 230.712776 104.215414 
L 232.891666 107.298534 
L 235.070555 108.691813 
L 237.249445 111.091993 
L 239.428334 109.740855 
L 241.607224 107.598115 
L 243.786113 109.188288 
L 245.965003 110.603066 
L 248.143893 112.799892 
L 250.322782 107.007814 
L 252.501672 107.563672 
L 254.680561 107.103164 
L 259.03834 105.232418 
L 261.21723 131.726229 
L 263.39612 105.460309 
L 265.575009 105.544342 
L 267.753899 105.480776 
L 269.932788 112.516178 
L 272.111678 112.275095 
L 274.290567 110.583406 
L 276.469457 109.202436 
L 278.648347 111.656483 
L 280.827236 114.691461 
L 283.006126 106.560612 
L 285.185015 110.146031 
L 287.363905 116.443529 
L 289.542794 109.482056 
L 291.721684 108.165589 
L 293.900574 102.597141 
L 296.079463 105.757572 
L 298.258353 106.881572 
L 300.437242 105.725492 
L 302.616132 106.574451 
L 304.795021 106.281651 
L 306.973911 107.967921 
L 309.1528 104.779368 
L 311.33169 106.718039 
L 313.51058 105.738583 
L 315.689469 105.516871 
L 317.868359 112.204996 
L 320.047248 104.515022 
L 322.226138 109.429958 
L 324.405027 106.21487 
L 326.583917 108.845993 
L 328.762807 111.065117 
L 330.941696 102.293334 
L 333.120586 106.440921 
L 335.299475 111.93967 
L 337.478365 103.503594 
L 339.657254 107.651093 
L 341.836144 105.253742 
L 344.015034 107.840763 
L 346.193923 106.11637 
L 348.372813 109.948288 
L 350.551702 105.742858 
L 352.730592 112.317539 
L 357.088371 104.632333 
L 359.267261 104.680902 
L 361.44615 110.015175 
L 363.62504 107.173673 
L 365.803929 106.14185 
L 367.982819 109.265117 
L 370.161708 104.888124 
L 372.340598 104.037252 
L 374.519487 103.757738 
L 376.698377 106.019823 
L 378.877267 105.08119 
L 381.056156 105.344987 
L 383.235046 104.474108 
L 385.413935 105.17946 
L 387.592825 105.000023 
L 389.771714 106.219897 
L 391.950604 106.303667 
L 394.129494 108.046625 
L 396.308383 106.147813 
L 398.487273 108.205511 
L 398.487273 108.205511 
" clip-path="url(#pcce317bf7e)" style="fill: none; stroke: #ff7f0e; stroke-linecap: square"/>
   </g>
   <g id="line2d_17">
    <path d="M 73.832727 212.729265 
L 76.011617 212.610672 
L 78.190506 202.656593 
L 80.369396 205.687928 
L 82.548286 132.405441 
L 84.727175 116.070915 
L 86.906065 118.348865 
L 89.084954 95.711138 
L 91.263844 98.224575 
L 93.442733 129.617994 
L 95.621623 92.209144 
L 97.800513 91.492115 
L 99.979402 104.929867 
L 102.158292 94.625159 
L 104.337181 93.793858 
L 106.516071 91.726814 
L 108.69496 93.875439 
L 110.87385 113.876961 
L 113.052739 91.454807 
L 115.231629 92.450845 
L 117.410519 89.179952 
L 119.589408 94.036209 
L 121.768298 89.595875 
L 123.947187 93.549557 
L 126.126077 89.492077 
L 128.304966 97.364264 
L 130.483856 89.485217 
L 132.662746 91.370153 
L 134.841635 93.885689 
L 137.020525 88.13053 
L 139.199414 91.226602 
L 141.378304 92.555474 
L 143.557193 89.758268 
L 145.736083 88.478533 
L 147.914973 104.990623 
L 150.093862 93.032186 
L 152.272752 93.145638 
L 154.451641 89.62983 
L 156.630531 94.384437 
L 158.80942 88.769975 
L 160.98831 88.882301 
L 163.1672 87.946226 
L 165.346089 89.306443 
L 167.524979 94.403562 
L 169.703868 88.509928 
L 171.882758 90.464101 
L 174.061647 90.715025 
L 176.240537 91.62494 
L 178.419426 89.998713 
L 180.598316 88.694179 
L 182.777206 92.527322 
L 184.956095 89.931698 
L 187.134985 95.498553 
L 189.313874 95.558632 
L 191.492764 91.045432 
L 193.671653 89.130206 
L 195.850543 89.181317 
L 198.029433 87.680481 
L 200.208322 94.767006 
L 202.387212 93.743603 
L 204.566101 91.660636 
L 206.744991 94.281444 
L 208.92388 89.164123 
L 211.10277 96.650522 
L 213.28166 89.357996 
L 217.639439 89.497719 
L 219.818328 89.883392 
L 221.997218 91.910768 
L 224.176107 91.815858 
L 226.354997 88.500121 
L 228.533887 87.246497 
L 230.712776 90.859577 
L 232.891666 88.464637 
L 235.070555 90.462332 
L 237.249445 86.922325 
L 239.428334 89.81818 
L 241.607224 92.317481 
L 243.786113 89.115121 
L 245.965003 90.67713 
L 248.143893 88.810792 
L 250.322782 89.465891 
L 252.501672 92.014549 
L 254.680561 90.185919 
L 256.859451 90.997246 
L 259.03834 91.630807 
L 261.21723 87.224757 
L 263.39612 90.794662 
L 265.575009 87.294393 
L 267.753899 89.249654 
L 269.932788 92.242667 
L 272.111678 87.521633 
L 274.290567 90.288744 
L 276.469457 88.832317 
L 278.648347 101.472356 
L 280.827236 91.106541 
L 283.006126 88.688259 
L 285.185015 93.714486 
L 287.363905 92.001024 
L 291.721684 89.842483 
L 293.900574 95.201462 
L 296.079463 90.07691 
L 298.258353 91.108472 
L 300.437242 88.785952 
L 302.616132 90.647193 
L 304.795021 94.202846 
L 306.973911 89.054305 
L 309.1528 89.223897 
L 311.33169 89.216827 
L 313.51058 90.403439 
L 315.689469 91.103696 
L 317.868359 89.407688 
L 320.047248 95.47449 
L 322.226138 88.335029 
L 324.405027 89.620062 
L 326.583917 89.878076 
L 328.762807 91.977514 
L 330.941696 89.152141 
L 333.120586 88.609039 
L 335.299475 89.565267 
L 337.478365 92.418914 
L 339.657254 89.267362 
L 341.836144 95.185009 
L 344.015034 97.517112 
L 346.193923 90.451592 
L 348.372813 89.669999 
L 350.551702 91.517775 
L 352.730592 91.593092 
L 354.909481 89.389907 
L 357.088371 89.985638 
L 359.267261 89.251605 
L 361.44615 89.963432 
L 363.62504 91.030819 
L 365.803929 89.892629 
L 367.982819 89.794383 
L 370.161708 94.417441 
L 372.340598 89.605438 
L 374.519487 88.409378 
L 378.877267 90.755366 
L 381.056156 92.872231 
L 383.235046 90.40411 
L 385.413935 88.505072 
L 387.592825 90.553288 
L 391.950604 87.60587 
L 394.129494 87.670527 
L 396.308383 89.878703 
L 398.487273 88.275083 
L 398.487273 88.275083 
" clip-path="url(#pcce317bf7e)" style="fill: none; stroke: #2ca02c; stroke-linecap: square"/>
   </g>
   <g id="line2d_18">
    <path d="M 73.832727 207.896744 
L 76.011617 213.185845 
L 80.369396 213.187068 
L 84.727175 213.226401 
L 86.906065 176.967178 
L 89.084954 116.288897 
L 91.263844 118.2237 
L 93.442733 96.802427 
L 95.621623 98.823557 
L 97.800513 101.332699 
L 99.979402 91.193307 
L 102.158292 106.25048 
L 104.337181 94.154079 
L 106.516071 92.7052 
L 108.69496 92.855467 
L 110.87385 93.602808 
L 113.052739 91.765702 
L 115.231629 96.92062 
L 117.410519 96.664234 
L 119.589408 92.917125 
L 121.768298 99.244488 
L 123.947187 91.665122 
L 126.126077 90.553247 
L 128.304966 90.416728 
L 130.483856 91.3303 
L 132.662746 90.11762 
L 134.841635 91.239607 
L 137.020525 91.475031 
L 139.199414 90.468971 
L 141.378304 93.712376 
L 143.557193 89.979027 
L 145.736083 91.555567 
L 147.914973 90.549851 
L 150.093862 90.962413 
L 152.272752 91.107425 
L 154.451641 91.920201 
L 156.630531 90.325361 
L 158.80942 90.67964 
L 160.98831 90.831601 
L 163.1672 89.548572 
L 165.346089 89.891205 
L 167.524979 90.717525 
L 169.703868 92.237127 
L 171.882758 92.049796 
L 176.240537 89.468644 
L 178.419426 90.596269 
L 180.598316 90.547351 
L 182.777206 89.07773 
L 184.956095 89.747513 
L 187.134985 93.268768 
L 189.313874 90.290062 
L 191.492764 89.040259 
L 193.671653 95.492375 
L 195.850543 91.475934 
L 198.029433 94.939599 
L 200.208322 93.797442 
L 202.387212 90.371772 
L 204.566101 90.856264 
L 206.744991 92.813592 
L 208.92388 90.180328 
L 211.10277 90.273439 
L 213.28166 90.989593 
L 215.460549 93.045933 
L 217.639439 90.313166 
L 219.818328 89.284648 
L 221.997218 90.864043 
L 224.176107 90.33485 
L 226.354997 89.221757 
L 228.533887 92.769631 
L 230.712776 93.14809 
L 232.891666 88.278948 
L 235.070555 90.114921 
L 237.249445 90.091021 
L 239.428334 91.230867 
L 241.607224 91.456308 
L 243.786113 88.95886 
L 245.965003 89.034203 
L 248.143893 89.453538 
L 250.322782 92.888858 
L 252.501672 91.086571 
L 254.680561 90.171048 
L 256.859451 90.153868 
L 259.03834 88.917014 
L 261.21723 93.780794 
L 263.39612 89.144978 
L 265.575009 89.847724 
L 267.753899 89.941879 
L 269.932788 90.242892 
L 272.111678 89.262208 
L 274.290567 91.604627 
L 276.469457 89.401525 
L 283.006126 88.405044 
L 285.185015 88.335839 
L 287.363905 89.507659 
L 289.542794 91.611614 
L 291.721684 89.023596 
L 293.900574 89.314726 
L 296.079463 88.191857 
L 298.258353 89.343739 
L 300.437242 88.564918 
L 302.616132 90.915843 
L 304.795021 93.050885 
L 306.973911 92.60121 
L 309.1528 90.553933 
L 311.33169 89.709237 
L 313.51058 91.057091 
L 315.689469 89.790976 
L 317.868359 90.870335 
L 320.047248 88.52661 
L 322.226138 91.390456 
L 324.405027 90.0762 
L 326.583917 94.492032 
L 328.762807 89.477251 
L 330.941696 89.052869 
L 333.120586 89.693226 
L 335.299475 90.074427 
L 337.478365 91.003064 
L 339.657254 90.657467 
L 341.836144 90.663776 
L 344.015034 92.765746 
L 346.193923 90.628371 
L 348.372813 92.611225 
L 350.551702 90.332178 
L 352.730592 92.503651 
L 354.909481 89.989264 
L 357.088371 89.516452 
L 359.267261 90.086123 
L 361.44615 92.142723 
L 363.62504 91.454078 
L 365.803929 90.575063 
L 367.982819 93.582695 
L 370.161708 90.350076 
L 372.340598 89.937762 
L 374.519487 90.018694 
L 376.698377 90.605216 
L 378.877267 90.887847 
L 381.056156 90.265159 
L 383.235046 90.332783 
L 385.413935 95.51527 
L 387.592825 90.877525 
L 389.771714 93.716848 
L 391.950604 89.676885 
L 394.129494 89.899461 
L 396.308383 95.475259 
L 398.487273 89.813363 
L 398.487273 89.813363 
" clip-path="url(#pcce317bf7e)" style="fill: none; stroke: #d62728; stroke-linecap: square"/>
   </g>
   <g id="patch_3">
    <path d="M 57.6 307.584 
L 57.6 41.472 
" style="fill: none; stroke: #000000; stroke-width: 0.8; stroke-linejoin: miter; stroke-linecap: square"/>
   </g>
   <g id="patch_4">
    <path d="M 414.72 307.584 
L 414.72 41.472 
" style="fill: none; stroke: #000000; stroke-width: 0.8; stroke-linejoin: miter; stroke-linecap: square"/>
   </g>
   <g id="patch_5">
    <path d="M 57.6 307.584 
L 414.72 307.584 
" style="fill: none; stroke: #000000; stroke-width: 0.8; stroke-linejoin: miter; stroke-linecap: square"/>
   </g>
   <g id="patch_6">
    <path d="M 57.6 41.472 
L 414.72 41.472 
" style="fill: none; stroke: #000000; stroke-width: 0.8; stroke-linejoin: miter; stroke-linecap: square"/>
   </g>
   <g id="text_16">
    <!-- F1 score of FC -->
    <g transform="translate(193.6275 35.472) scale(0.12 -0.12)">
     <defs>
      <path id="DejaVuSans-46" d="M 628 4666 
L 3309 4666 
L 3309 4134 
L 1259 4134 
L 1259 2759 
L 3109 2759 
L 3109 2228 
L 1259 2228 
L 1259 0 
L 628 0 
L 628 4666 
z
" transform="scale(0.015625)"/>
      <path id="DejaVuSans-20" transform="scale(0.015625)"/>
      <path id="DejaVuSans-73" d="M 2834 3397 
L 2834 2853 
Q 2591 2978 2328 3040 
Q 2066 3103 1784 3103 
Q 1356 3103 1142 2972 
Q 928 2841 928 2578 
Q 928 2378 1081 2264 
Q 1234 2150 1697 2047 
L 1894 2003 
Q 2506 1872 2764 1633 
Q 3022 1394 3022 966 
Q 3022 478 2636 193 
Q 2250 -91 1575 -91 
Q 1294 -91 989 -36 
Q 684 19 347 128 
L 347 722 
Q 666 556 975 473 
Q 1284 391 1588 391 
Q 1994 391 2212 530 
Q 2431 669 2431 922 
Q 2431 1156 2273 1281 
Q 2116 1406 1581 1522 
L 1381 1569 
Q 847 1681 609 1914 
Q 372 2147 372 2553 
Q 372 3047 722 3315 
Q 1072 3584 1716 3584 
Q 2034 3584 2315 3537 
Q 2597 3491 2834 3397 
z
" transform="scale(0.015625)"/>
      <path id="DejaVuSans-72" d="M 2631 2963 
Q 2534 3019 2420 3045 
Q 2306 3072 2169 3072 
Q 1681 3072 1420 2755 
Q 1159 2438 1159 1844 
L 1159 0 
L 581 0 
L 581 3500 
L 1159 3500 
L 1159 2956 
Q 1341 3275 1631 3429 
Q 1922 3584 2338 3584 
Q 2397 3584 2469 3576 
Q 2541 3569 2628 3553 
L 2631 2963 
z
" transform="scale(0.015625)"/>
      <path id="DejaVuSans-66" d="M 2375 4863 
L 2375 4384 
L 1825 4384 
Q 1516 4384 1395 4259 
Q 1275 4134 1275 3809 
L 1275 3500 
L 2222 3500 
L 2222 3053 
L 1275 3053 
L 1275 0 
L 697 0 
L 697 3053 
L 147 3053 
L 147 3500 
L 697 3500 
L 697 3744 
Q 697 4328 969 4595 
Q 1241 4863 1831 4863 
L 2375 4863 
z
" transform="scale(0.015625)"/>
      <path id="DejaVuSans-43" d="M 4122 4306 
L 4122 3641 
Q 3803 3938 3442 4084 
Q 3081 4231 2675 4231 
Q 1875 4231 1450 3742 
Q 1025 3253 1025 2328 
Q 1025 1406 1450 917 
Q 1875 428 2675 428 
Q 3081 428 3442 575 
Q 3803 722 4122 1019 
L 4122 359 
Q 3791 134 3420 21 
Q 3050 -91 2638 -91 
Q 1578 -91 968 557 
Q 359 1206 359 2328 
Q 359 3453 968 4101 
Q 1578 4750 2638 4750 
Q 3056 4750 3426 4639 
Q 3797 4528 4122 4306 
z
" transform="scale(0.015625)"/>
     </defs>
     <use xlink:href="#DejaVuSans-46"/>
     <use xlink:href="#DejaVuSans-31" x="57.519531"/>
     <use xlink:href="#DejaVuSans-20" x="121.142578"/>
     <use xlink:href="#DejaVuSans-73" x="152.929688"/>
     <use xlink:href="#DejaVuSans-63" x="205.029297"/>
     <use xlink:href="#DejaVuSans-6f" x="260.009766"/>
     <use xlink:href="#DejaVuSans-72" x="321.191406"/>
     <use xlink:href="#DejaVuSans-65" x="360.054688"/>
     <use xlink:href="#DejaVuSans-20" x="421.578125"/>
     <use xlink:href="#DejaVuSans-6f" x="453.365234"/>
     <use xlink:href="#DejaVuSans-66" x="514.546875"/>
     <use xlink:href="#DejaVuSans-20" x="549.751953"/>
     <use xlink:href="#DejaVuSans-46" x="581.539062"/>
     <use xlink:href="#DejaVuSans-43" x="639.058594"/>
    </g>
   </g>
   <g id="legend_1">
    <g id="patch_7">
     <path d="M 64.6 302.584 
L 173.157812 302.584 
Q 175.157812 302.584 175.157812 300.584 
L 175.157812 242.8715 
Q 175.157812 240.8715 173.157812 240.8715 
L 64.6 240.8715 
Q 62.6 240.8715 62.6 242.8715 
L 62.6 300.584 
Q 62.6 302.584 64.6 302.584 
z
" style="fill: #ffffff; opacity: 0.8; stroke: #cccccc; stroke-linejoin: miter"/>
    </g>
    <g id="line2d_19">
     <path d="M 66.6 248.969937 
L 76.6 248.969937 
L 86.6 248.969937 
" style="fill: none; stroke: #1f77b4; stroke-linecap: square"/>
    </g>
    <g id="text_17">
     <!-- 2000 samples -->
     <g transform="translate(94.6 252.469937) scale(0.1 -0.1)">
      <defs>
       <path id="DejaVuSans-61" d="M 2194 1759 
Q 1497 1759 1228 1600 
Q 959 1441 959 1056 
Q 959 750 1161 570 
Q 1363 391 1709 391 
Q 2188 391 2477 730 
Q 2766 1069 2766 1631 
L 2766 1759 
L 2194 1759 
z
M 3341 1997 
L 3341 0 
L 2766 0 
L 2766 531 
Q 2569 213 2275 61 
Q 1981 -91 1556 -91 
Q 1019 -91 701 211 
Q 384 513 384 1019 
Q 384 1609 779 1909 
Q 1175 2209 1959 2209 
L 2766 2209 
L 2766 2266 
Q 2766 2663 2505 2880 
Q 2244 3097 1772 3097 
Q 1472 3097 1187 3025 
Q 903 2953 641 2809 
L 641 3341 
Q 956 3463 1253 3523 
Q 1550 3584 1831 3584 
Q 2591 3584 2966 3190 
Q 3341 2797 3341 1997 
z
" transform="scale(0.015625)"/>
       <path id="DejaVuSans-6d" d="M 3328 2828 
Q 3544 3216 3844 3400 
Q 4144 3584 4550 3584 
Q 5097 3584 5394 3201 
Q 5691 2819 5691 2113 
L 5691 0 
L 5113 0 
L 5113 2094 
Q 5113 2597 4934 2840 
Q 4756 3084 4391 3084 
Q 3944 3084 3684 2787 
Q 3425 2491 3425 1978 
L 3425 0 
L 2847 0 
L 2847 2094 
Q 2847 2600 2669 2842 
Q 2491 3084 2119 3084 
Q 1678 3084 1418 2786 
Q 1159 2488 1159 1978 
L 1159 0 
L 581 0 
L 581 3500 
L 1159 3500 
L 1159 2956 
Q 1356 3278 1631 3431 
Q 1906 3584 2284 3584 
Q 2666 3584 2933 3390 
Q 3200 3197 3328 2828 
z
" transform="scale(0.015625)"/>
       <path id="DejaVuSans-6c" d="M 603 4863 
L 1178 4863 
L 1178 0 
L 603 0 
L 603 4863 
z
" transform="scale(0.015625)"/>
      </defs>
      <use xlink:href="#DejaVuSans-32"/>
      <use xlink:href="#DejaVuSans-30" x="63.623047"/>
      <use xlink:href="#DejaVuSans-30" x="127.246094"/>
      <use xlink:href="#DejaVuSans-30" x="190.869141"/>
      <use xlink:href="#DejaVuSans-20" x="254.492188"/>
      <use xlink:href="#DejaVuSans-73" x="286.279297"/>
      <use xlink:href="#DejaVuSans-61" x="338.378906"/>
      <use xlink:href="#DejaVuSans-6d" x="399.658203"/>
      <use xlink:href="#DejaVuSans-70" x="497.070312"/>
      <use xlink:href="#DejaVuSans-6c" x="560.546875"/>
      <use xlink:href="#DejaVuSans-65" x="588.330078"/>
      <use xlink:href="#DejaVuSans-73" x="649.853516"/>
     </g>
    </g>
    <g id="line2d_20">
     <path d="M 66.6 263.648062 
L 76.6 263.648062 
L 86.6 263.648062 
" style="fill: none; stroke: #ff7f0e; stroke-linecap: square"/>
    </g>
    <g id="text_18">
     <!-- 5000 samples -->
     <g transform="translate(94.6 267.148062) scale(0.1 -0.1)">
      <defs>
       <path id="DejaVuSans-35" d="M 691 4666 
L 3169 4666 
L 3169 4134 
L 1269 4134 
L 1269 2991 
Q 1406 3038 1543 3061 
Q 1681 3084 1819 3084 
Q 2600 3084 3056 2656 
Q 3513 2228 3513 1497 
Q 3513 744 3044 326 
Q 2575 -91 1722 -91 
Q 1428 -91 1123 -41 
Q 819 9 494 109 
L 494 744 
Q 775 591 1075 516 
Q 1375 441 1709 441 
Q 2250 441 2565 725 
Q 2881 1009 2881 1497 
Q 2881 1984 2565 2268 
Q 2250 2553 1709 2553 
Q 1456 2553 1204 2497 
Q 953 2441 691 2322 
L 691 4666 
z
" transform="scale(0.015625)"/>
      </defs>
      <use xlink:href="#DejaVuSans-35"/>
      <use xlink:href="#DejaVuSans-30" x="63.623047"/>
      <use xlink:href="#DejaVuSans-30" x="127.246094"/>
      <use xlink:href="#DejaVuSans-30" x="190.869141"/>
      <use xlink:href="#DejaVuSans-20" x="254.492188"/>
      <use xlink:href="#DejaVuSans-73" x="286.279297"/>
      <use xlink:href="#DejaVuSans-61" x="338.378906"/>
      <use xlink:href="#DejaVuSans-6d" x="399.658203"/>
      <use xlink:href="#DejaVuSans-70" x="497.070312"/>
      <use xlink:href="#DejaVuSans-6c" x="560.546875"/>
      <use xlink:href="#DejaVuSans-65" x="588.330078"/>
      <use xlink:href="#DejaVuSans-73" x="649.853516"/>
     </g>
    </g>
    <g id="line2d_21">
     <path d="M 66.6 278.326187 
L 76.6 278.326187 
L 86.6 278.326187 
" style="fill: none; stroke: #2ca02c; stroke-linecap: square"/>
    </g>
    <g id="text_19">
     <!-- 8000 samples -->
     <g transform="translate(94.6 281.826187) scale(0.1 -0.1)">
      <use xlink:href="#DejaVuSans-38"/>
      <use xlink:href="#DejaVuSans-30" x="63.623047"/>
      <use xlink:href="#DejaVuSans-30" x="127.246094"/>
      <use xlink:href="#DejaVuSans-30" x="190.869141"/>
      <use xlink:href="#DejaVuSans-20" x="254.492188"/>
      <use xlink:href="#DejaVuSans-73" x="286.279297"/>
      <use xlink:href="#DejaVuSans-61" x="338.378906"/>
      <use xlink:href="#DejaVuSans-6d" x="399.658203"/>
      <use xlink:href="#DejaVuSans-70" x="497.070312"/>
      <use xlink:href="#DejaVuSans-6c" x="560.546875"/>
      <use xlink:href="#DejaVuSans-65" x="588.330078"/>
      <use xlink:href="#DejaVuSans-73" x="649.853516"/>
     </g>
    </g>
    <g id="line2d_22">
     <path d="M 66.6 293.004312 
L 76.6 293.004312 
L 86.6 293.004312 
" style="fill: none; stroke: #d62728; stroke-linecap: square"/>
    </g>
    <g id="text_20">
     <!-- 10000 samples -->
     <g transform="translate(94.6 296.504312) scale(0.1 -0.1)">
      <use xlink:href="#DejaVuSans-31"/>
      <use xlink:href="#DejaVuSans-30" x="63.623047"/>
      <use xlink:href="#DejaVuSans-30" x="127.246094"/>
      <use xlink:href="#DejaVuSans-30" x="190.869141"/>
      <use xlink:href="#DejaVuSans-30" x="254.492188"/>
      <use xlink:href="#DejaVuSans-20" x="318.115234"/>
      <use xlink:href="#DejaVuSans-73" x="349.902344"/>
      <use xlink:href="#DejaVuSans-61" x="402.001953"/>
      <use xlink:href="#DejaVuSans-6d" x="463.28125"/>
      <use xlink:href="#DejaVuSans-70" x="560.693359"/>
      <use xlink:href="#DejaVuSans-6c" x="624.169922"/>
      <use xlink:href="#DejaVuSans-65" x="651.953125"/>
      <use xlink:href="#DejaVuSans-73" x="713.476562"/>
     </g>
    </g>
   </g>
  </g>
 </g>
 <defs>
  <clipPath id="pcce317bf7e">
   <rect x="57.6" y="41.472" width="357.12" height="266.112"/>
  </clipPath>
 </defs>
</svg>
