<?xml version="1.0" encoding="utf-8" standalone="no"?>
<!DOCTYPE svg PUBLIC "-//W3C//DTD SVG 1.1//EN"
  "http://www.w3.org/Graphics/SVG/1.1/DTD/svg11.dtd">
<svg xmlns:xlink="http://www.w3.org/1999/xlink" width="460.8pt" height="345.6pt" viewBox="0 0 460.8 345.6" xmlns="http://www.w3.org/2000/svg" version="1.1">
 <metadata>
  <rdf:RDF xmlns:dc="http://purl.org/dc/elements/1.1/" xmlns:cc="http://creativecommons.org/ns#" xmlns:rdf="http://www.w3.org/1999/02/22-rdf-syntax-ns#">
   <cc:Work>
    <dc:type rdf:resource="http://purl.org/dc/dcmitype/StillImage"/>
    <dc:date>2023-09-13T16:28:03.447956</dc:date>
    <dc:format>image/svg+xml</dc:format>
    <dc:creator>
     <cc:Agent>
      <dc:title>Matplotlib v3.7.1, https://matplotlib.org/</dc:title>
     </cc:Agent>
    </dc:creator>
   </cc:Work>
  </rdf:RDF>
 </metadata>
 <defs>
  <style type="text/css">*{stroke-linejoin: round; stroke-linecap: butt}</style>
 </defs>
 <g id="figure_1">
  <g id="patch_1">
   <path d="M 0 345.6 
L 460.8 345.6 
L 460.8 0 
L 0 0 
z
" style="fill: #ffffff"/>
  </g>
  <g id="axes_1">
   <g id="patch_2">
    <path d="M 57.6 307.584 
L 414.72 307.584 
L 414.72 41.472 
L 57.6 41.472 
z
" style="fill: #ffffff"/>
   </g>
   <g id="matplotlib.axis_1">
    <g id="xtick_1">
     <g id="line2d_1">
      <defs>
       <path id="m7c7c29e982" d="M 0 0 
L 0 3.5 
" style="stroke: #000000; stroke-width: 0.8"/>
      </defs>
      <g>
       <use xlink:href="#m7c7c29e982" x="71.653838" y="307.584" style="stroke: #000000; stroke-width: 0.8"/>
      </g>
     </g>
     <g id="text_1">
      <!-- 0 -->
      <g transform="translate(68.472588 322.182437) scale(0.1 -0.1)">
       <defs>
        <path id="DejaVuSans-30" d="M 2034 4250 
Q 1547 4250 1301 3770 
Q 1056 3291 1056 2328 
Q 1056 1369 1301 889 
Q 1547 409 2034 409 
Q 2525 409 2770 889 
Q 3016 1369 3016 2328 
Q 3016 3291 2770 3770 
Q 2525 4250 2034 4250 
z
M 2034 4750 
Q 2819 4750 3233 4129 
Q 3647 3509 3647 2328 
Q 3647 1150 3233 529 
Q 2819 -91 2034 -91 
Q 1250 -91 836 529 
Q 422 1150 422 2328 
Q 422 3509 836 4129 
Q 1250 4750 2034 4750 
z
" transform="scale(0.015625)"/>
       </defs>
       <use xlink:href="#DejaVuSans-30"/>
      </g>
     </g>
    </g>
    <g id="xtick_2">
     <g id="line2d_2">
      <g>
       <use xlink:href="#m7c7c29e982" x="115.231629" y="307.584" style="stroke: #000000; stroke-width: 0.8"/>
      </g>
     </g>
     <g id="text_2">
      <!-- 20 -->
      <g transform="translate(108.869129 322.182437) scale(0.1 -0.1)">
       <defs>
        <path id="DejaVuSans-32" d="M 1228 531 
L 3431 531 
L 3431 0 
L 469 0 
L 469 531 
Q 828 903 1448 1529 
Q 2069 2156 2228 2338 
Q 2531 2678 2651 2914 
Q 2772 3150 2772 3378 
Q 2772 3750 2511 3984 
Q 2250 4219 1831 4219 
Q 1534 4219 1204 4116 
Q 875 4013 500 3803 
L 500 4441 
Q 881 4594 1212 4672 
Q 1544 4750 1819 4750 
Q 2544 4750 2975 4387 
Q 3406 4025 3406 3419 
Q 3406 3131 3298 2873 
Q 3191 2616 2906 2266 
Q 2828 2175 2409 1742 
Q 1991 1309 1228 531 
z
" transform="scale(0.015625)"/>
       </defs>
       <use xlink:href="#DejaVuSans-32"/>
       <use xlink:href="#DejaVuSans-30" x="63.623047"/>
      </g>
     </g>
    </g>
    <g id="xtick_3">
     <g id="line2d_3">
      <g>
       <use xlink:href="#m7c7c29e982" x="158.80942" y="307.584" style="stroke: #000000; stroke-width: 0.8"/>
      </g>
     </g>
     <g id="text_3">
      <!-- 40 -->
      <g transform="translate(152.44692 322.182437) scale(0.1 -0.1)">
       <defs>
        <path id="DejaVuSans-34" d="M 2419 4116 
L 825 1625 
L 2419 1625 
L 2419 4116 
z
M 2253 4666 
L 3047 4666 
L 3047 1625 
L 3713 1625 
L 3713 1100 
L 3047 1100 
L 3047 0 
L 2419 0 
L 2419 1100 
L 313 1100 
L 313 1709 
L 2253 4666 
z
" transform="scale(0.015625)"/>
       </defs>
       <use xlink:href="#DejaVuSans-34"/>
       <use xlink:href="#DejaVuSans-30" x="63.623047"/>
      </g>
     </g>
    </g>
    <g id="xtick_4">
     <g id="line2d_4">
      <g>
       <use xlink:href="#m7c7c29e982" x="202.387212" y="307.584" style="stroke: #000000; stroke-width: 0.8"/>
      </g>
     </g>
     <g id="text_4">
      <!-- 60 -->
      <g transform="translate(196.024712 322.182437) scale(0.1 -0.1)">
       <defs>
        <path id="DejaVuSans-36" d="M 2113 2584 
Q 1688 2584 1439 2293 
Q 1191 2003 1191 1497 
Q 1191 994 1439 701 
Q 1688 409 2113 409 
Q 2538 409 2786 701 
Q 3034 994 3034 1497 
Q 3034 2003 2786 2293 
Q 2538 2584 2113 2584 
z
M 3366 4563 
L 3366 3988 
Q 3128 4100 2886 4159 
Q 2644 4219 2406 4219 
Q 1781 4219 1451 3797 
Q 1122 3375 1075 2522 
Q 1259 2794 1537 2939 
Q 1816 3084 2150 3084 
Q 2853 3084 3261 2657 
Q 3669 2231 3669 1497 
Q 3669 778 3244 343 
Q 2819 -91 2113 -91 
Q 1303 -91 875 529 
Q 447 1150 447 2328 
Q 447 3434 972 4092 
Q 1497 4750 2381 4750 
Q 2619 4750 2861 4703 
Q 3103 4656 3366 4563 
z
" transform="scale(0.015625)"/>
       </defs>
       <use xlink:href="#DejaVuSans-36"/>
       <use xlink:href="#DejaVuSans-30" x="63.623047"/>
      </g>
     </g>
    </g>
    <g id="xtick_5">
     <g id="line2d_5">
      <g>
       <use xlink:href="#m7c7c29e982" x="245.965003" y="307.584" style="stroke: #000000; stroke-width: 0.8"/>
      </g>
     </g>
     <g id="text_5">
      <!-- 80 -->
      <g transform="translate(239.602503 322.182437) scale(0.1 -0.1)">
       <defs>
        <path id="DejaVuSans-38" d="M 2034 2216 
Q 1584 2216 1326 1975 
Q 1069 1734 1069 1313 
Q 1069 891 1326 650 
Q 1584 409 2034 409 
Q 2484 409 2743 651 
Q 3003 894 3003 1313 
Q 3003 1734 2745 1975 
Q 2488 2216 2034 2216 
z
M 1403 2484 
Q 997 2584 770 2862 
Q 544 3141 544 3541 
Q 544 4100 942 4425 
Q 1341 4750 2034 4750 
Q 2731 4750 3128 4425 
Q 3525 4100 3525 3541 
Q 3525 3141 3298 2862 
Q 3072 2584 2669 2484 
Q 3125 2378 3379 2068 
Q 3634 1759 3634 1313 
Q 3634 634 3220 271 
Q 2806 -91 2034 -91 
Q 1263 -91 848 271 
Q 434 634 434 1313 
Q 434 1759 690 2068 
Q 947 2378 1403 2484 
z
M 1172 3481 
Q 1172 3119 1398 2916 
Q 1625 2713 2034 2713 
Q 2441 2713 2670 2916 
Q 2900 3119 2900 3481 
Q 2900 3844 2670 4047 
Q 2441 4250 2034 4250 
Q 1625 4250 1398 4047 
Q 1172 3844 1172 3481 
z
" transform="scale(0.015625)"/>
       </defs>
       <use xlink:href="#DejaVuSans-38"/>
       <use xlink:href="#DejaVuSans-30" x="63.623047"/>
      </g>
     </g>
    </g>
    <g id="xtick_6">
     <g id="line2d_6">
      <g>
       <use xlink:href="#m7c7c29e982" x="289.542794" y="307.584" style="stroke: #000000; stroke-width: 0.8"/>
      </g>
     </g>
     <g id="text_6">
      <!-- 100 -->
      <g transform="translate(279.999044 322.182437) scale(0.1 -0.1)">
       <defs>
        <path id="DejaVuSans-31" d="M 794 531 
L 1825 531 
L 1825 4091 
L 703 3866 
L 703 4441 
L 1819 4666 
L 2450 4666 
L 2450 531 
L 3481 531 
L 3481 0 
L 794 0 
L 794 531 
z
" transform="scale(0.015625)"/>
       </defs>
       <use xlink:href="#DejaVuSans-31"/>
       <use xlink:href="#DejaVuSans-30" x="63.623047"/>
       <use xlink:href="#DejaVuSans-30" x="127.246094"/>
      </g>
     </g>
    </g>
    <g id="xtick_7">
     <g id="line2d_7">
      <g>
       <use xlink:href="#m7c7c29e982" x="333.120586" y="307.584" style="stroke: #000000; stroke-width: 0.8"/>
      </g>
     </g>
     <g id="text_7">
      <!-- 120 -->
      <g transform="translate(323.576836 322.182437) scale(0.1 -0.1)">
       <use xlink:href="#DejaVuSans-31"/>
       <use xlink:href="#DejaVuSans-32" x="63.623047"/>
       <use xlink:href="#DejaVuSans-30" x="127.246094"/>
      </g>
     </g>
    </g>
    <g id="xtick_8">
     <g id="line2d_8">
      <g>
       <use xlink:href="#m7c7c29e982" x="376.698377" y="307.584" style="stroke: #000000; stroke-width: 0.8"/>
      </g>
     </g>
     <g id="text_8">
      <!-- 140 -->
      <g transform="translate(367.154627 322.182437) scale(0.1 -0.1)">
       <use xlink:href="#DejaVuSans-31"/>
       <use xlink:href="#DejaVuSans-34" x="63.623047"/>
       <use xlink:href="#DejaVuSans-30" x="127.246094"/>
      </g>
     </g>
    </g>
    <g id="text_9">
     <!-- epoch -->
     <g transform="translate(220.931875 335.860562) scale(0.1 -0.1)">
      <defs>
       <path id="DejaVuSans-65" d="M 3597 1894 
L 3597 1613 
L 953 1613 
Q 991 1019 1311 708 
Q 1631 397 2203 397 
Q 2534 397 2845 478 
Q 3156 559 3463 722 
L 3463 178 
Q 3153 47 2828 -22 
Q 2503 -91 2169 -91 
Q 1331 -91 842 396 
Q 353 884 353 1716 
Q 353 2575 817 3079 
Q 1281 3584 2069 3584 
Q 2775 3584 3186 3129 
Q 3597 2675 3597 1894 
z
M 3022 2063 
Q 3016 2534 2758 2815 
Q 2500 3097 2075 3097 
Q 1594 3097 1305 2825 
Q 1016 2553 972 2059 
L 3022 2063 
z
" transform="scale(0.015625)"/>
       <path id="DejaVuSans-70" d="M 1159 525 
L 1159 -1331 
L 581 -1331 
L 581 3500 
L 1159 3500 
L 1159 2969 
Q 1341 3281 1617 3432 
Q 1894 3584 2278 3584 
Q 2916 3584 3314 3078 
Q 3713 2572 3713 1747 
Q 3713 922 3314 415 
Q 2916 -91 2278 -91 
Q 1894 -91 1617 61 
Q 1341 213 1159 525 
z
M 3116 1747 
Q 3116 2381 2855 2742 
Q 2594 3103 2138 3103 
Q 1681 3103 1420 2742 
Q 1159 2381 1159 1747 
Q 1159 1113 1420 752 
Q 1681 391 2138 391 
Q 2594 391 2855 752 
Q 3116 1113 3116 1747 
z
" transform="scale(0.015625)"/>
       <path id="DejaVuSans-6f" d="M 1959 3097 
Q 1497 3097 1228 2736 
Q 959 2375 959 1747 
Q 959 1119 1226 758 
Q 1494 397 1959 397 
Q 2419 397 2687 759 
Q 2956 1122 2956 1747 
Q 2956 2369 2687 2733 
Q 2419 3097 1959 3097 
z
M 1959 3584 
Q 2709 3584 3137 3096 
Q 3566 2609 3566 1747 
Q 3566 888 3137 398 
Q 2709 -91 1959 -91 
Q 1206 -91 779 398 
Q 353 888 353 1747 
Q 353 2609 779 3096 
Q 1206 3584 1959 3584 
z
" transform="scale(0.015625)"/>
       <path id="DejaVuSans-63" d="M 3122 3366 
L 3122 2828 
Q 2878 2963 2633 3030 
Q 2388 3097 2138 3097 
Q 1578 3097 1268 2742 
Q 959 2388 959 1747 
Q 959 1106 1268 751 
Q 1578 397 2138 397 
Q 2388 397 2633 464 
Q 2878 531 3122 666 
L 3122 134 
Q 2881 22 2623 -34 
Q 2366 -91 2075 -91 
Q 1284 -91 818 406 
Q 353 903 353 1747 
Q 353 2603 823 3093 
Q 1294 3584 2113 3584 
Q 2378 3584 2631 3529 
Q 2884 3475 3122 3366 
z
" transform="scale(0.015625)"/>
       <path id="DejaVuSans-68" d="M 3513 2113 
L 3513 0 
L 2938 0 
L 2938 2094 
Q 2938 2591 2744 2837 
Q 2550 3084 2163 3084 
Q 1697 3084 1428 2787 
Q 1159 2491 1159 1978 
L 1159 0 
L 581 0 
L 581 4863 
L 1159 4863 
L 1159 2956 
Q 1366 3272 1645 3428 
Q 1925 3584 2291 3584 
Q 2894 3584 3203 3211 
Q 3513 2838 3513 2113 
z
" transform="scale(0.015625)"/>
      </defs>
      <use xlink:href="#DejaVuSans-65"/>
      <use xlink:href="#DejaVuSans-70" x="61.523438"/>
      <use xlink:href="#DejaVuSans-6f" x="125"/>
      <use xlink:href="#DejaVuSans-63" x="186.181641"/>
      <use xlink:href="#DejaVuSans-68" x="241.162109"/>
     </g>
    </g>
   </g>
   <g id="matplotlib.axis_2">
    <g id="ytick_1">
     <g id="line2d_9">
      <defs>
       <path id="m12724ca5d3" d="M 0 0 
L -3.5 0 
" style="stroke: #000000; stroke-width: 0.8"/>
      </defs>
      <g>
       <use xlink:href="#m12724ca5d3" x="57.6" y="307.584" style="stroke: #000000; stroke-width: 0.8"/>
      </g>
     </g>
     <g id="text_10">
      <!-- 0.0 -->
      <g transform="translate(34.696875 311.383219) scale(0.1 -0.1)">
       <defs>
        <path id="DejaVuSans-2e" d="M 684 794 
L 1344 794 
L 1344 0 
L 684 0 
L 684 794 
z
" transform="scale(0.015625)"/>
       </defs>
       <use xlink:href="#DejaVuSans-30"/>
       <use xlink:href="#DejaVuSans-2e" x="63.623047"/>
       <use xlink:href="#DejaVuSans-30" x="95.410156"/>
      </g>
     </g>
    </g>
    <g id="ytick_2">
     <g id="line2d_10">
      <g>
       <use xlink:href="#m12724ca5d3" x="57.6" y="260.720269" style="stroke: #000000; stroke-width: 0.8"/>
      </g>
     </g>
     <g id="text_11">
      <!-- 0.2 -->
      <g transform="translate(34.696875 264.519488) scale(0.1 -0.1)">
       <use xlink:href="#DejaVuSans-30"/>
       <use xlink:href="#DejaVuSans-2e" x="63.623047"/>
       <use xlink:href="#DejaVuSans-32" x="95.410156"/>
      </g>
     </g>
    </g>
    <g id="ytick_3">
     <g id="line2d_11">
      <g>
       <use xlink:href="#m12724ca5d3" x="57.6" y="213.856539" style="stroke: #000000; stroke-width: 0.8"/>
      </g>
     </g>
     <g id="text_12">
      <!-- 0.4 -->
      <g transform="translate(34.696875 217.655757) scale(0.1 -0.1)">
       <use xlink:href="#DejaVuSans-30"/>
       <use xlink:href="#DejaVuSans-2e" x="63.623047"/>
       <use xlink:href="#DejaVuSans-34" x="95.410156"/>
      </g>
     </g>
    </g>
    <g id="ytick_4">
     <g id="line2d_12">
      <g>
       <use xlink:href="#m12724ca5d3" x="57.6" y="166.992808" style="stroke: #000000; stroke-width: 0.8"/>
      </g>
     </g>
     <g id="text_13">
      <!-- 0.6 -->
      <g transform="translate(34.696875 170.792027) scale(0.1 -0.1)">
       <use xlink:href="#DejaVuSans-30"/>
       <use xlink:href="#DejaVuSans-2e" x="63.623047"/>
       <use xlink:href="#DejaVuSans-36" x="95.410156"/>
      </g>
     </g>
    </g>
    <g id="ytick_5">
     <g id="line2d_13">
      <g>
       <use xlink:href="#m12724ca5d3" x="57.6" y="120.129077" style="stroke: #000000; stroke-width: 0.8"/>
      </g>
     </g>
     <g id="text_14">
      <!-- 0.8 -->
      <g transform="translate(34.696875 123.928296) scale(0.1 -0.1)">
       <use xlink:href="#DejaVuSans-30"/>
       <use xlink:href="#DejaVuSans-2e" x="63.623047"/>
       <use xlink:href="#DejaVuSans-38" x="95.410156"/>
      </g>
     </g>
    </g>
    <g id="ytick_6">
     <g id="line2d_14">
      <g>
       <use xlink:href="#m12724ca5d3" x="57.6" y="73.265347" style="stroke: #000000; stroke-width: 0.8"/>
      </g>
     </g>
     <g id="text_15">
      <!-- 1.0 -->
      <g transform="translate(34.696875 77.064565) scale(0.1 -0.1)">
       <use xlink:href="#DejaVuSans-31"/>
       <use xlink:href="#DejaVuSans-2e" x="63.623047"/>
       <use xlink:href="#DejaVuSans-30" x="95.410156"/>
      </g>
     </g>
    </g>
   </g>
   <g id="line2d_15">
    <path d="M 73.832727 161.230685 
L 76.011617 108.634505 
L 78.190506 112.329871 
L 80.369396 96.170893 
L 82.548286 90.780551 
L 84.727175 99.296975 
L 86.906065 89.287314 
L 89.084954 90.219131 
L 91.263844 90.561293 
L 93.442733 87.951477 
L 95.621623 87.793962 
L 97.800513 96.250887 
L 99.979402 90.727385 
L 102.158292 97.912323 
L 104.337181 93.735081 
L 106.516071 94.307798 
L 108.69496 89.612589 
L 110.87385 89.394084 
L 113.052739 98.334004 
L 115.231629 90.59534 
L 117.410519 88.196875 
L 119.589408 90.2187 
L 121.768298 88.81189 
L 123.947187 87.726857 
L 126.126077 90.956267 
L 128.304966 89.021521 
L 130.483856 88.49585 
L 132.662746 91.80479 
L 134.841635 88.464057 
L 137.020525 89.370258 
L 139.199414 89.218374 
L 141.378304 88.348047 
L 143.557193 87.291679 
L 145.736083 98.512698 
L 147.914973 86.249377 
L 150.093862 89.759359 
L 152.272752 91.768052 
L 154.451641 90.246503 
L 156.630531 89.794889 
L 158.80942 86.768193 
L 160.98831 88.202927 
L 163.1672 90.22441 
L 165.346089 89.177278 
L 169.703868 88.263698 
L 171.882758 89.67165 
L 174.061647 86.632786 
L 176.240537 88.108846 
L 178.419426 89.052645 
L 180.598316 86.992375 
L 182.777206 88.564152 
L 184.956095 87.325779 
L 187.134985 85.874804 
L 191.492764 87.140677 
L 193.671653 88.681179 
L 195.850543 88.030529 
L 198.029433 88.556155 
L 200.208322 90.259554 
L 202.387212 88.855546 
L 204.566101 87.802965 
L 206.744991 89.766769 
L 208.92388 87.382026 
L 213.28166 90.990769 
L 215.460549 96.311309 
L 217.639439 88.630076 
L 219.818328 88.229909 
L 221.997218 97.447536 
L 224.176107 88.541468 
L 226.354997 91.918139 
L 230.712776 89.950547 
L 232.891666 88.307841 
L 235.070555 90.333378 
L 237.249445 90.121497 
L 239.428334 89.7037 
L 241.607224 87.959721 
L 243.786113 93.545438 
L 245.965003 89.453332 
L 248.143893 89.35932 
L 250.322782 96.158525 
L 252.501672 93.608904 
L 254.680561 89.956174 
L 256.859451 89.705164 
L 259.03834 88.361226 
L 261.21723 91.845417 
L 263.39612 88.127597 
L 265.575009 87.487177 
L 267.753899 87.348714 
L 269.932788 87.68903 
L 272.111678 87.27631 
L 274.290567 89.137629 
L 276.469457 89.197141 
L 278.648347 90.492848 
L 280.827236 88.038973 
L 283.006126 88.511709 
L 285.185015 90.056528 
L 287.363905 86.779997 
L 289.542794 88.516393 
L 291.721684 90.505789 
L 293.900574 87.323739 
L 296.079463 89.401242 
L 298.258353 88.810996 
L 300.437242 91.50329 
L 302.616132 88.429385 
L 304.795021 89.911405 
L 306.973911 88.892238 
L 309.1528 88.457111 
L 311.33169 88.673704 
L 313.51058 87.823958 
L 315.689469 87.544986 
L 317.868359 89.29176 
L 320.047248 86.871482 
L 322.226138 91.497293 
L 324.405027 89.745936 
L 326.583917 88.926876 
L 328.762807 88.708164 
L 330.941696 91.790871 
L 333.120586 88.793687 
L 335.299475 87.208799 
L 337.478365 87.965145 
L 339.657254 88.393107 
L 341.836144 89.062033 
L 344.015034 89.957097 
L 346.193923 86.367209 
L 348.372813 92.334755 
L 350.551702 86.424388 
L 352.730592 92.521428 
L 354.909481 91.437497 
L 357.088371 91.327293 
L 359.267261 88.368256 
L 361.44615 90.806745 
L 363.62504 87.89124 
L 365.803929 88.825002 
L 367.982819 88.020963 
L 370.161708 92.492509 
L 372.340598 90.510575 
L 374.519487 89.004304 
L 376.698377 89.527234 
L 378.877267 90.993125 
L 381.056156 88.964384 
L 383.235046 92.205457 
L 385.413935 92.244476 
L 387.592825 93.789564 
L 389.771714 90.479027 
L 391.950604 89.002758 
L 394.129494 95.794652 
L 396.308383 97.880035 
L 398.487273 87.958187 
L 398.487273 87.958187 
" clip-path="url(#p3ebd8135df)" style="fill: none; stroke: #1f77b4; stroke-linecap: square"/>
   </g>
   <g id="line2d_16">
    <path d="M 73.832727 228.204119 
L 76.011617 142.860332 
L 78.190506 228.201242 
L 89.084954 228.206997 
L 91.263844 155.957287 
L 93.442733 159.098625 
L 95.621623 135.152965 
L 97.800513 129.364252 
L 99.979402 129.127336 
L 102.158292 141.028539 
L 104.337181 115.050055 
L 106.516071 115.944582 
L 108.69496 110.207415 
L 110.87385 109.935744 
L 113.052739 111.415866 
L 115.231629 109.48926 
L 117.410519 110.141491 
L 119.589408 105.428817 
L 121.768298 110.180369 
L 123.947187 108.627932 
L 126.126077 108.623797 
L 128.304966 111.998819 
L 130.483856 110.488378 
L 132.662746 107.690379 
L 134.841635 108.284007 
L 137.020525 109.863446 
L 139.199414 113.370756 
L 141.378304 111.280127 
L 143.557193 108.248923 
L 145.736083 116.518918 
L 147.914973 111.711109 
L 150.093862 116.908693 
L 152.272752 106.417665 
L 154.451641 114.213582 
L 156.630531 109.861386 
L 158.80942 107.425747 
L 160.98831 107.71117 
L 163.1672 110.253325 
L 167.524979 112.936954 
L 169.703868 114.066052 
L 171.882758 108.454239 
L 174.061647 109.827698 
L 176.240537 114.683069 
L 178.419426 111.9503 
L 180.598316 105.356521 
L 182.777206 105.616917 
L 184.956095 110.443845 
L 187.134985 108.526836 
L 189.313874 110.541392 
L 191.492764 107.709612 
L 193.671653 104.212018 
L 195.850543 106.018244 
L 200.208322 102.955233 
L 202.387212 109.606841 
L 204.566101 104.913044 
L 206.744991 108.375648 
L 208.92388 107.44503 
L 211.10277 104.804538 
L 213.28166 108.134181 
L 215.460549 110.891467 
L 217.639439 104.368696 
L 219.818328 106.625363 
L 221.997218 106.290869 
L 224.176107 112.076136 
L 226.354997 111.253259 
L 228.533887 105.246654 
L 230.712776 107.378447 
L 232.891666 107.465338 
L 235.070555 110.076394 
L 239.428334 106.480243 
L 241.607224 102.573413 
L 243.786113 111.152464 
L 245.965003 110.395414 
L 248.143893 107.033829 
L 250.322782 104.712786 
L 252.501672 105.036844 
L 254.680561 109.618471 
L 256.859451 105.84341 
L 259.03834 106.588595 
L 261.21723 108.54408 
L 263.39612 106.897615 
L 265.575009 108.111062 
L 267.753899 107.073814 
L 269.932788 107.822888 
L 272.111678 108.006522 
L 274.290567 108.380926 
L 276.469457 107.44341 
L 278.648347 108.020411 
L 280.827236 105.840583 
L 283.006126 105.889491 
L 285.185015 106.511588 
L 287.363905 111.318288 
L 289.542794 109.154876 
L 291.721684 109.966331 
L 293.900574 102.253626 
L 296.079463 105.410794 
L 298.258353 104.381366 
L 300.437242 106.296986 
L 302.616132 106.419316 
L 304.795021 106.248772 
L 306.973911 104.671878 
L 309.1528 105.910041 
L 311.33169 109.641619 
L 313.51058 108.355229 
L 317.868359 105.204439 
L 320.047248 104.250359 
L 322.226138 107.892108 
L 324.405027 104.883791 
L 326.583917 111.831784 
L 328.762807 105.525884 
L 330.941696 102.939229 
L 333.120586 105.25735 
L 335.299475 107.07571 
L 337.478365 103.244977 
L 339.657254 110.673163 
L 341.836144 107.997223 
L 346.193923 106.500631 
L 348.372813 107.027564 
L 350.551702 108.42133 
L 352.730592 115.047262 
L 354.909481 109.864229 
L 357.088371 107.112856 
L 359.267261 105.571933 
L 361.44615 113.019996 
L 363.62504 104.632588 
L 365.803929 102.445886 
L 367.982819 105.892591 
L 370.161708 105.220363 
L 372.340598 105.438841 
L 374.519487 106.479375 
L 376.698377 108.320972 
L 378.877267 106.488011 
L 381.056156 106.333099 
L 383.235046 103.167913 
L 385.413935 106.973187 
L 387.592825 105.863339 
L 389.771714 105.380396 
L 391.950604 108.473555 
L 394.129494 108.021976 
L 396.308383 108.489172 
L 398.487273 110.313236 
L 398.487273 110.313236 
" clip-path="url(#p3ebd8135df)" style="fill: none; stroke: #ff7f0e; stroke-linecap: square"/>
   </g>
   <g id="line2d_17">
    <path d="M 73.832727 228.385792 
L 76.011617 228.163527 
L 78.190506 181.604459 
L 80.369396 181.932339 
L 82.548286 133.748193 
L 84.727175 118.712005 
L 86.906065 100.993088 
L 89.084954 95.053781 
L 91.263844 101.49093 
L 93.442733 99.473431 
L 95.621623 94.027654 
L 97.800513 92.511603 
L 99.979402 92.821511 
L 102.158292 96.400134 
L 104.337181 90.88677 
L 106.516071 94.264829 
L 108.69496 96.581422 
L 110.87385 114.573151 
L 113.052739 91.36504 
L 115.231629 92.150629 
L 117.410519 89.913266 
L 119.589408 97.18308 
L 121.768298 89.32476 
L 123.947187 96.751088 
L 126.126077 90.714575 
L 128.304966 100.40062 
L 130.483856 91.368481 
L 132.662746 93.708604 
L 134.841635 88.368664 
L 137.020525 87.766002 
L 139.199414 93.747045 
L 141.378304 95.132142 
L 143.557193 90.815913 
L 145.736083 89.095565 
L 147.914973 92.196483 
L 150.093862 96.150257 
L 152.272752 95.966865 
L 154.451641 89.431946 
L 156.630531 97.730721 
L 158.80942 89.540835 
L 160.98831 90.929302 
L 163.1672 89.197674 
L 165.346089 88.061942 
L 167.524979 97.688763 
L 169.703868 88.581501 
L 171.882758 92.960116 
L 174.061647 92.434152 
L 176.240537 89.151683 
L 178.419426 92.042846 
L 180.598316 89.835931 
L 182.777206 95.436346 
L 184.956095 87.584231 
L 187.134985 99.012166 
L 189.313874 98.781748 
L 191.492764 93.272662 
L 193.671653 89.255772 
L 195.850543 88.351765 
L 198.029433 87.249748 
L 200.208322 98.001175 
L 202.387212 96.783572 
L 204.566101 94.026689 
L 206.744991 97.421223 
L 208.92388 89.71242 
L 211.10277 91.118352 
L 213.28166 89.939578 
L 215.460549 91.382667 
L 217.639439 91.436778 
L 219.818328 88.212356 
L 221.997218 92.774189 
L 224.176107 94.074526 
L 226.354997 88.782998 
L 228.533887 88.061363 
L 230.712776 93.370329 
L 232.891666 89.957818 
L 235.070555 92.664471 
L 237.249445 87.168498 
L 239.428334 90.39468 
L 241.607224 95.095324 
L 243.786113 88.005326 
L 245.965003 92.865297 
L 248.143893 89.74848 
L 250.322782 89.008035 
L 252.501672 95.039818 
L 254.680561 92.405698 
L 256.859451 88.15457 
L 259.03834 94.106715 
L 261.21723 88.439264 
L 263.39612 93.504165 
L 265.575009 87.865408 
L 267.753899 90.201577 
L 269.932788 94.791034 
L 272.111678 86.442091 
L 274.290567 88.202071 
L 276.469457 88.608068 
L 278.648347 104.747689 
L 280.827236 93.583146 
L 283.006126 89.980124 
L 285.185015 96.739718 
L 287.363905 94.849367 
L 289.542794 88.037429 
L 291.721684 90.506577 
L 293.900574 98.402989 
L 296.079463 91.894801 
L 298.258353 92.854468 
L 300.437242 90.415862 
L 302.616132 93.037837 
L 304.795021 97.468073 
L 306.973911 90.230297 
L 309.1528 90.84 
L 311.33169 90.581851 
L 313.51058 91.944911 
L 315.689469 90.701215 
L 317.868359 91.201154 
L 320.047248 88.903577 
L 322.226138 87.849649 
L 324.405027 91.851062 
L 326.583917 91.685019 
L 328.762807 94.654446 
L 330.941696 89.90665 
L 333.120586 88.201892 
L 335.299475 91.576709 
L 337.478365 87.615295 
L 339.657254 87.926709 
L 341.836144 98.127879 
L 344.015034 100.857924 
L 346.193923 92.624554 
L 348.372813 90.395509 
L 350.551702 93.868372 
L 352.730592 94.198248 
L 354.909481 89.280881 
L 357.088371 89.435191 
L 359.267261 88.926411 
L 361.44615 90.35139 
L 363.62504 93.098161 
L 365.803929 91.627326 
L 367.982819 91.485023 
L 370.161708 97.353497 
L 372.340598 90.158649 
L 374.519487 88.208671 
L 376.698377 91.815958 
L 378.877267 88.94106 
L 381.056156 87.517327 
L 383.235046 92.75822 
L 385.413935 89.939813 
L 387.592825 92.830441 
L 389.771714 90.799427 
L 391.950604 88.9737 
L 394.129494 87.607093 
L 396.308383 88.67801 
L 398.487273 86.849048 
L 398.487273 86.849048 
" clip-path="url(#p3ebd8135df)" style="fill: none; stroke: #2ca02c; stroke-linecap: square"/>
   </g>
   <g id="line2d_18">
    <path d="M 73.832727 148.655533 
L 76.011617 229.029414 
L 80.369396 229.021455 
L 84.727175 229.045333 
L 86.906065 141.951402 
L 89.084954 117.838486 
L 91.263844 117.782979 
L 93.442733 99.495412 
L 95.621623 102.128342 
L 97.800513 104.46127 
L 99.979402 92.520026 
L 102.158292 95.628932 
L 104.337181 96.08759 
L 106.516071 95.175012 
L 108.69496 95.187526 
L 110.87385 94.112629 
L 113.052739 94.284399 
L 115.231629 99.788401 
L 117.410519 100.033571 
L 119.589408 95.915323 
L 121.768298 92.538458 
L 123.947187 93.625627 
L 126.126077 91.141886 
L 128.304966 91.216553 
L 130.483856 91.848084 
L 132.662746 91.786564 
L 134.841635 91.475268 
L 137.020525 93.192533 
L 139.199414 91.487755 
L 141.378304 95.836915 
L 143.557193 91.873513 
L 145.736083 93.859704 
L 147.914973 92.271338 
L 150.093862 93.034771 
L 152.272752 93.060401 
L 154.451641 94.169179 
L 156.630531 92.006054 
L 158.80942 93.025831 
L 160.98831 92.35352 
L 163.1672 89.355207 
L 165.346089 91.308694 
L 167.524979 92.514356 
L 169.703868 94.269096 
L 171.882758 94.280784 
L 174.061647 91.616999 
L 176.240537 90.897562 
L 178.419426 92.184831 
L 180.598316 92.475355 
L 182.777206 89.934647 
L 184.956095 89.438927 
L 187.134985 96.106678 
L 189.313874 89.867754 
L 191.492764 90.674846 
L 193.671653 98.701122 
L 195.850543 93.13773 
L 198.029433 97.7755 
L 200.208322 96.561681 
L 202.387212 90.023028 
L 206.744991 95.368429 
L 208.92388 90.258807 
L 211.10277 91.693358 
L 213.28166 92.96635 
L 215.460549 90.219008 
L 217.639439 91.616538 
L 219.818328 89.493796 
L 221.997218 92.434221 
L 224.176107 91.059958 
L 226.354997 90.026941 
L 228.533887 94.475764 
L 230.712776 95.863626 
L 232.891666 89.003927 
L 235.070555 91.050312 
L 237.249445 91.636754 
L 239.428334 93.641722 
L 241.607224 93.497113 
L 243.786113 89.803078 
L 245.965003 89.567827 
L 248.143893 91.035443 
L 250.322782 95.210709 
L 252.501672 91.882288 
L 254.680561 90.976259 
L 256.859451 91.976819 
L 259.03834 89.135364 
L 261.21723 96.491513 
L 263.39612 90.006671 
L 265.575009 89.847681 
L 267.753899 91.466528 
L 269.932788 91.532433 
L 272.111678 90.382519 
L 274.290567 93.898021 
L 276.469457 90.118224 
L 278.648347 90.245928 
L 280.827236 89.731232 
L 283.006126 88.593987 
L 285.185015 88.953107 
L 287.363905 91.210371 
L 289.542794 94.031305 
L 291.721684 90.368746 
L 293.900574 89.191088 
L 296.079463 88.56766 
L 298.258353 89.864971 
L 300.437242 88.417704 
L 302.616132 91.267553 
L 304.795021 95.99409 
L 306.973911 95.240323 
L 309.1528 90.907473 
L 311.33169 90.027879 
L 313.51058 90.743891 
L 315.689469 90.144055 
L 317.868359 93.17284 
L 320.047248 89.526482 
L 322.226138 93.443427 
L 324.405027 91.621001 
L 326.583917 97.365122 
L 328.762807 91.479611 
L 330.941696 90.302337 
L 333.120586 90.765672 
L 335.299475 92.317632 
L 337.478365 89.521855 
L 339.657254 91.912466 
L 341.836144 92.856753 
L 344.015034 95.549949 
L 346.193923 92.54283 
L 348.372813 95.529473 
L 350.551702 92.249557 
L 352.730592 94.829897 
L 354.909481 91.493936 
L 357.088371 89.680066 
L 359.267261 91.787972 
L 361.44615 94.694508 
L 363.62504 93.596399 
L 365.803929 90.981607 
L 367.982819 96.295077 
L 370.161708 92.106411 
L 372.340598 89.783503 
L 374.519487 91.686434 
L 376.698377 92.809707 
L 378.877267 90.244082 
L 381.056156 90.630031 
L 383.235046 91.695932 
L 385.413935 98.811439 
L 387.592825 93.050268 
L 389.771714 91.502723 
L 391.950604 91.2122 
L 394.129494 91.272907 
L 396.308383 98.567206 
L 398.487273 90.460366 
L 398.487273 90.460366 
" clip-path="url(#p3ebd8135df)" style="fill: none; stroke: #d62728; stroke-linecap: square"/>
   </g>
   <g id="patch_3">
    <path d="M 57.6 307.584 
L 57.6 41.472 
" style="fill: none; stroke: #000000; stroke-width: 0.8; stroke-linejoin: miter; stroke-linecap: square"/>
   </g>
   <g id="patch_4">
    <path d="M 414.72 307.584 
L 414.72 41.472 
" style="fill: none; stroke: #000000; stroke-width: 0.8; stroke-linejoin: miter; stroke-linecap: square"/>
   </g>
   <g id="patch_5">
    <path d="M 57.6 307.584 
L 414.72 307.584 
" style="fill: none; stroke: #000000; stroke-width: 0.8; stroke-linejoin: miter; stroke-linecap: square"/>
   </g>
   <g id="patch_6">
    <path d="M 57.6 41.472 
L 414.72 41.472 
" style="fill: none; stroke: #000000; stroke-width: 0.8; stroke-linejoin: miter; stroke-linecap: square"/>
   </g>
   <g id="text_16">
    <!-- Precision of FC -->
    <g transform="translate(192.15375 35.472) scale(0.12 -0.12)">
     <defs>
      <path id="DejaVuSans-50" d="M 1259 4147 
L 1259 2394 
L 2053 2394 
Q 2494 2394 2734 2622 
Q 2975 2850 2975 3272 
Q 2975 3691 2734 3919 
Q 2494 4147 2053 4147 
L 1259 4147 
z
M 628 4666 
L 2053 4666 
Q 2838 4666 3239 4311 
Q 3641 3956 3641 3272 
Q 3641 2581 3239 2228 
Q 2838 1875 2053 1875 
L 1259 1875 
L 1259 0 
L 628 0 
L 628 4666 
z
" transform="scale(0.015625)"/>
      <path id="DejaVuSans-72" d="M 2631 2963 
Q 2534 3019 2420 3045 
Q 2306 3072 2169 3072 
Q 1681 3072 1420 2755 
Q 1159 2438 1159 1844 
L 1159 0 
L 581 0 
L 581 3500 
L 1159 3500 
L 1159 2956 
Q 1341 3275 1631 3429 
Q 1922 3584 2338 3584 
Q 2397 3584 2469 3576 
Q 2541 3569 2628 3553 
L 2631 2963 
z
" transform="scale(0.015625)"/>
      <path id="DejaVuSans-69" d="M 603 3500 
L 1178 3500 
L 1178 0 
L 603 0 
L 603 3500 
z
M 603 4863 
L 1178 4863 
L 1178 4134 
L 603 4134 
L 603 4863 
z
" transform="scale(0.015625)"/>
      <path id="DejaVuSans-73" d="M 2834 3397 
L 2834 2853 
Q 2591 2978 2328 3040 
Q 2066 3103 1784 3103 
Q 1356 3103 1142 2972 
Q 928 2841 928 2578 
Q 928 2378 1081 2264 
Q 1234 2150 1697 2047 
L 1894 2003 
Q 2506 1872 2764 1633 
Q 3022 1394 3022 966 
Q 3022 478 2636 193 
Q 2250 -91 1575 -91 
Q 1294 -91 989 -36 
Q 684 19 347 128 
L 347 722 
Q 666 556 975 473 
Q 1284 391 1588 391 
Q 1994 391 2212 530 
Q 2431 669 2431 922 
Q 2431 1156 2273 1281 
Q 2116 1406 1581 1522 
L 1381 1569 
Q 847 1681 609 1914 
Q 372 2147 372 2553 
Q 372 3047 722 3315 
Q 1072 3584 1716 3584 
Q 2034 3584 2315 3537 
Q 2597 3491 2834 3397 
z
" transform="scale(0.015625)"/>
      <path id="DejaVuSans-6e" d="M 3513 2113 
L 3513 0 
L 2938 0 
L 2938 2094 
Q 2938 2591 2744 2837 
Q 2550 3084 2163 3084 
Q 1697 3084 1428 2787 
Q 1159 2491 1159 1978 
L 1159 0 
L 581 0 
L 581 3500 
L 1159 3500 
L 1159 2956 
Q 1366 3272 1645 3428 
Q 1925 3584 2291 3584 
Q 2894 3584 3203 3211 
Q 3513 2838 3513 2113 
z
" transform="scale(0.015625)"/>
      <path id="DejaVuSans-20" transform="scale(0.015625)"/>
      <path id="DejaVuSans-66" d="M 2375 4863 
L 2375 4384 
L 1825 4384 
Q 1516 4384 1395 4259 
Q 1275 4134 1275 3809 
L 1275 3500 
L 2222 3500 
L 2222 3053 
L 1275 3053 
L 1275 0 
L 697 0 
L 697 3053 
L 147 3053 
L 147 3500 
L 697 3500 
L 697 3744 
Q 697 4328 969 4595 
Q 1241 4863 1831 4863 
L 2375 4863 
z
" transform="scale(0.015625)"/>
      <path id="DejaVuSans-46" d="M 628 4666 
L 3309 4666 
L 3309 4134 
L 1259 4134 
L 1259 2759 
L 3109 2759 
L 3109 2228 
L 1259 2228 
L 1259 0 
L 628 0 
L 628 4666 
z
" transform="scale(0.015625)"/>
      <path id="DejaVuSans-43" d="M 4122 4306 
L 4122 3641 
Q 3803 3938 3442 4084 
Q 3081 4231 2675 4231 
Q 1875 4231 1450 3742 
Q 1025 3253 1025 2328 
Q 1025 1406 1450 917 
Q 1875 428 2675 428 
Q 3081 428 3442 575 
Q 3803 722 4122 1019 
L 4122 359 
Q 3791 134 3420 21 
Q 3050 -91 2638 -91 
Q 1578 -91 968 557 
Q 359 1206 359 2328 
Q 359 3453 968 4101 
Q 1578 4750 2638 4750 
Q 3056 4750 3426 4639 
Q 3797 4528 4122 4306 
z
" transform="scale(0.015625)"/>
     </defs>
     <use xlink:href="#DejaVuSans-50"/>
     <use xlink:href="#DejaVuSans-72" x="58.552734"/>
     <use xlink:href="#DejaVuSans-65" x="97.416016"/>
     <use xlink:href="#DejaVuSans-63" x="158.939453"/>
     <use xlink:href="#DejaVuSans-69" x="213.919922"/>
     <use xlink:href="#DejaVuSans-73" x="241.703125"/>
     <use xlink:href="#DejaVuSans-69" x="293.802734"/>
     <use xlink:href="#DejaVuSans-6f" x="321.585938"/>
     <use xlink:href="#DejaVuSans-6e" x="382.767578"/>
     <use xlink:href="#DejaVuSans-20" x="446.146484"/>
     <use xlink:href="#DejaVuSans-6f" x="477.933594"/>
     <use xlink:href="#DejaVuSans-66" x="539.115234"/>
     <use xlink:href="#DejaVuSans-20" x="574.320312"/>
     <use xlink:href="#DejaVuSans-46" x="606.107422"/>
     <use xlink:href="#DejaVuSans-43" x="663.626953"/>
    </g>
   </g>
   <g id="legend_1">
    <g id="patch_7">
     <path d="M 64.6 302.584 
L 173.157812 302.584 
Q 175.157812 302.584 175.157812 300.584 
L 175.157812 242.8715 
Q 175.157812 240.8715 173.157812 240.8715 
L 64.6 240.8715 
Q 62.6 240.8715 62.6 242.8715 
L 62.6 300.584 
Q 62.6 302.584 64.6 302.584 
z
" style="fill: #ffffff; opacity: 0.8; stroke: #cccccc; stroke-linejoin: miter"/>
    </g>
    <g id="line2d_19">
     <path d="M 66.6 248.969937 
L 76.6 248.969937 
L 86.6 248.969937 
" style="fill: none; stroke: #1f77b4; stroke-linecap: square"/>
    </g>
    <g id="text_17">
     <!-- 2000 samples -->
     <g transform="translate(94.6 252.469937) scale(0.1 -0.1)">
      <defs>
       <path id="DejaVuSans-61" d="M 2194 1759 
Q 1497 1759 1228 1600 
Q 959 1441 959 1056 
Q 959 750 1161 570 
Q 1363 391 1709 391 
Q 2188 391 2477 730 
Q 2766 1069 2766 1631 
L 2766 1759 
L 2194 1759 
z
M 3341 1997 
L 3341 0 
L 2766 0 
L 2766 531 
Q 2569 213 2275 61 
Q 1981 -91 1556 -91 
Q 1019 -91 701 211 
Q 384 513 384 1019 
Q 384 1609 779 1909 
Q 1175 2209 1959 2209 
L 2766 2209 
L 2766 2266 
Q 2766 2663 2505 2880 
Q 2244 3097 1772 3097 
Q 1472 3097 1187 3025 
Q 903 2953 641 2809 
L 641 3341 
Q 956 3463 1253 3523 
Q 1550 3584 1831 3584 
Q 2591 3584 2966 3190 
Q 3341 2797 3341 1997 
z
" transform="scale(0.015625)"/>
       <path id="DejaVuSans-6d" d="M 3328 2828 
Q 3544 3216 3844 3400 
Q 4144 3584 4550 3584 
Q 5097 3584 5394 3201 
Q 5691 2819 5691 2113 
L 5691 0 
L 5113 0 
L 5113 2094 
Q 5113 2597 4934 2840 
Q 4756 3084 4391 3084 
Q 3944 3084 3684 2787 
Q 3425 2491 3425 1978 
L 3425 0 
L 2847 0 
L 2847 2094 
Q 2847 2600 2669 2842 
Q 2491 3084 2119 3084 
Q 1678 3084 1418 2786 
Q 1159 2488 1159 1978 
L 1159 0 
L 581 0 
L 581 3500 
L 1159 3500 
L 1159 2956 
Q 1356 3278 1631 3431 
Q 1906 3584 2284 3584 
Q 2666 3584 2933 3390 
Q 3200 3197 3328 2828 
z
" transform="scale(0.015625)"/>
       <path id="DejaVuSans-6c" d="M 603 4863 
L 1178 4863 
L 1178 0 
L 603 0 
L 603 4863 
z
" transform="scale(0.015625)"/>
      </defs>
      <use xlink:href="#DejaVuSans-32"/>
      <use xlink:href="#DejaVuSans-30" x="63.623047"/>
      <use xlink:href="#DejaVuSans-30" x="127.246094"/>
      <use xlink:href="#DejaVuSans-30" x="190.869141"/>
      <use xlink:href="#DejaVuSans-20" x="254.492188"/>
      <use xlink:href="#DejaVuSans-73" x="286.279297"/>
      <use xlink:href="#DejaVuSans-61" x="338.378906"/>
      <use xlink:href="#DejaVuSans-6d" x="399.658203"/>
      <use xlink:href="#DejaVuSans-70" x="497.070312"/>
      <use xlink:href="#DejaVuSans-6c" x="560.546875"/>
      <use xlink:href="#DejaVuSans-65" x="588.330078"/>
      <use xlink:href="#DejaVuSans-73" x="649.853516"/>
     </g>
    </g>
    <g id="line2d_20">
     <path d="M 66.6 263.648062 
L 76.6 263.648062 
L 86.6 263.648062 
" style="fill: none; stroke: #ff7f0e; stroke-linecap: square"/>
    </g>
    <g id="text_18">
     <!-- 5000 samples -->
     <g transform="translate(94.6 267.148062) scale(0.1 -0.1)">
      <defs>
       <path id="DejaVuSans-35" d="M 691 4666 
L 3169 4666 
L 3169 4134 
L 1269 4134 
L 1269 2991 
Q 1406 3038 1543 3061 
Q 1681 3084 1819 3084 
Q 2600 3084 3056 2656 
Q 3513 2228 3513 1497 
Q 3513 744 3044 326 
Q 2575 -91 1722 -91 
Q 1428 -91 1123 -41 
Q 819 9 494 109 
L 494 744 
Q 775 591 1075 516 
Q 1375 441 1709 441 
Q 2250 441 2565 725 
Q 2881 1009 2881 1497 
Q 2881 1984 2565 2268 
Q 2250 2553 1709 2553 
Q 1456 2553 1204 2497 
Q 953 2441 691 2322 
L 691 4666 
z
" transform="scale(0.015625)"/>
      </defs>
      <use xlink:href="#DejaVuSans-35"/>
      <use xlink:href="#DejaVuSans-30" x="63.623047"/>
      <use xlink:href="#DejaVuSans-30" x="127.246094"/>
      <use xlink:href="#DejaVuSans-30" x="190.869141"/>
      <use xlink:href="#DejaVuSans-20" x="254.492188"/>
      <use xlink:href="#DejaVuSans-73" x="286.279297"/>
      <use xlink:href="#DejaVuSans-61" x="338.378906"/>
      <use xlink:href="#DejaVuSans-6d" x="399.658203"/>
      <use xlink:href="#DejaVuSans-70" x="497.070312"/>
      <use xlink:href="#DejaVuSans-6c" x="560.546875"/>
      <use xlink:href="#DejaVuSans-65" x="588.330078"/>
      <use xlink:href="#DejaVuSans-73" x="649.853516"/>
     </g>
    </g>
    <g id="line2d_21">
     <path d="M 66.6 278.326187 
L 76.6 278.326187 
L 86.6 278.326187 
" style="fill: none; stroke: #2ca02c; stroke-linecap: square"/>
    </g>
    <g id="text_19">
     <!-- 8000 samples -->
     <g transform="translate(94.6 281.826187) scale(0.1 -0.1)">
      <use xlink:href="#DejaVuSans-38"/>
      <use xlink:href="#DejaVuSans-30" x="63.623047"/>
      <use xlink:href="#DejaVuSans-30" x="127.246094"/>
      <use xlink:href="#DejaVuSans-30" x="190.869141"/>
      <use xlink:href="#DejaVuSans-20" x="254.492188"/>
      <use xlink:href="#DejaVuSans-73" x="286.279297"/>
      <use xlink:href="#DejaVuSans-61" x="338.378906"/>
      <use xlink:href="#DejaVuSans-6d" x="399.658203"/>
      <use xlink:href="#DejaVuSans-70" x="497.070312"/>
      <use xlink:href="#DejaVuSans-6c" x="560.546875"/>
      <use xlink:href="#DejaVuSans-65" x="588.330078"/>
      <use xlink:href="#DejaVuSans-73" x="649.853516"/>
     </g>
    </g>
    <g id="line2d_22">
     <path d="M 66.6 293.004312 
L 76.6 293.004312 
L 86.6 293.004312 
" style="fill: none; stroke: #d62728; stroke-linecap: square"/>
    </g>
    <g id="text_20">
     <!-- 10000 samples -->
     <g transform="translate(94.6 296.504312) scale(0.1 -0.1)">
      <use xlink:href="#DejaVuSans-31"/>
      <use xlink:href="#DejaVuSans-30" x="63.623047"/>
      <use xlink:href="#DejaVuSans-30" x="127.246094"/>
      <use xlink:href="#DejaVuSans-30" x="190.869141"/>
      <use xlink:href="#DejaVuSans-30" x="254.492188"/>
      <use xlink:href="#DejaVuSans-20" x="318.115234"/>
      <use xlink:href="#DejaVuSans-73" x="349.902344"/>
      <use xlink:href="#DejaVuSans-61" x="402.001953"/>
      <use xlink:href="#DejaVuSans-6d" x="463.28125"/>
      <use xlink:href="#DejaVuSans-70" x="560.693359"/>
      <use xlink:href="#DejaVuSans-6c" x="624.169922"/>
      <use xlink:href="#DejaVuSans-65" x="651.953125"/>
      <use xlink:href="#DejaVuSans-73" x="713.476562"/>
     </g>
    </g>
   </g>
  </g>
 </g>
 <defs>
  <clipPath id="p3ebd8135df">
   <rect x="57.6" y="41.472" width="357.12" height="266.112"/>
  </clipPath>
 </defs>
</svg>
