<?xml version="1.0" encoding="utf-8" standalone="no"?>
<!DOCTYPE svg PUBLIC "-//W3C//DTD SVG 1.1//EN"
  "http://www.w3.org/Graphics/SVG/1.1/DTD/svg11.dtd">
<svg xmlns:xlink="http://www.w3.org/1999/xlink" width="460.8pt" height="345.6pt" viewBox="0 0 460.8 345.6" xmlns="http://www.w3.org/2000/svg" version="1.1">
 <metadata>
  <rdf:RDF xmlns:dc="http://purl.org/dc/elements/1.1/" xmlns:cc="http://creativecommons.org/ns#" xmlns:rdf="http://www.w3.org/1999/02/22-rdf-syntax-ns#">
   <cc:Work>
    <dc:type rdf:resource="http://purl.org/dc/dcmitype/StillImage"/>
    <dc:date>2023-09-13T16:28:03.189895</dc:date>
    <dc:format>image/svg+xml</dc:format>
    <dc:creator>
     <cc:Agent>
      <dc:title>Matplotlib v3.7.1, https://matplotlib.org/</dc:title>
     </cc:Agent>
    </dc:creator>
   </cc:Work>
  </rdf:RDF>
 </metadata>
 <defs>
  <style type="text/css">*{stroke-linejoin: round; stroke-linecap: butt}</style>
 </defs>
 <g id="figure_1">
  <g id="patch_1">
   <path d="M 0 345.6 
L 460.8 345.6 
L 460.8 0 
L 0 0 
z
" style="fill: #ffffff"/>
  </g>
  <g id="axes_1">
   <g id="patch_2">
    <path d="M 57.6 307.584 
L 414.72 307.584 
L 414.72 41.472 
L 57.6 41.472 
z
" style="fill: #ffffff"/>
   </g>
   <g id="matplotlib.axis_1">
    <g id="xtick_1">
     <g id="line2d_1">
      <defs>
       <path id="m8f9cca5352" d="M 0 0 
L 0 3.5 
" style="stroke: #000000; stroke-width: 0.8"/>
      </defs>
      <g>
       <use xlink:href="#m8f9cca5352" x="71.653838" y="307.584" style="stroke: #000000; stroke-width: 0.8"/>
      </g>
     </g>
     <g id="text_1">
      <!-- 0 -->
      <g transform="translate(68.472588 322.182437) scale(0.1 -0.1)">
       <defs>
        <path id="DejaVuSans-30" d="M 2034 4250 
Q 1547 4250 1301 3770 
Q 1056 3291 1056 2328 
Q 1056 1369 1301 889 
Q 1547 409 2034 409 
Q 2525 409 2770 889 
Q 3016 1369 3016 2328 
Q 3016 3291 2770 3770 
Q 2525 4250 2034 4250 
z
M 2034 4750 
Q 2819 4750 3233 4129 
Q 3647 3509 3647 2328 
Q 3647 1150 3233 529 
Q 2819 -91 2034 -91 
Q 1250 -91 836 529 
Q 422 1150 422 2328 
Q 422 3509 836 4129 
Q 1250 4750 2034 4750 
z
" transform="scale(0.015625)"/>
       </defs>
       <use xlink:href="#DejaVuSans-30"/>
      </g>
     </g>
    </g>
    <g id="xtick_2">
     <g id="line2d_2">
      <g>
       <use xlink:href="#m8f9cca5352" x="115.231629" y="307.584" style="stroke: #000000; stroke-width: 0.8"/>
      </g>
     </g>
     <g id="text_2">
      <!-- 20 -->
      <g transform="translate(108.869129 322.182437) scale(0.1 -0.1)">
       <defs>
        <path id="DejaVuSans-32" d="M 1228 531 
L 3431 531 
L 3431 0 
L 469 0 
L 469 531 
Q 828 903 1448 1529 
Q 2069 2156 2228 2338 
Q 2531 2678 2651 2914 
Q 2772 3150 2772 3378 
Q 2772 3750 2511 3984 
Q 2250 4219 1831 4219 
Q 1534 4219 1204 4116 
Q 875 4013 500 3803 
L 500 4441 
Q 881 4594 1212 4672 
Q 1544 4750 1819 4750 
Q 2544 4750 2975 4387 
Q 3406 4025 3406 3419 
Q 3406 3131 3298 2873 
Q 3191 2616 2906 2266 
Q 2828 2175 2409 1742 
Q 1991 1309 1228 531 
z
" transform="scale(0.015625)"/>
       </defs>
       <use xlink:href="#DejaVuSans-32"/>
       <use xlink:href="#DejaVuSans-30" x="63.623047"/>
      </g>
     </g>
    </g>
    <g id="xtick_3">
     <g id="line2d_3">
      <g>
       <use xlink:href="#m8f9cca5352" x="158.80942" y="307.584" style="stroke: #000000; stroke-width: 0.8"/>
      </g>
     </g>
     <g id="text_3">
      <!-- 40 -->
      <g transform="translate(152.44692 322.182437) scale(0.1 -0.1)">
       <defs>
        <path id="DejaVuSans-34" d="M 2419 4116 
L 825 1625 
L 2419 1625 
L 2419 4116 
z
M 2253 4666 
L 3047 4666 
L 3047 1625 
L 3713 1625 
L 3713 1100 
L 3047 1100 
L 3047 0 
L 2419 0 
L 2419 1100 
L 313 1100 
L 313 1709 
L 2253 4666 
z
" transform="scale(0.015625)"/>
       </defs>
       <use xlink:href="#DejaVuSans-34"/>
       <use xlink:href="#DejaVuSans-30" x="63.623047"/>
      </g>
     </g>
    </g>
    <g id="xtick_4">
     <g id="line2d_4">
      <g>
       <use xlink:href="#m8f9cca5352" x="202.387212" y="307.584" style="stroke: #000000; stroke-width: 0.8"/>
      </g>
     </g>
     <g id="text_4">
      <!-- 60 -->
      <g transform="translate(196.024712 322.182437) scale(0.1 -0.1)">
       <defs>
        <path id="DejaVuSans-36" d="M 2113 2584 
Q 1688 2584 1439 2293 
Q 1191 2003 1191 1497 
Q 1191 994 1439 701 
Q 1688 409 2113 409 
Q 2538 409 2786 701 
Q 3034 994 3034 1497 
Q 3034 2003 2786 2293 
Q 2538 2584 2113 2584 
z
M 3366 4563 
L 3366 3988 
Q 3128 4100 2886 4159 
Q 2644 4219 2406 4219 
Q 1781 4219 1451 3797 
Q 1122 3375 1075 2522 
Q 1259 2794 1537 2939 
Q 1816 3084 2150 3084 
Q 2853 3084 3261 2657 
Q 3669 2231 3669 1497 
Q 3669 778 3244 343 
Q 2819 -91 2113 -91 
Q 1303 -91 875 529 
Q 447 1150 447 2328 
Q 447 3434 972 4092 
Q 1497 4750 2381 4750 
Q 2619 4750 2861 4703 
Q 3103 4656 3366 4563 
z
" transform="scale(0.015625)"/>
       </defs>
       <use xlink:href="#DejaVuSans-36"/>
       <use xlink:href="#DejaVuSans-30" x="63.623047"/>
      </g>
     </g>
    </g>
    <g id="xtick_5">
     <g id="line2d_5">
      <g>
       <use xlink:href="#m8f9cca5352" x="245.965003" y="307.584" style="stroke: #000000; stroke-width: 0.8"/>
      </g>
     </g>
     <g id="text_5">
      <!-- 80 -->
      <g transform="translate(239.602503 322.182437) scale(0.1 -0.1)">
       <defs>
        <path id="DejaVuSans-38" d="M 2034 2216 
Q 1584 2216 1326 1975 
Q 1069 1734 1069 1313 
Q 1069 891 1326 650 
Q 1584 409 2034 409 
Q 2484 409 2743 651 
Q 3003 894 3003 1313 
Q 3003 1734 2745 1975 
Q 2488 2216 2034 2216 
z
M 1403 2484 
Q 997 2584 770 2862 
Q 544 3141 544 3541 
Q 544 4100 942 4425 
Q 1341 4750 2034 4750 
Q 2731 4750 3128 4425 
Q 3525 4100 3525 3541 
Q 3525 3141 3298 2862 
Q 3072 2584 2669 2484 
Q 3125 2378 3379 2068 
Q 3634 1759 3634 1313 
Q 3634 634 3220 271 
Q 2806 -91 2034 -91 
Q 1263 -91 848 271 
Q 434 634 434 1313 
Q 434 1759 690 2068 
Q 947 2378 1403 2484 
z
M 1172 3481 
Q 1172 3119 1398 2916 
Q 1625 2713 2034 2713 
Q 2441 2713 2670 2916 
Q 2900 3119 2900 3481 
Q 2900 3844 2670 4047 
Q 2441 4250 2034 4250 
Q 1625 4250 1398 4047 
Q 1172 3844 1172 3481 
z
" transform="scale(0.015625)"/>
       </defs>
       <use xlink:href="#DejaVuSans-38"/>
       <use xlink:href="#DejaVuSans-30" x="63.623047"/>
      </g>
     </g>
    </g>
    <g id="xtick_6">
     <g id="line2d_6">
      <g>
       <use xlink:href="#m8f9cca5352" x="289.542794" y="307.584" style="stroke: #000000; stroke-width: 0.8"/>
      </g>
     </g>
     <g id="text_6">
      <!-- 100 -->
      <g transform="translate(279.999044 322.182437) scale(0.1 -0.1)">
       <defs>
        <path id="DejaVuSans-31" d="M 794 531 
L 1825 531 
L 1825 4091 
L 703 3866 
L 703 4441 
L 1819 4666 
L 2450 4666 
L 2450 531 
L 3481 531 
L 3481 0 
L 794 0 
L 794 531 
z
" transform="scale(0.015625)"/>
       </defs>
       <use xlink:href="#DejaVuSans-31"/>
       <use xlink:href="#DejaVuSans-30" x="63.623047"/>
       <use xlink:href="#DejaVuSans-30" x="127.246094"/>
      </g>
     </g>
    </g>
    <g id="xtick_7">
     <g id="line2d_7">
      <g>
       <use xlink:href="#m8f9cca5352" x="333.120586" y="307.584" style="stroke: #000000; stroke-width: 0.8"/>
      </g>
     </g>
     <g id="text_7">
      <!-- 120 -->
      <g transform="translate(323.576836 322.182437) scale(0.1 -0.1)">
       <use xlink:href="#DejaVuSans-31"/>
       <use xlink:href="#DejaVuSans-32" x="63.623047"/>
       <use xlink:href="#DejaVuSans-30" x="127.246094"/>
      </g>
     </g>
    </g>
    <g id="xtick_8">
     <g id="line2d_8">
      <g>
       <use xlink:href="#m8f9cca5352" x="376.698377" y="307.584" style="stroke: #000000; stroke-width: 0.8"/>
      </g>
     </g>
     <g id="text_8">
      <!-- 140 -->
      <g transform="translate(367.154627 322.182437) scale(0.1 -0.1)">
       <use xlink:href="#DejaVuSans-31"/>
       <use xlink:href="#DejaVuSans-34" x="63.623047"/>
       <use xlink:href="#DejaVuSans-30" x="127.246094"/>
      </g>
     </g>
    </g>
    <g id="text_9">
     <!-- epoch -->
     <g transform="translate(220.931875 335.860562) scale(0.1 -0.1)">
      <defs>
       <path id="DejaVuSans-65" d="M 3597 1894 
L 3597 1613 
L 953 1613 
Q 991 1019 1311 708 
Q 1631 397 2203 397 
Q 2534 397 2845 478 
Q 3156 559 3463 722 
L 3463 178 
Q 3153 47 2828 -22 
Q 2503 -91 2169 -91 
Q 1331 -91 842 396 
Q 353 884 353 1716 
Q 353 2575 817 3079 
Q 1281 3584 2069 3584 
Q 2775 3584 3186 3129 
Q 3597 2675 3597 1894 
z
M 3022 2063 
Q 3016 2534 2758 2815 
Q 2500 3097 2075 3097 
Q 1594 3097 1305 2825 
Q 1016 2553 972 2059 
L 3022 2063 
z
" transform="scale(0.015625)"/>
       <path id="DejaVuSans-70" d="M 1159 525 
L 1159 -1331 
L 581 -1331 
L 581 3500 
L 1159 3500 
L 1159 2969 
Q 1341 3281 1617 3432 
Q 1894 3584 2278 3584 
Q 2916 3584 3314 3078 
Q 3713 2572 3713 1747 
Q 3713 922 3314 415 
Q 2916 -91 2278 -91 
Q 1894 -91 1617 61 
Q 1341 213 1159 525 
z
M 3116 1747 
Q 3116 2381 2855 2742 
Q 2594 3103 2138 3103 
Q 1681 3103 1420 2742 
Q 1159 2381 1159 1747 
Q 1159 1113 1420 752 
Q 1681 391 2138 391 
Q 2594 391 2855 752 
Q 3116 1113 3116 1747 
z
" transform="scale(0.015625)"/>
       <path id="DejaVuSans-6f" d="M 1959 3097 
Q 1497 3097 1228 2736 
Q 959 2375 959 1747 
Q 959 1119 1226 758 
Q 1494 397 1959 397 
Q 2419 397 2687 759 
Q 2956 1122 2956 1747 
Q 2956 2369 2687 2733 
Q 2419 3097 1959 3097 
z
M 1959 3584 
Q 2709 3584 3137 3096 
Q 3566 2609 3566 1747 
Q 3566 888 3137 398 
Q 2709 -91 1959 -91 
Q 1206 -91 779 398 
Q 353 888 353 1747 
Q 353 2609 779 3096 
Q 1206 3584 1959 3584 
z
" transform="scale(0.015625)"/>
       <path id="DejaVuSans-63" d="M 3122 3366 
L 3122 2828 
Q 2878 2963 2633 3030 
Q 2388 3097 2138 3097 
Q 1578 3097 1268 2742 
Q 959 2388 959 1747 
Q 959 1106 1268 751 
Q 1578 397 2138 397 
Q 2388 397 2633 464 
Q 2878 531 3122 666 
L 3122 134 
Q 2881 22 2623 -34 
Q 2366 -91 2075 -91 
Q 1284 -91 818 406 
Q 353 903 353 1747 
Q 353 2603 823 3093 
Q 1294 3584 2113 3584 
Q 2378 3584 2631 3529 
Q 2884 3475 3122 3366 
z
" transform="scale(0.015625)"/>
       <path id="DejaVuSans-68" d="M 3513 2113 
L 3513 0 
L 2938 0 
L 2938 2094 
Q 2938 2591 2744 2837 
Q 2550 3084 2163 3084 
Q 1697 3084 1428 2787 
Q 1159 2491 1159 1978 
L 1159 0 
L 581 0 
L 581 4863 
L 1159 4863 
L 1159 2956 
Q 1366 3272 1645 3428 
Q 1925 3584 2291 3584 
Q 2894 3584 3203 3211 
Q 3513 2838 3513 2113 
z
" transform="scale(0.015625)"/>
      </defs>
      <use xlink:href="#DejaVuSans-65"/>
      <use xlink:href="#DejaVuSans-70" x="61.523438"/>
      <use xlink:href="#DejaVuSans-6f" x="125"/>
      <use xlink:href="#DejaVuSans-63" x="186.181641"/>
      <use xlink:href="#DejaVuSans-68" x="241.162109"/>
     </g>
    </g>
   </g>
   <g id="matplotlib.axis_2">
    <g id="ytick_1">
     <g id="line2d_9">
      <defs>
       <path id="m29d519f227" d="M 0 0 
L -3.5 0 
" style="stroke: #000000; stroke-width: 0.8"/>
      </defs>
      <g>
       <use xlink:href="#m29d519f227" x="57.6" y="307.584" style="stroke: #000000; stroke-width: 0.8"/>
      </g>
     </g>
     <g id="text_10">
      <!-- 0.0 -->
      <g transform="translate(34.696875 311.383219) scale(0.1 -0.1)">
       <defs>
        <path id="DejaVuSans-2e" d="M 684 794 
L 1344 794 
L 1344 0 
L 684 0 
L 684 794 
z
" transform="scale(0.015625)"/>
       </defs>
       <use xlink:href="#DejaVuSans-30"/>
       <use xlink:href="#DejaVuSans-2e" x="63.623047"/>
       <use xlink:href="#DejaVuSans-30" x="95.410156"/>
      </g>
     </g>
    </g>
    <g id="ytick_2">
     <g id="line2d_10">
      <g>
       <use xlink:href="#m29d519f227" x="57.6" y="260.575803" style="stroke: #000000; stroke-width: 0.8"/>
      </g>
     </g>
     <g id="text_11">
      <!-- 0.2 -->
      <g transform="translate(34.696875 264.375022) scale(0.1 -0.1)">
       <use xlink:href="#DejaVuSans-30"/>
       <use xlink:href="#DejaVuSans-2e" x="63.623047"/>
       <use xlink:href="#DejaVuSans-32" x="95.410156"/>
      </g>
     </g>
    </g>
    <g id="ytick_3">
     <g id="line2d_11">
      <g>
       <use xlink:href="#m29d519f227" x="57.6" y="213.567606" style="stroke: #000000; stroke-width: 0.8"/>
      </g>
     </g>
     <g id="text_12">
      <!-- 0.4 -->
      <g transform="translate(34.696875 217.366825) scale(0.1 -0.1)">
       <use xlink:href="#DejaVuSans-30"/>
       <use xlink:href="#DejaVuSans-2e" x="63.623047"/>
       <use xlink:href="#DejaVuSans-34" x="95.410156"/>
      </g>
     </g>
    </g>
    <g id="ytick_4">
     <g id="line2d_12">
      <g>
       <use xlink:href="#m29d519f227" x="57.6" y="166.559409" style="stroke: #000000; stroke-width: 0.8"/>
      </g>
     </g>
     <g id="text_13">
      <!-- 0.6 -->
      <g transform="translate(34.696875 170.358628) scale(0.1 -0.1)">
       <use xlink:href="#DejaVuSans-30"/>
       <use xlink:href="#DejaVuSans-2e" x="63.623047"/>
       <use xlink:href="#DejaVuSans-36" x="95.410156"/>
      </g>
     </g>
    </g>
    <g id="ytick_5">
     <g id="line2d_13">
      <g>
       <use xlink:href="#m29d519f227" x="57.6" y="119.551212" style="stroke: #000000; stroke-width: 0.8"/>
      </g>
     </g>
     <g id="text_14">
      <!-- 0.8 -->
      <g transform="translate(34.696875 123.350431) scale(0.1 -0.1)">
       <use xlink:href="#DejaVuSans-30"/>
       <use xlink:href="#DejaVuSans-2e" x="63.623047"/>
       <use xlink:href="#DejaVuSans-38" x="95.410156"/>
      </g>
     </g>
    </g>
    <g id="ytick_6">
     <g id="line2d_14">
      <g>
       <use xlink:href="#m29d519f227" x="57.6" y="72.543015" style="stroke: #000000; stroke-width: 0.8"/>
      </g>
     </g>
     <g id="text_15">
      <!-- 1.0 -->
      <g transform="translate(34.696875 76.342234) scale(0.1 -0.1)">
       <use xlink:href="#DejaVuSans-31"/>
       <use xlink:href="#DejaVuSans-2e" x="63.623047"/>
       <use xlink:href="#DejaVuSans-30" x="95.410156"/>
      </g>
     </g>
    </g>
   </g>
   <g id="line2d_15">
    <path d="M 73.832727 182.871892 
L 76.011617 99.917416 
L 78.190506 101.74217 
L 80.369396 96.782103 
L 82.548286 89.839142 
L 84.727175 94.07326 
L 86.906065 88.344029 
L 89.084954 98.10547 
L 91.263844 90.491325 
L 93.442733 90.133022 
L 95.621623 90.217759 
L 97.800513 89.558643 
L 99.979402 87.906663 
L 102.158292 89.721507 
L 104.337181 88.382522 
L 106.516071 88.519018 
L 108.69496 88.392395 
L 110.87385 91.803505 
L 113.052739 90.559424 
L 115.231629 96.747422 
L 117.410519 96.041735 
L 119.589408 96.210445 
L 121.768298 95.956033 
L 123.947187 90.36778 
L 126.126077 90.750421 
L 128.304966 90.391076 
L 130.483856 89.827785 
L 132.662746 88.144003 
L 134.841635 93.502848 
L 137.020525 87.207874 
L 139.199414 93.688787 
L 141.378304 90.704312 
L 143.557193 90.974758 
L 145.736083 91.797016 
L 147.914973 88.354601 
L 150.093862 86.789542 
L 152.272752 88.009466 
L 154.451641 88.327835 
L 156.630531 89.102907 
L 158.80942 88.190009 
L 160.98831 92.621286 
L 163.1672 88.578946 
L 165.346089 91.474037 
L 167.524979 93.383958 
L 169.703868 93.581411 
L 171.882758 87.741356 
L 174.061647 93.177762 
L 176.240537 88.154734 
L 178.419426 88.774239 
L 180.598316 92.605023 
L 182.777206 88.693052 
L 184.956095 90.900841 
L 187.134985 88.419849 
L 189.313874 89.498883 
L 191.492764 92.114154 
L 193.671653 90.940448 
L 195.850543 91.116294 
L 198.029433 93.160796 
L 200.208322 87.506413 
L 202.387212 90.816457 
L 204.566101 88.580714 
L 206.744991 90.915865 
L 208.92388 90.879367 
L 211.10277 89.424714 
L 213.28166 87.066842 
L 215.460549 90.392982 
L 217.639439 88.020974 
L 219.818328 94.341012 
L 221.997218 90.232148 
L 224.176107 90.24852 
L 226.354997 87.719095 
L 228.533887 87.074915 
L 230.712776 88.309203 
L 232.891666 89.315061 
L 235.070555 88.412333 
L 237.249445 89.975722 
L 241.607224 86.267262 
L 243.786113 87.596304 
L 245.965003 86.812062 
L 248.143893 98.08296 
L 250.322782 89.926964 
L 252.501672 88.330131 
L 254.680561 93.708211 
L 256.859451 89.455045 
L 259.03834 86.445732 
L 261.21723 87.152024 
L 263.39612 87.470288 
L 265.575009 89.568795 
L 267.753899 86.979828 
L 269.932788 91.250671 
L 272.111678 87.934584 
L 274.290567 90.244503 
L 276.469457 90.860598 
L 278.648347 86.792653 
L 280.827236 88.450593 
L 283.006126 87.930213 
L 285.185015 91.167412 
L 287.363905 89.978411 
L 289.542794 89.921171 
L 291.721684 88.055519 
L 293.900574 90.881537 
L 296.079463 88.57755 
L 298.258353 88.036464 
L 300.437242 88.026508 
L 302.616132 86.767116 
L 304.795021 89.716065 
L 306.973911 87.720267 
L 309.1528 89.360476 
L 311.33169 87.992785 
L 313.51058 90.891341 
L 315.689469 87.94322 
L 317.868359 88.706305 
L 320.047248 90.188953 
L 322.226138 101.631774 
L 324.405027 91.977837 
L 326.583917 87.979565 
L 328.762807 91.346635 
L 330.941696 88.860801 
L 333.120586 88.572125 
L 335.299475 89.242089 
L 337.478365 88.186367 
L 339.657254 89.213301 
L 341.836144 91.755846 
L 344.015034 88.34171 
L 346.193923 87.365365 
L 348.372813 88.4129 
L 350.551702 86.972145 
L 352.730592 89.00933 
L 354.909481 89.414227 
L 357.088371 87.828475 
L 359.267261 87.239527 
L 361.44615 87.957088 
L 363.62504 89.876841 
L 365.803929 89.346154 
L 367.982819 89.523804 
L 370.161708 88.666764 
L 372.340598 89.406616 
L 374.519487 87.733956 
L 376.698377 91.763808 
L 378.877267 87.588505 
L 381.056156 87.398595 
L 383.235046 88.158394 
L 385.413935 88.180939 
L 387.592825 89.278339 
L 389.771714 87.794706 
L 391.950604 88.331062 
L 394.129494 89.077385 
L 396.308383 90.384744 
L 398.487273 87.701165 
L 398.487273 87.701165 
" clip-path="url(#p92265660c7)" style="fill: none; stroke: #1f77b4; stroke-linecap: square"/>
   </g>
   <g id="line2d_16">
    <path d="M 73.832727 190.063508 
L 76.011617 186.102912 
L 78.190506 190.063508 
L 89.084954 190.063508 
L 91.263844 150.748267 
L 93.442733 183.038043 
L 95.621623 175.239998 
L 97.800513 124.483533 
L 99.979402 125.193686 
L 102.158292 184.707903 
L 104.337181 107.098311 
L 106.516071 107.756065 
L 108.69496 109.149962 
L 110.87385 103.290368 
L 113.052739 105.463957 
L 115.231629 113.189035 
L 117.410519 106.347767 
L 119.589408 108.878663 
L 121.768298 125.290544 
L 123.947187 118.154988 
L 126.126077 121.731479 
L 128.304966 122.389032 
L 130.483856 112.467828 
L 132.662746 120.362015 
L 134.841635 107.115569 
L 137.020525 119.330762 
L 139.199414 117.009651 
L 141.378304 136.646426 
L 143.557193 128.480625 
L 145.736083 107.370796 
L 147.914973 141.78486 
L 150.093862 114.256615 
L 152.272752 111.774441 
L 154.451641 104.26795 
L 156.630531 124.949535 
L 158.80942 103.796396 
L 160.98831 118.096464 
L 163.1672 102.953399 
L 165.346089 120.007594 
L 167.524979 115.503038 
L 169.703868 116.383648 
L 171.882758 107.254515 
L 174.061647 102.69922 
L 176.240537 106.452014 
L 178.419426 103.176674 
L 180.598316 102.996294 
L 182.777206 107.490523 
L 184.956095 119.842873 
L 187.134985 122.993798 
L 189.313874 107.907354 
L 191.492764 105.192492 
L 193.671653 107.685945 
L 195.850543 102.505077 
L 198.029433 107.747478 
L 200.208322 103.115149 
L 202.387212 110.301306 
L 204.566101 108.868491 
L 206.744991 110.72957 
L 208.92388 105.442833 
L 211.10277 120.150666 
L 213.28166 103.026558 
L 215.460549 112.123014 
L 217.639439 106.326222 
L 219.818328 107.194675 
L 221.997218 112.784736 
L 224.176107 109.111673 
L 226.354997 130.328235 
L 228.533887 104.632229 
L 230.712776 99.884816 
L 232.891666 107.773321 
L 235.070555 107.885482 
L 237.249445 113.515311 
L 241.607224 111.225408 
L 243.786113 107.520831 
L 245.965003 111.291327 
L 248.143893 116.532701 
L 250.322782 109.050872 
L 252.501672 109.89734 
L 254.680561 104.218023 
L 256.859451 106.836113 
L 259.03834 104.431748 
L 261.21723 137.151228 
L 263.39612 104.485627 
L 265.575009 102.703687 
L 267.753899 104.506944 
L 269.932788 115.73314 
L 272.111678 115.378431 
L 274.290567 112.738733 
L 276.469457 111.088028 
L 278.648347 114.443998 
L 280.827236 119.335946 
L 283.006126 107.542491 
L 285.185015 112.917373 
L 287.363905 119.748554 
L 289.542794 110.158449 
L 291.721684 106.677664 
L 293.900574 103.514121 
L 298.258353 109.310454 
L 300.437242 105.795026 
L 302.616132 107.16959 
L 304.795021 106.843708 
L 306.973911 110.614991 
L 309.1528 104.243962 
L 311.33169 102.856315 
L 313.51058 102.771602 
L 315.689469 104.786485 
L 317.868359 116.505472 
L 320.047248 105.386099 
L 322.226138 111.154562 
L 324.405027 107.823302 
L 326.583917 103.125389 
L 328.762807 114.745908 
L 330.941696 102.271189 
L 333.120586 107.827331 
L 335.299475 115.217804 
L 337.478365 104.365712 
L 339.657254 103.387618 
L 341.836144 102.066945 
L 344.015034 108.907193 
L 346.193923 106.363298 
L 348.372813 112.477087 
L 350.551702 102.677725 
L 352.730592 106.423581 
L 354.909481 107.370593 
L 357.088371 102.087039 
L 359.267261 104.345303 
L 361.44615 104.566887 
L 363.62504 109.588788 
L 365.803929 109.14814 
L 367.982819 111.985636 
L 370.161708 105.099452 
L 372.340598 103.071348 
L 374.519487 100.73941 
L 376.698377 103.924655 
L 378.877267 104.273673 
L 381.056156 105.004256 
L 383.235046 105.948117 
L 385.413935 103.73095 
L 387.592825 104.694197 
L 389.771714 107.360328 
L 391.950604 104.112631 
L 394.129494 108.62902 
L 396.308383 103.80063 
L 398.487273 105.931541 
L 398.487273 105.931541 
" clip-path="url(#p92265660c7)" style="fill: none; stroke: #ff7f0e; stroke-linecap: square"/>
   </g>
   <g id="line2d_17">
    <path d="M 73.832727 190.063508 
L 76.011617 190.063508 
L 78.190506 188.366998 
L 80.369396 189.048046 
L 82.548286 126.374885 
L 84.727175 110.845684 
L 86.906065 124.542055 
L 89.084954 96.87658 
L 91.263844 93.571768 
L 93.442733 135.765684 
L 95.621623 91.217406 
L 97.800513 91.284706 
L 99.979402 110.99535 
L 102.158292 93.360858 
L 104.337181 96.672026 
L 106.516071 89.582936 
L 108.69496 91.323107 
L 110.87385 103.523663 
L 113.052739 92.333652 
L 115.231629 93.505598 
L 117.410519 89.400129 
L 119.589408 90.807707 
L 121.768298 90.560132 
L 126.126077 89.239463 
L 128.304966 93.776491 
L 130.483856 88.412394 
L 132.662746 89.479784 
L 134.841635 98.107177 
L 137.020525 89.32248 
L 139.199414 89.201245 
L 141.378304 90.398992 
L 145.736083 88.799788 
L 147.914973 111.286368 
L 150.093862 89.469865 
L 152.272752 90.468103 
L 154.451641 90.576725 
L 156.630531 90.559545 
L 158.80942 88.90439 
L 160.98831 87.61159 
L 163.1672 87.645743 
L 165.346089 91.085019 
L 167.524979 90.744648 
L 169.703868 89.384459 
L 171.882758 88.466201 
L 174.061647 89.457604 
L 176.240537 94.2629 
L 178.419426 88.725704 
L 180.598316 88.464631 
L 182.777206 89.661763 
L 184.956095 92.508918 
L 187.134985 90.870322 
L 189.313874 91.278345 
L 191.492764 89.41492 
L 193.671653 89.870198 
L 195.850543 90.682339 
L 198.029433 89.017315 
L 200.208322 90.847158 
L 202.387212 90.417941 
L 204.566101 89.835343 
L 206.744991 90.940873 
L 208.92388 89.458077 
L 211.10277 100.910296 
L 213.28166 89.705872 
L 215.460549 88.225978 
L 217.639439 88.304505 
L 219.818328 92.030117 
L 221.997218 91.953343 
L 224.176107 90.080432 
L 226.354997 89.09583 
L 228.533887 87.347727 
L 230.712776 88.794847 
L 232.891666 87.900545 
L 235.070555 88.777317 
L 237.249445 87.610207 
L 239.428334 90.061113 
L 241.607224 89.726405 
L 243.786113 90.858165 
L 245.965003 89.170609 
L 248.143893 88.779731 
L 250.322782 90.680485 
L 252.501672 88.941263 
L 254.680561 88.688059 
L 256.859451 93.898638 
L 259.03834 89.616336 
L 261.21723 86.967654 
L 263.39612 88.367361 
L 265.575009 87.67212 
L 267.753899 89.163827 
L 269.932788 90.106101 
L 272.111678 89.353486 
L 274.290567 92.734363 
L 276.469457 89.810506 
L 278.648347 94.833903 
L 280.827236 89.148683 
L 283.006126 88.326575 
L 285.185015 90.690208 
L 287.363905 89.014762 
L 289.542794 93.793007 
L 291.721684 90.113124 
L 293.900574 91.342875 
L 296.079463 89.140236 
L 298.258353 90.153119 
L 300.437242 88.053808 
L 302.616132 88.72759 
L 304.795021 90.495657 
L 306.973911 88.894006 
L 309.1528 88.507339 
L 311.33169 88.768079 
L 313.51058 89.753018 
L 315.689469 92.287186 
L 317.868359 88.252091 
L 320.047248 100.159864 
L 322.226138 89.602696 
L 324.405027 88.072113 
L 326.583917 88.859336 
L 328.762807 89.508983 
L 330.941696 89.3049 
L 333.120586 89.697767 
L 335.299475 88.301985 
L 337.478365 96.314715 
L 339.657254 91.18654 
L 344.015034 93.103254 
L 346.193923 88.959711 
L 348.372813 89.897602 
L 350.551702 89.496032 
L 352.730592 89.383733 
L 357.088371 91.329385 
L 359.267261 90.386005 
L 361.44615 90.439544 
L 365.803929 88.847309 
L 367.982819 88.962773 
L 370.161708 91.388688 
L 372.340598 89.961461 
L 374.519487 89.297366 
L 376.698377 88.162124 
L 378.877267 92.882656 
L 381.056156 96.979327 
L 383.235046 88.664797 
L 385.413935 87.843394 
L 387.592825 88.947911 
L 389.771714 88.285358 
L 391.950604 87.234909 
L 394.129494 88.591805 
L 396.308383 91.703764 
L 398.487273 90.169642 
L 398.487273 90.169642 
" clip-path="url(#p92265660c7)" style="fill: none; stroke: #2ca02c; stroke-linecap: square"/>
   </g>
   <g id="line2d_18">
    <path d="M 73.832727 187.514302 
L 76.011617 190.063508 
L 84.727175 190.063508 
L 86.906065 172.24384 
L 89.084954 108.364324 
L 91.263844 107.735393 
L 93.442733 94.115479 
L 95.621623 94.064843 
L 97.800513 96.076045 
L 99.979402 90.655438 
L 102.158292 111.74351 
L 104.337181 92.82719 
L 106.516071 90.680085 
L 108.69496 91.101427 
L 110.87385 93.868207 
L 113.052739 89.643949 
L 115.231629 93.77782 
L 119.589408 89.921856 
L 121.768298 103.774724 
L 123.947187 90.444385 
L 126.126077 90.846202 
L 128.304966 90.506664 
L 130.483856 91.696027 
L 132.662746 89.355074 
L 134.841635 91.858545 
L 137.020525 90.481772 
L 139.199414 90.328936 
L 141.378304 92.030996 
L 143.557193 88.751853 
L 145.736083 89.886124 
L 147.914973 89.584076 
L 150.093862 89.563863 
L 152.272752 89.810198 
L 154.451641 90.309529 
L 156.630531 89.382108 
L 158.80942 88.856109 
L 160.98831 90.285849 
L 163.1672 90.579243 
L 165.346089 89.389824 
L 167.524979 89.78542 
L 169.703868 90.673109 
L 171.882758 90.40833 
L 174.061647 90.722009 
L 176.240537 88.946904 
L 178.419426 89.823354 
L 180.598316 89.388302 
L 182.777206 89.146762 
L 184.956095 90.910221 
L 187.134985 90.527567 
L 189.313874 91.522703 
L 191.492764 88.330427 
L 193.671653 91.770271 
L 195.850543 90.602541 
L 198.029433 91.991577 
L 200.208322 91.198731 
L 202.387212 91.486753 
L 204.566101 89.755403 
L 206.744991 90.600888 
L 208.92388 90.880491 
L 211.10277 89.643395 
L 213.28166 89.634993 
L 215.460549 95.823735 
L 217.639439 89.94564 
L 219.818328 89.90905 
L 221.997218 90.124405 
L 224.176107 90.592343 
L 226.354997 89.264006 
L 228.533887 91.724744 
L 230.712776 90.518958 
L 232.891666 88.594433 
L 235.070555 90.042989 
L 237.249445 89.385996 
L 239.428334 89.277336 
L 241.607224 90.003964 
L 243.786113 88.968339 
L 245.965003 89.534629 
L 248.143893 88.767081 
L 250.322782 90.981833 
L 252.501672 91.164124 
L 254.680561 90.27445 
L 256.859451 89.118822 
L 259.03834 89.589897 
L 261.21723 91.113075 
L 263.39612 89.181584 
L 265.575009 90.697841 
L 267.753899 89.355472 
L 269.932788 89.887941 
L 272.111678 89.113282 
L 274.290567 89.803796 
L 276.469457 89.581816 
L 278.648347 88.841756 
L 280.827236 88.93942 
L 283.006126 89.165842 
L 285.185015 88.754505 
L 287.363905 88.569505 
L 289.542794 89.629765 
L 291.721684 88.567736 
L 293.900574 90.255751 
L 296.079463 88.779468 
L 298.258353 89.713885 
L 300.437242 89.592557 
L 302.616132 91.426491 
L 304.795021 90.109316 
L 306.973911 90.162921 
L 309.1528 91.088824 
L 311.33169 90.237519 
L 313.51058 92.195598 
L 315.689469 90.282992 
L 317.868359 89.259426 
L 320.047248 88.554206 
L 322.226138 90.04928 
L 324.405027 89.37011 
L 326.583917 91.57228 
L 328.762807 88.037979 
L 330.941696 88.635765 
L 333.120586 89.589405 
L 335.299475 88.511304 
L 337.478365 92.991427 
L 339.657254 90.403021 
L 341.836144 89.060029 
L 344.015034 90.143674 
L 346.193923 89.545643 
L 348.372813 89.745297 
L 350.551702 89.195231 
L 352.730592 90.464096 
L 354.909481 89.27022 
L 357.088371 90.253069 
L 359.267261 89.180076 
L 361.44615 89.865058 
L 363.62504 89.944327 
L 365.803929 91.090159 
L 367.982819 91.108694 
L 370.161708 89.31107 
L 372.340598 90.993221 
L 374.519487 89.182475 
L 376.698377 88.978499 
L 378.877267 92.221682 
L 381.056156 90.745673 
L 383.235046 89.745082 
L 385.413935 91.344759 
L 387.592825 89.357158 
L 389.771714 96.133788 
L 391.950604 88.982404 
L 394.129494 89.507465 
L 396.308383 91.966071 
L 398.487273 90.043948 
L 398.487273 90.043948 
" clip-path="url(#p92265660c7)" style="fill: none; stroke: #d62728; stroke-linecap: square"/>
   </g>
   <g id="patch_3">
    <path d="M 57.6 307.584 
L 57.6 41.472 
" style="fill: none; stroke: #000000; stroke-width: 0.8; stroke-linejoin: miter; stroke-linecap: square"/>
   </g>
   <g id="patch_4">
    <path d="M 414.72 307.584 
L 414.72 41.472 
" style="fill: none; stroke: #000000; stroke-width: 0.8; stroke-linejoin: miter; stroke-linecap: square"/>
   </g>
   <g id="patch_5">
    <path d="M 57.6 307.584 
L 414.72 307.584 
" style="fill: none; stroke: #000000; stroke-width: 0.8; stroke-linejoin: miter; stroke-linecap: square"/>
   </g>
   <g id="patch_6">
    <path d="M 57.6 41.472 
L 414.72 41.472 
" style="fill: none; stroke: #000000; stroke-width: 0.8; stroke-linejoin: miter; stroke-linecap: square"/>
   </g>
   <g id="text_16">
    <!-- Recall of FC -->
    <g transform="translate(201.021562 35.472) scale(0.12 -0.12)">
     <defs>
      <path id="DejaVuSans-52" d="M 2841 2188 
Q 3044 2119 3236 1894 
Q 3428 1669 3622 1275 
L 4263 0 
L 3584 0 
L 2988 1197 
Q 2756 1666 2539 1819 
Q 2322 1972 1947 1972 
L 1259 1972 
L 1259 0 
L 628 0 
L 628 4666 
L 2053 4666 
Q 2853 4666 3247 4331 
Q 3641 3997 3641 3322 
Q 3641 2881 3436 2590 
Q 3231 2300 2841 2188 
z
M 1259 4147 
L 1259 2491 
L 2053 2491 
Q 2509 2491 2742 2702 
Q 2975 2913 2975 3322 
Q 2975 3731 2742 3939 
Q 2509 4147 2053 4147 
L 1259 4147 
z
" transform="scale(0.015625)"/>
      <path id="DejaVuSans-61" d="M 2194 1759 
Q 1497 1759 1228 1600 
Q 959 1441 959 1056 
Q 959 750 1161 570 
Q 1363 391 1709 391 
Q 2188 391 2477 730 
Q 2766 1069 2766 1631 
L 2766 1759 
L 2194 1759 
z
M 3341 1997 
L 3341 0 
L 2766 0 
L 2766 531 
Q 2569 213 2275 61 
Q 1981 -91 1556 -91 
Q 1019 -91 701 211 
Q 384 513 384 1019 
Q 384 1609 779 1909 
Q 1175 2209 1959 2209 
L 2766 2209 
L 2766 2266 
Q 2766 2663 2505 2880 
Q 2244 3097 1772 3097 
Q 1472 3097 1187 3025 
Q 903 2953 641 2809 
L 641 3341 
Q 956 3463 1253 3523 
Q 1550 3584 1831 3584 
Q 2591 3584 2966 3190 
Q 3341 2797 3341 1997 
z
" transform="scale(0.015625)"/>
      <path id="DejaVuSans-6c" d="M 603 4863 
L 1178 4863 
L 1178 0 
L 603 0 
L 603 4863 
z
" transform="scale(0.015625)"/>
      <path id="DejaVuSans-20" transform="scale(0.015625)"/>
      <path id="DejaVuSans-66" d="M 2375 4863 
L 2375 4384 
L 1825 4384 
Q 1516 4384 1395 4259 
Q 1275 4134 1275 3809 
L 1275 3500 
L 2222 3500 
L 2222 3053 
L 1275 3053 
L 1275 0 
L 697 0 
L 697 3053 
L 147 3053 
L 147 3500 
L 697 3500 
L 697 3744 
Q 697 4328 969 4595 
Q 1241 4863 1831 4863 
L 2375 4863 
z
" transform="scale(0.015625)"/>
      <path id="DejaVuSans-46" d="M 628 4666 
L 3309 4666 
L 3309 4134 
L 1259 4134 
L 1259 2759 
L 3109 2759 
L 3109 2228 
L 1259 2228 
L 1259 0 
L 628 0 
L 628 4666 
z
" transform="scale(0.015625)"/>
      <path id="DejaVuSans-43" d="M 4122 4306 
L 4122 3641 
Q 3803 3938 3442 4084 
Q 3081 4231 2675 4231 
Q 1875 4231 1450 3742 
Q 1025 3253 1025 2328 
Q 1025 1406 1450 917 
Q 1875 428 2675 428 
Q 3081 428 3442 575 
Q 3803 722 4122 1019 
L 4122 359 
Q 3791 134 3420 21 
Q 3050 -91 2638 -91 
Q 1578 -91 968 557 
Q 359 1206 359 2328 
Q 359 3453 968 4101 
Q 1578 4750 2638 4750 
Q 3056 4750 3426 4639 
Q 3797 4528 4122 4306 
z
" transform="scale(0.015625)"/>
     </defs>
     <use xlink:href="#DejaVuSans-52"/>
     <use xlink:href="#DejaVuSans-65" x="64.982422"/>
     <use xlink:href="#DejaVuSans-63" x="126.505859"/>
     <use xlink:href="#DejaVuSans-61" x="181.486328"/>
     <use xlink:href="#DejaVuSans-6c" x="242.765625"/>
     <use xlink:href="#DejaVuSans-6c" x="270.548828"/>
     <use xlink:href="#DejaVuSans-20" x="298.332031"/>
     <use xlink:href="#DejaVuSans-6f" x="330.119141"/>
     <use xlink:href="#DejaVuSans-66" x="391.300781"/>
     <use xlink:href="#DejaVuSans-20" x="426.505859"/>
     <use xlink:href="#DejaVuSans-46" x="458.292969"/>
     <use xlink:href="#DejaVuSans-43" x="515.8125"/>
    </g>
   </g>
   <g id="legend_1">
    <g id="patch_7">
     <path d="M 64.6 302.584 
L 173.157812 302.584 
Q 175.157812 302.584 175.157812 300.584 
L 175.157812 242.8715 
Q 175.157812 240.8715 173.157812 240.8715 
L 64.6 240.8715 
Q 62.6 240.8715 62.6 242.8715 
L 62.6 300.584 
Q 62.6 302.584 64.6 302.584 
z
" style="fill: #ffffff; opacity: 0.8; stroke: #cccccc; stroke-linejoin: miter"/>
    </g>
    <g id="line2d_19">
     <path d="M 66.6 248.969937 
L 76.6 248.969937 
L 86.6 248.969937 
" style="fill: none; stroke: #1f77b4; stroke-linecap: square"/>
    </g>
    <g id="text_17">
     <!-- 2000 samples -->
     <g transform="translate(94.6 252.469937) scale(0.1 -0.1)">
      <defs>
       <path id="DejaVuSans-73" d="M 2834 3397 
L 2834 2853 
Q 2591 2978 2328 3040 
Q 2066 3103 1784 3103 
Q 1356 3103 1142 2972 
Q 928 2841 928 2578 
Q 928 2378 1081 2264 
Q 1234 2150 1697 2047 
L 1894 2003 
Q 2506 1872 2764 1633 
Q 3022 1394 3022 966 
Q 3022 478 2636 193 
Q 2250 -91 1575 -91 
Q 1294 -91 989 -36 
Q 684 19 347 128 
L 347 722 
Q 666 556 975 473 
Q 1284 391 1588 391 
Q 1994 391 2212 530 
Q 2431 669 2431 922 
Q 2431 1156 2273 1281 
Q 2116 1406 1581 1522 
L 1381 1569 
Q 847 1681 609 1914 
Q 372 2147 372 2553 
Q 372 3047 722 3315 
Q 1072 3584 1716 3584 
Q 2034 3584 2315 3537 
Q 2597 3491 2834 3397 
z
" transform="scale(0.015625)"/>
       <path id="DejaVuSans-6d" d="M 3328 2828 
Q 3544 3216 3844 3400 
Q 4144 3584 4550 3584 
Q 5097 3584 5394 3201 
Q 5691 2819 5691 2113 
L 5691 0 
L 5113 0 
L 5113 2094 
Q 5113 2597 4934 2840 
Q 4756 3084 4391 3084 
Q 3944 3084 3684 2787 
Q 3425 2491 3425 1978 
L 3425 0 
L 2847 0 
L 2847 2094 
Q 2847 2600 2669 2842 
Q 2491 3084 2119 3084 
Q 1678 3084 1418 2786 
Q 1159 2488 1159 1978 
L 1159 0 
L 581 0 
L 581 3500 
L 1159 3500 
L 1159 2956 
Q 1356 3278 1631 3431 
Q 1906 3584 2284 3584 
Q 2666 3584 2933 3390 
Q 3200 3197 3328 2828 
z
" transform="scale(0.015625)"/>
      </defs>
      <use xlink:href="#DejaVuSans-32"/>
      <use xlink:href="#DejaVuSans-30" x="63.623047"/>
      <use xlink:href="#DejaVuSans-30" x="127.246094"/>
      <use xlink:href="#DejaVuSans-30" x="190.869141"/>
      <use xlink:href="#DejaVuSans-20" x="254.492188"/>
      <use xlink:href="#DejaVuSans-73" x="286.279297"/>
      <use xlink:href="#DejaVuSans-61" x="338.378906"/>
      <use xlink:href="#DejaVuSans-6d" x="399.658203"/>
      <use xlink:href="#DejaVuSans-70" x="497.070312"/>
      <use xlink:href="#DejaVuSans-6c" x="560.546875"/>
      <use xlink:href="#DejaVuSans-65" x="588.330078"/>
      <use xlink:href="#DejaVuSans-73" x="649.853516"/>
     </g>
    </g>
    <g id="line2d_20">
     <path d="M 66.6 263.648062 
L 76.6 263.648062 
L 86.6 263.648062 
" style="fill: none; stroke: #ff7f0e; stroke-linecap: square"/>
    </g>
    <g id="text_18">
     <!-- 5000 samples -->
     <g transform="translate(94.6 267.148062) scale(0.1 -0.1)">
      <defs>
       <path id="DejaVuSans-35" d="M 691 4666 
L 3169 4666 
L 3169 4134 
L 1269 4134 
L 1269 2991 
Q 1406 3038 1543 3061 
Q 1681 3084 1819 3084 
Q 2600 3084 3056 2656 
Q 3513 2228 3513 1497 
Q 3513 744 3044 326 
Q 2575 -91 1722 -91 
Q 1428 -91 1123 -41 
Q 819 9 494 109 
L 494 744 
Q 775 591 1075 516 
Q 1375 441 1709 441 
Q 2250 441 2565 725 
Q 2881 1009 2881 1497 
Q 2881 1984 2565 2268 
Q 2250 2553 1709 2553 
Q 1456 2553 1204 2497 
Q 953 2441 691 2322 
L 691 4666 
z
" transform="scale(0.015625)"/>
      </defs>
      <use xlink:href="#DejaVuSans-35"/>
      <use xlink:href="#DejaVuSans-30" x="63.623047"/>
      <use xlink:href="#DejaVuSans-30" x="127.246094"/>
      <use xlink:href="#DejaVuSans-30" x="190.869141"/>
      <use xlink:href="#DejaVuSans-20" x="254.492188"/>
      <use xlink:href="#DejaVuSans-73" x="286.279297"/>
      <use xlink:href="#DejaVuSans-61" x="338.378906"/>
      <use xlink:href="#DejaVuSans-6d" x="399.658203"/>
      <use xlink:href="#DejaVuSans-70" x="497.070312"/>
      <use xlink:href="#DejaVuSans-6c" x="560.546875"/>
      <use xlink:href="#DejaVuSans-65" x="588.330078"/>
      <use xlink:href="#DejaVuSans-73" x="649.853516"/>
     </g>
    </g>
    <g id="line2d_21">
     <path d="M 66.6 278.326187 
L 76.6 278.326187 
L 86.6 278.326187 
" style="fill: none; stroke: #2ca02c; stroke-linecap: square"/>
    </g>
    <g id="text_19">
     <!-- 8000 samples -->
     <g transform="translate(94.6 281.826187) scale(0.1 -0.1)">
      <use xlink:href="#DejaVuSans-38"/>
      <use xlink:href="#DejaVuSans-30" x="63.623047"/>
      <use xlink:href="#DejaVuSans-30" x="127.246094"/>
      <use xlink:href="#DejaVuSans-30" x="190.869141"/>
      <use xlink:href="#DejaVuSans-20" x="254.492188"/>
      <use xlink:href="#DejaVuSans-73" x="286.279297"/>
      <use xlink:href="#DejaVuSans-61" x="338.378906"/>
      <use xlink:href="#DejaVuSans-6d" x="399.658203"/>
      <use xlink:href="#DejaVuSans-70" x="497.070312"/>
      <use xlink:href="#DejaVuSans-6c" x="560.546875"/>
      <use xlink:href="#DejaVuSans-65" x="588.330078"/>
      <use xlink:href="#DejaVuSans-73" x="649.853516"/>
     </g>
    </g>
    <g id="line2d_22">
     <path d="M 66.6 293.004312 
L 76.6 293.004312 
L 86.6 293.004312 
" style="fill: none; stroke: #d62728; stroke-linecap: square"/>
    </g>
    <g id="text_20">
     <!-- 10000 samples -->
     <g transform="translate(94.6 296.504312) scale(0.1 -0.1)">
      <use xlink:href="#DejaVuSans-31"/>
      <use xlink:href="#DejaVuSans-30" x="63.623047"/>
      <use xlink:href="#DejaVuSans-30" x="127.246094"/>
      <use xlink:href="#DejaVuSans-30" x="190.869141"/>
      <use xlink:href="#DejaVuSans-30" x="254.492188"/>
      <use xlink:href="#DejaVuSans-20" x="318.115234"/>
      <use xlink:href="#DejaVuSans-73" x="349.902344"/>
      <use xlink:href="#DejaVuSans-61" x="402.001953"/>
      <use xlink:href="#DejaVuSans-6d" x="463.28125"/>
      <use xlink:href="#DejaVuSans-70" x="560.693359"/>
      <use xlink:href="#DejaVuSans-6c" x="624.169922"/>
      <use xlink:href="#DejaVuSans-65" x="651.953125"/>
      <use xlink:href="#DejaVuSans-73" x="713.476562"/>
     </g>
    </g>
   </g>
  </g>
 </g>
 <defs>
  <clipPath id="p92265660c7">
   <rect x="57.6" y="41.472" width="357.12" height="266.112"/>
  </clipPath>
 </defs>
</svg>
