<?xml version="1.0" encoding="utf-8" standalone="no"?>
<!DOCTYPE svg PUBLIC "-//W3C//DTD SVG 1.1//EN"
  "http://www.w3.org/Graphics/SVG/1.1/DTD/svg11.dtd">
<svg xmlns:xlink="http://www.w3.org/1999/xlink" width="460.8pt" height="345.6pt" viewBox="0 0 460.8 345.6" xmlns="http://www.w3.org/2000/svg" version="1.1">
 <metadata>
  <rdf:RDF xmlns:dc="http://purl.org/dc/elements/1.1/" xmlns:cc="http://creativecommons.org/ns#" xmlns:rdf="http://www.w3.org/1999/02/22-rdf-syntax-ns#">
   <cc:Work>
    <dc:type rdf:resource="http://purl.org/dc/dcmitype/StillImage"/>
    <dc:date>2023-09-13T16:28:37.340202</dc:date>
    <dc:format>image/svg+xml</dc:format>
    <dc:creator>
     <cc:Agent>
      <dc:title>Matplotlib v3.7.1, https://matplotlib.org/</dc:title>
     </cc:Agent>
    </dc:creator>
   </cc:Work>
  </rdf:RDF>
 </metadata>
 <defs>
  <style type="text/css">*{stroke-linejoin: round; stroke-linecap: butt}</style>
 </defs>
 <g id="figure_1">
  <g id="patch_1">
   <path d="M 0 345.6 
L 460.8 345.6 
L 460.8 0 
L 0 0 
z
" style="fill: #ffffff"/>
  </g>
  <g id="axes_1">
   <g id="patch_2">
    <path d="M 57.6 307.584 
L 414.72 307.584 
L 414.72 41.472 
L 57.6 41.472 
z
" style="fill: #ffffff"/>
   </g>
   <g id="matplotlib.axis_1">
    <g id="xtick_1">
     <g id="line2d_1">
      <defs>
       <path id="mbfd7e67111" d="M 0 0 
L 0 3.5 
" style="stroke: #000000; stroke-width: 0.8"/>
      </defs>
      <g>
       <use xlink:href="#mbfd7e67111" x="71.653838" y="307.584" style="stroke: #000000; stroke-width: 0.8"/>
      </g>
     </g>
     <g id="text_1">
      <!-- 0 -->
      <g transform="translate(68.472588 322.182437) scale(0.1 -0.1)">
       <defs>
        <path id="DejaVuSans-30" d="M 2034 4250 
Q 1547 4250 1301 3770 
Q 1056 3291 1056 2328 
Q 1056 1369 1301 889 
Q 1547 409 2034 409 
Q 2525 409 2770 889 
Q 3016 1369 3016 2328 
Q 3016 3291 2770 3770 
Q 2525 4250 2034 4250 
z
M 2034 4750 
Q 2819 4750 3233 4129 
Q 3647 3509 3647 2328 
Q 3647 1150 3233 529 
Q 2819 -91 2034 -91 
Q 1250 -91 836 529 
Q 422 1150 422 2328 
Q 422 3509 836 4129 
Q 1250 4750 2034 4750 
z
" transform="scale(0.015625)"/>
       </defs>
       <use xlink:href="#DejaVuSans-30"/>
      </g>
     </g>
    </g>
    <g id="xtick_2">
     <g id="line2d_2">
      <g>
       <use xlink:href="#mbfd7e67111" x="115.231629" y="307.584" style="stroke: #000000; stroke-width: 0.8"/>
      </g>
     </g>
     <g id="text_2">
      <!-- 20 -->
      <g transform="translate(108.869129 322.182437) scale(0.1 -0.1)">
       <defs>
        <path id="DejaVuSans-32" d="M 1228 531 
L 3431 531 
L 3431 0 
L 469 0 
L 469 531 
Q 828 903 1448 1529 
Q 2069 2156 2228 2338 
Q 2531 2678 2651 2914 
Q 2772 3150 2772 3378 
Q 2772 3750 2511 3984 
Q 2250 4219 1831 4219 
Q 1534 4219 1204 4116 
Q 875 4013 500 3803 
L 500 4441 
Q 881 4594 1212 4672 
Q 1544 4750 1819 4750 
Q 2544 4750 2975 4387 
Q 3406 4025 3406 3419 
Q 3406 3131 3298 2873 
Q 3191 2616 2906 2266 
Q 2828 2175 2409 1742 
Q 1991 1309 1228 531 
z
" transform="scale(0.015625)"/>
       </defs>
       <use xlink:href="#DejaVuSans-32"/>
       <use xlink:href="#DejaVuSans-30" x="63.623047"/>
      </g>
     </g>
    </g>
    <g id="xtick_3">
     <g id="line2d_3">
      <g>
       <use xlink:href="#mbfd7e67111" x="158.80942" y="307.584" style="stroke: #000000; stroke-width: 0.8"/>
      </g>
     </g>
     <g id="text_3">
      <!-- 40 -->
      <g transform="translate(152.44692 322.182437) scale(0.1 -0.1)">
       <defs>
        <path id="DejaVuSans-34" d="M 2419 4116 
L 825 1625 
L 2419 1625 
L 2419 4116 
z
M 2253 4666 
L 3047 4666 
L 3047 1625 
L 3713 1625 
L 3713 1100 
L 3047 1100 
L 3047 0 
L 2419 0 
L 2419 1100 
L 313 1100 
L 313 1709 
L 2253 4666 
z
" transform="scale(0.015625)"/>
       </defs>
       <use xlink:href="#DejaVuSans-34"/>
       <use xlink:href="#DejaVuSans-30" x="63.623047"/>
      </g>
     </g>
    </g>
    <g id="xtick_4">
     <g id="line2d_4">
      <g>
       <use xlink:href="#mbfd7e67111" x="202.387212" y="307.584" style="stroke: #000000; stroke-width: 0.8"/>
      </g>
     </g>
     <g id="text_4">
      <!-- 60 -->
      <g transform="translate(196.024712 322.182437) scale(0.1 -0.1)">
       <defs>
        <path id="DejaVuSans-36" d="M 2113 2584 
Q 1688 2584 1439 2293 
Q 1191 2003 1191 1497 
Q 1191 994 1439 701 
Q 1688 409 2113 409 
Q 2538 409 2786 701 
Q 3034 994 3034 1497 
Q 3034 2003 2786 2293 
Q 2538 2584 2113 2584 
z
M 3366 4563 
L 3366 3988 
Q 3128 4100 2886 4159 
Q 2644 4219 2406 4219 
Q 1781 4219 1451 3797 
Q 1122 3375 1075 2522 
Q 1259 2794 1537 2939 
Q 1816 3084 2150 3084 
Q 2853 3084 3261 2657 
Q 3669 2231 3669 1497 
Q 3669 778 3244 343 
Q 2819 -91 2113 -91 
Q 1303 -91 875 529 
Q 447 1150 447 2328 
Q 447 3434 972 4092 
Q 1497 4750 2381 4750 
Q 2619 4750 2861 4703 
Q 3103 4656 3366 4563 
z
" transform="scale(0.015625)"/>
       </defs>
       <use xlink:href="#DejaVuSans-36"/>
       <use xlink:href="#DejaVuSans-30" x="63.623047"/>
      </g>
     </g>
    </g>
    <g id="xtick_5">
     <g id="line2d_5">
      <g>
       <use xlink:href="#mbfd7e67111" x="245.965003" y="307.584" style="stroke: #000000; stroke-width: 0.8"/>
      </g>
     </g>
     <g id="text_5">
      <!-- 80 -->
      <g transform="translate(239.602503 322.182437) scale(0.1 -0.1)">
       <defs>
        <path id="DejaVuSans-38" d="M 2034 2216 
Q 1584 2216 1326 1975 
Q 1069 1734 1069 1313 
Q 1069 891 1326 650 
Q 1584 409 2034 409 
Q 2484 409 2743 651 
Q 3003 894 3003 1313 
Q 3003 1734 2745 1975 
Q 2488 2216 2034 2216 
z
M 1403 2484 
Q 997 2584 770 2862 
Q 544 3141 544 3541 
Q 544 4100 942 4425 
Q 1341 4750 2034 4750 
Q 2731 4750 3128 4425 
Q 3525 4100 3525 3541 
Q 3525 3141 3298 2862 
Q 3072 2584 2669 2484 
Q 3125 2378 3379 2068 
Q 3634 1759 3634 1313 
Q 3634 634 3220 271 
Q 2806 -91 2034 -91 
Q 1263 -91 848 271 
Q 434 634 434 1313 
Q 434 1759 690 2068 
Q 947 2378 1403 2484 
z
M 1172 3481 
Q 1172 3119 1398 2916 
Q 1625 2713 2034 2713 
Q 2441 2713 2670 2916 
Q 2900 3119 2900 3481 
Q 2900 3844 2670 4047 
Q 2441 4250 2034 4250 
Q 1625 4250 1398 4047 
Q 1172 3844 1172 3481 
z
" transform="scale(0.015625)"/>
       </defs>
       <use xlink:href="#DejaVuSans-38"/>
       <use xlink:href="#DejaVuSans-30" x="63.623047"/>
      </g>
     </g>
    </g>
    <g id="xtick_6">
     <g id="line2d_6">
      <g>
       <use xlink:href="#mbfd7e67111" x="289.542794" y="307.584" style="stroke: #000000; stroke-width: 0.8"/>
      </g>
     </g>
     <g id="text_6">
      <!-- 100 -->
      <g transform="translate(279.999044 322.182437) scale(0.1 -0.1)">
       <defs>
        <path id="DejaVuSans-31" d="M 794 531 
L 1825 531 
L 1825 4091 
L 703 3866 
L 703 4441 
L 1819 4666 
L 2450 4666 
L 2450 531 
L 3481 531 
L 3481 0 
L 794 0 
L 794 531 
z
" transform="scale(0.015625)"/>
       </defs>
       <use xlink:href="#DejaVuSans-31"/>
       <use xlink:href="#DejaVuSans-30" x="63.623047"/>
       <use xlink:href="#DejaVuSans-30" x="127.246094"/>
      </g>
     </g>
    </g>
    <g id="xtick_7">
     <g id="line2d_7">
      <g>
       <use xlink:href="#mbfd7e67111" x="333.120586" y="307.584" style="stroke: #000000; stroke-width: 0.8"/>
      </g>
     </g>
     <g id="text_7">
      <!-- 120 -->
      <g transform="translate(323.576836 322.182437) scale(0.1 -0.1)">
       <use xlink:href="#DejaVuSans-31"/>
       <use xlink:href="#DejaVuSans-32" x="63.623047"/>
       <use xlink:href="#DejaVuSans-30" x="127.246094"/>
      </g>
     </g>
    </g>
    <g id="xtick_8">
     <g id="line2d_8">
      <g>
       <use xlink:href="#mbfd7e67111" x="376.698377" y="307.584" style="stroke: #000000; stroke-width: 0.8"/>
      </g>
     </g>
     <g id="text_8">
      <!-- 140 -->
      <g transform="translate(367.154627 322.182437) scale(0.1 -0.1)">
       <use xlink:href="#DejaVuSans-31"/>
       <use xlink:href="#DejaVuSans-34" x="63.623047"/>
       <use xlink:href="#DejaVuSans-30" x="127.246094"/>
      </g>
     </g>
    </g>
    <g id="text_9">
     <!-- epoch -->
     <g transform="translate(220.931875 335.860562) scale(0.1 -0.1)">
      <defs>
       <path id="DejaVuSans-65" d="M 3597 1894 
L 3597 1613 
L 953 1613 
Q 991 1019 1311 708 
Q 1631 397 2203 397 
Q 2534 397 2845 478 
Q 3156 559 3463 722 
L 3463 178 
Q 3153 47 2828 -22 
Q 2503 -91 2169 -91 
Q 1331 -91 842 396 
Q 353 884 353 1716 
Q 353 2575 817 3079 
Q 1281 3584 2069 3584 
Q 2775 3584 3186 3129 
Q 3597 2675 3597 1894 
z
M 3022 2063 
Q 3016 2534 2758 2815 
Q 2500 3097 2075 3097 
Q 1594 3097 1305 2825 
Q 1016 2553 972 2059 
L 3022 2063 
z
" transform="scale(0.015625)"/>
       <path id="DejaVuSans-70" d="M 1159 525 
L 1159 -1331 
L 581 -1331 
L 581 3500 
L 1159 3500 
L 1159 2969 
Q 1341 3281 1617 3432 
Q 1894 3584 2278 3584 
Q 2916 3584 3314 3078 
Q 3713 2572 3713 1747 
Q 3713 922 3314 415 
Q 2916 -91 2278 -91 
Q 1894 -91 1617 61 
Q 1341 213 1159 525 
z
M 3116 1747 
Q 3116 2381 2855 2742 
Q 2594 3103 2138 3103 
Q 1681 3103 1420 2742 
Q 1159 2381 1159 1747 
Q 1159 1113 1420 752 
Q 1681 391 2138 391 
Q 2594 391 2855 752 
Q 3116 1113 3116 1747 
z
" transform="scale(0.015625)"/>
       <path id="DejaVuSans-6f" d="M 1959 3097 
Q 1497 3097 1228 2736 
Q 959 2375 959 1747 
Q 959 1119 1226 758 
Q 1494 397 1959 397 
Q 2419 397 2687 759 
Q 2956 1122 2956 1747 
Q 2956 2369 2687 2733 
Q 2419 3097 1959 3097 
z
M 1959 3584 
Q 2709 3584 3137 3096 
Q 3566 2609 3566 1747 
Q 3566 888 3137 398 
Q 2709 -91 1959 -91 
Q 1206 -91 779 398 
Q 353 888 353 1747 
Q 353 2609 779 3096 
Q 1206 3584 1959 3584 
z
" transform="scale(0.015625)"/>
       <path id="DejaVuSans-63" d="M 3122 3366 
L 3122 2828 
Q 2878 2963 2633 3030 
Q 2388 3097 2138 3097 
Q 1578 3097 1268 2742 
Q 959 2388 959 1747 
Q 959 1106 1268 751 
Q 1578 397 2138 397 
Q 2388 397 2633 464 
Q 2878 531 3122 666 
L 3122 134 
Q 2881 22 2623 -34 
Q 2366 -91 2075 -91 
Q 1284 -91 818 406 
Q 353 903 353 1747 
Q 353 2603 823 3093 
Q 1294 3584 2113 3584 
Q 2378 3584 2631 3529 
Q 2884 3475 3122 3366 
z
" transform="scale(0.015625)"/>
       <path id="DejaVuSans-68" d="M 3513 2113 
L 3513 0 
L 2938 0 
L 2938 2094 
Q 2938 2591 2744 2837 
Q 2550 3084 2163 3084 
Q 1697 3084 1428 2787 
Q 1159 2491 1159 1978 
L 1159 0 
L 581 0 
L 581 4863 
L 1159 4863 
L 1159 2956 
Q 1366 3272 1645 3428 
Q 1925 3584 2291 3584 
Q 2894 3584 3203 3211 
Q 3513 2838 3513 2113 
z
" transform="scale(0.015625)"/>
      </defs>
      <use xlink:href="#DejaVuSans-65"/>
      <use xlink:href="#DejaVuSans-70" x="61.523438"/>
      <use xlink:href="#DejaVuSans-6f" x="125"/>
      <use xlink:href="#DejaVuSans-63" x="186.181641"/>
      <use xlink:href="#DejaVuSans-68" x="241.162109"/>
     </g>
    </g>
   </g>
   <g id="matplotlib.axis_2">
    <g id="ytick_1">
     <g id="line2d_9">
      <defs>
       <path id="mf4410843c6" d="M 0 0 
L -3.5 0 
" style="stroke: #000000; stroke-width: 0.8"/>
      </defs>
      <g>
       <use xlink:href="#mf4410843c6" x="57.6" y="307.584" style="stroke: #000000; stroke-width: 0.8"/>
      </g>
     </g>
     <g id="text_10">
      <!-- 0.0 -->
      <g transform="translate(34.696875 311.383219) scale(0.1 -0.1)">
       <defs>
        <path id="DejaVuSans-2e" d="M 684 794 
L 1344 794 
L 1344 0 
L 684 0 
L 684 794 
z
" transform="scale(0.015625)"/>
       </defs>
       <use xlink:href="#DejaVuSans-30"/>
       <use xlink:href="#DejaVuSans-2e" x="63.623047"/>
       <use xlink:href="#DejaVuSans-30" x="95.410156"/>
      </g>
     </g>
    </g>
    <g id="ytick_2">
     <g id="line2d_10">
      <g>
       <use xlink:href="#mf4410843c6" x="57.6" y="248.904333" style="stroke: #000000; stroke-width: 0.8"/>
      </g>
     </g>
     <g id="text_11">
      <!-- 0.2 -->
      <g transform="translate(34.696875 252.703551) scale(0.1 -0.1)">
       <use xlink:href="#DejaVuSans-30"/>
       <use xlink:href="#DejaVuSans-2e" x="63.623047"/>
       <use xlink:href="#DejaVuSans-32" x="95.410156"/>
      </g>
     </g>
    </g>
    <g id="ytick_3">
     <g id="line2d_11">
      <g>
       <use xlink:href="#mf4410843c6" x="57.6" y="190.224665" style="stroke: #000000; stroke-width: 0.8"/>
      </g>
     </g>
     <g id="text_12">
      <!-- 0.4 -->
      <g transform="translate(34.696875 194.023884) scale(0.1 -0.1)">
       <use xlink:href="#DejaVuSans-30"/>
       <use xlink:href="#DejaVuSans-2e" x="63.623047"/>
       <use xlink:href="#DejaVuSans-34" x="95.410156"/>
      </g>
     </g>
    </g>
    <g id="ytick_4">
     <g id="line2d_12">
      <g>
       <use xlink:href="#mf4410843c6" x="57.6" y="131.544998" style="stroke: #000000; stroke-width: 0.8"/>
      </g>
     </g>
     <g id="text_13">
      <!-- 0.6 -->
      <g transform="translate(34.696875 135.344217) scale(0.1 -0.1)">
       <use xlink:href="#DejaVuSans-30"/>
       <use xlink:href="#DejaVuSans-2e" x="63.623047"/>
       <use xlink:href="#DejaVuSans-36" x="95.410156"/>
      </g>
     </g>
    </g>
    <g id="ytick_5">
     <g id="line2d_13">
      <g>
       <use xlink:href="#mf4410843c6" x="57.6" y="72.865331" style="stroke: #000000; stroke-width: 0.8"/>
      </g>
     </g>
     <g id="text_14">
      <!-- 0.8 -->
      <g transform="translate(34.696875 76.66455) scale(0.1 -0.1)">
       <use xlink:href="#DejaVuSans-30"/>
       <use xlink:href="#DejaVuSans-2e" x="63.623047"/>
       <use xlink:href="#DejaVuSans-38" x="95.410156"/>
      </g>
     </g>
    </g>
   </g>
   <g id="line2d_14">
    <path d="M 73.832727 153.850212 
L 76.011617 161.678225 
L 78.190506 149.587479 
L 80.369396 248.207258 
L 82.548286 220.395172 
L 84.727175 144.919034 
L 86.906065 118.145462 
L 89.084954 110.061542 
L 91.263844 106.011041 
L 93.442733 101.21076 
L 95.621623 101.38083 
L 97.800513 98.172203 
L 99.979402 98.88492 
L 102.158292 99.980215 
L 104.337181 100.545272 
L 106.516071 101.426639 
L 108.69496 106.158357 
L 113.052739 101.949196 
L 115.231629 100.443446 
L 117.410519 105.43645 
L 119.589408 97.983048 
L 121.768298 97.981977 
L 123.947187 96.204644 
L 126.126077 97.375175 
L 128.304966 95.556818 
L 130.483856 97.230216 
L 132.662746 94.800146 
L 134.841635 94.622506 
L 137.020525 94.764469 
L 139.199414 95.981385 
L 141.378304 92.752544 
L 143.557193 92.180638 
L 145.736083 94.736344 
L 147.914973 93.227019 
L 150.093862 94.083081 
L 152.272752 92.020309 
L 154.451641 91.918901 
L 156.630531 90.106958 
L 158.80942 91.676052 
L 160.98831 90.661116 
L 163.1672 93.829047 
L 165.346089 93.20677 
L 167.524979 90.850974 
L 169.703868 92.167831 
L 171.882758 90.660257 
L 174.061647 90.001605 
L 176.240537 90.346785 
L 178.419426 88.770422 
L 180.598316 87.542652 
L 182.777206 89.5432 
L 184.956095 88.630633 
L 187.134985 89.476398 
L 189.313874 89.568401 
L 191.492764 91.005357 
L 193.671653 89.281984 
L 195.850543 88.589254 
L 198.029433 88.768 
L 200.208322 88.026843 
L 202.387212 89.667709 
L 204.566101 90.134559 
L 206.744991 87.978025 
L 208.92388 91.402403 
L 211.10277 89.202433 
L 213.28166 92.326185 
L 215.460549 89.168225 
L 217.639439 89.692418 
L 219.818328 87.066526 
L 221.997218 89.651986 
L 224.176107 88.885906 
L 226.354997 88.999972 
L 228.533887 90.79695 
L 230.712776 88.946025 
L 232.891666 90.058247 
L 235.070555 89.825688 
L 237.249445 87.508793 
L 239.428334 88.921776 
L 241.607224 89.295673 
L 243.786113 91.336061 
L 245.965003 86.477649 
L 248.143893 89.206663 
L 250.322782 89.230184 
L 252.501672 87.51969 
L 254.680561 86.529882 
L 256.859451 88.738636 
L 259.03834 87.003947 
L 261.21723 85.898444 
L 263.39612 88.385892 
L 265.575009 87.665274 
L 267.753899 89.638465 
L 269.932788 92.120246 
L 272.111678 87.432262 
L 274.290567 86.997797 
L 276.469457 86.966628 
L 278.648347 89.296577 
L 280.827236 87.973911 
L 283.006126 85.987172 
L 285.185015 88.013586 
L 287.363905 89.494727 
L 289.542794 87.187616 
L 291.721684 88.283919 
L 293.900574 88.103737 
L 296.079463 90.246723 
L 298.258353 85.824 
L 300.437242 89.403277 
L 302.616132 86.348706 
L 304.795021 89.011671 
L 306.973911 87.975762 
L 309.1528 89.76932 
L 311.33169 90.942984 
L 313.51058 87.619441 
L 315.689469 87.91747 
L 320.047248 86.54028 
L 322.226138 88.799912 
L 324.405027 89.449867 
L 326.583917 87.421611 
L 328.762807 88.018029 
L 330.941696 87.91799 
L 333.120586 91.629836 
L 335.299475 92.378901 
L 337.478365 90.809259 
L 339.657254 87.995745 
L 341.836144 87.391096 
L 344.015034 87.736185 
L 346.193923 87.960671 
L 348.372813 88.386942 
L 350.551702 90.028342 
L 352.730592 86.453695 
L 354.909481 89.582154 
L 357.088371 87.935196 
L 359.267261 86.719399 
L 361.44615 86.641041 
L 363.62504 89.767407 
L 365.803929 88.219211 
L 367.982819 89.011316 
L 370.161708 86.635535 
L 372.340598 88.127356 
L 374.519487 87.001651 
L 376.698377 87.593348 
L 378.877267 88.524365 
L 381.056156 89.228754 
L 383.235046 87.462169 
L 385.413935 89.264978 
L 387.592825 87.680022 
L 389.771714 88.036085 
L 391.950604 87.544481 
L 394.129494 89.407318 
L 396.308383 88.169045 
L 398.487273 89.475742 
L 398.487273 89.475742 
" clip-path="url(#p0e1100be02)" style="fill: none; stroke: #1f77b4; stroke-linecap: square"/>
   </g>
   <g id="line2d_15">
    <path d="M 73.832727 243.583586 
L 76.011617 211.046126 
L 78.190506 188.514449 
L 80.369396 174.533114 
L 82.548286 165.744451 
L 84.727175 153.570289 
L 86.906065 147.897664 
L 91.263844 140.442458 
L 93.442733 138.358736 
L 95.621623 138.114564 
L 97.800513 137.62152 
L 99.979402 136.452511 
L 102.158292 134.165649 
L 104.337181 134.510651 
L 106.516071 134.458702 
L 108.69496 133.391877 
L 110.87385 133.260357 
L 113.052739 132.808797 
L 115.231629 131.54363 
L 117.410519 131.125119 
L 119.589408 131.603631 
L 121.768298 132.635297 
L 123.947187 130.170757 
L 126.126077 129.179373 
L 128.304966 130.005528 
L 130.483856 127.360371 
L 132.662746 133.847509 
L 134.841635 128.755316 
L 137.020525 125.965733 
L 139.199414 140.225367 
L 141.378304 131.590969 
L 143.557193 148.334497 
L 145.736083 121.909828 
L 147.914973 117.888529 
L 150.093862 119.642185 
L 152.272752 118.467578 
L 154.451641 120.073648 
L 156.630531 117.975157 
L 158.80942 122.081448 
L 160.98831 123.822134 
L 163.1672 118.867483 
L 165.346089 127.956597 
L 167.524979 118.939802 
L 169.703868 118.547175 
L 171.882758 117.49605 
L 174.061647 117.043615 
L 176.240537 136.679192 
L 178.419426 118.874941 
L 180.598316 119.95099 
L 182.777206 116.560032 
L 184.956095 122.994318 
L 187.134985 116.395994 
L 189.313874 121.622809 
L 191.492764 136.505704 
L 193.671653 119.646583 
L 195.850543 114.798133 
L 198.029433 123.609116 
L 200.208322 122.150868 
L 202.387212 116.786198 
L 204.566101 119.341853 
L 206.744991 117.841858 
L 208.92388 116.671053 
L 211.10277 124.02528 
L 213.28166 120.451694 
L 215.460549 119.530637 
L 217.639439 126.047544 
L 219.818328 117.111303 
L 221.997218 118.005127 
L 224.176107 120.225994 
L 226.354997 124.207785 
L 228.533887 116.996778 
L 230.712776 119.007026 
L 232.891666 123.002676 
L 235.070555 115.734345 
L 237.249445 138.532309 
L 239.428334 119.75395 
L 241.607224 118.735868 
L 243.786113 119.73314 
L 245.965003 119.692879 
L 248.143893 130.091574 
L 250.322782 117.82218 
L 252.501672 122.294558 
L 254.680561 128.966171 
L 256.859451 112.894596 
L 259.03834 121.97854 
L 261.21723 123.491685 
L 263.39612 121.177524 
L 265.575009 121.838233 
L 267.753899 114.644287 
L 272.111678 134.12531 
L 274.290567 111.699923 
L 276.469457 123.431214 
L 278.648347 117.300425 
L 280.827236 114.623659 
L 283.006126 121.815228 
L 285.185015 122.307191 
L 289.542794 113.519755 
L 291.721684 120.425361 
L 293.900574 110.573284 
L 296.079463 116.834568 
L 298.258353 111.491058 
L 300.437242 117.529528 
L 302.616132 116.728207 
L 304.795021 117.65646 
L 306.973911 109.518721 
L 309.1528 116.57866 
L 311.33169 115.916125 
L 313.51058 112.116355 
L 315.689469 112.195504 
L 317.868359 110.244396 
L 320.047248 113.37072 
L 322.226138 110.880141 
L 324.405027 111.181132 
L 326.583917 116.28284 
L 328.762807 109.938403 
L 330.941696 111.310731 
L 333.120586 112.455851 
L 335.299475 107.681792 
L 337.478365 119.020109 
L 339.657254 109.929631 
L 341.836144 110.600793 
L 344.015034 115.590091 
L 346.193923 112.273812 
L 348.372813 113.668607 
L 350.551702 111.221029 
L 352.730592 112.923089 
L 354.909481 113.973339 
L 357.088371 117.226205 
L 359.267261 114.687756 
L 361.44615 110.298532 
L 363.62504 117.265064 
L 365.803929 110.015249 
L 367.982819 116.865468 
L 370.161708 117.928221 
L 372.340598 112.702877 
L 374.519487 117.361167 
L 376.698377 110.48351 
L 378.877267 109.192257 
L 381.056156 110.360345 
L 383.235046 108.114388 
L 385.413935 110.564213 
L 387.592825 113.681457 
L 389.771714 112.301699 
L 391.950604 111.699418 
L 394.129494 110.604656 
L 396.308383 107.841177 
L 398.487273 115.004007 
L 398.487273 115.004007 
" clip-path="url(#p0e1100be02)" style="fill: none; stroke: #ff7f0e; stroke-linecap: square"/>
   </g>
   <g id="line2d_16">
    <path d="M 73.832727 223.59711 
L 76.011617 169.686288 
L 78.190506 163.928443 
L 80.369396 151.939006 
L 82.548286 146.853369 
L 84.727175 140.514845 
L 86.906065 135.896296 
L 89.084954 133.462576 
L 91.263844 134.55213 
L 93.442733 131.860189 
L 95.621623 140.994017 
L 97.800513 141.094953 
L 99.979402 137.448091 
L 102.158292 138.022988 
L 104.337181 135.085527 
L 106.516071 126.899894 
L 108.69496 126.959364 
L 110.87385 123.001446 
L 113.052739 127.482251 
L 115.231629 120.782978 
L 117.410519 113.208183 
L 119.589408 109.384737 
L 121.768298 107.460292 
L 123.947187 114.674675 
L 126.126077 107.976712 
L 128.304966 112.655689 
L 130.483856 104.08708 
L 132.662746 109.83956 
L 134.841635 110.700184 
L 137.020525 104.770854 
L 139.199414 108.626199 
L 141.378304 108.853196 
L 143.557193 102.396122 
L 145.736083 101.507608 
L 147.914973 102.06953 
L 150.093862 102.165096 
L 152.272752 105.479455 
L 154.451641 103.808837 
L 156.630531 99.220205 
L 158.80942 105.237984 
L 160.98831 100.138872 
L 163.1672 98.919608 
L 165.346089 99.275472 
L 167.524979 103.11528 
L 169.703868 98.010994 
L 174.061647 96.917683 
L 176.240537 96.719718 
L 178.419426 94.273512 
L 180.598316 94.832209 
L 182.777206 97.070368 
L 184.956095 97.895959 
L 187.134985 95.438137 
L 189.313874 95.116199 
L 191.492764 92.573415 
L 193.671653 97.537051 
L 195.850543 96.560858 
L 198.029433 93.118591 
L 200.208322 93.894205 
L 202.387212 91.699432 
L 204.566101 94.963956 
L 206.744991 94.449847 
L 208.92388 96.274092 
L 211.10277 94.476052 
L 213.28166 93.984595 
L 215.460549 94.716954 
L 217.639439 91.660662 
L 219.818328 92.569699 
L 221.997218 90.325786 
L 224.176107 93.337242 
L 226.354997 95.723869 
L 228.533887 93.190471 
L 230.712776 92.715177 
L 232.891666 93.269947 
L 235.070555 93.037866 
L 237.249445 94.036383 
L 239.428334 91.721392 
L 241.607224 92.086315 
L 243.786113 93.400637 
L 245.965003 92.529511 
L 248.143893 92.493217 
L 250.322782 90.492955 
L 252.501672 91.750617 
L 254.680561 93.455215 
L 256.859451 92.789504 
L 259.03834 91.247105 
L 261.21723 93.035746 
L 263.39612 90.204292 
L 265.575009 92.300877 
L 267.753899 93.708267 
L 269.932788 91.516275 
L 272.111678 91.106343 
L 274.290567 92.124442 
L 276.469457 93.652455 
L 278.648347 92.738729 
L 280.827236 93.510162 
L 283.006126 91.824769 
L 285.185015 90.828078 
L 287.363905 93.221265 
L 289.542794 91.556152 
L 291.721684 91.483247 
L 293.900574 92.449263 
L 296.079463 97.457696 
L 298.258353 91.887319 
L 300.437242 93.616089 
L 302.616132 92.37897 
L 304.795021 93.057074 
L 309.1528 90.753251 
L 311.33169 95.271359 
L 313.51058 92.136758 
L 317.868359 92.438637 
L 320.047248 94.672609 
L 322.226138 90.715917 
L 324.405027 90.285909 
L 326.583917 90.515842 
L 328.762807 91.720598 
L 330.941696 90.810861 
L 333.120586 90.323256 
L 335.299475 92.517063 
L 337.478365 92.315386 
L 339.657254 93.138952 
L 341.836144 91.203599 
L 344.015034 93.864664 
L 346.193923 92.00322 
L 348.372813 92.259448 
L 350.551702 91.91198 
L 352.730592 93.974169 
L 354.909481 93.873535 
L 357.088371 91.452062 
L 359.267261 90.85465 
L 361.44615 90.691575 
L 363.62504 92.310549 
L 365.803929 91.879183 
L 367.982819 90.777794 
L 370.161708 92.218684 
L 372.340598 91.350894 
L 376.698377 90.693581 
L 381.056156 91.210788 
L 383.235046 93.151518 
L 385.413935 90.394707 
L 387.592825 90.549939 
L 389.771714 91.265146 
L 394.129494 90.553284 
L 396.308383 90.617094 
L 398.487273 90.87718 
L 398.487273 90.87718 
" clip-path="url(#p0e1100be02)" style="fill: none; stroke: #2ca02c; stroke-linecap: square"/>
   </g>
   <g id="line2d_17">
    <path d="M 73.832727 164.227151 
L 76.011617 142.823958 
L 78.190506 143.485395 
L 80.369396 150.005938 
L 82.548286 303.503351 
L 84.727175 283.446349 
L 86.906065 173.573491 
L 89.084954 121.698837 
L 91.263844 118.113303 
L 93.442733 106.634173 
L 95.621623 110.918326 
L 97.800513 101.225555 
L 99.979402 103.981391 
L 102.158292 101.060804 
L 104.337181 103.575248 
L 106.516071 97.042362 
L 108.69496 104.819656 
L 110.87385 99.862732 
L 113.052739 99.100163 
L 115.231629 101.525327 
L 117.410519 101.009187 
L 119.589408 103.659075 
L 121.768298 100.146029 
L 123.947187 99.142256 
L 126.126077 100.757348 
L 128.304966 100.845361 
L 130.483856 103.835534 
L 132.662746 101.424476 
L 134.841635 99.775076 
L 137.020525 97.225476 
L 139.199414 95.176236 
L 141.378304 96.507973 
L 143.557193 97.379158 
L 145.736083 95.226639 
L 147.914973 96.285223 
L 150.093862 92.525658 
L 152.272752 94.372624 
L 154.451641 94.03387 
L 156.630531 92.482671 
L 158.80942 92.366068 
L 160.98831 91.646406 
L 163.1672 92.156551 
L 165.346089 92.477806 
L 167.524979 93.412886 
L 169.703868 92.205858 
L 171.882758 93.116558 
L 174.061647 92.196027 
L 176.240537 91.73501 
L 178.419426 92.114529 
L 180.598316 93.442856 
L 182.777206 92.468088 
L 184.956095 90.622572 
L 187.134985 90.092363 
L 189.313874 93.142885 
L 191.492764 93.347446 
L 193.671653 91.186795 
L 195.850543 90.101816 
L 198.029433 89.445952 
L 200.208322 89.64343 
L 202.387212 90.175777 
L 204.566101 88.352605 
L 206.744991 88.83823 
L 211.10277 90.265826 
L 213.28166 90.351823 
L 215.460549 89.459136 
L 217.639439 90.46918 
L 219.818328 89.383311 
L 221.997218 89.546319 
L 224.176107 90.40777 
L 226.354997 90.412347 
L 228.533887 89.248871 
L 230.712776 91.717156 
L 232.891666 88.753446 
L 235.070555 89.929474 
L 237.249445 90.150883 
L 239.428334 91.962626 
L 241.607224 89.289668 
L 243.786113 91.057554 
L 245.965003 88.825491 
L 250.322782 89.67038 
L 252.501672 89.911143 
L 254.680561 88.976535 
L 256.859451 89.520852 
L 259.03834 88.454609 
L 261.21723 89.55824 
L 263.39612 88.46235 
L 265.575009 88.879535 
L 267.753899 89.647566 
L 269.932788 89.67993 
L 272.111678 88.31242 
L 274.290567 89.442678 
L 276.469457 89.734719 
L 278.648347 90.221925 
L 280.827236 88.636452 
L 283.006126 87.255254 
L 287.363905 90.563395 
L 289.542794 89.058607 
L 291.721684 88.861804 
L 293.900574 90.536556 
L 296.079463 89.880218 
L 298.258353 88.83085 
L 300.437242 89.676786 
L 302.616132 88.934302 
L 304.795021 89.173586 
L 306.973911 90.308776 
L 309.1528 94.16034 
L 311.33169 89.109779 
L 313.51058 89.320677 
L 315.689469 89.197217 
L 317.868359 89.317319 
L 320.047248 89.142801 
L 322.226138 89.917941 
L 324.405027 86.973556 
L 326.583917 90.668778 
L 328.762807 91.141868 
L 330.941696 88.388142 
L 333.120586 87.858006 
L 335.299475 89.914946 
L 337.478365 88.281169 
L 339.657254 90.369033 
L 341.836144 88.235175 
L 344.015034 87.124923 
L 346.193923 88.810271 
L 348.372813 87.564935 
L 350.551702 86.990757 
L 352.730592 86.702528 
L 354.909481 90.227414 
L 357.088371 90.282958 
L 361.44615 88.102571 
L 363.62504 88.110523 
L 365.803929 88.808878 
L 367.982819 87.608774 
L 370.161708 89.128576 
L 372.340598 88.460274 
L 374.519487 88.040086 
L 376.698377 88.576281 
L 378.877267 90.402747 
L 381.056156 93.368169 
L 383.235046 90.802846 
L 385.413935 87.342269 
L 387.592825 87.703404 
L 389.771714 90.323809 
L 391.950604 90.680117 
L 394.129494 89.745943 
L 396.308383 90.377688 
L 398.487273 89.472116 
L 398.487273 89.472116 
" clip-path="url(#p0e1100be02)" style="fill: none; stroke: #d62728; stroke-linecap: square"/>
   </g>
   <g id="patch_3">
    <path d="M 57.6 307.584 
L 57.6 41.472 
" style="fill: none; stroke: #000000; stroke-width: 0.8; stroke-linejoin: miter; stroke-linecap: square"/>
   </g>
   <g id="patch_4">
    <path d="M 414.72 307.584 
L 414.72 41.472 
" style="fill: none; stroke: #000000; stroke-width: 0.8; stroke-linejoin: miter; stroke-linecap: square"/>
   </g>
   <g id="patch_5">
    <path d="M 57.6 307.584 
L 414.72 307.584 
" style="fill: none; stroke: #000000; stroke-width: 0.8; stroke-linejoin: miter; stroke-linecap: square"/>
   </g>
   <g id="patch_6">
    <path d="M 57.6 41.472 
L 414.72 41.472 
" style="fill: none; stroke: #000000; stroke-width: 0.8; stroke-linejoin: miter; stroke-linecap: square"/>
   </g>
   <g id="text_15">
    <!-- Accuracy of Hgt -->
    <g transform="translate(188.495625 35.472) scale(0.12 -0.12)">
     <defs>
      <path id="DejaVuSans-41" d="M 2188 4044 
L 1331 1722 
L 3047 1722 
L 2188 4044 
z
M 1831 4666 
L 2547 4666 
L 4325 0 
L 3669 0 
L 3244 1197 
L 1141 1197 
L 716 0 
L 50 0 
L 1831 4666 
z
" transform="scale(0.015625)"/>
      <path id="DejaVuSans-75" d="M 544 1381 
L 544 3500 
L 1119 3500 
L 1119 1403 
Q 1119 906 1312 657 
Q 1506 409 1894 409 
Q 2359 409 2629 706 
Q 2900 1003 2900 1516 
L 2900 3500 
L 3475 3500 
L 3475 0 
L 2900 0 
L 2900 538 
Q 2691 219 2414 64 
Q 2138 -91 1772 -91 
Q 1169 -91 856 284 
Q 544 659 544 1381 
z
M 1991 3584 
L 1991 3584 
z
" transform="scale(0.015625)"/>
      <path id="DejaVuSans-72" d="M 2631 2963 
Q 2534 3019 2420 3045 
Q 2306 3072 2169 3072 
Q 1681 3072 1420 2755 
Q 1159 2438 1159 1844 
L 1159 0 
L 581 0 
L 581 3500 
L 1159 3500 
L 1159 2956 
Q 1341 3275 1631 3429 
Q 1922 3584 2338 3584 
Q 2397 3584 2469 3576 
Q 2541 3569 2628 3553 
L 2631 2963 
z
" transform="scale(0.015625)"/>
      <path id="DejaVuSans-61" d="M 2194 1759 
Q 1497 1759 1228 1600 
Q 959 1441 959 1056 
Q 959 750 1161 570 
Q 1363 391 1709 391 
Q 2188 391 2477 730 
Q 2766 1069 2766 1631 
L 2766 1759 
L 2194 1759 
z
M 3341 1997 
L 3341 0 
L 2766 0 
L 2766 531 
Q 2569 213 2275 61 
Q 1981 -91 1556 -91 
Q 1019 -91 701 211 
Q 384 513 384 1019 
Q 384 1609 779 1909 
Q 1175 2209 1959 2209 
L 2766 2209 
L 2766 2266 
Q 2766 2663 2505 2880 
Q 2244 3097 1772 3097 
Q 1472 3097 1187 3025 
Q 903 2953 641 2809 
L 641 3341 
Q 956 3463 1253 3523 
Q 1550 3584 1831 3584 
Q 2591 3584 2966 3190 
Q 3341 2797 3341 1997 
z
" transform="scale(0.015625)"/>
      <path id="DejaVuSans-79" d="M 2059 -325 
Q 1816 -950 1584 -1140 
Q 1353 -1331 966 -1331 
L 506 -1331 
L 506 -850 
L 844 -850 
Q 1081 -850 1212 -737 
Q 1344 -625 1503 -206 
L 1606 56 
L 191 3500 
L 800 3500 
L 1894 763 
L 2988 3500 
L 3597 3500 
L 2059 -325 
z
" transform="scale(0.015625)"/>
      <path id="DejaVuSans-20" transform="scale(0.015625)"/>
      <path id="DejaVuSans-66" d="M 2375 4863 
L 2375 4384 
L 1825 4384 
Q 1516 4384 1395 4259 
Q 1275 4134 1275 3809 
L 1275 3500 
L 2222 3500 
L 2222 3053 
L 1275 3053 
L 1275 0 
L 697 0 
L 697 3053 
L 147 3053 
L 147 3500 
L 697 3500 
L 697 3744 
Q 697 4328 969 4595 
Q 1241 4863 1831 4863 
L 2375 4863 
z
" transform="scale(0.015625)"/>
      <path id="DejaVuSans-48" d="M 628 4666 
L 1259 4666 
L 1259 2753 
L 3553 2753 
L 3553 4666 
L 4184 4666 
L 4184 0 
L 3553 0 
L 3553 2222 
L 1259 2222 
L 1259 0 
L 628 0 
L 628 4666 
z
" transform="scale(0.015625)"/>
      <path id="DejaVuSans-67" d="M 2906 1791 
Q 2906 2416 2648 2759 
Q 2391 3103 1925 3103 
Q 1463 3103 1205 2759 
Q 947 2416 947 1791 
Q 947 1169 1205 825 
Q 1463 481 1925 481 
Q 2391 481 2648 825 
Q 2906 1169 2906 1791 
z
M 3481 434 
Q 3481 -459 3084 -895 
Q 2688 -1331 1869 -1331 
Q 1566 -1331 1297 -1286 
Q 1028 -1241 775 -1147 
L 775 -588 
Q 1028 -725 1275 -790 
Q 1522 -856 1778 -856 
Q 2344 -856 2625 -561 
Q 2906 -266 2906 331 
L 2906 616 
Q 2728 306 2450 153 
Q 2172 0 1784 0 
Q 1141 0 747 490 
Q 353 981 353 1791 
Q 353 2603 747 3093 
Q 1141 3584 1784 3584 
Q 2172 3584 2450 3431 
Q 2728 3278 2906 2969 
L 2906 3500 
L 3481 3500 
L 3481 434 
z
" transform="scale(0.015625)"/>
      <path id="DejaVuSans-74" d="M 1172 4494 
L 1172 3500 
L 2356 3500 
L 2356 3053 
L 1172 3053 
L 1172 1153 
Q 1172 725 1289 603 
Q 1406 481 1766 481 
L 2356 481 
L 2356 0 
L 1766 0 
Q 1100 0 847 248 
Q 594 497 594 1153 
L 594 3053 
L 172 3053 
L 172 3500 
L 594 3500 
L 594 4494 
L 1172 4494 
z
" transform="scale(0.015625)"/>
     </defs>
     <use xlink:href="#DejaVuSans-41"/>
     <use xlink:href="#DejaVuSans-63" x="66.658203"/>
     <use xlink:href="#DejaVuSans-63" x="121.638672"/>
     <use xlink:href="#DejaVuSans-75" x="176.619141"/>
     <use xlink:href="#DejaVuSans-72" x="239.998047"/>
     <use xlink:href="#DejaVuSans-61" x="281.111328"/>
     <use xlink:href="#DejaVuSans-63" x="342.390625"/>
     <use xlink:href="#DejaVuSans-79" x="397.371094"/>
     <use xlink:href="#DejaVuSans-20" x="456.550781"/>
     <use xlink:href="#DejaVuSans-6f" x="488.337891"/>
     <use xlink:href="#DejaVuSans-66" x="549.519531"/>
     <use xlink:href="#DejaVuSans-20" x="584.724609"/>
     <use xlink:href="#DejaVuSans-48" x="616.511719"/>
     <use xlink:href="#DejaVuSans-67" x="691.707031"/>
     <use xlink:href="#DejaVuSans-74" x="755.183594"/>
    </g>
   </g>
   <g id="legend_1">
    <g id="patch_7">
     <path d="M 299.162188 302.584 
L 407.72 302.584 
Q 409.72 302.584 409.72 300.584 
L 409.72 242.8715 
Q 409.72 240.8715 407.72 240.8715 
L 299.162188 240.8715 
Q 297.162188 240.8715 297.162188 242.8715 
L 297.162188 300.584 
Q 297.162188 302.584 299.162188 302.584 
z
" style="fill: #ffffff; opacity: 0.8; stroke: #cccccc; stroke-linejoin: miter"/>
    </g>
    <g id="line2d_18">
     <path d="M 301.162188 248.969937 
L 311.162188 248.969937 
L 321.162188 248.969937 
" style="fill: none; stroke: #1f77b4; stroke-linecap: square"/>
    </g>
    <g id="text_16">
     <!-- 2000 samples -->
     <g transform="translate(329.162188 252.469937) scale(0.1 -0.1)">
      <defs>
       <path id="DejaVuSans-73" d="M 2834 3397 
L 2834 2853 
Q 2591 2978 2328 3040 
Q 2066 3103 1784 3103 
Q 1356 3103 1142 2972 
Q 928 2841 928 2578 
Q 928 2378 1081 2264 
Q 1234 2150 1697 2047 
L 1894 2003 
Q 2506 1872 2764 1633 
Q 3022 1394 3022 966 
Q 3022 478 2636 193 
Q 2250 -91 1575 -91 
Q 1294 -91 989 -36 
Q 684 19 347 128 
L 347 722 
Q 666 556 975 473 
Q 1284 391 1588 391 
Q 1994 391 2212 530 
Q 2431 669 2431 922 
Q 2431 1156 2273 1281 
Q 2116 1406 1581 1522 
L 1381 1569 
Q 847 1681 609 1914 
Q 372 2147 372 2553 
Q 372 3047 722 3315 
Q 1072 3584 1716 3584 
Q 2034 3584 2315 3537 
Q 2597 3491 2834 3397 
z
" transform="scale(0.015625)"/>
       <path id="DejaVuSans-6d" d="M 3328 2828 
Q 3544 3216 3844 3400 
Q 4144 3584 4550 3584 
Q 5097 3584 5394 3201 
Q 5691 2819 5691 2113 
L 5691 0 
L 5113 0 
L 5113 2094 
Q 5113 2597 4934 2840 
Q 4756 3084 4391 3084 
Q 3944 3084 3684 2787 
Q 3425 2491 3425 1978 
L 3425 0 
L 2847 0 
L 2847 2094 
Q 2847 2600 2669 2842 
Q 2491 3084 2119 3084 
Q 1678 3084 1418 2786 
Q 1159 2488 1159 1978 
L 1159 0 
L 581 0 
L 581 3500 
L 1159 3500 
L 1159 2956 
Q 1356 3278 1631 3431 
Q 1906 3584 2284 3584 
Q 2666 3584 2933 3390 
Q 3200 3197 3328 2828 
z
" transform="scale(0.015625)"/>
       <path id="DejaVuSans-6c" d="M 603 4863 
L 1178 4863 
L 1178 0 
L 603 0 
L 603 4863 
z
" transform="scale(0.015625)"/>
      </defs>
      <use xlink:href="#DejaVuSans-32"/>
      <use xlink:href="#DejaVuSans-30" x="63.623047"/>
      <use xlink:href="#DejaVuSans-30" x="127.246094"/>
      <use xlink:href="#DejaVuSans-30" x="190.869141"/>
      <use xlink:href="#DejaVuSans-20" x="254.492188"/>
      <use xlink:href="#DejaVuSans-73" x="286.279297"/>
      <use xlink:href="#DejaVuSans-61" x="338.378906"/>
      <use xlink:href="#DejaVuSans-6d" x="399.658203"/>
      <use xlink:href="#DejaVuSans-70" x="497.070312"/>
      <use xlink:href="#DejaVuSans-6c" x="560.546875"/>
      <use xlink:href="#DejaVuSans-65" x="588.330078"/>
      <use xlink:href="#DejaVuSans-73" x="649.853516"/>
     </g>
    </g>
    <g id="line2d_19">
     <path d="M 301.162188 263.648062 
L 311.162188 263.648062 
L 321.162188 263.648062 
" style="fill: none; stroke: #ff7f0e; stroke-linecap: square"/>
    </g>
    <g id="text_17">
     <!-- 5000 samples -->
     <g transform="translate(329.162188 267.148062) scale(0.1 -0.1)">
      <defs>
       <path id="DejaVuSans-35" d="M 691 4666 
L 3169 4666 
L 3169 4134 
L 1269 4134 
L 1269 2991 
Q 1406 3038 1543 3061 
Q 1681 3084 1819 3084 
Q 2600 3084 3056 2656 
Q 3513 2228 3513 1497 
Q 3513 744 3044 326 
Q 2575 -91 1722 -91 
Q 1428 -91 1123 -41 
Q 819 9 494 109 
L 494 744 
Q 775 591 1075 516 
Q 1375 441 1709 441 
Q 2250 441 2565 725 
Q 2881 1009 2881 1497 
Q 2881 1984 2565 2268 
Q 2250 2553 1709 2553 
Q 1456 2553 1204 2497 
Q 953 2441 691 2322 
L 691 4666 
z
" transform="scale(0.015625)"/>
      </defs>
      <use xlink:href="#DejaVuSans-35"/>
      <use xlink:href="#DejaVuSans-30" x="63.623047"/>
      <use xlink:href="#DejaVuSans-30" x="127.246094"/>
      <use xlink:href="#DejaVuSans-30" x="190.869141"/>
      <use xlink:href="#DejaVuSans-20" x="254.492188"/>
      <use xlink:href="#DejaVuSans-73" x="286.279297"/>
      <use xlink:href="#DejaVuSans-61" x="338.378906"/>
      <use xlink:href="#DejaVuSans-6d" x="399.658203"/>
      <use xlink:href="#DejaVuSans-70" x="497.070312"/>
      <use xlink:href="#DejaVuSans-6c" x="560.546875"/>
      <use xlink:href="#DejaVuSans-65" x="588.330078"/>
      <use xlink:href="#DejaVuSans-73" x="649.853516"/>
     </g>
    </g>
    <g id="line2d_20">
     <path d="M 301.162188 278.326187 
L 311.162188 278.326187 
L 321.162188 278.326187 
" style="fill: none; stroke: #2ca02c; stroke-linecap: square"/>
    </g>
    <g id="text_18">
     <!-- 8000 samples -->
     <g transform="translate(329.162188 281.826187) scale(0.1 -0.1)">
      <use xlink:href="#DejaVuSans-38"/>
      <use xlink:href="#DejaVuSans-30" x="63.623047"/>
      <use xlink:href="#DejaVuSans-30" x="127.246094"/>
      <use xlink:href="#DejaVuSans-30" x="190.869141"/>
      <use xlink:href="#DejaVuSans-20" x="254.492188"/>
      <use xlink:href="#DejaVuSans-73" x="286.279297"/>
      <use xlink:href="#DejaVuSans-61" x="338.378906"/>
      <use xlink:href="#DejaVuSans-6d" x="399.658203"/>
      <use xlink:href="#DejaVuSans-70" x="497.070312"/>
      <use xlink:href="#DejaVuSans-6c" x="560.546875"/>
      <use xlink:href="#DejaVuSans-65" x="588.330078"/>
      <use xlink:href="#DejaVuSans-73" x="649.853516"/>
     </g>
    </g>
    <g id="line2d_21">
     <path d="M 301.162188 293.004312 
L 311.162188 293.004312 
L 321.162188 293.004312 
" style="fill: none; stroke: #d62728; stroke-linecap: square"/>
    </g>
    <g id="text_19">
     <!-- 10000 samples -->
     <g transform="translate(329.162188 296.504312) scale(0.1 -0.1)">
      <use xlink:href="#DejaVuSans-31"/>
      <use xlink:href="#DejaVuSans-30" x="63.623047"/>
      <use xlink:href="#DejaVuSans-30" x="127.246094"/>
      <use xlink:href="#DejaVuSans-30" x="190.869141"/>
      <use xlink:href="#DejaVuSans-30" x="254.492188"/>
      <use xlink:href="#DejaVuSans-20" x="318.115234"/>
      <use xlink:href="#DejaVuSans-73" x="349.902344"/>
      <use xlink:href="#DejaVuSans-61" x="402.001953"/>
      <use xlink:href="#DejaVuSans-6d" x="463.28125"/>
      <use xlink:href="#DejaVuSans-70" x="560.693359"/>
      <use xlink:href="#DejaVuSans-6c" x="624.169922"/>
      <use xlink:href="#DejaVuSans-65" x="651.953125"/>
      <use xlink:href="#DejaVuSans-73" x="713.476562"/>
     </g>
    </g>
   </g>
  </g>
 </g>
 <defs>
  <clipPath id="p0e1100be02">
   <rect x="57.6" y="41.472" width="357.12" height="266.112"/>
  </clipPath>
 </defs>
</svg>
