<?xml version="1.0" encoding="utf-8" standalone="no"?>
<!DOCTYPE svg PUBLIC "-//W3C//DTD SVG 1.1//EN"
  "http://www.w3.org/Graphics/SVG/1.1/DTD/svg11.dtd">
<svg xmlns:xlink="http://www.w3.org/1999/xlink" width="460.8pt" height="345.6pt" viewBox="0 0 460.8 345.6" xmlns="http://www.w3.org/2000/svg" version="1.1">
 <metadata>
  <rdf:RDF xmlns:dc="http://purl.org/dc/elements/1.1/" xmlns:cc="http://creativecommons.org/ns#" xmlns:rdf="http://www.w3.org/1999/02/22-rdf-syntax-ns#">
   <cc:Work>
    <dc:type rdf:resource="http://purl.org/dc/dcmitype/StillImage"/>
    <dc:date>2023-09-13T16:28:36.117814</dc:date>
    <dc:format>image/svg+xml</dc:format>
    <dc:creator>
     <cc:Agent>
      <dc:title>Matplotlib v3.7.1, https://matplotlib.org/</dc:title>
     </cc:Agent>
    </dc:creator>
   </cc:Work>
  </rdf:RDF>
 </metadata>
 <defs>
  <style type="text/css">*{stroke-linejoin: round; stroke-linecap: butt}</style>
 </defs>
 <g id="figure_1">
  <g id="patch_1">
   <path d="M 0 345.6 
L 460.8 345.6 
L 460.8 0 
L 0 0 
z
" style="fill: #ffffff"/>
  </g>
  <g id="axes_1">
   <g id="patch_2">
    <path d="M 57.6 307.584 
L 414.72 307.584 
L 414.72 41.472 
L 57.6 41.472 
z
" style="fill: #ffffff"/>
   </g>
   <g id="matplotlib.axis_1">
    <g id="xtick_1">
     <g id="line2d_1">
      <defs>
       <path id="m606e38320f" d="M 0 0 
L 0 3.5 
" style="stroke: #000000; stroke-width: 0.8"/>
      </defs>
      <g>
       <use xlink:href="#m606e38320f" x="71.653838" y="307.584" style="stroke: #000000; stroke-width: 0.8"/>
      </g>
     </g>
     <g id="text_1">
      <!-- 0 -->
      <g transform="translate(68.472588 322.182437) scale(0.1 -0.1)">
       <defs>
        <path id="DejaVuSans-30" d="M 2034 4250 
Q 1547 4250 1301 3770 
Q 1056 3291 1056 2328 
Q 1056 1369 1301 889 
Q 1547 409 2034 409 
Q 2525 409 2770 889 
Q 3016 1369 3016 2328 
Q 3016 3291 2770 3770 
Q 2525 4250 2034 4250 
z
M 2034 4750 
Q 2819 4750 3233 4129 
Q 3647 3509 3647 2328 
Q 3647 1150 3233 529 
Q 2819 -91 2034 -91 
Q 1250 -91 836 529 
Q 422 1150 422 2328 
Q 422 3509 836 4129 
Q 1250 4750 2034 4750 
z
" transform="scale(0.015625)"/>
       </defs>
       <use xlink:href="#DejaVuSans-30"/>
      </g>
     </g>
    </g>
    <g id="xtick_2">
     <g id="line2d_2">
      <g>
       <use xlink:href="#m606e38320f" x="115.231629" y="307.584" style="stroke: #000000; stroke-width: 0.8"/>
      </g>
     </g>
     <g id="text_2">
      <!-- 20 -->
      <g transform="translate(108.869129 322.182437) scale(0.1 -0.1)">
       <defs>
        <path id="DejaVuSans-32" d="M 1228 531 
L 3431 531 
L 3431 0 
L 469 0 
L 469 531 
Q 828 903 1448 1529 
Q 2069 2156 2228 2338 
Q 2531 2678 2651 2914 
Q 2772 3150 2772 3378 
Q 2772 3750 2511 3984 
Q 2250 4219 1831 4219 
Q 1534 4219 1204 4116 
Q 875 4013 500 3803 
L 500 4441 
Q 881 4594 1212 4672 
Q 1544 4750 1819 4750 
Q 2544 4750 2975 4387 
Q 3406 4025 3406 3419 
Q 3406 3131 3298 2873 
Q 3191 2616 2906 2266 
Q 2828 2175 2409 1742 
Q 1991 1309 1228 531 
z
" transform="scale(0.015625)"/>
       </defs>
       <use xlink:href="#DejaVuSans-32"/>
       <use xlink:href="#DejaVuSans-30" x="63.623047"/>
      </g>
     </g>
    </g>
    <g id="xtick_3">
     <g id="line2d_3">
      <g>
       <use xlink:href="#m606e38320f" x="158.80942" y="307.584" style="stroke: #000000; stroke-width: 0.8"/>
      </g>
     </g>
     <g id="text_3">
      <!-- 40 -->
      <g transform="translate(152.44692 322.182437) scale(0.1 -0.1)">
       <defs>
        <path id="DejaVuSans-34" d="M 2419 4116 
L 825 1625 
L 2419 1625 
L 2419 4116 
z
M 2253 4666 
L 3047 4666 
L 3047 1625 
L 3713 1625 
L 3713 1100 
L 3047 1100 
L 3047 0 
L 2419 0 
L 2419 1100 
L 313 1100 
L 313 1709 
L 2253 4666 
z
" transform="scale(0.015625)"/>
       </defs>
       <use xlink:href="#DejaVuSans-34"/>
       <use xlink:href="#DejaVuSans-30" x="63.623047"/>
      </g>
     </g>
    </g>
    <g id="xtick_4">
     <g id="line2d_4">
      <g>
       <use xlink:href="#m606e38320f" x="202.387212" y="307.584" style="stroke: #000000; stroke-width: 0.8"/>
      </g>
     </g>
     <g id="text_4">
      <!-- 60 -->
      <g transform="translate(196.024712 322.182437) scale(0.1 -0.1)">
       <defs>
        <path id="DejaVuSans-36" d="M 2113 2584 
Q 1688 2584 1439 2293 
Q 1191 2003 1191 1497 
Q 1191 994 1439 701 
Q 1688 409 2113 409 
Q 2538 409 2786 701 
Q 3034 994 3034 1497 
Q 3034 2003 2786 2293 
Q 2538 2584 2113 2584 
z
M 3366 4563 
L 3366 3988 
Q 3128 4100 2886 4159 
Q 2644 4219 2406 4219 
Q 1781 4219 1451 3797 
Q 1122 3375 1075 2522 
Q 1259 2794 1537 2939 
Q 1816 3084 2150 3084 
Q 2853 3084 3261 2657 
Q 3669 2231 3669 1497 
Q 3669 778 3244 343 
Q 2819 -91 2113 -91 
Q 1303 -91 875 529 
Q 447 1150 447 2328 
Q 447 3434 972 4092 
Q 1497 4750 2381 4750 
Q 2619 4750 2861 4703 
Q 3103 4656 3366 4563 
z
" transform="scale(0.015625)"/>
       </defs>
       <use xlink:href="#DejaVuSans-36"/>
       <use xlink:href="#DejaVuSans-30" x="63.623047"/>
      </g>
     </g>
    </g>
    <g id="xtick_5">
     <g id="line2d_5">
      <g>
       <use xlink:href="#m606e38320f" x="245.965003" y="307.584" style="stroke: #000000; stroke-width: 0.8"/>
      </g>
     </g>
     <g id="text_5">
      <!-- 80 -->
      <g transform="translate(239.602503 322.182437) scale(0.1 -0.1)">
       <defs>
        <path id="DejaVuSans-38" d="M 2034 2216 
Q 1584 2216 1326 1975 
Q 1069 1734 1069 1313 
Q 1069 891 1326 650 
Q 1584 409 2034 409 
Q 2484 409 2743 651 
Q 3003 894 3003 1313 
Q 3003 1734 2745 1975 
Q 2488 2216 2034 2216 
z
M 1403 2484 
Q 997 2584 770 2862 
Q 544 3141 544 3541 
Q 544 4100 942 4425 
Q 1341 4750 2034 4750 
Q 2731 4750 3128 4425 
Q 3525 4100 3525 3541 
Q 3525 3141 3298 2862 
Q 3072 2584 2669 2484 
Q 3125 2378 3379 2068 
Q 3634 1759 3634 1313 
Q 3634 634 3220 271 
Q 2806 -91 2034 -91 
Q 1263 -91 848 271 
Q 434 634 434 1313 
Q 434 1759 690 2068 
Q 947 2378 1403 2484 
z
M 1172 3481 
Q 1172 3119 1398 2916 
Q 1625 2713 2034 2713 
Q 2441 2713 2670 2916 
Q 2900 3119 2900 3481 
Q 2900 3844 2670 4047 
Q 2441 4250 2034 4250 
Q 1625 4250 1398 4047 
Q 1172 3844 1172 3481 
z
" transform="scale(0.015625)"/>
       </defs>
       <use xlink:href="#DejaVuSans-38"/>
       <use xlink:href="#DejaVuSans-30" x="63.623047"/>
      </g>
     </g>
    </g>
    <g id="xtick_6">
     <g id="line2d_6">
      <g>
       <use xlink:href="#m606e38320f" x="289.542794" y="307.584" style="stroke: #000000; stroke-width: 0.8"/>
      </g>
     </g>
     <g id="text_6">
      <!-- 100 -->
      <g transform="translate(279.999044 322.182437) scale(0.1 -0.1)">
       <defs>
        <path id="DejaVuSans-31" d="M 794 531 
L 1825 531 
L 1825 4091 
L 703 3866 
L 703 4441 
L 1819 4666 
L 2450 4666 
L 2450 531 
L 3481 531 
L 3481 0 
L 794 0 
L 794 531 
z
" transform="scale(0.015625)"/>
       </defs>
       <use xlink:href="#DejaVuSans-31"/>
       <use xlink:href="#DejaVuSans-30" x="63.623047"/>
       <use xlink:href="#DejaVuSans-30" x="127.246094"/>
      </g>
     </g>
    </g>
    <g id="xtick_7">
     <g id="line2d_7">
      <g>
       <use xlink:href="#m606e38320f" x="333.120586" y="307.584" style="stroke: #000000; stroke-width: 0.8"/>
      </g>
     </g>
     <g id="text_7">
      <!-- 120 -->
      <g transform="translate(323.576836 322.182437) scale(0.1 -0.1)">
       <use xlink:href="#DejaVuSans-31"/>
       <use xlink:href="#DejaVuSans-32" x="63.623047"/>
       <use xlink:href="#DejaVuSans-30" x="127.246094"/>
      </g>
     </g>
    </g>
    <g id="xtick_8">
     <g id="line2d_8">
      <g>
       <use xlink:href="#m606e38320f" x="376.698377" y="307.584" style="stroke: #000000; stroke-width: 0.8"/>
      </g>
     </g>
     <g id="text_8">
      <!-- 140 -->
      <g transform="translate(367.154627 322.182437) scale(0.1 -0.1)">
       <use xlink:href="#DejaVuSans-31"/>
       <use xlink:href="#DejaVuSans-34" x="63.623047"/>
       <use xlink:href="#DejaVuSans-30" x="127.246094"/>
      </g>
     </g>
    </g>
    <g id="text_9">
     <!-- epoch -->
     <g transform="translate(220.931875 335.860562) scale(0.1 -0.1)">
      <defs>
       <path id="DejaVuSans-65" d="M 3597 1894 
L 3597 1613 
L 953 1613 
Q 991 1019 1311 708 
Q 1631 397 2203 397 
Q 2534 397 2845 478 
Q 3156 559 3463 722 
L 3463 178 
Q 3153 47 2828 -22 
Q 2503 -91 2169 -91 
Q 1331 -91 842 396 
Q 353 884 353 1716 
Q 353 2575 817 3079 
Q 1281 3584 2069 3584 
Q 2775 3584 3186 3129 
Q 3597 2675 3597 1894 
z
M 3022 2063 
Q 3016 2534 2758 2815 
Q 2500 3097 2075 3097 
Q 1594 3097 1305 2825 
Q 1016 2553 972 2059 
L 3022 2063 
z
" transform="scale(0.015625)"/>
       <path id="DejaVuSans-70" d="M 1159 525 
L 1159 -1331 
L 581 -1331 
L 581 3500 
L 1159 3500 
L 1159 2969 
Q 1341 3281 1617 3432 
Q 1894 3584 2278 3584 
Q 2916 3584 3314 3078 
Q 3713 2572 3713 1747 
Q 3713 922 3314 415 
Q 2916 -91 2278 -91 
Q 1894 -91 1617 61 
Q 1341 213 1159 525 
z
M 3116 1747 
Q 3116 2381 2855 2742 
Q 2594 3103 2138 3103 
Q 1681 3103 1420 2742 
Q 1159 2381 1159 1747 
Q 1159 1113 1420 752 
Q 1681 391 2138 391 
Q 2594 391 2855 752 
Q 3116 1113 3116 1747 
z
" transform="scale(0.015625)"/>
       <path id="DejaVuSans-6f" d="M 1959 3097 
Q 1497 3097 1228 2736 
Q 959 2375 959 1747 
Q 959 1119 1226 758 
Q 1494 397 1959 397 
Q 2419 397 2687 759 
Q 2956 1122 2956 1747 
Q 2956 2369 2687 2733 
Q 2419 3097 1959 3097 
z
M 1959 3584 
Q 2709 3584 3137 3096 
Q 3566 2609 3566 1747 
Q 3566 888 3137 398 
Q 2709 -91 1959 -91 
Q 1206 -91 779 398 
Q 353 888 353 1747 
Q 353 2609 779 3096 
Q 1206 3584 1959 3584 
z
" transform="scale(0.015625)"/>
       <path id="DejaVuSans-63" d="M 3122 3366 
L 3122 2828 
Q 2878 2963 2633 3030 
Q 2388 3097 2138 3097 
Q 1578 3097 1268 2742 
Q 959 2388 959 1747 
Q 959 1106 1268 751 
Q 1578 397 2138 397 
Q 2388 397 2633 464 
Q 2878 531 3122 666 
L 3122 134 
Q 2881 22 2623 -34 
Q 2366 -91 2075 -91 
Q 1284 -91 818 406 
Q 353 903 353 1747 
Q 353 2603 823 3093 
Q 1294 3584 2113 3584 
Q 2378 3584 2631 3529 
Q 2884 3475 3122 3366 
z
" transform="scale(0.015625)"/>
       <path id="DejaVuSans-68" d="M 3513 2113 
L 3513 0 
L 2938 0 
L 2938 2094 
Q 2938 2591 2744 2837 
Q 2550 3084 2163 3084 
Q 1697 3084 1428 2787 
Q 1159 2491 1159 1978 
L 1159 0 
L 581 0 
L 581 4863 
L 1159 4863 
L 1159 2956 
Q 1366 3272 1645 3428 
Q 1925 3584 2291 3584 
Q 2894 3584 3203 3211 
Q 3513 2838 3513 2113 
z
" transform="scale(0.015625)"/>
      </defs>
      <use xlink:href="#DejaVuSans-65"/>
      <use xlink:href="#DejaVuSans-70" x="61.523438"/>
      <use xlink:href="#DejaVuSans-6f" x="125"/>
      <use xlink:href="#DejaVuSans-63" x="186.181641"/>
      <use xlink:href="#DejaVuSans-68" x="241.162109"/>
     </g>
    </g>
   </g>
   <g id="matplotlib.axis_2">
    <g id="ytick_1">
     <g id="line2d_9">
      <defs>
       <path id="md77f2b679d" d="M 0 0 
L -3.5 0 
" style="stroke: #000000; stroke-width: 0.8"/>
      </defs>
      <g>
       <use xlink:href="#md77f2b679d" x="57.6" y="307.584" style="stroke: #000000; stroke-width: 0.8"/>
      </g>
     </g>
     <g id="text_10">
      <!-- 0.0 -->
      <g transform="translate(34.696875 311.383219) scale(0.1 -0.1)">
       <defs>
        <path id="DejaVuSans-2e" d="M 684 794 
L 1344 794 
L 1344 0 
L 684 0 
L 684 794 
z
" transform="scale(0.015625)"/>
       </defs>
       <use xlink:href="#DejaVuSans-30"/>
       <use xlink:href="#DejaVuSans-2e" x="63.623047"/>
       <use xlink:href="#DejaVuSans-30" x="95.410156"/>
      </g>
     </g>
    </g>
    <g id="ytick_2">
     <g id="line2d_10">
      <g>
       <use xlink:href="#md77f2b679d" x="57.6" y="248.928893" style="stroke: #000000; stroke-width: 0.8"/>
      </g>
     </g>
     <g id="text_11">
      <!-- 0.2 -->
      <g transform="translate(34.696875 252.728112) scale(0.1 -0.1)">
       <use xlink:href="#DejaVuSans-30"/>
       <use xlink:href="#DejaVuSans-2e" x="63.623047"/>
       <use xlink:href="#DejaVuSans-32" x="95.410156"/>
      </g>
     </g>
    </g>
    <g id="ytick_3">
     <g id="line2d_11">
      <g>
       <use xlink:href="#md77f2b679d" x="57.6" y="190.273786" style="stroke: #000000; stroke-width: 0.8"/>
      </g>
     </g>
     <g id="text_12">
      <!-- 0.4 -->
      <g transform="translate(34.696875 194.073004) scale(0.1 -0.1)">
       <use xlink:href="#DejaVuSans-30"/>
       <use xlink:href="#DejaVuSans-2e" x="63.623047"/>
       <use xlink:href="#DejaVuSans-34" x="95.410156"/>
      </g>
     </g>
    </g>
    <g id="ytick_4">
     <g id="line2d_12">
      <g>
       <use xlink:href="#md77f2b679d" x="57.6" y="131.618678" style="stroke: #000000; stroke-width: 0.8"/>
      </g>
     </g>
     <g id="text_13">
      <!-- 0.6 -->
      <g transform="translate(34.696875 135.417897) scale(0.1 -0.1)">
       <use xlink:href="#DejaVuSans-30"/>
       <use xlink:href="#DejaVuSans-2e" x="63.623047"/>
       <use xlink:href="#DejaVuSans-36" x="95.410156"/>
      </g>
     </g>
    </g>
    <g id="ytick_5">
     <g id="line2d_13">
      <g>
       <use xlink:href="#md77f2b679d" x="57.6" y="72.963571" style="stroke: #000000; stroke-width: 0.8"/>
      </g>
     </g>
     <g id="text_14">
      <!-- 0.8 -->
      <g transform="translate(34.696875 76.76279) scale(0.1 -0.1)">
       <use xlink:href="#DejaVuSans-30"/>
       <use xlink:href="#DejaVuSans-2e" x="63.623047"/>
       <use xlink:href="#DejaVuSans-38" x="95.410156"/>
      </g>
     </g>
    </g>
   </g>
   <g id="line2d_14">
    <path d="M 73.832727 160.58228 
L 76.011617 142.275068 
L 78.190506 152.180634 
L 80.369396 154.215282 
L 82.548286 135.659451 
L 84.727175 125.531459 
L 86.906065 116.852351 
L 89.084954 110.408251 
L 91.263844 104.674015 
L 93.442733 102.447328 
L 95.621623 101.171896 
L 97.800513 100.190601 
L 99.979402 98.422946 
L 102.158292 99.8498 
L 104.337181 101.616276 
L 106.516071 97.324149 
L 108.69496 105.001598 
L 110.87385 100.201608 
L 113.052739 113.15891 
L 115.231629 102.116442 
L 117.410519 99.183485 
L 119.589408 101.582128 
L 121.768298 94.919884 
L 123.947187 96.194404 
L 126.126077 93.845723 
L 128.304966 93.005582 
L 130.483856 94.918566 
L 132.662746 93.169655 
L 134.841635 91.246708 
L 137.020525 90.419528 
L 139.199414 94.816737 
L 141.378304 90.526692 
L 145.736083 92.244426 
L 147.914973 90.185222 
L 150.093862 90.832758 
L 152.272752 91.665044 
L 154.451641 91.295089 
L 156.630531 91.204115 
L 158.80942 90.344839 
L 160.98831 90.80333 
L 163.1672 92.53653 
L 167.524979 90.632551 
L 169.703868 89.872277 
L 171.882758 90.356627 
L 174.061647 90.316704 
L 176.240537 88.400291 
L 178.419426 90.316737 
L 180.598316 89.454944 
L 182.777206 92.025299 
L 184.956095 87.076906 
L 187.134985 88.949146 
L 189.313874 91.343665 
L 191.492764 89.960087 
L 193.671653 88.104137 
L 195.850543 87.99487 
L 198.029433 88.317147 
L 200.208322 90.272133 
L 202.387212 89.020436 
L 204.566101 89.60952 
L 208.92388 89.685884 
L 211.10277 86.679902 
L 213.28166 87.366115 
L 215.460549 88.188928 
L 217.639439 90.344685 
L 219.818328 90.109303 
L 221.997218 90.281063 
L 224.176107 91.8384 
L 226.354997 89.935346 
L 228.533887 90.144157 
L 230.712776 91.678509 
L 232.891666 88.927168 
L 235.070555 88.738355 
L 237.249445 87.576774 
L 239.428334 87.803969 
L 241.607224 89.062964 
L 243.786113 87.560817 
L 245.965003 89.753677 
L 248.143893 87.684577 
L 250.322782 88.435335 
L 252.501672 90.201897 
L 254.680561 90.193257 
L 256.859451 88.087851 
L 259.03834 89.647421 
L 261.21723 90.681942 
L 265.575009 89.389909 
L 267.753899 88.150634 
L 269.932788 90.534065 
L 272.111678 88.637861 
L 274.290567 89.354374 
L 276.469457 88.837947 
L 278.648347 86.728154 
L 280.827236 87.782223 
L 283.006126 90.311072 
L 285.185015 87.350962 
L 287.363905 88.52923 
L 289.542794 88.393317 
L 291.721684 89.615357 
L 293.900574 89.33843 
L 296.079463 89.896292 
L 298.258353 88.099165 
L 300.437242 87.812733 
L 302.616132 88.807311 
L 304.795021 87.797947 
L 311.33169 87.319835 
L 313.51058 89.804763 
L 317.868359 85.824 
L 320.047248 88.801561 
L 322.226138 86.96709 
L 324.405027 89.184222 
L 326.583917 88.952745 
L 328.762807 86.577173 
L 330.941696 87.534134 
L 333.120586 87.877963 
L 335.299475 87.212347 
L 337.478365 87.84033 
L 339.657254 89.413047 
L 341.836144 87.575371 
L 344.015034 87.306439 
L 346.193923 88.369867 
L 348.372813 87.815122 
L 350.551702 86.133356 
L 352.730592 87.796026 
L 354.909481 87.781288 
L 357.088371 86.423797 
L 359.267261 89.488614 
L 361.44615 86.799771 
L 363.62504 88.62694 
L 365.803929 89.289988 
L 367.982819 89.108534 
L 370.161708 87.861129 
L 372.340598 87.225163 
L 374.519487 87.35919 
L 376.698377 89.124453 
L 378.877267 90.189102 
L 381.056156 87.668943 
L 385.413935 87.270582 
L 387.592825 89.688365 
L 389.771714 89.011148 
L 391.950604 87.183489 
L 394.129494 90.551086 
L 396.308383 88.652401 
L 398.487273 87.995652 
L 398.487273 87.995652 
" clip-path="url(#p52807526c7)" style="fill: none; stroke: #1f77b4; stroke-linecap: square"/>
   </g>
   <g id="line2d_15">
    <path d="M 73.832727 273.152297 
L 76.011617 249.976507 
L 78.190506 261.206001 
L 80.369396 279.47029 
L 82.548286 265.094433 
L 84.727175 246.737568 
L 86.906065 235.310433 
L 89.084954 237.174487 
L 91.263844 250.057415 
L 93.442733 253.853119 
L 95.621623 299.634391 
L 97.800513 276.139865 
L 99.979402 257.457607 
L 102.158292 242.993354 
L 104.337181 255.619413 
L 106.516071 230.490234 
L 108.69496 230.183227 
L 110.87385 218.805143 
L 113.052739 213.912278 
L 115.231629 278.879651 
L 119.589408 228.520816 
L 121.768298 194.207651 
L 123.947187 200.08513 
L 126.126077 196.780973 
L 128.304966 195.946002 
L 130.483856 206.961609 
L 132.662746 188.440883 
L 134.841635 193.15224 
L 137.020525 166.387383 
L 139.199414 147.43195 
L 141.378304 158.548257 
L 143.557193 166.432745 
L 145.736083 150.332113 
L 147.914973 159.145604 
L 150.093862 153.929762 
L 152.272752 152.274423 
L 154.451641 146.802072 
L 156.630531 138.869816 
L 158.80942 141.069504 
L 160.98831 139.903508 
L 163.1672 130.24856 
L 165.346089 141.735426 
L 167.524979 130.133793 
L 169.703868 128.547063 
L 171.882758 129.488781 
L 174.061647 144.372376 
L 176.240537 132.606662 
L 178.419426 132.302391 
L 180.598316 138.896816 
L 182.777206 125.14745 
L 184.956095 133.601821 
L 187.134985 128.124721 
L 189.313874 140.73353 
L 193.671653 132.581725 
L 195.850543 127.355308 
L 198.029433 134.247222 
L 200.208322 132.057387 
L 202.387212 129.651716 
L 204.566101 129.133143 
L 206.744991 135.620094 
L 208.92388 135.479732 
L 211.10277 122.081383 
L 213.28166 124.238226 
L 215.460549 133.673801 
L 217.639439 135.154485 
L 219.818328 133.530477 
L 221.997218 135.981302 
L 224.176107 136.814993 
L 226.354997 129.339187 
L 228.533887 132.419472 
L 230.712776 130.544956 
L 232.891666 130.137582 
L 235.070555 129.844736 
L 237.249445 133.367241 
L 239.428334 142.634956 
L 241.607224 128.192925 
L 243.786113 135.681778 
L 245.965003 149.56942 
L 248.143893 136.901552 
L 250.322782 145.967162 
L 252.501672 136.571006 
L 254.680561 134.294906 
L 256.859451 130.477151 
L 259.03834 129.921722 
L 261.21723 131.957175 
L 263.39612 131.024914 
L 265.575009 134.146291 
L 267.753899 130.601762 
L 269.932788 132.649943 
L 272.111678 131.404556 
L 274.290567 136.070093 
L 276.469457 134.314425 
L 278.648347 126.885955 
L 280.827236 136.935645 
L 283.006126 130.3395 
L 285.185015 135.909071 
L 287.363905 138.461572 
L 289.542794 148.943086 
L 291.721684 137.772571 
L 293.900574 129.961931 
L 296.079463 134.738459 
L 298.258353 137.296785 
L 300.437242 132.484984 
L 302.616132 137.046982 
L 304.795021 129.716713 
L 306.973911 135.061544 
L 309.1528 128.751394 
L 311.33169 139.231385 
L 313.51058 133.082831 
L 315.689469 133.159483 
L 317.868359 130.295674 
L 320.047248 134.763147 
L 322.226138 130.209381 
L 324.405027 136.669089 
L 326.583917 134.255917 
L 328.762807 135.276235 
L 330.941696 131.842489 
L 333.120586 129.788431 
L 337.478365 139.444279 
L 339.657254 135.840962 
L 341.836144 133.757909 
L 344.015034 130.57225 
L 346.193923 138.572007 
L 348.372813 137.944395 
L 350.551702 134.681474 
L 352.730592 133.841489 
L 354.909481 138.013809 
L 357.088371 141.053195 
L 359.267261 128.939969 
L 361.44615 130.785564 
L 363.62504 129.622751 
L 365.803929 137.576138 
L 367.982819 134.247216 
L 370.161708 137.019649 
L 372.340598 130.840234 
L 374.519487 135.337977 
L 376.698377 132.124146 
L 378.877267 129.737357 
L 381.056156 134.109222 
L 383.235046 137.329105 
L 385.413935 134.323529 
L 387.592825 132.340942 
L 389.771714 137.367181 
L 391.950604 132.478269 
L 394.129494 132.950153 
L 396.308383 135.279705 
L 398.487273 135.888224 
L 398.487273 135.888224 
" clip-path="url(#p52807526c7)" style="fill: none; stroke: #ff7f0e; stroke-linecap: square"/>
   </g>
   <g id="line2d_16">
    <path d="M 73.832727 188.506192 
L 76.011617 260.130238 
L 78.190506 254.525249 
L 80.369396 264.700825 
L 82.548286 263.627604 
L 84.727175 183.295853 
L 86.906065 141.980778 
L 89.084954 151.435864 
L 91.263844 163.363561 
L 93.442733 157.445493 
L 95.621623 158.811355 
L 97.800513 194.674334 
L 99.979402 193.953184 
L 102.158292 153.888732 
L 104.337181 138.240801 
L 106.516071 172.473418 
L 108.69496 170.767921 
L 110.87385 152.509064 
L 113.052739 147.660421 
L 115.231629 115.626908 
L 117.410519 108.088367 
L 119.589408 151.884725 
L 121.768298 121.14537 
L 123.947187 110.00448 
L 126.126077 108.181186 
L 128.304966 103.088703 
L 130.483856 99.098155 
L 132.662746 99.319514 
L 134.841635 105.519217 
L 137.020525 99.533225 
L 139.199414 102.466252 
L 141.378304 114.276836 
L 143.557193 101.748779 
L 145.736083 101.724511 
L 147.914973 101.979044 
L 150.093862 96.370584 
L 152.272752 95.770555 
L 154.451641 100.058727 
L 156.630531 98.13942 
L 158.80942 94.700456 
L 160.98831 96.342184 
L 163.1672 95.799902 
L 165.346089 94.952984 
L 167.524979 96.233251 
L 169.703868 93.19972 
L 171.882758 97.196938 
L 174.061647 93.700338 
L 176.240537 95.89433 
L 178.419426 92.33042 
L 180.598316 93.859043 
L 182.777206 93.909358 
L 184.956095 93.171404 
L 187.134985 93.018872 
L 189.313874 92.992103 
L 191.492764 93.900318 
L 193.671653 91.431827 
L 195.850543 91.595748 
L 198.029433 93.946369 
L 200.208322 92.780719 
L 202.387212 92.805933 
L 204.566101 92.545754 
L 206.744991 91.509061 
L 208.92388 92.060187 
L 211.10277 92.245635 
L 213.28166 92.166444 
L 215.460549 91.627544 
L 217.639439 93.586252 
L 219.818328 92.159103 
L 221.997218 91.673899 
L 224.176107 92.414678 
L 226.354997 91.656727 
L 228.533887 92.44524 
L 230.712776 91.18417 
L 232.891666 92.393608 
L 235.070555 92.745106 
L 237.249445 92.971488 
L 239.428334 92.99009 
L 241.607224 93.427583 
L 243.786113 94.136657 
L 245.965003 92.831699 
L 248.143893 92.645475 
L 250.322782 93.001353 
L 252.501672 91.634715 
L 254.680561 92.688065 
L 256.859451 92.062554 
L 259.03834 91.834724 
L 261.21723 90.931444 
L 265.575009 93.053189 
L 267.753899 91.773512 
L 269.932788 91.350681 
L 272.111678 91.422921 
L 274.290567 92.643113 
L 276.469457 90.756978 
L 278.648347 91.297051 
L 280.827236 90.744045 
L 283.006126 90.722775 
L 285.185015 91.187283 
L 287.363905 91.310481 
L 289.542794 91.60194 
L 293.900574 90.971332 
L 298.258353 91.687028 
L 300.437242 91.225275 
L 302.616132 91.481596 
L 304.795021 91.93626 
L 306.973911 91.82335 
L 309.1528 93.701465 
L 311.33169 91.310095 
L 313.51058 91.925794 
L 315.689469 90.845108 
L 317.868359 90.58997 
L 320.047248 90.831085 
L 324.405027 90.501174 
L 326.583917 90.990033 
L 328.762807 90.668613 
L 330.941696 93.825535 
L 333.120586 90.909093 
L 335.299475 91.413608 
L 337.478365 90.003921 
L 339.657254 91.008434 
L 341.836144 90.566715 
L 344.015034 90.962044 
L 346.193923 90.835637 
L 348.372813 91.185198 
L 350.551702 89.830569 
L 352.730592 90.169891 
L 354.909481 92.141977 
L 357.088371 90.485387 
L 359.267261 91.301006 
L 361.44615 91.696096 
L 363.62504 91.115906 
L 365.803929 95.482428 
L 367.982819 90.862268 
L 370.161708 91.16016 
L 372.340598 92.589326 
L 376.698377 90.553044 
L 378.877267 91.216221 
L 381.056156 91.042331 
L 383.235046 91.298549 
L 385.413935 94.99711 
L 387.592825 92.831953 
L 389.771714 89.459917 
L 391.950604 90.686919 
L 394.129494 90.047891 
L 398.487273 91.21378 
L 398.487273 91.21378 
" clip-path="url(#p52807526c7)" style="fill: none; stroke: #2ca02c; stroke-linecap: square"/>
   </g>
   <g id="line2d_17">
    <path d="M 73.832727 227.597401 
L 76.011617 324.692724 
L 78.190506 182.599022 
L 80.369396 163.310447 
L 82.548286 254.832056 
L 84.727175 138.082559 
L 86.906065 142.869611 
L 89.084954 131.711879 
L 91.263844 127.470656 
L 93.442733 119.182587 
L 95.621623 119.773312 
L 97.800513 108.085987 
L 99.979402 109.162415 
L 102.158292 109.688353 
L 104.337181 107.667018 
L 106.516071 103.322113 
L 108.69496 110.843979 
L 110.87385 107.517816 
L 113.052739 103.384042 
L 115.231629 102.721174 
L 117.410519 104.035513 
L 119.589408 102.344753 
L 121.768298 102.347929 
L 123.947187 106.11484 
L 126.126077 102.421253 
L 128.304966 102.188761 
L 130.483856 102.351865 
L 132.662746 116.035593 
L 134.841635 98.024 
L 137.020525 98.940188 
L 139.199414 98.01945 
L 141.378304 96.131625 
L 143.557193 98.927154 
L 145.736083 97.829618 
L 147.914973 97.133862 
L 150.093862 96.187809 
L 152.272752 97.184735 
L 154.451641 97.389969 
L 156.630531 92.896776 
L 158.80942 95.974219 
L 160.98831 96.898185 
L 163.1672 93.871816 
L 165.346089 93.926222 
L 167.524979 97.557457 
L 169.703868 100.100175 
L 171.882758 96.082807 
L 174.061647 94.151541 
L 176.240537 93.412322 
L 178.419426 94.656742 
L 180.598316 95.706433 
L 182.777206 92.868877 
L 184.956095 93.461436 
L 187.134985 95.023271 
L 189.313874 92.451347 
L 191.492764 94.200002 
L 193.671653 92.996337 
L 195.850543 93.124208 
L 198.029433 92.157856 
L 200.208322 93.040276 
L 202.387212 97.723239 
L 204.566101 93.668342 
L 206.744991 92.940967 
L 208.92388 92.40855 
L 211.10277 92.797987 
L 213.28166 93.630672 
L 215.460549 92.988556 
L 217.639439 93.2449 
L 219.818328 94.612049 
L 221.997218 94.575399 
L 224.176107 91.928761 
L 228.533887 92.385109 
L 230.712776 94.285435 
L 232.891666 95.482624 
L 235.070555 95.525889 
L 237.249445 93.071 
L 239.428334 92.985966 
L 241.607224 93.094388 
L 243.786113 93.832612 
L 245.965003 93.233535 
L 248.143893 93.246916 
L 250.322782 95.118036 
L 252.501672 93.689866 
L 254.680561 94.364417 
L 256.859451 91.755267 
L 259.03834 94.28484 
L 261.21723 91.393157 
L 263.39612 91.493348 
L 265.575009 93.088465 
L 267.753899 93.264592 
L 269.932788 92.009519 
L 272.111678 92.13813 
L 274.290567 92.810212 
L 276.469457 91.855321 
L 278.648347 93.438926 
L 280.827236 92.339551 
L 283.006126 93.764964 
L 285.185015 93.494149 
L 287.363905 93.407713 
L 289.542794 93.582262 
L 291.721684 92.189282 
L 293.900574 93.111803 
L 296.079463 91.325968 
L 298.258353 92.922624 
L 302.616132 94.054782 
L 306.973911 93.165152 
L 309.1528 93.273163 
L 311.33169 93.73139 
L 313.51058 91.414166 
L 315.689469 93.309989 
L 317.868359 92.803091 
L 320.047248 93.256 
L 322.226138 94.1128 
L 324.405027 92.796792 
L 328.762807 92.494224 
L 330.941696 92.887568 
L 333.120586 92.589686 
L 335.299475 91.486896 
L 337.478365 94.338336 
L 339.657254 93.357914 
L 341.836144 91.850692 
L 344.015034 93.755096 
L 346.193923 91.191301 
L 348.372813 91.6187 
L 350.551702 91.431473 
L 352.730592 92.101075 
L 354.909481 91.998077 
L 357.088371 91.663574 
L 359.267261 93.115591 
L 361.44615 91.924251 
L 363.62504 91.865319 
L 365.803929 93.029065 
L 367.982819 93.049808 
L 370.161708 91.649415 
L 372.340598 92.94209 
L 374.519487 93.070488 
L 376.698377 94.396328 
L 378.877267 93.006689 
L 381.056156 92.480881 
L 383.235046 90.987741 
L 385.413935 92.186984 
L 387.592825 91.487552 
L 389.771714 92.736376 
L 391.950604 91.88753 
L 394.129494 89.792486 
L 396.308383 92.161207 
L 398.487273 90.984155 
L 398.487273 90.984155 
" clip-path="url(#p52807526c7)" style="fill: none; stroke: #d62728; stroke-linecap: square"/>
   </g>
   <g id="patch_3">
    <path d="M 57.6 307.584 
L 57.6 41.472 
" style="fill: none; stroke: #000000; stroke-width: 0.8; stroke-linejoin: miter; stroke-linecap: square"/>
   </g>
   <g id="patch_4">
    <path d="M 414.72 307.584 
L 414.72 41.472 
" style="fill: none; stroke: #000000; stroke-width: 0.8; stroke-linejoin: miter; stroke-linecap: square"/>
   </g>
   <g id="patch_5">
    <path d="M 57.6 307.584 
L 414.72 307.584 
" style="fill: none; stroke: #000000; stroke-width: 0.8; stroke-linejoin: miter; stroke-linecap: square"/>
   </g>
   <g id="patch_6">
    <path d="M 57.6 41.472 
L 414.72 41.472 
" style="fill: none; stroke: #000000; stroke-width: 0.8; stroke-linejoin: miter; stroke-linecap: square"/>
   </g>
   <g id="text_15">
    <!-- Accuracy of oil -->
    <g transform="translate(192.164062 35.472) scale(0.12 -0.12)">
     <defs>
      <path id="DejaVuSans-41" d="M 2188 4044 
L 1331 1722 
L 3047 1722 
L 2188 4044 
z
M 1831 4666 
L 2547 4666 
L 4325 0 
L 3669 0 
L 3244 1197 
L 1141 1197 
L 716 0 
L 50 0 
L 1831 4666 
z
" transform="scale(0.015625)"/>
      <path id="DejaVuSans-75" d="M 544 1381 
L 544 3500 
L 1119 3500 
L 1119 1403 
Q 1119 906 1312 657 
Q 1506 409 1894 409 
Q 2359 409 2629 706 
Q 2900 1003 2900 1516 
L 2900 3500 
L 3475 3500 
L 3475 0 
L 2900 0 
L 2900 538 
Q 2691 219 2414 64 
Q 2138 -91 1772 -91 
Q 1169 -91 856 284 
Q 544 659 544 1381 
z
M 1991 3584 
L 1991 3584 
z
" transform="scale(0.015625)"/>
      <path id="DejaVuSans-72" d="M 2631 2963 
Q 2534 3019 2420 3045 
Q 2306 3072 2169 3072 
Q 1681 3072 1420 2755 
Q 1159 2438 1159 1844 
L 1159 0 
L 581 0 
L 581 3500 
L 1159 3500 
L 1159 2956 
Q 1341 3275 1631 3429 
Q 1922 3584 2338 3584 
Q 2397 3584 2469 3576 
Q 2541 3569 2628 3553 
L 2631 2963 
z
" transform="scale(0.015625)"/>
      <path id="DejaVuSans-61" d="M 2194 1759 
Q 1497 1759 1228 1600 
Q 959 1441 959 1056 
Q 959 750 1161 570 
Q 1363 391 1709 391 
Q 2188 391 2477 730 
Q 2766 1069 2766 1631 
L 2766 1759 
L 2194 1759 
z
M 3341 1997 
L 3341 0 
L 2766 0 
L 2766 531 
Q 2569 213 2275 61 
Q 1981 -91 1556 -91 
Q 1019 -91 701 211 
Q 384 513 384 1019 
Q 384 1609 779 1909 
Q 1175 2209 1959 2209 
L 2766 2209 
L 2766 2266 
Q 2766 2663 2505 2880 
Q 2244 3097 1772 3097 
Q 1472 3097 1187 3025 
Q 903 2953 641 2809 
L 641 3341 
Q 956 3463 1253 3523 
Q 1550 3584 1831 3584 
Q 2591 3584 2966 3190 
Q 3341 2797 3341 1997 
z
" transform="scale(0.015625)"/>
      <path id="DejaVuSans-79" d="M 2059 -325 
Q 1816 -950 1584 -1140 
Q 1353 -1331 966 -1331 
L 506 -1331 
L 506 -850 
L 844 -850 
Q 1081 -850 1212 -737 
Q 1344 -625 1503 -206 
L 1606 56 
L 191 3500 
L 800 3500 
L 1894 763 
L 2988 3500 
L 3597 3500 
L 2059 -325 
z
" transform="scale(0.015625)"/>
      <path id="DejaVuSans-20" transform="scale(0.015625)"/>
      <path id="DejaVuSans-66" d="M 2375 4863 
L 2375 4384 
L 1825 4384 
Q 1516 4384 1395 4259 
Q 1275 4134 1275 3809 
L 1275 3500 
L 2222 3500 
L 2222 3053 
L 1275 3053 
L 1275 0 
L 697 0 
L 697 3053 
L 147 3053 
L 147 3500 
L 697 3500 
L 697 3744 
Q 697 4328 969 4595 
Q 1241 4863 1831 4863 
L 2375 4863 
z
" transform="scale(0.015625)"/>
      <path id="DejaVuSans-69" d="M 603 3500 
L 1178 3500 
L 1178 0 
L 603 0 
L 603 3500 
z
M 603 4863 
L 1178 4863 
L 1178 4134 
L 603 4134 
L 603 4863 
z
" transform="scale(0.015625)"/>
      <path id="DejaVuSans-6c" d="M 603 4863 
L 1178 4863 
L 1178 0 
L 603 0 
L 603 4863 
z
" transform="scale(0.015625)"/>
     </defs>
     <use xlink:href="#DejaVuSans-41"/>
     <use xlink:href="#DejaVuSans-63" x="66.658203"/>
     <use xlink:href="#DejaVuSans-63" x="121.638672"/>
     <use xlink:href="#DejaVuSans-75" x="176.619141"/>
     <use xlink:href="#DejaVuSans-72" x="239.998047"/>
     <use xlink:href="#DejaVuSans-61" x="281.111328"/>
     <use xlink:href="#DejaVuSans-63" x="342.390625"/>
     <use xlink:href="#DejaVuSans-79" x="397.371094"/>
     <use xlink:href="#DejaVuSans-20" x="456.550781"/>
     <use xlink:href="#DejaVuSans-6f" x="488.337891"/>
     <use xlink:href="#DejaVuSans-66" x="549.519531"/>
     <use xlink:href="#DejaVuSans-20" x="584.724609"/>
     <use xlink:href="#DejaVuSans-6f" x="616.511719"/>
     <use xlink:href="#DejaVuSans-69" x="677.693359"/>
     <use xlink:href="#DejaVuSans-6c" x="705.476562"/>
    </g>
   </g>
   <g id="legend_1">
    <g id="patch_7">
     <path d="M 299.162188 302.584 
L 407.72 302.584 
Q 409.72 302.584 409.72 300.584 
L 409.72 242.8715 
Q 409.72 240.8715 407.72 240.8715 
L 299.162188 240.8715 
Q 297.162188 240.8715 297.162188 242.8715 
L 297.162188 300.584 
Q 297.162188 302.584 299.162188 302.584 
z
" style="fill: #ffffff; opacity: 0.8; stroke: #cccccc; stroke-linejoin: miter"/>
    </g>
    <g id="line2d_18">
     <path d="M 301.162188 248.969937 
L 311.162188 248.969937 
L 321.162188 248.969937 
" style="fill: none; stroke: #1f77b4; stroke-linecap: square"/>
    </g>
    <g id="text_16">
     <!-- 2000 samples -->
     <g transform="translate(329.162188 252.469937) scale(0.1 -0.1)">
      <defs>
       <path id="DejaVuSans-73" d="M 2834 3397 
L 2834 2853 
Q 2591 2978 2328 3040 
Q 2066 3103 1784 3103 
Q 1356 3103 1142 2972 
Q 928 2841 928 2578 
Q 928 2378 1081 2264 
Q 1234 2150 1697 2047 
L 1894 2003 
Q 2506 1872 2764 1633 
Q 3022 1394 3022 966 
Q 3022 478 2636 193 
Q 2250 -91 1575 -91 
Q 1294 -91 989 -36 
Q 684 19 347 128 
L 347 722 
Q 666 556 975 473 
Q 1284 391 1588 391 
Q 1994 391 2212 530 
Q 2431 669 2431 922 
Q 2431 1156 2273 1281 
Q 2116 1406 1581 1522 
L 1381 1569 
Q 847 1681 609 1914 
Q 372 2147 372 2553 
Q 372 3047 722 3315 
Q 1072 3584 1716 3584 
Q 2034 3584 2315 3537 
Q 2597 3491 2834 3397 
z
" transform="scale(0.015625)"/>
       <path id="DejaVuSans-6d" d="M 3328 2828 
Q 3544 3216 3844 3400 
Q 4144 3584 4550 3584 
Q 5097 3584 5394 3201 
Q 5691 2819 5691 2113 
L 5691 0 
L 5113 0 
L 5113 2094 
Q 5113 2597 4934 2840 
Q 4756 3084 4391 3084 
Q 3944 3084 3684 2787 
Q 3425 2491 3425 1978 
L 3425 0 
L 2847 0 
L 2847 2094 
Q 2847 2600 2669 2842 
Q 2491 3084 2119 3084 
Q 1678 3084 1418 2786 
Q 1159 2488 1159 1978 
L 1159 0 
L 581 0 
L 581 3500 
L 1159 3500 
L 1159 2956 
Q 1356 3278 1631 3431 
Q 1906 3584 2284 3584 
Q 2666 3584 2933 3390 
Q 3200 3197 3328 2828 
z
" transform="scale(0.015625)"/>
      </defs>
      <use xlink:href="#DejaVuSans-32"/>
      <use xlink:href="#DejaVuSans-30" x="63.623047"/>
      <use xlink:href="#DejaVuSans-30" x="127.246094"/>
      <use xlink:href="#DejaVuSans-30" x="190.869141"/>
      <use xlink:href="#DejaVuSans-20" x="254.492188"/>
      <use xlink:href="#DejaVuSans-73" x="286.279297"/>
      <use xlink:href="#DejaVuSans-61" x="338.378906"/>
      <use xlink:href="#DejaVuSans-6d" x="399.658203"/>
      <use xlink:href="#DejaVuSans-70" x="497.070312"/>
      <use xlink:href="#DejaVuSans-6c" x="560.546875"/>
      <use xlink:href="#DejaVuSans-65" x="588.330078"/>
      <use xlink:href="#DejaVuSans-73" x="649.853516"/>
     </g>
    </g>
    <g id="line2d_19">
     <path d="M 301.162188 263.648062 
L 311.162188 263.648062 
L 321.162188 263.648062 
" style="fill: none; stroke: #ff7f0e; stroke-linecap: square"/>
    </g>
    <g id="text_17">
     <!-- 5000 samples -->
     <g transform="translate(329.162188 267.148062) scale(0.1 -0.1)">
      <defs>
       <path id="DejaVuSans-35" d="M 691 4666 
L 3169 4666 
L 3169 4134 
L 1269 4134 
L 1269 2991 
Q 1406 3038 1543 3061 
Q 1681 3084 1819 3084 
Q 2600 3084 3056 2656 
Q 3513 2228 3513 1497 
Q 3513 744 3044 326 
Q 2575 -91 1722 -91 
Q 1428 -91 1123 -41 
Q 819 9 494 109 
L 494 744 
Q 775 591 1075 516 
Q 1375 441 1709 441 
Q 2250 441 2565 725 
Q 2881 1009 2881 1497 
Q 2881 1984 2565 2268 
Q 2250 2553 1709 2553 
Q 1456 2553 1204 2497 
Q 953 2441 691 2322 
L 691 4666 
z
" transform="scale(0.015625)"/>
      </defs>
      <use xlink:href="#DejaVuSans-35"/>
      <use xlink:href="#DejaVuSans-30" x="63.623047"/>
      <use xlink:href="#DejaVuSans-30" x="127.246094"/>
      <use xlink:href="#DejaVuSans-30" x="190.869141"/>
      <use xlink:href="#DejaVuSans-20" x="254.492188"/>
      <use xlink:href="#DejaVuSans-73" x="286.279297"/>
      <use xlink:href="#DejaVuSans-61" x="338.378906"/>
      <use xlink:href="#DejaVuSans-6d" x="399.658203"/>
      <use xlink:href="#DejaVuSans-70" x="497.070312"/>
      <use xlink:href="#DejaVuSans-6c" x="560.546875"/>
      <use xlink:href="#DejaVuSans-65" x="588.330078"/>
      <use xlink:href="#DejaVuSans-73" x="649.853516"/>
     </g>
    </g>
    <g id="line2d_20">
     <path d="M 301.162188 278.326187 
L 311.162188 278.326187 
L 321.162188 278.326187 
" style="fill: none; stroke: #2ca02c; stroke-linecap: square"/>
    </g>
    <g id="text_18">
     <!-- 8000 samples -->
     <g transform="translate(329.162188 281.826187) scale(0.1 -0.1)">
      <use xlink:href="#DejaVuSans-38"/>
      <use xlink:href="#DejaVuSans-30" x="63.623047"/>
      <use xlink:href="#DejaVuSans-30" x="127.246094"/>
      <use xlink:href="#DejaVuSans-30" x="190.869141"/>
      <use xlink:href="#DejaVuSans-20" x="254.492188"/>
      <use xlink:href="#DejaVuSans-73" x="286.279297"/>
      <use xlink:href="#DejaVuSans-61" x="338.378906"/>
      <use xlink:href="#DejaVuSans-6d" x="399.658203"/>
      <use xlink:href="#DejaVuSans-70" x="497.070312"/>
      <use xlink:href="#DejaVuSans-6c" x="560.546875"/>
      <use xlink:href="#DejaVuSans-65" x="588.330078"/>
      <use xlink:href="#DejaVuSans-73" x="649.853516"/>
     </g>
    </g>
    <g id="line2d_21">
     <path d="M 301.162188 293.004312 
L 311.162188 293.004312 
L 321.162188 293.004312 
" style="fill: none; stroke: #d62728; stroke-linecap: square"/>
    </g>
    <g id="text_19">
     <!-- 10000 samples -->
     <g transform="translate(329.162188 296.504312) scale(0.1 -0.1)">
      <use xlink:href="#DejaVuSans-31"/>
      <use xlink:href="#DejaVuSans-30" x="63.623047"/>
      <use xlink:href="#DejaVuSans-30" x="127.246094"/>
      <use xlink:href="#DejaVuSans-30" x="190.869141"/>
      <use xlink:href="#DejaVuSans-30" x="254.492188"/>
      <use xlink:href="#DejaVuSans-20" x="318.115234"/>
      <use xlink:href="#DejaVuSans-73" x="349.902344"/>
      <use xlink:href="#DejaVuSans-61" x="402.001953"/>
      <use xlink:href="#DejaVuSans-6d" x="463.28125"/>
      <use xlink:href="#DejaVuSans-70" x="560.693359"/>
      <use xlink:href="#DejaVuSans-6c" x="624.169922"/>
      <use xlink:href="#DejaVuSans-65" x="651.953125"/>
      <use xlink:href="#DejaVuSans-73" x="713.476562"/>
     </g>
    </g>
   </g>
  </g>
 </g>
 <defs>
  <clipPath id="p52807526c7">
   <rect x="57.6" y="41.472" width="357.12" height="266.112"/>
  </clipPath>
 </defs>
</svg>
