<?xml version="1.0" encoding="utf-8" standalone="no"?>
<!DOCTYPE svg PUBLIC "-//W3C//DTD SVG 1.1//EN"
  "http://www.w3.org/Graphics/SVG/1.1/DTD/svg11.dtd">
<svg xmlns:xlink="http://www.w3.org/1999/xlink" width="460.8pt" height="345.6pt" viewBox="0 0 460.8 345.6" xmlns="http://www.w3.org/2000/svg" version="1.1">
 <metadata>
  <rdf:RDF xmlns:dc="http://purl.org/dc/elements/1.1/" xmlns:cc="http://creativecommons.org/ns#" xmlns:rdf="http://www.w3.org/1999/02/22-rdf-syntax-ns#">
   <cc:Work>
    <dc:type rdf:resource="http://purl.org/dc/dcmitype/StillImage"/>
    <dc:date>2023-09-13T16:28:03.539097</dc:date>
    <dc:format>image/svg+xml</dc:format>
    <dc:creator>
     <cc:Agent>
      <dc:title>Matplotlib v3.7.1, https://matplotlib.org/</dc:title>
     </cc:Agent>
    </dc:creator>
   </cc:Work>
  </rdf:RDF>
 </metadata>
 <defs>
  <style type="text/css">*{stroke-linejoin: round; stroke-linecap: butt}</style>
 </defs>
 <g id="figure_1">
  <g id="patch_1">
   <path d="M 0 345.6 
L 460.8 345.6 
L 460.8 0 
L 0 0 
z
" style="fill: #ffffff"/>
  </g>
  <g id="axes_1">
   <g id="patch_2">
    <path d="M 57.6 307.584 
L 414.72 307.584 
L 414.72 41.472 
L 57.6 41.472 
z
" style="fill: #ffffff"/>
   </g>
   <g id="matplotlib.axis_1">
    <g id="xtick_1">
     <g id="line2d_1">
      <defs>
       <path id="m79cb59825f" d="M 0 0 
L 0 3.5 
" style="stroke: #000000; stroke-width: 0.8"/>
      </defs>
      <g>
       <use xlink:href="#m79cb59825f" x="71.653838" y="307.584" style="stroke: #000000; stroke-width: 0.8"/>
      </g>
     </g>
     <g id="text_1">
      <!-- 0 -->
      <g transform="translate(68.472588 322.182437) scale(0.1 -0.1)">
       <defs>
        <path id="DejaVuSans-30" d="M 2034 4250 
Q 1547 4250 1301 3770 
Q 1056 3291 1056 2328 
Q 1056 1369 1301 889 
Q 1547 409 2034 409 
Q 2525 409 2770 889 
Q 3016 1369 3016 2328 
Q 3016 3291 2770 3770 
Q 2525 4250 2034 4250 
z
M 2034 4750 
Q 2819 4750 3233 4129 
Q 3647 3509 3647 2328 
Q 3647 1150 3233 529 
Q 2819 -91 2034 -91 
Q 1250 -91 836 529 
Q 422 1150 422 2328 
Q 422 3509 836 4129 
Q 1250 4750 2034 4750 
z
" transform="scale(0.015625)"/>
       </defs>
       <use xlink:href="#DejaVuSans-30"/>
      </g>
     </g>
    </g>
    <g id="xtick_2">
     <g id="line2d_2">
      <g>
       <use xlink:href="#m79cb59825f" x="115.231629" y="307.584" style="stroke: #000000; stroke-width: 0.8"/>
      </g>
     </g>
     <g id="text_2">
      <!-- 20 -->
      <g transform="translate(108.869129 322.182437) scale(0.1 -0.1)">
       <defs>
        <path id="DejaVuSans-32" d="M 1228 531 
L 3431 531 
L 3431 0 
L 469 0 
L 469 531 
Q 828 903 1448 1529 
Q 2069 2156 2228 2338 
Q 2531 2678 2651 2914 
Q 2772 3150 2772 3378 
Q 2772 3750 2511 3984 
Q 2250 4219 1831 4219 
Q 1534 4219 1204 4116 
Q 875 4013 500 3803 
L 500 4441 
Q 881 4594 1212 4672 
Q 1544 4750 1819 4750 
Q 2544 4750 2975 4387 
Q 3406 4025 3406 3419 
Q 3406 3131 3298 2873 
Q 3191 2616 2906 2266 
Q 2828 2175 2409 1742 
Q 1991 1309 1228 531 
z
" transform="scale(0.015625)"/>
       </defs>
       <use xlink:href="#DejaVuSans-32"/>
       <use xlink:href="#DejaVuSans-30" x="63.623047"/>
      </g>
     </g>
    </g>
    <g id="xtick_3">
     <g id="line2d_3">
      <g>
       <use xlink:href="#m79cb59825f" x="158.80942" y="307.584" style="stroke: #000000; stroke-width: 0.8"/>
      </g>
     </g>
     <g id="text_3">
      <!-- 40 -->
      <g transform="translate(152.44692 322.182437) scale(0.1 -0.1)">
       <defs>
        <path id="DejaVuSans-34" d="M 2419 4116 
L 825 1625 
L 2419 1625 
L 2419 4116 
z
M 2253 4666 
L 3047 4666 
L 3047 1625 
L 3713 1625 
L 3713 1100 
L 3047 1100 
L 3047 0 
L 2419 0 
L 2419 1100 
L 313 1100 
L 313 1709 
L 2253 4666 
z
" transform="scale(0.015625)"/>
       </defs>
       <use xlink:href="#DejaVuSans-34"/>
       <use xlink:href="#DejaVuSans-30" x="63.623047"/>
      </g>
     </g>
    </g>
    <g id="xtick_4">
     <g id="line2d_4">
      <g>
       <use xlink:href="#m79cb59825f" x="202.387212" y="307.584" style="stroke: #000000; stroke-width: 0.8"/>
      </g>
     </g>
     <g id="text_4">
      <!-- 60 -->
      <g transform="translate(196.024712 322.182437) scale(0.1 -0.1)">
       <defs>
        <path id="DejaVuSans-36" d="M 2113 2584 
Q 1688 2584 1439 2293 
Q 1191 2003 1191 1497 
Q 1191 994 1439 701 
Q 1688 409 2113 409 
Q 2538 409 2786 701 
Q 3034 994 3034 1497 
Q 3034 2003 2786 2293 
Q 2538 2584 2113 2584 
z
M 3366 4563 
L 3366 3988 
Q 3128 4100 2886 4159 
Q 2644 4219 2406 4219 
Q 1781 4219 1451 3797 
Q 1122 3375 1075 2522 
Q 1259 2794 1537 2939 
Q 1816 3084 2150 3084 
Q 2853 3084 3261 2657 
Q 3669 2231 3669 1497 
Q 3669 778 3244 343 
Q 2819 -91 2113 -91 
Q 1303 -91 875 529 
Q 447 1150 447 2328 
Q 447 3434 972 4092 
Q 1497 4750 2381 4750 
Q 2619 4750 2861 4703 
Q 3103 4656 3366 4563 
z
" transform="scale(0.015625)"/>
       </defs>
       <use xlink:href="#DejaVuSans-36"/>
       <use xlink:href="#DejaVuSans-30" x="63.623047"/>
      </g>
     </g>
    </g>
    <g id="xtick_5">
     <g id="line2d_5">
      <g>
       <use xlink:href="#m79cb59825f" x="245.965003" y="307.584" style="stroke: #000000; stroke-width: 0.8"/>
      </g>
     </g>
     <g id="text_5">
      <!-- 80 -->
      <g transform="translate(239.602503 322.182437) scale(0.1 -0.1)">
       <defs>
        <path id="DejaVuSans-38" d="M 2034 2216 
Q 1584 2216 1326 1975 
Q 1069 1734 1069 1313 
Q 1069 891 1326 650 
Q 1584 409 2034 409 
Q 2484 409 2743 651 
Q 3003 894 3003 1313 
Q 3003 1734 2745 1975 
Q 2488 2216 2034 2216 
z
M 1403 2484 
Q 997 2584 770 2862 
Q 544 3141 544 3541 
Q 544 4100 942 4425 
Q 1341 4750 2034 4750 
Q 2731 4750 3128 4425 
Q 3525 4100 3525 3541 
Q 3525 3141 3298 2862 
Q 3072 2584 2669 2484 
Q 3125 2378 3379 2068 
Q 3634 1759 3634 1313 
Q 3634 634 3220 271 
Q 2806 -91 2034 -91 
Q 1263 -91 848 271 
Q 434 634 434 1313 
Q 434 1759 690 2068 
Q 947 2378 1403 2484 
z
M 1172 3481 
Q 1172 3119 1398 2916 
Q 1625 2713 2034 2713 
Q 2441 2713 2670 2916 
Q 2900 3119 2900 3481 
Q 2900 3844 2670 4047 
Q 2441 4250 2034 4250 
Q 1625 4250 1398 4047 
Q 1172 3844 1172 3481 
z
" transform="scale(0.015625)"/>
       </defs>
       <use xlink:href="#DejaVuSans-38"/>
       <use xlink:href="#DejaVuSans-30" x="63.623047"/>
      </g>
     </g>
    </g>
    <g id="xtick_6">
     <g id="line2d_6">
      <g>
       <use xlink:href="#m79cb59825f" x="289.542794" y="307.584" style="stroke: #000000; stroke-width: 0.8"/>
      </g>
     </g>
     <g id="text_6">
      <!-- 100 -->
      <g transform="translate(279.999044 322.182437) scale(0.1 -0.1)">
       <defs>
        <path id="DejaVuSans-31" d="M 794 531 
L 1825 531 
L 1825 4091 
L 703 3866 
L 703 4441 
L 1819 4666 
L 2450 4666 
L 2450 531 
L 3481 531 
L 3481 0 
L 794 0 
L 794 531 
z
" transform="scale(0.015625)"/>
       </defs>
       <use xlink:href="#DejaVuSans-31"/>
       <use xlink:href="#DejaVuSans-30" x="63.623047"/>
       <use xlink:href="#DejaVuSans-30" x="127.246094"/>
      </g>
     </g>
    </g>
    <g id="xtick_7">
     <g id="line2d_7">
      <g>
       <use xlink:href="#m79cb59825f" x="333.120586" y="307.584" style="stroke: #000000; stroke-width: 0.8"/>
      </g>
     </g>
     <g id="text_7">
      <!-- 120 -->
      <g transform="translate(323.576836 322.182437) scale(0.1 -0.1)">
       <use xlink:href="#DejaVuSans-31"/>
       <use xlink:href="#DejaVuSans-32" x="63.623047"/>
       <use xlink:href="#DejaVuSans-30" x="127.246094"/>
      </g>
     </g>
    </g>
    <g id="xtick_8">
     <g id="line2d_8">
      <g>
       <use xlink:href="#m79cb59825f" x="376.698377" y="307.584" style="stroke: #000000; stroke-width: 0.8"/>
      </g>
     </g>
     <g id="text_8">
      <!-- 140 -->
      <g transform="translate(367.154627 322.182437) scale(0.1 -0.1)">
       <use xlink:href="#DejaVuSans-31"/>
       <use xlink:href="#DejaVuSans-34" x="63.623047"/>
       <use xlink:href="#DejaVuSans-30" x="127.246094"/>
      </g>
     </g>
    </g>
    <g id="text_9">
     <!-- epoch -->
     <g transform="translate(220.931875 335.860562) scale(0.1 -0.1)">
      <defs>
       <path id="DejaVuSans-65" d="M 3597 1894 
L 3597 1613 
L 953 1613 
Q 991 1019 1311 708 
Q 1631 397 2203 397 
Q 2534 397 2845 478 
Q 3156 559 3463 722 
L 3463 178 
Q 3153 47 2828 -22 
Q 2503 -91 2169 -91 
Q 1331 -91 842 396 
Q 353 884 353 1716 
Q 353 2575 817 3079 
Q 1281 3584 2069 3584 
Q 2775 3584 3186 3129 
Q 3597 2675 3597 1894 
z
M 3022 2063 
Q 3016 2534 2758 2815 
Q 2500 3097 2075 3097 
Q 1594 3097 1305 2825 
Q 1016 2553 972 2059 
L 3022 2063 
z
" transform="scale(0.015625)"/>
       <path id="DejaVuSans-70" d="M 1159 525 
L 1159 -1331 
L 581 -1331 
L 581 3500 
L 1159 3500 
L 1159 2969 
Q 1341 3281 1617 3432 
Q 1894 3584 2278 3584 
Q 2916 3584 3314 3078 
Q 3713 2572 3713 1747 
Q 3713 922 3314 415 
Q 2916 -91 2278 -91 
Q 1894 -91 1617 61 
Q 1341 213 1159 525 
z
M 3116 1747 
Q 3116 2381 2855 2742 
Q 2594 3103 2138 3103 
Q 1681 3103 1420 2742 
Q 1159 2381 1159 1747 
Q 1159 1113 1420 752 
Q 1681 391 2138 391 
Q 2594 391 2855 752 
Q 3116 1113 3116 1747 
z
" transform="scale(0.015625)"/>
       <path id="DejaVuSans-6f" d="M 1959 3097 
Q 1497 3097 1228 2736 
Q 959 2375 959 1747 
Q 959 1119 1226 758 
Q 1494 397 1959 397 
Q 2419 397 2687 759 
Q 2956 1122 2956 1747 
Q 2956 2369 2687 2733 
Q 2419 3097 1959 3097 
z
M 1959 3584 
Q 2709 3584 3137 3096 
Q 3566 2609 3566 1747 
Q 3566 888 3137 398 
Q 2709 -91 1959 -91 
Q 1206 -91 779 398 
Q 353 888 353 1747 
Q 353 2609 779 3096 
Q 1206 3584 1959 3584 
z
" transform="scale(0.015625)"/>
       <path id="DejaVuSans-63" d="M 3122 3366 
L 3122 2828 
Q 2878 2963 2633 3030 
Q 2388 3097 2138 3097 
Q 1578 3097 1268 2742 
Q 959 2388 959 1747 
Q 959 1106 1268 751 
Q 1578 397 2138 397 
Q 2388 397 2633 464 
Q 2878 531 3122 666 
L 3122 134 
Q 2881 22 2623 -34 
Q 2366 -91 2075 -91 
Q 1284 -91 818 406 
Q 353 903 353 1747 
Q 353 2603 823 3093 
Q 1294 3584 2113 3584 
Q 2378 3584 2631 3529 
Q 2884 3475 3122 3366 
z
" transform="scale(0.015625)"/>
       <path id="DejaVuSans-68" d="M 3513 2113 
L 3513 0 
L 2938 0 
L 2938 2094 
Q 2938 2591 2744 2837 
Q 2550 3084 2163 3084 
Q 1697 3084 1428 2787 
Q 1159 2491 1159 1978 
L 1159 0 
L 581 0 
L 581 4863 
L 1159 4863 
L 1159 2956 
Q 1366 3272 1645 3428 
Q 1925 3584 2291 3584 
Q 2894 3584 3203 3211 
Q 3513 2838 3513 2113 
z
" transform="scale(0.015625)"/>
      </defs>
      <use xlink:href="#DejaVuSans-65"/>
      <use xlink:href="#DejaVuSans-70" x="61.523438"/>
      <use xlink:href="#DejaVuSans-6f" x="125"/>
      <use xlink:href="#DejaVuSans-63" x="186.181641"/>
      <use xlink:href="#DejaVuSans-68" x="241.162109"/>
     </g>
    </g>
   </g>
   <g id="matplotlib.axis_2">
    <g id="ytick_1">
     <g id="line2d_9">
      <defs>
       <path id="md3121b28fb" d="M 0 0 
L -3.5 0 
" style="stroke: #000000; stroke-width: 0.8"/>
      </defs>
      <g>
       <use xlink:href="#md3121b28fb" x="57.6" y="307.584" style="stroke: #000000; stroke-width: 0.8"/>
      </g>
     </g>
     <g id="text_10">
      <!-- 0.0 -->
      <g transform="translate(34.696875 311.383219) scale(0.1 -0.1)">
       <defs>
        <path id="DejaVuSans-2e" d="M 684 794 
L 1344 794 
L 1344 0 
L 684 0 
L 684 794 
z
" transform="scale(0.015625)"/>
       </defs>
       <use xlink:href="#DejaVuSans-30"/>
       <use xlink:href="#DejaVuSans-2e" x="63.623047"/>
       <use xlink:href="#DejaVuSans-30" x="95.410156"/>
      </g>
     </g>
    </g>
    <g id="ytick_2">
     <g id="line2d_10">
      <g>
       <use xlink:href="#md3121b28fb" x="57.6" y="258.050522" style="stroke: #000000; stroke-width: 0.8"/>
      </g>
     </g>
     <g id="text_11">
      <!-- 0.5 -->
      <g transform="translate(34.696875 261.849741) scale(0.1 -0.1)">
       <defs>
        <path id="DejaVuSans-35" d="M 691 4666 
L 3169 4666 
L 3169 4134 
L 1269 4134 
L 1269 2991 
Q 1406 3038 1543 3061 
Q 1681 3084 1819 3084 
Q 2600 3084 3056 2656 
Q 3513 2228 3513 1497 
Q 3513 744 3044 326 
Q 2575 -91 1722 -91 
Q 1428 -91 1123 -41 
Q 819 9 494 109 
L 494 744 
Q 775 591 1075 516 
Q 1375 441 1709 441 
Q 2250 441 2565 725 
Q 2881 1009 2881 1497 
Q 2881 1984 2565 2268 
Q 2250 2553 1709 2553 
Q 1456 2553 1204 2497 
Q 953 2441 691 2322 
L 691 4666 
z
" transform="scale(0.015625)"/>
       </defs>
       <use xlink:href="#DejaVuSans-30"/>
       <use xlink:href="#DejaVuSans-2e" x="63.623047"/>
       <use xlink:href="#DejaVuSans-35" x="95.410156"/>
      </g>
     </g>
    </g>
    <g id="ytick_3">
     <g id="line2d_11">
      <g>
       <use xlink:href="#md3121b28fb" x="57.6" y="208.517044" style="stroke: #000000; stroke-width: 0.8"/>
      </g>
     </g>
     <g id="text_12">
      <!-- 1.0 -->
      <g transform="translate(34.696875 212.316262) scale(0.1 -0.1)">
       <use xlink:href="#DejaVuSans-31"/>
       <use xlink:href="#DejaVuSans-2e" x="63.623047"/>
       <use xlink:href="#DejaVuSans-30" x="95.410156"/>
      </g>
     </g>
    </g>
    <g id="ytick_4">
     <g id="line2d_12">
      <g>
       <use xlink:href="#md3121b28fb" x="57.6" y="158.983565" style="stroke: #000000; stroke-width: 0.8"/>
      </g>
     </g>
     <g id="text_13">
      <!-- 1.5 -->
      <g transform="translate(34.696875 162.782784) scale(0.1 -0.1)">
       <use xlink:href="#DejaVuSans-31"/>
       <use xlink:href="#DejaVuSans-2e" x="63.623047"/>
       <use xlink:href="#DejaVuSans-35" x="95.410156"/>
      </g>
     </g>
    </g>
    <g id="ytick_5">
     <g id="line2d_13">
      <g>
       <use xlink:href="#md3121b28fb" x="57.6" y="109.450087" style="stroke: #000000; stroke-width: 0.8"/>
      </g>
     </g>
     <g id="text_14">
      <!-- 2.0 -->
      <g transform="translate(34.696875 113.249306) scale(0.1 -0.1)">
       <use xlink:href="#DejaVuSans-32"/>
       <use xlink:href="#DejaVuSans-2e" x="63.623047"/>
       <use xlink:href="#DejaVuSans-30" x="95.410156"/>
      </g>
     </g>
    </g>
    <g id="ytick_6">
     <g id="line2d_14">
      <g>
       <use xlink:href="#md3121b28fb" x="57.6" y="59.916609" style="stroke: #000000; stroke-width: 0.8"/>
      </g>
     </g>
     <g id="text_15">
      <!-- 2.5 -->
      <g transform="translate(34.696875 63.715828) scale(0.1 -0.1)">
       <use xlink:href="#DejaVuSans-32"/>
       <use xlink:href="#DejaVuSans-2e" x="63.623047"/>
       <use xlink:href="#DejaVuSans-35" x="95.410156"/>
      </g>
     </g>
    </g>
   </g>
   <g id="line2d_15">
    <path d="M 73.832727 171.010601 
L 76.011617 235.758701 
L 78.190506 265.661795 
L 80.369396 257.455207 
L 82.548286 267.641239 
L 84.727175 272.01366 
L 86.906065 269.935726 
L 89.084954 271.400672 
L 91.263844 270.274038 
L 93.442733 270.880649 
L 95.621623 270.14303 
L 97.800513 269.791943 
L 99.979402 266.970153 
L 102.158292 270.986078 
L 104.337181 270.853909 
L 106.516071 260.544813 
L 108.69496 271.65409 
L 110.87385 269.584482 
L 113.052739 270.663315 
L 115.231629 269.946216 
L 117.410519 269.871921 
L 119.589408 271.077443 
L 121.768298 271.232844 
L 123.947187 271.59808 
L 126.126077 268.014842 
L 128.304966 271.269593 
L 130.483856 272.13021 
L 132.662746 271.661156 
L 134.841635 270.484883 
L 137.020525 271.671793 
L 139.199414 270.72224 
L 141.378304 271.593518 
L 143.557193 269.646562 
L 145.736083 271.04468 
L 147.914973 271.550153 
L 150.093862 271.182576 
L 152.272752 270.02328 
L 154.451641 271.294748 
L 156.630531 272.007537 
L 158.80942 271.865549 
L 160.98831 272.309458 
L 163.1672 270.593455 
L 165.346089 270.356192 
L 167.524979 272.176366 
L 169.703868 269.07326 
L 171.882758 270.797429 
L 174.061647 272.954477 
L 176.240537 272.091274 
L 178.419426 271.350932 
L 180.598316 272.320769 
L 182.777206 272.339585 
L 184.956095 271.623432 
L 187.134985 271.69525 
L 189.313874 270.662716 
L 191.492764 269.761474 
L 193.671653 271.682071 
L 195.850543 270.255338 
L 198.029433 271.36201 
L 200.208322 270.35585 
L 202.387212 270.976414 
L 204.566101 267.560187 
L 206.744991 272.27645 
L 208.92388 269.032095 
L 211.10277 268.415616 
L 213.28166 271.310883 
L 215.460549 271.713009 
L 217.639439 271.107159 
L 219.818328 271.808585 
L 221.997218 271.479578 
L 224.176107 268.635135 
L 226.354997 271.823359 
L 228.533887 272.010637 
L 230.712776 270.604955 
L 232.891666 270.162218 
L 235.070555 267.083131 
L 237.249445 271.356784 
L 239.428334 270.979281 
L 241.607224 272.08929 
L 243.786113 270.889997 
L 245.965003 271.843022 
L 248.143893 270.863989 
L 250.322782 272.415778 
L 252.501672 272.034729 
L 254.680561 271.073404 
L 256.859451 271.38139 
L 259.03834 272.550727 
L 261.21723 270.78681 
L 263.39612 272.575442 
L 265.575009 272.557084 
L 267.753899 271.798216 
L 269.932788 271.314435 
L 272.111678 269.749404 
L 274.290567 271.817977 
L 276.469457 271.197761 
L 278.648347 272.44276 
L 280.827236 271.074925 
L 283.006126 272.237776 
L 285.185015 273.240877 
L 287.363905 271.27869 
L 289.542794 270.79396 
L 291.721684 268.93325 
L 293.900574 269.81199 
L 296.079463 271.630539 
L 298.258353 272.851426 
L 300.437242 272.010236 
L 302.616132 273.60771 
L 304.795021 271.722578 
L 306.973911 273.025406 
L 309.1528 271.637938 
L 311.33169 273.295169 
L 313.51058 271.55739 
L 315.689469 272.424517 
L 317.868359 271.295554 
L 320.047248 272.288791 
L 322.226138 272.199456 
L 324.405027 266.290655 
L 326.583917 272.800582 
L 328.762807 270.521847 
L 330.941696 272.424724 
L 333.120586 272.803948 
L 335.299475 272.222367 
L 337.478365 270.062355 
L 339.657254 271.992863 
L 341.836144 268.531183 
L 344.015034 270.808663 
L 346.193923 272.382433 
L 348.372813 271.289746 
L 350.551702 272.959431 
L 352.730592 272.831364 
L 354.909481 271.972016 
L 357.088371 263.401291 
L 359.267261 271.757827 
L 361.44615 270.961274 
L 363.62504 273.078231 
L 365.803929 270.547867 
L 367.982819 269.59108 
L 370.161708 272.884703 
L 372.340598 266.81327 
L 374.519487 271.586439 
L 376.698377 272.409347 
L 378.877267 270.89723 
L 381.056156 271.2421 
L 383.235046 271.195679 
L 385.413935 271.82154 
L 387.592825 271.848254 
L 389.771714 271.292941 
L 391.950604 272.717527 
L 394.129494 271.052295 
L 396.308383 271.732037 
L 398.487273 272.669822 
L 398.487273 272.669822 
" clip-path="url(#p9ab828e3ac)" style="fill: none; stroke: #1f77b4; stroke-linecap: square"/>
   </g>
   <g id="line2d_16">
    <path d="M 73.832727 234.903973 
L 76.011617 242.113111 
L 78.190506 222.638087 
L 80.369396 240.429266 
L 82.548286 220.526707 
L 84.727175 242.248592 
L 86.906065 242.570046 
L 89.084954 246.294218 
L 91.263844 247.635251 
L 93.442733 241.664384 
L 95.621623 90.994405 
L 97.800513 242.670535 
L 99.979402 237.086005 
L 102.158292 254.313489 
L 104.337181 85.824 
L 106.516071 230.72328 
L 108.69496 240.216833 
L 110.87385 256.884314 
L 113.052739 257.267928 
L 115.231629 256.849995 
L 117.410519 237.187958 
L 119.589408 191.988339 
L 121.768298 256.141625 
L 123.947187 250.391635 
L 126.126077 255.859663 
L 128.304966 231.720414 
L 130.483856 259.061385 
L 132.662746 248.745079 
L 134.841635 260.896004 
L 137.020525 252.0034 
L 139.199414 259.54708 
L 141.378304 260.665385 
L 145.736083 250.022659 
L 147.914973 253.518082 
L 150.093862 238.317969 
L 152.272752 229.689264 
L 154.451641 237.497484 
L 156.630531 254.641527 
L 158.80942 257.903804 
L 160.98831 259.536026 
L 163.1672 259.740774 
L 165.346089 253.098047 
L 167.524979 258.686389 
L 169.703868 260.789454 
L 171.882758 252.280863 
L 174.061647 259.231817 
L 176.240537 239.948163 
L 178.419426 261.642378 
L 180.598316 258.243153 
L 182.777206 261.16588 
L 184.956095 253.065493 
L 187.134985 244.396541 
L 189.313874 260.978882 
L 191.492764 260.618066 
L 193.671653 260.509715 
L 195.850543 256.14756 
L 198.029433 257.184894 
L 200.208322 249.681719 
L 202.387212 253.245396 
L 204.566101 259.598827 
L 206.744991 254.71574 
L 208.92388 250.29985 
L 211.10277 260.439719 
L 213.28166 260.784202 
L 215.460549 257.28879 
L 217.639439 260.62103 
L 219.818328 258.9086 
L 221.997218 259.808195 
L 224.176107 257.473275 
L 226.354997 257.194578 
L 228.533887 255.036391 
L 230.712776 258.61083 
L 232.891666 258.057676 
L 237.249445 244.786851 
L 239.428334 254.749651 
L 241.607224 254.943413 
L 243.786113 250.264834 
L 245.965003 252.606403 
L 248.143893 255.424009 
L 250.322782 256.743093 
L 252.501672 257.050211 
L 254.680561 258.976825 
L 256.859451 256.714839 
L 259.03834 255.088678 
L 261.21723 256.54332 
L 265.575009 256.668007 
L 267.753899 259.09297 
L 269.932788 259.71432 
L 272.111678 257.076865 
L 274.290567 259.792742 
L 276.469457 257.524654 
L 278.648347 253.006445 
L 280.827236 255.706591 
L 283.006126 257.939989 
L 285.185015 255.353027 
L 287.363905 251.893203 
L 289.542794 249.555219 
L 291.721684 253.318758 
L 293.900574 254.162798 
L 296.079463 249.209443 
L 298.258353 252.925318 
L 300.437242 256.951422 
L 302.616132 244.308169 
L 304.795021 255.548961 
L 306.973911 251.19075 
L 309.1528 256.592124 
L 311.33169 257.597159 
L 313.51058 251.942296 
L 315.689469 247.455495 
L 317.868359 257.710674 
L 320.047248 254.842227 
L 322.226138 248.73213 
L 324.405027 258.359809 
L 326.583917 251.931095 
L 328.762807 259.099498 
L 330.941696 254.076463 
L 333.120586 258.941552 
L 335.299475 260.458083 
L 337.478365 252.683733 
L 339.657254 255.31732 
L 341.836144 258.371799 
L 346.193923 254.952819 
L 348.372813 258.45542 
L 350.551702 253.830579 
L 352.730592 253.942718 
L 354.909481 257.422134 
L 357.088371 255.297173 
L 359.267261 251.364625 
L 361.44615 247.120879 
L 363.62504 255.487031 
L 365.803929 255.511843 
L 367.982819 253.464106 
L 370.161708 259.018283 
L 372.340598 254.746108 
L 374.519487 255.542773 
L 376.698377 260.303092 
L 378.877267 248.755614 
L 381.056156 255.502425 
L 383.235046 255.259122 
L 385.413935 243.158411 
L 387.592825 257.497763 
L 389.771714 255.697303 
L 391.950604 256.721812 
L 394.129494 254.982934 
L 396.308383 253.525759 
L 398.487273 257.640371 
L 398.487273 257.640371 
" clip-path="url(#p9ab828e3ac)" style="fill: none; stroke: #ff7f0e; stroke-linecap: square"/>
   </g>
   <g id="line2d_17">
    <path d="M 73.832727 110.633963 
L 76.011617 178.643022 
L 78.190506 257.328034 
L 80.369396 236.464932 
L 82.548286 205.392929 
L 84.727175 252.514258 
L 86.906065 228.594947 
L 89.084954 269.033526 
L 91.263844 268.591079 
L 93.442733 268.95917 
L 95.621623 270.471048 
L 97.800513 270.116742 
L 99.979402 255.874726 
L 102.158292 267.870501 
L 104.337181 258.848613 
L 106.516071 262.812574 
L 108.69496 257.840043 
L 110.87385 270.261479 
L 113.052739 269.210433 
L 115.231629 263.778729 
L 117.410519 260.092272 
L 119.589408 269.37842 
L 121.768298 270.685497 
L 123.947187 265.086261 
L 126.126077 270.542806 
L 128.304966 265.767515 
L 130.483856 265.066344 
L 132.662746 271.150681 
L 134.841635 270.674408 
L 137.020525 269.626394 
L 139.199414 269.881171 
L 141.378304 270.936435 
L 143.557193 269.044997 
L 145.736083 268.246744 
L 147.914973 271.121579 
L 150.093862 269.191602 
L 152.272752 268.539727 
L 154.451641 270.797763 
L 156.630531 270.681765 
L 158.80942 268.153116 
L 160.98831 270.970309 
L 163.1672 265.055933 
L 165.346089 270.701148 
L 167.524979 266.538931 
L 169.703868 263.015441 
L 171.882758 269.068288 
L 174.061647 269.18224 
L 176.240537 271.664994 
L 178.419426 270.986213 
L 180.598316 271.048521 
L 182.777206 270.669235 
L 184.956095 270.051995 
L 187.134985 270.985806 
L 189.313874 268.926749 
L 191.492764 271.034078 
L 193.671653 269.566882 
L 195.850543 271.104107 
L 198.029433 267.583773 
L 200.208322 269.542776 
L 202.387212 270.288393 
L 204.566101 271.159013 
L 206.744991 270.13179 
L 208.92388 269.884693 
L 211.10277 270.710728 
L 213.28166 269.833551 
L 215.460549 270.523917 
L 217.639439 268.562606 
L 219.818328 267.631071 
L 221.997218 268.563642 
L 224.176107 270.276433 
L 228.533887 269.59142 
L 230.712776 270.157131 
L 232.891666 270.191728 
L 235.070555 271.148674 
L 237.249445 271.415691 
L 239.428334 270.713654 
L 241.607224 270.978017 
L 243.786113 271.37175 
L 245.965003 271.218944 
L 248.143893 270.803851 
L 250.322782 270.79469 
L 252.501672 270.370352 
L 254.680561 270.974554 
L 256.859451 268.285668 
L 259.03834 269.955197 
L 261.21723 271.425009 
L 263.39612 269.582737 
L 265.575009 270.482739 
L 267.753899 270.287377 
L 269.932788 271.849816 
L 272.111678 269.796046 
L 274.290567 270.928697 
L 276.469457 270.880735 
L 278.648347 266.988745 
L 280.827236 271.235971 
L 283.006126 269.771276 
L 285.185015 266.373911 
L 287.363905 271.096864 
L 289.542794 265.336573 
L 291.721684 269.261085 
L 293.900574 270.756252 
L 296.079463 270.785989 
L 298.258353 265.595138 
L 300.437242 271.807067 
L 302.616132 263.533471 
L 304.795021 267.520686 
L 306.973911 270.708868 
L 309.1528 269.606893 
L 311.33169 269.995279 
L 313.51058 270.117439 
L 315.689469 271.229585 
L 317.868359 268.74568 
L 320.047248 270.262999 
L 322.226138 271.160483 
L 324.405027 271.182381 
L 326.583917 271.485982 
L 328.762807 271.212963 
L 330.941696 269.756643 
L 333.120586 271.057441 
L 335.299475 269.139409 
L 337.478365 266.166884 
L 339.657254 270.414934 
L 341.836144 272.086644 
L 344.015034 270.175324 
L 346.193923 271.849057 
L 348.372813 271.124995 
L 350.551702 271.457211 
L 352.730592 270.306987 
L 354.909481 270.283988 
L 357.088371 271.399311 
L 359.267261 268.709997 
L 361.44615 271.693508 
L 363.62504 270.676891 
L 365.803929 270.84933 
L 367.982819 271.922782 
L 370.161708 266.079545 
L 372.340598 270.956757 
L 374.519487 271.003707 
L 376.698377 270.436687 
L 378.877267 268.519686 
L 381.056156 268.934883 
L 383.235046 267.842742 
L 385.413935 272.066612 
L 387.592825 269.639196 
L 391.950604 271.567195 
L 394.129494 267.642494 
L 396.308383 270.421099 
L 398.487273 269.255286 
L 398.487273 269.255286 
" clip-path="url(#p9ab828e3ac)" style="fill: none; stroke: #2ca02c; stroke-linecap: square"/>
   </g>
   <g id="line2d_18">
    <path d="M 73.832727 235.946764 
L 76.011617 222.707351 
L 78.190506 107.462018 
L 80.369396 170.721747 
L 84.727175 240.770738 
L 86.906065 234.202453 
L 89.084954 239.574952 
L 91.263844 223.839287 
L 93.442733 242.129403 
L 95.621623 258.440995 
L 97.800513 264.586707 
L 99.979402 266.992707 
L 104.337181 267.039302 
L 106.516071 268.452046 
L 108.69496 268.506873 
L 110.87385 267.553505 
L 113.052739 265.143281 
L 115.231629 269.544999 
L 117.410519 268.501641 
L 119.589408 269.214047 
L 121.768298 264.04197 
L 123.947187 265.76009 
L 126.126077 267.996756 
L 128.304966 269.379498 
L 130.483856 269.8689 
L 132.662746 270.621308 
L 134.841635 269.406748 
L 137.020525 270.795546 
L 139.199414 270.341734 
L 141.378304 269.436574 
L 143.557193 271.62433 
L 145.736083 268.310554 
L 147.914973 270.666731 
L 150.093862 271.063168 
L 152.272752 268.818327 
L 154.451641 270.514304 
L 156.630531 270.341312 
L 158.80942 271.062513 
L 160.98831 270.138483 
L 163.1672 270.894411 
L 165.346089 269.979882 
L 167.524979 266.751621 
L 169.703868 265.607674 
L 171.882758 268.907836 
L 174.061647 270.410169 
L 178.419426 269.248153 
L 180.598316 268.556491 
L 182.777206 270.562115 
L 184.956095 265.914697 
L 187.134985 269.727435 
L 189.313874 271.068967 
L 191.492764 270.404854 
L 193.671653 270.449557 
L 195.850543 267.273964 
L 198.029433 269.923396 
L 200.208322 269.958604 
L 202.387212 267.531997 
L 204.566101 269.837614 
L 206.744991 268.559178 
L 208.92388 268.862215 
L 211.10277 269.630306 
L 213.28166 269.843902 
L 215.460549 270.812401 
L 217.639439 270.48736 
L 219.818328 270.397665 
L 221.997218 271.415221 
L 224.176107 270.428252 
L 228.533887 271.027426 
L 230.712776 271.46003 
L 232.891666 271.264096 
L 235.070555 267.554426 
L 237.249445 270.262007 
L 239.428334 271.83304 
L 241.607224 270.16678 
L 243.786113 269.867711 
L 245.965003 270.738204 
L 248.143893 270.787161 
L 250.322782 271.629311 
L 252.501672 267.122578 
L 254.680561 268.892504 
L 256.859451 271.266109 
L 259.03834 269.613852 
L 261.21723 271.239871 
L 263.39612 270.451435 
L 265.575009 271.311854 
L 269.932788 268.191256 
L 272.111678 271.288258 
L 276.469457 270.870461 
L 278.648347 269.7391 
L 280.827236 269.340617 
L 283.006126 270.681181 
L 285.185015 269.842414 
L 287.363905 268.525754 
L 289.542794 268.287204 
L 291.721684 265.327495 
L 293.900574 267.87408 
L 296.079463 270.686247 
L 298.258353 271.262537 
L 300.437242 270.358737 
L 302.616132 270.980338 
L 304.795021 271.472298 
L 306.973911 271.034158 
L 309.1528 271.002608 
L 311.33169 270.828607 
L 313.51058 268.550014 
L 315.689469 264.49652 
L 317.868359 267.16977 
L 320.047248 269.368016 
L 322.226138 270.28986 
L 324.405027 269.422482 
L 326.583917 271.101999 
L 328.762807 270.105083 
L 330.941696 267.370413 
L 333.120586 271.069324 
L 335.299475 269.900332 
L 337.478365 270.773163 
L 339.657254 267.547736 
L 341.836144 271.472324 
L 344.015034 270.177131 
L 346.193923 262.656831 
L 348.372813 269.046886 
L 350.551702 270.575256 
L 352.730592 269.108807 
L 354.909481 271.090912 
L 357.088371 269.679095 
L 359.267261 270.586709 
L 361.44615 271.342001 
L 363.62504 270.786745 
L 365.803929 269.642668 
L 367.982819 270.996066 
L 370.161708 267.911079 
L 372.340598 269.378476 
L 374.519487 269.547998 
L 376.698377 266.577469 
L 378.877267 270.212244 
L 381.056156 271.076944 
L 383.235046 267.340219 
L 385.413935 271.209172 
L 387.592825 267.220965 
L 389.771714 271.611348 
L 391.950604 269.897415 
L 394.129494 269.905325 
L 396.308383 271.111662 
L 398.487273 268.122815 
L 398.487273 268.122815 
" clip-path="url(#p9ab828e3ac)" style="fill: none; stroke: #d62728; stroke-linecap: square"/>
   </g>
   <g id="patch_3">
    <path d="M 57.6 307.584 
L 57.6 41.472 
" style="fill: none; stroke: #000000; stroke-width: 0.8; stroke-linejoin: miter; stroke-linecap: square"/>
   </g>
   <g id="patch_4">
    <path d="M 414.72 307.584 
L 414.72 41.472 
" style="fill: none; stroke: #000000; stroke-width: 0.8; stroke-linejoin: miter; stroke-linecap: square"/>
   </g>
   <g id="patch_5">
    <path d="M 57.6 307.584 
L 414.72 307.584 
" style="fill: none; stroke: #000000; stroke-width: 0.8; stroke-linejoin: miter; stroke-linecap: square"/>
   </g>
   <g id="patch_6">
    <path d="M 57.6 41.472 
L 414.72 41.472 
" style="fill: none; stroke: #000000; stroke-width: 0.8; stroke-linejoin: miter; stroke-linecap: square"/>
   </g>
   <g id="text_16">
    <!-- CrossEntropyLoss of P_DENS -->
    <g transform="translate(150.3225 35.472) scale(0.12 -0.12)">
     <defs>
      <path id="DejaVuSans-43" d="M 4122 4306 
L 4122 3641 
Q 3803 3938 3442 4084 
Q 3081 4231 2675 4231 
Q 1875 4231 1450 3742 
Q 1025 3253 1025 2328 
Q 1025 1406 1450 917 
Q 1875 428 2675 428 
Q 3081 428 3442 575 
Q 3803 722 4122 1019 
L 4122 359 
Q 3791 134 3420 21 
Q 3050 -91 2638 -91 
Q 1578 -91 968 557 
Q 359 1206 359 2328 
Q 359 3453 968 4101 
Q 1578 4750 2638 4750 
Q 3056 4750 3426 4639 
Q 3797 4528 4122 4306 
z
" transform="scale(0.015625)"/>
      <path id="DejaVuSans-72" d="M 2631 2963 
Q 2534 3019 2420 3045 
Q 2306 3072 2169 3072 
Q 1681 3072 1420 2755 
Q 1159 2438 1159 1844 
L 1159 0 
L 581 0 
L 581 3500 
L 1159 3500 
L 1159 2956 
Q 1341 3275 1631 3429 
Q 1922 3584 2338 3584 
Q 2397 3584 2469 3576 
Q 2541 3569 2628 3553 
L 2631 2963 
z
" transform="scale(0.015625)"/>
      <path id="DejaVuSans-73" d="M 2834 3397 
L 2834 2853 
Q 2591 2978 2328 3040 
Q 2066 3103 1784 3103 
Q 1356 3103 1142 2972 
Q 928 2841 928 2578 
Q 928 2378 1081 2264 
Q 1234 2150 1697 2047 
L 1894 2003 
Q 2506 1872 2764 1633 
Q 3022 1394 3022 966 
Q 3022 478 2636 193 
Q 2250 -91 1575 -91 
Q 1294 -91 989 -36 
Q 684 19 347 128 
L 347 722 
Q 666 556 975 473 
Q 1284 391 1588 391 
Q 1994 391 2212 530 
Q 2431 669 2431 922 
Q 2431 1156 2273 1281 
Q 2116 1406 1581 1522 
L 1381 1569 
Q 847 1681 609 1914 
Q 372 2147 372 2553 
Q 372 3047 722 3315 
Q 1072 3584 1716 3584 
Q 2034 3584 2315 3537 
Q 2597 3491 2834 3397 
z
" transform="scale(0.015625)"/>
      <path id="DejaVuSans-45" d="M 628 4666 
L 3578 4666 
L 3578 4134 
L 1259 4134 
L 1259 2753 
L 3481 2753 
L 3481 2222 
L 1259 2222 
L 1259 531 
L 3634 531 
L 3634 0 
L 628 0 
L 628 4666 
z
" transform="scale(0.015625)"/>
      <path id="DejaVuSans-6e" d="M 3513 2113 
L 3513 0 
L 2938 0 
L 2938 2094 
Q 2938 2591 2744 2837 
Q 2550 3084 2163 3084 
Q 1697 3084 1428 2787 
Q 1159 2491 1159 1978 
L 1159 0 
L 581 0 
L 581 3500 
L 1159 3500 
L 1159 2956 
Q 1366 3272 1645 3428 
Q 1925 3584 2291 3584 
Q 2894 3584 3203 3211 
Q 3513 2838 3513 2113 
z
" transform="scale(0.015625)"/>
      <path id="DejaVuSans-74" d="M 1172 4494 
L 1172 3500 
L 2356 3500 
L 2356 3053 
L 1172 3053 
L 1172 1153 
Q 1172 725 1289 603 
Q 1406 481 1766 481 
L 2356 481 
L 2356 0 
L 1766 0 
Q 1100 0 847 248 
Q 594 497 594 1153 
L 594 3053 
L 172 3053 
L 172 3500 
L 594 3500 
L 594 4494 
L 1172 4494 
z
" transform="scale(0.015625)"/>
      <path id="DejaVuSans-79" d="M 2059 -325 
Q 1816 -950 1584 -1140 
Q 1353 -1331 966 -1331 
L 506 -1331 
L 506 -850 
L 844 -850 
Q 1081 -850 1212 -737 
Q 1344 -625 1503 -206 
L 1606 56 
L 191 3500 
L 800 3500 
L 1894 763 
L 2988 3500 
L 3597 3500 
L 2059 -325 
z
" transform="scale(0.015625)"/>
      <path id="DejaVuSans-4c" d="M 628 4666 
L 1259 4666 
L 1259 531 
L 3531 531 
L 3531 0 
L 628 0 
L 628 4666 
z
" transform="scale(0.015625)"/>
      <path id="DejaVuSans-20" transform="scale(0.015625)"/>
      <path id="DejaVuSans-66" d="M 2375 4863 
L 2375 4384 
L 1825 4384 
Q 1516 4384 1395 4259 
Q 1275 4134 1275 3809 
L 1275 3500 
L 2222 3500 
L 2222 3053 
L 1275 3053 
L 1275 0 
L 697 0 
L 697 3053 
L 147 3053 
L 147 3500 
L 697 3500 
L 697 3744 
Q 697 4328 969 4595 
Q 1241 4863 1831 4863 
L 2375 4863 
z
" transform="scale(0.015625)"/>
      <path id="DejaVuSans-50" d="M 1259 4147 
L 1259 2394 
L 2053 2394 
Q 2494 2394 2734 2622 
Q 2975 2850 2975 3272 
Q 2975 3691 2734 3919 
Q 2494 4147 2053 4147 
L 1259 4147 
z
M 628 4666 
L 2053 4666 
Q 2838 4666 3239 4311 
Q 3641 3956 3641 3272 
Q 3641 2581 3239 2228 
Q 2838 1875 2053 1875 
L 1259 1875 
L 1259 0 
L 628 0 
L 628 4666 
z
" transform="scale(0.015625)"/>
      <path id="DejaVuSans-5f" d="M 3263 -1063 
L 3263 -1509 
L -63 -1509 
L -63 -1063 
L 3263 -1063 
z
" transform="scale(0.015625)"/>
      <path id="DejaVuSans-44" d="M 1259 4147 
L 1259 519 
L 2022 519 
Q 2988 519 3436 956 
Q 3884 1394 3884 2338 
Q 3884 3275 3436 3711 
Q 2988 4147 2022 4147 
L 1259 4147 
z
M 628 4666 
L 1925 4666 
Q 3281 4666 3915 4102 
Q 4550 3538 4550 2338 
Q 4550 1131 3912 565 
Q 3275 0 1925 0 
L 628 0 
L 628 4666 
z
" transform="scale(0.015625)"/>
      <path id="DejaVuSans-4e" d="M 628 4666 
L 1478 4666 
L 3547 763 
L 3547 4666 
L 4159 4666 
L 4159 0 
L 3309 0 
L 1241 3903 
L 1241 0 
L 628 0 
L 628 4666 
z
" transform="scale(0.015625)"/>
      <path id="DejaVuSans-53" d="M 3425 4513 
L 3425 3897 
Q 3066 4069 2747 4153 
Q 2428 4238 2131 4238 
Q 1616 4238 1336 4038 
Q 1056 3838 1056 3469 
Q 1056 3159 1242 3001 
Q 1428 2844 1947 2747 
L 2328 2669 
Q 3034 2534 3370 2195 
Q 3706 1856 3706 1288 
Q 3706 609 3251 259 
Q 2797 -91 1919 -91 
Q 1588 -91 1214 -16 
Q 841 59 441 206 
L 441 856 
Q 825 641 1194 531 
Q 1563 422 1919 422 
Q 2459 422 2753 634 
Q 3047 847 3047 1241 
Q 3047 1584 2836 1778 
Q 2625 1972 2144 2069 
L 1759 2144 
Q 1053 2284 737 2584 
Q 422 2884 422 3419 
Q 422 4038 858 4394 
Q 1294 4750 2059 4750 
Q 2388 4750 2728 4690 
Q 3069 4631 3425 4513 
z
" transform="scale(0.015625)"/>
     </defs>
     <use xlink:href="#DejaVuSans-43"/>
     <use xlink:href="#DejaVuSans-72" x="69.824219"/>
     <use xlink:href="#DejaVuSans-6f" x="108.6875"/>
     <use xlink:href="#DejaVuSans-73" x="169.869141"/>
     <use xlink:href="#DejaVuSans-73" x="221.96875"/>
     <use xlink:href="#DejaVuSans-45" x="274.068359"/>
     <use xlink:href="#DejaVuSans-6e" x="337.251953"/>
     <use xlink:href="#DejaVuSans-74" x="400.630859"/>
     <use xlink:href="#DejaVuSans-72" x="439.839844"/>
     <use xlink:href="#DejaVuSans-6f" x="478.703125"/>
     <use xlink:href="#DejaVuSans-70" x="539.884766"/>
     <use xlink:href="#DejaVuSans-79" x="603.361328"/>
     <use xlink:href="#DejaVuSans-4c" x="662.541016"/>
     <use xlink:href="#DejaVuSans-6f" x="716.503906"/>
     <use xlink:href="#DejaVuSans-73" x="777.685547"/>
     <use xlink:href="#DejaVuSans-73" x="829.785156"/>
     <use xlink:href="#DejaVuSans-20" x="881.884766"/>
     <use xlink:href="#DejaVuSans-6f" x="913.671875"/>
     <use xlink:href="#DejaVuSans-66" x="974.853516"/>
     <use xlink:href="#DejaVuSans-20" x="1010.058594"/>
     <use xlink:href="#DejaVuSans-50" x="1041.845703"/>
     <use xlink:href="#DejaVuSans-5f" x="1102.148438"/>
     <use xlink:href="#DejaVuSans-44" x="1152.148438"/>
     <use xlink:href="#DejaVuSans-45" x="1229.150391"/>
     <use xlink:href="#DejaVuSans-4e" x="1292.333984"/>
     <use xlink:href="#DejaVuSans-53" x="1367.138672"/>
    </g>
   </g>
   <g id="legend_1">
    <g id="patch_7">
     <path d="M 299.162188 108.1845 
L 407.72 108.1845 
Q 409.72 108.1845 409.72 106.1845 
L 409.72 48.472 
Q 409.72 46.472 407.72 46.472 
L 299.162188 46.472 
Q 297.162188 46.472 297.162188 48.472 
L 297.162188 106.1845 
Q 297.162188 108.1845 299.162188 108.1845 
z
" style="fill: #ffffff; opacity: 0.8; stroke: #cccccc; stroke-linejoin: miter"/>
    </g>
    <g id="line2d_19">
     <path d="M 301.162188 54.570438 
L 311.162188 54.570438 
L 321.162188 54.570438 
" style="fill: none; stroke: #1f77b4; stroke-linecap: square"/>
    </g>
    <g id="text_17">
     <!-- 2000 samples -->
     <g transform="translate(329.162188 58.070438) scale(0.1 -0.1)">
      <defs>
       <path id="DejaVuSans-61" d="M 2194 1759 
Q 1497 1759 1228 1600 
Q 959 1441 959 1056 
Q 959 750 1161 570 
Q 1363 391 1709 391 
Q 2188 391 2477 730 
Q 2766 1069 2766 1631 
L 2766 1759 
L 2194 1759 
z
M 3341 1997 
L 3341 0 
L 2766 0 
L 2766 531 
Q 2569 213 2275 61 
Q 1981 -91 1556 -91 
Q 1019 -91 701 211 
Q 384 513 384 1019 
Q 384 1609 779 1909 
Q 1175 2209 1959 2209 
L 2766 2209 
L 2766 2266 
Q 2766 2663 2505 2880 
Q 2244 3097 1772 3097 
Q 1472 3097 1187 3025 
Q 903 2953 641 2809 
L 641 3341 
Q 956 3463 1253 3523 
Q 1550 3584 1831 3584 
Q 2591 3584 2966 3190 
Q 3341 2797 3341 1997 
z
" transform="scale(0.015625)"/>
       <path id="DejaVuSans-6d" d="M 3328 2828 
Q 3544 3216 3844 3400 
Q 4144 3584 4550 3584 
Q 5097 3584 5394 3201 
Q 5691 2819 5691 2113 
L 5691 0 
L 5113 0 
L 5113 2094 
Q 5113 2597 4934 2840 
Q 4756 3084 4391 3084 
Q 3944 3084 3684 2787 
Q 3425 2491 3425 1978 
L 3425 0 
L 2847 0 
L 2847 2094 
Q 2847 2600 2669 2842 
Q 2491 3084 2119 3084 
Q 1678 3084 1418 2786 
Q 1159 2488 1159 1978 
L 1159 0 
L 581 0 
L 581 3500 
L 1159 3500 
L 1159 2956 
Q 1356 3278 1631 3431 
Q 1906 3584 2284 3584 
Q 2666 3584 2933 3390 
Q 3200 3197 3328 2828 
z
" transform="scale(0.015625)"/>
       <path id="DejaVuSans-6c" d="M 603 4863 
L 1178 4863 
L 1178 0 
L 603 0 
L 603 4863 
z
" transform="scale(0.015625)"/>
      </defs>
      <use xlink:href="#DejaVuSans-32"/>
      <use xlink:href="#DejaVuSans-30" x="63.623047"/>
      <use xlink:href="#DejaVuSans-30" x="127.246094"/>
      <use xlink:href="#DejaVuSans-30" x="190.869141"/>
      <use xlink:href="#DejaVuSans-20" x="254.492188"/>
      <use xlink:href="#DejaVuSans-73" x="286.279297"/>
      <use xlink:href="#DejaVuSans-61" x="338.378906"/>
      <use xlink:href="#DejaVuSans-6d" x="399.658203"/>
      <use xlink:href="#DejaVuSans-70" x="497.070312"/>
      <use xlink:href="#DejaVuSans-6c" x="560.546875"/>
      <use xlink:href="#DejaVuSans-65" x="588.330078"/>
      <use xlink:href="#DejaVuSans-73" x="649.853516"/>
     </g>
    </g>
    <g id="line2d_20">
     <path d="M 301.162188 69.248563 
L 311.162188 69.248563 
L 321.162188 69.248563 
" style="fill: none; stroke: #ff7f0e; stroke-linecap: square"/>
    </g>
    <g id="text_18">
     <!-- 5000 samples -->
     <g transform="translate(329.162188 72.748563) scale(0.1 -0.1)">
      <use xlink:href="#DejaVuSans-35"/>
      <use xlink:href="#DejaVuSans-30" x="63.623047"/>
      <use xlink:href="#DejaVuSans-30" x="127.246094"/>
      <use xlink:href="#DejaVuSans-30" x="190.869141"/>
      <use xlink:href="#DejaVuSans-20" x="254.492188"/>
      <use xlink:href="#DejaVuSans-73" x="286.279297"/>
      <use xlink:href="#DejaVuSans-61" x="338.378906"/>
      <use xlink:href="#DejaVuSans-6d" x="399.658203"/>
      <use xlink:href="#DejaVuSans-70" x="497.070312"/>
      <use xlink:href="#DejaVuSans-6c" x="560.546875"/>
      <use xlink:href="#DejaVuSans-65" x="588.330078"/>
      <use xlink:href="#DejaVuSans-73" x="649.853516"/>
     </g>
    </g>
    <g id="line2d_21">
     <path d="M 301.162188 83.926688 
L 311.162188 83.926688 
L 321.162188 83.926688 
" style="fill: none; stroke: #2ca02c; stroke-linecap: square"/>
    </g>
    <g id="text_19">
     <!-- 8000 samples -->
     <g transform="translate(329.162188 87.426688) scale(0.1 -0.1)">
      <use xlink:href="#DejaVuSans-38"/>
      <use xlink:href="#DejaVuSans-30" x="63.623047"/>
      <use xlink:href="#DejaVuSans-30" x="127.246094"/>
      <use xlink:href="#DejaVuSans-30" x="190.869141"/>
      <use xlink:href="#DejaVuSans-20" x="254.492188"/>
      <use xlink:href="#DejaVuSans-73" x="286.279297"/>
      <use xlink:href="#DejaVuSans-61" x="338.378906"/>
      <use xlink:href="#DejaVuSans-6d" x="399.658203"/>
      <use xlink:href="#DejaVuSans-70" x="497.070312"/>
      <use xlink:href="#DejaVuSans-6c" x="560.546875"/>
      <use xlink:href="#DejaVuSans-65" x="588.330078"/>
      <use xlink:href="#DejaVuSans-73" x="649.853516"/>
     </g>
    </g>
    <g id="line2d_22">
     <path d="M 301.162188 98.604813 
L 311.162188 98.604813 
L 321.162188 98.604813 
" style="fill: none; stroke: #d62728; stroke-linecap: square"/>
    </g>
    <g id="text_20">
     <!-- 10000 samples -->
     <g transform="translate(329.162188 102.104813) scale(0.1 -0.1)">
      <use xlink:href="#DejaVuSans-31"/>
      <use xlink:href="#DejaVuSans-30" x="63.623047"/>
      <use xlink:href="#DejaVuSans-30" x="127.246094"/>
      <use xlink:href="#DejaVuSans-30" x="190.869141"/>
      <use xlink:href="#DejaVuSans-30" x="254.492188"/>
      <use xlink:href="#DejaVuSans-20" x="318.115234"/>
      <use xlink:href="#DejaVuSans-73" x="349.902344"/>
      <use xlink:href="#DejaVuSans-61" x="402.001953"/>
      <use xlink:href="#DejaVuSans-6d" x="463.28125"/>
      <use xlink:href="#DejaVuSans-70" x="560.693359"/>
      <use xlink:href="#DejaVuSans-6c" x="624.169922"/>
      <use xlink:href="#DejaVuSans-65" x="651.953125"/>
      <use xlink:href="#DejaVuSans-73" x="713.476562"/>
     </g>
    </g>
   </g>
  </g>
 </g>
 <defs>
  <clipPath id="p9ab828e3ac">
   <rect x="57.6" y="41.472" width="357.12" height="266.112"/>
  </clipPath>
 </defs>
</svg>
