<?xml version="1.0" encoding="utf-8" standalone="no"?>
<!DOCTYPE svg PUBLIC "-//W3C//DTD SVG 1.1//EN"
  "http://www.w3.org/Graphics/SVG/1.1/DTD/svg11.dtd">
<svg xmlns:xlink="http://www.w3.org/1999/xlink" width="460.8pt" height="345.6pt" viewBox="0 0 460.8 345.6" xmlns="http://www.w3.org/2000/svg" version="1.1">
 <metadata>
  <rdf:RDF xmlns:dc="http://purl.org/dc/elements/1.1/" xmlns:cc="http://creativecommons.org/ns#" xmlns:rdf="http://www.w3.org/1999/02/22-rdf-syntax-ns#">
   <cc:Work>
    <dc:type rdf:resource="http://purl.org/dc/dcmitype/StillImage"/>
    <dc:date>2023-09-13T16:28:03.710674</dc:date>
    <dc:format>image/svg+xml</dc:format>
    <dc:creator>
     <cc:Agent>
      <dc:title>Matplotlib v3.7.1, https://matplotlib.org/</dc:title>
     </cc:Agent>
    </dc:creator>
   </cc:Work>
  </rdf:RDF>
 </metadata>
 <defs>
  <style type="text/css">*{stroke-linejoin: round; stroke-linecap: butt}</style>
 </defs>
 <g id="figure_1">
  <g id="patch_1">
   <path d="M 0 345.6 
L 460.8 345.6 
L 460.8 0 
L 0 0 
z
" style="fill: #ffffff"/>
  </g>
  <g id="axes_1">
   <g id="patch_2">
    <path d="M 57.6 307.584 
L 414.72 307.584 
L 414.72 41.472 
L 57.6 41.472 
z
" style="fill: #ffffff"/>
   </g>
   <g id="matplotlib.axis_1">
    <g id="xtick_1">
     <g id="line2d_1">
      <defs>
       <path id="m2c4b2c855a" d="M 0 0 
L 0 3.5 
" style="stroke: #000000; stroke-width: 0.8"/>
      </defs>
      <g>
       <use xlink:href="#m2c4b2c855a" x="71.653838" y="307.584" style="stroke: #000000; stroke-width: 0.8"/>
      </g>
     </g>
     <g id="text_1">
      <!-- 0 -->
      <g transform="translate(68.472588 322.182437) scale(0.1 -0.1)">
       <defs>
        <path id="DejaVuSans-30" d="M 2034 4250 
Q 1547 4250 1301 3770 
Q 1056 3291 1056 2328 
Q 1056 1369 1301 889 
Q 1547 409 2034 409 
Q 2525 409 2770 889 
Q 3016 1369 3016 2328 
Q 3016 3291 2770 3770 
Q 2525 4250 2034 4250 
z
M 2034 4750 
Q 2819 4750 3233 4129 
Q 3647 3509 3647 2328 
Q 3647 1150 3233 529 
Q 2819 -91 2034 -91 
Q 1250 -91 836 529 
Q 422 1150 422 2328 
Q 422 3509 836 4129 
Q 1250 4750 2034 4750 
z
" transform="scale(0.015625)"/>
       </defs>
       <use xlink:href="#DejaVuSans-30"/>
      </g>
     </g>
    </g>
    <g id="xtick_2">
     <g id="line2d_2">
      <g>
       <use xlink:href="#m2c4b2c855a" x="115.231629" y="307.584" style="stroke: #000000; stroke-width: 0.8"/>
      </g>
     </g>
     <g id="text_2">
      <!-- 20 -->
      <g transform="translate(108.869129 322.182437) scale(0.1 -0.1)">
       <defs>
        <path id="DejaVuSans-32" d="M 1228 531 
L 3431 531 
L 3431 0 
L 469 0 
L 469 531 
Q 828 903 1448 1529 
Q 2069 2156 2228 2338 
Q 2531 2678 2651 2914 
Q 2772 3150 2772 3378 
Q 2772 3750 2511 3984 
Q 2250 4219 1831 4219 
Q 1534 4219 1204 4116 
Q 875 4013 500 3803 
L 500 4441 
Q 881 4594 1212 4672 
Q 1544 4750 1819 4750 
Q 2544 4750 2975 4387 
Q 3406 4025 3406 3419 
Q 3406 3131 3298 2873 
Q 3191 2616 2906 2266 
Q 2828 2175 2409 1742 
Q 1991 1309 1228 531 
z
" transform="scale(0.015625)"/>
       </defs>
       <use xlink:href="#DejaVuSans-32"/>
       <use xlink:href="#DejaVuSans-30" x="63.623047"/>
      </g>
     </g>
    </g>
    <g id="xtick_3">
     <g id="line2d_3">
      <g>
       <use xlink:href="#m2c4b2c855a" x="158.80942" y="307.584" style="stroke: #000000; stroke-width: 0.8"/>
      </g>
     </g>
     <g id="text_3">
      <!-- 40 -->
      <g transform="translate(152.44692 322.182437) scale(0.1 -0.1)">
       <defs>
        <path id="DejaVuSans-34" d="M 2419 4116 
L 825 1625 
L 2419 1625 
L 2419 4116 
z
M 2253 4666 
L 3047 4666 
L 3047 1625 
L 3713 1625 
L 3713 1100 
L 3047 1100 
L 3047 0 
L 2419 0 
L 2419 1100 
L 313 1100 
L 313 1709 
L 2253 4666 
z
" transform="scale(0.015625)"/>
       </defs>
       <use xlink:href="#DejaVuSans-34"/>
       <use xlink:href="#DejaVuSans-30" x="63.623047"/>
      </g>
     </g>
    </g>
    <g id="xtick_4">
     <g id="line2d_4">
      <g>
       <use xlink:href="#m2c4b2c855a" x="202.387212" y="307.584" style="stroke: #000000; stroke-width: 0.8"/>
      </g>
     </g>
     <g id="text_4">
      <!-- 60 -->
      <g transform="translate(196.024712 322.182437) scale(0.1 -0.1)">
       <defs>
        <path id="DejaVuSans-36" d="M 2113 2584 
Q 1688 2584 1439 2293 
Q 1191 2003 1191 1497 
Q 1191 994 1439 701 
Q 1688 409 2113 409 
Q 2538 409 2786 701 
Q 3034 994 3034 1497 
Q 3034 2003 2786 2293 
Q 2538 2584 2113 2584 
z
M 3366 4563 
L 3366 3988 
Q 3128 4100 2886 4159 
Q 2644 4219 2406 4219 
Q 1781 4219 1451 3797 
Q 1122 3375 1075 2522 
Q 1259 2794 1537 2939 
Q 1816 3084 2150 3084 
Q 2853 3084 3261 2657 
Q 3669 2231 3669 1497 
Q 3669 778 3244 343 
Q 2819 -91 2113 -91 
Q 1303 -91 875 529 
Q 447 1150 447 2328 
Q 447 3434 972 4092 
Q 1497 4750 2381 4750 
Q 2619 4750 2861 4703 
Q 3103 4656 3366 4563 
z
" transform="scale(0.015625)"/>
       </defs>
       <use xlink:href="#DejaVuSans-36"/>
       <use xlink:href="#DejaVuSans-30" x="63.623047"/>
      </g>
     </g>
    </g>
    <g id="xtick_5">
     <g id="line2d_5">
      <g>
       <use xlink:href="#m2c4b2c855a" x="245.965003" y="307.584" style="stroke: #000000; stroke-width: 0.8"/>
      </g>
     </g>
     <g id="text_5">
      <!-- 80 -->
      <g transform="translate(239.602503 322.182437) scale(0.1 -0.1)">
       <defs>
        <path id="DejaVuSans-38" d="M 2034 2216 
Q 1584 2216 1326 1975 
Q 1069 1734 1069 1313 
Q 1069 891 1326 650 
Q 1584 409 2034 409 
Q 2484 409 2743 651 
Q 3003 894 3003 1313 
Q 3003 1734 2745 1975 
Q 2488 2216 2034 2216 
z
M 1403 2484 
Q 997 2584 770 2862 
Q 544 3141 544 3541 
Q 544 4100 942 4425 
Q 1341 4750 2034 4750 
Q 2731 4750 3128 4425 
Q 3525 4100 3525 3541 
Q 3525 3141 3298 2862 
Q 3072 2584 2669 2484 
Q 3125 2378 3379 2068 
Q 3634 1759 3634 1313 
Q 3634 634 3220 271 
Q 2806 -91 2034 -91 
Q 1263 -91 848 271 
Q 434 634 434 1313 
Q 434 1759 690 2068 
Q 947 2378 1403 2484 
z
M 1172 3481 
Q 1172 3119 1398 2916 
Q 1625 2713 2034 2713 
Q 2441 2713 2670 2916 
Q 2900 3119 2900 3481 
Q 2900 3844 2670 4047 
Q 2441 4250 2034 4250 
Q 1625 4250 1398 4047 
Q 1172 3844 1172 3481 
z
" transform="scale(0.015625)"/>
       </defs>
       <use xlink:href="#DejaVuSans-38"/>
       <use xlink:href="#DejaVuSans-30" x="63.623047"/>
      </g>
     </g>
    </g>
    <g id="xtick_6">
     <g id="line2d_6">
      <g>
       <use xlink:href="#m2c4b2c855a" x="289.542794" y="307.584" style="stroke: #000000; stroke-width: 0.8"/>
      </g>
     </g>
     <g id="text_6">
      <!-- 100 -->
      <g transform="translate(279.999044 322.182437) scale(0.1 -0.1)">
       <defs>
        <path id="DejaVuSans-31" d="M 794 531 
L 1825 531 
L 1825 4091 
L 703 3866 
L 703 4441 
L 1819 4666 
L 2450 4666 
L 2450 531 
L 3481 531 
L 3481 0 
L 794 0 
L 794 531 
z
" transform="scale(0.015625)"/>
       </defs>
       <use xlink:href="#DejaVuSans-31"/>
       <use xlink:href="#DejaVuSans-30" x="63.623047"/>
       <use xlink:href="#DejaVuSans-30" x="127.246094"/>
      </g>
     </g>
    </g>
    <g id="xtick_7">
     <g id="line2d_7">
      <g>
       <use xlink:href="#m2c4b2c855a" x="333.120586" y="307.584" style="stroke: #000000; stroke-width: 0.8"/>
      </g>
     </g>
     <g id="text_7">
      <!-- 120 -->
      <g transform="translate(323.576836 322.182437) scale(0.1 -0.1)">
       <use xlink:href="#DejaVuSans-31"/>
       <use xlink:href="#DejaVuSans-32" x="63.623047"/>
       <use xlink:href="#DejaVuSans-30" x="127.246094"/>
      </g>
     </g>
    </g>
    <g id="xtick_8">
     <g id="line2d_8">
      <g>
       <use xlink:href="#m2c4b2c855a" x="376.698377" y="307.584" style="stroke: #000000; stroke-width: 0.8"/>
      </g>
     </g>
     <g id="text_8">
      <!-- 140 -->
      <g transform="translate(367.154627 322.182437) scale(0.1 -0.1)">
       <use xlink:href="#DejaVuSans-31"/>
       <use xlink:href="#DejaVuSans-34" x="63.623047"/>
       <use xlink:href="#DejaVuSans-30" x="127.246094"/>
      </g>
     </g>
    </g>
    <g id="text_9">
     <!-- epoch -->
     <g transform="translate(220.931875 335.860562) scale(0.1 -0.1)">
      <defs>
       <path id="DejaVuSans-65" d="M 3597 1894 
L 3597 1613 
L 953 1613 
Q 991 1019 1311 708 
Q 1631 397 2203 397 
Q 2534 397 2845 478 
Q 3156 559 3463 722 
L 3463 178 
Q 3153 47 2828 -22 
Q 2503 -91 2169 -91 
Q 1331 -91 842 396 
Q 353 884 353 1716 
Q 353 2575 817 3079 
Q 1281 3584 2069 3584 
Q 2775 3584 3186 3129 
Q 3597 2675 3597 1894 
z
M 3022 2063 
Q 3016 2534 2758 2815 
Q 2500 3097 2075 3097 
Q 1594 3097 1305 2825 
Q 1016 2553 972 2059 
L 3022 2063 
z
" transform="scale(0.015625)"/>
       <path id="DejaVuSans-70" d="M 1159 525 
L 1159 -1331 
L 581 -1331 
L 581 3500 
L 1159 3500 
L 1159 2969 
Q 1341 3281 1617 3432 
Q 1894 3584 2278 3584 
Q 2916 3584 3314 3078 
Q 3713 2572 3713 1747 
Q 3713 922 3314 415 
Q 2916 -91 2278 -91 
Q 1894 -91 1617 61 
Q 1341 213 1159 525 
z
M 3116 1747 
Q 3116 2381 2855 2742 
Q 2594 3103 2138 3103 
Q 1681 3103 1420 2742 
Q 1159 2381 1159 1747 
Q 1159 1113 1420 752 
Q 1681 391 2138 391 
Q 2594 391 2855 752 
Q 3116 1113 3116 1747 
z
" transform="scale(0.015625)"/>
       <path id="DejaVuSans-6f" d="M 1959 3097 
Q 1497 3097 1228 2736 
Q 959 2375 959 1747 
Q 959 1119 1226 758 
Q 1494 397 1959 397 
Q 2419 397 2687 759 
Q 2956 1122 2956 1747 
Q 2956 2369 2687 2733 
Q 2419 3097 1959 3097 
z
M 1959 3584 
Q 2709 3584 3137 3096 
Q 3566 2609 3566 1747 
Q 3566 888 3137 398 
Q 2709 -91 1959 -91 
Q 1206 -91 779 398 
Q 353 888 353 1747 
Q 353 2609 779 3096 
Q 1206 3584 1959 3584 
z
" transform="scale(0.015625)"/>
       <path id="DejaVuSans-63" d="M 3122 3366 
L 3122 2828 
Q 2878 2963 2633 3030 
Q 2388 3097 2138 3097 
Q 1578 3097 1268 2742 
Q 959 2388 959 1747 
Q 959 1106 1268 751 
Q 1578 397 2138 397 
Q 2388 397 2633 464 
Q 2878 531 3122 666 
L 3122 134 
Q 2881 22 2623 -34 
Q 2366 -91 2075 -91 
Q 1284 -91 818 406 
Q 353 903 353 1747 
Q 353 2603 823 3093 
Q 1294 3584 2113 3584 
Q 2378 3584 2631 3529 
Q 2884 3475 3122 3366 
z
" transform="scale(0.015625)"/>
       <path id="DejaVuSans-68" d="M 3513 2113 
L 3513 0 
L 2938 0 
L 2938 2094 
Q 2938 2591 2744 2837 
Q 2550 3084 2163 3084 
Q 1697 3084 1428 2787 
Q 1159 2491 1159 1978 
L 1159 0 
L 581 0 
L 581 4863 
L 1159 4863 
L 1159 2956 
Q 1366 3272 1645 3428 
Q 1925 3584 2291 3584 
Q 2894 3584 3203 3211 
Q 3513 2838 3513 2113 
z
" transform="scale(0.015625)"/>
      </defs>
      <use xlink:href="#DejaVuSans-65"/>
      <use xlink:href="#DejaVuSans-70" x="61.523438"/>
      <use xlink:href="#DejaVuSans-6f" x="125"/>
      <use xlink:href="#DejaVuSans-63" x="186.181641"/>
      <use xlink:href="#DejaVuSans-68" x="241.162109"/>
     </g>
    </g>
   </g>
   <g id="matplotlib.axis_2">
    <g id="ytick_1">
     <g id="line2d_9">
      <defs>
       <path id="m4c0e33c2d0" d="M 0 0 
L -3.5 0 
" style="stroke: #000000; stroke-width: 0.8"/>
      </defs>
      <g>
       <use xlink:href="#m4c0e33c2d0" x="57.6" y="307.584" style="stroke: #000000; stroke-width: 0.8"/>
      </g>
     </g>
     <g id="text_10">
      <!-- 0.0 -->
      <g transform="translate(34.696875 311.383219) scale(0.1 -0.1)">
       <defs>
        <path id="DejaVuSans-2e" d="M 684 794 
L 1344 794 
L 1344 0 
L 684 0 
L 684 794 
z
" transform="scale(0.015625)"/>
       </defs>
       <use xlink:href="#DejaVuSans-30"/>
       <use xlink:href="#DejaVuSans-2e" x="63.623047"/>
       <use xlink:href="#DejaVuSans-30" x="95.410156"/>
      </g>
     </g>
    </g>
    <g id="ytick_2">
     <g id="line2d_10">
      <g>
       <use xlink:href="#m4c0e33c2d0" x="57.6" y="255.857711" style="stroke: #000000; stroke-width: 0.8"/>
      </g>
     </g>
     <g id="text_11">
      <!-- 0.2 -->
      <g transform="translate(34.696875 259.65693) scale(0.1 -0.1)">
       <use xlink:href="#DejaVuSans-30"/>
       <use xlink:href="#DejaVuSans-2e" x="63.623047"/>
       <use xlink:href="#DejaVuSans-32" x="95.410156"/>
      </g>
     </g>
    </g>
    <g id="ytick_3">
     <g id="line2d_11">
      <g>
       <use xlink:href="#m4c0e33c2d0" x="57.6" y="204.131422" style="stroke: #000000; stroke-width: 0.8"/>
      </g>
     </g>
     <g id="text_12">
      <!-- 0.4 -->
      <g transform="translate(34.696875 207.930641) scale(0.1 -0.1)">
       <use xlink:href="#DejaVuSans-30"/>
       <use xlink:href="#DejaVuSans-2e" x="63.623047"/>
       <use xlink:href="#DejaVuSans-34" x="95.410156"/>
      </g>
     </g>
    </g>
    <g id="ytick_4">
     <g id="line2d_12">
      <g>
       <use xlink:href="#m4c0e33c2d0" x="57.6" y="152.405133" style="stroke: #000000; stroke-width: 0.8"/>
      </g>
     </g>
     <g id="text_13">
      <!-- 0.6 -->
      <g transform="translate(34.696875 156.204352) scale(0.1 -0.1)">
       <use xlink:href="#DejaVuSans-30"/>
       <use xlink:href="#DejaVuSans-2e" x="63.623047"/>
       <use xlink:href="#DejaVuSans-36" x="95.410156"/>
      </g>
     </g>
    </g>
    <g id="ytick_5">
     <g id="line2d_13">
      <g>
       <use xlink:href="#m4c0e33c2d0" x="57.6" y="100.678844" style="stroke: #000000; stroke-width: 0.8"/>
      </g>
     </g>
     <g id="text_14">
      <!-- 0.8 -->
      <g transform="translate(34.696875 104.478063) scale(0.1 -0.1)">
       <use xlink:href="#DejaVuSans-30"/>
       <use xlink:href="#DejaVuSans-2e" x="63.623047"/>
       <use xlink:href="#DejaVuSans-38" x="95.410156"/>
      </g>
     </g>
    </g>
    <g id="ytick_6">
     <g id="line2d_14">
      <g>
       <use xlink:href="#m4c0e33c2d0" x="57.6" y="48.952555" style="stroke: #000000; stroke-width: 0.8"/>
      </g>
     </g>
     <g id="text_15">
      <!-- 1.0 -->
      <g transform="translate(34.696875 52.751774) scale(0.1 -0.1)">
       <use xlink:href="#DejaVuSans-31"/>
       <use xlink:href="#DejaVuSans-2e" x="63.623047"/>
       <use xlink:href="#DejaVuSans-30" x="95.410156"/>
      </g>
     </g>
    </g>
   </g>
   <g id="line2d_15">
    <path d="M 73.832727 150.287289 
L 76.011617 120.158522 
L 78.190506 96.046528 
L 80.369396 114.740432 
L 82.548286 90.142008 
L 84.727175 88.675232 
L 86.906065 89.917501 
L 89.084954 90.359031 
L 91.263844 91.354343 
L 93.442733 89.019475 
L 95.621623 88.540528 
L 97.800513 91.795872 
L 99.979402 90.344063 
L 102.158292 90.007304 
L 104.337181 91.167254 
L 106.516071 101.299979 
L 108.69496 89.53584 
L 110.87385 95.530163 
L 113.052739 88.390857 
L 115.231629 93.404835 
L 117.410519 89.288883 
L 119.589408 88.076548 
L 121.768298 88.27112 
L 123.947187 88.645298 
L 126.126077 92.641513 
L 128.304966 90.403932 
L 130.483856 88.353439 
L 132.662746 89.079344 
L 134.841635 89.064377 
L 137.020525 89.962402 
L 139.199414 88.862321 
L 141.378304 88.824903 
L 143.557193 90.10459 
L 145.736083 90.33658 
L 147.914973 88.922189 
L 150.093862 89.528357 
L 152.272752 91.242089 
L 154.451641 91.174737 
L 156.630531 89.131729 
L 158.80942 88.218736 
L 160.98831 88.690199 
L 163.1672 91.361826 
L 167.524979 87.657469 
L 169.703868 91.436662 
L 171.882758 89.655577 
L 174.061647 87.507798 
L 176.240537 88.907222 
L 178.419426 89.692995 
L 180.598316 87.814624 
L 182.777206 89.064377 
L 184.956095 89.154179 
L 187.134985 87.537733 
L 189.313874 90.718241 
L 191.492764 88.465693 
L 193.671653 88.548012 
L 195.850543 89.214048 
L 198.029433 88.413308 
L 200.208322 90.643405 
L 202.387212 89.633126 
L 204.566101 92.596612 
L 206.744991 88.01668 
L 208.92388 89.520873 
L 211.10277 90.261744 
L 213.28166 89.326301 
L 215.460549 89.939952 
L 217.639439 89.011992 
L 219.818328 88.615364 
L 221.997218 88.548012 
L 224.176107 90.426382 
L 226.354997 88.832387 
L 228.533887 89.663061 
L 230.712776 91.167254 
L 232.891666 88.128933 
L 235.070555 94.474982 
L 237.249445 90.935264 
L 239.428334 89.992337 
L 241.607224 88.450726 
L 243.786113 89.086827 
L 245.965003 88.742584 
L 248.143893 89.550807 
L 252.501672 89.842666 
L 254.680561 88.024163 
L 256.859451 88.548012 
L 261.21723 87.687404 
L 263.39612 88.345956 
L 265.575009 86.632223 
L 267.753899 88.525561 
L 269.932788 88.71265 
L 272.111678 90.69579 
L 274.290567 88.420791 
L 276.469457 88.525561 
L 278.648347 88.473176 
L 280.827236 89.790281 
L 283.006126 88.765035 
L 285.185015 88.338472 
L 287.363905 89.475972 
L 289.542794 89.53584 
L 291.721684 90.688307 
L 293.900574 87.904427 
L 296.079463 86.265529 
L 298.258353 87.657469 
L 300.437242 86.347848 
L 302.616132 86.609773 
L 304.795021 88.780002 
L 306.973911 85.824 
L 309.1528 87.994229 
L 311.33169 87.253358 
L 313.51058 89.19908 
L 315.689469 89.184113 
L 317.868359 89.51339 
L 320.047248 87.200973 
L 322.226138 87.432963 
L 324.405027 93.135427 
L 326.583917 86.130825 
L 328.762807 88.765035 
L 330.941696 88.368407 
L 333.120586 87.335677 
L 335.299475 89.842666 
L 337.478365 91.122353 
L 339.657254 89.371202 
L 341.836144 94.250476 
L 344.015034 89.446038 
L 346.193923 86.946532 
L 348.372813 87.672437 
L 350.551702 87.186006 
L 352.730592 87.605085 
L 354.909481 89.573258 
L 357.088371 94.909028 
L 359.267261 87.223424 
L 361.44615 89.722929 
L 363.62504 87.245874 
L 365.803929 87.78469 
L 367.982819 92.1925 
L 370.161708 86.370299 
L 372.340598 91.743487 
L 374.519487 88.151384 
L 376.698377 87.417996 
L 378.877267 89.820215 
L 381.056156 88.660265 
L 383.235046 87.687404 
L 385.413935 87.462897 
L 387.592825 89.131729 
L 389.771714 91.002616 
L 391.950604 87.245874 
L 394.129494 87.417996 
L 396.308383 88.720133 
L 398.487273 87.956811 
L 398.487273 87.956811 
" clip-path="url(#peaff0c901a)" style="fill: none; stroke: #1f77b4; stroke-linecap: square"/>
   </g>
   <g id="line2d_16">
    <path d="M 73.832727 150.748065 
L 82.548286 150.751877 
L 84.727175 150.436777 
L 86.906065 146.895718 
L 89.084954 142.004777 
L 91.263844 130.838525 
L 93.442733 129.073894 
L 95.621623 150.739171 
L 97.800513 127.736717 
L 99.979402 126.326029 
L 102.158292 116.398939 
L 104.337181 150.745524 
L 106.516071 131.782916 
L 108.69496 146.309081 
L 110.87385 105.796454 
L 113.052739 105.381706 
L 115.231629 109.648801 
L 117.410519 124.383157 
L 119.589408 143.581908 
L 121.768298 110.767623 
L 123.947187 121.469756 
L 126.126077 113.085129 
L 128.304966 119.626169 
L 130.483856 105.863612 
L 132.662746 112.810143 
L 134.841635 102.3378 
L 137.020525 104.845347 
L 139.199414 100.880646 
L 141.378304 102.026512 
L 143.557193 106.018621 
L 145.736083 120.343311 
L 147.914973 107.164487 
L 150.093862 122.279831 
L 152.272752 118.743854 
L 154.451641 129.92027 
L 156.630531 106.919087 
L 158.80942 101.606682 
L 160.98831 106.722695 
L 163.1672 100.663561 
L 165.346089 109.985863 
L 167.524979 101.621021 
L 169.703868 102.505878 
L 171.882758 111.041338 
L 174.061647 101.61848 
L 176.240537 108.209435 
L 178.419426 100.3844 
L 180.598316 102.111821 
L 182.777206 100.969767 
L 184.956095 100.865036 
L 187.134985 122.672253 
L 189.313874 101.796722 
L 191.492764 100.06803 
L 193.671653 99.73478 
L 195.850543 103.211221 
L 198.029433 100.580793 
L 200.208322 107.491385 
L 202.387212 101.747351 
L 204.566101 104.681444 
L 206.744991 105.73819 
L 208.92388 107.975833 
L 211.10277 102.765617 
L 213.28166 102.849293 
L 215.460549 101.845729 
L 217.639439 101.711413 
L 219.818328 103.80167 
L 221.997218 103.521239 
L 224.176107 101.331696 
L 226.354997 103.693128 
L 228.533887 104.124756 
L 230.712776 100.861225 
L 232.891666 103.743406 
L 235.070555 108.803695 
L 237.249445 109.834666 
L 239.428334 102.416757 
L 241.607224 101.597788 
L 243.786113 108.60222 
L 245.965003 105.871236 
L 248.143893 104.14926 
L 250.322782 104.774377 
L 252.501672 105.592075 
L 254.680561 104.547128 
L 256.859451 102.707353 
L 259.03834 99.624967 
L 261.21723 104.611745 
L 263.39612 102.485186 
L 265.575009 101.18304 
L 267.753899 102.042122 
L 269.932788 101.977505 
L 272.111678 103.932175 
L 274.290567 101.7773 
L 276.469457 101.561486 
L 278.648347 103.534308 
L 280.827236 107.562355 
L 283.006126 100.498388 
L 285.185015 99.189527 
L 287.363905 104.805597 
L 289.542794 108.332316 
L 291.721684 104.398472 
L 293.900574 101.799263 
L 296.079463 101.521373 
L 298.258353 105.713686 
L 300.437242 101.910347 
L 302.616132 109.595982 
L 304.795021 104.265426 
L 306.973911 103.952867 
L 309.1528 101.284867 
L 313.51058 106.760267 
L 315.689469 105.253742 
L 317.868359 103.051131 
L 320.047248 104.150531 
L 322.226138 104.707219 
L 324.405027 101.232047 
L 326.583917 102.135055 
L 328.762807 102.072979 
L 330.941696 103.671165 
L 333.120586 102.969633 
L 335.299475 100.020293 
L 337.478365 101.074498 
L 339.657254 104.04707 
L 341.836144 101.90236 
L 346.193923 102.633841 
L 348.372813 101.93358 
L 350.551702 102.552344 
L 352.730592 103.578233 
L 354.909481 100.742518 
L 357.088371 103.415238 
L 359.267261 107.567437 
L 361.44615 106.892042 
L 363.62504 104.422976 
L 365.803929 101.626103 
L 367.982819 106.18924 
L 370.161708 100.854872 
L 372.340598 101.536983 
L 374.519487 102.432366 
L 376.698377 105.690453 
L 378.877267 105.911349 
L 381.056156 102.135055 
L 385.413935 106.672054 
L 387.592825 102.079694 
L 389.771714 106.116636 
L 391.950604 102.219093 
L 394.129494 103.209951 
L 396.308383 102.393523 
L 398.487273 100.973579 
L 398.487273 100.973579 
" clip-path="url(#peaff0c901a)" style="fill: none; stroke: #ff7f0e; stroke-linecap: square"/>
   </g>
   <g id="line2d_17">
    <path d="M 73.832727 139.682135 
L 76.011617 140.355654 
L 78.190506 107.613921 
L 80.369396 104.593947 
L 82.548286 140.355654 
L 84.727175 139.660408 
L 86.906065 139.725588 
L 89.084954 88.407756 
L 91.263844 90.102417 
L 93.442733 89.016096 
L 97.800513 90.928022 
L 99.979402 96.424809 
L 102.158292 93.535193 
L 104.337181 91.232192 
L 106.516071 93.882816 
L 108.69496 111.111877 
L 110.87385 89.320266 
L 113.052739 91.449456 
L 115.231629 96.96797 
L 117.410519 96.620347 
L 119.589408 89.711341 
L 121.768298 90.211049 
L 123.947187 95.903375 
L 126.126077 89.53753 
L 128.304966 94.838779 
L 130.483856 93.55692 
L 132.662746 88.103586 
L 134.841635 90.232776 
L 137.020525 89.819974 
L 141.378304 88.755378 
L 143.557193 90.276229 
L 145.736083 92.818221 
L 147.914973 89.059549 
L 150.093862 91.05838 
L 152.272752 90.623852 
L 156.630531 88.907463 
L 158.80942 90.428314 
L 160.98831 89.363719 
L 163.1672 93.709005 
L 165.346089 89.885153 
L 167.524979 91.101833 
L 169.703868 92.818221 
L 171.882758 93.078938 
L 174.061647 89.298539 
L 176.240537 89.363719 
L 180.598316 89.646162 
L 182.777206 90.276229 
L 184.956095 90.45004 
L 187.134985 88.147038 
L 189.313874 90.384861 
L 191.492764 90.797663 
L 193.671653 88.994369 
L 195.850543 89.081275 
L 198.029433 89.298539 
L 200.208322 88.603293 
L 202.387212 89.950332 
L 204.566101 87.734236 
L 206.744991 88.516388 
L 208.92388 89.515804 
L 211.10277 89.689615 
L 213.28166 88.472935 
L 215.460549 89.037822 
L 217.639439 88.820558 
L 219.818328 95.229855 
L 221.997218 89.255086 
L 224.176107 88.646746 
L 230.712776 90.341408 
L 232.891666 89.733068 
L 235.070555 89.385445 
L 237.249445 88.62502 
L 239.428334 88.972643 
L 241.607224 88.864011 
L 243.786113 89.450624 
L 245.965003 87.777689 
L 248.143893 89.928606 
L 250.322782 89.602709 
L 252.501672 90.536946 
L 254.680561 88.994369 
L 256.859451 91.66672 
L 259.03834 89.472351 
L 261.21723 88.798831 
L 263.39612 88.646746 
L 265.575009 89.559256 
L 267.753899 90.928022 
L 269.932788 88.277397 
L 272.111678 88.885737 
L 274.290567 89.993785 
L 276.469457 89.124728 
L 278.648347 92.101249 
L 280.827236 90.75421 
L 283.006126 89.016096 
L 285.185015 93.231023 
L 287.363905 89.189907 
L 289.542794 92.514051 
L 291.721684 87.690783 
L 293.900574 88.690199 
L 296.079463 89.298539 
L 298.258353 92.209881 
L 300.437242 88.798831 
L 302.616132 95.425393 
L 304.795021 92.188155 
L 306.973911 88.451208 
L 309.1528 89.776521 
L 311.33169 89.972059 
L 315.689469 89.515804 
L 317.868359 87.929774 
L 320.047248 89.450624 
L 322.226138 88.690199 
L 324.405027 88.798831 
L 326.583917 87.994953 
L 328.762807 88.32085 
L 330.941696 90.297955 
L 333.120586 89.363719 
L 335.299475 89.580983 
L 337.478365 95.555752 
L 339.657254 89.580983 
L 341.836144 88.168765 
L 344.015034 89.146454 
L 346.193923 88.299123 
L 348.372813 89.53753 
L 350.551702 88.451208 
L 354.909481 90.819389 
L 357.088371 88.212218 
L 359.267261 89.733068 
L 361.44615 89.906879 
L 363.62504 89.885153 
L 365.803929 91.688447 
L 367.982819 88.386029 
L 370.161708 91.514635 
L 372.340598 90.536946 
L 374.519487 88.690199 
L 376.698377 90.189323 
L 378.877267 89.689615 
L 381.056156 89.450624 
L 383.235046 90.080691 
L 385.413935 87.755963 
L 387.592825 90.667304 
L 389.771714 90.928022 
L 391.950604 88.342576 
L 394.129494 92.839948 
L 396.308383 89.211634 
L 398.487273 92.970306 
L 398.487273 92.970306 
" clip-path="url(#peaff0c901a)" style="fill: none; stroke: #2ca02c; stroke-linecap: square"/>
   </g>
   <g id="line2d_18">
    <path d="M 73.832727 151.157658 
L 76.011617 151.052238 
L 78.190506 151.122518 
L 80.369396 151.034668 
L 82.548286 151.069808 
L 84.727175 129.605038 
L 86.906065 119.098135 
L 89.084954 148.674421 
L 93.442733 138.893749 
L 95.621623 112.8959 
L 97.800513 99.970185 
L 99.979402 94.927574 
L 102.158292 93.504399 
L 104.337181 92.620038 
L 106.516071 91.987516 
L 108.69496 92.426768 
L 110.87385 94.423899 
L 113.052739 93.246704 
L 115.231629 90.810321 
L 117.410519 92.789882 
L 119.589408 92.274494 
L 121.768298 97.90863 
L 123.947187 94.412186 
L 126.126077 92.450194 
L 128.304966 90.066521 
L 130.483856 90.704901 
L 132.662746 89.445712 
L 134.841635 91.548264 
L 137.020525 88.977177 
L 139.199414 89.896677 
L 141.378304 89.914247 
L 143.557193 88.450075 
L 145.736083 90.65219 
L 147.914973 90.505773 
L 150.093862 89.744403 
L 152.272752 91.191006 
L 154.451641 89.843967 
L 156.630531 91.173436 
L 158.80942 89.562846 
L 160.98831 90.277362 
L 163.1672 89.422285 
L 165.346089 91.29057 
L 167.524979 94.172061 
L 169.703868 93.469258 
L 171.882758 91.677111 
L 174.061647 90.945025 
L 176.240537 89.463282 
L 178.419426 90.51163 
L 180.598316 92.075366 
L 182.777206 89.814684 
L 184.956095 96.034489 
L 187.134985 89.047457 
L 189.313874 88.783906 
L 191.492764 90.822034 
L 193.671653 89.67998 
L 195.850543 92.766456 
L 198.029433 91.097299 
L 200.208322 92.29792 
L 202.387212 93.844087 
L 204.566101 89.955244 
L 206.744991 91.753248 
L 208.92388 90.470633 
L 211.10277 90.148515 
L 213.28166 90.622907 
L 215.460549 89.896677 
L 217.639439 90.048951 
L 219.818328 89.457426 
L 221.997218 89.474996 
L 226.354997 90.693187 
L 228.533887 88.420791 
L 230.712776 88.90104 
L 232.891666 88.947894 
L 235.070555 91.747392 
L 237.249445 89.398859 
L 239.428334 89.381289 
L 241.607224 90.248079 
L 243.786113 90.230509 
L 245.965003 89.258298 
L 248.143893 89.439856 
L 250.322782 89.041601 
L 252.501672 92.994867 
L 254.680561 90.658047 
L 256.859451 89.106024 
L 259.03834 90.078235 
L 261.21723 89.556989 
L 263.39612 89.498422 
L 265.575009 89.111881 
L 267.753899 90.388639 
L 269.932788 92.760599 
L 272.111678 88.127957 
L 274.290567 89.656553 
L 276.469457 89.176304 
L 278.648347 89.984528 
L 280.827236 91.068015 
L 283.006126 89.615556 
L 285.185015 89.996241 
L 287.363905 92.731315 
L 289.542794 90.904028 
L 291.721684 97.305391 
L 293.900574 92.994867 
L 296.079463 88.947894 
L 298.258353 89.422285 
L 300.437242 91.41356 
L 302.616132 90.043095 
L 304.795021 87.647708 
L 306.973911 88.075247 
L 309.1528 89.334435 
L 311.33169 88.379795 
L 313.51058 89.000604 
L 315.689469 95.870502 
L 317.868359 92.643465 
L 320.047248 90.365213 
L 322.226138 89.012317 
L 324.405027 90.335929 
L 326.583917 88.895183 
L 328.762807 89.592129 
L 330.941696 91.536551 
L 333.120586 88.391508 
L 335.299475 89.381289 
L 337.478365 89.433999 
L 339.657254 90.827891 
L 341.836144 88.151384 
L 344.015034 88.79562 
L 346.193923 96.731435 
L 348.372813 90.51163 
L 350.551702 89.223158 
L 352.730592 91.021162 
L 354.909481 89.492566 
L 357.088371 89.73269 
L 359.267261 88.95375 
L 361.44615 87.840979 
L 365.803929 91.267143 
L 367.982819 88.204094 
L 370.161708 91.876239 
L 372.340598 90.997735 
L 374.519487 88.789763 
L 376.698377 95.811935 
L 378.877267 90.224652 
L 381.056156 88.145527 
L 383.235046 90.587767 
L 385.413935 88.584779 
L 387.592825 93.78552 
L 389.771714 88.520355 
L 391.950604 89.7854 
L 394.129494 88.385651 
L 396.308383 88.350511 
L 398.487273 90.44135 
L 398.487273 90.44135 
" clip-path="url(#peaff0c901a)" style="fill: none; stroke: #d62728; stroke-linecap: square"/>
   </g>
   <g id="patch_3">
    <path d="M 57.6 307.584 
L 57.6 41.472 
" style="fill: none; stroke: #000000; stroke-width: 0.8; stroke-linejoin: miter; stroke-linecap: square"/>
   </g>
   <g id="patch_4">
    <path d="M 414.72 307.584 
L 414.72 41.472 
" style="fill: none; stroke: #000000; stroke-width: 0.8; stroke-linejoin: miter; stroke-linecap: square"/>
   </g>
   <g id="patch_5">
    <path d="M 57.6 307.584 
L 414.72 307.584 
" style="fill: none; stroke: #000000; stroke-width: 0.8; stroke-linejoin: miter; stroke-linecap: square"/>
   </g>
   <g id="patch_6">
    <path d="M 57.6 41.472 
L 414.72 41.472 
" style="fill: none; stroke: #000000; stroke-width: 0.8; stroke-linejoin: miter; stroke-linecap: square"/>
   </g>
   <g id="text_16">
    <!-- Accuracy of P_DENS -->
    <g transform="translate(175.842187 35.472) scale(0.12 -0.12)">
     <defs>
      <path id="DejaVuSans-41" d="M 2188 4044 
L 1331 1722 
L 3047 1722 
L 2188 4044 
z
M 1831 4666 
L 2547 4666 
L 4325 0 
L 3669 0 
L 3244 1197 
L 1141 1197 
L 716 0 
L 50 0 
L 1831 4666 
z
" transform="scale(0.015625)"/>
      <path id="DejaVuSans-75" d="M 544 1381 
L 544 3500 
L 1119 3500 
L 1119 1403 
Q 1119 906 1312 657 
Q 1506 409 1894 409 
Q 2359 409 2629 706 
Q 2900 1003 2900 1516 
L 2900 3500 
L 3475 3500 
L 3475 0 
L 2900 0 
L 2900 538 
Q 2691 219 2414 64 
Q 2138 -91 1772 -91 
Q 1169 -91 856 284 
Q 544 659 544 1381 
z
M 1991 3584 
L 1991 3584 
z
" transform="scale(0.015625)"/>
      <path id="DejaVuSans-72" d="M 2631 2963 
Q 2534 3019 2420 3045 
Q 2306 3072 2169 3072 
Q 1681 3072 1420 2755 
Q 1159 2438 1159 1844 
L 1159 0 
L 581 0 
L 581 3500 
L 1159 3500 
L 1159 2956 
Q 1341 3275 1631 3429 
Q 1922 3584 2338 3584 
Q 2397 3584 2469 3576 
Q 2541 3569 2628 3553 
L 2631 2963 
z
" transform="scale(0.015625)"/>
      <path id="DejaVuSans-61" d="M 2194 1759 
Q 1497 1759 1228 1600 
Q 959 1441 959 1056 
Q 959 750 1161 570 
Q 1363 391 1709 391 
Q 2188 391 2477 730 
Q 2766 1069 2766 1631 
L 2766 1759 
L 2194 1759 
z
M 3341 1997 
L 3341 0 
L 2766 0 
L 2766 531 
Q 2569 213 2275 61 
Q 1981 -91 1556 -91 
Q 1019 -91 701 211 
Q 384 513 384 1019 
Q 384 1609 779 1909 
Q 1175 2209 1959 2209 
L 2766 2209 
L 2766 2266 
Q 2766 2663 2505 2880 
Q 2244 3097 1772 3097 
Q 1472 3097 1187 3025 
Q 903 2953 641 2809 
L 641 3341 
Q 956 3463 1253 3523 
Q 1550 3584 1831 3584 
Q 2591 3584 2966 3190 
Q 3341 2797 3341 1997 
z
" transform="scale(0.015625)"/>
      <path id="DejaVuSans-79" d="M 2059 -325 
Q 1816 -950 1584 -1140 
Q 1353 -1331 966 -1331 
L 506 -1331 
L 506 -850 
L 844 -850 
Q 1081 -850 1212 -737 
Q 1344 -625 1503 -206 
L 1606 56 
L 191 3500 
L 800 3500 
L 1894 763 
L 2988 3500 
L 3597 3500 
L 2059 -325 
z
" transform="scale(0.015625)"/>
      <path id="DejaVuSans-20" transform="scale(0.015625)"/>
      <path id="DejaVuSans-66" d="M 2375 4863 
L 2375 4384 
L 1825 4384 
Q 1516 4384 1395 4259 
Q 1275 4134 1275 3809 
L 1275 3500 
L 2222 3500 
L 2222 3053 
L 1275 3053 
L 1275 0 
L 697 0 
L 697 3053 
L 147 3053 
L 147 3500 
L 697 3500 
L 697 3744 
Q 697 4328 969 4595 
Q 1241 4863 1831 4863 
L 2375 4863 
z
" transform="scale(0.015625)"/>
      <path id="DejaVuSans-50" d="M 1259 4147 
L 1259 2394 
L 2053 2394 
Q 2494 2394 2734 2622 
Q 2975 2850 2975 3272 
Q 2975 3691 2734 3919 
Q 2494 4147 2053 4147 
L 1259 4147 
z
M 628 4666 
L 2053 4666 
Q 2838 4666 3239 4311 
Q 3641 3956 3641 3272 
Q 3641 2581 3239 2228 
Q 2838 1875 2053 1875 
L 1259 1875 
L 1259 0 
L 628 0 
L 628 4666 
z
" transform="scale(0.015625)"/>
      <path id="DejaVuSans-5f" d="M 3263 -1063 
L 3263 -1509 
L -63 -1509 
L -63 -1063 
L 3263 -1063 
z
" transform="scale(0.015625)"/>
      <path id="DejaVuSans-44" d="M 1259 4147 
L 1259 519 
L 2022 519 
Q 2988 519 3436 956 
Q 3884 1394 3884 2338 
Q 3884 3275 3436 3711 
Q 2988 4147 2022 4147 
L 1259 4147 
z
M 628 4666 
L 1925 4666 
Q 3281 4666 3915 4102 
Q 4550 3538 4550 2338 
Q 4550 1131 3912 565 
Q 3275 0 1925 0 
L 628 0 
L 628 4666 
z
" transform="scale(0.015625)"/>
      <path id="DejaVuSans-45" d="M 628 4666 
L 3578 4666 
L 3578 4134 
L 1259 4134 
L 1259 2753 
L 3481 2753 
L 3481 2222 
L 1259 2222 
L 1259 531 
L 3634 531 
L 3634 0 
L 628 0 
L 628 4666 
z
" transform="scale(0.015625)"/>
      <path id="DejaVuSans-4e" d="M 628 4666 
L 1478 4666 
L 3547 763 
L 3547 4666 
L 4159 4666 
L 4159 0 
L 3309 0 
L 1241 3903 
L 1241 0 
L 628 0 
L 628 4666 
z
" transform="scale(0.015625)"/>
      <path id="DejaVuSans-53" d="M 3425 4513 
L 3425 3897 
Q 3066 4069 2747 4153 
Q 2428 4238 2131 4238 
Q 1616 4238 1336 4038 
Q 1056 3838 1056 3469 
Q 1056 3159 1242 3001 
Q 1428 2844 1947 2747 
L 2328 2669 
Q 3034 2534 3370 2195 
Q 3706 1856 3706 1288 
Q 3706 609 3251 259 
Q 2797 -91 1919 -91 
Q 1588 -91 1214 -16 
Q 841 59 441 206 
L 441 856 
Q 825 641 1194 531 
Q 1563 422 1919 422 
Q 2459 422 2753 634 
Q 3047 847 3047 1241 
Q 3047 1584 2836 1778 
Q 2625 1972 2144 2069 
L 1759 2144 
Q 1053 2284 737 2584 
Q 422 2884 422 3419 
Q 422 4038 858 4394 
Q 1294 4750 2059 4750 
Q 2388 4750 2728 4690 
Q 3069 4631 3425 4513 
z
" transform="scale(0.015625)"/>
     </defs>
     <use xlink:href="#DejaVuSans-41"/>
     <use xlink:href="#DejaVuSans-63" x="66.658203"/>
     <use xlink:href="#DejaVuSans-63" x="121.638672"/>
     <use xlink:href="#DejaVuSans-75" x="176.619141"/>
     <use xlink:href="#DejaVuSans-72" x="239.998047"/>
     <use xlink:href="#DejaVuSans-61" x="281.111328"/>
     <use xlink:href="#DejaVuSans-63" x="342.390625"/>
     <use xlink:href="#DejaVuSans-79" x="397.371094"/>
     <use xlink:href="#DejaVuSans-20" x="456.550781"/>
     <use xlink:href="#DejaVuSans-6f" x="488.337891"/>
     <use xlink:href="#DejaVuSans-66" x="549.519531"/>
     <use xlink:href="#DejaVuSans-20" x="584.724609"/>
     <use xlink:href="#DejaVuSans-50" x="616.511719"/>
     <use xlink:href="#DejaVuSans-5f" x="676.814453"/>
     <use xlink:href="#DejaVuSans-44" x="726.814453"/>
     <use xlink:href="#DejaVuSans-45" x="803.816406"/>
     <use xlink:href="#DejaVuSans-4e" x="867"/>
     <use xlink:href="#DejaVuSans-53" x="941.804688"/>
    </g>
   </g>
   <g id="legend_1">
    <g id="patch_7">
     <path d="M 64.6 302.584 
L 173.157812 302.584 
Q 175.157812 302.584 175.157812 300.584 
L 175.157812 242.8715 
Q 175.157812 240.8715 173.157812 240.8715 
L 64.6 240.8715 
Q 62.6 240.8715 62.6 242.8715 
L 62.6 300.584 
Q 62.6 302.584 64.6 302.584 
z
" style="fill: #ffffff; opacity: 0.8; stroke: #cccccc; stroke-linejoin: miter"/>
    </g>
    <g id="line2d_19">
     <path d="M 66.6 248.969937 
L 76.6 248.969937 
L 86.6 248.969937 
" style="fill: none; stroke: #1f77b4; stroke-linecap: square"/>
    </g>
    <g id="text_17">
     <!-- 2000 samples -->
     <g transform="translate(94.6 252.469937) scale(0.1 -0.1)">
      <defs>
       <path id="DejaVuSans-73" d="M 2834 3397 
L 2834 2853 
Q 2591 2978 2328 3040 
Q 2066 3103 1784 3103 
Q 1356 3103 1142 2972 
Q 928 2841 928 2578 
Q 928 2378 1081 2264 
Q 1234 2150 1697 2047 
L 1894 2003 
Q 2506 1872 2764 1633 
Q 3022 1394 3022 966 
Q 3022 478 2636 193 
Q 2250 -91 1575 -91 
Q 1294 -91 989 -36 
Q 684 19 347 128 
L 347 722 
Q 666 556 975 473 
Q 1284 391 1588 391 
Q 1994 391 2212 530 
Q 2431 669 2431 922 
Q 2431 1156 2273 1281 
Q 2116 1406 1581 1522 
L 1381 1569 
Q 847 1681 609 1914 
Q 372 2147 372 2553 
Q 372 3047 722 3315 
Q 1072 3584 1716 3584 
Q 2034 3584 2315 3537 
Q 2597 3491 2834 3397 
z
" transform="scale(0.015625)"/>
       <path id="DejaVuSans-6d" d="M 3328 2828 
Q 3544 3216 3844 3400 
Q 4144 3584 4550 3584 
Q 5097 3584 5394 3201 
Q 5691 2819 5691 2113 
L 5691 0 
L 5113 0 
L 5113 2094 
Q 5113 2597 4934 2840 
Q 4756 3084 4391 3084 
Q 3944 3084 3684 2787 
Q 3425 2491 3425 1978 
L 3425 0 
L 2847 0 
L 2847 2094 
Q 2847 2600 2669 2842 
Q 2491 3084 2119 3084 
Q 1678 3084 1418 2786 
Q 1159 2488 1159 1978 
L 1159 0 
L 581 0 
L 581 3500 
L 1159 3500 
L 1159 2956 
Q 1356 3278 1631 3431 
Q 1906 3584 2284 3584 
Q 2666 3584 2933 3390 
Q 3200 3197 3328 2828 
z
" transform="scale(0.015625)"/>
       <path id="DejaVuSans-6c" d="M 603 4863 
L 1178 4863 
L 1178 0 
L 603 0 
L 603 4863 
z
" transform="scale(0.015625)"/>
      </defs>
      <use xlink:href="#DejaVuSans-32"/>
      <use xlink:href="#DejaVuSans-30" x="63.623047"/>
      <use xlink:href="#DejaVuSans-30" x="127.246094"/>
      <use xlink:href="#DejaVuSans-30" x="190.869141"/>
      <use xlink:href="#DejaVuSans-20" x="254.492188"/>
      <use xlink:href="#DejaVuSans-73" x="286.279297"/>
      <use xlink:href="#DejaVuSans-61" x="338.378906"/>
      <use xlink:href="#DejaVuSans-6d" x="399.658203"/>
      <use xlink:href="#DejaVuSans-70" x="497.070312"/>
      <use xlink:href="#DejaVuSans-6c" x="560.546875"/>
      <use xlink:href="#DejaVuSans-65" x="588.330078"/>
      <use xlink:href="#DejaVuSans-73" x="649.853516"/>
     </g>
    </g>
    <g id="line2d_20">
     <path d="M 66.6 263.648062 
L 76.6 263.648062 
L 86.6 263.648062 
" style="fill: none; stroke: #ff7f0e; stroke-linecap: square"/>
    </g>
    <g id="text_18">
     <!-- 5000 samples -->
     <g transform="translate(94.6 267.148062) scale(0.1 -0.1)">
      <defs>
       <path id="DejaVuSans-35" d="M 691 4666 
L 3169 4666 
L 3169 4134 
L 1269 4134 
L 1269 2991 
Q 1406 3038 1543 3061 
Q 1681 3084 1819 3084 
Q 2600 3084 3056 2656 
Q 3513 2228 3513 1497 
Q 3513 744 3044 326 
Q 2575 -91 1722 -91 
Q 1428 -91 1123 -41 
Q 819 9 494 109 
L 494 744 
Q 775 591 1075 516 
Q 1375 441 1709 441 
Q 2250 441 2565 725 
Q 2881 1009 2881 1497 
Q 2881 1984 2565 2268 
Q 2250 2553 1709 2553 
Q 1456 2553 1204 2497 
Q 953 2441 691 2322 
L 691 4666 
z
" transform="scale(0.015625)"/>
      </defs>
      <use xlink:href="#DejaVuSans-35"/>
      <use xlink:href="#DejaVuSans-30" x="63.623047"/>
      <use xlink:href="#DejaVuSans-30" x="127.246094"/>
      <use xlink:href="#DejaVuSans-30" x="190.869141"/>
      <use xlink:href="#DejaVuSans-20" x="254.492188"/>
      <use xlink:href="#DejaVuSans-73" x="286.279297"/>
      <use xlink:href="#DejaVuSans-61" x="338.378906"/>
      <use xlink:href="#DejaVuSans-6d" x="399.658203"/>
      <use xlink:href="#DejaVuSans-70" x="497.070312"/>
      <use xlink:href="#DejaVuSans-6c" x="560.546875"/>
      <use xlink:href="#DejaVuSans-65" x="588.330078"/>
      <use xlink:href="#DejaVuSans-73" x="649.853516"/>
     </g>
    </g>
    <g id="line2d_21">
     <path d="M 66.6 278.326187 
L 76.6 278.326187 
L 86.6 278.326187 
" style="fill: none; stroke: #2ca02c; stroke-linecap: square"/>
    </g>
    <g id="text_19">
     <!-- 8000 samples -->
     <g transform="translate(94.6 281.826187) scale(0.1 -0.1)">
      <use xlink:href="#DejaVuSans-38"/>
      <use xlink:href="#DejaVuSans-30" x="63.623047"/>
      <use xlink:href="#DejaVuSans-30" x="127.246094"/>
      <use xlink:href="#DejaVuSans-30" x="190.869141"/>
      <use xlink:href="#DejaVuSans-20" x="254.492188"/>
      <use xlink:href="#DejaVuSans-73" x="286.279297"/>
      <use xlink:href="#DejaVuSans-61" x="338.378906"/>
      <use xlink:href="#DejaVuSans-6d" x="399.658203"/>
      <use xlink:href="#DejaVuSans-70" x="497.070312"/>
      <use xlink:href="#DejaVuSans-6c" x="560.546875"/>
      <use xlink:href="#DejaVuSans-65" x="588.330078"/>
      <use xlink:href="#DejaVuSans-73" x="649.853516"/>
     </g>
    </g>
    <g id="line2d_22">
     <path d="M 66.6 293.004312 
L 76.6 293.004312 
L 86.6 293.004312 
" style="fill: none; stroke: #d62728; stroke-linecap: square"/>
    </g>
    <g id="text_20">
     <!-- 10000 samples -->
     <g transform="translate(94.6 296.504312) scale(0.1 -0.1)">
      <use xlink:href="#DejaVuSans-31"/>
      <use xlink:href="#DejaVuSans-30" x="63.623047"/>
      <use xlink:href="#DejaVuSans-30" x="127.246094"/>
      <use xlink:href="#DejaVuSans-30" x="190.869141"/>
      <use xlink:href="#DejaVuSans-30" x="254.492188"/>
      <use xlink:href="#DejaVuSans-20" x="318.115234"/>
      <use xlink:href="#DejaVuSans-73" x="349.902344"/>
      <use xlink:href="#DejaVuSans-61" x="402.001953"/>
      <use xlink:href="#DejaVuSans-6d" x="463.28125"/>
      <use xlink:href="#DejaVuSans-70" x="560.693359"/>
      <use xlink:href="#DejaVuSans-6c" x="624.169922"/>
      <use xlink:href="#DejaVuSans-65" x="651.953125"/>
      <use xlink:href="#DejaVuSans-73" x="713.476562"/>
     </g>
    </g>
   </g>
  </g>
 </g>
 <defs>
  <clipPath id="peaff0c901a">
   <rect x="57.6" y="41.472" width="357.12" height="266.112"/>
  </clipPath>
 </defs>
</svg>
