<?xml version="1.0" encoding="utf-8" standalone="no"?>
<!DOCTYPE svg PUBLIC "-//W3C//DTD SVG 1.1//EN"
  "http://www.w3.org/Graphics/SVG/1.1/DTD/svg11.dtd">
<svg xmlns:xlink="http://www.w3.org/1999/xlink" width="460.8pt" height="345.6pt" viewBox="0 0 460.8 345.6" xmlns="http://www.w3.org/2000/svg" version="1.1">
 <metadata>
  <rdf:RDF xmlns:dc="http://purl.org/dc/elements/1.1/" xmlns:cc="http://creativecommons.org/ns#" xmlns:rdf="http://www.w3.org/1999/02/22-rdf-syntax-ns#">
   <cc:Work>
    <dc:type rdf:resource="http://purl.org/dc/dcmitype/StillImage"/>
    <dc:date>2023-09-13T16:28:03.880480</dc:date>
    <dc:format>image/svg+xml</dc:format>
    <dc:creator>
     <cc:Agent>
      <dc:title>Matplotlib v3.7.1, https://matplotlib.org/</dc:title>
     </cc:Agent>
    </dc:creator>
   </cc:Work>
  </rdf:RDF>
 </metadata>
 <defs>
  <style type="text/css">*{stroke-linejoin: round; stroke-linecap: butt}</style>
 </defs>
 <g id="figure_1">
  <g id="patch_1">
   <path d="M 0 345.6 
L 460.8 345.6 
L 460.8 0 
L 0 0 
z
" style="fill: #ffffff"/>
  </g>
  <g id="axes_1">
   <g id="patch_2">
    <path d="M 57.6 307.584 
L 414.72 307.584 
L 414.72 41.472 
L 57.6 41.472 
z
" style="fill: #ffffff"/>
   </g>
   <g id="matplotlib.axis_1">
    <g id="xtick_1">
     <g id="line2d_1">
      <defs>
       <path id="md94d0f8ba8" d="M 0 0 
L 0 3.5 
" style="stroke: #000000; stroke-width: 0.8"/>
      </defs>
      <g>
       <use xlink:href="#md94d0f8ba8" x="71.653838" y="307.584" style="stroke: #000000; stroke-width: 0.8"/>
      </g>
     </g>
     <g id="text_1">
      <!-- 0 -->
      <g transform="translate(68.472588 322.182437) scale(0.1 -0.1)">
       <defs>
        <path id="DejaVuSans-30" d="M 2034 4250 
Q 1547 4250 1301 3770 
Q 1056 3291 1056 2328 
Q 1056 1369 1301 889 
Q 1547 409 2034 409 
Q 2525 409 2770 889 
Q 3016 1369 3016 2328 
Q 3016 3291 2770 3770 
Q 2525 4250 2034 4250 
z
M 2034 4750 
Q 2819 4750 3233 4129 
Q 3647 3509 3647 2328 
Q 3647 1150 3233 529 
Q 2819 -91 2034 -91 
Q 1250 -91 836 529 
Q 422 1150 422 2328 
Q 422 3509 836 4129 
Q 1250 4750 2034 4750 
z
" transform="scale(0.015625)"/>
       </defs>
       <use xlink:href="#DejaVuSans-30"/>
      </g>
     </g>
    </g>
    <g id="xtick_2">
     <g id="line2d_2">
      <g>
       <use xlink:href="#md94d0f8ba8" x="115.231629" y="307.584" style="stroke: #000000; stroke-width: 0.8"/>
      </g>
     </g>
     <g id="text_2">
      <!-- 20 -->
      <g transform="translate(108.869129 322.182437) scale(0.1 -0.1)">
       <defs>
        <path id="DejaVuSans-32" d="M 1228 531 
L 3431 531 
L 3431 0 
L 469 0 
L 469 531 
Q 828 903 1448 1529 
Q 2069 2156 2228 2338 
Q 2531 2678 2651 2914 
Q 2772 3150 2772 3378 
Q 2772 3750 2511 3984 
Q 2250 4219 1831 4219 
Q 1534 4219 1204 4116 
Q 875 4013 500 3803 
L 500 4441 
Q 881 4594 1212 4672 
Q 1544 4750 1819 4750 
Q 2544 4750 2975 4387 
Q 3406 4025 3406 3419 
Q 3406 3131 3298 2873 
Q 3191 2616 2906 2266 
Q 2828 2175 2409 1742 
Q 1991 1309 1228 531 
z
" transform="scale(0.015625)"/>
       </defs>
       <use xlink:href="#DejaVuSans-32"/>
       <use xlink:href="#DejaVuSans-30" x="63.623047"/>
      </g>
     </g>
    </g>
    <g id="xtick_3">
     <g id="line2d_3">
      <g>
       <use xlink:href="#md94d0f8ba8" x="158.80942" y="307.584" style="stroke: #000000; stroke-width: 0.8"/>
      </g>
     </g>
     <g id="text_3">
      <!-- 40 -->
      <g transform="translate(152.44692 322.182437) scale(0.1 -0.1)">
       <defs>
        <path id="DejaVuSans-34" d="M 2419 4116 
L 825 1625 
L 2419 1625 
L 2419 4116 
z
M 2253 4666 
L 3047 4666 
L 3047 1625 
L 3713 1625 
L 3713 1100 
L 3047 1100 
L 3047 0 
L 2419 0 
L 2419 1100 
L 313 1100 
L 313 1709 
L 2253 4666 
z
" transform="scale(0.015625)"/>
       </defs>
       <use xlink:href="#DejaVuSans-34"/>
       <use xlink:href="#DejaVuSans-30" x="63.623047"/>
      </g>
     </g>
    </g>
    <g id="xtick_4">
     <g id="line2d_4">
      <g>
       <use xlink:href="#md94d0f8ba8" x="202.387212" y="307.584" style="stroke: #000000; stroke-width: 0.8"/>
      </g>
     </g>
     <g id="text_4">
      <!-- 60 -->
      <g transform="translate(196.024712 322.182437) scale(0.1 -0.1)">
       <defs>
        <path id="DejaVuSans-36" d="M 2113 2584 
Q 1688 2584 1439 2293 
Q 1191 2003 1191 1497 
Q 1191 994 1439 701 
Q 1688 409 2113 409 
Q 2538 409 2786 701 
Q 3034 994 3034 1497 
Q 3034 2003 2786 2293 
Q 2538 2584 2113 2584 
z
M 3366 4563 
L 3366 3988 
Q 3128 4100 2886 4159 
Q 2644 4219 2406 4219 
Q 1781 4219 1451 3797 
Q 1122 3375 1075 2522 
Q 1259 2794 1537 2939 
Q 1816 3084 2150 3084 
Q 2853 3084 3261 2657 
Q 3669 2231 3669 1497 
Q 3669 778 3244 343 
Q 2819 -91 2113 -91 
Q 1303 -91 875 529 
Q 447 1150 447 2328 
Q 447 3434 972 4092 
Q 1497 4750 2381 4750 
Q 2619 4750 2861 4703 
Q 3103 4656 3366 4563 
z
" transform="scale(0.015625)"/>
       </defs>
       <use xlink:href="#DejaVuSans-36"/>
       <use xlink:href="#DejaVuSans-30" x="63.623047"/>
      </g>
     </g>
    </g>
    <g id="xtick_5">
     <g id="line2d_5">
      <g>
       <use xlink:href="#md94d0f8ba8" x="245.965003" y="307.584" style="stroke: #000000; stroke-width: 0.8"/>
      </g>
     </g>
     <g id="text_5">
      <!-- 80 -->
      <g transform="translate(239.602503 322.182437) scale(0.1 -0.1)">
       <defs>
        <path id="DejaVuSans-38" d="M 2034 2216 
Q 1584 2216 1326 1975 
Q 1069 1734 1069 1313 
Q 1069 891 1326 650 
Q 1584 409 2034 409 
Q 2484 409 2743 651 
Q 3003 894 3003 1313 
Q 3003 1734 2745 1975 
Q 2488 2216 2034 2216 
z
M 1403 2484 
Q 997 2584 770 2862 
Q 544 3141 544 3541 
Q 544 4100 942 4425 
Q 1341 4750 2034 4750 
Q 2731 4750 3128 4425 
Q 3525 4100 3525 3541 
Q 3525 3141 3298 2862 
Q 3072 2584 2669 2484 
Q 3125 2378 3379 2068 
Q 3634 1759 3634 1313 
Q 3634 634 3220 271 
Q 2806 -91 2034 -91 
Q 1263 -91 848 271 
Q 434 634 434 1313 
Q 434 1759 690 2068 
Q 947 2378 1403 2484 
z
M 1172 3481 
Q 1172 3119 1398 2916 
Q 1625 2713 2034 2713 
Q 2441 2713 2670 2916 
Q 2900 3119 2900 3481 
Q 2900 3844 2670 4047 
Q 2441 4250 2034 4250 
Q 1625 4250 1398 4047 
Q 1172 3844 1172 3481 
z
" transform="scale(0.015625)"/>
       </defs>
       <use xlink:href="#DejaVuSans-38"/>
       <use xlink:href="#DejaVuSans-30" x="63.623047"/>
      </g>
     </g>
    </g>
    <g id="xtick_6">
     <g id="line2d_6">
      <g>
       <use xlink:href="#md94d0f8ba8" x="289.542794" y="307.584" style="stroke: #000000; stroke-width: 0.8"/>
      </g>
     </g>
     <g id="text_6">
      <!-- 100 -->
      <g transform="translate(279.999044 322.182437) scale(0.1 -0.1)">
       <defs>
        <path id="DejaVuSans-31" d="M 794 531 
L 1825 531 
L 1825 4091 
L 703 3866 
L 703 4441 
L 1819 4666 
L 2450 4666 
L 2450 531 
L 3481 531 
L 3481 0 
L 794 0 
L 794 531 
z
" transform="scale(0.015625)"/>
       </defs>
       <use xlink:href="#DejaVuSans-31"/>
       <use xlink:href="#DejaVuSans-30" x="63.623047"/>
       <use xlink:href="#DejaVuSans-30" x="127.246094"/>
      </g>
     </g>
    </g>
    <g id="xtick_7">
     <g id="line2d_7">
      <g>
       <use xlink:href="#md94d0f8ba8" x="333.120586" y="307.584" style="stroke: #000000; stroke-width: 0.8"/>
      </g>
     </g>
     <g id="text_7">
      <!-- 120 -->
      <g transform="translate(323.576836 322.182437) scale(0.1 -0.1)">
       <use xlink:href="#DejaVuSans-31"/>
       <use xlink:href="#DejaVuSans-32" x="63.623047"/>
       <use xlink:href="#DejaVuSans-30" x="127.246094"/>
      </g>
     </g>
    </g>
    <g id="xtick_8">
     <g id="line2d_8">
      <g>
       <use xlink:href="#md94d0f8ba8" x="376.698377" y="307.584" style="stroke: #000000; stroke-width: 0.8"/>
      </g>
     </g>
     <g id="text_8">
      <!-- 140 -->
      <g transform="translate(367.154627 322.182437) scale(0.1 -0.1)">
       <use xlink:href="#DejaVuSans-31"/>
       <use xlink:href="#DejaVuSans-34" x="63.623047"/>
       <use xlink:href="#DejaVuSans-30" x="127.246094"/>
      </g>
     </g>
    </g>
    <g id="text_9">
     <!-- epoch -->
     <g transform="translate(220.931875 335.860562) scale(0.1 -0.1)">
      <defs>
       <path id="DejaVuSans-65" d="M 3597 1894 
L 3597 1613 
L 953 1613 
Q 991 1019 1311 708 
Q 1631 397 2203 397 
Q 2534 397 2845 478 
Q 3156 559 3463 722 
L 3463 178 
Q 3153 47 2828 -22 
Q 2503 -91 2169 -91 
Q 1331 -91 842 396 
Q 353 884 353 1716 
Q 353 2575 817 3079 
Q 1281 3584 2069 3584 
Q 2775 3584 3186 3129 
Q 3597 2675 3597 1894 
z
M 3022 2063 
Q 3016 2534 2758 2815 
Q 2500 3097 2075 3097 
Q 1594 3097 1305 2825 
Q 1016 2553 972 2059 
L 3022 2063 
z
" transform="scale(0.015625)"/>
       <path id="DejaVuSans-70" d="M 1159 525 
L 1159 -1331 
L 581 -1331 
L 581 3500 
L 1159 3500 
L 1159 2969 
Q 1341 3281 1617 3432 
Q 1894 3584 2278 3584 
Q 2916 3584 3314 3078 
Q 3713 2572 3713 1747 
Q 3713 922 3314 415 
Q 2916 -91 2278 -91 
Q 1894 -91 1617 61 
Q 1341 213 1159 525 
z
M 3116 1747 
Q 3116 2381 2855 2742 
Q 2594 3103 2138 3103 
Q 1681 3103 1420 2742 
Q 1159 2381 1159 1747 
Q 1159 1113 1420 752 
Q 1681 391 2138 391 
Q 2594 391 2855 752 
Q 3116 1113 3116 1747 
z
" transform="scale(0.015625)"/>
       <path id="DejaVuSans-6f" d="M 1959 3097 
Q 1497 3097 1228 2736 
Q 959 2375 959 1747 
Q 959 1119 1226 758 
Q 1494 397 1959 397 
Q 2419 397 2687 759 
Q 2956 1122 2956 1747 
Q 2956 2369 2687 2733 
Q 2419 3097 1959 3097 
z
M 1959 3584 
Q 2709 3584 3137 3096 
Q 3566 2609 3566 1747 
Q 3566 888 3137 398 
Q 2709 -91 1959 -91 
Q 1206 -91 779 398 
Q 353 888 353 1747 
Q 353 2609 779 3096 
Q 1206 3584 1959 3584 
z
" transform="scale(0.015625)"/>
       <path id="DejaVuSans-63" d="M 3122 3366 
L 3122 2828 
Q 2878 2963 2633 3030 
Q 2388 3097 2138 3097 
Q 1578 3097 1268 2742 
Q 959 2388 959 1747 
Q 959 1106 1268 751 
Q 1578 397 2138 397 
Q 2388 397 2633 464 
Q 2878 531 3122 666 
L 3122 134 
Q 2881 22 2623 -34 
Q 2366 -91 2075 -91 
Q 1284 -91 818 406 
Q 353 903 353 1747 
Q 353 2603 823 3093 
Q 1294 3584 2113 3584 
Q 2378 3584 2631 3529 
Q 2884 3475 3122 3366 
z
" transform="scale(0.015625)"/>
       <path id="DejaVuSans-68" d="M 3513 2113 
L 3513 0 
L 2938 0 
L 2938 2094 
Q 2938 2591 2744 2837 
Q 2550 3084 2163 3084 
Q 1697 3084 1428 2787 
Q 1159 2491 1159 1978 
L 1159 0 
L 581 0 
L 581 4863 
L 1159 4863 
L 1159 2956 
Q 1366 3272 1645 3428 
Q 1925 3584 2291 3584 
Q 2894 3584 3203 3211 
Q 3513 2838 3513 2113 
z
" transform="scale(0.015625)"/>
      </defs>
      <use xlink:href="#DejaVuSans-65"/>
      <use xlink:href="#DejaVuSans-70" x="61.523438"/>
      <use xlink:href="#DejaVuSans-6f" x="125"/>
      <use xlink:href="#DejaVuSans-63" x="186.181641"/>
      <use xlink:href="#DejaVuSans-68" x="241.162109"/>
     </g>
    </g>
   </g>
   <g id="matplotlib.axis_2">
    <g id="ytick_1">
     <g id="line2d_9">
      <defs>
       <path id="md5e1df67a4" d="M 0 0 
L -3.5 0 
" style="stroke: #000000; stroke-width: 0.8"/>
      </defs>
      <g>
       <use xlink:href="#md5e1df67a4" x="57.6" y="307.584" style="stroke: #000000; stroke-width: 0.8"/>
      </g>
     </g>
     <g id="text_10">
      <!-- 0.0 -->
      <g transform="translate(34.696875 311.383219) scale(0.1 -0.1)">
       <defs>
        <path id="DejaVuSans-2e" d="M 684 794 
L 1344 794 
L 1344 0 
L 684 0 
L 684 794 
z
" transform="scale(0.015625)"/>
       </defs>
       <use xlink:href="#DejaVuSans-30"/>
       <use xlink:href="#DejaVuSans-2e" x="63.623047"/>
       <use xlink:href="#DejaVuSans-30" x="95.410156"/>
      </g>
     </g>
    </g>
    <g id="ytick_2">
     <g id="line2d_10">
      <g>
       <use xlink:href="#md5e1df67a4" x="57.6" y="255.46465" style="stroke: #000000; stroke-width: 0.8"/>
      </g>
     </g>
     <g id="text_11">
      <!-- 0.2 -->
      <g transform="translate(34.696875 259.263869) scale(0.1 -0.1)">
       <use xlink:href="#DejaVuSans-30"/>
       <use xlink:href="#DejaVuSans-2e" x="63.623047"/>
       <use xlink:href="#DejaVuSans-32" x="95.410156"/>
      </g>
     </g>
    </g>
    <g id="ytick_3">
     <g id="line2d_11">
      <g>
       <use xlink:href="#md5e1df67a4" x="57.6" y="203.3453" style="stroke: #000000; stroke-width: 0.8"/>
      </g>
     </g>
     <g id="text_12">
      <!-- 0.4 -->
      <g transform="translate(34.696875 207.144518) scale(0.1 -0.1)">
       <use xlink:href="#DejaVuSans-30"/>
       <use xlink:href="#DejaVuSans-2e" x="63.623047"/>
       <use xlink:href="#DejaVuSans-34" x="95.410156"/>
      </g>
     </g>
    </g>
    <g id="ytick_4">
     <g id="line2d_12">
      <g>
       <use xlink:href="#md5e1df67a4" x="57.6" y="151.22595" style="stroke: #000000; stroke-width: 0.8"/>
      </g>
     </g>
     <g id="text_13">
      <!-- 0.6 -->
      <g transform="translate(34.696875 155.025168) scale(0.1 -0.1)">
       <use xlink:href="#DejaVuSans-30"/>
       <use xlink:href="#DejaVuSans-2e" x="63.623047"/>
       <use xlink:href="#DejaVuSans-36" x="95.410156"/>
      </g>
     </g>
    </g>
    <g id="ytick_5">
     <g id="line2d_13">
      <g>
       <use xlink:href="#md5e1df67a4" x="57.6" y="99.106599" style="stroke: #000000; stroke-width: 0.8"/>
      </g>
     </g>
     <g id="text_14">
      <!-- 0.8 -->
      <g transform="translate(34.696875 102.905818) scale(0.1 -0.1)">
       <use xlink:href="#DejaVuSans-30"/>
       <use xlink:href="#DejaVuSans-2e" x="63.623047"/>
       <use xlink:href="#DejaVuSans-38" x="95.410156"/>
      </g>
     </g>
    </g>
    <g id="ytick_6">
     <g id="line2d_14">
      <g>
       <use xlink:href="#md5e1df67a4" x="57.6" y="46.987249" style="stroke: #000000; stroke-width: 0.8"/>
      </g>
     </g>
     <g id="text_15">
      <!-- 1.0 -->
      <g transform="translate(34.696875 50.786468) scale(0.1 -0.1)">
       <use xlink:href="#DejaVuSans-31"/>
       <use xlink:href="#DejaVuSans-2e" x="63.623047"/>
       <use xlink:href="#DejaVuSans-30" x="95.410156"/>
      </g>
     </g>
    </g>
   </g>
   <g id="line2d_15">
    <path d="M 73.832727 228.338006 
L 76.011617 95.516038 
L 78.190506 92.751039 
L 80.369396 93.051336 
L 82.548286 89.396574 
L 86.906065 88.89892 
L 89.084954 90.573908 
L 91.263844 90.07956 
L 93.442733 89.432676 
L 95.621623 88.940892 
L 97.800513 89.348488 
L 99.979402 90.756268 
L 102.158292 90.028563 
L 104.337181 91.012159 
L 106.516071 96.213261 
L 108.69496 89.445237 
L 110.87385 92.335162 
L 113.052739 87.272307 
L 115.231629 91.706391 
L 117.410519 89.446158 
L 119.589408 87.410578 
L 121.768298 88.658689 
L 123.947187 88.76896 
L 126.126077 89.297966 
L 128.304966 89.243798 
L 130.483856 88.875468 
L 132.662746 89.680778 
L 134.841635 89.574216 
L 137.020525 90.718637 
L 139.199414 89.525656 
L 141.378304 89.104264 
L 143.557193 89.554788 
L 145.736083 90.873776 
L 147.914973 89.000419 
L 150.093862 90.007963 
L 152.272752 88.4659 
L 154.451641 90.673606 
L 156.630531 88.496816 
L 158.80942 88.405353 
L 160.98831 89.168191 
L 163.1672 91.329016 
L 167.524979 87.808495 
L 169.703868 87.834054 
L 171.882758 90.030862 
L 174.061647 87.05321 
L 176.240537 89.490425 
L 178.419426 89.900716 
L 180.598316 87.406492 
L 182.777206 88.954501 
L 184.956095 89.051443 
L 187.134985 87.741516 
L 189.313874 91.051081 
L 191.492764 88.84174 
L 193.671653 87.948824 
L 195.850543 89.452057 
L 198.029433 88.591449 
L 200.208322 89.504452 
L 202.387212 90.074127 
L 204.566101 91.148838 
L 206.744991 88.417288 
L 208.92388 90.06968 
L 211.10277 89.947123 
L 213.28166 89.384065 
L 215.460549 90.229592 
L 217.639439 87.739206 
L 219.818328 88.663525 
L 221.997218 88.992768 
L 226.354997 89.108244 
L 228.533887 89.655955 
L 230.712776 88.515344 
L 232.891666 88.005028 
L 235.070555 92.443431 
L 237.249445 90.968929 
L 239.428334 88.769633 
L 243.786113 88.619172 
L 245.965003 89.232069 
L 248.143893 89.465399 
L 250.322782 89.338253 
L 252.501672 90.294531 
L 254.680561 88.167946 
L 256.859451 87.826548 
L 259.03834 88.415608 
L 261.21723 88.125406 
L 263.39612 88.439254 
L 265.575009 87.12594 
L 267.753899 88.865833 
L 269.932788 89.029058 
L 272.111678 87.908555 
L 274.290567 89.133284 
L 276.469457 87.647926 
L 278.648347 89.082602 
L 280.827236 90.184366 
L 283.006126 89.019068 
L 285.185015 88.476159 
L 287.363905 87.81481 
L 289.542794 89.512846 
L 291.721684 90.371999 
L 293.900574 88.182965 
L 296.079463 86.367105 
L 298.258353 88.416757 
L 300.437242 86.626257 
L 302.616132 86.402608 
L 304.795021 88.84679 
L 306.973911 85.824 
L 309.1528 86.484944 
L 311.33169 86.940272 
L 313.51058 89.772752 
L 315.689469 89.75289 
L 317.868359 90.033298 
L 320.047248 87.378842 
L 322.226138 87.984553 
L 324.405027 91.835241 
L 326.583917 86.042484 
L 328.762807 89.002866 
L 330.941696 88.987762 
L 333.120586 87.984979 
L 335.299475 89.85643 
L 337.478365 91.097731 
L 339.657254 88.793067 
L 341.836144 91.823732 
L 344.015034 88.811087 
L 346.193923 87.257214 
L 348.372813 86.992585 
L 350.551702 87.452839 
L 352.730592 88.128016 
L 354.909481 88.577174 
L 357.088371 93.78889 
L 359.267261 87.713311 
L 361.44615 90.393539 
L 363.62504 87.089312 
L 365.803929 87.829514 
L 367.982819 91.704112 
L 370.161708 86.13856 
L 372.340598 90.833247 
L 374.519487 88.395637 
L 376.698377 87.589663 
L 378.877267 90.137033 
L 381.056156 89.132108 
L 383.235046 87.971975 
L 385.413935 88.057935 
L 387.592825 89.450676 
L 389.771714 88.602274 
L 391.950604 88.241045 
L 394.129494 88.107836 
L 396.308383 88.385697 
L 398.487273 89.018551 
L 398.487273 89.018551 
" clip-path="url(#paddfd977f6)" style="fill: none; stroke: #1f77b4; stroke-linecap: square"/>
   </g>
   <g id="line2d_16">
    <path d="M 73.832727 228.570145 
L 82.548286 228.572065 
L 84.727175 195.361562 
L 86.906065 127.108188 
L 89.084954 102.373307 
L 91.263844 114.340865 
L 93.442733 112.618264 
L 95.621623 228.565664 
L 97.800513 117.792946 
L 99.979402 114.933141 
L 102.158292 107.001945 
L 104.337181 228.568865 
L 106.516071 110.463802 
L 108.69496 112.603102 
L 110.87385 106.175234 
L 113.052739 102.938906 
L 117.410519 103.481068 
L 119.589408 107.827886 
L 121.768298 103.376473 
L 123.947187 103.290315 
L 126.126077 104.246821 
L 128.304966 104.771708 
L 130.483856 101.697732 
L 132.662746 101.312754 
L 134.841635 102.072336 
L 137.020525 100.503391 
L 139.199414 101.332064 
L 141.378304 102.959416 
L 143.557193 105.342986 
L 145.736083 102.576361 
L 147.914973 106.594516 
L 150.093862 103.169768 
L 152.272752 102.018357 
L 154.451641 121.099778 
L 156.630531 98.355124 
L 158.80942 102.564485 
L 160.98831 107.619045 
L 163.1672 101.307456 
L 165.346089 109.613127 
L 167.524979 102.607182 
L 169.703868 103.446129 
L 171.882758 98.557478 
L 174.061647 102.514031 
L 176.240537 107.354699 
L 178.419426 99.175192 
L 180.598316 100.706668 
L 182.777206 101.574932 
L 184.956095 101.728951 
L 187.134985 115.135261 
L 189.313874 102.619726 
L 191.492764 100.538872 
L 193.671653 99.254883 
L 195.850543 103.802913 
L 198.029433 99.864432 
L 200.208322 101.137462 
L 202.387212 100.179044 
L 204.566101 105.597537 
L 206.744991 98.751858 
L 208.92388 102.595188 
L 211.10277 101.61968 
L 213.28166 102.635846 
L 215.460549 102.530201 
L 217.639439 102.790834 
L 219.818328 102.143622 
L 221.997218 104.61828 
L 224.176107 100.312646 
L 226.354997 103.894904 
L 228.533887 105.109775 
L 230.712776 100.879141 
L 232.891666 104.026017 
L 235.070555 103.865187 
L 237.249445 97.10373 
L 239.428334 103.014233 
L 241.607224 101.945407 
L 243.786113 108.124482 
L 245.965003 106.010032 
L 248.143893 101.121401 
L 250.322782 102.212591 
L 252.501672 100.998839 
L 254.680561 101.424255 
L 256.859451 103.604933 
L 259.03834 100.557268 
L 261.21723 103.370463 
L 263.39612 103.50355 
L 265.575009 101.65282 
L 267.753899 102.133862 
L 269.932788 101.552295 
L 272.111678 104.917753 
L 274.290567 102.342693 
L 276.469457 100.131546 
L 278.648347 100.670761 
L 280.827236 107.736592 
L 283.006126 100.194874 
L 285.185015 100.042335 
L 287.363905 100.970018 
L 289.542794 107.567227 
L 291.721684 102.388366 
L 293.900574 102.304952 
L 296.079463 101.850636 
L 298.258353 102.608323 
L 300.437242 102.91153 
L 302.616132 98.293138 
L 304.795021 103.799809 
L 306.973911 104.866815 
L 309.1528 102.29178 
L 311.33169 104.174344 
L 313.51058 102.57135 
L 315.689469 105.770871 
L 317.868359 104.108023 
L 320.047248 104.368151 
L 322.226138 97.171403 
L 324.405027 101.744141 
L 326.583917 99.299821 
L 328.762807 102.553339 
L 330.941696 99.904062 
L 333.120586 103.995659 
L 335.299475 100.940561 
L 337.478365 101.986752 
L 339.657254 104.474469 
L 341.836144 102.02832 
L 344.015034 101.004123 
L 346.193923 101.331029 
L 348.372813 102.762178 
L 350.551702 101.403998 
L 352.730592 104.532183 
L 354.909481 100.751013 
L 357.088371 103.977891 
L 359.267261 101.553713 
L 361.44615 97.931944 
L 363.62504 105.415916 
L 365.803929 101.973533 
L 367.982819 101.094266 
L 370.161708 101.762385 
L 372.340598 100.860632 
L 374.519487 102.255245 
L 376.698377 105.751821 
L 378.877267 98.967941 
L 381.056156 101.696147 
L 383.235046 101.260661 
L 385.413935 98.151413 
L 387.592825 102.905672 
L 389.771714 107.279961 
L 391.950604 101.405081 
L 394.129494 100.901945 
L 396.308383 103.343223 
L 398.487273 101.553704 
L 398.487273 101.553704 
" clip-path="url(#paddfd977f6)" style="fill: none; stroke: #ff7f0e; stroke-linecap: square"/>
   </g>
   <g id="line2d_17">
    <path d="M 73.832727 221.594078 
L 76.011617 223.334454 
L 78.190506 101.323856 
L 80.369396 92.708735 
L 82.548286 223.334454 
L 84.727175 125.667325 
L 86.906065 161.592468 
L 89.084954 88.799212 
L 91.263844 88.64372 
L 93.442733 90.024355 
L 95.621623 91.625142 
L 97.800513 93.652349 
L 99.979402 98.541734 
L 102.158292 95.389734 
L 104.337181 93.794391 
L 106.516071 96.184228 
L 108.69496 93.202113 
L 110.87385 91.358242 
L 113.052739 94.003955 
L 115.231629 99.172327 
L 117.410519 97.676007 
L 119.589408 87.975934 
L 121.768298 90.749921 
L 123.947187 90.877229 
L 126.126077 92.002473 
L 128.304966 88.877282 
L 130.483856 88.326811 
L 134.841635 92.485915 
L 137.020525 91.325048 
L 139.199414 88.786566 
L 141.378304 91.127703 
L 143.557193 89.991192 
L 147.914973 91.524407 
L 150.093862 91.295861 
L 152.272752 88.669935 
L 154.451641 91.939339 
L 156.630531 90.628606 
L 158.80942 89.477104 
L 160.98831 91.95338 
L 163.1672 90.196805 
L 165.346089 91.977566 
L 167.524979 89.597593 
L 169.703868 89.052734 
L 171.882758 95.353269 
L 174.061647 88.684423 
L 176.240537 91.704505 
L 178.419426 91.72737 
L 180.598316 92.046104 
L 182.777206 93.279226 
L 184.956095 93.701583 
L 187.134985 87.292554 
L 189.313874 91.033845 
L 191.492764 93.219656 
L 193.671653 89.736096 
L 195.850543 90.608892 
L 198.029433 88.178998 
L 200.208322 88.936336 
L 202.387212 91.916514 
L 204.566101 89.271825 
L 206.744991 88.032718 
L 208.92388 90.390844 
L 211.10277 92.149454 
L 213.28166 88.799225 
L 215.460549 89.148945 
L 217.639439 89.001121 
L 219.818328 97.271776 
L 221.997218 89.31766 
L 224.176107 89.862614 
L 226.354997 90.625511 
L 228.533887 91.997261 
L 232.891666 92.278884 
L 235.070555 91.716502 
L 237.249445 89.821647 
L 239.428334 89.665902 
L 241.607224 89.061263 
L 243.786113 92.327806 
L 245.965003 88.543884 
L 248.143893 91.728095 
L 250.322782 92.605014 
L 252.501672 92.799823 
L 254.680561 91.431085 
L 256.859451 94.019133 
L 259.03834 88.430257 
L 261.21723 90.940377 
L 263.39612 87.570074 
L 265.575009 90.878954 
L 267.753899 93.418474 
L 269.932788 89.804805 
L 272.111678 91.662626 
L 274.290567 91.873364 
L 276.469457 89.955284 
L 278.648347 94.179151 
L 280.827236 92.912993 
L 283.006126 91.34305 
L 285.185015 96.211086 
L 287.363905 91.508671 
L 289.542794 94.476206 
L 291.721684 87.49599 
L 293.900574 90.888877 
L 296.079463 87.654122 
L 298.258353 94.73092 
L 300.437242 90.881935 
L 302.616132 96.307946 
L 304.795021 90.225835 
L 306.973911 91.044096 
L 309.1528 92.296345 
L 311.33169 90.517741 
L 313.51058 92.317091 
L 315.689469 91.951895 
L 317.868359 87.81518 
L 320.047248 90.32293 
L 322.226138 90.276729 
L 324.405027 91.220715 
L 326.583917 90.038182 
L 328.762807 90.434921 
L 330.941696 93.91216 
L 333.120586 91.140645 
L 335.299475 87.993679 
L 337.478365 97.650551 
L 339.657254 92.302908 
L 341.836144 90.448062 
L 344.015034 91.531728 
L 346.193923 87.765547 
L 348.372813 90.063877 
L 350.551702 90.682556 
L 352.730592 88.361195 
L 354.909481 93.353842 
L 357.088371 88.855132 
L 359.267261 91.268938 
L 361.44615 92.114818 
L 363.62504 92.077747 
L 365.803929 94.277456 
L 367.982819 89.995007 
L 370.161708 87.409073 
L 372.340598 92.518986 
L 374.519487 89.967345 
L 376.698377 92.255364 
L 378.877267 89.583401 
L 381.056156 89.537704 
L 383.235046 87.290659 
L 385.413935 89.621624 
L 387.592825 93.036189 
L 389.771714 93.438159 
L 391.950604 90.807165 
L 394.129494 95.135188 
L 396.308383 89.522171 
L 398.487273 95.469207 
L 398.487273 95.469207 
" clip-path="url(#paddfd977f6)" style="fill: none; stroke: #2ca02c; stroke-linecap: square"/>
   </g>
   <g id="line2d_18">
    <path d="M 73.832727 228.776498 
L 80.369396 228.714535 
L 82.548286 228.732239 
L 84.727175 98.698077 
L 86.906065 97.081908 
L 89.084954 138.95371 
L 91.263844 104.190834 
L 93.442733 98.108096 
L 95.621623 95.138293 
L 97.800513 93.490016 
L 99.979402 95.473381 
L 102.158292 92.555401 
L 104.337181 93.155323 
L 106.516071 92.358453 
L 108.69496 92.673647 
L 110.87385 90.894007 
L 113.052739 93.885239 
L 115.231629 91.260513 
L 117.410519 93.395422 
L 119.589408 91.080148 
L 121.768298 95.600622 
L 123.947187 93.544149 
L 126.126077 89.674372 
L 128.304966 90.543856 
L 130.483856 90.33348 
L 132.662746 89.501181 
L 134.841635 91.887859 
L 137.020525 89.278667 
L 139.199414 90.498753 
L 141.378304 90.224289 
L 143.557193 88.995008 
L 145.736083 90.715883 
L 147.914973 90.092181 
L 150.093862 90.274168 
L 152.272752 88.996553 
L 154.451641 88.550147 
L 156.630531 90.526713 
L 158.80942 89.972086 
L 160.98831 90.455819 
L 163.1672 89.812257 
L 165.346089 90.351059 
L 167.524979 90.630176 
L 169.703868 89.269969 
L 171.882758 88.688335 
L 174.061647 91.091827 
L 176.240537 88.303619 
L 178.419426 90.261248 
L 180.598316 90.316203 
L 182.777206 89.745804 
L 187.134985 89.179195 
L 189.313874 88.56786 
L 191.492764 90.825822 
L 193.671653 90.221899 
L 195.850543 90.627621 
L 198.029433 89.872231 
L 200.208322 92.819688 
L 202.387212 93.206807 
L 204.566101 90.321035 
L 206.744991 89.227259 
L 208.92388 87.824291 
L 213.28166 90.294653 
L 215.460549 89.645532 
L 217.639439 90.364461 
L 219.818328 89.523803 
L 221.997218 89.324788 
L 224.176107 88.783506 
L 226.354997 90.246173 
L 228.533887 88.754432 
L 230.712776 88.969643 
L 232.891666 88.410297 
L 235.070555 88.795696 
L 237.249445 89.779523 
L 239.428334 89.665881 
L 241.607224 90.253788 
L 243.786113 88.595554 
L 245.965003 89.279041 
L 248.143893 89.63565 
L 250.322782 89.515776 
L 252.501672 90.891372 
L 254.680561 87.857925 
L 256.859451 89.276782 
L 259.03834 89.284662 
L 261.21723 89.065775 
L 263.39612 89.081513 
L 265.575009 89.215045 
L 267.753899 88.162316 
L 269.932788 89.344248 
L 272.111678 88.431084 
L 274.290567 88.808103 
L 276.469457 89.611663 
L 278.648347 89.166342 
L 280.827236 89.213433 
L 283.006126 88.502413 
L 285.185015 90.433544 
L 287.363905 89.461828 
L 289.542794 90.70138 
L 291.721684 91.286427 
L 293.900574 88.986054 
L 296.079463 87.867415 
L 298.258353 89.501958 
L 300.437242 89.257538 
L 302.616132 90.751107 
L 304.795021 87.902067 
L 306.973911 87.818787 
L 309.1528 89.1928 
L 311.33169 88.513392 
L 313.51058 89.234294 
L 315.689469 89.455825 
L 317.868359 89.126403 
L 320.047248 90.823421 
L 322.226138 89.413456 
L 324.405027 90.654582 
L 326.583917 89.166096 
L 328.762807 88.957898 
L 330.941696 91.142919 
L 333.120586 88.753601 
L 335.299475 88.025086 
L 337.478365 89.638479 
L 339.657254 88.366286 
L 341.836144 88.55323 
L 344.015034 87.968681 
L 346.193923 89.903329 
L 348.372813 87.878435 
L 350.551702 89.667261 
L 352.730592 89.014131 
L 357.088371 89.401356 
L 359.267261 89.263201 
L 361.44615 88.363088 
L 363.62504 89.622914 
L 365.803929 90.116258 
L 367.982819 87.614071 
L 370.161708 91.978253 
L 372.340598 88.055032 
L 374.519487 87.959331 
L 376.698377 89.941106 
L 381.056156 88.541941 
L 383.235046 90.491494 
L 385.413935 88.900969 
L 387.592825 89.334795 
L 389.771714 88.548561 
L 391.950604 90.116047 
L 394.129494 88.78072 
L 396.308383 88.850583 
L 398.487273 90.278444 
L 398.487273 90.278444 
" clip-path="url(#paddfd977f6)" style="fill: none; stroke: #d62728; stroke-linecap: square"/>
   </g>
   <g id="patch_3">
    <path d="M 57.6 307.584 
L 57.6 41.472 
" style="fill: none; stroke: #000000; stroke-width: 0.8; stroke-linejoin: miter; stroke-linecap: square"/>
   </g>
   <g id="patch_4">
    <path d="M 414.72 307.584 
L 414.72 41.472 
" style="fill: none; stroke: #000000; stroke-width: 0.8; stroke-linejoin: miter; stroke-linecap: square"/>
   </g>
   <g id="patch_5">
    <path d="M 57.6 307.584 
L 414.72 307.584 
" style="fill: none; stroke: #000000; stroke-width: 0.8; stroke-linejoin: miter; stroke-linecap: square"/>
   </g>
   <g id="patch_6">
    <path d="M 57.6 41.472 
L 414.72 41.472 
" style="fill: none; stroke: #000000; stroke-width: 0.8; stroke-linejoin: miter; stroke-linecap: square"/>
   </g>
   <g id="text_16">
    <!-- Precision of P_DENS -->
    <g transform="translate(176.4675 35.472) scale(0.12 -0.12)">
     <defs>
      <path id="DejaVuSans-50" d="M 1259 4147 
L 1259 2394 
L 2053 2394 
Q 2494 2394 2734 2622 
Q 2975 2850 2975 3272 
Q 2975 3691 2734 3919 
Q 2494 4147 2053 4147 
L 1259 4147 
z
M 628 4666 
L 2053 4666 
Q 2838 4666 3239 4311 
Q 3641 3956 3641 3272 
Q 3641 2581 3239 2228 
Q 2838 1875 2053 1875 
L 1259 1875 
L 1259 0 
L 628 0 
L 628 4666 
z
" transform="scale(0.015625)"/>
      <path id="DejaVuSans-72" d="M 2631 2963 
Q 2534 3019 2420 3045 
Q 2306 3072 2169 3072 
Q 1681 3072 1420 2755 
Q 1159 2438 1159 1844 
L 1159 0 
L 581 0 
L 581 3500 
L 1159 3500 
L 1159 2956 
Q 1341 3275 1631 3429 
Q 1922 3584 2338 3584 
Q 2397 3584 2469 3576 
Q 2541 3569 2628 3553 
L 2631 2963 
z
" transform="scale(0.015625)"/>
      <path id="DejaVuSans-69" d="M 603 3500 
L 1178 3500 
L 1178 0 
L 603 0 
L 603 3500 
z
M 603 4863 
L 1178 4863 
L 1178 4134 
L 603 4134 
L 603 4863 
z
" transform="scale(0.015625)"/>
      <path id="DejaVuSans-73" d="M 2834 3397 
L 2834 2853 
Q 2591 2978 2328 3040 
Q 2066 3103 1784 3103 
Q 1356 3103 1142 2972 
Q 928 2841 928 2578 
Q 928 2378 1081 2264 
Q 1234 2150 1697 2047 
L 1894 2003 
Q 2506 1872 2764 1633 
Q 3022 1394 3022 966 
Q 3022 478 2636 193 
Q 2250 -91 1575 -91 
Q 1294 -91 989 -36 
Q 684 19 347 128 
L 347 722 
Q 666 556 975 473 
Q 1284 391 1588 391 
Q 1994 391 2212 530 
Q 2431 669 2431 922 
Q 2431 1156 2273 1281 
Q 2116 1406 1581 1522 
L 1381 1569 
Q 847 1681 609 1914 
Q 372 2147 372 2553 
Q 372 3047 722 3315 
Q 1072 3584 1716 3584 
Q 2034 3584 2315 3537 
Q 2597 3491 2834 3397 
z
" transform="scale(0.015625)"/>
      <path id="DejaVuSans-6e" d="M 3513 2113 
L 3513 0 
L 2938 0 
L 2938 2094 
Q 2938 2591 2744 2837 
Q 2550 3084 2163 3084 
Q 1697 3084 1428 2787 
Q 1159 2491 1159 1978 
L 1159 0 
L 581 0 
L 581 3500 
L 1159 3500 
L 1159 2956 
Q 1366 3272 1645 3428 
Q 1925 3584 2291 3584 
Q 2894 3584 3203 3211 
Q 3513 2838 3513 2113 
z
" transform="scale(0.015625)"/>
      <path id="DejaVuSans-20" transform="scale(0.015625)"/>
      <path id="DejaVuSans-66" d="M 2375 4863 
L 2375 4384 
L 1825 4384 
Q 1516 4384 1395 4259 
Q 1275 4134 1275 3809 
L 1275 3500 
L 2222 3500 
L 2222 3053 
L 1275 3053 
L 1275 0 
L 697 0 
L 697 3053 
L 147 3053 
L 147 3500 
L 697 3500 
L 697 3744 
Q 697 4328 969 4595 
Q 1241 4863 1831 4863 
L 2375 4863 
z
" transform="scale(0.015625)"/>
      <path id="DejaVuSans-5f" d="M 3263 -1063 
L 3263 -1509 
L -63 -1509 
L -63 -1063 
L 3263 -1063 
z
" transform="scale(0.015625)"/>
      <path id="DejaVuSans-44" d="M 1259 4147 
L 1259 519 
L 2022 519 
Q 2988 519 3436 956 
Q 3884 1394 3884 2338 
Q 3884 3275 3436 3711 
Q 2988 4147 2022 4147 
L 1259 4147 
z
M 628 4666 
L 1925 4666 
Q 3281 4666 3915 4102 
Q 4550 3538 4550 2338 
Q 4550 1131 3912 565 
Q 3275 0 1925 0 
L 628 0 
L 628 4666 
z
" transform="scale(0.015625)"/>
      <path id="DejaVuSans-45" d="M 628 4666 
L 3578 4666 
L 3578 4134 
L 1259 4134 
L 1259 2753 
L 3481 2753 
L 3481 2222 
L 1259 2222 
L 1259 531 
L 3634 531 
L 3634 0 
L 628 0 
L 628 4666 
z
" transform="scale(0.015625)"/>
      <path id="DejaVuSans-4e" d="M 628 4666 
L 1478 4666 
L 3547 763 
L 3547 4666 
L 4159 4666 
L 4159 0 
L 3309 0 
L 1241 3903 
L 1241 0 
L 628 0 
L 628 4666 
z
" transform="scale(0.015625)"/>
      <path id="DejaVuSans-53" d="M 3425 4513 
L 3425 3897 
Q 3066 4069 2747 4153 
Q 2428 4238 2131 4238 
Q 1616 4238 1336 4038 
Q 1056 3838 1056 3469 
Q 1056 3159 1242 3001 
Q 1428 2844 1947 2747 
L 2328 2669 
Q 3034 2534 3370 2195 
Q 3706 1856 3706 1288 
Q 3706 609 3251 259 
Q 2797 -91 1919 -91 
Q 1588 -91 1214 -16 
Q 841 59 441 206 
L 441 856 
Q 825 641 1194 531 
Q 1563 422 1919 422 
Q 2459 422 2753 634 
Q 3047 847 3047 1241 
Q 3047 1584 2836 1778 
Q 2625 1972 2144 2069 
L 1759 2144 
Q 1053 2284 737 2584 
Q 422 2884 422 3419 
Q 422 4038 858 4394 
Q 1294 4750 2059 4750 
Q 2388 4750 2728 4690 
Q 3069 4631 3425 4513 
z
" transform="scale(0.015625)"/>
     </defs>
     <use xlink:href="#DejaVuSans-50"/>
     <use xlink:href="#DejaVuSans-72" x="58.552734"/>
     <use xlink:href="#DejaVuSans-65" x="97.416016"/>
     <use xlink:href="#DejaVuSans-63" x="158.939453"/>
     <use xlink:href="#DejaVuSans-69" x="213.919922"/>
     <use xlink:href="#DejaVuSans-73" x="241.703125"/>
     <use xlink:href="#DejaVuSans-69" x="293.802734"/>
     <use xlink:href="#DejaVuSans-6f" x="321.585938"/>
     <use xlink:href="#DejaVuSans-6e" x="382.767578"/>
     <use xlink:href="#DejaVuSans-20" x="446.146484"/>
     <use xlink:href="#DejaVuSans-6f" x="477.933594"/>
     <use xlink:href="#DejaVuSans-66" x="539.115234"/>
     <use xlink:href="#DejaVuSans-20" x="574.320312"/>
     <use xlink:href="#DejaVuSans-50" x="606.107422"/>
     <use xlink:href="#DejaVuSans-5f" x="666.410156"/>
     <use xlink:href="#DejaVuSans-44" x="716.410156"/>
     <use xlink:href="#DejaVuSans-45" x="793.412109"/>
     <use xlink:href="#DejaVuSans-4e" x="856.595703"/>
     <use xlink:href="#DejaVuSans-53" x="931.400391"/>
    </g>
   </g>
   <g id="legend_1">
    <g id="patch_7">
     <path d="M 64.6 302.584 
L 173.157812 302.584 
Q 175.157812 302.584 175.157812 300.584 
L 175.157812 242.8715 
Q 175.157812 240.8715 173.157812 240.8715 
L 64.6 240.8715 
Q 62.6 240.8715 62.6 242.8715 
L 62.6 300.584 
Q 62.6 302.584 64.6 302.584 
z
" style="fill: #ffffff; opacity: 0.8; stroke: #cccccc; stroke-linejoin: miter"/>
    </g>
    <g id="line2d_19">
     <path d="M 66.6 248.969937 
L 76.6 248.969937 
L 86.6 248.969937 
" style="fill: none; stroke: #1f77b4; stroke-linecap: square"/>
    </g>
    <g id="text_17">
     <!-- 2000 samples -->
     <g transform="translate(94.6 252.469937) scale(0.1 -0.1)">
      <defs>
       <path id="DejaVuSans-61" d="M 2194 1759 
Q 1497 1759 1228 1600 
Q 959 1441 959 1056 
Q 959 750 1161 570 
Q 1363 391 1709 391 
Q 2188 391 2477 730 
Q 2766 1069 2766 1631 
L 2766 1759 
L 2194 1759 
z
M 3341 1997 
L 3341 0 
L 2766 0 
L 2766 531 
Q 2569 213 2275 61 
Q 1981 -91 1556 -91 
Q 1019 -91 701 211 
Q 384 513 384 1019 
Q 384 1609 779 1909 
Q 1175 2209 1959 2209 
L 2766 2209 
L 2766 2266 
Q 2766 2663 2505 2880 
Q 2244 3097 1772 3097 
Q 1472 3097 1187 3025 
Q 903 2953 641 2809 
L 641 3341 
Q 956 3463 1253 3523 
Q 1550 3584 1831 3584 
Q 2591 3584 2966 3190 
Q 3341 2797 3341 1997 
z
" transform="scale(0.015625)"/>
       <path id="DejaVuSans-6d" d="M 3328 2828 
Q 3544 3216 3844 3400 
Q 4144 3584 4550 3584 
Q 5097 3584 5394 3201 
Q 5691 2819 5691 2113 
L 5691 0 
L 5113 0 
L 5113 2094 
Q 5113 2597 4934 2840 
Q 4756 3084 4391 3084 
Q 3944 3084 3684 2787 
Q 3425 2491 3425 1978 
L 3425 0 
L 2847 0 
L 2847 2094 
Q 2847 2600 2669 2842 
Q 2491 3084 2119 3084 
Q 1678 3084 1418 2786 
Q 1159 2488 1159 1978 
L 1159 0 
L 581 0 
L 581 3500 
L 1159 3500 
L 1159 2956 
Q 1356 3278 1631 3431 
Q 1906 3584 2284 3584 
Q 2666 3584 2933 3390 
Q 3200 3197 3328 2828 
z
" transform="scale(0.015625)"/>
       <path id="DejaVuSans-6c" d="M 603 4863 
L 1178 4863 
L 1178 0 
L 603 0 
L 603 4863 
z
" transform="scale(0.015625)"/>
      </defs>
      <use xlink:href="#DejaVuSans-32"/>
      <use xlink:href="#DejaVuSans-30" x="63.623047"/>
      <use xlink:href="#DejaVuSans-30" x="127.246094"/>
      <use xlink:href="#DejaVuSans-30" x="190.869141"/>
      <use xlink:href="#DejaVuSans-20" x="254.492188"/>
      <use xlink:href="#DejaVuSans-73" x="286.279297"/>
      <use xlink:href="#DejaVuSans-61" x="338.378906"/>
      <use xlink:href="#DejaVuSans-6d" x="399.658203"/>
      <use xlink:href="#DejaVuSans-70" x="497.070312"/>
      <use xlink:href="#DejaVuSans-6c" x="560.546875"/>
      <use xlink:href="#DejaVuSans-65" x="588.330078"/>
      <use xlink:href="#DejaVuSans-73" x="649.853516"/>
     </g>
    </g>
    <g id="line2d_20">
     <path d="M 66.6 263.648062 
L 76.6 263.648062 
L 86.6 263.648062 
" style="fill: none; stroke: #ff7f0e; stroke-linecap: square"/>
    </g>
    <g id="text_18">
     <!-- 5000 samples -->
     <g transform="translate(94.6 267.148062) scale(0.1 -0.1)">
      <defs>
       <path id="DejaVuSans-35" d="M 691 4666 
L 3169 4666 
L 3169 4134 
L 1269 4134 
L 1269 2991 
Q 1406 3038 1543 3061 
Q 1681 3084 1819 3084 
Q 2600 3084 3056 2656 
Q 3513 2228 3513 1497 
Q 3513 744 3044 326 
Q 2575 -91 1722 -91 
Q 1428 -91 1123 -41 
Q 819 9 494 109 
L 494 744 
Q 775 591 1075 516 
Q 1375 441 1709 441 
Q 2250 441 2565 725 
Q 2881 1009 2881 1497 
Q 2881 1984 2565 2268 
Q 2250 2553 1709 2553 
Q 1456 2553 1204 2497 
Q 953 2441 691 2322 
L 691 4666 
z
" transform="scale(0.015625)"/>
      </defs>
      <use xlink:href="#DejaVuSans-35"/>
      <use xlink:href="#DejaVuSans-30" x="63.623047"/>
      <use xlink:href="#DejaVuSans-30" x="127.246094"/>
      <use xlink:href="#DejaVuSans-30" x="190.869141"/>
      <use xlink:href="#DejaVuSans-20" x="254.492188"/>
      <use xlink:href="#DejaVuSans-73" x="286.279297"/>
      <use xlink:href="#DejaVuSans-61" x="338.378906"/>
      <use xlink:href="#DejaVuSans-6d" x="399.658203"/>
      <use xlink:href="#DejaVuSans-70" x="497.070312"/>
      <use xlink:href="#DejaVuSans-6c" x="560.546875"/>
      <use xlink:href="#DejaVuSans-65" x="588.330078"/>
      <use xlink:href="#DejaVuSans-73" x="649.853516"/>
     </g>
    </g>
    <g id="line2d_21">
     <path d="M 66.6 278.326187 
L 76.6 278.326187 
L 86.6 278.326187 
" style="fill: none; stroke: #2ca02c; stroke-linecap: square"/>
    </g>
    <g id="text_19">
     <!-- 8000 samples -->
     <g transform="translate(94.6 281.826187) scale(0.1 -0.1)">
      <use xlink:href="#DejaVuSans-38"/>
      <use xlink:href="#DejaVuSans-30" x="63.623047"/>
      <use xlink:href="#DejaVuSans-30" x="127.246094"/>
      <use xlink:href="#DejaVuSans-30" x="190.869141"/>
      <use xlink:href="#DejaVuSans-20" x="254.492188"/>
      <use xlink:href="#DejaVuSans-73" x="286.279297"/>
      <use xlink:href="#DejaVuSans-61" x="338.378906"/>
      <use xlink:href="#DejaVuSans-6d" x="399.658203"/>
      <use xlink:href="#DejaVuSans-70" x="497.070312"/>
      <use xlink:href="#DejaVuSans-6c" x="560.546875"/>
      <use xlink:href="#DejaVuSans-65" x="588.330078"/>
      <use xlink:href="#DejaVuSans-73" x="649.853516"/>
     </g>
    </g>
    <g id="line2d_22">
     <path d="M 66.6 293.004312 
L 76.6 293.004312 
L 86.6 293.004312 
" style="fill: none; stroke: #d62728; stroke-linecap: square"/>
    </g>
    <g id="text_20">
     <!-- 10000 samples -->
     <g transform="translate(94.6 296.504312) scale(0.1 -0.1)">
      <use xlink:href="#DejaVuSans-31"/>
      <use xlink:href="#DejaVuSans-30" x="63.623047"/>
      <use xlink:href="#DejaVuSans-30" x="127.246094"/>
      <use xlink:href="#DejaVuSans-30" x="190.869141"/>
      <use xlink:href="#DejaVuSans-30" x="254.492188"/>
      <use xlink:href="#DejaVuSans-20" x="318.115234"/>
      <use xlink:href="#DejaVuSans-73" x="349.902344"/>
      <use xlink:href="#DejaVuSans-61" x="402.001953"/>
      <use xlink:href="#DejaVuSans-6d" x="463.28125"/>
      <use xlink:href="#DejaVuSans-70" x="560.693359"/>
      <use xlink:href="#DejaVuSans-6c" x="624.169922"/>
      <use xlink:href="#DejaVuSans-65" x="651.953125"/>
      <use xlink:href="#DejaVuSans-73" x="713.476562"/>
     </g>
    </g>
   </g>
  </g>
 </g>
 <defs>
  <clipPath id="paddfd977f6">
   <rect x="57.6" y="41.472" width="357.12" height="266.112"/>
  </clipPath>
 </defs>
</svg>
