<?xml version="1.0" encoding="utf-8" standalone="no"?>
<!DOCTYPE svg PUBLIC "-//W3C//DTD SVG 1.1//EN"
  "http://www.w3.org/Graphics/SVG/1.1/DTD/svg11.dtd">
<svg xmlns:xlink="http://www.w3.org/1999/xlink" width="460.8pt" height="345.6pt" viewBox="0 0 460.8 345.6" xmlns="http://www.w3.org/2000/svg" version="1.1">
 <metadata>
  <rdf:RDF xmlns:dc="http://purl.org/dc/elements/1.1/" xmlns:cc="http://creativecommons.org/ns#" xmlns:rdf="http://www.w3.org/1999/02/22-rdf-syntax-ns#">
   <cc:Work>
    <dc:type rdf:resource="http://purl.org/dc/dcmitype/StillImage"/>
    <dc:date>2023-09-13T16:28:03.798388</dc:date>
    <dc:format>image/svg+xml</dc:format>
    <dc:creator>
     <cc:Agent>
      <dc:title>Matplotlib v3.7.1, https://matplotlib.org/</dc:title>
     </cc:Agent>
    </dc:creator>
   </cc:Work>
  </rdf:RDF>
 </metadata>
 <defs>
  <style type="text/css">*{stroke-linejoin: round; stroke-linecap: butt}</style>
 </defs>
 <g id="figure_1">
  <g id="patch_1">
   <path d="M 0 345.6 
L 460.8 345.6 
L 460.8 0 
L 0 0 
z
" style="fill: #ffffff"/>
  </g>
  <g id="axes_1">
   <g id="patch_2">
    <path d="M 57.6 307.584 
L 414.72 307.584 
L 414.72 41.472 
L 57.6 41.472 
z
" style="fill: #ffffff"/>
   </g>
   <g id="matplotlib.axis_1">
    <g id="xtick_1">
     <g id="line2d_1">
      <defs>
       <path id="meab681825d" d="M 0 0 
L 0 3.5 
" style="stroke: #000000; stroke-width: 0.8"/>
      </defs>
      <g>
       <use xlink:href="#meab681825d" x="71.653838" y="307.584" style="stroke: #000000; stroke-width: 0.8"/>
      </g>
     </g>
     <g id="text_1">
      <!-- 0 -->
      <g transform="translate(68.472588 322.182437) scale(0.1 -0.1)">
       <defs>
        <path id="DejaVuSans-30" d="M 2034 4250 
Q 1547 4250 1301 3770 
Q 1056 3291 1056 2328 
Q 1056 1369 1301 889 
Q 1547 409 2034 409 
Q 2525 409 2770 889 
Q 3016 1369 3016 2328 
Q 3016 3291 2770 3770 
Q 2525 4250 2034 4250 
z
M 2034 4750 
Q 2819 4750 3233 4129 
Q 3647 3509 3647 2328 
Q 3647 1150 3233 529 
Q 2819 -91 2034 -91 
Q 1250 -91 836 529 
Q 422 1150 422 2328 
Q 422 3509 836 4129 
Q 1250 4750 2034 4750 
z
" transform="scale(0.015625)"/>
       </defs>
       <use xlink:href="#DejaVuSans-30"/>
      </g>
     </g>
    </g>
    <g id="xtick_2">
     <g id="line2d_2">
      <g>
       <use xlink:href="#meab681825d" x="115.231629" y="307.584" style="stroke: #000000; stroke-width: 0.8"/>
      </g>
     </g>
     <g id="text_2">
      <!-- 20 -->
      <g transform="translate(108.869129 322.182437) scale(0.1 -0.1)">
       <defs>
        <path id="DejaVuSans-32" d="M 1228 531 
L 3431 531 
L 3431 0 
L 469 0 
L 469 531 
Q 828 903 1448 1529 
Q 2069 2156 2228 2338 
Q 2531 2678 2651 2914 
Q 2772 3150 2772 3378 
Q 2772 3750 2511 3984 
Q 2250 4219 1831 4219 
Q 1534 4219 1204 4116 
Q 875 4013 500 3803 
L 500 4441 
Q 881 4594 1212 4672 
Q 1544 4750 1819 4750 
Q 2544 4750 2975 4387 
Q 3406 4025 3406 3419 
Q 3406 3131 3298 2873 
Q 3191 2616 2906 2266 
Q 2828 2175 2409 1742 
Q 1991 1309 1228 531 
z
" transform="scale(0.015625)"/>
       </defs>
       <use xlink:href="#DejaVuSans-32"/>
       <use xlink:href="#DejaVuSans-30" x="63.623047"/>
      </g>
     </g>
    </g>
    <g id="xtick_3">
     <g id="line2d_3">
      <g>
       <use xlink:href="#meab681825d" x="158.80942" y="307.584" style="stroke: #000000; stroke-width: 0.8"/>
      </g>
     </g>
     <g id="text_3">
      <!-- 40 -->
      <g transform="translate(152.44692 322.182437) scale(0.1 -0.1)">
       <defs>
        <path id="DejaVuSans-34" d="M 2419 4116 
L 825 1625 
L 2419 1625 
L 2419 4116 
z
M 2253 4666 
L 3047 4666 
L 3047 1625 
L 3713 1625 
L 3713 1100 
L 3047 1100 
L 3047 0 
L 2419 0 
L 2419 1100 
L 313 1100 
L 313 1709 
L 2253 4666 
z
" transform="scale(0.015625)"/>
       </defs>
       <use xlink:href="#DejaVuSans-34"/>
       <use xlink:href="#DejaVuSans-30" x="63.623047"/>
      </g>
     </g>
    </g>
    <g id="xtick_4">
     <g id="line2d_4">
      <g>
       <use xlink:href="#meab681825d" x="202.387212" y="307.584" style="stroke: #000000; stroke-width: 0.8"/>
      </g>
     </g>
     <g id="text_4">
      <!-- 60 -->
      <g transform="translate(196.024712 322.182437) scale(0.1 -0.1)">
       <defs>
        <path id="DejaVuSans-36" d="M 2113 2584 
Q 1688 2584 1439 2293 
Q 1191 2003 1191 1497 
Q 1191 994 1439 701 
Q 1688 409 2113 409 
Q 2538 409 2786 701 
Q 3034 994 3034 1497 
Q 3034 2003 2786 2293 
Q 2538 2584 2113 2584 
z
M 3366 4563 
L 3366 3988 
Q 3128 4100 2886 4159 
Q 2644 4219 2406 4219 
Q 1781 4219 1451 3797 
Q 1122 3375 1075 2522 
Q 1259 2794 1537 2939 
Q 1816 3084 2150 3084 
Q 2853 3084 3261 2657 
Q 3669 2231 3669 1497 
Q 3669 778 3244 343 
Q 2819 -91 2113 -91 
Q 1303 -91 875 529 
Q 447 1150 447 2328 
Q 447 3434 972 4092 
Q 1497 4750 2381 4750 
Q 2619 4750 2861 4703 
Q 3103 4656 3366 4563 
z
" transform="scale(0.015625)"/>
       </defs>
       <use xlink:href="#DejaVuSans-36"/>
       <use xlink:href="#DejaVuSans-30" x="63.623047"/>
      </g>
     </g>
    </g>
    <g id="xtick_5">
     <g id="line2d_5">
      <g>
       <use xlink:href="#meab681825d" x="245.965003" y="307.584" style="stroke: #000000; stroke-width: 0.8"/>
      </g>
     </g>
     <g id="text_5">
      <!-- 80 -->
      <g transform="translate(239.602503 322.182437) scale(0.1 -0.1)">
       <defs>
        <path id="DejaVuSans-38" d="M 2034 2216 
Q 1584 2216 1326 1975 
Q 1069 1734 1069 1313 
Q 1069 891 1326 650 
Q 1584 409 2034 409 
Q 2484 409 2743 651 
Q 3003 894 3003 1313 
Q 3003 1734 2745 1975 
Q 2488 2216 2034 2216 
z
M 1403 2484 
Q 997 2584 770 2862 
Q 544 3141 544 3541 
Q 544 4100 942 4425 
Q 1341 4750 2034 4750 
Q 2731 4750 3128 4425 
Q 3525 4100 3525 3541 
Q 3525 3141 3298 2862 
Q 3072 2584 2669 2484 
Q 3125 2378 3379 2068 
Q 3634 1759 3634 1313 
Q 3634 634 3220 271 
Q 2806 -91 2034 -91 
Q 1263 -91 848 271 
Q 434 634 434 1313 
Q 434 1759 690 2068 
Q 947 2378 1403 2484 
z
M 1172 3481 
Q 1172 3119 1398 2916 
Q 1625 2713 2034 2713 
Q 2441 2713 2670 2916 
Q 2900 3119 2900 3481 
Q 2900 3844 2670 4047 
Q 2441 4250 2034 4250 
Q 1625 4250 1398 4047 
Q 1172 3844 1172 3481 
z
" transform="scale(0.015625)"/>
       </defs>
       <use xlink:href="#DejaVuSans-38"/>
       <use xlink:href="#DejaVuSans-30" x="63.623047"/>
      </g>
     </g>
    </g>
    <g id="xtick_6">
     <g id="line2d_6">
      <g>
       <use xlink:href="#meab681825d" x="289.542794" y="307.584" style="stroke: #000000; stroke-width: 0.8"/>
      </g>
     </g>
     <g id="text_6">
      <!-- 100 -->
      <g transform="translate(279.999044 322.182437) scale(0.1 -0.1)">
       <defs>
        <path id="DejaVuSans-31" d="M 794 531 
L 1825 531 
L 1825 4091 
L 703 3866 
L 703 4441 
L 1819 4666 
L 2450 4666 
L 2450 531 
L 3481 531 
L 3481 0 
L 794 0 
L 794 531 
z
" transform="scale(0.015625)"/>
       </defs>
       <use xlink:href="#DejaVuSans-31"/>
       <use xlink:href="#DejaVuSans-30" x="63.623047"/>
       <use xlink:href="#DejaVuSans-30" x="127.246094"/>
      </g>
     </g>
    </g>
    <g id="xtick_7">
     <g id="line2d_7">
      <g>
       <use xlink:href="#meab681825d" x="333.120586" y="307.584" style="stroke: #000000; stroke-width: 0.8"/>
      </g>
     </g>
     <g id="text_7">
      <!-- 120 -->
      <g transform="translate(323.576836 322.182437) scale(0.1 -0.1)">
       <use xlink:href="#DejaVuSans-31"/>
       <use xlink:href="#DejaVuSans-32" x="63.623047"/>
       <use xlink:href="#DejaVuSans-30" x="127.246094"/>
      </g>
     </g>
    </g>
    <g id="xtick_8">
     <g id="line2d_8">
      <g>
       <use xlink:href="#meab681825d" x="376.698377" y="307.584" style="stroke: #000000; stroke-width: 0.8"/>
      </g>
     </g>
     <g id="text_8">
      <!-- 140 -->
      <g transform="translate(367.154627 322.182437) scale(0.1 -0.1)">
       <use xlink:href="#DejaVuSans-31"/>
       <use xlink:href="#DejaVuSans-34" x="63.623047"/>
       <use xlink:href="#DejaVuSans-30" x="127.246094"/>
      </g>
     </g>
    </g>
    <g id="text_9">
     <!-- epoch -->
     <g transform="translate(220.931875 335.860562) scale(0.1 -0.1)">
      <defs>
       <path id="DejaVuSans-65" d="M 3597 1894 
L 3597 1613 
L 953 1613 
Q 991 1019 1311 708 
Q 1631 397 2203 397 
Q 2534 397 2845 478 
Q 3156 559 3463 722 
L 3463 178 
Q 3153 47 2828 -22 
Q 2503 -91 2169 -91 
Q 1331 -91 842 396 
Q 353 884 353 1716 
Q 353 2575 817 3079 
Q 1281 3584 2069 3584 
Q 2775 3584 3186 3129 
Q 3597 2675 3597 1894 
z
M 3022 2063 
Q 3016 2534 2758 2815 
Q 2500 3097 2075 3097 
Q 1594 3097 1305 2825 
Q 1016 2553 972 2059 
L 3022 2063 
z
" transform="scale(0.015625)"/>
       <path id="DejaVuSans-70" d="M 1159 525 
L 1159 -1331 
L 581 -1331 
L 581 3500 
L 1159 3500 
L 1159 2969 
Q 1341 3281 1617 3432 
Q 1894 3584 2278 3584 
Q 2916 3584 3314 3078 
Q 3713 2572 3713 1747 
Q 3713 922 3314 415 
Q 2916 -91 2278 -91 
Q 1894 -91 1617 61 
Q 1341 213 1159 525 
z
M 3116 1747 
Q 3116 2381 2855 2742 
Q 2594 3103 2138 3103 
Q 1681 3103 1420 2742 
Q 1159 2381 1159 1747 
Q 1159 1113 1420 752 
Q 1681 391 2138 391 
Q 2594 391 2855 752 
Q 3116 1113 3116 1747 
z
" transform="scale(0.015625)"/>
       <path id="DejaVuSans-6f" d="M 1959 3097 
Q 1497 3097 1228 2736 
Q 959 2375 959 1747 
Q 959 1119 1226 758 
Q 1494 397 1959 397 
Q 2419 397 2687 759 
Q 2956 1122 2956 1747 
Q 2956 2369 2687 2733 
Q 2419 3097 1959 3097 
z
M 1959 3584 
Q 2709 3584 3137 3096 
Q 3566 2609 3566 1747 
Q 3566 888 3137 398 
Q 2709 -91 1959 -91 
Q 1206 -91 779 398 
Q 353 888 353 1747 
Q 353 2609 779 3096 
Q 1206 3584 1959 3584 
z
" transform="scale(0.015625)"/>
       <path id="DejaVuSans-63" d="M 3122 3366 
L 3122 2828 
Q 2878 2963 2633 3030 
Q 2388 3097 2138 3097 
Q 1578 3097 1268 2742 
Q 959 2388 959 1747 
Q 959 1106 1268 751 
Q 1578 397 2138 397 
Q 2388 397 2633 464 
Q 2878 531 3122 666 
L 3122 134 
Q 2881 22 2623 -34 
Q 2366 -91 2075 -91 
Q 1284 -91 818 406 
Q 353 903 353 1747 
Q 353 2603 823 3093 
Q 1294 3584 2113 3584 
Q 2378 3584 2631 3529 
Q 2884 3475 3122 3366 
z
" transform="scale(0.015625)"/>
       <path id="DejaVuSans-68" d="M 3513 2113 
L 3513 0 
L 2938 0 
L 2938 2094 
Q 2938 2591 2744 2837 
Q 2550 3084 2163 3084 
Q 1697 3084 1428 2787 
Q 1159 2491 1159 1978 
L 1159 0 
L 581 0 
L 581 4863 
L 1159 4863 
L 1159 2956 
Q 1366 3272 1645 3428 
Q 1925 3584 2291 3584 
Q 2894 3584 3203 3211 
Q 3513 2838 3513 2113 
z
" transform="scale(0.015625)"/>
      </defs>
      <use xlink:href="#DejaVuSans-65"/>
      <use xlink:href="#DejaVuSans-70" x="61.523438"/>
      <use xlink:href="#DejaVuSans-6f" x="125"/>
      <use xlink:href="#DejaVuSans-63" x="186.181641"/>
      <use xlink:href="#DejaVuSans-68" x="241.162109"/>
     </g>
    </g>
   </g>
   <g id="matplotlib.axis_2">
    <g id="ytick_1">
     <g id="line2d_9">
      <defs>
       <path id="m0c0484c3ee" d="M 0 0 
L -3.5 0 
" style="stroke: #000000; stroke-width: 0.8"/>
      </defs>
      <g>
       <use xlink:href="#m0c0484c3ee" x="57.6" y="307.584" style="stroke: #000000; stroke-width: 0.8"/>
      </g>
     </g>
     <g id="text_10">
      <!-- 0.0 -->
      <g transform="translate(34.696875 311.383219) scale(0.1 -0.1)">
       <defs>
        <path id="DejaVuSans-2e" d="M 684 794 
L 1344 794 
L 1344 0 
L 684 0 
L 684 794 
z
" transform="scale(0.015625)"/>
       </defs>
       <use xlink:href="#DejaVuSans-30"/>
       <use xlink:href="#DejaVuSans-2e" x="63.623047"/>
       <use xlink:href="#DejaVuSans-30" x="95.410156"/>
      </g>
     </g>
    </g>
    <g id="ytick_2">
     <g id="line2d_10">
      <g>
       <use xlink:href="#m0c0484c3ee" x="57.6" y="255.468074" style="stroke: #000000; stroke-width: 0.8"/>
      </g>
     </g>
     <g id="text_11">
      <!-- 0.2 -->
      <g transform="translate(34.696875 259.267293) scale(0.1 -0.1)">
       <use xlink:href="#DejaVuSans-30"/>
       <use xlink:href="#DejaVuSans-2e" x="63.623047"/>
       <use xlink:href="#DejaVuSans-32" x="95.410156"/>
      </g>
     </g>
    </g>
    <g id="ytick_3">
     <g id="line2d_11">
      <g>
       <use xlink:href="#m0c0484c3ee" x="57.6" y="203.352149" style="stroke: #000000; stroke-width: 0.8"/>
      </g>
     </g>
     <g id="text_12">
      <!-- 0.4 -->
      <g transform="translate(34.696875 207.151367) scale(0.1 -0.1)">
       <use xlink:href="#DejaVuSans-30"/>
       <use xlink:href="#DejaVuSans-2e" x="63.623047"/>
       <use xlink:href="#DejaVuSans-34" x="95.410156"/>
      </g>
     </g>
    </g>
    <g id="ytick_4">
     <g id="line2d_12">
      <g>
       <use xlink:href="#m0c0484c3ee" x="57.6" y="151.236223" style="stroke: #000000; stroke-width: 0.8"/>
      </g>
     </g>
     <g id="text_13">
      <!-- 0.6 -->
      <g transform="translate(34.696875 155.035442) scale(0.1 -0.1)">
       <use xlink:href="#DejaVuSans-30"/>
       <use xlink:href="#DejaVuSans-2e" x="63.623047"/>
       <use xlink:href="#DejaVuSans-36" x="95.410156"/>
      </g>
     </g>
    </g>
    <g id="ytick_5">
     <g id="line2d_13">
      <g>
       <use xlink:href="#m0c0484c3ee" x="57.6" y="99.120297" style="stroke: #000000; stroke-width: 0.8"/>
      </g>
     </g>
     <g id="text_14">
      <!-- 0.8 -->
      <g transform="translate(34.696875 102.919516) scale(0.1 -0.1)">
       <use xlink:href="#DejaVuSans-30"/>
       <use xlink:href="#DejaVuSans-2e" x="63.623047"/>
       <use xlink:href="#DejaVuSans-38" x="95.410156"/>
      </g>
     </g>
    </g>
    <g id="ytick_6">
     <g id="line2d_14">
      <g>
       <use xlink:href="#m0c0484c3ee" x="57.6" y="47.004371" style="stroke: #000000; stroke-width: 0.8"/>
      </g>
     </g>
     <g id="text_15">
      <!-- 1.0 -->
      <g transform="translate(34.696875 50.80359) scale(0.1 -0.1)">
       <use xlink:href="#DejaVuSans-31"/>
       <use xlink:href="#DejaVuSans-2e" x="63.623047"/>
       <use xlink:href="#DejaVuSans-30" x="95.410156"/>
      </g>
     </g>
    </g>
   </g>
   <g id="line2d_15">
    <path d="M 73.832727 209.156448 
L 76.011617 140.114752 
L 78.190506 99.330379 
L 80.369396 130.384288 
L 82.548286 91.953419 
L 84.727175 88.732199 
L 86.906065 91.197284 
L 89.084954 90.162958 
L 91.263844 93.342105 
L 93.442733 88.842211 
L 95.621623 88.853511 
L 97.800513 94.2693 
L 99.979402 90.009936 
L 102.158292 90.658815 
L 104.337181 92.02475 
L 106.516071 100.144044 
L 108.69496 90.337194 
L 110.87385 98.831108 
L 113.052739 89.443307 
L 115.231629 95.601236 
L 117.410519 88.966805 
L 119.589408 89.348208 
L 121.768298 88.095244 
L 123.947187 89.547313 
L 126.126077 95.744716 
L 128.304966 92.046011 
L 130.483856 88.707026 
L 132.662746 89.180513 
L 134.841635 89.15149 
L 137.020525 90.511912 
L 139.199414 88.747267 
L 141.378304 89.720589 
L 143.557193 91.705579 
L 145.736083 90.768783 
L 147.914973 88.569651 
L 150.093862 89.882439 
L 152.272752 93.347174 
L 154.451641 90.539306 
L 156.630531 90.237841 
L 158.80942 88.684048 
L 160.98831 88.470294 
L 163.1672 91.079119 
L 165.346089 89.058534 
L 167.524979 87.92488 
L 169.703868 94.024626 
L 171.882758 90.434375 
L 174.061647 88.123326 
L 176.240537 89.227988 
L 178.419426 89.48583 
L 180.598316 88.771571 
L 182.777206 89.66333 
L 184.956095 90.205782 
L 187.134985 87.810256 
L 189.313874 90.588463 
L 191.492764 88.766635 
L 193.671653 89.518251 
L 198.029433 88.209741 
L 200.208322 92.149967 
L 202.387212 89.298551 
L 204.566101 91.761366 
L 206.744991 88.057586 
L 208.92388 89.29334 
L 213.28166 90.102973 
L 215.460549 90.626461 
L 217.639439 90.829781 
L 219.818328 89.368206 
L 221.997218 88.531775 
L 224.176107 92.119978 
L 226.354997 88.978037 
L 228.533887 89.391351 
L 230.712776 93.501299 
L 232.891666 88.684904 
L 235.070555 93.634926 
L 237.249445 90.80233 
L 239.428334 91.615969 
L 241.607224 88.876792 
L 243.786113 89.812499 
L 245.965003 88.706704 
L 248.143893 89.050953 
L 250.322782 90.536388 
L 252.501672 89.796107 
L 254.680561 87.934318 
L 256.859451 89.65426 
L 259.03834 88.2501 
L 261.21723 87.433902 
L 263.39612 89.054737 
L 265.575009 86.958954 
L 267.753899 88.571338 
L 269.932788 88.476014 
L 272.111678 92.895564 
L 274.290567 88.717854 
L 276.469457 90.009865 
L 278.648347 88.493389 
L 280.827236 89.676238 
L 283.006126 89.102101 
L 285.185015 88.764219 
L 287.363905 91.257722 
L 289.542794 90.535422 
L 291.721684 90.192391 
L 293.900574 87.525827 
L 296.079463 86.436289 
L 298.258353 87.700687 
L 300.437242 86.406585 
L 302.616132 87.167305 
L 304.795021 88.352297 
L 306.973911 85.824 
L 309.1528 89.201313 
L 311.33169 88.162985 
L 313.51058 89.415542 
L 315.689469 88.985981 
L 317.868359 89.508922 
L 320.047248 87.887259 
L 322.226138 87.841849 
L 324.405027 92.529512 
L 326.583917 86.402842 
L 328.762807 88.536252 
L 330.941696 88.745483 
L 333.120586 87.442931 
L 335.299475 89.356332 
L 337.478365 90.69261 
L 339.657254 90.546953 
L 341.836144 97.20087 
L 344.015034 90.69511 
L 346.193923 87.24374 
L 348.372813 88.841982 
L 350.551702 87.604032 
L 352.730592 87.579512 
L 354.909481 91.056817 
L 357.088371 94.323846 
L 359.267261 87.159414 
L 361.44615 89.879447 
L 363.62504 87.873808 
L 365.803929 88.68738 
L 367.982819 91.544382 
L 370.161708 87.161325 
L 372.340598 91.02673 
L 374.519487 88.174689 
L 376.698377 87.365644 
L 378.877267 89.462599 
L 381.056156 88.641622 
L 383.235046 87.502719 
L 385.413935 87.481515 
L 387.592825 89.549588 
L 389.771714 93.323891 
L 391.950604 87.685707 
L 394.129494 87.603691 
L 396.308383 89.651917 
L 398.487273 88.195651 
L 398.487273 88.195651 
" clip-path="url(#p417bf7dda8)" style="fill: none; stroke: #1f77b4; stroke-linecap: square"/>
   </g>
   <g id="line2d_16">
    <path d="M 73.832727 209.324251 
L 82.548286 209.368957 
L 84.727175 207.225669 
L 86.906065 198.563628 
L 89.084954 186.012879 
L 91.263844 155.509425 
L 93.442733 152.267985 
L 95.621623 209.327197 
L 97.800513 146.868031 
L 99.979402 144.617858 
L 102.158292 128.683595 
L 104.337181 209.315853 
L 106.516071 159.293317 
L 108.69496 197.042388 
L 110.87385 109.030183 
L 113.052739 110.452128 
L 115.231629 117.925169 
L 117.410519 145.598995 
L 119.589408 189.341589 
L 121.768298 119.871584 
L 123.947187 139.940304 
L 126.126077 123.45909 
L 128.304966 135.536796 
L 130.483856 111.597911 
L 132.662746 124.069225 
L 134.841635 105.155287 
L 137.020525 110.522738 
L 139.199414 102.879516 
L 141.378304 103.576437 
L 143.557193 110.115666 
L 145.736083 137.836424 
L 147.914973 107.0039 
L 150.093862 141.383593 
L 152.272752 134.899074 
L 154.451641 128.994588 
L 156.630531 115.052824 
L 158.80942 102.200876 
L 160.98831 107.366034 
L 163.1672 102.210319 
L 165.346089 109.884452 
L 167.524979 103.015993 
L 169.703868 103.123582 
L 171.882758 122.168968 
L 174.061647 102.89295 
L 176.240537 107.848778 
L 178.419426 103.419762 
L 180.598316 105.601235 
L 182.777206 102.882535 
L 184.956095 102.457564 
L 187.134985 121.719569 
L 189.313874 102.445321 
L 191.492764 101.670735 
L 193.671653 102.147507 
L 195.850543 103.467053 
L 198.029433 103.488378 
L 200.208322 114.733445 
L 202.387212 105.311854 
L 204.566101 105.381542 
L 206.744991 112.765761 
L 208.92388 114.808132 
L 211.10277 106.634929 
L 213.28166 105.889553 
L 215.460549 103.622236 
L 217.639439 102.597294 
L 219.818328 107.981065 
L 221.997218 104.537815 
L 224.176107 104.540005 
L 226.354997 103.742917 
L 228.533887 105.81158 
L 230.712776 103.277276 
L 232.891666 106.624491 
L 235.070555 115.929059 
L 237.249445 120.150445 
L 239.428334 102.716602 
L 241.607224 103.647279 
L 243.786113 108.447624 
L 245.965003 105.908718 
L 248.143893 108.967723 
L 250.322782 109.520334 
L 252.501672 111.67582 
L 254.680561 109.419758 
L 256.859451 103.376837 
L 259.03834 100.06931 
L 261.21723 108.541494 
L 263.39612 103.35115 
L 265.575009 103.116487 
L 267.753899 104.606829 
L 269.932788 104.965431 
L 272.111678 104.634246 
L 274.290567 103.662489 
L 276.469457 104.877299 
L 278.648347 108.146747 
L 280.827236 107.648147 
L 283.006126 102.789902 
L 285.185015 100.349044 
L 287.363905 110.067169 
L 289.542794 108.027448 
L 291.721684 108.861579 
L 293.900574 103.975384 
L 296.079463 103.762194 
L 298.258353 110.944366 
L 300.437242 102.517819 
L 302.616132 119.484936 
L 304.795021 107.709779 
L 306.973911 104.503412 
L 309.1528 102.858992 
L 311.33169 107.045219 
L 313.51058 112.752252 
L 315.689469 105.546637 
L 317.868359 103.777081 
L 320.047248 104.179818 
L 322.226138 111.514468 
L 324.405027 103.155085 
L 326.583917 106.421777 
L 328.762807 104.271376 
L 330.941696 108.773223 
L 333.120586 104.601959 
L 335.299475 101.337519 
L 337.478365 102.187552 
L 339.657254 104.157702 
L 341.836144 104.07753 
L 344.015034 105.578537 
L 346.193923 106.071122 
L 348.372813 103.719547 
L 350.551702 105.859042 
L 352.730592 105.567721 
L 354.909481 103.146194 
L 357.088371 105.460877 
L 359.267261 114.954581 
L 361.44615 115.126806 
L 363.62504 105.165723 
L 365.803929 103.757462 
L 367.982819 112.629594 
L 370.161708 102.015943 
L 372.340598 104.668909 
L 376.698377 105.68681 
L 378.877267 112.878599 
L 381.056156 105.159484 
L 383.235046 109.282185 
L 385.413935 114.917541 
L 387.592825 102.563973 
L 389.771714 107.136852 
L 391.950604 105.732818 
L 394.129494 107.370387 
L 396.308383 103.053831 
L 398.487273 102.437706 
L 398.487273 102.437706 
" clip-path="url(#p417bf7dda8)" style="fill: none; stroke: #ff7f0e; stroke-linecap: square"/>
   </g>
   <g id="line2d_17">
    <path d="M 73.832727 203.753079 
L 76.011617 205.367378 
L 78.190506 122.805159 
L 80.369396 118.465069 
L 82.548286 205.398971 
L 84.727175 197.48815 
L 86.906065 201.620469 
L 89.084954 91.973917 
L 91.263844 94.678631 
L 93.442733 92.337813 
L 95.621623 93.035259 
L 97.800513 94.347246 
L 99.979402 97.517632 
L 102.158292 97.469898 
L 104.337181 92.506708 
L 106.516071 95.009801 
L 108.69496 130.678482 
L 110.87385 91.724566 
L 113.052739 92.877815 
L 115.231629 98.189917 
L 117.410519 97.332254 
L 119.589408 94.519496 
L 121.768298 93.718455 
L 123.947187 105.477239 
L 126.126077 91.438559 
L 128.304966 102.852668 
L 130.483856 100.538014 
L 132.662746 90.053609 
L 134.841635 92.602802 
L 137.020525 92.798446 
L 139.199414 93.372932 
L 141.378304 92.048107 
L 143.557193 94.64618 
L 145.736083 98.791774 
L 147.914973 90.701351 
L 150.093862 94.975343 
L 152.272752 95.558266 
L 154.451641 92.376301 
L 156.630531 91.637585 
L 158.80942 94.859469 
L 160.98831 92.67379 
L 163.1672 100.003375 
L 165.346089 94.208422 
L 169.703868 100.623182 
L 171.882758 94.188729 
L 174.061647 93.372545 
L 176.240537 91.43594 
L 178.419426 91.975176 
L 180.598316 91.86125 
L 182.777206 93.804847 
L 187.134985 92.249031 
L 189.313874 95.372964 
L 191.492764 92.267244 
L 193.671653 92.237334 
L 195.850543 91.76677 
L 198.029433 93.8055 
L 200.208322 92.157325 
L 202.387212 92.487562 
L 204.566101 90.238662 
L 206.744991 92.544484 
L 208.92388 92.50914 
L 211.10277 91.553689 
L 215.460549 92.538286 
L 217.639439 92.451544 
L 219.818328 96.64866 
L 221.997218 93.007898 
L 224.176107 91.651467 
L 226.354997 92.405365 
L 228.533887 92.197532 
L 230.712776 93.163804 
L 232.891666 91.309796 
L 235.070555 93.193877 
L 237.249445 91.138724 
L 239.428334 92.355188 
L 241.607224 92.446647 
L 243.786113 91.913062 
L 245.965003 91.038059 
L 248.143893 92.34608 
L 250.322782 92.987816 
L 252.501672 92.496279 
L 254.680561 90.379906 
L 256.859451 93.216396 
L 259.03834 93.905128 
L 261.21723 91.078899 
L 263.39612 92.983591 
L 265.575009 93.94853 
L 267.753899 93.865585 
L 269.932788 90.917636 
L 272.111678 92.6315 
L 274.290567 91.57536 
L 276.469457 91.871315 
L 278.648347 92.909424 
L 280.827236 92.546785 
L 283.006126 91.079161 
L 285.185015 95.050026 
L 287.363905 91.178215 
L 289.542794 93.355186 
L 291.721684 91.457417 
L 293.900574 90.982937 
L 296.079463 94.101049 
L 298.258353 93.399645 
L 300.437242 91.000651 
L 302.616132 95.775939 
L 304.795021 99.052494 
L 306.973911 90.052678 
L 309.1528 91.482843 
L 311.33169 93.59109 
L 313.51058 91.195248 
L 317.868359 91.502429 
L 320.047248 94.11987 
L 322.226138 91.464145 
L 324.405027 90.408801 
L 326.583917 90.180734 
L 328.762807 90.42725 
L 330.941696 92.796568 
L 333.120586 92.121583 
L 335.299475 94.292324 
L 337.478365 97.064427 
L 339.657254 91.052942 
L 341.836144 91.788504 
L 344.015034 91.332588 
L 346.193923 91.991513 
L 348.372813 93.369364 
L 350.551702 90.53577 
L 352.730592 94.127479 
L 354.909481 91.997436 
L 357.088371 91.504221 
L 359.267261 92.801966 
L 361.44615 91.551608 
L 363.62504 91.824956 
L 365.803929 93.527423 
L 367.982819 90.927864 
L 370.161708 97.762292 
L 372.340598 92.24115 
L 376.698377 91.28855 
L 378.877267 94.778176 
L 381.056156 93.106005 
L 383.235046 95.509992 
L 385.413935 89.798164 
L 387.592825 91.633155 
L 389.771714 92.499098 
L 391.950604 91.928531 
L 394.129494 94.040304 
L 396.308383 92.719693 
L 398.487273 94.758088 
L 398.487273 94.758088 
" clip-path="url(#p417bf7dda8)" style="fill: none; stroke: #2ca02c; stroke-linecap: square"/>
   </g>
   <g id="line2d_18">
    <path d="M 73.832727 209.482437 
L 82.548286 209.451724 
L 84.727175 157.484361 
L 86.906065 137.219805 
L 89.084954 202.405852 
L 91.263844 189.293193 
L 93.442733 178.248527 
L 95.621623 125.847042 
L 97.800513 105.09948 
L 99.979402 95.169311 
L 102.158292 95.450815 
L 104.337181 93.320873 
L 106.516071 92.01218 
L 108.69496 92.805091 
L 110.87385 97.343914 
L 113.052739 93.541277 
L 115.231629 91.423486 
L 119.589408 94.078706 
L 121.768298 96.967349 
L 123.947187 93.732154 
L 126.126077 94.818884 
L 128.304966 90.143867 
L 130.483856 92.176437 
L 132.662746 90.086585 
L 134.841635 91.266467 
L 137.020525 89.370281 
L 139.199414 90.471667 
L 141.378304 89.641485 
L 143.557193 88.448523 
L 145.736083 90.312455 
L 147.914973 91.426226 
L 150.093862 90.018078 
L 152.272752 93.308265 
L 154.451641 91.108335 
L 156.630531 92.460691 
L 158.80942 89.870998 
L 160.98831 90.927718 
L 163.1672 89.838537 
L 165.346089 92.867235 
L 167.524979 97.029764 
L 169.703868 96.82462 
L 171.882758 93.963917 
L 174.061647 91.686908 
L 176.240537 90.704104 
L 178.419426 89.97586 
L 180.598316 93.957183 
L 182.777206 90.663187 
L 184.956095 100.405729 
L 187.134985 88.718373 
L 189.313874 89.640275 
L 191.492764 91.625018 
L 193.671653 89.781101 
L 195.850543 94.978693 
L 198.029433 92.636045 
L 200.208322 92.443956 
L 202.387212 93.413009 
L 204.566101 90.283607 
L 206.744991 94.004995 
L 208.92388 92.522185 
L 211.10277 91.415608 
L 213.28166 91.918958 
L 215.460549 90.717502 
L 217.639439 90.244486 
L 219.818328 89.997079 
L 221.997218 90.234272 
L 224.176107 91.606675 
L 226.354997 91.777681 
L 228.533887 88.263467 
L 230.712776 89.49529 
L 232.891666 89.912746 
L 235.070555 94.11681 
L 237.249445 89.387298 
L 239.428334 89.4116 
L 241.607224 90.856309 
L 243.786113 91.866558 
L 245.965003 89.957473 
L 248.143893 89.231357 
L 250.322782 89.228625 
L 252.501672 95.152613 
L 254.680561 92.785838 
L 256.859451 89.38928 
L 259.03834 91.279633 
L 261.21723 90.540692 
L 263.39612 90.488886 
L 265.575009 89.698858 
L 267.753899 92.230805 
L 269.932788 95.576551 
L 272.111678 88.608035 
L 274.290567 90.846713 
L 276.469457 89.319706 
L 278.648347 91.396865 
L 280.827236 92.984177 
L 283.006126 91.039837 
L 285.185015 90.177816 
L 287.363905 95.244267 
L 289.542794 90.443029 
L 291.721684 101.785206 
L 296.079463 90.299775 
L 298.258353 90.352335 
L 300.437242 93.365918 
L 304.795021 87.55438 
L 306.973911 88.999027 
L 309.1528 89.96591 
L 311.33169 88.927279 
L 313.51058 88.637014 
L 315.689469 100.227391 
L 317.868359 95.637677 
L 320.047248 90.220983 
L 322.226138 88.929055 
L 324.405027 89.997848 
L 326.583917 89.135223 
L 328.762807 90.731958 
L 330.941696 90.909877 
L 333.120586 88.748559 
L 335.299475 90.666055 
L 337.478365 89.588682 
L 339.657254 93.049982 
L 341.836144 88.21565 
L 344.015034 89.900402 
L 346.193923 101.46723 
L 348.372813 92.430057 
L 350.551702 89.831959 
L 352.730592 93.025441 
L 354.909481 90.287995 
L 357.088371 90.625647 
L 359.267261 89.401506 
L 361.44615 87.725867 
L 363.62504 90.423018 
L 365.803929 92.804662 
L 367.982819 89.070309 
L 370.161708 91.493144 
L 372.340598 93.179993 
L 374.519487 90.028934 
L 376.698377 99.971129 
L 378.877267 91.672543 
L 381.056156 88.243197 
L 383.235046 90.14644 
L 385.413935 88.994469 
L 387.592825 97.123678 
L 389.771714 89.048432 
L 391.950604 89.499752 
L 394.129494 88.226305 
L 396.308383 88.26875 
L 398.487273 89.966395 
L 398.487273 89.966395 
" clip-path="url(#p417bf7dda8)" style="fill: none; stroke: #d62728; stroke-linecap: square"/>
   </g>
   <g id="patch_3">
    <path d="M 57.6 307.584 
L 57.6 41.472 
" style="fill: none; stroke: #000000; stroke-width: 0.8; stroke-linejoin: miter; stroke-linecap: square"/>
   </g>
   <g id="patch_4">
    <path d="M 414.72 307.584 
L 414.72 41.472 
" style="fill: none; stroke: #000000; stroke-width: 0.8; stroke-linejoin: miter; stroke-linecap: square"/>
   </g>
   <g id="patch_5">
    <path d="M 57.6 307.584 
L 414.72 307.584 
" style="fill: none; stroke: #000000; stroke-width: 0.8; stroke-linejoin: miter; stroke-linecap: square"/>
   </g>
   <g id="patch_6">
    <path d="M 57.6 41.472 
L 414.72 41.472 
" style="fill: none; stroke: #000000; stroke-width: 0.8; stroke-linejoin: miter; stroke-linecap: square"/>
   </g>
   <g id="text_16">
    <!-- F1 score of P_DENS -->
    <g transform="translate(177.94125 35.472) scale(0.12 -0.12)">
     <defs>
      <path id="DejaVuSans-46" d="M 628 4666 
L 3309 4666 
L 3309 4134 
L 1259 4134 
L 1259 2759 
L 3109 2759 
L 3109 2228 
L 1259 2228 
L 1259 0 
L 628 0 
L 628 4666 
z
" transform="scale(0.015625)"/>
      <path id="DejaVuSans-20" transform="scale(0.015625)"/>
      <path id="DejaVuSans-73" d="M 2834 3397 
L 2834 2853 
Q 2591 2978 2328 3040 
Q 2066 3103 1784 3103 
Q 1356 3103 1142 2972 
Q 928 2841 928 2578 
Q 928 2378 1081 2264 
Q 1234 2150 1697 2047 
L 1894 2003 
Q 2506 1872 2764 1633 
Q 3022 1394 3022 966 
Q 3022 478 2636 193 
Q 2250 -91 1575 -91 
Q 1294 -91 989 -36 
Q 684 19 347 128 
L 347 722 
Q 666 556 975 473 
Q 1284 391 1588 391 
Q 1994 391 2212 530 
Q 2431 669 2431 922 
Q 2431 1156 2273 1281 
Q 2116 1406 1581 1522 
L 1381 1569 
Q 847 1681 609 1914 
Q 372 2147 372 2553 
Q 372 3047 722 3315 
Q 1072 3584 1716 3584 
Q 2034 3584 2315 3537 
Q 2597 3491 2834 3397 
z
" transform="scale(0.015625)"/>
      <path id="DejaVuSans-72" d="M 2631 2963 
Q 2534 3019 2420 3045 
Q 2306 3072 2169 3072 
Q 1681 3072 1420 2755 
Q 1159 2438 1159 1844 
L 1159 0 
L 581 0 
L 581 3500 
L 1159 3500 
L 1159 2956 
Q 1341 3275 1631 3429 
Q 1922 3584 2338 3584 
Q 2397 3584 2469 3576 
Q 2541 3569 2628 3553 
L 2631 2963 
z
" transform="scale(0.015625)"/>
      <path id="DejaVuSans-66" d="M 2375 4863 
L 2375 4384 
L 1825 4384 
Q 1516 4384 1395 4259 
Q 1275 4134 1275 3809 
L 1275 3500 
L 2222 3500 
L 2222 3053 
L 1275 3053 
L 1275 0 
L 697 0 
L 697 3053 
L 147 3053 
L 147 3500 
L 697 3500 
L 697 3744 
Q 697 4328 969 4595 
Q 1241 4863 1831 4863 
L 2375 4863 
z
" transform="scale(0.015625)"/>
      <path id="DejaVuSans-50" d="M 1259 4147 
L 1259 2394 
L 2053 2394 
Q 2494 2394 2734 2622 
Q 2975 2850 2975 3272 
Q 2975 3691 2734 3919 
Q 2494 4147 2053 4147 
L 1259 4147 
z
M 628 4666 
L 2053 4666 
Q 2838 4666 3239 4311 
Q 3641 3956 3641 3272 
Q 3641 2581 3239 2228 
Q 2838 1875 2053 1875 
L 1259 1875 
L 1259 0 
L 628 0 
L 628 4666 
z
" transform="scale(0.015625)"/>
      <path id="DejaVuSans-5f" d="M 3263 -1063 
L 3263 -1509 
L -63 -1509 
L -63 -1063 
L 3263 -1063 
z
" transform="scale(0.015625)"/>
      <path id="DejaVuSans-44" d="M 1259 4147 
L 1259 519 
L 2022 519 
Q 2988 519 3436 956 
Q 3884 1394 3884 2338 
Q 3884 3275 3436 3711 
Q 2988 4147 2022 4147 
L 1259 4147 
z
M 628 4666 
L 1925 4666 
Q 3281 4666 3915 4102 
Q 4550 3538 4550 2338 
Q 4550 1131 3912 565 
Q 3275 0 1925 0 
L 628 0 
L 628 4666 
z
" transform="scale(0.015625)"/>
      <path id="DejaVuSans-45" d="M 628 4666 
L 3578 4666 
L 3578 4134 
L 1259 4134 
L 1259 2753 
L 3481 2753 
L 3481 2222 
L 1259 2222 
L 1259 531 
L 3634 531 
L 3634 0 
L 628 0 
L 628 4666 
z
" transform="scale(0.015625)"/>
      <path id="DejaVuSans-4e" d="M 628 4666 
L 1478 4666 
L 3547 763 
L 3547 4666 
L 4159 4666 
L 4159 0 
L 3309 0 
L 1241 3903 
L 1241 0 
L 628 0 
L 628 4666 
z
" transform="scale(0.015625)"/>
      <path id="DejaVuSans-53" d="M 3425 4513 
L 3425 3897 
Q 3066 4069 2747 4153 
Q 2428 4238 2131 4238 
Q 1616 4238 1336 4038 
Q 1056 3838 1056 3469 
Q 1056 3159 1242 3001 
Q 1428 2844 1947 2747 
L 2328 2669 
Q 3034 2534 3370 2195 
Q 3706 1856 3706 1288 
Q 3706 609 3251 259 
Q 2797 -91 1919 -91 
Q 1588 -91 1214 -16 
Q 841 59 441 206 
L 441 856 
Q 825 641 1194 531 
Q 1563 422 1919 422 
Q 2459 422 2753 634 
Q 3047 847 3047 1241 
Q 3047 1584 2836 1778 
Q 2625 1972 2144 2069 
L 1759 2144 
Q 1053 2284 737 2584 
Q 422 2884 422 3419 
Q 422 4038 858 4394 
Q 1294 4750 2059 4750 
Q 2388 4750 2728 4690 
Q 3069 4631 3425 4513 
z
" transform="scale(0.015625)"/>
     </defs>
     <use xlink:href="#DejaVuSans-46"/>
     <use xlink:href="#DejaVuSans-31" x="57.519531"/>
     <use xlink:href="#DejaVuSans-20" x="121.142578"/>
     <use xlink:href="#DejaVuSans-73" x="152.929688"/>
     <use xlink:href="#DejaVuSans-63" x="205.029297"/>
     <use xlink:href="#DejaVuSans-6f" x="260.009766"/>
     <use xlink:href="#DejaVuSans-72" x="321.191406"/>
     <use xlink:href="#DejaVuSans-65" x="360.054688"/>
     <use xlink:href="#DejaVuSans-20" x="421.578125"/>
     <use xlink:href="#DejaVuSans-6f" x="453.365234"/>
     <use xlink:href="#DejaVuSans-66" x="514.546875"/>
     <use xlink:href="#DejaVuSans-20" x="549.751953"/>
     <use xlink:href="#DejaVuSans-50" x="581.539062"/>
     <use xlink:href="#DejaVuSans-5f" x="641.841797"/>
     <use xlink:href="#DejaVuSans-44" x="691.841797"/>
     <use xlink:href="#DejaVuSans-45" x="768.84375"/>
     <use xlink:href="#DejaVuSans-4e" x="832.027344"/>
     <use xlink:href="#DejaVuSans-53" x="906.832031"/>
    </g>
   </g>
   <g id="legend_1">
    <g id="patch_7">
     <path d="M 64.6 302.584 
L 173.157812 302.584 
Q 175.157812 302.584 175.157812 300.584 
L 175.157812 242.8715 
Q 175.157812 240.8715 173.157812 240.8715 
L 64.6 240.8715 
Q 62.6 240.8715 62.6 242.8715 
L 62.6 300.584 
Q 62.6 302.584 64.6 302.584 
z
" style="fill: #ffffff; opacity: 0.8; stroke: #cccccc; stroke-linejoin: miter"/>
    </g>
    <g id="line2d_19">
     <path d="M 66.6 248.969937 
L 76.6 248.969937 
L 86.6 248.969937 
" style="fill: none; stroke: #1f77b4; stroke-linecap: square"/>
    </g>
    <g id="text_17">
     <!-- 2000 samples -->
     <g transform="translate(94.6 252.469937) scale(0.1 -0.1)">
      <defs>
       <path id="DejaVuSans-61" d="M 2194 1759 
Q 1497 1759 1228 1600 
Q 959 1441 959 1056 
Q 959 750 1161 570 
Q 1363 391 1709 391 
Q 2188 391 2477 730 
Q 2766 1069 2766 1631 
L 2766 1759 
L 2194 1759 
z
M 3341 1997 
L 3341 0 
L 2766 0 
L 2766 531 
Q 2569 213 2275 61 
Q 1981 -91 1556 -91 
Q 1019 -91 701 211 
Q 384 513 384 1019 
Q 384 1609 779 1909 
Q 1175 2209 1959 2209 
L 2766 2209 
L 2766 2266 
Q 2766 2663 2505 2880 
Q 2244 3097 1772 3097 
Q 1472 3097 1187 3025 
Q 903 2953 641 2809 
L 641 3341 
Q 956 3463 1253 3523 
Q 1550 3584 1831 3584 
Q 2591 3584 2966 3190 
Q 3341 2797 3341 1997 
z
" transform="scale(0.015625)"/>
       <path id="DejaVuSans-6d" d="M 3328 2828 
Q 3544 3216 3844 3400 
Q 4144 3584 4550 3584 
Q 5097 3584 5394 3201 
Q 5691 2819 5691 2113 
L 5691 0 
L 5113 0 
L 5113 2094 
Q 5113 2597 4934 2840 
Q 4756 3084 4391 3084 
Q 3944 3084 3684 2787 
Q 3425 2491 3425 1978 
L 3425 0 
L 2847 0 
L 2847 2094 
Q 2847 2600 2669 2842 
Q 2491 3084 2119 3084 
Q 1678 3084 1418 2786 
Q 1159 2488 1159 1978 
L 1159 0 
L 581 0 
L 581 3500 
L 1159 3500 
L 1159 2956 
Q 1356 3278 1631 3431 
Q 1906 3584 2284 3584 
Q 2666 3584 2933 3390 
Q 3200 3197 3328 2828 
z
" transform="scale(0.015625)"/>
       <path id="DejaVuSans-6c" d="M 603 4863 
L 1178 4863 
L 1178 0 
L 603 0 
L 603 4863 
z
" transform="scale(0.015625)"/>
      </defs>
      <use xlink:href="#DejaVuSans-32"/>
      <use xlink:href="#DejaVuSans-30" x="63.623047"/>
      <use xlink:href="#DejaVuSans-30" x="127.246094"/>
      <use xlink:href="#DejaVuSans-30" x="190.869141"/>
      <use xlink:href="#DejaVuSans-20" x="254.492188"/>
      <use xlink:href="#DejaVuSans-73" x="286.279297"/>
      <use xlink:href="#DejaVuSans-61" x="338.378906"/>
      <use xlink:href="#DejaVuSans-6d" x="399.658203"/>
      <use xlink:href="#DejaVuSans-70" x="497.070312"/>
      <use xlink:href="#DejaVuSans-6c" x="560.546875"/>
      <use xlink:href="#DejaVuSans-65" x="588.330078"/>
      <use xlink:href="#DejaVuSans-73" x="649.853516"/>
     </g>
    </g>
    <g id="line2d_20">
     <path d="M 66.6 263.648062 
L 76.6 263.648062 
L 86.6 263.648062 
" style="fill: none; stroke: #ff7f0e; stroke-linecap: square"/>
    </g>
    <g id="text_18">
     <!-- 5000 samples -->
     <g transform="translate(94.6 267.148062) scale(0.1 -0.1)">
      <defs>
       <path id="DejaVuSans-35" d="M 691 4666 
L 3169 4666 
L 3169 4134 
L 1269 4134 
L 1269 2991 
Q 1406 3038 1543 3061 
Q 1681 3084 1819 3084 
Q 2600 3084 3056 2656 
Q 3513 2228 3513 1497 
Q 3513 744 3044 326 
Q 2575 -91 1722 -91 
Q 1428 -91 1123 -41 
Q 819 9 494 109 
L 494 744 
Q 775 591 1075 516 
Q 1375 441 1709 441 
Q 2250 441 2565 725 
Q 2881 1009 2881 1497 
Q 2881 1984 2565 2268 
Q 2250 2553 1709 2553 
Q 1456 2553 1204 2497 
Q 953 2441 691 2322 
L 691 4666 
z
" transform="scale(0.015625)"/>
      </defs>
      <use xlink:href="#DejaVuSans-35"/>
      <use xlink:href="#DejaVuSans-30" x="63.623047"/>
      <use xlink:href="#DejaVuSans-30" x="127.246094"/>
      <use xlink:href="#DejaVuSans-30" x="190.869141"/>
      <use xlink:href="#DejaVuSans-20" x="254.492188"/>
      <use xlink:href="#DejaVuSans-73" x="286.279297"/>
      <use xlink:href="#DejaVuSans-61" x="338.378906"/>
      <use xlink:href="#DejaVuSans-6d" x="399.658203"/>
      <use xlink:href="#DejaVuSans-70" x="497.070312"/>
      <use xlink:href="#DejaVuSans-6c" x="560.546875"/>
      <use xlink:href="#DejaVuSans-65" x="588.330078"/>
      <use xlink:href="#DejaVuSans-73" x="649.853516"/>
     </g>
    </g>
    <g id="line2d_21">
     <path d="M 66.6 278.326187 
L 76.6 278.326187 
L 86.6 278.326187 
" style="fill: none; stroke: #2ca02c; stroke-linecap: square"/>
    </g>
    <g id="text_19">
     <!-- 8000 samples -->
     <g transform="translate(94.6 281.826187) scale(0.1 -0.1)">
      <use xlink:href="#DejaVuSans-38"/>
      <use xlink:href="#DejaVuSans-30" x="63.623047"/>
      <use xlink:href="#DejaVuSans-30" x="127.246094"/>
      <use xlink:href="#DejaVuSans-30" x="190.869141"/>
      <use xlink:href="#DejaVuSans-20" x="254.492188"/>
      <use xlink:href="#DejaVuSans-73" x="286.279297"/>
      <use xlink:href="#DejaVuSans-61" x="338.378906"/>
      <use xlink:href="#DejaVuSans-6d" x="399.658203"/>
      <use xlink:href="#DejaVuSans-70" x="497.070312"/>
      <use xlink:href="#DejaVuSans-6c" x="560.546875"/>
      <use xlink:href="#DejaVuSans-65" x="588.330078"/>
      <use xlink:href="#DejaVuSans-73" x="649.853516"/>
     </g>
    </g>
    <g id="line2d_22">
     <path d="M 66.6 293.004312 
L 76.6 293.004312 
L 86.6 293.004312 
" style="fill: none; stroke: #d62728; stroke-linecap: square"/>
    </g>
    <g id="text_20">
     <!-- 10000 samples -->
     <g transform="translate(94.6 296.504312) scale(0.1 -0.1)">
      <use xlink:href="#DejaVuSans-31"/>
      <use xlink:href="#DejaVuSans-30" x="63.623047"/>
      <use xlink:href="#DejaVuSans-30" x="127.246094"/>
      <use xlink:href="#DejaVuSans-30" x="190.869141"/>
      <use xlink:href="#DejaVuSans-30" x="254.492188"/>
      <use xlink:href="#DejaVuSans-20" x="318.115234"/>
      <use xlink:href="#DejaVuSans-73" x="349.902344"/>
      <use xlink:href="#DejaVuSans-61" x="402.001953"/>
      <use xlink:href="#DejaVuSans-6d" x="463.28125"/>
      <use xlink:href="#DejaVuSans-70" x="560.693359"/>
      <use xlink:href="#DejaVuSans-6c" x="624.169922"/>
      <use xlink:href="#DejaVuSans-65" x="651.953125"/>
      <use xlink:href="#DejaVuSans-73" x="713.476562"/>
     </g>
    </g>
   </g>
  </g>
 </g>
 <defs>
  <clipPath id="p417bf7dda8">
   <rect x="57.6" y="41.472" width="357.12" height="266.112"/>
  </clipPath>
 </defs>
</svg>
