<?xml version="1.0" encoding="utf-8" standalone="no"?>
<!DOCTYPE svg PUBLIC "-//W3C//DTD SVG 1.1//EN"
  "http://www.w3.org/Graphics/SVG/1.1/DTD/svg11.dtd">
<svg xmlns:xlink="http://www.w3.org/1999/xlink" width="460.8pt" height="345.6pt" viewBox="0 0 460.8 345.6" xmlns="http://www.w3.org/2000/svg" version="1.1">
 <metadata>
  <rdf:RDF xmlns:dc="http://purl.org/dc/elements/1.1/" xmlns:cc="http://creativecommons.org/ns#" xmlns:rdf="http://www.w3.org/1999/02/22-rdf-syntax-ns#">
   <cc:Work>
    <dc:type rdf:resource="http://purl.org/dc/dcmitype/StillImage"/>
    <dc:date>2023-09-13T16:28:03.626729</dc:date>
    <dc:format>image/svg+xml</dc:format>
    <dc:creator>
     <cc:Agent>
      <dc:title>Matplotlib v3.7.1, https://matplotlib.org/</dc:title>
     </cc:Agent>
    </dc:creator>
   </cc:Work>
  </rdf:RDF>
 </metadata>
 <defs>
  <style type="text/css">*{stroke-linejoin: round; stroke-linecap: butt}</style>
 </defs>
 <g id="figure_1">
  <g id="patch_1">
   <path d="M 0 345.6 
L 460.8 345.6 
L 460.8 0 
L 0 0 
z
" style="fill: #ffffff"/>
  </g>
  <g id="axes_1">
   <g id="patch_2">
    <path d="M 57.6 307.584 
L 414.72 307.584 
L 414.72 41.472 
L 57.6 41.472 
z
" style="fill: #ffffff"/>
   </g>
   <g id="matplotlib.axis_1">
    <g id="xtick_1">
     <g id="line2d_1">
      <defs>
       <path id="m57a6b8b890" d="M 0 0 
L 0 3.5 
" style="stroke: #000000; stroke-width: 0.8"/>
      </defs>
      <g>
       <use xlink:href="#m57a6b8b890" x="71.653838" y="307.584" style="stroke: #000000; stroke-width: 0.8"/>
      </g>
     </g>
     <g id="text_1">
      <!-- 0 -->
      <g transform="translate(68.472588 322.182437) scale(0.1 -0.1)">
       <defs>
        <path id="DejaVuSans-30" d="M 2034 4250 
Q 1547 4250 1301 3770 
Q 1056 3291 1056 2328 
Q 1056 1369 1301 889 
Q 1547 409 2034 409 
Q 2525 409 2770 889 
Q 3016 1369 3016 2328 
Q 3016 3291 2770 3770 
Q 2525 4250 2034 4250 
z
M 2034 4750 
Q 2819 4750 3233 4129 
Q 3647 3509 3647 2328 
Q 3647 1150 3233 529 
Q 2819 -91 2034 -91 
Q 1250 -91 836 529 
Q 422 1150 422 2328 
Q 422 3509 836 4129 
Q 1250 4750 2034 4750 
z
" transform="scale(0.015625)"/>
       </defs>
       <use xlink:href="#DejaVuSans-30"/>
      </g>
     </g>
    </g>
    <g id="xtick_2">
     <g id="line2d_2">
      <g>
       <use xlink:href="#m57a6b8b890" x="115.231629" y="307.584" style="stroke: #000000; stroke-width: 0.8"/>
      </g>
     </g>
     <g id="text_2">
      <!-- 20 -->
      <g transform="translate(108.869129 322.182437) scale(0.1 -0.1)">
       <defs>
        <path id="DejaVuSans-32" d="M 1228 531 
L 3431 531 
L 3431 0 
L 469 0 
L 469 531 
Q 828 903 1448 1529 
Q 2069 2156 2228 2338 
Q 2531 2678 2651 2914 
Q 2772 3150 2772 3378 
Q 2772 3750 2511 3984 
Q 2250 4219 1831 4219 
Q 1534 4219 1204 4116 
Q 875 4013 500 3803 
L 500 4441 
Q 881 4594 1212 4672 
Q 1544 4750 1819 4750 
Q 2544 4750 2975 4387 
Q 3406 4025 3406 3419 
Q 3406 3131 3298 2873 
Q 3191 2616 2906 2266 
Q 2828 2175 2409 1742 
Q 1991 1309 1228 531 
z
" transform="scale(0.015625)"/>
       </defs>
       <use xlink:href="#DejaVuSans-32"/>
       <use xlink:href="#DejaVuSans-30" x="63.623047"/>
      </g>
     </g>
    </g>
    <g id="xtick_3">
     <g id="line2d_3">
      <g>
       <use xlink:href="#m57a6b8b890" x="158.80942" y="307.584" style="stroke: #000000; stroke-width: 0.8"/>
      </g>
     </g>
     <g id="text_3">
      <!-- 40 -->
      <g transform="translate(152.44692 322.182437) scale(0.1 -0.1)">
       <defs>
        <path id="DejaVuSans-34" d="M 2419 4116 
L 825 1625 
L 2419 1625 
L 2419 4116 
z
M 2253 4666 
L 3047 4666 
L 3047 1625 
L 3713 1625 
L 3713 1100 
L 3047 1100 
L 3047 0 
L 2419 0 
L 2419 1100 
L 313 1100 
L 313 1709 
L 2253 4666 
z
" transform="scale(0.015625)"/>
       </defs>
       <use xlink:href="#DejaVuSans-34"/>
       <use xlink:href="#DejaVuSans-30" x="63.623047"/>
      </g>
     </g>
    </g>
    <g id="xtick_4">
     <g id="line2d_4">
      <g>
       <use xlink:href="#m57a6b8b890" x="202.387212" y="307.584" style="stroke: #000000; stroke-width: 0.8"/>
      </g>
     </g>
     <g id="text_4">
      <!-- 60 -->
      <g transform="translate(196.024712 322.182437) scale(0.1 -0.1)">
       <defs>
        <path id="DejaVuSans-36" d="M 2113 2584 
Q 1688 2584 1439 2293 
Q 1191 2003 1191 1497 
Q 1191 994 1439 701 
Q 1688 409 2113 409 
Q 2538 409 2786 701 
Q 3034 994 3034 1497 
Q 3034 2003 2786 2293 
Q 2538 2584 2113 2584 
z
M 3366 4563 
L 3366 3988 
Q 3128 4100 2886 4159 
Q 2644 4219 2406 4219 
Q 1781 4219 1451 3797 
Q 1122 3375 1075 2522 
Q 1259 2794 1537 2939 
Q 1816 3084 2150 3084 
Q 2853 3084 3261 2657 
Q 3669 2231 3669 1497 
Q 3669 778 3244 343 
Q 2819 -91 2113 -91 
Q 1303 -91 875 529 
Q 447 1150 447 2328 
Q 447 3434 972 4092 
Q 1497 4750 2381 4750 
Q 2619 4750 2861 4703 
Q 3103 4656 3366 4563 
z
" transform="scale(0.015625)"/>
       </defs>
       <use xlink:href="#DejaVuSans-36"/>
       <use xlink:href="#DejaVuSans-30" x="63.623047"/>
      </g>
     </g>
    </g>
    <g id="xtick_5">
     <g id="line2d_5">
      <g>
       <use xlink:href="#m57a6b8b890" x="245.965003" y="307.584" style="stroke: #000000; stroke-width: 0.8"/>
      </g>
     </g>
     <g id="text_5">
      <!-- 80 -->
      <g transform="translate(239.602503 322.182437) scale(0.1 -0.1)">
       <defs>
        <path id="DejaVuSans-38" d="M 2034 2216 
Q 1584 2216 1326 1975 
Q 1069 1734 1069 1313 
Q 1069 891 1326 650 
Q 1584 409 2034 409 
Q 2484 409 2743 651 
Q 3003 894 3003 1313 
Q 3003 1734 2745 1975 
Q 2488 2216 2034 2216 
z
M 1403 2484 
Q 997 2584 770 2862 
Q 544 3141 544 3541 
Q 544 4100 942 4425 
Q 1341 4750 2034 4750 
Q 2731 4750 3128 4425 
Q 3525 4100 3525 3541 
Q 3525 3141 3298 2862 
Q 3072 2584 2669 2484 
Q 3125 2378 3379 2068 
Q 3634 1759 3634 1313 
Q 3634 634 3220 271 
Q 2806 -91 2034 -91 
Q 1263 -91 848 271 
Q 434 634 434 1313 
Q 434 1759 690 2068 
Q 947 2378 1403 2484 
z
M 1172 3481 
Q 1172 3119 1398 2916 
Q 1625 2713 2034 2713 
Q 2441 2713 2670 2916 
Q 2900 3119 2900 3481 
Q 2900 3844 2670 4047 
Q 2441 4250 2034 4250 
Q 1625 4250 1398 4047 
Q 1172 3844 1172 3481 
z
" transform="scale(0.015625)"/>
       </defs>
       <use xlink:href="#DejaVuSans-38"/>
       <use xlink:href="#DejaVuSans-30" x="63.623047"/>
      </g>
     </g>
    </g>
    <g id="xtick_6">
     <g id="line2d_6">
      <g>
       <use xlink:href="#m57a6b8b890" x="289.542794" y="307.584" style="stroke: #000000; stroke-width: 0.8"/>
      </g>
     </g>
     <g id="text_6">
      <!-- 100 -->
      <g transform="translate(279.999044 322.182437) scale(0.1 -0.1)">
       <defs>
        <path id="DejaVuSans-31" d="M 794 531 
L 1825 531 
L 1825 4091 
L 703 3866 
L 703 4441 
L 1819 4666 
L 2450 4666 
L 2450 531 
L 3481 531 
L 3481 0 
L 794 0 
L 794 531 
z
" transform="scale(0.015625)"/>
       </defs>
       <use xlink:href="#DejaVuSans-31"/>
       <use xlink:href="#DejaVuSans-30" x="63.623047"/>
       <use xlink:href="#DejaVuSans-30" x="127.246094"/>
      </g>
     </g>
    </g>
    <g id="xtick_7">
     <g id="line2d_7">
      <g>
       <use xlink:href="#m57a6b8b890" x="333.120586" y="307.584" style="stroke: #000000; stroke-width: 0.8"/>
      </g>
     </g>
     <g id="text_7">
      <!-- 120 -->
      <g transform="translate(323.576836 322.182437) scale(0.1 -0.1)">
       <use xlink:href="#DejaVuSans-31"/>
       <use xlink:href="#DejaVuSans-32" x="63.623047"/>
       <use xlink:href="#DejaVuSans-30" x="127.246094"/>
      </g>
     </g>
    </g>
    <g id="xtick_8">
     <g id="line2d_8">
      <g>
       <use xlink:href="#m57a6b8b890" x="376.698377" y="307.584" style="stroke: #000000; stroke-width: 0.8"/>
      </g>
     </g>
     <g id="text_8">
      <!-- 140 -->
      <g transform="translate(367.154627 322.182437) scale(0.1 -0.1)">
       <use xlink:href="#DejaVuSans-31"/>
       <use xlink:href="#DejaVuSans-34" x="63.623047"/>
       <use xlink:href="#DejaVuSans-30" x="127.246094"/>
      </g>
     </g>
    </g>
    <g id="text_9">
     <!-- epoch -->
     <g transform="translate(220.931875 335.860562) scale(0.1 -0.1)">
      <defs>
       <path id="DejaVuSans-65" d="M 3597 1894 
L 3597 1613 
L 953 1613 
Q 991 1019 1311 708 
Q 1631 397 2203 397 
Q 2534 397 2845 478 
Q 3156 559 3463 722 
L 3463 178 
Q 3153 47 2828 -22 
Q 2503 -91 2169 -91 
Q 1331 -91 842 396 
Q 353 884 353 1716 
Q 353 2575 817 3079 
Q 1281 3584 2069 3584 
Q 2775 3584 3186 3129 
Q 3597 2675 3597 1894 
z
M 3022 2063 
Q 3016 2534 2758 2815 
Q 2500 3097 2075 3097 
Q 1594 3097 1305 2825 
Q 1016 2553 972 2059 
L 3022 2063 
z
" transform="scale(0.015625)"/>
       <path id="DejaVuSans-70" d="M 1159 525 
L 1159 -1331 
L 581 -1331 
L 581 3500 
L 1159 3500 
L 1159 2969 
Q 1341 3281 1617 3432 
Q 1894 3584 2278 3584 
Q 2916 3584 3314 3078 
Q 3713 2572 3713 1747 
Q 3713 922 3314 415 
Q 2916 -91 2278 -91 
Q 1894 -91 1617 61 
Q 1341 213 1159 525 
z
M 3116 1747 
Q 3116 2381 2855 2742 
Q 2594 3103 2138 3103 
Q 1681 3103 1420 2742 
Q 1159 2381 1159 1747 
Q 1159 1113 1420 752 
Q 1681 391 2138 391 
Q 2594 391 2855 752 
Q 3116 1113 3116 1747 
z
" transform="scale(0.015625)"/>
       <path id="DejaVuSans-6f" d="M 1959 3097 
Q 1497 3097 1228 2736 
Q 959 2375 959 1747 
Q 959 1119 1226 758 
Q 1494 397 1959 397 
Q 2419 397 2687 759 
Q 2956 1122 2956 1747 
Q 2956 2369 2687 2733 
Q 2419 3097 1959 3097 
z
M 1959 3584 
Q 2709 3584 3137 3096 
Q 3566 2609 3566 1747 
Q 3566 888 3137 398 
Q 2709 -91 1959 -91 
Q 1206 -91 779 398 
Q 353 888 353 1747 
Q 353 2609 779 3096 
Q 1206 3584 1959 3584 
z
" transform="scale(0.015625)"/>
       <path id="DejaVuSans-63" d="M 3122 3366 
L 3122 2828 
Q 2878 2963 2633 3030 
Q 2388 3097 2138 3097 
Q 1578 3097 1268 2742 
Q 959 2388 959 1747 
Q 959 1106 1268 751 
Q 1578 397 2138 397 
Q 2388 397 2633 464 
Q 2878 531 3122 666 
L 3122 134 
Q 2881 22 2623 -34 
Q 2366 -91 2075 -91 
Q 1284 -91 818 406 
Q 353 903 353 1747 
Q 353 2603 823 3093 
Q 1294 3584 2113 3584 
Q 2378 3584 2631 3529 
Q 2884 3475 3122 3366 
z
" transform="scale(0.015625)"/>
       <path id="DejaVuSans-68" d="M 3513 2113 
L 3513 0 
L 2938 0 
L 2938 2094 
Q 2938 2591 2744 2837 
Q 2550 3084 2163 3084 
Q 1697 3084 1428 2787 
Q 1159 2491 1159 1978 
L 1159 0 
L 581 0 
L 581 4863 
L 1159 4863 
L 1159 2956 
Q 1366 3272 1645 3428 
Q 1925 3584 2291 3584 
Q 2894 3584 3203 3211 
Q 3513 2838 3513 2113 
z
" transform="scale(0.015625)"/>
      </defs>
      <use xlink:href="#DejaVuSans-65"/>
      <use xlink:href="#DejaVuSans-70" x="61.523438"/>
      <use xlink:href="#DejaVuSans-6f" x="125"/>
      <use xlink:href="#DejaVuSans-63" x="186.181641"/>
      <use xlink:href="#DejaVuSans-68" x="241.162109"/>
     </g>
    </g>
   </g>
   <g id="matplotlib.axis_2">
    <g id="ytick_1">
     <g id="line2d_9">
      <defs>
       <path id="m66a13cc153" d="M 0 0 
L -3.5 0 
" style="stroke: #000000; stroke-width: 0.8"/>
      </defs>
      <g>
       <use xlink:href="#m66a13cc153" x="57.6" y="307.584" style="stroke: #000000; stroke-width: 0.8"/>
      </g>
     </g>
     <g id="text_10">
      <!-- 0.0 -->
      <g transform="translate(34.696875 311.383219) scale(0.1 -0.1)">
       <defs>
        <path id="DejaVuSans-2e" d="M 684 794 
L 1344 794 
L 1344 0 
L 684 0 
L 684 794 
z
" transform="scale(0.015625)"/>
       </defs>
       <use xlink:href="#DejaVuSans-30"/>
       <use xlink:href="#DejaVuSans-2e" x="63.623047"/>
       <use xlink:href="#DejaVuSans-30" x="95.410156"/>
      </g>
     </g>
    </g>
    <g id="ytick_2">
     <g id="line2d_10">
      <g>
       <use xlink:href="#m66a13cc153" x="57.6" y="255.648537" style="stroke: #000000; stroke-width: 0.8"/>
      </g>
     </g>
     <g id="text_11">
      <!-- 0.2 -->
      <g transform="translate(34.696875 259.447755) scale(0.1 -0.1)">
       <use xlink:href="#DejaVuSans-30"/>
       <use xlink:href="#DejaVuSans-2e" x="63.623047"/>
       <use xlink:href="#DejaVuSans-32" x="95.410156"/>
      </g>
     </g>
    </g>
    <g id="ytick_3">
     <g id="line2d_11">
      <g>
       <use xlink:href="#m66a13cc153" x="57.6" y="203.713073" style="stroke: #000000; stroke-width: 0.8"/>
      </g>
     </g>
     <g id="text_12">
      <!-- 0.4 -->
      <g transform="translate(34.696875 207.512292) scale(0.1 -0.1)">
       <use xlink:href="#DejaVuSans-30"/>
       <use xlink:href="#DejaVuSans-2e" x="63.623047"/>
       <use xlink:href="#DejaVuSans-34" x="95.410156"/>
      </g>
     </g>
    </g>
    <g id="ytick_4">
     <g id="line2d_12">
      <g>
       <use xlink:href="#m66a13cc153" x="57.6" y="151.77761" style="stroke: #000000; stroke-width: 0.8"/>
      </g>
     </g>
     <g id="text_13">
      <!-- 0.6 -->
      <g transform="translate(34.696875 155.576828) scale(0.1 -0.1)">
       <use xlink:href="#DejaVuSans-30"/>
       <use xlink:href="#DejaVuSans-2e" x="63.623047"/>
       <use xlink:href="#DejaVuSans-36" x="95.410156"/>
      </g>
     </g>
    </g>
    <g id="ytick_5">
     <g id="line2d_13">
      <g>
       <use xlink:href="#m66a13cc153" x="57.6" y="99.842146" style="stroke: #000000; stroke-width: 0.8"/>
      </g>
     </g>
     <g id="text_14">
      <!-- 0.8 -->
      <g transform="translate(34.696875 103.641365) scale(0.1 -0.1)">
       <use xlink:href="#DejaVuSans-30"/>
       <use xlink:href="#DejaVuSans-2e" x="63.623047"/>
       <use xlink:href="#DejaVuSans-38" x="95.410156"/>
      </g>
     </g>
    </g>
    <g id="ytick_6">
     <g id="line2d_14">
      <g>
       <use xlink:href="#m66a13cc153" x="57.6" y="47.906683" style="stroke: #000000; stroke-width: 0.8"/>
      </g>
     </g>
     <g id="text_15">
      <!-- 1.0 -->
      <g transform="translate(34.696875 51.705901) scale(0.1 -0.1)">
       <use xlink:href="#DejaVuSans-31"/>
       <use xlink:href="#DejaVuSans-2e" x="63.623047"/>
       <use xlink:href="#DejaVuSans-30" x="95.410156"/>
      </g>
     </g>
    </g>
   </g>
   <g id="line2d_15">
    <path d="M 73.832727 177.745341 
L 76.011617 138.145603 
L 78.190506 101.780581 
L 80.369396 130.503832 
L 82.548286 93.923561 
L 84.727175 87.961005 
L 86.906065 92.868375 
L 89.084954 88.674526 
L 91.263844 95.312328 
L 93.442733 87.502737 
L 95.621623 88.655532 
L 97.800513 96.932669 
L 99.979402 88.095179 
L 102.158292 91.437456 
L 104.337181 93.036522 
L 106.516071 93.856453 
L 108.69496 91.244265 
L 110.87385 101.63442 
L 113.052739 91.153912 
L 115.231629 97.926816 
L 117.410519 86.433716 
L 119.589408 90.972062 
L 121.768298 86.895951 
L 123.947187 90.536591 
L 126.126077 98.731221 
L 130.483856 88.774519 
L 132.662746 88.858138 
L 134.841635 88.762998 
L 137.020525 90.544409 
L 139.199414 87.431587 
L 141.378304 90.57752 
L 143.557193 93.38619 
L 145.736083 90.46695 
L 147.914973 86.636879 
L 150.093862 89.906234 
L 152.272752 96.068024 
L 154.451641 87.780109 
L 156.630531 91.813587 
L 158.80942 89.055656 
L 160.98831 86.84073 
L 163.1672 88.871857 
L 165.346089 86.978341 
L 167.524979 88.112548 
L 169.703868 97.082699 
L 171.882758 90.793902 
L 174.061647 89.023637 
L 176.240537 88.799778 
L 178.419426 88.333975 
L 180.598316 90.234942 
L 182.777206 90.379516 
L 184.956095 91.26306 
L 187.134985 87.625588 
L 189.313874 88.339044 
L 191.492764 88.741004 
L 193.671653 91.159222 
L 195.850543 87.230181 
L 198.029433 87.27954 
L 200.208322 94.091884 
L 202.387212 87.87223 
L 204.566101 88.017469 
L 208.92388 87.112999 
L 211.10277 86.903442 
L 213.28166 90.830202 
L 215.460549 90.828837 
L 217.639439 92.696743 
L 221.997218 88.013583 
L 224.176107 94.236929 
L 226.354997 88.878733 
L 228.533887 87.906748 
L 230.712776 96.036626 
L 232.891666 89.501027 
L 237.249445 88.704907 
L 239.428334 93.586484 
L 241.607224 89.001755 
L 243.786113 90.812382 
L 245.965003 87.787177 
L 248.143893 86.879069 
L 250.322782 91.457951 
L 252.501672 88.7669 
L 254.680561 87.184756 
L 256.859451 91.331809 
L 259.03834 88.267085 
L 261.21723 86.036653 
L 263.39612 89.916128 
L 265.575009 86.86837 
L 267.753899 87.696556 
L 269.932788 87.343305 
L 272.111678 95.671803 
L 274.290567 88.235063 
L 276.469457 91.698451 
L 278.648347 87.397443 
L 280.827236 88.401359 
L 283.006126 89.220653 
L 285.185015 89.237049 
L 287.363905 93.457411 
L 289.542794 91.526669 
L 291.721684 87.412872 
L 293.900574 85.824 
L 296.079463 86.768449 
L 298.258353 86.059409 
L 300.437242 85.961574 
L 302.616132 88.041532 
L 304.795021 85.898366 
L 306.973911 85.903575 
L 309.1528 91.381383 
L 311.33169 89.538745 
L 313.51058 89.24614 
L 315.689469 87.83093 
L 317.868359 88.574896 
L 320.047248 88.7324 
L 322.226138 87.651035 
L 324.405027 88.654575 
L 326.583917 87.044071 
L 328.762807 87.312206 
L 330.941696 88.404521 
L 333.120586 86.729779 
L 335.299475 87.147244 
L 337.478365 88.277593 
L 339.657254 92.114992 
L 341.836144 99.966987 
L 344.015034 92.039015 
L 346.193923 87.23565 
L 348.372813 90.317477 
L 350.551702 87.488834 
L 352.730592 86.812696 
L 354.909481 92.471884 
L 357.088371 90.390334 
L 359.267261 86.334213 
L 361.44615 89.117945 
L 363.62504 88.926514 
L 365.803929 89.348385 
L 367.982819 88.513632 
L 370.161708 88.291033 
L 372.340598 87.566451 
L 374.519487 87.77151 
L 376.698377 86.88565 
L 378.877267 87.381098 
L 381.056156 88.230032 
L 383.235046 86.373366 
L 385.413935 86.904971 
L 387.592825 89.787162 
L 389.771714 95.937772 
L 391.950604 87.206855 
L 394.129494 87.067869 
L 396.308383 90.615705 
L 398.487273 87.233438 
L 398.487273 87.233438 
" clip-path="url(#pf6c5f464f8)" style="fill: none; stroke: #1f77b4; stroke-linecap: square"/>
   </g>
   <g id="line2d_16">
    <path d="M 73.832727 177.745341 
L 82.548286 177.745341 
L 84.727175 177.068555 
L 86.906065 172.674561 
L 89.084954 166.391433 
L 91.263844 149.805324 
L 93.442733 147.638506 
L 95.621623 177.745341 
L 97.800513 144.376636 
L 99.979402 142.698782 
L 102.158292 129.843907 
L 104.337181 177.745341 
L 106.516071 151.926399 
L 108.69496 171.924001 
L 110.87385 110.680782 
L 113.052739 112.984111 
L 115.231629 120.414485 
L 117.410519 142.379289 
L 119.589408 168.247094 
L 121.768298 122.262892 
L 123.947187 138.363962 
L 126.126077 125.387339 
L 128.304966 135.122169 
L 130.483856 114.479398 
L 132.662746 125.902416 
L 134.841635 107.085602 
L 137.020525 113.330445 
L 139.199414 104.009417 
L 141.378304 104.102475 
L 143.557193 112.217126 
L 145.736083 136.707008 
L 147.914973 104.163504 
L 150.093862 139.32315 
L 152.272752 134.634906 
L 154.451641 121.256399 
L 156.630531 117.875462 
L 158.80942 101.346806 
L 160.98831 106.317337 
L 163.1672 102.942965 
L 165.346089 107.386012 
L 167.524979 103.537819 
L 169.703868 102.575299 
L 171.882758 124.187179 
L 174.061647 103.306103 
L 176.240537 104.742694 
L 178.419426 105.463449 
L 180.598316 107.86185 
L 182.777206 104.012466 
L 184.956095 103.294835 
L 187.134985 114.6152 
L 189.313874 101.815917 
L 191.492764 102.5551 
L 193.671653 103.842021 
L 195.850543 101.599881 
L 198.029433 105.454125 
L 200.208322 117.377994 
L 202.387212 107.582509 
L 204.566101 104.655473 
L 206.744991 115.600801 
L 208.92388 117.535648 
L 211.10277 109.014051 
L 213.28166 107.673039 
L 215.460549 104.404484 
L 217.639439 102.35403 
L 219.818328 110.396785 
L 221.997218 104.211193 
L 224.176107 106.748395 
L 226.354997 101.894796 
L 228.533887 106.229501 
L 230.712776 104.859428 
L 232.891666 108.084381 
L 235.070555 118.422383 
L 237.249445 122.465652 
L 239.428334 101.681528 
L 241.607224 104.902406 
L 243.786113 105.747187 
L 245.965003 103.727905 
L 248.143893 111.667866 
L 250.322782 112.212698 
L 252.501672 114.382247 
L 254.680561 112.141144 
L 256.859451 102.535441 
L 259.03834 98.999013 
L 261.21723 110.9041 
L 263.39612 103.033169 
L 265.575009 104.034017 
L 267.753899 106.196182 
L 269.932788 106.708051 
L 272.111678 103.77283 
L 274.290567 104.687343 
L 276.469457 107.072145 
L 278.648347 110.851786 
L 280.827236 105.733225 
L 283.006126 104.547582 
L 285.185015 100.685475 
L 287.363905 112.769915 
L 289.542794 105.248776 
L 291.721684 111.248193 
L 293.900574 105.165453 
L 296.079463 105.038388 
L 298.258353 113.58814 
L 300.437242 101.715598 
L 302.616132 121.836128 
L 304.795021 109.72943 
L 306.973911 103.638786 
L 309.1528 103.326944 
L 311.33169 108.654311 
L 313.51058 115.320153 
L 315.689469 103.633022 
L 317.868359 103.184026 
L 320.047248 101.96759 
L 322.226138 114.63861 
L 324.405027 104.335349 
L 326.583917 109.037248 
L 328.762807 105.521884 
L 330.941696 111.559899 
L 333.120586 105.293862 
L 335.299475 101.832327 
L 337.478365 102.356348 
L 339.657254 102.550979 
L 341.836144 105.486133 
L 344.015034 107.70607 
L 346.193923 108.339828 
L 348.372813 104.465385 
L 350.551702 108.007793 
L 352.730592 106.456093 
L 354.909481 104.603563 
L 357.088371 106.530244 
L 359.267261 117.688314 
L 361.44615 117.872866 
L 363.62504 104.484952 
L 365.803929 105.11754 
L 367.982819 115.447894 
L 370.161708 102.2829 
L 372.340598 106.660844 
L 374.519487 106.853873 
L 376.698377 103.201874 
L 378.877267 115.827118 
L 381.056156 107.107505 
L 383.235046 111.900642 
L 385.413935 117.68407 
L 387.592825 101.703455 
L 389.771714 106.63038 
L 391.950604 107.790948 
L 394.129494 109.85789 
L 396.308383 102.359541 
L 398.487273 103.027284 
L 398.487273 103.027284 
" clip-path="url(#pf6c5f464f8)" style="fill: none; stroke: #ff7f0e; stroke-linecap: square"/>
   </g>
   <g id="line2d_17">
    <path d="M 73.832727 176.349227 
L 76.011617 177.745341 
L 78.190506 126.408013 
L 80.369396 122.358217 
L 82.548286 177.745341 
L 84.727175 175.015845 
L 86.906065 175.849774 
L 89.084954 94.243501 
L 91.263844 97.949449 
L 93.442733 94.234376 
L 95.621623 94.358733 
L 97.800513 95.030555 
L 99.979402 93.699114 
L 102.158292 99.162356 
L 104.337181 89.929325 
L 106.516071 91.044559 
L 108.69496 133.052738 
L 110.87385 92.212573 
L 113.052739 90.49943 
L 115.231629 94.208636 
L 117.410519 92.076914 
L 119.589408 98.049556 
L 121.768298 95.721938 
L 123.947187 110.225529 
L 126.126077 90.7734 
L 128.304966 107.796776 
L 130.483856 105.368039 
L 132.662746 89.587657 
L 134.841635 92.507657 
L 137.020525 93.814961 
L 139.199414 96.272323 
L 141.378304 93.037663 
L 145.736083 102.693314 
L 147.914973 89.760897 
L 150.093862 97.392704 
L 152.272752 99.074723 
L 154.451641 92.830046 
L 156.630531 92.792085 
L 158.80942 97.974475 
L 160.98831 93.482277 
L 163.1672 104.285965 
L 165.346089 95.834899 
L 167.524979 101.2931 
L 169.703868 105.150779 
L 171.882758 90.89831 
L 174.061647 96.12227 
L 176.240537 91.198101 
L 178.419426 92.438722 
L 180.598316 91.617862 
L 182.777206 94.38059 
L 184.956095 92.033606 
L 187.134985 95.470532 
L 189.313874 98.085979 
L 191.492764 90.26842 
L 193.671653 94.176292 
L 195.850543 92.74542 
L 198.029433 97.270459 
L 200.208322 94.364315 
L 202.387212 93.134555 
L 204.566101 91.403038 
L 206.744991 95.730178 
L 208.92388 93.611423 
L 211.10277 90.927509 
L 213.28166 94.438892 
L 215.460549 94.774282 
L 217.639439 94.959177 
L 219.818328 92.009165 
L 221.997218 95.457601 
L 224.176107 92.836819 
L 226.354997 93.962546 
L 228.533887 92.090999 
L 230.712776 94.232023 
L 232.891666 89.850777 
L 235.070555 94.317166 
L 237.249445 92.045126 
L 239.428334 94.115027 
L 241.607224 94.761328 
L 243.786113 91.641928 
L 245.965003 93.008443 
L 248.143893 92.334442 
L 250.322782 93.480256 
L 252.501672 91.90168 
L 254.680561 88.631293 
L 256.859451 91.262729 
L 259.03834 97.173745 
L 261.21723 91.372535 
L 263.39612 96.369578 
L 265.575009 95.956868 
L 267.753899 94.286712 
L 269.932788 91.765945 
L 272.111678 93.556835 
L 274.290567 89.914489 
L 276.469457 92.834244 
L 278.648347 89.290155 
L 280.827236 91.505408 
L 283.006126 90.849368 
L 285.185015 91.395436 
L 287.363905 90.798345 
L 289.542794 89.598921 
L 291.721684 94.298099 
L 293.900574 91.1935 
L 296.079463 97.799776 
L 298.258353 90.204776 
L 300.437242 91.23899 
L 302.616132 90.396907 
L 304.795021 103.174678 
L 306.973911 88.664589 
L 309.1528 90.219872 
L 311.33169 95.246377 
L 313.51058 89.485015 
L 315.689469 90.496927 
L 317.868359 94.095139 
L 320.047248 96.9085 
L 322.226138 92.72583 
L 324.405027 89.294846 
L 326.583917 90.352921 
L 328.762807 90.565057 
L 330.941696 91.422819 
L 333.120586 93.047811 
L 335.299475 97.959537 
L 337.478365 92.106503 
L 339.657254 89.224748 
L 341.836144 93.060851 
L 344.015034 91.238592 
L 346.193923 94.673719 
L 348.372813 95.795381 
L 350.551702 90.501753 
L 352.730592 97.166003 
L 354.909481 89.300588 
L 357.088371 93.722506 
L 359.267261 94.212301 
L 361.44615 90.343204 
L 363.62504 91.187348 
L 365.803929 91.611282 
L 367.982819 91.843304 
L 370.161708 102.343899 
L 372.340598 90.807147 
L 374.519487 92.942055 
L 376.698377 88.75701 
L 378.877267 98.133499 
L 381.056156 95.380239 
L 383.235046 99.638674 
L 385.413935 89.942899 
L 387.592825 88.602478 
L 389.771714 90.822456 
L 391.950604 92.805802 
L 394.129494 90.723425 
L 396.308383 94.960585 
L 398.487273 92.47321 
L 398.487273 92.47321 
" clip-path="url(#pf6c5f464f8)" style="fill: none; stroke: #2ca02c; stroke-linecap: square"/>
   </g>
   <g id="line2d_18">
    <path d="M 73.832727 177.745341 
L 82.548286 177.745341 
L 84.727175 149.728627 
L 86.906065 135.8614 
L 89.084954 174.431247 
L 91.263844 167.86125 
L 93.442733 161.97925 
L 95.621623 127.086435 
L 97.800513 108.236342 
L 99.979402 94.345424 
L 102.158292 97.413605 
L 104.337181 93.621916 
L 106.516071 91.324039 
L 108.69496 92.981471 
L 110.87385 100.220677 
L 113.052739 93.012821 
L 115.231629 91.695695 
L 117.410519 91.391509 
L 119.589408 96.139903 
L 121.768298 92.561567 
L 123.947187 90.417191 
L 126.126077 97.357265 
L 128.304966 89.39138 
L 130.483856 93.651928 
L 132.662746 90.674349 
L 134.841635 89.652231 
L 137.020525 89.587967 
L 139.199414 90.617246 
L 141.378304 88.043673 
L 143.557193 87.875326 
L 145.736083 88.441212 
L 147.914973 92.495238 
L 150.093862 89.701315 
L 152.272752 95.821955 
L 154.451641 93.007552 
L 156.630531 94.132997 
L 158.80942 89.858084 
L 160.98831 91.431309 
L 163.1672 90.025522 
L 165.346089 94.718865 
L 167.524979 99.931492 
L 169.703868 99.860874 
L 171.882758 96.704847 
L 174.061647 92.39321 
L 176.240537 92.505887 
L 178.419426 87.35786 
L 180.598316 96.201652 
L 182.777206 91.594941 
L 184.956095 103.851406 
L 187.134985 87.435766 
L 189.313874 90.668823 
L 191.492764 92.257231 
L 193.671653 89.351872 
L 195.850543 97.414516 
L 198.029433 94.627165 
L 200.208322 91.611474 
L 202.387212 90.514444 
L 204.566101 90.34025 
L 206.744991 96.552902 
L 208.92388 95.087347 
L 211.10277 93.189683 
L 213.28166 93.259367 
L 215.460549 91.817699 
L 217.639439 89.973273 
L 219.818328 90.612785 
L 221.997218 91.038434 
L 224.176107 93.584161 
L 226.354997 92.893864 
L 228.533887 87.088054 
L 230.712776 90.13333 
L 232.891666 91.189257 
L 235.070555 96.813517 
L 237.249445 88.57621 
L 239.428334 89.029614 
L 241.607224 91.37259 
L 243.786113 94.07196 
L 245.965003 90.821249 
L 248.143893 88.043811 
L 250.322782 88.888752 
L 252.501672 97.489053 
L 254.680561 95.422901 
L 256.859451 89.586079 
L 259.03834 93.001596 
L 261.21723 91.801881 
L 263.39612 91.630373 
L 265.575009 90.26347 
L 267.753899 94.590271 
L 269.932788 98.570648 
L 272.111678 89.002155 
L 274.290567 92.548176 
L 276.469457 88.869052 
L 278.648347 93.078966 
L 280.827236 95.342349 
L 283.006126 92.976043 
L 285.185015 89.815032 
L 287.363905 98.102355 
L 289.542794 87.992745 
L 291.721684 105.20249 
L 293.900574 98.945497 
L 296.079463 91.988666 
L 298.258353 91.178839 
L 300.437242 95.822242 
L 302.616132 90.421824 
L 304.795021 86.836053 
L 306.973911 90.141698 
L 309.1528 90.847654 
L 311.33169 89.589197 
L 313.51058 87.060452 
L 315.689469 103.688374 
L 317.868359 98.643824 
L 320.047248 88.732161 
L 322.226138 87.861131 
L 324.405027 88.331131 
L 326.583917 89.229365 
L 328.762807 92.188527 
L 330.941696 88.213688 
L 333.120586 88.792756 
L 335.299475 92.498762 
L 337.478365 89.489045 
L 339.657254 95.807606 
L 341.836144 87.828906 
L 344.015034 91.391745 
L 346.193923 104.899078 
L 348.372813 95.034637 
L 350.551702 90.127014 
L 352.730592 95.459837 
L 354.909481 91.264956 
L 357.088371 91.891784 
L 359.267261 89.670624 
L 361.44615 86.946351 
L 363.62504 91.325586 
L 365.803929 94.781045 
L 367.982819 90.327382 
L 370.161708 89.550513 
L 372.340598 95.745541 
L 374.519487 91.643975 
L 376.698377 103.475319 
L 378.877267 93.424277 
L 381.056156 87.838363 
L 383.235046 87.850642 
L 385.413935 89.244009 
L 387.592825 100.131619 
L 389.771714 89.811542 
L 391.950604 88.263823 
L 394.129494 87.210214 
L 396.308383 87.341291 
L 398.487273 87.655529 
L 398.487273 87.655529 
" clip-path="url(#pf6c5f464f8)" style="fill: none; stroke: #d62728; stroke-linecap: square"/>
   </g>
   <g id="patch_3">
    <path d="M 57.6 307.584 
L 57.6 41.472 
" style="fill: none; stroke: #000000; stroke-width: 0.8; stroke-linejoin: miter; stroke-linecap: square"/>
   </g>
   <g id="patch_4">
    <path d="M 414.72 307.584 
L 414.72 41.472 
" style="fill: none; stroke: #000000; stroke-width: 0.8; stroke-linejoin: miter; stroke-linecap: square"/>
   </g>
   <g id="patch_5">
    <path d="M 57.6 307.584 
L 414.72 307.584 
" style="fill: none; stroke: #000000; stroke-width: 0.8; stroke-linejoin: miter; stroke-linecap: square"/>
   </g>
   <g id="patch_6">
    <path d="M 57.6 41.472 
L 414.72 41.472 
" style="fill: none; stroke: #000000; stroke-width: 0.8; stroke-linejoin: miter; stroke-linecap: square"/>
   </g>
   <g id="text_16">
    <!-- Recall of P_DENS -->
    <g transform="translate(185.335312 35.472) scale(0.12 -0.12)">
     <defs>
      <path id="DejaVuSans-52" d="M 2841 2188 
Q 3044 2119 3236 1894 
Q 3428 1669 3622 1275 
L 4263 0 
L 3584 0 
L 2988 1197 
Q 2756 1666 2539 1819 
Q 2322 1972 1947 1972 
L 1259 1972 
L 1259 0 
L 628 0 
L 628 4666 
L 2053 4666 
Q 2853 4666 3247 4331 
Q 3641 3997 3641 3322 
Q 3641 2881 3436 2590 
Q 3231 2300 2841 2188 
z
M 1259 4147 
L 1259 2491 
L 2053 2491 
Q 2509 2491 2742 2702 
Q 2975 2913 2975 3322 
Q 2975 3731 2742 3939 
Q 2509 4147 2053 4147 
L 1259 4147 
z
" transform="scale(0.015625)"/>
      <path id="DejaVuSans-61" d="M 2194 1759 
Q 1497 1759 1228 1600 
Q 959 1441 959 1056 
Q 959 750 1161 570 
Q 1363 391 1709 391 
Q 2188 391 2477 730 
Q 2766 1069 2766 1631 
L 2766 1759 
L 2194 1759 
z
M 3341 1997 
L 3341 0 
L 2766 0 
L 2766 531 
Q 2569 213 2275 61 
Q 1981 -91 1556 -91 
Q 1019 -91 701 211 
Q 384 513 384 1019 
Q 384 1609 779 1909 
Q 1175 2209 1959 2209 
L 2766 2209 
L 2766 2266 
Q 2766 2663 2505 2880 
Q 2244 3097 1772 3097 
Q 1472 3097 1187 3025 
Q 903 2953 641 2809 
L 641 3341 
Q 956 3463 1253 3523 
Q 1550 3584 1831 3584 
Q 2591 3584 2966 3190 
Q 3341 2797 3341 1997 
z
" transform="scale(0.015625)"/>
      <path id="DejaVuSans-6c" d="M 603 4863 
L 1178 4863 
L 1178 0 
L 603 0 
L 603 4863 
z
" transform="scale(0.015625)"/>
      <path id="DejaVuSans-20" transform="scale(0.015625)"/>
      <path id="DejaVuSans-66" d="M 2375 4863 
L 2375 4384 
L 1825 4384 
Q 1516 4384 1395 4259 
Q 1275 4134 1275 3809 
L 1275 3500 
L 2222 3500 
L 2222 3053 
L 1275 3053 
L 1275 0 
L 697 0 
L 697 3053 
L 147 3053 
L 147 3500 
L 697 3500 
L 697 3744 
Q 697 4328 969 4595 
Q 1241 4863 1831 4863 
L 2375 4863 
z
" transform="scale(0.015625)"/>
      <path id="DejaVuSans-50" d="M 1259 4147 
L 1259 2394 
L 2053 2394 
Q 2494 2394 2734 2622 
Q 2975 2850 2975 3272 
Q 2975 3691 2734 3919 
Q 2494 4147 2053 4147 
L 1259 4147 
z
M 628 4666 
L 2053 4666 
Q 2838 4666 3239 4311 
Q 3641 3956 3641 3272 
Q 3641 2581 3239 2228 
Q 2838 1875 2053 1875 
L 1259 1875 
L 1259 0 
L 628 0 
L 628 4666 
z
" transform="scale(0.015625)"/>
      <path id="DejaVuSans-5f" d="M 3263 -1063 
L 3263 -1509 
L -63 -1509 
L -63 -1063 
L 3263 -1063 
z
" transform="scale(0.015625)"/>
      <path id="DejaVuSans-44" d="M 1259 4147 
L 1259 519 
L 2022 519 
Q 2988 519 3436 956 
Q 3884 1394 3884 2338 
Q 3884 3275 3436 3711 
Q 2988 4147 2022 4147 
L 1259 4147 
z
M 628 4666 
L 1925 4666 
Q 3281 4666 3915 4102 
Q 4550 3538 4550 2338 
Q 4550 1131 3912 565 
Q 3275 0 1925 0 
L 628 0 
L 628 4666 
z
" transform="scale(0.015625)"/>
      <path id="DejaVuSans-45" d="M 628 4666 
L 3578 4666 
L 3578 4134 
L 1259 4134 
L 1259 2753 
L 3481 2753 
L 3481 2222 
L 1259 2222 
L 1259 531 
L 3634 531 
L 3634 0 
L 628 0 
L 628 4666 
z
" transform="scale(0.015625)"/>
      <path id="DejaVuSans-4e" d="M 628 4666 
L 1478 4666 
L 3547 763 
L 3547 4666 
L 4159 4666 
L 4159 0 
L 3309 0 
L 1241 3903 
L 1241 0 
L 628 0 
L 628 4666 
z
" transform="scale(0.015625)"/>
      <path id="DejaVuSans-53" d="M 3425 4513 
L 3425 3897 
Q 3066 4069 2747 4153 
Q 2428 4238 2131 4238 
Q 1616 4238 1336 4038 
Q 1056 3838 1056 3469 
Q 1056 3159 1242 3001 
Q 1428 2844 1947 2747 
L 2328 2669 
Q 3034 2534 3370 2195 
Q 3706 1856 3706 1288 
Q 3706 609 3251 259 
Q 2797 -91 1919 -91 
Q 1588 -91 1214 -16 
Q 841 59 441 206 
L 441 856 
Q 825 641 1194 531 
Q 1563 422 1919 422 
Q 2459 422 2753 634 
Q 3047 847 3047 1241 
Q 3047 1584 2836 1778 
Q 2625 1972 2144 2069 
L 1759 2144 
Q 1053 2284 737 2584 
Q 422 2884 422 3419 
Q 422 4038 858 4394 
Q 1294 4750 2059 4750 
Q 2388 4750 2728 4690 
Q 3069 4631 3425 4513 
z
" transform="scale(0.015625)"/>
     </defs>
     <use xlink:href="#DejaVuSans-52"/>
     <use xlink:href="#DejaVuSans-65" x="64.982422"/>
     <use xlink:href="#DejaVuSans-63" x="126.505859"/>
     <use xlink:href="#DejaVuSans-61" x="181.486328"/>
     <use xlink:href="#DejaVuSans-6c" x="242.765625"/>
     <use xlink:href="#DejaVuSans-6c" x="270.548828"/>
     <use xlink:href="#DejaVuSans-20" x="298.332031"/>
     <use xlink:href="#DejaVuSans-6f" x="330.119141"/>
     <use xlink:href="#DejaVuSans-66" x="391.300781"/>
     <use xlink:href="#DejaVuSans-20" x="426.505859"/>
     <use xlink:href="#DejaVuSans-50" x="458.292969"/>
     <use xlink:href="#DejaVuSans-5f" x="518.595703"/>
     <use xlink:href="#DejaVuSans-44" x="568.595703"/>
     <use xlink:href="#DejaVuSans-45" x="645.597656"/>
     <use xlink:href="#DejaVuSans-4e" x="708.78125"/>
     <use xlink:href="#DejaVuSans-53" x="783.585938"/>
    </g>
   </g>
   <g id="legend_1">
    <g id="patch_7">
     <path d="M 64.6 302.584 
L 173.157812 302.584 
Q 175.157812 302.584 175.157812 300.584 
L 175.157812 242.8715 
Q 175.157812 240.8715 173.157812 240.8715 
L 64.6 240.8715 
Q 62.6 240.8715 62.6 242.8715 
L 62.6 300.584 
Q 62.6 302.584 64.6 302.584 
z
" style="fill: #ffffff; opacity: 0.8; stroke: #cccccc; stroke-linejoin: miter"/>
    </g>
    <g id="line2d_19">
     <path d="M 66.6 248.969937 
L 76.6 248.969937 
L 86.6 248.969937 
" style="fill: none; stroke: #1f77b4; stroke-linecap: square"/>
    </g>
    <g id="text_17">
     <!-- 2000 samples -->
     <g transform="translate(94.6 252.469937) scale(0.1 -0.1)">
      <defs>
       <path id="DejaVuSans-73" d="M 2834 3397 
L 2834 2853 
Q 2591 2978 2328 3040 
Q 2066 3103 1784 3103 
Q 1356 3103 1142 2972 
Q 928 2841 928 2578 
Q 928 2378 1081 2264 
Q 1234 2150 1697 2047 
L 1894 2003 
Q 2506 1872 2764 1633 
Q 3022 1394 3022 966 
Q 3022 478 2636 193 
Q 2250 -91 1575 -91 
Q 1294 -91 989 -36 
Q 684 19 347 128 
L 347 722 
Q 666 556 975 473 
Q 1284 391 1588 391 
Q 1994 391 2212 530 
Q 2431 669 2431 922 
Q 2431 1156 2273 1281 
Q 2116 1406 1581 1522 
L 1381 1569 
Q 847 1681 609 1914 
Q 372 2147 372 2553 
Q 372 3047 722 3315 
Q 1072 3584 1716 3584 
Q 2034 3584 2315 3537 
Q 2597 3491 2834 3397 
z
" transform="scale(0.015625)"/>
       <path id="DejaVuSans-6d" d="M 3328 2828 
Q 3544 3216 3844 3400 
Q 4144 3584 4550 3584 
Q 5097 3584 5394 3201 
Q 5691 2819 5691 2113 
L 5691 0 
L 5113 0 
L 5113 2094 
Q 5113 2597 4934 2840 
Q 4756 3084 4391 3084 
Q 3944 3084 3684 2787 
Q 3425 2491 3425 1978 
L 3425 0 
L 2847 0 
L 2847 2094 
Q 2847 2600 2669 2842 
Q 2491 3084 2119 3084 
Q 1678 3084 1418 2786 
Q 1159 2488 1159 1978 
L 1159 0 
L 581 0 
L 581 3500 
L 1159 3500 
L 1159 2956 
Q 1356 3278 1631 3431 
Q 1906 3584 2284 3584 
Q 2666 3584 2933 3390 
Q 3200 3197 3328 2828 
z
" transform="scale(0.015625)"/>
      </defs>
      <use xlink:href="#DejaVuSans-32"/>
      <use xlink:href="#DejaVuSans-30" x="63.623047"/>
      <use xlink:href="#DejaVuSans-30" x="127.246094"/>
      <use xlink:href="#DejaVuSans-30" x="190.869141"/>
      <use xlink:href="#DejaVuSans-20" x="254.492188"/>
      <use xlink:href="#DejaVuSans-73" x="286.279297"/>
      <use xlink:href="#DejaVuSans-61" x="338.378906"/>
      <use xlink:href="#DejaVuSans-6d" x="399.658203"/>
      <use xlink:href="#DejaVuSans-70" x="497.070312"/>
      <use xlink:href="#DejaVuSans-6c" x="560.546875"/>
      <use xlink:href="#DejaVuSans-65" x="588.330078"/>
      <use xlink:href="#DejaVuSans-73" x="649.853516"/>
     </g>
    </g>
    <g id="line2d_20">
     <path d="M 66.6 263.648062 
L 76.6 263.648062 
L 86.6 263.648062 
" style="fill: none; stroke: #ff7f0e; stroke-linecap: square"/>
    </g>
    <g id="text_18">
     <!-- 5000 samples -->
     <g transform="translate(94.6 267.148062) scale(0.1 -0.1)">
      <defs>
       <path id="DejaVuSans-35" d="M 691 4666 
L 3169 4666 
L 3169 4134 
L 1269 4134 
L 1269 2991 
Q 1406 3038 1543 3061 
Q 1681 3084 1819 3084 
Q 2600 3084 3056 2656 
Q 3513 2228 3513 1497 
Q 3513 744 3044 326 
Q 2575 -91 1722 -91 
Q 1428 -91 1123 -41 
Q 819 9 494 109 
L 494 744 
Q 775 591 1075 516 
Q 1375 441 1709 441 
Q 2250 441 2565 725 
Q 2881 1009 2881 1497 
Q 2881 1984 2565 2268 
Q 2250 2553 1709 2553 
Q 1456 2553 1204 2497 
Q 953 2441 691 2322 
L 691 4666 
z
" transform="scale(0.015625)"/>
      </defs>
      <use xlink:href="#DejaVuSans-35"/>
      <use xlink:href="#DejaVuSans-30" x="63.623047"/>
      <use xlink:href="#DejaVuSans-30" x="127.246094"/>
      <use xlink:href="#DejaVuSans-30" x="190.869141"/>
      <use xlink:href="#DejaVuSans-20" x="254.492188"/>
      <use xlink:href="#DejaVuSans-73" x="286.279297"/>
      <use xlink:href="#DejaVuSans-61" x="338.378906"/>
      <use xlink:href="#DejaVuSans-6d" x="399.658203"/>
      <use xlink:href="#DejaVuSans-70" x="497.070312"/>
      <use xlink:href="#DejaVuSans-6c" x="560.546875"/>
      <use xlink:href="#DejaVuSans-65" x="588.330078"/>
      <use xlink:href="#DejaVuSans-73" x="649.853516"/>
     </g>
    </g>
    <g id="line2d_21">
     <path d="M 66.6 278.326187 
L 76.6 278.326187 
L 86.6 278.326187 
" style="fill: none; stroke: #2ca02c; stroke-linecap: square"/>
    </g>
    <g id="text_19">
     <!-- 8000 samples -->
     <g transform="translate(94.6 281.826187) scale(0.1 -0.1)">
      <use xlink:href="#DejaVuSans-38"/>
      <use xlink:href="#DejaVuSans-30" x="63.623047"/>
      <use xlink:href="#DejaVuSans-30" x="127.246094"/>
      <use xlink:href="#DejaVuSans-30" x="190.869141"/>
      <use xlink:href="#DejaVuSans-20" x="254.492188"/>
      <use xlink:href="#DejaVuSans-73" x="286.279297"/>
      <use xlink:href="#DejaVuSans-61" x="338.378906"/>
      <use xlink:href="#DejaVuSans-6d" x="399.658203"/>
      <use xlink:href="#DejaVuSans-70" x="497.070312"/>
      <use xlink:href="#DejaVuSans-6c" x="560.546875"/>
      <use xlink:href="#DejaVuSans-65" x="588.330078"/>
      <use xlink:href="#DejaVuSans-73" x="649.853516"/>
     </g>
    </g>
    <g id="line2d_22">
     <path d="M 66.6 293.004312 
L 76.6 293.004312 
L 86.6 293.004312 
" style="fill: none; stroke: #d62728; stroke-linecap: square"/>
    </g>
    <g id="text_20">
     <!-- 10000 samples -->
     <g transform="translate(94.6 296.504312) scale(0.1 -0.1)">
      <use xlink:href="#DejaVuSans-31"/>
      <use xlink:href="#DejaVuSans-30" x="63.623047"/>
      <use xlink:href="#DejaVuSans-30" x="127.246094"/>
      <use xlink:href="#DejaVuSans-30" x="190.869141"/>
      <use xlink:href="#DejaVuSans-30" x="254.492188"/>
      <use xlink:href="#DejaVuSans-20" x="318.115234"/>
      <use xlink:href="#DejaVuSans-73" x="349.902344"/>
      <use xlink:href="#DejaVuSans-61" x="402.001953"/>
      <use xlink:href="#DejaVuSans-6d" x="463.28125"/>
      <use xlink:href="#DejaVuSans-70" x="560.693359"/>
      <use xlink:href="#DejaVuSans-6c" x="624.169922"/>
      <use xlink:href="#DejaVuSans-65" x="651.953125"/>
      <use xlink:href="#DejaVuSans-73" x="713.476562"/>
     </g>
    </g>
   </g>
  </g>
 </g>
 <defs>
  <clipPath id="pf6c5f464f8">
   <rect x="57.6" y="41.472" width="357.12" height="266.112"/>
  </clipPath>
 </defs>
</svg>
