<?xml version="1.0" encoding="utf-8" standalone="no"?>
<!DOCTYPE svg PUBLIC "-//W3C//DTD SVG 1.1//EN"
  "http://www.w3.org/Graphics/SVG/1.1/DTD/svg11.dtd">
<svg xmlns:xlink="http://www.w3.org/1999/xlink" width="460.8pt" height="345.6pt" viewBox="0 0 460.8 345.6" xmlns="http://www.w3.org/2000/svg" version="1.1">
 <metadata>
  <rdf:RDF xmlns:dc="http://purl.org/dc/elements/1.1/" xmlns:cc="http://creativecommons.org/ns#" xmlns:rdf="http://www.w3.org/1999/02/22-rdf-syntax-ns#">
   <cc:Work>
    <dc:type rdf:resource="http://purl.org/dc/dcmitype/StillImage"/>
    <dc:date>2023-09-13T16:28:04.245086</dc:date>
    <dc:format>image/svg+xml</dc:format>
    <dc:creator>
     <cc:Agent>
      <dc:title>Matplotlib v3.7.1, https://matplotlib.org/</dc:title>
     </cc:Agent>
    </dc:creator>
   </cc:Work>
  </rdf:RDF>
 </metadata>
 <defs>
  <style type="text/css">*{stroke-linejoin: round; stroke-linecap: butt}</style>
 </defs>
 <g id="figure_1">
  <g id="patch_1">
   <path d="M 0 345.6 
L 460.8 345.6 
L 460.8 0 
L 0 0 
z
" style="fill: #ffffff"/>
  </g>
  <g id="axes_1">
   <g id="patch_2">
    <path d="M 57.6 307.584 
L 414.72 307.584 
L 414.72 41.472 
L 57.6 41.472 
z
" style="fill: #ffffff"/>
   </g>
   <g id="matplotlib.axis_1">
    <g id="xtick_1">
     <g id="line2d_1">
      <defs>
       <path id="ma59a24d464" d="M 0 0 
L 0 3.5 
" style="stroke: #000000; stroke-width: 0.8"/>
      </defs>
      <g>
       <use xlink:href="#ma59a24d464" x="71.653838" y="307.584" style="stroke: #000000; stroke-width: 0.8"/>
      </g>
     </g>
     <g id="text_1">
      <!-- 0 -->
      <g transform="translate(68.472588 322.182437) scale(0.1 -0.1)">
       <defs>
        <path id="DejaVuSans-30" d="M 2034 4250 
Q 1547 4250 1301 3770 
Q 1056 3291 1056 2328 
Q 1056 1369 1301 889 
Q 1547 409 2034 409 
Q 2525 409 2770 889 
Q 3016 1369 3016 2328 
Q 3016 3291 2770 3770 
Q 2525 4250 2034 4250 
z
M 2034 4750 
Q 2819 4750 3233 4129 
Q 3647 3509 3647 2328 
Q 3647 1150 3233 529 
Q 2819 -91 2034 -91 
Q 1250 -91 836 529 
Q 422 1150 422 2328 
Q 422 3509 836 4129 
Q 1250 4750 2034 4750 
z
" transform="scale(0.015625)"/>
       </defs>
       <use xlink:href="#DejaVuSans-30"/>
      </g>
     </g>
    </g>
    <g id="xtick_2">
     <g id="line2d_2">
      <g>
       <use xlink:href="#ma59a24d464" x="115.231629" y="307.584" style="stroke: #000000; stroke-width: 0.8"/>
      </g>
     </g>
     <g id="text_2">
      <!-- 20 -->
      <g transform="translate(108.869129 322.182437) scale(0.1 -0.1)">
       <defs>
        <path id="DejaVuSans-32" d="M 1228 531 
L 3431 531 
L 3431 0 
L 469 0 
L 469 531 
Q 828 903 1448 1529 
Q 2069 2156 2228 2338 
Q 2531 2678 2651 2914 
Q 2772 3150 2772 3378 
Q 2772 3750 2511 3984 
Q 2250 4219 1831 4219 
Q 1534 4219 1204 4116 
Q 875 4013 500 3803 
L 500 4441 
Q 881 4594 1212 4672 
Q 1544 4750 1819 4750 
Q 2544 4750 2975 4387 
Q 3406 4025 3406 3419 
Q 3406 3131 3298 2873 
Q 3191 2616 2906 2266 
Q 2828 2175 2409 1742 
Q 1991 1309 1228 531 
z
" transform="scale(0.015625)"/>
       </defs>
       <use xlink:href="#DejaVuSans-32"/>
       <use xlink:href="#DejaVuSans-30" x="63.623047"/>
      </g>
     </g>
    </g>
    <g id="xtick_3">
     <g id="line2d_3">
      <g>
       <use xlink:href="#ma59a24d464" x="158.80942" y="307.584" style="stroke: #000000; stroke-width: 0.8"/>
      </g>
     </g>
     <g id="text_3">
      <!-- 40 -->
      <g transform="translate(152.44692 322.182437) scale(0.1 -0.1)">
       <defs>
        <path id="DejaVuSans-34" d="M 2419 4116 
L 825 1625 
L 2419 1625 
L 2419 4116 
z
M 2253 4666 
L 3047 4666 
L 3047 1625 
L 3713 1625 
L 3713 1100 
L 3047 1100 
L 3047 0 
L 2419 0 
L 2419 1100 
L 313 1100 
L 313 1709 
L 2253 4666 
z
" transform="scale(0.015625)"/>
       </defs>
       <use xlink:href="#DejaVuSans-34"/>
       <use xlink:href="#DejaVuSans-30" x="63.623047"/>
      </g>
     </g>
    </g>
    <g id="xtick_4">
     <g id="line2d_4">
      <g>
       <use xlink:href="#ma59a24d464" x="202.387212" y="307.584" style="stroke: #000000; stroke-width: 0.8"/>
      </g>
     </g>
     <g id="text_4">
      <!-- 60 -->
      <g transform="translate(196.024712 322.182437) scale(0.1 -0.1)">
       <defs>
        <path id="DejaVuSans-36" d="M 2113 2584 
Q 1688 2584 1439 2293 
Q 1191 2003 1191 1497 
Q 1191 994 1439 701 
Q 1688 409 2113 409 
Q 2538 409 2786 701 
Q 3034 994 3034 1497 
Q 3034 2003 2786 2293 
Q 2538 2584 2113 2584 
z
M 3366 4563 
L 3366 3988 
Q 3128 4100 2886 4159 
Q 2644 4219 2406 4219 
Q 1781 4219 1451 3797 
Q 1122 3375 1075 2522 
Q 1259 2794 1537 2939 
Q 1816 3084 2150 3084 
Q 2853 3084 3261 2657 
Q 3669 2231 3669 1497 
Q 3669 778 3244 343 
Q 2819 -91 2113 -91 
Q 1303 -91 875 529 
Q 447 1150 447 2328 
Q 447 3434 972 4092 
Q 1497 4750 2381 4750 
Q 2619 4750 2861 4703 
Q 3103 4656 3366 4563 
z
" transform="scale(0.015625)"/>
       </defs>
       <use xlink:href="#DejaVuSans-36"/>
       <use xlink:href="#DejaVuSans-30" x="63.623047"/>
      </g>
     </g>
    </g>
    <g id="xtick_5">
     <g id="line2d_5">
      <g>
       <use xlink:href="#ma59a24d464" x="245.965003" y="307.584" style="stroke: #000000; stroke-width: 0.8"/>
      </g>
     </g>
     <g id="text_5">
      <!-- 80 -->
      <g transform="translate(239.602503 322.182437) scale(0.1 -0.1)">
       <defs>
        <path id="DejaVuSans-38" d="M 2034 2216 
Q 1584 2216 1326 1975 
Q 1069 1734 1069 1313 
Q 1069 891 1326 650 
Q 1584 409 2034 409 
Q 2484 409 2743 651 
Q 3003 894 3003 1313 
Q 3003 1734 2745 1975 
Q 2488 2216 2034 2216 
z
M 1403 2484 
Q 997 2584 770 2862 
Q 544 3141 544 3541 
Q 544 4100 942 4425 
Q 1341 4750 2034 4750 
Q 2731 4750 3128 4425 
Q 3525 4100 3525 3541 
Q 3525 3141 3298 2862 
Q 3072 2584 2669 2484 
Q 3125 2378 3379 2068 
Q 3634 1759 3634 1313 
Q 3634 634 3220 271 
Q 2806 -91 2034 -91 
Q 1263 -91 848 271 
Q 434 634 434 1313 
Q 434 1759 690 2068 
Q 947 2378 1403 2484 
z
M 1172 3481 
Q 1172 3119 1398 2916 
Q 1625 2713 2034 2713 
Q 2441 2713 2670 2916 
Q 2900 3119 2900 3481 
Q 2900 3844 2670 4047 
Q 2441 4250 2034 4250 
Q 1625 4250 1398 4047 
Q 1172 3844 1172 3481 
z
" transform="scale(0.015625)"/>
       </defs>
       <use xlink:href="#DejaVuSans-38"/>
       <use xlink:href="#DejaVuSans-30" x="63.623047"/>
      </g>
     </g>
    </g>
    <g id="xtick_6">
     <g id="line2d_6">
      <g>
       <use xlink:href="#ma59a24d464" x="289.542794" y="307.584" style="stroke: #000000; stroke-width: 0.8"/>
      </g>
     </g>
     <g id="text_6">
      <!-- 100 -->
      <g transform="translate(279.999044 322.182437) scale(0.1 -0.1)">
       <defs>
        <path id="DejaVuSans-31" d="M 794 531 
L 1825 531 
L 1825 4091 
L 703 3866 
L 703 4441 
L 1819 4666 
L 2450 4666 
L 2450 531 
L 3481 531 
L 3481 0 
L 794 0 
L 794 531 
z
" transform="scale(0.015625)"/>
       </defs>
       <use xlink:href="#DejaVuSans-31"/>
       <use xlink:href="#DejaVuSans-30" x="63.623047"/>
       <use xlink:href="#DejaVuSans-30" x="127.246094"/>
      </g>
     </g>
    </g>
    <g id="xtick_7">
     <g id="line2d_7">
      <g>
       <use xlink:href="#ma59a24d464" x="333.120586" y="307.584" style="stroke: #000000; stroke-width: 0.8"/>
      </g>
     </g>
     <g id="text_7">
      <!-- 120 -->
      <g transform="translate(323.576836 322.182437) scale(0.1 -0.1)">
       <use xlink:href="#DejaVuSans-31"/>
       <use xlink:href="#DejaVuSans-32" x="63.623047"/>
       <use xlink:href="#DejaVuSans-30" x="127.246094"/>
      </g>
     </g>
    </g>
    <g id="xtick_8">
     <g id="line2d_8">
      <g>
       <use xlink:href="#ma59a24d464" x="376.698377" y="307.584" style="stroke: #000000; stroke-width: 0.8"/>
      </g>
     </g>
     <g id="text_8">
      <!-- 140 -->
      <g transform="translate(367.154627 322.182437) scale(0.1 -0.1)">
       <use xlink:href="#DejaVuSans-31"/>
       <use xlink:href="#DejaVuSans-34" x="63.623047"/>
       <use xlink:href="#DejaVuSans-30" x="127.246094"/>
      </g>
     </g>
    </g>
    <g id="text_9">
     <!-- epoch -->
     <g transform="translate(220.931875 335.860562) scale(0.1 -0.1)">
      <defs>
       <path id="DejaVuSans-65" d="M 3597 1894 
L 3597 1613 
L 953 1613 
Q 991 1019 1311 708 
Q 1631 397 2203 397 
Q 2534 397 2845 478 
Q 3156 559 3463 722 
L 3463 178 
Q 3153 47 2828 -22 
Q 2503 -91 2169 -91 
Q 1331 -91 842 396 
Q 353 884 353 1716 
Q 353 2575 817 3079 
Q 1281 3584 2069 3584 
Q 2775 3584 3186 3129 
Q 3597 2675 3597 1894 
z
M 3022 2063 
Q 3016 2534 2758 2815 
Q 2500 3097 2075 3097 
Q 1594 3097 1305 2825 
Q 1016 2553 972 2059 
L 3022 2063 
z
" transform="scale(0.015625)"/>
       <path id="DejaVuSans-70" d="M 1159 525 
L 1159 -1331 
L 581 -1331 
L 581 3500 
L 1159 3500 
L 1159 2969 
Q 1341 3281 1617 3432 
Q 1894 3584 2278 3584 
Q 2916 3584 3314 3078 
Q 3713 2572 3713 1747 
Q 3713 922 3314 415 
Q 2916 -91 2278 -91 
Q 1894 -91 1617 61 
Q 1341 213 1159 525 
z
M 3116 1747 
Q 3116 2381 2855 2742 
Q 2594 3103 2138 3103 
Q 1681 3103 1420 2742 
Q 1159 2381 1159 1747 
Q 1159 1113 1420 752 
Q 1681 391 2138 391 
Q 2594 391 2855 752 
Q 3116 1113 3116 1747 
z
" transform="scale(0.015625)"/>
       <path id="DejaVuSans-6f" d="M 1959 3097 
Q 1497 3097 1228 2736 
Q 959 2375 959 1747 
Q 959 1119 1226 758 
Q 1494 397 1959 397 
Q 2419 397 2687 759 
Q 2956 1122 2956 1747 
Q 2956 2369 2687 2733 
Q 2419 3097 1959 3097 
z
M 1959 3584 
Q 2709 3584 3137 3096 
Q 3566 2609 3566 1747 
Q 3566 888 3137 398 
Q 2709 -91 1959 -91 
Q 1206 -91 779 398 
Q 353 888 353 1747 
Q 353 2609 779 3096 
Q 1206 3584 1959 3584 
z
" transform="scale(0.015625)"/>
       <path id="DejaVuSans-63" d="M 3122 3366 
L 3122 2828 
Q 2878 2963 2633 3030 
Q 2388 3097 2138 3097 
Q 1578 3097 1268 2742 
Q 959 2388 959 1747 
Q 959 1106 1268 751 
Q 1578 397 2138 397 
Q 2388 397 2633 464 
Q 2878 531 3122 666 
L 3122 134 
Q 2881 22 2623 -34 
Q 2366 -91 2075 -91 
Q 1284 -91 818 406 
Q 353 903 353 1747 
Q 353 2603 823 3093 
Q 1294 3584 2113 3584 
Q 2378 3584 2631 3529 
Q 2884 3475 3122 3366 
z
" transform="scale(0.015625)"/>
       <path id="DejaVuSans-68" d="M 3513 2113 
L 3513 0 
L 2938 0 
L 2938 2094 
Q 2938 2591 2744 2837 
Q 2550 3084 2163 3084 
Q 1697 3084 1428 2787 
Q 1159 2491 1159 1978 
L 1159 0 
L 581 0 
L 581 4863 
L 1159 4863 
L 1159 2956 
Q 1366 3272 1645 3428 
Q 1925 3584 2291 3584 
Q 2894 3584 3203 3211 
Q 3513 2838 3513 2113 
z
" transform="scale(0.015625)"/>
      </defs>
      <use xlink:href="#DejaVuSans-65"/>
      <use xlink:href="#DejaVuSans-70" x="61.523438"/>
      <use xlink:href="#DejaVuSans-6f" x="125"/>
      <use xlink:href="#DejaVuSans-63" x="186.181641"/>
      <use xlink:href="#DejaVuSans-68" x="241.162109"/>
     </g>
    </g>
   </g>
   <g id="matplotlib.axis_2">
    <g id="ytick_1">
     <g id="line2d_9">
      <defs>
       <path id="me50ec0b39e" d="M 0 0 
L -3.5 0 
" style="stroke: #000000; stroke-width: 0.8"/>
      </defs>
      <g>
       <use xlink:href="#me50ec0b39e" x="57.6" y="307.584" style="stroke: #000000; stroke-width: 0.8"/>
      </g>
     </g>
     <g id="text_10">
      <!-- 0.0 -->
      <g transform="translate(34.696875 311.383219) scale(0.1 -0.1)">
       <defs>
        <path id="DejaVuSans-2e" d="M 684 794 
L 1344 794 
L 1344 0 
L 684 0 
L 684 794 
z
" transform="scale(0.015625)"/>
       </defs>
       <use xlink:href="#DejaVuSans-30"/>
       <use xlink:href="#DejaVuSans-2e" x="63.623047"/>
       <use xlink:href="#DejaVuSans-30" x="95.410156"/>
      </g>
     </g>
    </g>
    <g id="ytick_2">
     <g id="line2d_10">
      <g>
       <use xlink:href="#me50ec0b39e" x="57.6" y="277.925933" style="stroke: #000000; stroke-width: 0.8"/>
      </g>
     </g>
     <g id="text_11">
      <!-- 0.1 -->
      <g transform="translate(34.696875 281.725152) scale(0.1 -0.1)">
       <use xlink:href="#DejaVuSans-30"/>
       <use xlink:href="#DejaVuSans-2e" x="63.623047"/>
       <use xlink:href="#DejaVuSans-31" x="95.410156"/>
      </g>
     </g>
    </g>
    <g id="ytick_3">
     <g id="line2d_11">
      <g>
       <use xlink:href="#me50ec0b39e" x="57.6" y="248.267866" style="stroke: #000000; stroke-width: 0.8"/>
      </g>
     </g>
     <g id="text_12">
      <!-- 0.2 -->
      <g transform="translate(34.696875 252.067085) scale(0.1 -0.1)">
       <use xlink:href="#DejaVuSans-30"/>
       <use xlink:href="#DejaVuSans-2e" x="63.623047"/>
       <use xlink:href="#DejaVuSans-32" x="95.410156"/>
      </g>
     </g>
    </g>
    <g id="ytick_4">
     <g id="line2d_12">
      <g>
       <use xlink:href="#me50ec0b39e" x="57.6" y="218.609799" style="stroke: #000000; stroke-width: 0.8"/>
      </g>
     </g>
     <g id="text_13">
      <!-- 0.3 -->
      <g transform="translate(34.696875 222.409018) scale(0.1 -0.1)">
       <defs>
        <path id="DejaVuSans-33" d="M 2597 2516 
Q 3050 2419 3304 2112 
Q 3559 1806 3559 1356 
Q 3559 666 3084 287 
Q 2609 -91 1734 -91 
Q 1441 -91 1130 -33 
Q 819 25 488 141 
L 488 750 
Q 750 597 1062 519 
Q 1375 441 1716 441 
Q 2309 441 2620 675 
Q 2931 909 2931 1356 
Q 2931 1769 2642 2001 
Q 2353 2234 1838 2234 
L 1294 2234 
L 1294 2753 
L 1863 2753 
Q 2328 2753 2575 2939 
Q 2822 3125 2822 3475 
Q 2822 3834 2567 4026 
Q 2313 4219 1838 4219 
Q 1578 4219 1281 4162 
Q 984 4106 628 3988 
L 628 4550 
Q 988 4650 1302 4700 
Q 1616 4750 1894 4750 
Q 2613 4750 3031 4423 
Q 3450 4097 3450 3541 
Q 3450 3153 3228 2886 
Q 3006 2619 2597 2516 
z
" transform="scale(0.015625)"/>
       </defs>
       <use xlink:href="#DejaVuSans-30"/>
       <use xlink:href="#DejaVuSans-2e" x="63.623047"/>
       <use xlink:href="#DejaVuSans-33" x="95.410156"/>
      </g>
     </g>
    </g>
    <g id="ytick_5">
     <g id="line2d_13">
      <g>
       <use xlink:href="#me50ec0b39e" x="57.6" y="188.951732" style="stroke: #000000; stroke-width: 0.8"/>
      </g>
     </g>
     <g id="text_14">
      <!-- 0.4 -->
      <g transform="translate(34.696875 192.750951) scale(0.1 -0.1)">
       <use xlink:href="#DejaVuSans-30"/>
       <use xlink:href="#DejaVuSans-2e" x="63.623047"/>
       <use xlink:href="#DejaVuSans-34" x="95.410156"/>
      </g>
     </g>
    </g>
    <g id="ytick_6">
     <g id="line2d_14">
      <g>
       <use xlink:href="#me50ec0b39e" x="57.6" y="159.293665" style="stroke: #000000; stroke-width: 0.8"/>
      </g>
     </g>
     <g id="text_15">
      <!-- 0.5 -->
      <g transform="translate(34.696875 163.092884) scale(0.1 -0.1)">
       <defs>
        <path id="DejaVuSans-35" d="M 691 4666 
L 3169 4666 
L 3169 4134 
L 1269 4134 
L 1269 2991 
Q 1406 3038 1543 3061 
Q 1681 3084 1819 3084 
Q 2600 3084 3056 2656 
Q 3513 2228 3513 1497 
Q 3513 744 3044 326 
Q 2575 -91 1722 -91 
Q 1428 -91 1123 -41 
Q 819 9 494 109 
L 494 744 
Q 775 591 1075 516 
Q 1375 441 1709 441 
Q 2250 441 2565 725 
Q 2881 1009 2881 1497 
Q 2881 1984 2565 2268 
Q 2250 2553 1709 2553 
Q 1456 2553 1204 2497 
Q 953 2441 691 2322 
L 691 4666 
z
" transform="scale(0.015625)"/>
       </defs>
       <use xlink:href="#DejaVuSans-30"/>
       <use xlink:href="#DejaVuSans-2e" x="63.623047"/>
       <use xlink:href="#DejaVuSans-35" x="95.410156"/>
      </g>
     </g>
    </g>
    <g id="ytick_7">
     <g id="line2d_15">
      <g>
       <use xlink:href="#me50ec0b39e" x="57.6" y="129.635598" style="stroke: #000000; stroke-width: 0.8"/>
      </g>
     </g>
     <g id="text_16">
      <!-- 0.6 -->
      <g transform="translate(34.696875 133.434817) scale(0.1 -0.1)">
       <use xlink:href="#DejaVuSans-30"/>
       <use xlink:href="#DejaVuSans-2e" x="63.623047"/>
       <use xlink:href="#DejaVuSans-36" x="95.410156"/>
      </g>
     </g>
    </g>
    <g id="ytick_8">
     <g id="line2d_16">
      <g>
       <use xlink:href="#me50ec0b39e" x="57.6" y="99.977531" style="stroke: #000000; stroke-width: 0.8"/>
      </g>
     </g>
     <g id="text_17">
      <!-- 0.7 -->
      <g transform="translate(34.696875 103.77675) scale(0.1 -0.1)">
       <defs>
        <path id="DejaVuSans-37" d="M 525 4666 
L 3525 4666 
L 3525 4397 
L 1831 0 
L 1172 0 
L 2766 4134 
L 525 4134 
L 525 4666 
z
" transform="scale(0.015625)"/>
       </defs>
       <use xlink:href="#DejaVuSans-30"/>
       <use xlink:href="#DejaVuSans-2e" x="63.623047"/>
       <use xlink:href="#DejaVuSans-37" x="95.410156"/>
      </g>
     </g>
    </g>
    <g id="ytick_9">
     <g id="line2d_17">
      <g>
       <use xlink:href="#me50ec0b39e" x="57.6" y="70.319464" style="stroke: #000000; stroke-width: 0.8"/>
      </g>
     </g>
     <g id="text_18">
      <!-- 0.8 -->
      <g transform="translate(34.696875 74.118683) scale(0.1 -0.1)">
       <use xlink:href="#DejaVuSans-30"/>
       <use xlink:href="#DejaVuSans-2e" x="63.623047"/>
       <use xlink:href="#DejaVuSans-38" x="95.410156"/>
      </g>
     </g>
    </g>
   </g>
   <g id="line2d_18">
    <path d="M 73.832727 263.359888 
L 76.011617 202.565974 
L 78.190506 178.824635 
L 80.369396 189.554507 
L 82.548286 224.215667 
L 84.727175 213.739438 
L 86.906065 161.137489 
L 89.084954 162.856364 
L 93.442733 146.634521 
L 95.621623 141.396373 
L 97.800513 147.667852 
L 99.979402 152.077568 
L 102.158292 137.654274 
L 104.337181 131.775402 
L 106.516071 119.926351 
L 108.69496 116.113545 
L 110.87385 123.074249 
L 113.052739 132.843683 
L 115.231629 125.774933 
L 117.410519 124.231183 
L 119.589408 125.966096 
L 121.768298 133.438461 
L 123.947187 126.802335 
L 126.126077 112.55483 
L 128.304966 128.363273 
L 130.483856 126.281779 
L 132.662746 131.402974 
L 134.841635 115.284635 
L 137.020525 123.666247 
L 139.199414 114.302104 
L 141.378304 126.310965 
L 143.557193 132.319053 
L 145.736083 104.123086 
L 147.914973 113.640415 
L 150.093862 111.568701 
L 152.272752 115.175588 
L 154.451641 111.009795 
L 156.630531 128.383644 
L 158.80942 124.61631 
L 160.98831 125.940962 
L 163.1672 125.811878 
L 165.346089 104.077522 
L 167.524979 118.320173 
L 169.703868 113.396376 
L 171.882758 133.45919 
L 174.061647 102.859698 
L 176.240537 117.791004 
L 178.419426 120.152425 
L 180.598316 136.719407 
L 182.777206 128.641067 
L 184.956095 114.725076 
L 187.134985 104.931291 
L 189.313874 111.521909 
L 193.671653 116.629195 
L 195.850543 110.790663 
L 198.029433 132.06911 
L 200.208322 120.455355 
L 202.387212 107.883266 
L 204.566101 120.910136 
L 206.744991 124.238462 
L 208.92388 128.517951 
L 211.10277 123.581317 
L 213.28166 106.02504 
L 215.460549 133.356674 
L 217.639439 133.000575 
L 219.818328 122.986986 
L 221.997218 110.564381 
L 224.176107 123.723592 
L 226.354997 124.612766 
L 228.533887 130.497374 
L 230.712776 111.696749 
L 232.891666 102.412843 
L 235.070555 115.990472 
L 237.249445 104.2871 
L 239.428334 111.744505 
L 241.607224 107.575476 
L 243.786113 130.243051 
L 245.965003 119.962799 
L 248.143893 121.161078 
L 250.322782 121.750735 
L 252.501672 110.460301 
L 254.680561 120.754718 
L 256.859451 127.454737 
L 259.03834 116.855104 
L 261.21723 117.160153 
L 263.39612 123.770003 
L 265.575009 108.195058 
L 267.753899 107.458607 
L 269.932788 121.917293 
L 272.111678 104.339119 
L 274.290567 110.39588 
L 276.469457 120.974108 
L 278.648347 115.853274 
L 280.827236 110.377851 
L 283.006126 113.536447 
L 285.185015 116.907193 
L 287.363905 119.407426 
L 289.542794 114.6386 
L 291.721684 126.226094 
L 293.900574 104.157335 
L 296.079463 109.526312 
L 298.258353 118.703672 
L 300.437242 124.000325 
L 302.616132 128.712365 
L 304.795021 121.718396 
L 306.973911 121.137924 
L 309.1528 113.236782 
L 311.33169 121.565395 
L 313.51058 115.164627 
L 315.689469 108.416132 
L 317.868359 106.999759 
L 320.047248 116.456517 
L 322.226138 129.360976 
L 324.405027 121.517378 
L 326.583917 108.531631 
L 328.762807 117.632356 
L 330.941696 125.880927 
L 333.120586 110.01405 
L 335.299475 136.105692 
L 337.478365 122.156146 
L 339.657254 119.288033 
L 341.836144 103.189011 
L 344.015034 95.926302 
L 346.193923 120.827657 
L 348.372813 124.905176 
L 350.551702 116.365554 
L 352.730592 119.510567 
L 354.909481 119.393578 
L 357.088371 116.085065 
L 359.267261 123.400396 
L 361.44615 112.594573 
L 363.62504 123.127548 
L 365.803929 102.384478 
L 370.161708 124.483432 
L 372.340598 128.226646 
L 374.519487 107.230061 
L 376.698377 124.891262 
L 381.056156 116.580038 
L 383.235046 128.26131 
L 385.413935 121.763592 
L 387.592825 118.246947 
L 389.771714 109.087082 
L 391.950604 117.314362 
L 394.129494 113.360848 
L 396.308383 118.488319 
L 398.487273 110.545619 
L 398.487273 110.545619 
" clip-path="url(#p8dd2716431)" style="fill: none; stroke: #1f77b4; stroke-linecap: square"/>
   </g>
   <g id="line2d_19">
    <path d="M 73.832727 227.936286 
L 76.011617 227.96266 
L 78.190506 278.58566 
L 80.369396 288.24102 
L 82.548286 227.952954 
L 84.727175 220.804579 
L 86.906065 227.761773 
L 89.084954 202.195582 
L 91.263844 216.973256 
L 93.442733 211.282524 
L 95.621623 215.369211 
L 97.800513 215.752859 
L 99.979402 190.466545 
L 102.158292 189.642176 
L 104.337181 192.38606 
L 106.516071 194.826133 
L 108.69496 195.805454 
L 110.87385 206.083738 
L 113.052739 214.265853 
L 115.231629 220.239551 
L 117.410519 197.208276 
L 119.589408 192.537828 
L 121.768298 187.469851 
L 123.947187 195.219755 
L 126.126077 180.22687 
L 128.304966 182.271918 
L 130.483856 202.201186 
L 132.662746 207.063788 
L 134.841635 186.327568 
L 139.199414 177.195091 
L 143.557193 199.091389 
L 145.736083 176.088345 
L 147.914973 204.08225 
L 150.093862 179.219224 
L 152.272752 194.780636 
L 154.451641 184.934223 
L 156.630531 191.263551 
L 158.80942 207.139541 
L 160.98831 190.562164 
L 163.1672 185.896335 
L 165.346089 166.158865 
L 167.524979 174.577829 
L 169.703868 187.196613 
L 171.882758 191.392111 
L 174.061647 180.067223 
L 176.240537 166.733769 
L 178.419426 190.199902 
L 180.598316 180.939437 
L 182.777206 188.437545 
L 184.956095 184.260709 
L 187.134985 189.189705 
L 191.492764 174.437788 
L 193.671653 162.329281 
L 195.850543 174.556499 
L 198.029433 189.043714 
L 200.208322 164.320769 
L 202.387212 189.128038 
L 204.566101 184.458965 
L 206.744991 169.240868 
L 208.92388 176.61537 
L 211.10277 190.814187 
L 213.28166 186.948251 
L 215.460549 185.484061 
L 217.639439 172.378257 
L 219.818328 178.526945 
L 221.997218 173.351155 
L 224.176107 186.469579 
L 226.354997 172.538429 
L 228.533887 188.208628 
L 230.712776 183.159652 
L 232.891666 161.840436 
L 235.070555 192.434927 
L 237.249445 172.932072 
L 239.428334 202.337453 
L 241.607224 175.468325 
L 243.786113 187.451123 
L 245.965003 178.992805 
L 248.143893 185.626263 
L 250.322782 186.536905 
L 252.501672 171.386087 
L 254.680561 174.464657 
L 256.859451 185.650199 
L 259.03834 177.260763 
L 261.21723 185.246814 
L 263.39612 160.876318 
L 265.575009 172.667802 
L 267.753899 164.224692 
L 269.932788 177.274109 
L 272.111678 182.835654 
L 274.290567 179.395278 
L 276.469457 188.760247 
L 278.648347 167.723596 
L 280.827236 200.68787 
L 283.006126 178.076409 
L 285.185015 174.306948 
L 287.363905 172.765712 
L 289.542794 169.879343 
L 291.721684 182.384386 
L 293.900574 174.583843 
L 296.079463 181.574108 
L 298.258353 187.101894 
L 300.437242 170.756513 
L 302.616132 187.667956 
L 304.795021 184.229895 
L 306.973911 183.690772 
L 309.1528 172.915529 
L 311.33169 189.205516 
L 313.51058 182.286542 
L 315.689469 192.79046 
L 317.868359 177.74658 
L 320.047248 175.039422 
L 322.226138 177.134169 
L 324.405027 178.244874 
L 326.583917 183.461722 
L 328.762807 181.522316 
L 330.941696 169.810507 
L 333.120586 177.628097 
L 335.299475 181.869916 
L 337.478365 178.339668 
L 339.657254 175.467347 
L 341.836144 181.978315 
L 344.015034 191.666164 
L 346.193923 179.311337 
L 348.372813 173.887708 
L 350.551702 190.534285 
L 352.730592 186.824013 
L 354.909481 178.034172 
L 357.088371 174.243902 
L 359.267261 178.458406 
L 361.44615 177.368815 
L 363.62504 174.143657 
L 365.803929 171.302645 
L 367.982819 173.887084 
L 370.161708 176.135587 
L 372.340598 190.973256 
L 374.519487 170.890361 
L 376.698377 176.977637 
L 378.877267 175.313268 
L 381.056156 193.930644 
L 383.235046 183.449807 
L 385.413935 181.964751 
L 387.592825 182.736959 
L 389.771714 179.30896 
L 391.950604 183.073269 
L 394.129494 182.219394 
L 396.308383 170.280548 
L 398.487273 193.551918 
L 398.487273 193.551918 
" clip-path="url(#p8dd2716431)" style="fill: none; stroke: #ff7f0e; stroke-linecap: square"/>
   </g>
   <g id="line2d_20">
    <path d="M 73.832727 220.761738 
L 76.011617 228.734374 
L 78.190506 228.707043 
L 80.369396 228.182304 
L 82.548286 228.865253 
L 84.727175 228.230191 
L 86.906065 228.029884 
L 89.084954 228.743143 
L 91.263844 180.970696 
L 93.442733 181.20783 
L 95.621623 175.106181 
L 97.800513 264.211031 
L 99.979402 202.452596 
L 102.158292 174.391052 
L 104.337181 168.956491 
L 106.516071 174.5337 
L 108.69496 171.676194 
L 110.87385 174.046755 
L 113.052739 165.692834 
L 115.231629 235.881511 
L 117.410519 168.856306 
L 119.589408 166.228082 
L 121.768298 211.571789 
L 123.947187 202.785141 
L 126.126077 161.304242 
L 128.304966 163.633934 
L 130.483856 154.629033 
L 132.662746 168.733432 
L 134.841635 152.504572 
L 137.020525 148.416076 
L 139.199414 153.110465 
L 141.378304 146.782355 
L 145.736083 158.324206 
L 147.914973 150.958991 
L 150.093862 226.722809 
L 152.272752 203.126047 
L 154.451641 140.503347 
L 156.630531 143.807279 
L 158.80942 141.456987 
L 160.98831 143.576804 
L 163.1672 158.122363 
L 165.346089 149.822543 
L 167.524979 138.190542 
L 169.703868 141.165438 
L 171.882758 138.760303 
L 174.061647 136.802818 
L 176.240537 160.920371 
L 178.419426 150.458964 
L 180.598316 142.537927 
L 182.777206 146.772443 
L 184.956095 199.857669 
L 187.134985 147.328032 
L 189.313874 137.886617 
L 191.492764 140.517991 
L 193.671653 140.667564 
L 195.850543 145.76892 
L 198.029433 124.299454 
L 200.208322 155.676513 
L 202.387212 130.823798 
L 204.566101 127.630071 
L 206.744991 124.966576 
L 208.92388 141.206673 
L 211.10277 161.656233 
L 213.28166 134.718415 
L 215.460549 139.316669 
L 217.639439 142.118177 
L 219.818328 133.904099 
L 221.997218 151.22877 
L 224.176107 123.263857 
L 226.354997 139.426053 
L 228.533887 128.679617 
L 230.712776 133.340265 
L 232.891666 133.462 
L 235.070555 167.57998 
L 237.249445 124.330748 
L 239.428334 129.469796 
L 241.607224 124.724067 
L 243.786113 122.879158 
L 245.965003 131.266398 
L 248.143893 159.078394 
L 250.322782 128.325274 
L 252.501672 114.467622 
L 254.680561 143.106415 
L 256.859451 127.057264 
L 259.03834 124.213272 
L 261.21723 138.228695 
L 263.39612 127.86498 
L 265.575009 127.181139 
L 267.753899 127.333361 
L 269.932788 131.37947 
L 272.111678 122.001364 
L 274.290567 120.874558 
L 276.469457 136.250836 
L 278.648347 119.600025 
L 280.827236 135.909703 
L 283.006126 127.818342 
L 285.185015 121.987923 
L 287.363905 119.136937 
L 289.542794 119.695953 
L 291.721684 115.537022 
L 293.900574 120.505431 
L 296.079463 120.805749 
L 298.258353 122.382996 
L 300.437242 115.510487 
L 302.616132 123.438458 
L 304.795021 121.873173 
L 306.973911 118.702636 
L 309.1528 132.655953 
L 311.33169 133.959016 
L 313.51058 132.874027 
L 315.689469 127.664556 
L 317.868359 113.542767 
L 320.047248 120.02574 
L 322.226138 136.842164 
L 324.405027 119.249231 
L 326.583917 115.070402 
L 328.762807 126.958703 
L 330.941696 118.128107 
L 333.120586 122.84229 
L 335.299475 118.707858 
L 337.478365 113.696561 
L 339.657254 119.787086 
L 341.836144 147.833819 
L 344.015034 117.681083 
L 346.193923 145.536479 
L 348.372813 119.722892 
L 350.551702 128.889624 
L 352.730592 125.775412 
L 354.909481 124.058442 
L 357.088371 132.707954 
L 359.267261 134.424791 
L 361.44615 111.073984 
L 363.62504 132.479444 
L 365.803929 124.843966 
L 367.982819 134.854866 
L 370.161708 124.509889 
L 372.340598 137.183874 
L 374.519487 128.315482 
L 376.698377 121.296798 
L 378.877267 120.138606 
L 381.056156 113.429408 
L 383.235046 113.99274 
L 385.413935 117.967686 
L 387.592825 133.525344 
L 389.771714 127.298653 
L 391.950604 118.426254 
L 394.129494 136.070094 
L 396.308383 122.368289 
L 398.487273 124.026572 
L 398.487273 124.026572 
" clip-path="url(#p8dd2716431)" style="fill: none; stroke: #2ca02c; stroke-linecap: square"/>
   </g>
   <g id="line2d_21">
    <path d="M 73.832727 227.784646 
L 78.190506 227.818336 
L 80.369396 204.280751 
L 82.548286 227.808649 
L 84.727175 174.186758 
L 86.906065 188.194739 
L 89.084954 227.312018 
L 91.263844 214.876335 
L 93.442733 227.771968 
L 95.621623 227.728602 
L 97.800513 208.880698 
L 99.979402 177.687796 
L 102.158292 168.25559 
L 104.337181 177.575425 
L 106.516071 162.180996 
L 108.69496 215.884671 
L 110.87385 171.256414 
L 113.052739 149.658839 
L 115.231629 160.729904 
L 117.410519 145.95315 
L 119.589408 140.139224 
L 121.768298 145.653284 
L 123.947187 190.675723 
L 126.126077 143.56188 
L 128.304966 166.896524 
L 130.483856 140.842023 
L 132.662746 141.158563 
L 134.841635 141.32393 
L 137.020525 131.723753 
L 139.199414 147.008162 
L 141.378304 123.556933 
L 143.557193 140.662285 
L 145.736083 167.484061 
L 147.914973 143.323653 
L 150.093862 141.701267 
L 152.272752 141.625287 
L 154.451641 134.869346 
L 156.630531 127.185045 
L 158.80942 136.196982 
L 160.98831 130.583885 
L 163.1672 116.865225 
L 165.346089 114.092796 
L 167.524979 132.521254 
L 169.703868 140.598172 
L 171.882758 133.981913 
L 174.061647 122.328067 
L 176.240537 126.804199 
L 178.419426 120.302703 
L 180.598316 125.717971 
L 182.777206 115.26578 
L 184.956095 132.764012 
L 187.134985 127.421037 
L 189.313874 133.380405 
L 191.492764 152.555206 
L 193.671653 116.093066 
L 195.850543 102.21676 
L 200.208322 149.852811 
L 202.387212 120.842611 
L 204.566101 149.421067 
L 206.744991 108.165297 
L 208.92388 109.426971 
L 211.10277 112.139979 
L 213.28166 118.668591 
L 215.460549 123.428615 
L 217.639439 101.021637 
L 219.818328 108.344939 
L 221.997218 126.320805 
L 224.176107 133.726131 
L 226.354997 101.362577 
L 228.533887 112.417418 
L 230.712776 121.270003 
L 232.891666 112.046943 
L 235.070555 121.885243 
L 237.249445 105.279792 
L 239.428334 103.431664 
L 241.607224 111.454037 
L 243.786113 96.358366 
L 245.965003 112.778451 
L 248.143893 108.843143 
L 250.322782 128.28513 
L 252.501672 128.278439 
L 254.680561 101.010435 
L 256.859451 106.209204 
L 259.03834 111.920372 
L 261.21723 120.517507 
L 263.39612 108.91695 
L 265.575009 148.629556 
L 267.753899 97.461695 
L 269.932788 103.110134 
L 272.111678 98.483648 
L 274.290567 100.142616 
L 276.469457 120.583276 
L 278.648347 109.82516 
L 280.827236 109.783617 
L 283.006126 113.21746 
L 285.185015 106.680279 
L 287.363905 97.819614 
L 289.542794 106.812365 
L 291.721684 109.983696 
L 293.900574 103.752077 
L 296.079463 106.088931 
L 298.258353 107.344125 
L 300.437242 113.078971 
L 302.616132 105.865015 
L 304.795021 111.217855 
L 306.973911 99.302873 
L 309.1528 122.630497 
L 311.33169 110.479362 
L 313.51058 96.876755 
L 315.689469 98.874177 
L 317.868359 139.369971 
L 320.047248 116.162564 
L 322.226138 114.809691 
L 324.405027 107.679333 
L 326.583917 109.62676 
L 328.762807 103.548991 
L 330.941696 123.502283 
L 333.120586 109.189973 
L 335.299475 114.552747 
L 337.478365 100.400703 
L 339.657254 97.092425 
L 341.836144 114.238305 
L 344.015034 116.188586 
L 346.193923 106.825557 
L 348.372813 106.325046 
L 350.551702 94.059762 
L 352.730592 92.120452 
L 354.909481 125.032141 
L 357.088371 104.224007 
L 359.267261 104.950951 
L 361.44615 102.861074 
L 363.62504 103.75307 
L 365.803929 98.398773 
L 367.982819 95.170886 
L 370.161708 111.47441 
L 372.340598 97.162885 
L 374.519487 92.349408 
L 376.698377 98.079807 
L 378.877267 104.724551 
L 381.056156 97.189684 
L 383.235046 118.129176 
L 387.592825 98.575888 
L 389.771714 110.203977 
L 391.950604 117.65161 
L 394.129494 99.750851 
L 396.308383 123.186287 
L 398.487273 104.506439 
L 398.487273 104.506439 
" clip-path="url(#p8dd2716431)" style="fill: none; stroke: #d62728; stroke-linecap: square"/>
   </g>
   <g id="patch_3">
    <path d="M 57.6 307.584 
L 57.6 41.472 
" style="fill: none; stroke: #000000; stroke-width: 0.8; stroke-linejoin: miter; stroke-linecap: square"/>
   </g>
   <g id="patch_4">
    <path d="M 414.72 307.584 
L 414.72 41.472 
" style="fill: none; stroke: #000000; stroke-width: 0.8; stroke-linejoin: miter; stroke-linecap: square"/>
   </g>
   <g id="patch_5">
    <path d="M 57.6 307.584 
L 414.72 307.584 
" style="fill: none; stroke: #000000; stroke-width: 0.8; stroke-linejoin: miter; stroke-linecap: square"/>
   </g>
   <g id="patch_6">
    <path d="M 57.6 41.472 
L 414.72 41.472 
" style="fill: none; stroke: #000000; stroke-width: 0.8; stroke-linejoin: miter; stroke-linecap: square"/>
   </g>
   <g id="text_19">
    <!-- F1 score of POD -->
    <g transform="translate(188.307187 35.472) scale(0.12 -0.12)">
     <defs>
      <path id="DejaVuSans-46" d="M 628 4666 
L 3309 4666 
L 3309 4134 
L 1259 4134 
L 1259 2759 
L 3109 2759 
L 3109 2228 
L 1259 2228 
L 1259 0 
L 628 0 
L 628 4666 
z
" transform="scale(0.015625)"/>
      <path id="DejaVuSans-20" transform="scale(0.015625)"/>
      <path id="DejaVuSans-73" d="M 2834 3397 
L 2834 2853 
Q 2591 2978 2328 3040 
Q 2066 3103 1784 3103 
Q 1356 3103 1142 2972 
Q 928 2841 928 2578 
Q 928 2378 1081 2264 
Q 1234 2150 1697 2047 
L 1894 2003 
Q 2506 1872 2764 1633 
Q 3022 1394 3022 966 
Q 3022 478 2636 193 
Q 2250 -91 1575 -91 
Q 1294 -91 989 -36 
Q 684 19 347 128 
L 347 722 
Q 666 556 975 473 
Q 1284 391 1588 391 
Q 1994 391 2212 530 
Q 2431 669 2431 922 
Q 2431 1156 2273 1281 
Q 2116 1406 1581 1522 
L 1381 1569 
Q 847 1681 609 1914 
Q 372 2147 372 2553 
Q 372 3047 722 3315 
Q 1072 3584 1716 3584 
Q 2034 3584 2315 3537 
Q 2597 3491 2834 3397 
z
" transform="scale(0.015625)"/>
      <path id="DejaVuSans-72" d="M 2631 2963 
Q 2534 3019 2420 3045 
Q 2306 3072 2169 3072 
Q 1681 3072 1420 2755 
Q 1159 2438 1159 1844 
L 1159 0 
L 581 0 
L 581 3500 
L 1159 3500 
L 1159 2956 
Q 1341 3275 1631 3429 
Q 1922 3584 2338 3584 
Q 2397 3584 2469 3576 
Q 2541 3569 2628 3553 
L 2631 2963 
z
" transform="scale(0.015625)"/>
      <path id="DejaVuSans-66" d="M 2375 4863 
L 2375 4384 
L 1825 4384 
Q 1516 4384 1395 4259 
Q 1275 4134 1275 3809 
L 1275 3500 
L 2222 3500 
L 2222 3053 
L 1275 3053 
L 1275 0 
L 697 0 
L 697 3053 
L 147 3053 
L 147 3500 
L 697 3500 
L 697 3744 
Q 697 4328 969 4595 
Q 1241 4863 1831 4863 
L 2375 4863 
z
" transform="scale(0.015625)"/>
      <path id="DejaVuSans-50" d="M 1259 4147 
L 1259 2394 
L 2053 2394 
Q 2494 2394 2734 2622 
Q 2975 2850 2975 3272 
Q 2975 3691 2734 3919 
Q 2494 4147 2053 4147 
L 1259 4147 
z
M 628 4666 
L 2053 4666 
Q 2838 4666 3239 4311 
Q 3641 3956 3641 3272 
Q 3641 2581 3239 2228 
Q 2838 1875 2053 1875 
L 1259 1875 
L 1259 0 
L 628 0 
L 628 4666 
z
" transform="scale(0.015625)"/>
      <path id="DejaVuSans-4f" d="M 2522 4238 
Q 1834 4238 1429 3725 
Q 1025 3213 1025 2328 
Q 1025 1447 1429 934 
Q 1834 422 2522 422 
Q 3209 422 3611 934 
Q 4013 1447 4013 2328 
Q 4013 3213 3611 3725 
Q 3209 4238 2522 4238 
z
M 2522 4750 
Q 3503 4750 4090 4092 
Q 4678 3434 4678 2328 
Q 4678 1225 4090 567 
Q 3503 -91 2522 -91 
Q 1538 -91 948 565 
Q 359 1222 359 2328 
Q 359 3434 948 4092 
Q 1538 4750 2522 4750 
z
" transform="scale(0.015625)"/>
      <path id="DejaVuSans-44" d="M 1259 4147 
L 1259 519 
L 2022 519 
Q 2988 519 3436 956 
Q 3884 1394 3884 2338 
Q 3884 3275 3436 3711 
Q 2988 4147 2022 4147 
L 1259 4147 
z
M 628 4666 
L 1925 4666 
Q 3281 4666 3915 4102 
Q 4550 3538 4550 2338 
Q 4550 1131 3912 565 
Q 3275 0 1925 0 
L 628 0 
L 628 4666 
z
" transform="scale(0.015625)"/>
     </defs>
     <use xlink:href="#DejaVuSans-46"/>
     <use xlink:href="#DejaVuSans-31" x="57.519531"/>
     <use xlink:href="#DejaVuSans-20" x="121.142578"/>
     <use xlink:href="#DejaVuSans-73" x="152.929688"/>
     <use xlink:href="#DejaVuSans-63" x="205.029297"/>
     <use xlink:href="#DejaVuSans-6f" x="260.009766"/>
     <use xlink:href="#DejaVuSans-72" x="321.191406"/>
     <use xlink:href="#DejaVuSans-65" x="360.054688"/>
     <use xlink:href="#DejaVuSans-20" x="421.578125"/>
     <use xlink:href="#DejaVuSans-6f" x="453.365234"/>
     <use xlink:href="#DejaVuSans-66" x="514.546875"/>
     <use xlink:href="#DejaVuSans-20" x="549.751953"/>
     <use xlink:href="#DejaVuSans-50" x="581.539062"/>
     <use xlink:href="#DejaVuSans-4f" x="641.841797"/>
     <use xlink:href="#DejaVuSans-44" x="720.552734"/>
    </g>
   </g>
   <g id="legend_1">
    <g id="patch_7">
     <path d="M 299.162188 302.584 
L 407.72 302.584 
Q 409.72 302.584 409.72 300.584 
L 409.72 242.8715 
Q 409.72 240.8715 407.72 240.8715 
L 299.162188 240.8715 
Q 297.162188 240.8715 297.162188 242.8715 
L 297.162188 300.584 
Q 297.162188 302.584 299.162188 302.584 
z
" style="fill: #ffffff; opacity: 0.8; stroke: #cccccc; stroke-linejoin: miter"/>
    </g>
    <g id="line2d_22">
     <path d="M 301.162188 248.969937 
L 311.162188 248.969937 
L 321.162188 248.969937 
" style="fill: none; stroke: #1f77b4; stroke-linecap: square"/>
    </g>
    <g id="text_20">
     <!-- 2000 samples -->
     <g transform="translate(329.162188 252.469937) scale(0.1 -0.1)">
      <defs>
       <path id="DejaVuSans-61" d="M 2194 1759 
Q 1497 1759 1228 1600 
Q 959 1441 959 1056 
Q 959 750 1161 570 
Q 1363 391 1709 391 
Q 2188 391 2477 730 
Q 2766 1069 2766 1631 
L 2766 1759 
L 2194 1759 
z
M 3341 1997 
L 3341 0 
L 2766 0 
L 2766 531 
Q 2569 213 2275 61 
Q 1981 -91 1556 -91 
Q 1019 -91 701 211 
Q 384 513 384 1019 
Q 384 1609 779 1909 
Q 1175 2209 1959 2209 
L 2766 2209 
L 2766 2266 
Q 2766 2663 2505 2880 
Q 2244 3097 1772 3097 
Q 1472 3097 1187 3025 
Q 903 2953 641 2809 
L 641 3341 
Q 956 3463 1253 3523 
Q 1550 3584 1831 3584 
Q 2591 3584 2966 3190 
Q 3341 2797 3341 1997 
z
" transform="scale(0.015625)"/>
       <path id="DejaVuSans-6d" d="M 3328 2828 
Q 3544 3216 3844 3400 
Q 4144 3584 4550 3584 
Q 5097 3584 5394 3201 
Q 5691 2819 5691 2113 
L 5691 0 
L 5113 0 
L 5113 2094 
Q 5113 2597 4934 2840 
Q 4756 3084 4391 3084 
Q 3944 3084 3684 2787 
Q 3425 2491 3425 1978 
L 3425 0 
L 2847 0 
L 2847 2094 
Q 2847 2600 2669 2842 
Q 2491 3084 2119 3084 
Q 1678 3084 1418 2786 
Q 1159 2488 1159 1978 
L 1159 0 
L 581 0 
L 581 3500 
L 1159 3500 
L 1159 2956 
Q 1356 3278 1631 3431 
Q 1906 3584 2284 3584 
Q 2666 3584 2933 3390 
Q 3200 3197 3328 2828 
z
" transform="scale(0.015625)"/>
       <path id="DejaVuSans-6c" d="M 603 4863 
L 1178 4863 
L 1178 0 
L 603 0 
L 603 4863 
z
" transform="scale(0.015625)"/>
      </defs>
      <use xlink:href="#DejaVuSans-32"/>
      <use xlink:href="#DejaVuSans-30" x="63.623047"/>
      <use xlink:href="#DejaVuSans-30" x="127.246094"/>
      <use xlink:href="#DejaVuSans-30" x="190.869141"/>
      <use xlink:href="#DejaVuSans-20" x="254.492188"/>
      <use xlink:href="#DejaVuSans-73" x="286.279297"/>
      <use xlink:href="#DejaVuSans-61" x="338.378906"/>
      <use xlink:href="#DejaVuSans-6d" x="399.658203"/>
      <use xlink:href="#DejaVuSans-70" x="497.070312"/>
      <use xlink:href="#DejaVuSans-6c" x="560.546875"/>
      <use xlink:href="#DejaVuSans-65" x="588.330078"/>
      <use xlink:href="#DejaVuSans-73" x="649.853516"/>
     </g>
    </g>
    <g id="line2d_23">
     <path d="M 301.162188 263.648062 
L 311.162188 263.648062 
L 321.162188 263.648062 
" style="fill: none; stroke: #ff7f0e; stroke-linecap: square"/>
    </g>
    <g id="text_21">
     <!-- 5000 samples -->
     <g transform="translate(329.162188 267.148062) scale(0.1 -0.1)">
      <use xlink:href="#DejaVuSans-35"/>
      <use xlink:href="#DejaVuSans-30" x="63.623047"/>
      <use xlink:href="#DejaVuSans-30" x="127.246094"/>
      <use xlink:href="#DejaVuSans-30" x="190.869141"/>
      <use xlink:href="#DejaVuSans-20" x="254.492188"/>
      <use xlink:href="#DejaVuSans-73" x="286.279297"/>
      <use xlink:href="#DejaVuSans-61" x="338.378906"/>
      <use xlink:href="#DejaVuSans-6d" x="399.658203"/>
      <use xlink:href="#DejaVuSans-70" x="497.070312"/>
      <use xlink:href="#DejaVuSans-6c" x="560.546875"/>
      <use xlink:href="#DejaVuSans-65" x="588.330078"/>
      <use xlink:href="#DejaVuSans-73" x="649.853516"/>
     </g>
    </g>
    <g id="line2d_24">
     <path d="M 301.162188 278.326187 
L 311.162188 278.326187 
L 321.162188 278.326187 
" style="fill: none; stroke: #2ca02c; stroke-linecap: square"/>
    </g>
    <g id="text_22">
     <!-- 8000 samples -->
     <g transform="translate(329.162188 281.826187) scale(0.1 -0.1)">
      <use xlink:href="#DejaVuSans-38"/>
      <use xlink:href="#DejaVuSans-30" x="63.623047"/>
      <use xlink:href="#DejaVuSans-30" x="127.246094"/>
      <use xlink:href="#DejaVuSans-30" x="190.869141"/>
      <use xlink:href="#DejaVuSans-20" x="254.492188"/>
      <use xlink:href="#DejaVuSans-73" x="286.279297"/>
      <use xlink:href="#DejaVuSans-61" x="338.378906"/>
      <use xlink:href="#DejaVuSans-6d" x="399.658203"/>
      <use xlink:href="#DejaVuSans-70" x="497.070312"/>
      <use xlink:href="#DejaVuSans-6c" x="560.546875"/>
      <use xlink:href="#DejaVuSans-65" x="588.330078"/>
      <use xlink:href="#DejaVuSans-73" x="649.853516"/>
     </g>
    </g>
    <g id="line2d_25">
     <path d="M 301.162188 293.004312 
L 311.162188 293.004312 
L 321.162188 293.004312 
" style="fill: none; stroke: #d62728; stroke-linecap: square"/>
    </g>
    <g id="text_23">
     <!-- 10000 samples -->
     <g transform="translate(329.162188 296.504312) scale(0.1 -0.1)">
      <use xlink:href="#DejaVuSans-31"/>
      <use xlink:href="#DejaVuSans-30" x="63.623047"/>
      <use xlink:href="#DejaVuSans-30" x="127.246094"/>
      <use xlink:href="#DejaVuSans-30" x="190.869141"/>
      <use xlink:href="#DejaVuSans-30" x="254.492188"/>
      <use xlink:href="#DejaVuSans-20" x="318.115234"/>
      <use xlink:href="#DejaVuSans-73" x="349.902344"/>
      <use xlink:href="#DejaVuSans-61" x="402.001953"/>
      <use xlink:href="#DejaVuSans-6d" x="463.28125"/>
      <use xlink:href="#DejaVuSans-70" x="560.693359"/>
      <use xlink:href="#DejaVuSans-6c" x="624.169922"/>
      <use xlink:href="#DejaVuSans-65" x="651.953125"/>
      <use xlink:href="#DejaVuSans-73" x="713.476562"/>
     </g>
    </g>
   </g>
  </g>
 </g>
 <defs>
  <clipPath id="p8dd2716431">
   <rect x="57.6" y="41.472" width="357.12" height="266.112"/>
  </clipPath>
 </defs>
</svg>
