<?xml version="1.0" encoding="utf-8" standalone="no"?>
<!DOCTYPE svg PUBLIC "-//W3C//DTD SVG 1.1//EN"
  "http://www.w3.org/Graphics/SVG/1.1/DTD/svg11.dtd">
<svg xmlns:xlink="http://www.w3.org/1999/xlink" width="460.8pt" height="345.6pt" viewBox="0 0 460.8 345.6" xmlns="http://www.w3.org/2000/svg" version="1.1">
 <metadata>
  <rdf:RDF xmlns:dc="http://purl.org/dc/elements/1.1/" xmlns:cc="http://creativecommons.org/ns#" xmlns:rdf="http://www.w3.org/1999/02/22-rdf-syntax-ns#">
   <cc:Work>
    <dc:type rdf:resource="http://purl.org/dc/dcmitype/StillImage"/>
    <dc:date>2023-09-13T16:28:03.975568</dc:date>
    <dc:format>image/svg+xml</dc:format>
    <dc:creator>
     <cc:Agent>
      <dc:title>Matplotlib v3.7.1, https://matplotlib.org/</dc:title>
     </cc:Agent>
    </dc:creator>
   </cc:Work>
  </rdf:RDF>
 </metadata>
 <defs>
  <style type="text/css">*{stroke-linejoin: round; stroke-linecap: butt}</style>
 </defs>
 <g id="figure_1">
  <g id="patch_1">
   <path d="M 0 345.6 
L 460.8 345.6 
L 460.8 0 
L 0 0 
z
" style="fill: #ffffff"/>
  </g>
  <g id="axes_1">
   <g id="patch_2">
    <path d="M 57.6 307.584 
L 414.72 307.584 
L 414.72 41.472 
L 57.6 41.472 
z
" style="fill: #ffffff"/>
   </g>
   <g id="matplotlib.axis_1">
    <g id="xtick_1">
     <g id="line2d_1">
      <defs>
       <path id="m77ae6294ad" d="M 0 0 
L 0 3.5 
" style="stroke: #000000; stroke-width: 0.8"/>
      </defs>
      <g>
       <use xlink:href="#m77ae6294ad" x="71.653838" y="307.584" style="stroke: #000000; stroke-width: 0.8"/>
      </g>
     </g>
     <g id="text_1">
      <!-- 0 -->
      <g transform="translate(68.472588 322.182437) scale(0.1 -0.1)">
       <defs>
        <path id="DejaVuSans-30" d="M 2034 4250 
Q 1547 4250 1301 3770 
Q 1056 3291 1056 2328 
Q 1056 1369 1301 889 
Q 1547 409 2034 409 
Q 2525 409 2770 889 
Q 3016 1369 3016 2328 
Q 3016 3291 2770 3770 
Q 2525 4250 2034 4250 
z
M 2034 4750 
Q 2819 4750 3233 4129 
Q 3647 3509 3647 2328 
Q 3647 1150 3233 529 
Q 2819 -91 2034 -91 
Q 1250 -91 836 529 
Q 422 1150 422 2328 
Q 422 3509 836 4129 
Q 1250 4750 2034 4750 
z
" transform="scale(0.015625)"/>
       </defs>
       <use xlink:href="#DejaVuSans-30"/>
      </g>
     </g>
    </g>
    <g id="xtick_2">
     <g id="line2d_2">
      <g>
       <use xlink:href="#m77ae6294ad" x="115.231629" y="307.584" style="stroke: #000000; stroke-width: 0.8"/>
      </g>
     </g>
     <g id="text_2">
      <!-- 20 -->
      <g transform="translate(108.869129 322.182437) scale(0.1 -0.1)">
       <defs>
        <path id="DejaVuSans-32" d="M 1228 531 
L 3431 531 
L 3431 0 
L 469 0 
L 469 531 
Q 828 903 1448 1529 
Q 2069 2156 2228 2338 
Q 2531 2678 2651 2914 
Q 2772 3150 2772 3378 
Q 2772 3750 2511 3984 
Q 2250 4219 1831 4219 
Q 1534 4219 1204 4116 
Q 875 4013 500 3803 
L 500 4441 
Q 881 4594 1212 4672 
Q 1544 4750 1819 4750 
Q 2544 4750 2975 4387 
Q 3406 4025 3406 3419 
Q 3406 3131 3298 2873 
Q 3191 2616 2906 2266 
Q 2828 2175 2409 1742 
Q 1991 1309 1228 531 
z
" transform="scale(0.015625)"/>
       </defs>
       <use xlink:href="#DejaVuSans-32"/>
       <use xlink:href="#DejaVuSans-30" x="63.623047"/>
      </g>
     </g>
    </g>
    <g id="xtick_3">
     <g id="line2d_3">
      <g>
       <use xlink:href="#m77ae6294ad" x="158.80942" y="307.584" style="stroke: #000000; stroke-width: 0.8"/>
      </g>
     </g>
     <g id="text_3">
      <!-- 40 -->
      <g transform="translate(152.44692 322.182437) scale(0.1 -0.1)">
       <defs>
        <path id="DejaVuSans-34" d="M 2419 4116 
L 825 1625 
L 2419 1625 
L 2419 4116 
z
M 2253 4666 
L 3047 4666 
L 3047 1625 
L 3713 1625 
L 3713 1100 
L 3047 1100 
L 3047 0 
L 2419 0 
L 2419 1100 
L 313 1100 
L 313 1709 
L 2253 4666 
z
" transform="scale(0.015625)"/>
       </defs>
       <use xlink:href="#DejaVuSans-34"/>
       <use xlink:href="#DejaVuSans-30" x="63.623047"/>
      </g>
     </g>
    </g>
    <g id="xtick_4">
     <g id="line2d_4">
      <g>
       <use xlink:href="#m77ae6294ad" x="202.387212" y="307.584" style="stroke: #000000; stroke-width: 0.8"/>
      </g>
     </g>
     <g id="text_4">
      <!-- 60 -->
      <g transform="translate(196.024712 322.182437) scale(0.1 -0.1)">
       <defs>
        <path id="DejaVuSans-36" d="M 2113 2584 
Q 1688 2584 1439 2293 
Q 1191 2003 1191 1497 
Q 1191 994 1439 701 
Q 1688 409 2113 409 
Q 2538 409 2786 701 
Q 3034 994 3034 1497 
Q 3034 2003 2786 2293 
Q 2538 2584 2113 2584 
z
M 3366 4563 
L 3366 3988 
Q 3128 4100 2886 4159 
Q 2644 4219 2406 4219 
Q 1781 4219 1451 3797 
Q 1122 3375 1075 2522 
Q 1259 2794 1537 2939 
Q 1816 3084 2150 3084 
Q 2853 3084 3261 2657 
Q 3669 2231 3669 1497 
Q 3669 778 3244 343 
Q 2819 -91 2113 -91 
Q 1303 -91 875 529 
Q 447 1150 447 2328 
Q 447 3434 972 4092 
Q 1497 4750 2381 4750 
Q 2619 4750 2861 4703 
Q 3103 4656 3366 4563 
z
" transform="scale(0.015625)"/>
       </defs>
       <use xlink:href="#DejaVuSans-36"/>
       <use xlink:href="#DejaVuSans-30" x="63.623047"/>
      </g>
     </g>
    </g>
    <g id="xtick_5">
     <g id="line2d_5">
      <g>
       <use xlink:href="#m77ae6294ad" x="245.965003" y="307.584" style="stroke: #000000; stroke-width: 0.8"/>
      </g>
     </g>
     <g id="text_5">
      <!-- 80 -->
      <g transform="translate(239.602503 322.182437) scale(0.1 -0.1)">
       <defs>
        <path id="DejaVuSans-38" d="M 2034 2216 
Q 1584 2216 1326 1975 
Q 1069 1734 1069 1313 
Q 1069 891 1326 650 
Q 1584 409 2034 409 
Q 2484 409 2743 651 
Q 3003 894 3003 1313 
Q 3003 1734 2745 1975 
Q 2488 2216 2034 2216 
z
M 1403 2484 
Q 997 2584 770 2862 
Q 544 3141 544 3541 
Q 544 4100 942 4425 
Q 1341 4750 2034 4750 
Q 2731 4750 3128 4425 
Q 3525 4100 3525 3541 
Q 3525 3141 3298 2862 
Q 3072 2584 2669 2484 
Q 3125 2378 3379 2068 
Q 3634 1759 3634 1313 
Q 3634 634 3220 271 
Q 2806 -91 2034 -91 
Q 1263 -91 848 271 
Q 434 634 434 1313 
Q 434 1759 690 2068 
Q 947 2378 1403 2484 
z
M 1172 3481 
Q 1172 3119 1398 2916 
Q 1625 2713 2034 2713 
Q 2441 2713 2670 2916 
Q 2900 3119 2900 3481 
Q 2900 3844 2670 4047 
Q 2441 4250 2034 4250 
Q 1625 4250 1398 4047 
Q 1172 3844 1172 3481 
z
" transform="scale(0.015625)"/>
       </defs>
       <use xlink:href="#DejaVuSans-38"/>
       <use xlink:href="#DejaVuSans-30" x="63.623047"/>
      </g>
     </g>
    </g>
    <g id="xtick_6">
     <g id="line2d_6">
      <g>
       <use xlink:href="#m77ae6294ad" x="289.542794" y="307.584" style="stroke: #000000; stroke-width: 0.8"/>
      </g>
     </g>
     <g id="text_6">
      <!-- 100 -->
      <g transform="translate(279.999044 322.182437) scale(0.1 -0.1)">
       <defs>
        <path id="DejaVuSans-31" d="M 794 531 
L 1825 531 
L 1825 4091 
L 703 3866 
L 703 4441 
L 1819 4666 
L 2450 4666 
L 2450 531 
L 3481 531 
L 3481 0 
L 794 0 
L 794 531 
z
" transform="scale(0.015625)"/>
       </defs>
       <use xlink:href="#DejaVuSans-31"/>
       <use xlink:href="#DejaVuSans-30" x="63.623047"/>
       <use xlink:href="#DejaVuSans-30" x="127.246094"/>
      </g>
     </g>
    </g>
    <g id="xtick_7">
     <g id="line2d_7">
      <g>
       <use xlink:href="#m77ae6294ad" x="333.120586" y="307.584" style="stroke: #000000; stroke-width: 0.8"/>
      </g>
     </g>
     <g id="text_7">
      <!-- 120 -->
      <g transform="translate(323.576836 322.182437) scale(0.1 -0.1)">
       <use xlink:href="#DejaVuSans-31"/>
       <use xlink:href="#DejaVuSans-32" x="63.623047"/>
       <use xlink:href="#DejaVuSans-30" x="127.246094"/>
      </g>
     </g>
    </g>
    <g id="xtick_8">
     <g id="line2d_8">
      <g>
       <use xlink:href="#m77ae6294ad" x="376.698377" y="307.584" style="stroke: #000000; stroke-width: 0.8"/>
      </g>
     </g>
     <g id="text_8">
      <!-- 140 -->
      <g transform="translate(367.154627 322.182437) scale(0.1 -0.1)">
       <use xlink:href="#DejaVuSans-31"/>
       <use xlink:href="#DejaVuSans-34" x="63.623047"/>
       <use xlink:href="#DejaVuSans-30" x="127.246094"/>
      </g>
     </g>
    </g>
    <g id="text_9">
     <!-- epoch -->
     <g transform="translate(220.931875 335.860562) scale(0.1 -0.1)">
      <defs>
       <path id="DejaVuSans-65" d="M 3597 1894 
L 3597 1613 
L 953 1613 
Q 991 1019 1311 708 
Q 1631 397 2203 397 
Q 2534 397 2845 478 
Q 3156 559 3463 722 
L 3463 178 
Q 3153 47 2828 -22 
Q 2503 -91 2169 -91 
Q 1331 -91 842 396 
Q 353 884 353 1716 
Q 353 2575 817 3079 
Q 1281 3584 2069 3584 
Q 2775 3584 3186 3129 
Q 3597 2675 3597 1894 
z
M 3022 2063 
Q 3016 2534 2758 2815 
Q 2500 3097 2075 3097 
Q 1594 3097 1305 2825 
Q 1016 2553 972 2059 
L 3022 2063 
z
" transform="scale(0.015625)"/>
       <path id="DejaVuSans-70" d="M 1159 525 
L 1159 -1331 
L 581 -1331 
L 581 3500 
L 1159 3500 
L 1159 2969 
Q 1341 3281 1617 3432 
Q 1894 3584 2278 3584 
Q 2916 3584 3314 3078 
Q 3713 2572 3713 1747 
Q 3713 922 3314 415 
Q 2916 -91 2278 -91 
Q 1894 -91 1617 61 
Q 1341 213 1159 525 
z
M 3116 1747 
Q 3116 2381 2855 2742 
Q 2594 3103 2138 3103 
Q 1681 3103 1420 2742 
Q 1159 2381 1159 1747 
Q 1159 1113 1420 752 
Q 1681 391 2138 391 
Q 2594 391 2855 752 
Q 3116 1113 3116 1747 
z
" transform="scale(0.015625)"/>
       <path id="DejaVuSans-6f" d="M 1959 3097 
Q 1497 3097 1228 2736 
Q 959 2375 959 1747 
Q 959 1119 1226 758 
Q 1494 397 1959 397 
Q 2419 397 2687 759 
Q 2956 1122 2956 1747 
Q 2956 2369 2687 2733 
Q 2419 3097 1959 3097 
z
M 1959 3584 
Q 2709 3584 3137 3096 
Q 3566 2609 3566 1747 
Q 3566 888 3137 398 
Q 2709 -91 1959 -91 
Q 1206 -91 779 398 
Q 353 888 353 1747 
Q 353 2609 779 3096 
Q 1206 3584 1959 3584 
z
" transform="scale(0.015625)"/>
       <path id="DejaVuSans-63" d="M 3122 3366 
L 3122 2828 
Q 2878 2963 2633 3030 
Q 2388 3097 2138 3097 
Q 1578 3097 1268 2742 
Q 959 2388 959 1747 
Q 959 1106 1268 751 
Q 1578 397 2138 397 
Q 2388 397 2633 464 
Q 2878 531 3122 666 
L 3122 134 
Q 2881 22 2623 -34 
Q 2366 -91 2075 -91 
Q 1284 -91 818 406 
Q 353 903 353 1747 
Q 353 2603 823 3093 
Q 1294 3584 2113 3584 
Q 2378 3584 2631 3529 
Q 2884 3475 3122 3366 
z
" transform="scale(0.015625)"/>
       <path id="DejaVuSans-68" d="M 3513 2113 
L 3513 0 
L 2938 0 
L 2938 2094 
Q 2938 2591 2744 2837 
Q 2550 3084 2163 3084 
Q 1697 3084 1428 2787 
Q 1159 2491 1159 1978 
L 1159 0 
L 581 0 
L 581 4863 
L 1159 4863 
L 1159 2956 
Q 1366 3272 1645 3428 
Q 1925 3584 2291 3584 
Q 2894 3584 3203 3211 
Q 3513 2838 3513 2113 
z
" transform="scale(0.015625)"/>
      </defs>
      <use xlink:href="#DejaVuSans-65"/>
      <use xlink:href="#DejaVuSans-70" x="61.523438"/>
      <use xlink:href="#DejaVuSans-6f" x="125"/>
      <use xlink:href="#DejaVuSans-63" x="186.181641"/>
      <use xlink:href="#DejaVuSans-68" x="241.162109"/>
     </g>
    </g>
   </g>
   <g id="matplotlib.axis_2">
    <g id="ytick_1">
     <g id="line2d_9">
      <defs>
       <path id="mf814369c9b" d="M 0 0 
L -3.5 0 
" style="stroke: #000000; stroke-width: 0.8"/>
      </defs>
      <g>
       <use xlink:href="#mf814369c9b" x="57.6" y="307.584" style="stroke: #000000; stroke-width: 0.8"/>
      </g>
     </g>
     <g id="text_10">
      <!-- 0.00 -->
      <g transform="translate(28.334375 311.383219) scale(0.1 -0.1)">
       <defs>
        <path id="DejaVuSans-2e" d="M 684 794 
L 1344 794 
L 1344 0 
L 684 0 
L 684 794 
z
" transform="scale(0.015625)"/>
       </defs>
       <use xlink:href="#DejaVuSans-30"/>
       <use xlink:href="#DejaVuSans-2e" x="63.623047"/>
       <use xlink:href="#DejaVuSans-30" x="95.410156"/>
       <use xlink:href="#DejaVuSans-30" x="159.033203"/>
      </g>
     </g>
    </g>
    <g id="ytick_2">
     <g id="line2d_10">
      <g>
       <use xlink:href="#mf814369c9b" x="57.6" y="272.251924" style="stroke: #000000; stroke-width: 0.8"/>
      </g>
     </g>
     <g id="text_11">
      <!-- 0.25 -->
      <g transform="translate(28.334375 276.051142) scale(0.1 -0.1)">
       <defs>
        <path id="DejaVuSans-35" d="M 691 4666 
L 3169 4666 
L 3169 4134 
L 1269 4134 
L 1269 2991 
Q 1406 3038 1543 3061 
Q 1681 3084 1819 3084 
Q 2600 3084 3056 2656 
Q 3513 2228 3513 1497 
Q 3513 744 3044 326 
Q 2575 -91 1722 -91 
Q 1428 -91 1123 -41 
Q 819 9 494 109 
L 494 744 
Q 775 591 1075 516 
Q 1375 441 1709 441 
Q 2250 441 2565 725 
Q 2881 1009 2881 1497 
Q 2881 1984 2565 2268 
Q 2250 2553 1709 2553 
Q 1456 2553 1204 2497 
Q 953 2441 691 2322 
L 691 4666 
z
" transform="scale(0.015625)"/>
       </defs>
       <use xlink:href="#DejaVuSans-30"/>
       <use xlink:href="#DejaVuSans-2e" x="63.623047"/>
       <use xlink:href="#DejaVuSans-32" x="95.410156"/>
       <use xlink:href="#DejaVuSans-35" x="159.033203"/>
      </g>
     </g>
    </g>
    <g id="ytick_3">
     <g id="line2d_11">
      <g>
       <use xlink:href="#mf814369c9b" x="57.6" y="236.919847" style="stroke: #000000; stroke-width: 0.8"/>
      </g>
     </g>
     <g id="text_12">
      <!-- 0.50 -->
      <g transform="translate(28.334375 240.719066) scale(0.1 -0.1)">
       <use xlink:href="#DejaVuSans-30"/>
       <use xlink:href="#DejaVuSans-2e" x="63.623047"/>
       <use xlink:href="#DejaVuSans-35" x="95.410156"/>
       <use xlink:href="#DejaVuSans-30" x="159.033203"/>
      </g>
     </g>
    </g>
    <g id="ytick_4">
     <g id="line2d_12">
      <g>
       <use xlink:href="#mf814369c9b" x="57.6" y="201.587771" style="stroke: #000000; stroke-width: 0.8"/>
      </g>
     </g>
     <g id="text_13">
      <!-- 0.75 -->
      <g transform="translate(28.334375 205.386989) scale(0.1 -0.1)">
       <defs>
        <path id="DejaVuSans-37" d="M 525 4666 
L 3525 4666 
L 3525 4397 
L 1831 0 
L 1172 0 
L 2766 4134 
L 525 4134 
L 525 4666 
z
" transform="scale(0.015625)"/>
       </defs>
       <use xlink:href="#DejaVuSans-30"/>
       <use xlink:href="#DejaVuSans-2e" x="63.623047"/>
       <use xlink:href="#DejaVuSans-37" x="95.410156"/>
       <use xlink:href="#DejaVuSans-35" x="159.033203"/>
      </g>
     </g>
    </g>
    <g id="ytick_5">
     <g id="line2d_13">
      <g>
       <use xlink:href="#mf814369c9b" x="57.6" y="166.255694" style="stroke: #000000; stroke-width: 0.8"/>
      </g>
     </g>
     <g id="text_14">
      <!-- 1.00 -->
      <g transform="translate(28.334375 170.054913) scale(0.1 -0.1)">
       <use xlink:href="#DejaVuSans-31"/>
       <use xlink:href="#DejaVuSans-2e" x="63.623047"/>
       <use xlink:href="#DejaVuSans-30" x="95.410156"/>
       <use xlink:href="#DejaVuSans-30" x="159.033203"/>
      </g>
     </g>
    </g>
    <g id="ytick_6">
     <g id="line2d_14">
      <g>
       <use xlink:href="#mf814369c9b" x="57.6" y="130.923618" style="stroke: #000000; stroke-width: 0.8"/>
      </g>
     </g>
     <g id="text_15">
      <!-- 1.25 -->
      <g transform="translate(28.334375 134.722836) scale(0.1 -0.1)">
       <use xlink:href="#DejaVuSans-31"/>
       <use xlink:href="#DejaVuSans-2e" x="63.623047"/>
       <use xlink:href="#DejaVuSans-32" x="95.410156"/>
       <use xlink:href="#DejaVuSans-35" x="159.033203"/>
      </g>
     </g>
    </g>
    <g id="ytick_7">
     <g id="line2d_15">
      <g>
       <use xlink:href="#mf814369c9b" x="57.6" y="95.591541" style="stroke: #000000; stroke-width: 0.8"/>
      </g>
     </g>
     <g id="text_16">
      <!-- 1.50 -->
      <g transform="translate(28.334375 99.39076) scale(0.1 -0.1)">
       <use xlink:href="#DejaVuSans-31"/>
       <use xlink:href="#DejaVuSans-2e" x="63.623047"/>
       <use xlink:href="#DejaVuSans-35" x="95.410156"/>
       <use xlink:href="#DejaVuSans-30" x="159.033203"/>
      </g>
     </g>
    </g>
    <g id="ytick_8">
     <g id="line2d_16">
      <g>
       <use xlink:href="#mf814369c9b" x="57.6" y="60.259465" style="stroke: #000000; stroke-width: 0.8"/>
      </g>
     </g>
     <g id="text_17">
      <!-- 1.75 -->
      <g transform="translate(28.334375 64.058684) scale(0.1 -0.1)">
       <use xlink:href="#DejaVuSans-31"/>
       <use xlink:href="#DejaVuSans-2e" x="63.623047"/>
       <use xlink:href="#DejaVuSans-37" x="95.410156"/>
       <use xlink:href="#DejaVuSans-35" x="159.033203"/>
      </g>
     </g>
    </g>
   </g>
   <g id="line2d_17">
    <path d="M 73.832727 172.174989 
L 76.011617 186.548727 
L 78.190506 204.619471 
L 80.369396 209.002159 
L 82.548286 205.26461 
L 84.727175 116.417069 
L 86.906065 213.264984 
L 91.263844 229.301459 
L 93.442733 231.334793 
L 95.621623 228.919287 
L 97.800513 232.77365 
L 99.979402 229.046672 
L 102.158292 229.36318 
L 104.337181 235.932305 
L 106.516071 239.901733 
L 108.69496 234.944806 
L 110.87385 235.396685 
L 115.231629 237.890272 
L 117.410519 238.253894 
L 119.589408 235.321098 
L 121.768298 237.496601 
L 126.126077 240.282865 
L 128.304966 237.603685 
L 130.483856 240.807475 
L 132.662746 237.074711 
L 134.841635 239.774243 
L 137.020525 234.892991 
L 139.199414 238.957452 
L 141.378304 235.488698 
L 143.557193 236.48442 
L 145.736083 240.665576 
L 147.914973 241.870688 
L 150.093862 240.788362 
L 152.272752 241.865697 
L 154.451641 241.397476 
L 156.630531 238.782397 
L 158.80942 238.707656 
L 160.98831 237.942727 
L 163.1672 240.757851 
L 165.346089 240.919007 
L 167.524979 241.794486 
L 169.703868 242.307885 
L 171.882758 235.488311 
L 174.061647 242.430502 
L 176.240537 241.519103 
L 178.419426 242.284062 
L 180.598316 238.117786 
L 182.777206 239.985908 
L 184.956095 240.168587 
L 187.134985 239.026283 
L 189.313874 242.099471 
L 191.492764 240.627976 
L 193.671653 240.786218 
L 195.850543 241.550532 
L 198.029433 236.269578 
L 200.208322 238.748832 
L 202.387212 240.605897 
L 204.566101 240.420818 
L 206.744991 237.897735 
L 208.92388 239.333555 
L 211.10277 238.109358 
L 213.28166 242.037808 
L 215.460549 237.787134 
L 217.639439 236.462711 
L 219.818328 238.167681 
L 221.997218 242.295127 
L 224.176107 239.871761 
L 226.354997 239.565467 
L 228.533887 239.619177 
L 230.712776 241.826282 
L 232.891666 242.052095 
L 235.070555 238.590582 
L 237.249445 240.91477 
L 239.428334 242.210952 
L 241.607224 242.746345 
L 243.786113 238.4573 
L 245.965003 241.886538 
L 248.143893 242.705405 
L 250.322782 242.34417 
L 252.501672 241.516121 
L 256.859451 238.360443 
L 259.03834 241.635689 
L 261.21723 242.067393 
L 263.39612 241.649217 
L 265.575009 243.217211 
L 267.753899 242.841479 
L 269.932788 241.170016 
L 272.111678 242.188094 
L 274.290567 242.564976 
L 276.469457 240.941511 
L 278.648347 239.031763 
L 280.827236 243.812472 
L 283.006126 242.506885 
L 285.185015 242.305109 
L 287.363905 238.541778 
L 289.542794 243.092185 
L 291.721684 238.859268 
L 293.900574 243.061455 
L 296.079463 243.31895 
L 298.258353 239.749473 
L 300.437242 239.019401 
L 302.616132 237.723821 
L 304.795021 238.981043 
L 306.973911 240.597023 
L 309.1528 240.211031 
L 311.33169 238.368231 
L 313.51058 241.615817 
L 315.689469 242.045339 
L 317.868359 241.870136 
L 320.047248 242.616483 
L 322.226138 239.6589 
L 324.405027 239.088223 
L 326.583917 242.208968 
L 328.762807 240.88866 
L 330.941696 238.424557 
L 333.120586 239.793028 
L 335.299475 238.514831 
L 337.478365 239.179559 
L 339.657254 240.888323 
L 341.836144 240.247026 
L 344.015034 242.838388 
L 346.193923 240.841048 
L 348.372813 239.803566 
L 350.551702 240.812648 
L 352.730592 240.671119 
L 354.909481 238.784494 
L 357.088371 239.535267 
L 359.267261 240.153281 
L 361.44615 242.754284 
L 363.62504 236.160397 
L 365.803929 239.788808 
L 367.982819 242.140288 
L 370.161708 237.565213 
L 372.340598 238.519552 
L 374.519487 239.328564 
L 376.698377 235.908424 
L 378.877267 238.831684 
L 381.056156 240.003021 
L 383.235046 238.332333 
L 385.413935 240.639896 
L 387.592825 239.479388 
L 389.771714 240.823367 
L 391.950604 239.869929 
L 394.129494 241.88233 
L 396.308383 242.027708 
L 398.487273 241.329727 
L 398.487273 241.329727 
" clip-path="url(#p76368561c4)" style="fill: none; stroke: #1f77b4; stroke-linecap: square"/>
   </g>
   <g id="line2d_18">
    <path d="M 73.832727 191.722041 
L 78.190506 136.332471 
L 80.369396 85.824 
L 82.548286 184.23632 
L 84.727175 188.763712 
L 89.084954 200.865344 
L 91.263844 197.458042 
L 93.442733 201.175155 
L 95.621623 186.89514 
L 97.800513 197.345499 
L 99.979402 180.578915 
L 102.158292 199.083233 
L 104.337181 179.436291 
L 106.516071 191.533794 
L 108.69496 202.778284 
L 110.87385 200.646981 
L 113.052739 204.176749 
L 115.231629 157.787949 
L 117.410519 202.488623 
L 119.589408 207.746201 
L 121.768298 188.992815 
L 123.947187 205.006091 
L 126.126077 202.965066 
L 128.304966 204.029677 
L 130.483856 193.447771 
L 132.662746 102.121049 
L 134.841635 205.286116 
L 139.199414 208.243332 
L 141.378304 200.675487 
L 143.557193 157.412516 
L 145.736083 199.213474 
L 147.914973 167.024368 
L 150.093862 200.234391 
L 152.272752 177.649598 
L 154.451641 196.689646 
L 156.630531 197.069021 
L 158.80942 196.497145 
L 160.98831 194.964295 
L 163.1672 197.658057 
L 165.346089 210.178723 
L 167.524979 199.763802 
L 169.703868 191.639757 
L 171.882758 180.602679 
L 174.061647 192.546211 
L 176.240537 198.516824 
L 178.419426 192.765264 
L 180.598316 198.073975 
L 182.777206 191.304531 
L 184.956095 198.218637 
L 187.134985 195.218947 
L 189.313874 192.768381 
L 191.492764 188.461188 
L 193.671653 200.84147 
L 195.850543 201.681166 
L 198.029433 187.341973 
L 200.208322 199.517346 
L 202.387212 181.942757 
L 204.566101 196.432071 
L 206.744991 182.833315 
L 208.92388 197.364613 
L 211.10277 180.029025 
L 213.28166 187.653596 
L 215.460549 194.320496 
L 217.639439 187.627482 
L 219.818328 202.634271 
L 221.997218 200.115387 
L 226.354997 201.024891 
L 228.533887 187.058638 
L 230.712776 190.826572 
L 232.891666 199.782806 
L 235.070555 182.944417 
L 237.249445 193.309241 
L 239.428334 163.663482 
L 241.607224 196.012455 
L 243.786113 194.496015 
L 245.965003 200.528787 
L 248.143893 195.347579 
L 250.322782 192.274998 
L 252.501672 191.144959 
L 254.680561 193.133546 
L 256.859451 187.03431 
L 259.03834 184.083621 
L 261.21723 180.751351 
L 263.39612 194.428414 
L 265.575009 199.510565 
L 267.753899 196.327228 
L 269.932788 197.252762 
L 272.111678 191.402147 
L 274.290567 187.480301 
L 276.469457 183.856768 
L 278.648347 190.213478 
L 280.827236 174.836437 
L 283.006126 191.191964 
L 285.185015 194.853353 
L 287.363905 182.962865 
L 289.542794 199.00148 
L 291.721684 188.365021 
L 293.900574 194.746817 
L 296.079463 189.556158 
L 298.258353 187.357726 
L 300.437242 190.683797 
L 302.616132 168.548305 
L 304.795021 178.156122 
L 306.973911 183.68012 
L 309.1528 185.93046 
L 311.33169 178.108064 
L 313.51058 174.326703 
L 315.689469 164.098943 
L 317.868359 183.755109 
L 320.047248 186.89423 
L 322.226138 189.547676 
L 324.405027 185.005053 
L 326.583917 178.801143 
L 328.762807 186.560992 
L 330.941696 180.957027 
L 333.120586 173.582205 
L 335.299475 178.889871 
L 337.478365 184.559963 
L 339.657254 194.35062 
L 341.836144 180.915548 
L 344.015034 173.710567 
L 346.193923 187.425041 
L 348.372813 195.08735 
L 350.551702 158.144192 
L 352.730592 167.897935 
L 354.909481 184.825735 
L 357.088371 193.352919 
L 359.267261 190.148513 
L 361.44615 197.065003 
L 363.62504 185.009416 
L 365.803929 191.41688 
L 367.982819 186.934934 
L 370.161708 195.267654 
L 372.340598 187.982841 
L 374.519487 186.092703 
L 376.698377 172.480858 
L 378.877267 195.806913 
L 381.056156 174.130781 
L 383.235046 185.668867 
L 385.413935 191.73482 
L 387.592825 195.926195 
L 389.771714 181.457756 
L 391.950604 182.072518 
L 394.129494 195.606376 
L 396.308383 191.069431 
L 398.487273 180.741023 
L 398.487273 180.741023 
" clip-path="url(#p76368561c4)" style="fill: none; stroke: #ff7f0e; stroke-linecap: square"/>
   </g>
   <g id="line2d_19">
    <path d="M 73.832727 179.748065 
L 76.011617 185.245149 
L 78.190506 194.979904 
L 80.369396 193.448841 
L 82.548286 195.322788 
L 84.727175 190.747801 
L 86.906065 199.213887 
L 89.084954 170.009173 
L 91.263844 192.903845 
L 93.442733 204.793229 
L 95.621623 206.818283 
L 97.800513 123.628351 
L 99.979402 209.433189 
L 102.158292 215.688889 
L 104.337181 215.525374 
L 106.516071 217.662414 
L 108.69496 210.898404 
L 110.87385 207.349615 
L 113.052739 212.972088 
L 115.231629 125.106934 
L 117.410519 211.18323 
L 119.589408 222.045573 
L 121.768298 167.389541 
L 123.947187 186.642855 
L 126.126077 224.643708 
L 128.304966 217.069301 
L 130.483856 224.314345 
L 132.662746 222.430862 
L 134.841635 221.020537 
L 137.020525 217.541507 
L 139.199414 226.354393 
L 141.378304 198.17373 
L 143.557193 226.199336 
L 145.736083 223.439649 
L 147.914973 228.433005 
L 150.093862 149.714556 
L 152.272752 164.084572 
L 154.451641 211.566345 
L 156.630531 229.717444 
L 158.80942 220.527744 
L 160.98831 212.760574 
L 163.1672 208.644458 
L 165.346089 217.310079 
L 167.524979 231.269837 
L 169.703868 199.366004 
L 171.882758 222.850099 
L 174.061647 221.28673 
L 176.240537 181.139015 
L 178.419426 202.218766 
L 180.598316 211.505475 
L 182.777206 209.978278 
L 184.956095 142.927549 
L 187.134985 207.58341 
L 189.313874 230.343966 
L 191.492764 231.269997 
L 193.671653 221.373681 
L 195.850543 207.18081 
L 198.029433 226.730643 
L 200.208322 194.339391 
L 202.387212 212.581096 
L 204.566101 222.602178 
L 206.744991 226.472773 
L 211.10277 179.449735 
L 213.28166 222.766754 
L 215.460549 199.99817 
L 217.639439 229.914629 
L 219.818328 228.645024 
L 221.997218 201.806967 
L 224.176107 232.951839 
L 226.354997 206.817971 
L 228.533887 232.580643 
L 230.712776 225.76016 
L 232.891666 210.862232 
L 235.070555 183.561875 
L 237.249445 232.349611 
L 239.428334 231.536367 
L 241.607224 231.840779 
L 243.786113 224.22223 
L 245.965003 232.116254 
L 248.143893 217.776405 
L 250.322782 233.831202 
L 252.501672 231.678881 
L 254.680561 195.250899 
L 256.859451 232.221796 
L 259.03834 233.186088 
L 261.21723 228.695643 
L 263.39612 232.068854 
L 265.575009 224.624847 
L 267.753899 232.691475 
L 269.932788 226.529052 
L 272.111678 232.012279 
L 274.290567 214.073536 
L 276.469457 232.161254 
L 278.648347 228.985633 
L 280.827236 218.190579 
L 283.006126 212.48514 
L 285.185015 226.125012 
L 287.363905 226.497471 
L 291.721684 231.543224 
L 293.900574 230.418003 
L 296.079463 232.02216 
L 298.258353 232.223464 
L 300.437242 224.158925 
L 302.616132 221.90124 
L 304.795021 227.226789 
L 306.973911 233.175095 
L 309.1528 231.521347 
L 311.33169 216.963961 
L 313.51058 231.656322 
L 315.689469 231.208916 
L 317.868359 227.876148 
L 320.047248 233.130365 
L 322.226138 230.519375 
L 324.405027 221.235176 
L 326.583917 232.848537 
L 328.762807 210.840448 
L 330.941696 228.064404 
L 333.120586 225.727163 
L 335.299475 223.070947 
L 337.478365 232.475177 
L 339.657254 231.345306 
L 341.836144 226.166163 
L 344.015034 225.450685 
L 346.193923 199.04942 
L 348.372813 227.297069 
L 350.551702 233.563341 
L 352.730592 217.753846 
L 354.909481 232.841167 
L 357.088371 230.12557 
L 359.267261 233.116145 
L 361.44615 224.204903 
L 363.62504 221.845769 
L 365.803929 226.170341 
L 367.982819 216.959682 
L 370.161708 232.481065 
L 372.340598 227.65942 
L 374.519487 206.777537 
L 376.698377 218.000833 
L 378.877267 231.96508 
L 381.056156 230.985381 
L 383.235046 230.451269 
L 385.413935 232.155021 
L 387.592825 201.489886 
L 389.771714 232.506555 
L 391.950604 220.315295 
L 394.129494 210.925191 
L 396.308383 232.267563 
L 398.487273 219.259689 
L 398.487273 219.259689 
" clip-path="url(#p76368561c4)" style="fill: none; stroke: #2ca02c; stroke-linecap: square"/>
   </g>
   <g id="line2d_20">
    <path d="M 73.832727 197.731824 
L 76.011617 193.520283 
L 78.190506 193.075194 
L 80.369396 184.357564 
L 82.548286 132.96193 
L 84.727175 199.638919 
L 86.906065 207.671127 
L 89.084954 189.972674 
L 91.263844 201.759718 
L 93.442733 128.227101 
L 95.621623 188.41083 
L 97.800513 205.97868 
L 99.979402 220.248696 
L 102.158292 220.157719 
L 104.337181 222.851801 
L 106.516071 221.361079 
L 108.69496 196.555429 
L 110.87385 225.113176 
L 113.052739 230.421036 
L 115.231629 229.551166 
L 117.410519 229.86209 
L 119.589408 231.979957 
L 121.768298 230.746617 
L 123.947187 217.351137 
L 126.126077 234.604433 
L 128.304966 228.061026 
L 130.483856 235.06867 
L 132.662746 234.118345 
L 134.841635 225.507015 
L 137.020525 233.898028 
L 139.199414 232.480972 
L 141.378304 237.477588 
L 143.557193 234.000335 
L 145.736083 228.638277 
L 147.914973 235.048941 
L 150.093862 231.064287 
L 152.272752 232.695712 
L 154.451641 235.358685 
L 156.630531 235.966077 
L 158.80942 233.778199 
L 160.98831 237.663308 
L 163.1672 238.273956 
L 165.346089 237.151426 
L 167.524979 234.886159 
L 169.703868 236.035312 
L 171.882758 238.043985 
L 174.061647 238.38897 
L 176.240537 239.430113 
L 178.419426 239.770503 
L 180.598316 234.505967 
L 182.777206 239.030916 
L 184.956095 237.711585 
L 187.134985 236.831464 
L 189.313874 234.891769 
L 191.492764 234.133103 
L 193.671653 236.194253 
L 195.850543 239.614009 
L 198.029433 238.289691 
L 200.208322 235.708164 
L 202.387212 236.915964 
L 204.566101 231.946851 
L 206.744991 237.974485 
L 211.10277 239.346073 
L 215.460549 239.845559 
L 217.639439 239.722411 
L 219.818328 239.284953 
L 221.997218 239.520429 
L 224.176107 237.421482 
L 226.354997 241.96092 
L 228.533887 237.333596 
L 230.712776 237.4876 
L 232.891666 239.096416 
L 235.070555 239.499386 
L 237.249445 240.535714 
L 241.607224 239.391405 
L 243.786113 241.967899 
L 245.965003 239.927262 
L 248.143893 240.03948 
L 250.322782 231.634757 
L 252.501672 233.327187 
L 254.680561 240.202864 
L 256.859451 241.554921 
L 259.03834 239.585747 
L 261.21723 238.151777 
L 263.39612 240.302775 
L 265.575009 234.95526 
L 267.753899 240.951304 
L 269.932788 241.449703 
L 272.111678 241.331791 
L 274.290567 240.865941 
L 276.469457 238.843145 
L 278.648347 239.30448 
L 280.827236 240.025593 
L 283.006126 240.448604 
L 287.363905 239.901556 
L 289.542794 240.122998 
L 291.721684 239.091315 
L 293.900574 239.061234 
L 296.079463 242.341816 
L 298.258353 240.382182 
L 300.437242 238.657037 
L 302.616132 241.735751 
L 304.795021 239.481987 
L 306.973911 240.852033 
L 309.1528 238.001845 
L 311.33169 240.884654 
L 313.51058 241.204065 
L 315.689469 242.030989 
L 317.868359 237.769419 
L 320.047248 236.522057 
L 322.226138 240.372916 
L 324.405027 240.086084 
L 326.583917 238.761939 
L 328.762807 239.245749 
L 330.941696 237.796253 
L 333.120586 239.727301 
L 335.299475 237.995666 
L 337.478365 241.215803 
L 339.657254 242.246597 
L 341.836144 235.504906 
L 344.015034 238.033161 
L 346.193923 235.344171 
L 348.372813 241.835321 
L 350.551702 242.532527 
L 352.730592 241.585542 
L 354.909481 238.386287 
L 357.088371 240.367899 
L 359.267261 239.219711 
L 361.44615 239.908809 
L 363.62504 240.034758 
L 365.803929 240.977228 
L 370.161708 237.513491 
L 372.340598 238.286768 
L 374.519487 242.449013 
L 376.698377 242.265799 
L 378.877267 238.600851 
L 381.056156 241.686425 
L 383.235046 237.037515 
L 385.413935 240.451004 
L 387.592825 242.395492 
L 389.771714 240.397513 
L 391.950604 239.146908 
L 394.129494 240.590941 
L 396.308383 235.073244 
L 398.487273 241.032686 
L 398.487273 241.032686 
" clip-path="url(#p76368561c4)" style="fill: none; stroke: #d62728; stroke-linecap: square"/>
   </g>
   <g id="patch_3">
    <path d="M 57.6 307.584 
L 57.6 41.472 
" style="fill: none; stroke: #000000; stroke-width: 0.8; stroke-linejoin: miter; stroke-linecap: square"/>
   </g>
   <g id="patch_4">
    <path d="M 414.72 307.584 
L 414.72 41.472 
" style="fill: none; stroke: #000000; stroke-width: 0.8; stroke-linejoin: miter; stroke-linecap: square"/>
   </g>
   <g id="patch_5">
    <path d="M 57.6 307.584 
L 414.72 307.584 
" style="fill: none; stroke: #000000; stroke-width: 0.8; stroke-linejoin: miter; stroke-linecap: square"/>
   </g>
   <g id="patch_6">
    <path d="M 57.6 41.472 
L 414.72 41.472 
" style="fill: none; stroke: #000000; stroke-width: 0.8; stroke-linejoin: miter; stroke-linecap: square"/>
   </g>
   <g id="text_18">
    <!-- CrossEntropyLoss of POD -->
    <g transform="translate(160.688438 35.472) scale(0.12 -0.12)">
     <defs>
      <path id="DejaVuSans-43" d="M 4122 4306 
L 4122 3641 
Q 3803 3938 3442 4084 
Q 3081 4231 2675 4231 
Q 1875 4231 1450 3742 
Q 1025 3253 1025 2328 
Q 1025 1406 1450 917 
Q 1875 428 2675 428 
Q 3081 428 3442 575 
Q 3803 722 4122 1019 
L 4122 359 
Q 3791 134 3420 21 
Q 3050 -91 2638 -91 
Q 1578 -91 968 557 
Q 359 1206 359 2328 
Q 359 3453 968 4101 
Q 1578 4750 2638 4750 
Q 3056 4750 3426 4639 
Q 3797 4528 4122 4306 
z
" transform="scale(0.015625)"/>
      <path id="DejaVuSans-72" d="M 2631 2963 
Q 2534 3019 2420 3045 
Q 2306 3072 2169 3072 
Q 1681 3072 1420 2755 
Q 1159 2438 1159 1844 
L 1159 0 
L 581 0 
L 581 3500 
L 1159 3500 
L 1159 2956 
Q 1341 3275 1631 3429 
Q 1922 3584 2338 3584 
Q 2397 3584 2469 3576 
Q 2541 3569 2628 3553 
L 2631 2963 
z
" transform="scale(0.015625)"/>
      <path id="DejaVuSans-73" d="M 2834 3397 
L 2834 2853 
Q 2591 2978 2328 3040 
Q 2066 3103 1784 3103 
Q 1356 3103 1142 2972 
Q 928 2841 928 2578 
Q 928 2378 1081 2264 
Q 1234 2150 1697 2047 
L 1894 2003 
Q 2506 1872 2764 1633 
Q 3022 1394 3022 966 
Q 3022 478 2636 193 
Q 2250 -91 1575 -91 
Q 1294 -91 989 -36 
Q 684 19 347 128 
L 347 722 
Q 666 556 975 473 
Q 1284 391 1588 391 
Q 1994 391 2212 530 
Q 2431 669 2431 922 
Q 2431 1156 2273 1281 
Q 2116 1406 1581 1522 
L 1381 1569 
Q 847 1681 609 1914 
Q 372 2147 372 2553 
Q 372 3047 722 3315 
Q 1072 3584 1716 3584 
Q 2034 3584 2315 3537 
Q 2597 3491 2834 3397 
z
" transform="scale(0.015625)"/>
      <path id="DejaVuSans-45" d="M 628 4666 
L 3578 4666 
L 3578 4134 
L 1259 4134 
L 1259 2753 
L 3481 2753 
L 3481 2222 
L 1259 2222 
L 1259 531 
L 3634 531 
L 3634 0 
L 628 0 
L 628 4666 
z
" transform="scale(0.015625)"/>
      <path id="DejaVuSans-6e" d="M 3513 2113 
L 3513 0 
L 2938 0 
L 2938 2094 
Q 2938 2591 2744 2837 
Q 2550 3084 2163 3084 
Q 1697 3084 1428 2787 
Q 1159 2491 1159 1978 
L 1159 0 
L 581 0 
L 581 3500 
L 1159 3500 
L 1159 2956 
Q 1366 3272 1645 3428 
Q 1925 3584 2291 3584 
Q 2894 3584 3203 3211 
Q 3513 2838 3513 2113 
z
" transform="scale(0.015625)"/>
      <path id="DejaVuSans-74" d="M 1172 4494 
L 1172 3500 
L 2356 3500 
L 2356 3053 
L 1172 3053 
L 1172 1153 
Q 1172 725 1289 603 
Q 1406 481 1766 481 
L 2356 481 
L 2356 0 
L 1766 0 
Q 1100 0 847 248 
Q 594 497 594 1153 
L 594 3053 
L 172 3053 
L 172 3500 
L 594 3500 
L 594 4494 
L 1172 4494 
z
" transform="scale(0.015625)"/>
      <path id="DejaVuSans-79" d="M 2059 -325 
Q 1816 -950 1584 -1140 
Q 1353 -1331 966 -1331 
L 506 -1331 
L 506 -850 
L 844 -850 
Q 1081 -850 1212 -737 
Q 1344 -625 1503 -206 
L 1606 56 
L 191 3500 
L 800 3500 
L 1894 763 
L 2988 3500 
L 3597 3500 
L 2059 -325 
z
" transform="scale(0.015625)"/>
      <path id="DejaVuSans-4c" d="M 628 4666 
L 1259 4666 
L 1259 531 
L 3531 531 
L 3531 0 
L 628 0 
L 628 4666 
z
" transform="scale(0.015625)"/>
      <path id="DejaVuSans-20" transform="scale(0.015625)"/>
      <path id="DejaVuSans-66" d="M 2375 4863 
L 2375 4384 
L 1825 4384 
Q 1516 4384 1395 4259 
Q 1275 4134 1275 3809 
L 1275 3500 
L 2222 3500 
L 2222 3053 
L 1275 3053 
L 1275 0 
L 697 0 
L 697 3053 
L 147 3053 
L 147 3500 
L 697 3500 
L 697 3744 
Q 697 4328 969 4595 
Q 1241 4863 1831 4863 
L 2375 4863 
z
" transform="scale(0.015625)"/>
      <path id="DejaVuSans-50" d="M 1259 4147 
L 1259 2394 
L 2053 2394 
Q 2494 2394 2734 2622 
Q 2975 2850 2975 3272 
Q 2975 3691 2734 3919 
Q 2494 4147 2053 4147 
L 1259 4147 
z
M 628 4666 
L 2053 4666 
Q 2838 4666 3239 4311 
Q 3641 3956 3641 3272 
Q 3641 2581 3239 2228 
Q 2838 1875 2053 1875 
L 1259 1875 
L 1259 0 
L 628 0 
L 628 4666 
z
" transform="scale(0.015625)"/>
      <path id="DejaVuSans-4f" d="M 2522 4238 
Q 1834 4238 1429 3725 
Q 1025 3213 1025 2328 
Q 1025 1447 1429 934 
Q 1834 422 2522 422 
Q 3209 422 3611 934 
Q 4013 1447 4013 2328 
Q 4013 3213 3611 3725 
Q 3209 4238 2522 4238 
z
M 2522 4750 
Q 3503 4750 4090 4092 
Q 4678 3434 4678 2328 
Q 4678 1225 4090 567 
Q 3503 -91 2522 -91 
Q 1538 -91 948 565 
Q 359 1222 359 2328 
Q 359 3434 948 4092 
Q 1538 4750 2522 4750 
z
" transform="scale(0.015625)"/>
      <path id="DejaVuSans-44" d="M 1259 4147 
L 1259 519 
L 2022 519 
Q 2988 519 3436 956 
Q 3884 1394 3884 2338 
Q 3884 3275 3436 3711 
Q 2988 4147 2022 4147 
L 1259 4147 
z
M 628 4666 
L 1925 4666 
Q 3281 4666 3915 4102 
Q 4550 3538 4550 2338 
Q 4550 1131 3912 565 
Q 3275 0 1925 0 
L 628 0 
L 628 4666 
z
" transform="scale(0.015625)"/>
     </defs>
     <use xlink:href="#DejaVuSans-43"/>
     <use xlink:href="#DejaVuSans-72" x="69.824219"/>
     <use xlink:href="#DejaVuSans-6f" x="108.6875"/>
     <use xlink:href="#DejaVuSans-73" x="169.869141"/>
     <use xlink:href="#DejaVuSans-73" x="221.96875"/>
     <use xlink:href="#DejaVuSans-45" x="274.068359"/>
     <use xlink:href="#DejaVuSans-6e" x="337.251953"/>
     <use xlink:href="#DejaVuSans-74" x="400.630859"/>
     <use xlink:href="#DejaVuSans-72" x="439.839844"/>
     <use xlink:href="#DejaVuSans-6f" x="478.703125"/>
     <use xlink:href="#DejaVuSans-70" x="539.884766"/>
     <use xlink:href="#DejaVuSans-79" x="603.361328"/>
     <use xlink:href="#DejaVuSans-4c" x="662.541016"/>
     <use xlink:href="#DejaVuSans-6f" x="716.503906"/>
     <use xlink:href="#DejaVuSans-73" x="777.685547"/>
     <use xlink:href="#DejaVuSans-73" x="829.785156"/>
     <use xlink:href="#DejaVuSans-20" x="881.884766"/>
     <use xlink:href="#DejaVuSans-6f" x="913.671875"/>
     <use xlink:href="#DejaVuSans-66" x="974.853516"/>
     <use xlink:href="#DejaVuSans-20" x="1010.058594"/>
     <use xlink:href="#DejaVuSans-50" x="1041.845703"/>
     <use xlink:href="#DejaVuSans-4f" x="1102.148438"/>
     <use xlink:href="#DejaVuSans-44" x="1180.859375"/>
    </g>
   </g>
   <g id="legend_1">
    <g id="patch_7">
     <path d="M 299.162188 108.1845 
L 407.72 108.1845 
Q 409.72 108.1845 409.72 106.1845 
L 409.72 48.472 
Q 409.72 46.472 407.72 46.472 
L 299.162188 46.472 
Q 297.162188 46.472 297.162188 48.472 
L 297.162188 106.1845 
Q 297.162188 108.1845 299.162188 108.1845 
z
" style="fill: #ffffff; opacity: 0.8; stroke: #cccccc; stroke-linejoin: miter"/>
    </g>
    <g id="line2d_21">
     <path d="M 301.162188 54.570438 
L 311.162188 54.570438 
L 321.162188 54.570438 
" style="fill: none; stroke: #1f77b4; stroke-linecap: square"/>
    </g>
    <g id="text_19">
     <!-- 2000 samples -->
     <g transform="translate(329.162188 58.070438) scale(0.1 -0.1)">
      <defs>
       <path id="DejaVuSans-61" d="M 2194 1759 
Q 1497 1759 1228 1600 
Q 959 1441 959 1056 
Q 959 750 1161 570 
Q 1363 391 1709 391 
Q 2188 391 2477 730 
Q 2766 1069 2766 1631 
L 2766 1759 
L 2194 1759 
z
M 3341 1997 
L 3341 0 
L 2766 0 
L 2766 531 
Q 2569 213 2275 61 
Q 1981 -91 1556 -91 
Q 1019 -91 701 211 
Q 384 513 384 1019 
Q 384 1609 779 1909 
Q 1175 2209 1959 2209 
L 2766 2209 
L 2766 2266 
Q 2766 2663 2505 2880 
Q 2244 3097 1772 3097 
Q 1472 3097 1187 3025 
Q 903 2953 641 2809 
L 641 3341 
Q 956 3463 1253 3523 
Q 1550 3584 1831 3584 
Q 2591 3584 2966 3190 
Q 3341 2797 3341 1997 
z
" transform="scale(0.015625)"/>
       <path id="DejaVuSans-6d" d="M 3328 2828 
Q 3544 3216 3844 3400 
Q 4144 3584 4550 3584 
Q 5097 3584 5394 3201 
Q 5691 2819 5691 2113 
L 5691 0 
L 5113 0 
L 5113 2094 
Q 5113 2597 4934 2840 
Q 4756 3084 4391 3084 
Q 3944 3084 3684 2787 
Q 3425 2491 3425 1978 
L 3425 0 
L 2847 0 
L 2847 2094 
Q 2847 2600 2669 2842 
Q 2491 3084 2119 3084 
Q 1678 3084 1418 2786 
Q 1159 2488 1159 1978 
L 1159 0 
L 581 0 
L 581 3500 
L 1159 3500 
L 1159 2956 
Q 1356 3278 1631 3431 
Q 1906 3584 2284 3584 
Q 2666 3584 2933 3390 
Q 3200 3197 3328 2828 
z
" transform="scale(0.015625)"/>
       <path id="DejaVuSans-6c" d="M 603 4863 
L 1178 4863 
L 1178 0 
L 603 0 
L 603 4863 
z
" transform="scale(0.015625)"/>
      </defs>
      <use xlink:href="#DejaVuSans-32"/>
      <use xlink:href="#DejaVuSans-30" x="63.623047"/>
      <use xlink:href="#DejaVuSans-30" x="127.246094"/>
      <use xlink:href="#DejaVuSans-30" x="190.869141"/>
      <use xlink:href="#DejaVuSans-20" x="254.492188"/>
      <use xlink:href="#DejaVuSans-73" x="286.279297"/>
      <use xlink:href="#DejaVuSans-61" x="338.378906"/>
      <use xlink:href="#DejaVuSans-6d" x="399.658203"/>
      <use xlink:href="#DejaVuSans-70" x="497.070312"/>
      <use xlink:href="#DejaVuSans-6c" x="560.546875"/>
      <use xlink:href="#DejaVuSans-65" x="588.330078"/>
      <use xlink:href="#DejaVuSans-73" x="649.853516"/>
     </g>
    </g>
    <g id="line2d_22">
     <path d="M 301.162188 69.248563 
L 311.162188 69.248563 
L 321.162188 69.248563 
" style="fill: none; stroke: #ff7f0e; stroke-linecap: square"/>
    </g>
    <g id="text_20">
     <!-- 5000 samples -->
     <g transform="translate(329.162188 72.748563) scale(0.1 -0.1)">
      <use xlink:href="#DejaVuSans-35"/>
      <use xlink:href="#DejaVuSans-30" x="63.623047"/>
      <use xlink:href="#DejaVuSans-30" x="127.246094"/>
      <use xlink:href="#DejaVuSans-30" x="190.869141"/>
      <use xlink:href="#DejaVuSans-20" x="254.492188"/>
      <use xlink:href="#DejaVuSans-73" x="286.279297"/>
      <use xlink:href="#DejaVuSans-61" x="338.378906"/>
      <use xlink:href="#DejaVuSans-6d" x="399.658203"/>
      <use xlink:href="#DejaVuSans-70" x="497.070312"/>
      <use xlink:href="#DejaVuSans-6c" x="560.546875"/>
      <use xlink:href="#DejaVuSans-65" x="588.330078"/>
      <use xlink:href="#DejaVuSans-73" x="649.853516"/>
     </g>
    </g>
    <g id="line2d_23">
     <path d="M 301.162188 83.926688 
L 311.162188 83.926688 
L 321.162188 83.926688 
" style="fill: none; stroke: #2ca02c; stroke-linecap: square"/>
    </g>
    <g id="text_21">
     <!-- 8000 samples -->
     <g transform="translate(329.162188 87.426688) scale(0.1 -0.1)">
      <use xlink:href="#DejaVuSans-38"/>
      <use xlink:href="#DejaVuSans-30" x="63.623047"/>
      <use xlink:href="#DejaVuSans-30" x="127.246094"/>
      <use xlink:href="#DejaVuSans-30" x="190.869141"/>
      <use xlink:href="#DejaVuSans-20" x="254.492188"/>
      <use xlink:href="#DejaVuSans-73" x="286.279297"/>
      <use xlink:href="#DejaVuSans-61" x="338.378906"/>
      <use xlink:href="#DejaVuSans-6d" x="399.658203"/>
      <use xlink:href="#DejaVuSans-70" x="497.070312"/>
      <use xlink:href="#DejaVuSans-6c" x="560.546875"/>
      <use xlink:href="#DejaVuSans-65" x="588.330078"/>
      <use xlink:href="#DejaVuSans-73" x="649.853516"/>
     </g>
    </g>
    <g id="line2d_24">
     <path d="M 301.162188 98.604813 
L 311.162188 98.604813 
L 321.162188 98.604813 
" style="fill: none; stroke: #d62728; stroke-linecap: square"/>
    </g>
    <g id="text_22">
     <!-- 10000 samples -->
     <g transform="translate(329.162188 102.104813) scale(0.1 -0.1)">
      <use xlink:href="#DejaVuSans-31"/>
      <use xlink:href="#DejaVuSans-30" x="63.623047"/>
      <use xlink:href="#DejaVuSans-30" x="127.246094"/>
      <use xlink:href="#DejaVuSans-30" x="190.869141"/>
      <use xlink:href="#DejaVuSans-30" x="254.492188"/>
      <use xlink:href="#DejaVuSans-20" x="318.115234"/>
      <use xlink:href="#DejaVuSans-73" x="349.902344"/>
      <use xlink:href="#DejaVuSans-61" x="402.001953"/>
      <use xlink:href="#DejaVuSans-6d" x="463.28125"/>
      <use xlink:href="#DejaVuSans-70" x="560.693359"/>
      <use xlink:href="#DejaVuSans-6c" x="624.169922"/>
      <use xlink:href="#DejaVuSans-65" x="651.953125"/>
      <use xlink:href="#DejaVuSans-73" x="713.476562"/>
     </g>
    </g>
   </g>
  </g>
 </g>
 <defs>
  <clipPath id="p76368561c4">
   <rect x="57.6" y="41.472" width="357.12" height="266.112"/>
  </clipPath>
 </defs>
</svg>
