<?xml version="1.0" encoding="utf-8" standalone="no"?>
<!DOCTYPE svg PUBLIC "-//W3C//DTD SVG 1.1//EN"
  "http://www.w3.org/Graphics/SVG/1.1/DTD/svg11.dtd">
<svg xmlns:xlink="http://www.w3.org/1999/xlink" width="460.8pt" height="345.6pt" viewBox="0 0 460.8 345.6" xmlns="http://www.w3.org/2000/svg" version="1.1">
 <metadata>
  <rdf:RDF xmlns:dc="http://purl.org/dc/elements/1.1/" xmlns:cc="http://creativecommons.org/ns#" xmlns:rdf="http://www.w3.org/1999/02/22-rdf-syntax-ns#">
   <cc:Work>
    <dc:type rdf:resource="http://purl.org/dc/dcmitype/StillImage"/>
    <dc:date>2023-09-13T16:28:04.339883</dc:date>
    <dc:format>image/svg+xml</dc:format>
    <dc:creator>
     <cc:Agent>
      <dc:title>Matplotlib v3.7.1, https://matplotlib.org/</dc:title>
     </cc:Agent>
    </dc:creator>
   </cc:Work>
  </rdf:RDF>
 </metadata>
 <defs>
  <style type="text/css">*{stroke-linejoin: round; stroke-linecap: butt}</style>
 </defs>
 <g id="figure_1">
  <g id="patch_1">
   <path d="M 0 345.6 
L 460.8 345.6 
L 460.8 0 
L 0 0 
z
" style="fill: #ffffff"/>
  </g>
  <g id="axes_1">
   <g id="patch_2">
    <path d="M 57.6 307.584 
L 414.72 307.584 
L 414.72 41.472 
L 57.6 41.472 
z
" style="fill: #ffffff"/>
   </g>
   <g id="matplotlib.axis_1">
    <g id="xtick_1">
     <g id="line2d_1">
      <defs>
       <path id="m319d29ac16" d="M 0 0 
L 0 3.5 
" style="stroke: #000000; stroke-width: 0.8"/>
      </defs>
      <g>
       <use xlink:href="#m319d29ac16" x="71.653838" y="307.584" style="stroke: #000000; stroke-width: 0.8"/>
      </g>
     </g>
     <g id="text_1">
      <!-- 0 -->
      <g transform="translate(68.472588 322.182437) scale(0.1 -0.1)">
       <defs>
        <path id="DejaVuSans-30" d="M 2034 4250 
Q 1547 4250 1301 3770 
Q 1056 3291 1056 2328 
Q 1056 1369 1301 889 
Q 1547 409 2034 409 
Q 2525 409 2770 889 
Q 3016 1369 3016 2328 
Q 3016 3291 2770 3770 
Q 2525 4250 2034 4250 
z
M 2034 4750 
Q 2819 4750 3233 4129 
Q 3647 3509 3647 2328 
Q 3647 1150 3233 529 
Q 2819 -91 2034 -91 
Q 1250 -91 836 529 
Q 422 1150 422 2328 
Q 422 3509 836 4129 
Q 1250 4750 2034 4750 
z
" transform="scale(0.015625)"/>
       </defs>
       <use xlink:href="#DejaVuSans-30"/>
      </g>
     </g>
    </g>
    <g id="xtick_2">
     <g id="line2d_2">
      <g>
       <use xlink:href="#m319d29ac16" x="115.231629" y="307.584" style="stroke: #000000; stroke-width: 0.8"/>
      </g>
     </g>
     <g id="text_2">
      <!-- 20 -->
      <g transform="translate(108.869129 322.182437) scale(0.1 -0.1)">
       <defs>
        <path id="DejaVuSans-32" d="M 1228 531 
L 3431 531 
L 3431 0 
L 469 0 
L 469 531 
Q 828 903 1448 1529 
Q 2069 2156 2228 2338 
Q 2531 2678 2651 2914 
Q 2772 3150 2772 3378 
Q 2772 3750 2511 3984 
Q 2250 4219 1831 4219 
Q 1534 4219 1204 4116 
Q 875 4013 500 3803 
L 500 4441 
Q 881 4594 1212 4672 
Q 1544 4750 1819 4750 
Q 2544 4750 2975 4387 
Q 3406 4025 3406 3419 
Q 3406 3131 3298 2873 
Q 3191 2616 2906 2266 
Q 2828 2175 2409 1742 
Q 1991 1309 1228 531 
z
" transform="scale(0.015625)"/>
       </defs>
       <use xlink:href="#DejaVuSans-32"/>
       <use xlink:href="#DejaVuSans-30" x="63.623047"/>
      </g>
     </g>
    </g>
    <g id="xtick_3">
     <g id="line2d_3">
      <g>
       <use xlink:href="#m319d29ac16" x="158.80942" y="307.584" style="stroke: #000000; stroke-width: 0.8"/>
      </g>
     </g>
     <g id="text_3">
      <!-- 40 -->
      <g transform="translate(152.44692 322.182437) scale(0.1 -0.1)">
       <defs>
        <path id="DejaVuSans-34" d="M 2419 4116 
L 825 1625 
L 2419 1625 
L 2419 4116 
z
M 2253 4666 
L 3047 4666 
L 3047 1625 
L 3713 1625 
L 3713 1100 
L 3047 1100 
L 3047 0 
L 2419 0 
L 2419 1100 
L 313 1100 
L 313 1709 
L 2253 4666 
z
" transform="scale(0.015625)"/>
       </defs>
       <use xlink:href="#DejaVuSans-34"/>
       <use xlink:href="#DejaVuSans-30" x="63.623047"/>
      </g>
     </g>
    </g>
    <g id="xtick_4">
     <g id="line2d_4">
      <g>
       <use xlink:href="#m319d29ac16" x="202.387212" y="307.584" style="stroke: #000000; stroke-width: 0.8"/>
      </g>
     </g>
     <g id="text_4">
      <!-- 60 -->
      <g transform="translate(196.024712 322.182437) scale(0.1 -0.1)">
       <defs>
        <path id="DejaVuSans-36" d="M 2113 2584 
Q 1688 2584 1439 2293 
Q 1191 2003 1191 1497 
Q 1191 994 1439 701 
Q 1688 409 2113 409 
Q 2538 409 2786 701 
Q 3034 994 3034 1497 
Q 3034 2003 2786 2293 
Q 2538 2584 2113 2584 
z
M 3366 4563 
L 3366 3988 
Q 3128 4100 2886 4159 
Q 2644 4219 2406 4219 
Q 1781 4219 1451 3797 
Q 1122 3375 1075 2522 
Q 1259 2794 1537 2939 
Q 1816 3084 2150 3084 
Q 2853 3084 3261 2657 
Q 3669 2231 3669 1497 
Q 3669 778 3244 343 
Q 2819 -91 2113 -91 
Q 1303 -91 875 529 
Q 447 1150 447 2328 
Q 447 3434 972 4092 
Q 1497 4750 2381 4750 
Q 2619 4750 2861 4703 
Q 3103 4656 3366 4563 
z
" transform="scale(0.015625)"/>
       </defs>
       <use xlink:href="#DejaVuSans-36"/>
       <use xlink:href="#DejaVuSans-30" x="63.623047"/>
      </g>
     </g>
    </g>
    <g id="xtick_5">
     <g id="line2d_5">
      <g>
       <use xlink:href="#m319d29ac16" x="245.965003" y="307.584" style="stroke: #000000; stroke-width: 0.8"/>
      </g>
     </g>
     <g id="text_5">
      <!-- 80 -->
      <g transform="translate(239.602503 322.182437) scale(0.1 -0.1)">
       <defs>
        <path id="DejaVuSans-38" d="M 2034 2216 
Q 1584 2216 1326 1975 
Q 1069 1734 1069 1313 
Q 1069 891 1326 650 
Q 1584 409 2034 409 
Q 2484 409 2743 651 
Q 3003 894 3003 1313 
Q 3003 1734 2745 1975 
Q 2488 2216 2034 2216 
z
M 1403 2484 
Q 997 2584 770 2862 
Q 544 3141 544 3541 
Q 544 4100 942 4425 
Q 1341 4750 2034 4750 
Q 2731 4750 3128 4425 
Q 3525 4100 3525 3541 
Q 3525 3141 3298 2862 
Q 3072 2584 2669 2484 
Q 3125 2378 3379 2068 
Q 3634 1759 3634 1313 
Q 3634 634 3220 271 
Q 2806 -91 2034 -91 
Q 1263 -91 848 271 
Q 434 634 434 1313 
Q 434 1759 690 2068 
Q 947 2378 1403 2484 
z
M 1172 3481 
Q 1172 3119 1398 2916 
Q 1625 2713 2034 2713 
Q 2441 2713 2670 2916 
Q 2900 3119 2900 3481 
Q 2900 3844 2670 4047 
Q 2441 4250 2034 4250 
Q 1625 4250 1398 4047 
Q 1172 3844 1172 3481 
z
" transform="scale(0.015625)"/>
       </defs>
       <use xlink:href="#DejaVuSans-38"/>
       <use xlink:href="#DejaVuSans-30" x="63.623047"/>
      </g>
     </g>
    </g>
    <g id="xtick_6">
     <g id="line2d_6">
      <g>
       <use xlink:href="#m319d29ac16" x="289.542794" y="307.584" style="stroke: #000000; stroke-width: 0.8"/>
      </g>
     </g>
     <g id="text_6">
      <!-- 100 -->
      <g transform="translate(279.999044 322.182437) scale(0.1 -0.1)">
       <defs>
        <path id="DejaVuSans-31" d="M 794 531 
L 1825 531 
L 1825 4091 
L 703 3866 
L 703 4441 
L 1819 4666 
L 2450 4666 
L 2450 531 
L 3481 531 
L 3481 0 
L 794 0 
L 794 531 
z
" transform="scale(0.015625)"/>
       </defs>
       <use xlink:href="#DejaVuSans-31"/>
       <use xlink:href="#DejaVuSans-30" x="63.623047"/>
       <use xlink:href="#DejaVuSans-30" x="127.246094"/>
      </g>
     </g>
    </g>
    <g id="xtick_7">
     <g id="line2d_7">
      <g>
       <use xlink:href="#m319d29ac16" x="333.120586" y="307.584" style="stroke: #000000; stroke-width: 0.8"/>
      </g>
     </g>
     <g id="text_7">
      <!-- 120 -->
      <g transform="translate(323.576836 322.182437) scale(0.1 -0.1)">
       <use xlink:href="#DejaVuSans-31"/>
       <use xlink:href="#DejaVuSans-32" x="63.623047"/>
       <use xlink:href="#DejaVuSans-30" x="127.246094"/>
      </g>
     </g>
    </g>
    <g id="xtick_8">
     <g id="line2d_8">
      <g>
       <use xlink:href="#m319d29ac16" x="376.698377" y="307.584" style="stroke: #000000; stroke-width: 0.8"/>
      </g>
     </g>
     <g id="text_8">
      <!-- 140 -->
      <g transform="translate(367.154627 322.182437) scale(0.1 -0.1)">
       <use xlink:href="#DejaVuSans-31"/>
       <use xlink:href="#DejaVuSans-34" x="63.623047"/>
       <use xlink:href="#DejaVuSans-30" x="127.246094"/>
      </g>
     </g>
    </g>
    <g id="text_9">
     <!-- epoch -->
     <g transform="translate(220.931875 335.860562) scale(0.1 -0.1)">
      <defs>
       <path id="DejaVuSans-65" d="M 3597 1894 
L 3597 1613 
L 953 1613 
Q 991 1019 1311 708 
Q 1631 397 2203 397 
Q 2534 397 2845 478 
Q 3156 559 3463 722 
L 3463 178 
Q 3153 47 2828 -22 
Q 2503 -91 2169 -91 
Q 1331 -91 842 396 
Q 353 884 353 1716 
Q 353 2575 817 3079 
Q 1281 3584 2069 3584 
Q 2775 3584 3186 3129 
Q 3597 2675 3597 1894 
z
M 3022 2063 
Q 3016 2534 2758 2815 
Q 2500 3097 2075 3097 
Q 1594 3097 1305 2825 
Q 1016 2553 972 2059 
L 3022 2063 
z
" transform="scale(0.015625)"/>
       <path id="DejaVuSans-70" d="M 1159 525 
L 1159 -1331 
L 581 -1331 
L 581 3500 
L 1159 3500 
L 1159 2969 
Q 1341 3281 1617 3432 
Q 1894 3584 2278 3584 
Q 2916 3584 3314 3078 
Q 3713 2572 3713 1747 
Q 3713 922 3314 415 
Q 2916 -91 2278 -91 
Q 1894 -91 1617 61 
Q 1341 213 1159 525 
z
M 3116 1747 
Q 3116 2381 2855 2742 
Q 2594 3103 2138 3103 
Q 1681 3103 1420 2742 
Q 1159 2381 1159 1747 
Q 1159 1113 1420 752 
Q 1681 391 2138 391 
Q 2594 391 2855 752 
Q 3116 1113 3116 1747 
z
" transform="scale(0.015625)"/>
       <path id="DejaVuSans-6f" d="M 1959 3097 
Q 1497 3097 1228 2736 
Q 959 2375 959 1747 
Q 959 1119 1226 758 
Q 1494 397 1959 397 
Q 2419 397 2687 759 
Q 2956 1122 2956 1747 
Q 2956 2369 2687 2733 
Q 2419 3097 1959 3097 
z
M 1959 3584 
Q 2709 3584 3137 3096 
Q 3566 2609 3566 1747 
Q 3566 888 3137 398 
Q 2709 -91 1959 -91 
Q 1206 -91 779 398 
Q 353 888 353 1747 
Q 353 2609 779 3096 
Q 1206 3584 1959 3584 
z
" transform="scale(0.015625)"/>
       <path id="DejaVuSans-63" d="M 3122 3366 
L 3122 2828 
Q 2878 2963 2633 3030 
Q 2388 3097 2138 3097 
Q 1578 3097 1268 2742 
Q 959 2388 959 1747 
Q 959 1106 1268 751 
Q 1578 397 2138 397 
Q 2388 397 2633 464 
Q 2878 531 3122 666 
L 3122 134 
Q 2881 22 2623 -34 
Q 2366 -91 2075 -91 
Q 1284 -91 818 406 
Q 353 903 353 1747 
Q 353 2603 823 3093 
Q 1294 3584 2113 3584 
Q 2378 3584 2631 3529 
Q 2884 3475 3122 3366 
z
" transform="scale(0.015625)"/>
       <path id="DejaVuSans-68" d="M 3513 2113 
L 3513 0 
L 2938 0 
L 2938 2094 
Q 2938 2591 2744 2837 
Q 2550 3084 2163 3084 
Q 1697 3084 1428 2787 
Q 1159 2491 1159 1978 
L 1159 0 
L 581 0 
L 581 4863 
L 1159 4863 
L 1159 2956 
Q 1366 3272 1645 3428 
Q 1925 3584 2291 3584 
Q 2894 3584 3203 3211 
Q 3513 2838 3513 2113 
z
" transform="scale(0.015625)"/>
      </defs>
      <use xlink:href="#DejaVuSans-65"/>
      <use xlink:href="#DejaVuSans-70" x="61.523438"/>
      <use xlink:href="#DejaVuSans-6f" x="125"/>
      <use xlink:href="#DejaVuSans-63" x="186.181641"/>
      <use xlink:href="#DejaVuSans-68" x="241.162109"/>
     </g>
    </g>
   </g>
   <g id="matplotlib.axis_2">
    <g id="ytick_1">
     <g id="line2d_9">
      <defs>
       <path id="m1c60cf9ae0" d="M 0 0 
L -3.5 0 
" style="stroke: #000000; stroke-width: 0.8"/>
      </defs>
      <g>
       <use xlink:href="#m1c60cf9ae0" x="57.6" y="307.584" style="stroke: #000000; stroke-width: 0.8"/>
      </g>
     </g>
     <g id="text_10">
      <!-- 0.0 -->
      <g transform="translate(34.696875 311.383219) scale(0.1 -0.1)">
       <defs>
        <path id="DejaVuSans-2e" d="M 684 794 
L 1344 794 
L 1344 0 
L 684 0 
L 684 794 
z
" transform="scale(0.015625)"/>
       </defs>
       <use xlink:href="#DejaVuSans-30"/>
       <use xlink:href="#DejaVuSans-2e" x="63.623047"/>
       <use xlink:href="#DejaVuSans-30" x="95.410156"/>
      </g>
     </g>
    </g>
    <g id="ytick_2">
     <g id="line2d_10">
      <g>
       <use xlink:href="#m1c60cf9ae0" x="57.6" y="255.403217" style="stroke: #000000; stroke-width: 0.8"/>
      </g>
     </g>
     <g id="text_11">
      <!-- 0.2 -->
      <g transform="translate(34.696875 259.202436) scale(0.1 -0.1)">
       <use xlink:href="#DejaVuSans-30"/>
       <use xlink:href="#DejaVuSans-2e" x="63.623047"/>
       <use xlink:href="#DejaVuSans-32" x="95.410156"/>
      </g>
     </g>
    </g>
    <g id="ytick_3">
     <g id="line2d_11">
      <g>
       <use xlink:href="#m1c60cf9ae0" x="57.6" y="203.222435" style="stroke: #000000; stroke-width: 0.8"/>
      </g>
     </g>
     <g id="text_12">
      <!-- 0.4 -->
      <g transform="translate(34.696875 207.021654) scale(0.1 -0.1)">
       <use xlink:href="#DejaVuSans-30"/>
       <use xlink:href="#DejaVuSans-2e" x="63.623047"/>
       <use xlink:href="#DejaVuSans-34" x="95.410156"/>
      </g>
     </g>
    </g>
    <g id="ytick_4">
     <g id="line2d_12">
      <g>
       <use xlink:href="#m1c60cf9ae0" x="57.6" y="151.041652" style="stroke: #000000; stroke-width: 0.8"/>
      </g>
     </g>
     <g id="text_13">
      <!-- 0.6 -->
      <g transform="translate(34.696875 154.840871) scale(0.1 -0.1)">
       <use xlink:href="#DejaVuSans-30"/>
       <use xlink:href="#DejaVuSans-2e" x="63.623047"/>
       <use xlink:href="#DejaVuSans-36" x="95.410156"/>
      </g>
     </g>
    </g>
    <g id="ytick_5">
     <g id="line2d_13">
      <g>
       <use xlink:href="#m1c60cf9ae0" x="57.6" y="98.86087" style="stroke: #000000; stroke-width: 0.8"/>
      </g>
     </g>
     <g id="text_14">
      <!-- 0.8 -->
      <g transform="translate(34.696875 102.660089) scale(0.1 -0.1)">
       <use xlink:href="#DejaVuSans-30"/>
       <use xlink:href="#DejaVuSans-2e" x="63.623047"/>
       <use xlink:href="#DejaVuSans-38" x="95.410156"/>
      </g>
     </g>
    </g>
    <g id="ytick_6">
     <g id="line2d_14">
      <g>
       <use xlink:href="#m1c60cf9ae0" x="57.6" y="46.680087" style="stroke: #000000; stroke-width: 0.8"/>
      </g>
     </g>
     <g id="text_15">
      <!-- 1.0 -->
      <g transform="translate(34.696875 50.479306) scale(0.1 -0.1)">
       <use xlink:href="#DejaVuSans-31"/>
       <use xlink:href="#DejaVuSans-2e" x="63.623047"/>
       <use xlink:href="#DejaVuSans-30" x="95.410156"/>
      </g>
     </g>
    </g>
   </g>
   <g id="line2d_15">
    <path d="M 73.832727 244.346318 
L 76.011617 204.471582 
L 78.190506 195.662602 
L 80.369396 188.127927 
L 82.548286 210.892294 
L 84.727175 166.745623 
L 86.906065 182.650129 
L 89.084954 165.97737 
L 91.263844 165.651441 
L 93.442733 155.180769 
L 95.621623 139.560726 
L 97.800513 157.154605 
L 99.979402 166.583508 
L 102.158292 125.857811 
L 104.337181 117.211953 
L 106.516071 112.245532 
L 108.69496 101.833464 
L 110.87385 109.121768 
L 113.052739 127.09158 
L 115.231629 109.105275 
L 117.410519 120.269257 
L 119.589408 108.197844 
L 121.768298 125.283258 
L 123.947187 117.670225 
L 126.126077 105.497067 
L 128.304966 108.913403 
L 130.483856 114.829955 
L 132.662746 118.506946 
L 134.841635 96.622538 
L 137.020525 106.215863 
L 139.199414 100.754017 
L 141.378304 99.534375 
L 143.557193 125.355876 
L 145.736083 100.644805 
L 147.914973 99.949425 
L 150.093862 97.216175 
L 152.272752 102.428805 
L 154.451641 102.811796 
L 156.630531 117.634652 
L 158.80942 103.242438 
L 160.98831 103.388838 
L 163.1672 112.804447 
L 165.346089 100.014783 
L 167.524979 110.948748 
L 169.703868 103.168637 
L 171.882758 116.891468 
L 174.061647 99.016525 
L 176.240537 100.08163 
L 178.419426 97.865034 
L 180.598316 135.827728 
L 182.777206 118.635128 
L 184.956095 97.444036 
L 187.134985 97.765578 
L 189.313874 98.281945 
L 191.492764 104.337002 
L 193.671653 106.246598 
L 195.850543 99.881659 
L 198.029433 118.317184 
L 200.208322 105.634182 
L 202.387212 98.186215 
L 204.566101 106.52033 
L 208.92388 118.770162 
L 211.10277 97.821631 
L 213.28166 99.625207 
L 215.460549 116.006007 
L 217.639439 109.386398 
L 219.818328 98.803652 
L 221.997218 96.69845 
L 224.176107 111.506565 
L 226.354997 110.222963 
L 228.533887 117.667007 
L 230.712776 100.946659 
L 232.891666 105.432505 
L 235.070555 107.755085 
L 237.249445 103.06984 
L 239.428334 107.402779 
L 241.607224 103.75974 
L 243.786113 113.889162 
L 245.965003 101.752122 
L 248.143893 111.309307 
L 250.322782 111.85365 
L 252.501672 103.116646 
L 254.680561 107.01323 
L 256.859451 108.083407 
L 259.03834 103.020855 
L 263.39612 109.884158 
L 265.575009 102.991582 
L 267.753899 97.494833 
L 269.932788 109.603357 
L 272.111678 103.444741 
L 274.290567 100.602356 
L 276.469457 101.845045 
L 278.648347 105.521485 
L 280.827236 95.690117 
L 283.006126 102.11669 
L 285.185015 102.806791 
L 287.363905 92.629416 
L 289.542794 97.555903 
L 291.721684 109.460008 
L 293.900574 97.599545 
L 296.079463 94.738633 
L 298.258353 95.027402 
L 300.437242 113.064272 
L 302.616132 115.695133 
L 304.795021 106.387743 
L 306.973911 106.711306 
L 309.1528 94.317215 
L 311.33169 101.489045 
L 313.51058 101.545858 
L 315.689469 101.372994 
L 317.868359 94.731124 
L 320.047248 102.338258 
L 322.226138 111.787073 
L 324.405027 112.279283 
L 326.583917 95.532681 
L 328.762807 98.601678 
L 330.941696 100.831543 
L 333.120586 90.28298 
L 335.299475 137.98905 
L 337.478365 106.447051 
L 339.657254 103.811364 
L 341.836144 105.14888 
L 344.015034 96.647978 
L 346.193923 100.254522 
L 348.372813 108.629609 
L 350.551702 104.222551 
L 352.730592 103.504158 
L 354.909481 100.738842 
L 357.088371 85.824 
L 359.267261 106.294698 
L 361.44615 101.915726 
L 363.62504 102.257003 
L 365.803929 90.324446 
L 367.982819 103.92913 
L 370.161708 101.414398 
L 372.340598 108.119508 
L 374.519487 104.603134 
L 376.698377 110.980589 
L 378.877267 95.648787 
L 381.056156 103.534001 
L 383.235046 105.555843 
L 385.413935 104.075202 
L 387.592825 96.713423 
L 389.771714 90.825105 
L 391.950604 99.113396 
L 394.129494 104.895733 
L 396.308383 106.805249 
L 398.487273 104.124693 
L 398.487273 104.124693 
" clip-path="url(#p41d101e10a)" style="fill: none; stroke: #1f77b4; stroke-linecap: square"/>
   </g>
   <g id="line2d_16">
    <path d="M 73.832727 248.837578 
L 76.011617 248.835869 
L 78.190506 238.16089 
L 80.369396 235.329124 
L 82.548286 248.838433 
L 84.727175 211.735553 
L 86.906065 245.047966 
L 89.084954 199.781706 
L 91.263844 193.104743 
L 93.442733 196.495687 
L 95.621623 193.037907 
L 97.800513 180.960983 
L 99.979402 201.336214 
L 102.158292 200.602556 
L 104.337181 204.54728 
L 106.516071 207.735139 
L 110.87385 192.848956 
L 113.052739 182.608016 
L 115.231629 174.314406 
L 117.410519 193.325466 
L 119.589408 192.244994 
L 121.768298 175.320409 
L 123.947187 188.614829 
L 126.126077 190.641111 
L 128.304966 187.554879 
L 130.483856 204.859658 
L 132.662746 176.736142 
L 134.841635 189.930068 
L 137.020525 175.365437 
L 139.199414 176.749783 
L 141.378304 173.547484 
L 143.557193 183.189267 
L 145.736083 183.180024 
L 147.914973 175.699276 
L 150.093862 175.147522 
L 152.272752 202.395639 
L 154.451641 195.234592 
L 156.630531 185.262894 
L 158.80942 182.900154 
L 160.98831 194.832607 
L 163.1672 198.242662 
L 165.346089 157.659559 
L 167.524979 178.602712 
L 169.703868 167.174911 
L 171.882758 176.774637 
L 174.061647 193.681801 
L 176.240537 164.237164 
L 178.419426 201.737344 
L 180.598316 196.876076 
L 182.777206 198.573009 
L 184.956095 165.227325 
L 187.134985 191.797758 
L 189.313874 186.855556 
L 191.492764 183.277572 
L 195.850543 172.937318 
L 198.029433 175.513148 
L 200.208322 171.09339 
L 202.387212 199.797577 
L 204.566101 183.646833 
L 206.744991 174.310203 
L 211.10277 187.855306 
L 213.28166 202.718194 
L 215.460549 188.685715 
L 217.639439 179.322602 
L 219.818328 171.917314 
L 221.997218 170.920742 
L 224.176107 181.055275 
L 226.354997 165.400178 
L 228.533887 167.133889 
L 230.712776 172.787274 
L 232.891666 159.682195 
L 235.070555 174.178262 
L 237.249445 162.925601 
L 239.428334 193.178988 
L 241.607224 163.768919 
L 243.786113 181.314761 
L 245.965003 176.967293 
L 248.143893 190.249715 
L 250.322782 180.857321 
L 252.501672 165.421884 
L 254.680561 172.426525 
L 256.859451 190.510629 
L 259.03834 181.474089 
L 261.21723 201.971608 
L 263.39612 166.011458 
L 265.575009 170.894647 
L 267.753899 179.693208 
L 269.932788 172.795395 
L 272.111678 184.158615 
L 274.290567 184.063099 
L 276.469457 194.129364 
L 278.648347 167.008065 
L 280.827236 197.80542 
L 283.006126 174.735714 
L 285.185015 165.439822 
L 287.363905 179.894839 
L 289.542794 168.746312 
L 291.721684 187.640483 
L 293.900574 168.959634 
L 296.079463 163.657977 
L 298.258353 186.403858 
L 300.437242 164.917125 
L 302.616132 202.131748 
L 304.795021 176.088855 
L 306.973911 169.442399 
L 309.1528 166.379985 
L 311.33169 183.990679 
L 313.51058 173.070384 
L 315.689469 205.17965 
L 317.868359 180.150051 
L 320.047248 168.494699 
L 322.226138 179.870958 
L 324.405027 172.771979 
L 326.583917 186.851295 
L 328.762807 169.309731 
L 330.941696 160.054229 
L 333.120586 156.776214 
L 335.299475 182.729529 
L 337.478365 175.625173 
L 339.657254 171.551041 
L 341.836144 170.613643 
L 344.015034 204.261089 
L 346.193923 175.811282 
L 348.372813 158.241854 
L 350.551702 192.153494 
L 352.730592 181.738862 
L 354.909481 164.89367 
L 357.088371 163.333373 
L 359.267261 176.005611 
L 361.44615 176.989035 
L 363.62504 164.669303 
L 365.803929 157.549668 
L 367.982819 159.814086 
L 370.161708 163.042751 
L 372.340598 177.376122 
L 374.519487 161.498333 
L 376.698377 188.254517 
L 378.877267 162.103928 
L 381.056156 194.862312 
L 383.235046 175.565234 
L 385.413935 162.037129 
L 387.592825 176.633698 
L 389.771714 184.361517 
L 391.950604 167.004277 
L 394.129494 186.69517 
L 396.308383 182.879345 
L 398.487273 203.851164 
L 398.487273 203.851164 
" clip-path="url(#p41d101e10a)" style="fill: none; stroke: #ff7f0e; stroke-linecap: square"/>
   </g>
   <g id="line2d_17">
    <path d="M 73.832727 210.215524 
L 76.011617 249.698121 
L 78.190506 249.655753 
L 80.369396 249.251609 
L 82.548286 249.82707 
L 84.727175 249.299224 
L 86.906065 249.015477 
L 89.084954 249.705506 
L 91.263844 198.933489 
L 93.442733 198.74052 
L 95.621623 194.395314 
L 97.800513 279.533095 
L 99.979402 169.907222 
L 102.158292 182.733997 
L 104.337181 188.08921 
L 106.516071 176.883761 
L 108.69496 191.140142 
L 110.87385 192.47101 
L 113.052739 186.5504 
L 115.231629 199.994911 
L 117.410519 188.970171 
L 119.589408 182.235226 
L 121.768298 196.727763 
L 123.947187 166.322297 
L 126.126077 180.469909 
L 128.304966 185.052185 
L 130.483856 162.418323 
L 132.662746 173.813006 
L 134.841635 159.688317 
L 137.020525 149.068822 
L 139.199414 147.379994 
L 141.378304 157.892807 
L 143.557193 158.366278 
L 145.736083 155.63749 
L 147.914973 149.111283 
L 150.093862 196.954312 
L 154.451641 141.88128 
L 156.630531 135.323755 
L 158.80942 145.178702 
L 160.98831 144.730882 
L 163.1672 153.684617 
L 165.346089 151.897751 
L 167.524979 131.782376 
L 169.703868 154.489848 
L 171.882758 135.734144 
L 174.061647 140.099975 
L 176.240537 166.374221 
L 178.419426 151.524816 
L 180.598316 147.77503 
L 182.777206 146.396231 
L 184.956095 181.336898 
L 187.134985 145.270597 
L 189.313874 139.690156 
L 191.492764 131.75906 
L 193.671653 139.984772 
L 195.850543 150.342171 
L 198.029433 137.79456 
L 200.208322 153.468241 
L 202.387212 146.217479 
L 204.566101 129.151058 
L 206.744991 127.859174 
L 208.92388 156.57901 
L 211.10277 162.664694 
L 213.28166 135.627066 
L 215.460549 158.624898 
L 217.639439 124.617446 
L 219.818328 130.414872 
L 221.997218 148.935829 
L 224.176107 117.858046 
L 226.354997 143.795336 
L 228.533887 119.342076 
L 230.712776 133.158568 
L 232.891666 143.657238 
L 235.070555 149.129582 
L 237.249445 123.623469 
L 239.428334 119.848777 
L 241.607224 120.737739 
L 243.786113 126.340532 
L 245.965003 123.273273 
L 248.143893 134.594778 
L 250.322782 120.535495 
L 252.501672 123.203883 
L 254.680561 151.674863 
L 256.859451 125.383313 
L 259.03834 118.327503 
L 261.21723 129.802415 
L 263.39612 119.079072 
L 265.575009 123.889678 
L 267.753899 119.718227 
L 269.932788 132.631802 
L 272.111678 122.004126 
L 274.290567 144.973969 
L 276.469457 124.352489 
L 278.648347 121.605635 
L 280.827236 138.856128 
L 283.006126 136.578881 
L 285.185015 125.796182 
L 287.363905 126.368305 
L 289.542794 123.845946 
L 291.721684 119.938001 
L 293.900574 123.767713 
L 296.079463 118.933378 
L 298.258353 115.231783 
L 300.437242 136.291116 
L 302.616132 145.109257 
L 304.795021 120.970443 
L 306.973911 116.752393 
L 309.1528 120.408077 
L 311.33169 125.165904 
L 313.51058 116.382414 
L 315.689469 125.306843 
L 317.868359 130.445207 
L 320.047248 111.816843 
L 322.226138 112.413568 
L 324.405027 139.235339 
L 326.583917 130.276457 
L 328.762807 133.601973 
L 330.941696 124.173051 
L 333.120586 133.339291 
L 335.299475 136.930294 
L 337.478365 122.487224 
L 339.657254 111.28184 
L 341.836144 135.77842 
L 344.015034 136.357168 
L 346.193923 147.821201 
L 348.372813 125.037784 
L 350.551702 116.163864 
L 352.730592 134.647297 
L 354.909481 120.07275 
L 357.088371 118.325094 
L 359.267261 123.219872 
L 361.44615 131.360887 
L 363.62504 123.046608 
L 365.803929 127.516827 
L 367.982819 127.142435 
L 370.161708 121.915225 
L 372.340598 113.64259 
L 374.519487 152.468573 
L 376.698377 146.949134 
L 378.877267 118.801928 
L 381.056156 122.768235 
L 383.235046 129.995199 
L 385.413935 125.602087 
L 387.592825 150.983097 
L 389.771714 124.120418 
L 394.129494 144.11549 
L 396.308383 113.569665 
L 398.487273 140.918698 
L 398.487273 140.918698 
" clip-path="url(#p41d101e10a)" style="fill: none; stroke: #2ca02c; stroke-linecap: square"/>
   </g>
   <g id="line2d_18">
    <path d="M 73.832727 248.630508 
L 78.190506 248.683681 
L 80.369396 212.908179 
L 82.548286 248.689589 
L 84.727175 180.60248 
L 86.906065 196.458261 
L 89.084954 244.065338 
L 91.263844 172.11229 
L 93.442733 248.636416 
L 95.621623 247.398884 
L 97.800513 165.861185 
L 99.979402 181.932282 
L 102.158292 180.503961 
L 104.337181 177.1458 
L 106.516071 177.444866 
L 108.69496 175.272654 
L 110.87385 169.482724 
L 113.052739 157.877942 
L 115.231629 170.395447 
L 117.410519 147.411227 
L 119.589408 131.284408 
L 121.768298 136.983037 
L 123.947187 162.196992 
L 126.126077 146.091328 
L 128.304966 164.328161 
L 130.483856 140.04258 
L 132.662746 126.861851 
L 134.841635 138.415489 
L 137.020525 122.408349 
L 139.199414 132.993086 
L 141.378304 108.467371 
L 143.557193 132.438593 
L 145.736083 164.464754 
L 147.914973 134.064942 
L 150.093862 132.857853 
L 152.272752 140.143981 
L 154.451641 119.296645 
L 156.630531 110.670481 
L 158.80942 110.296171 
L 160.98831 117.448736 
L 163.1672 109.60944 
L 165.346089 108.322578 
L 167.524979 127.288212 
L 169.703868 131.720274 
L 171.882758 126.977665 
L 174.061647 119.368192 
L 178.419426 100.692399 
L 180.598316 109.416805 
L 182.777206 101.884489 
L 184.956095 125.456831 
L 187.134985 116.199553 
L 189.313874 125.096687 
L 191.492764 155.363505 
L 193.671653 99.844554 
L 195.850543 103.069275 
L 198.029433 117.087808 
L 200.208322 141.648886 
L 202.387212 109.018769 
L 204.566101 140.5497 
L 206.744991 91.76864 
L 208.92388 103.501028 
L 211.10277 102.96097 
L 213.28166 103.115486 
L 215.460549 109.741558 
L 217.639439 96.670312 
L 219.818328 101.620397 
L 221.997218 117.267608 
L 224.176107 127.558797 
L 226.354997 97.536241 
L 228.533887 108.651851 
L 230.712776 114.003468 
L 232.891666 101.612933 
L 235.070555 110.930793 
L 237.249445 98.456243 
L 239.428334 104.413852 
L 241.607224 100.087393 
L 243.786113 100.531524 
L 245.965003 100.768392 
L 248.143893 96.309413 
L 250.322782 100.595685 
L 252.501672 118.427846 
L 254.680561 108.46296 
L 256.859451 97.347264 
L 259.03834 100.330439 
L 261.21723 103.090794 
L 263.39612 95.027207 
L 265.575009 143.460219 
L 267.753899 98.529087 
L 269.932788 99.338378 
L 272.111678 101.248954 
L 274.290567 100.040792 
L 276.469457 108.073552 
L 278.648347 102.43594 
L 280.827236 101.808007 
L 283.006126 102.635669 
L 285.185015 103.681843 
L 287.363905 101.454401 
L 289.542794 101.187392 
L 291.721684 104.771473 
L 293.900574 103.247353 
L 296.079463 104.87037 
L 298.258353 96.739949 
L 300.437242 97.765297 
L 302.616132 101.510484 
L 304.795021 105.540265 
L 306.973911 102.404789 
L 309.1528 113.123693 
L 311.33169 105.450445 
L 313.51058 102.069853 
L 315.689469 95.819265 
L 317.868359 136.688548 
L 320.047248 94.163279 
L 322.226138 108.515751 
L 324.405027 96.315219 
L 326.583917 107.850828 
L 328.762807 101.735457 
L 330.941696 109.069689 
L 333.120586 102.123279 
L 335.299475 107.081592 
L 337.478365 94.158758 
L 339.657254 105.637484 
L 341.836144 104.826808 
L 344.015034 109.309264 
L 346.193923 107.555383 
L 348.372813 98.588257 
L 350.551702 101.832249 
L 352.730592 98.707606 
L 354.909481 111.430668 
L 357.088371 108.510133 
L 359.267261 99.700899 
L 361.44615 99.43016 
L 363.62504 98.782836 
L 365.803929 101.481949 
L 367.982819 114.377206 
L 370.161708 103.812373 
L 372.340598 101.225075 
L 374.519487 100.02493 
L 376.698377 97.915974 
L 378.877267 102.636076 
L 381.056156 98.432441 
L 383.235046 102.209888 
L 385.413935 102.404546 
L 387.592825 106.374255 
L 389.771714 103.054313 
L 391.950604 105.189417 
L 394.129494 98.980773 
L 396.308383 115.596095 
L 398.487273 102.819837 
L 398.487273 102.819837 
" clip-path="url(#p41d101e10a)" style="fill: none; stroke: #d62728; stroke-linecap: square"/>
   </g>
   <g id="patch_3">
    <path d="M 57.6 307.584 
L 57.6 41.472 
" style="fill: none; stroke: #000000; stroke-width: 0.8; stroke-linejoin: miter; stroke-linecap: square"/>
   </g>
   <g id="patch_4">
    <path d="M 414.72 307.584 
L 414.72 41.472 
" style="fill: none; stroke: #000000; stroke-width: 0.8; stroke-linejoin: miter; stroke-linecap: square"/>
   </g>
   <g id="patch_5">
    <path d="M 57.6 307.584 
L 414.72 307.584 
" style="fill: none; stroke: #000000; stroke-width: 0.8; stroke-linejoin: miter; stroke-linecap: square"/>
   </g>
   <g id="patch_6">
    <path d="M 57.6 41.472 
L 414.72 41.472 
" style="fill: none; stroke: #000000; stroke-width: 0.8; stroke-linejoin: miter; stroke-linecap: square"/>
   </g>
   <g id="text_16">
    <!-- Precision of POD -->
    <g transform="translate(186.833438 35.472) scale(0.12 -0.12)">
     <defs>
      <path id="DejaVuSans-50" d="M 1259 4147 
L 1259 2394 
L 2053 2394 
Q 2494 2394 2734 2622 
Q 2975 2850 2975 3272 
Q 2975 3691 2734 3919 
Q 2494 4147 2053 4147 
L 1259 4147 
z
M 628 4666 
L 2053 4666 
Q 2838 4666 3239 4311 
Q 3641 3956 3641 3272 
Q 3641 2581 3239 2228 
Q 2838 1875 2053 1875 
L 1259 1875 
L 1259 0 
L 628 0 
L 628 4666 
z
" transform="scale(0.015625)"/>
      <path id="DejaVuSans-72" d="M 2631 2963 
Q 2534 3019 2420 3045 
Q 2306 3072 2169 3072 
Q 1681 3072 1420 2755 
Q 1159 2438 1159 1844 
L 1159 0 
L 581 0 
L 581 3500 
L 1159 3500 
L 1159 2956 
Q 1341 3275 1631 3429 
Q 1922 3584 2338 3584 
Q 2397 3584 2469 3576 
Q 2541 3569 2628 3553 
L 2631 2963 
z
" transform="scale(0.015625)"/>
      <path id="DejaVuSans-69" d="M 603 3500 
L 1178 3500 
L 1178 0 
L 603 0 
L 603 3500 
z
M 603 4863 
L 1178 4863 
L 1178 4134 
L 603 4134 
L 603 4863 
z
" transform="scale(0.015625)"/>
      <path id="DejaVuSans-73" d="M 2834 3397 
L 2834 2853 
Q 2591 2978 2328 3040 
Q 2066 3103 1784 3103 
Q 1356 3103 1142 2972 
Q 928 2841 928 2578 
Q 928 2378 1081 2264 
Q 1234 2150 1697 2047 
L 1894 2003 
Q 2506 1872 2764 1633 
Q 3022 1394 3022 966 
Q 3022 478 2636 193 
Q 2250 -91 1575 -91 
Q 1294 -91 989 -36 
Q 684 19 347 128 
L 347 722 
Q 666 556 975 473 
Q 1284 391 1588 391 
Q 1994 391 2212 530 
Q 2431 669 2431 922 
Q 2431 1156 2273 1281 
Q 2116 1406 1581 1522 
L 1381 1569 
Q 847 1681 609 1914 
Q 372 2147 372 2553 
Q 372 3047 722 3315 
Q 1072 3584 1716 3584 
Q 2034 3584 2315 3537 
Q 2597 3491 2834 3397 
z
" transform="scale(0.015625)"/>
      <path id="DejaVuSans-6e" d="M 3513 2113 
L 3513 0 
L 2938 0 
L 2938 2094 
Q 2938 2591 2744 2837 
Q 2550 3084 2163 3084 
Q 1697 3084 1428 2787 
Q 1159 2491 1159 1978 
L 1159 0 
L 581 0 
L 581 3500 
L 1159 3500 
L 1159 2956 
Q 1366 3272 1645 3428 
Q 1925 3584 2291 3584 
Q 2894 3584 3203 3211 
Q 3513 2838 3513 2113 
z
" transform="scale(0.015625)"/>
      <path id="DejaVuSans-20" transform="scale(0.015625)"/>
      <path id="DejaVuSans-66" d="M 2375 4863 
L 2375 4384 
L 1825 4384 
Q 1516 4384 1395 4259 
Q 1275 4134 1275 3809 
L 1275 3500 
L 2222 3500 
L 2222 3053 
L 1275 3053 
L 1275 0 
L 697 0 
L 697 3053 
L 147 3053 
L 147 3500 
L 697 3500 
L 697 3744 
Q 697 4328 969 4595 
Q 1241 4863 1831 4863 
L 2375 4863 
z
" transform="scale(0.015625)"/>
      <path id="DejaVuSans-4f" d="M 2522 4238 
Q 1834 4238 1429 3725 
Q 1025 3213 1025 2328 
Q 1025 1447 1429 934 
Q 1834 422 2522 422 
Q 3209 422 3611 934 
Q 4013 1447 4013 2328 
Q 4013 3213 3611 3725 
Q 3209 4238 2522 4238 
z
M 2522 4750 
Q 3503 4750 4090 4092 
Q 4678 3434 4678 2328 
Q 4678 1225 4090 567 
Q 3503 -91 2522 -91 
Q 1538 -91 948 565 
Q 359 1222 359 2328 
Q 359 3434 948 4092 
Q 1538 4750 2522 4750 
z
" transform="scale(0.015625)"/>
      <path id="DejaVuSans-44" d="M 1259 4147 
L 1259 519 
L 2022 519 
Q 2988 519 3436 956 
Q 3884 1394 3884 2338 
Q 3884 3275 3436 3711 
Q 2988 4147 2022 4147 
L 1259 4147 
z
M 628 4666 
L 1925 4666 
Q 3281 4666 3915 4102 
Q 4550 3538 4550 2338 
Q 4550 1131 3912 565 
Q 3275 0 1925 0 
L 628 0 
L 628 4666 
z
" transform="scale(0.015625)"/>
     </defs>
     <use xlink:href="#DejaVuSans-50"/>
     <use xlink:href="#DejaVuSans-72" x="58.552734"/>
     <use xlink:href="#DejaVuSans-65" x="97.416016"/>
     <use xlink:href="#DejaVuSans-63" x="158.939453"/>
     <use xlink:href="#DejaVuSans-69" x="213.919922"/>
     <use xlink:href="#DejaVuSans-73" x="241.703125"/>
     <use xlink:href="#DejaVuSans-69" x="293.802734"/>
     <use xlink:href="#DejaVuSans-6f" x="321.585938"/>
     <use xlink:href="#DejaVuSans-6e" x="382.767578"/>
     <use xlink:href="#DejaVuSans-20" x="446.146484"/>
     <use xlink:href="#DejaVuSans-6f" x="477.933594"/>
     <use xlink:href="#DejaVuSans-66" x="539.115234"/>
     <use xlink:href="#DejaVuSans-20" x="574.320312"/>
     <use xlink:href="#DejaVuSans-50" x="606.107422"/>
     <use xlink:href="#DejaVuSans-4f" x="666.410156"/>
     <use xlink:href="#DejaVuSans-44" x="745.121094"/>
    </g>
   </g>
   <g id="legend_1">
    <g id="patch_7">
     <path d="M 299.162188 302.584 
L 407.72 302.584 
Q 409.72 302.584 409.72 300.584 
L 409.72 242.8715 
Q 409.72 240.8715 407.72 240.8715 
L 299.162188 240.8715 
Q 297.162188 240.8715 297.162188 242.8715 
L 297.162188 300.584 
Q 297.162188 302.584 299.162188 302.584 
z
" style="fill: #ffffff; opacity: 0.8; stroke: #cccccc; stroke-linejoin: miter"/>
    </g>
    <g id="line2d_19">
     <path d="M 301.162188 248.969937 
L 311.162188 248.969937 
L 321.162188 248.969937 
" style="fill: none; stroke: #1f77b4; stroke-linecap: square"/>
    </g>
    <g id="text_17">
     <!-- 2000 samples -->
     <g transform="translate(329.162188 252.469937) scale(0.1 -0.1)">
      <defs>
       <path id="DejaVuSans-61" d="M 2194 1759 
Q 1497 1759 1228 1600 
Q 959 1441 959 1056 
Q 959 750 1161 570 
Q 1363 391 1709 391 
Q 2188 391 2477 730 
Q 2766 1069 2766 1631 
L 2766 1759 
L 2194 1759 
z
M 3341 1997 
L 3341 0 
L 2766 0 
L 2766 531 
Q 2569 213 2275 61 
Q 1981 -91 1556 -91 
Q 1019 -91 701 211 
Q 384 513 384 1019 
Q 384 1609 779 1909 
Q 1175 2209 1959 2209 
L 2766 2209 
L 2766 2266 
Q 2766 2663 2505 2880 
Q 2244 3097 1772 3097 
Q 1472 3097 1187 3025 
Q 903 2953 641 2809 
L 641 3341 
Q 956 3463 1253 3523 
Q 1550 3584 1831 3584 
Q 2591 3584 2966 3190 
Q 3341 2797 3341 1997 
z
" transform="scale(0.015625)"/>
       <path id="DejaVuSans-6d" d="M 3328 2828 
Q 3544 3216 3844 3400 
Q 4144 3584 4550 3584 
Q 5097 3584 5394 3201 
Q 5691 2819 5691 2113 
L 5691 0 
L 5113 0 
L 5113 2094 
Q 5113 2597 4934 2840 
Q 4756 3084 4391 3084 
Q 3944 3084 3684 2787 
Q 3425 2491 3425 1978 
L 3425 0 
L 2847 0 
L 2847 2094 
Q 2847 2600 2669 2842 
Q 2491 3084 2119 3084 
Q 1678 3084 1418 2786 
Q 1159 2488 1159 1978 
L 1159 0 
L 581 0 
L 581 3500 
L 1159 3500 
L 1159 2956 
Q 1356 3278 1631 3431 
Q 1906 3584 2284 3584 
Q 2666 3584 2933 3390 
Q 3200 3197 3328 2828 
z
" transform="scale(0.015625)"/>
       <path id="DejaVuSans-6c" d="M 603 4863 
L 1178 4863 
L 1178 0 
L 603 0 
L 603 4863 
z
" transform="scale(0.015625)"/>
      </defs>
      <use xlink:href="#DejaVuSans-32"/>
      <use xlink:href="#DejaVuSans-30" x="63.623047"/>
      <use xlink:href="#DejaVuSans-30" x="127.246094"/>
      <use xlink:href="#DejaVuSans-30" x="190.869141"/>
      <use xlink:href="#DejaVuSans-20" x="254.492188"/>
      <use xlink:href="#DejaVuSans-73" x="286.279297"/>
      <use xlink:href="#DejaVuSans-61" x="338.378906"/>
      <use xlink:href="#DejaVuSans-6d" x="399.658203"/>
      <use xlink:href="#DejaVuSans-70" x="497.070312"/>
      <use xlink:href="#DejaVuSans-6c" x="560.546875"/>
      <use xlink:href="#DejaVuSans-65" x="588.330078"/>
      <use xlink:href="#DejaVuSans-73" x="649.853516"/>
     </g>
    </g>
    <g id="line2d_20">
     <path d="M 301.162188 263.648062 
L 311.162188 263.648062 
L 321.162188 263.648062 
" style="fill: none; stroke: #ff7f0e; stroke-linecap: square"/>
    </g>
    <g id="text_18">
     <!-- 5000 samples -->
     <g transform="translate(329.162188 267.148062) scale(0.1 -0.1)">
      <defs>
       <path id="DejaVuSans-35" d="M 691 4666 
L 3169 4666 
L 3169 4134 
L 1269 4134 
L 1269 2991 
Q 1406 3038 1543 3061 
Q 1681 3084 1819 3084 
Q 2600 3084 3056 2656 
Q 3513 2228 3513 1497 
Q 3513 744 3044 326 
Q 2575 -91 1722 -91 
Q 1428 -91 1123 -41 
Q 819 9 494 109 
L 494 744 
Q 775 591 1075 516 
Q 1375 441 1709 441 
Q 2250 441 2565 725 
Q 2881 1009 2881 1497 
Q 2881 1984 2565 2268 
Q 2250 2553 1709 2553 
Q 1456 2553 1204 2497 
Q 953 2441 691 2322 
L 691 4666 
z
" transform="scale(0.015625)"/>
      </defs>
      <use xlink:href="#DejaVuSans-35"/>
      <use xlink:href="#DejaVuSans-30" x="63.623047"/>
      <use xlink:href="#DejaVuSans-30" x="127.246094"/>
      <use xlink:href="#DejaVuSans-30" x="190.869141"/>
      <use xlink:href="#DejaVuSans-20" x="254.492188"/>
      <use xlink:href="#DejaVuSans-73" x="286.279297"/>
      <use xlink:href="#DejaVuSans-61" x="338.378906"/>
      <use xlink:href="#DejaVuSans-6d" x="399.658203"/>
      <use xlink:href="#DejaVuSans-70" x="497.070312"/>
      <use xlink:href="#DejaVuSans-6c" x="560.546875"/>
      <use xlink:href="#DejaVuSans-65" x="588.330078"/>
      <use xlink:href="#DejaVuSans-73" x="649.853516"/>
     </g>
    </g>
    <g id="line2d_21">
     <path d="M 301.162188 278.326187 
L 311.162188 278.326187 
L 321.162188 278.326187 
" style="fill: none; stroke: #2ca02c; stroke-linecap: square"/>
    </g>
    <g id="text_19">
     <!-- 8000 samples -->
     <g transform="translate(329.162188 281.826187) scale(0.1 -0.1)">
      <use xlink:href="#DejaVuSans-38"/>
      <use xlink:href="#DejaVuSans-30" x="63.623047"/>
      <use xlink:href="#DejaVuSans-30" x="127.246094"/>
      <use xlink:href="#DejaVuSans-30" x="190.869141"/>
      <use xlink:href="#DejaVuSans-20" x="254.492188"/>
      <use xlink:href="#DejaVuSans-73" x="286.279297"/>
      <use xlink:href="#DejaVuSans-61" x="338.378906"/>
      <use xlink:href="#DejaVuSans-6d" x="399.658203"/>
      <use xlink:href="#DejaVuSans-70" x="497.070312"/>
      <use xlink:href="#DejaVuSans-6c" x="560.546875"/>
      <use xlink:href="#DejaVuSans-65" x="588.330078"/>
      <use xlink:href="#DejaVuSans-73" x="649.853516"/>
     </g>
    </g>
    <g id="line2d_22">
     <path d="M 301.162188 293.004312 
L 311.162188 293.004312 
L 321.162188 293.004312 
" style="fill: none; stroke: #d62728; stroke-linecap: square"/>
    </g>
    <g id="text_20">
     <!-- 10000 samples -->
     <g transform="translate(329.162188 296.504312) scale(0.1 -0.1)">
      <use xlink:href="#DejaVuSans-31"/>
      <use xlink:href="#DejaVuSans-30" x="63.623047"/>
      <use xlink:href="#DejaVuSans-30" x="127.246094"/>
      <use xlink:href="#DejaVuSans-30" x="190.869141"/>
      <use xlink:href="#DejaVuSans-30" x="254.492188"/>
      <use xlink:href="#DejaVuSans-20" x="318.115234"/>
      <use xlink:href="#DejaVuSans-73" x="349.902344"/>
      <use xlink:href="#DejaVuSans-61" x="402.001953"/>
      <use xlink:href="#DejaVuSans-6d" x="463.28125"/>
      <use xlink:href="#DejaVuSans-70" x="560.693359"/>
      <use xlink:href="#DejaVuSans-6c" x="624.169922"/>
      <use xlink:href="#DejaVuSans-65" x="651.953125"/>
      <use xlink:href="#DejaVuSans-73" x="713.476562"/>
     </g>
    </g>
   </g>
  </g>
 </g>
 <defs>
  <clipPath id="p41d101e10a">
   <rect x="57.6" y="41.472" width="357.12" height="266.112"/>
  </clipPath>
 </defs>
</svg>
