<?xml version="1.0" encoding="utf-8" standalone="no"?>
<!DOCTYPE svg PUBLIC "-//W3C//DTD SVG 1.1//EN"
  "http://www.w3.org/Graphics/SVG/1.1/DTD/svg11.dtd">
<svg xmlns:xlink="http://www.w3.org/1999/xlink" width="460.8pt" height="345.6pt" viewBox="0 0 460.8 345.6" xmlns="http://www.w3.org/2000/svg" version="1.1">
 <metadata>
  <rdf:RDF xmlns:dc="http://purl.org/dc/elements/1.1/" xmlns:cc="http://creativecommons.org/ns#" xmlns:rdf="http://www.w3.org/1999/02/22-rdf-syntax-ns#">
   <cc:Work>
    <dc:type rdf:resource="http://purl.org/dc/dcmitype/StillImage"/>
    <dc:date>2023-09-13T16:28:04.064388</dc:date>
    <dc:format>image/svg+xml</dc:format>
    <dc:creator>
     <cc:Agent>
      <dc:title>Matplotlib v3.7.1, https://matplotlib.org/</dc:title>
     </cc:Agent>
    </dc:creator>
   </cc:Work>
  </rdf:RDF>
 </metadata>
 <defs>
  <style type="text/css">*{stroke-linejoin: round; stroke-linecap: butt}</style>
 </defs>
 <g id="figure_1">
  <g id="patch_1">
   <path d="M 0 345.6 
L 460.8 345.6 
L 460.8 0 
L 0 0 
z
" style="fill: #ffffff"/>
  </g>
  <g id="axes_1">
   <g id="patch_2">
    <path d="M 57.6 307.584 
L 414.72 307.584 
L 414.72 41.472 
L 57.6 41.472 
z
" style="fill: #ffffff"/>
   </g>
   <g id="matplotlib.axis_1">
    <g id="xtick_1">
     <g id="line2d_1">
      <defs>
       <path id="m20393d46fd" d="M 0 0 
L 0 3.5 
" style="stroke: #000000; stroke-width: 0.8"/>
      </defs>
      <g>
       <use xlink:href="#m20393d46fd" x="71.653838" y="307.584" style="stroke: #000000; stroke-width: 0.8"/>
      </g>
     </g>
     <g id="text_1">
      <!-- 0 -->
      <g transform="translate(68.472588 322.182437) scale(0.1 -0.1)">
       <defs>
        <path id="DejaVuSans-30" d="M 2034 4250 
Q 1547 4250 1301 3770 
Q 1056 3291 1056 2328 
Q 1056 1369 1301 889 
Q 1547 409 2034 409 
Q 2525 409 2770 889 
Q 3016 1369 3016 2328 
Q 3016 3291 2770 3770 
Q 2525 4250 2034 4250 
z
M 2034 4750 
Q 2819 4750 3233 4129 
Q 3647 3509 3647 2328 
Q 3647 1150 3233 529 
Q 2819 -91 2034 -91 
Q 1250 -91 836 529 
Q 422 1150 422 2328 
Q 422 3509 836 4129 
Q 1250 4750 2034 4750 
z
" transform="scale(0.015625)"/>
       </defs>
       <use xlink:href="#DejaVuSans-30"/>
      </g>
     </g>
    </g>
    <g id="xtick_2">
     <g id="line2d_2">
      <g>
       <use xlink:href="#m20393d46fd" x="115.231629" y="307.584" style="stroke: #000000; stroke-width: 0.8"/>
      </g>
     </g>
     <g id="text_2">
      <!-- 20 -->
      <g transform="translate(108.869129 322.182437) scale(0.1 -0.1)">
       <defs>
        <path id="DejaVuSans-32" d="M 1228 531 
L 3431 531 
L 3431 0 
L 469 0 
L 469 531 
Q 828 903 1448 1529 
Q 2069 2156 2228 2338 
Q 2531 2678 2651 2914 
Q 2772 3150 2772 3378 
Q 2772 3750 2511 3984 
Q 2250 4219 1831 4219 
Q 1534 4219 1204 4116 
Q 875 4013 500 3803 
L 500 4441 
Q 881 4594 1212 4672 
Q 1544 4750 1819 4750 
Q 2544 4750 2975 4387 
Q 3406 4025 3406 3419 
Q 3406 3131 3298 2873 
Q 3191 2616 2906 2266 
Q 2828 2175 2409 1742 
Q 1991 1309 1228 531 
z
" transform="scale(0.015625)"/>
       </defs>
       <use xlink:href="#DejaVuSans-32"/>
       <use xlink:href="#DejaVuSans-30" x="63.623047"/>
      </g>
     </g>
    </g>
    <g id="xtick_3">
     <g id="line2d_3">
      <g>
       <use xlink:href="#m20393d46fd" x="158.80942" y="307.584" style="stroke: #000000; stroke-width: 0.8"/>
      </g>
     </g>
     <g id="text_3">
      <!-- 40 -->
      <g transform="translate(152.44692 322.182437) scale(0.1 -0.1)">
       <defs>
        <path id="DejaVuSans-34" d="M 2419 4116 
L 825 1625 
L 2419 1625 
L 2419 4116 
z
M 2253 4666 
L 3047 4666 
L 3047 1625 
L 3713 1625 
L 3713 1100 
L 3047 1100 
L 3047 0 
L 2419 0 
L 2419 1100 
L 313 1100 
L 313 1709 
L 2253 4666 
z
" transform="scale(0.015625)"/>
       </defs>
       <use xlink:href="#DejaVuSans-34"/>
       <use xlink:href="#DejaVuSans-30" x="63.623047"/>
      </g>
     </g>
    </g>
    <g id="xtick_4">
     <g id="line2d_4">
      <g>
       <use xlink:href="#m20393d46fd" x="202.387212" y="307.584" style="stroke: #000000; stroke-width: 0.8"/>
      </g>
     </g>
     <g id="text_4">
      <!-- 60 -->
      <g transform="translate(196.024712 322.182437) scale(0.1 -0.1)">
       <defs>
        <path id="DejaVuSans-36" d="M 2113 2584 
Q 1688 2584 1439 2293 
Q 1191 2003 1191 1497 
Q 1191 994 1439 701 
Q 1688 409 2113 409 
Q 2538 409 2786 701 
Q 3034 994 3034 1497 
Q 3034 2003 2786 2293 
Q 2538 2584 2113 2584 
z
M 3366 4563 
L 3366 3988 
Q 3128 4100 2886 4159 
Q 2644 4219 2406 4219 
Q 1781 4219 1451 3797 
Q 1122 3375 1075 2522 
Q 1259 2794 1537 2939 
Q 1816 3084 2150 3084 
Q 2853 3084 3261 2657 
Q 3669 2231 3669 1497 
Q 3669 778 3244 343 
Q 2819 -91 2113 -91 
Q 1303 -91 875 529 
Q 447 1150 447 2328 
Q 447 3434 972 4092 
Q 1497 4750 2381 4750 
Q 2619 4750 2861 4703 
Q 3103 4656 3366 4563 
z
" transform="scale(0.015625)"/>
       </defs>
       <use xlink:href="#DejaVuSans-36"/>
       <use xlink:href="#DejaVuSans-30" x="63.623047"/>
      </g>
     </g>
    </g>
    <g id="xtick_5">
     <g id="line2d_5">
      <g>
       <use xlink:href="#m20393d46fd" x="245.965003" y="307.584" style="stroke: #000000; stroke-width: 0.8"/>
      </g>
     </g>
     <g id="text_5">
      <!-- 80 -->
      <g transform="translate(239.602503 322.182437) scale(0.1 -0.1)">
       <defs>
        <path id="DejaVuSans-38" d="M 2034 2216 
Q 1584 2216 1326 1975 
Q 1069 1734 1069 1313 
Q 1069 891 1326 650 
Q 1584 409 2034 409 
Q 2484 409 2743 651 
Q 3003 894 3003 1313 
Q 3003 1734 2745 1975 
Q 2488 2216 2034 2216 
z
M 1403 2484 
Q 997 2584 770 2862 
Q 544 3141 544 3541 
Q 544 4100 942 4425 
Q 1341 4750 2034 4750 
Q 2731 4750 3128 4425 
Q 3525 4100 3525 3541 
Q 3525 3141 3298 2862 
Q 3072 2584 2669 2484 
Q 3125 2378 3379 2068 
Q 3634 1759 3634 1313 
Q 3634 634 3220 271 
Q 2806 -91 2034 -91 
Q 1263 -91 848 271 
Q 434 634 434 1313 
Q 434 1759 690 2068 
Q 947 2378 1403 2484 
z
M 1172 3481 
Q 1172 3119 1398 2916 
Q 1625 2713 2034 2713 
Q 2441 2713 2670 2916 
Q 2900 3119 2900 3481 
Q 2900 3844 2670 4047 
Q 2441 4250 2034 4250 
Q 1625 4250 1398 4047 
Q 1172 3844 1172 3481 
z
" transform="scale(0.015625)"/>
       </defs>
       <use xlink:href="#DejaVuSans-38"/>
       <use xlink:href="#DejaVuSans-30" x="63.623047"/>
      </g>
     </g>
    </g>
    <g id="xtick_6">
     <g id="line2d_6">
      <g>
       <use xlink:href="#m20393d46fd" x="289.542794" y="307.584" style="stroke: #000000; stroke-width: 0.8"/>
      </g>
     </g>
     <g id="text_6">
      <!-- 100 -->
      <g transform="translate(279.999044 322.182437) scale(0.1 -0.1)">
       <defs>
        <path id="DejaVuSans-31" d="M 794 531 
L 1825 531 
L 1825 4091 
L 703 3866 
L 703 4441 
L 1819 4666 
L 2450 4666 
L 2450 531 
L 3481 531 
L 3481 0 
L 794 0 
L 794 531 
z
" transform="scale(0.015625)"/>
       </defs>
       <use xlink:href="#DejaVuSans-31"/>
       <use xlink:href="#DejaVuSans-30" x="63.623047"/>
       <use xlink:href="#DejaVuSans-30" x="127.246094"/>
      </g>
     </g>
    </g>
    <g id="xtick_7">
     <g id="line2d_7">
      <g>
       <use xlink:href="#m20393d46fd" x="333.120586" y="307.584" style="stroke: #000000; stroke-width: 0.8"/>
      </g>
     </g>
     <g id="text_7">
      <!-- 120 -->
      <g transform="translate(323.576836 322.182437) scale(0.1 -0.1)">
       <use xlink:href="#DejaVuSans-31"/>
       <use xlink:href="#DejaVuSans-32" x="63.623047"/>
       <use xlink:href="#DejaVuSans-30" x="127.246094"/>
      </g>
     </g>
    </g>
    <g id="xtick_8">
     <g id="line2d_8">
      <g>
       <use xlink:href="#m20393d46fd" x="376.698377" y="307.584" style="stroke: #000000; stroke-width: 0.8"/>
      </g>
     </g>
     <g id="text_8">
      <!-- 140 -->
      <g transform="translate(367.154627 322.182437) scale(0.1 -0.1)">
       <use xlink:href="#DejaVuSans-31"/>
       <use xlink:href="#DejaVuSans-34" x="63.623047"/>
       <use xlink:href="#DejaVuSans-30" x="127.246094"/>
      </g>
     </g>
    </g>
    <g id="text_9">
     <!-- epoch -->
     <g transform="translate(220.931875 335.860562) scale(0.1 -0.1)">
      <defs>
       <path id="DejaVuSans-65" d="M 3597 1894 
L 3597 1613 
L 953 1613 
Q 991 1019 1311 708 
Q 1631 397 2203 397 
Q 2534 397 2845 478 
Q 3156 559 3463 722 
L 3463 178 
Q 3153 47 2828 -22 
Q 2503 -91 2169 -91 
Q 1331 -91 842 396 
Q 353 884 353 1716 
Q 353 2575 817 3079 
Q 1281 3584 2069 3584 
Q 2775 3584 3186 3129 
Q 3597 2675 3597 1894 
z
M 3022 2063 
Q 3016 2534 2758 2815 
Q 2500 3097 2075 3097 
Q 1594 3097 1305 2825 
Q 1016 2553 972 2059 
L 3022 2063 
z
" transform="scale(0.015625)"/>
       <path id="DejaVuSans-70" d="M 1159 525 
L 1159 -1331 
L 581 -1331 
L 581 3500 
L 1159 3500 
L 1159 2969 
Q 1341 3281 1617 3432 
Q 1894 3584 2278 3584 
Q 2916 3584 3314 3078 
Q 3713 2572 3713 1747 
Q 3713 922 3314 415 
Q 2916 -91 2278 -91 
Q 1894 -91 1617 61 
Q 1341 213 1159 525 
z
M 3116 1747 
Q 3116 2381 2855 2742 
Q 2594 3103 2138 3103 
Q 1681 3103 1420 2742 
Q 1159 2381 1159 1747 
Q 1159 1113 1420 752 
Q 1681 391 2138 391 
Q 2594 391 2855 752 
Q 3116 1113 3116 1747 
z
" transform="scale(0.015625)"/>
       <path id="DejaVuSans-6f" d="M 1959 3097 
Q 1497 3097 1228 2736 
Q 959 2375 959 1747 
Q 959 1119 1226 758 
Q 1494 397 1959 397 
Q 2419 397 2687 759 
Q 2956 1122 2956 1747 
Q 2956 2369 2687 2733 
Q 2419 3097 1959 3097 
z
M 1959 3584 
Q 2709 3584 3137 3096 
Q 3566 2609 3566 1747 
Q 3566 888 3137 398 
Q 2709 -91 1959 -91 
Q 1206 -91 779 398 
Q 353 888 353 1747 
Q 353 2609 779 3096 
Q 1206 3584 1959 3584 
z
" transform="scale(0.015625)"/>
       <path id="DejaVuSans-63" d="M 3122 3366 
L 3122 2828 
Q 2878 2963 2633 3030 
Q 2388 3097 2138 3097 
Q 1578 3097 1268 2742 
Q 959 2388 959 1747 
Q 959 1106 1268 751 
Q 1578 397 2138 397 
Q 2388 397 2633 464 
Q 2878 531 3122 666 
L 3122 134 
Q 2881 22 2623 -34 
Q 2366 -91 2075 -91 
Q 1284 -91 818 406 
Q 353 903 353 1747 
Q 353 2603 823 3093 
Q 1294 3584 2113 3584 
Q 2378 3584 2631 3529 
Q 2884 3475 3122 3366 
z
" transform="scale(0.015625)"/>
       <path id="DejaVuSans-68" d="M 3513 2113 
L 3513 0 
L 2938 0 
L 2938 2094 
Q 2938 2591 2744 2837 
Q 2550 3084 2163 3084 
Q 1697 3084 1428 2787 
Q 1159 2491 1159 1978 
L 1159 0 
L 581 0 
L 581 4863 
L 1159 4863 
L 1159 2956 
Q 1366 3272 1645 3428 
Q 1925 3584 2291 3584 
Q 2894 3584 3203 3211 
Q 3513 2838 3513 2113 
z
" transform="scale(0.015625)"/>
      </defs>
      <use xlink:href="#DejaVuSans-65"/>
      <use xlink:href="#DejaVuSans-70" x="61.523438"/>
      <use xlink:href="#DejaVuSans-6f" x="125"/>
      <use xlink:href="#DejaVuSans-63" x="186.181641"/>
      <use xlink:href="#DejaVuSans-68" x="241.162109"/>
     </g>
    </g>
   </g>
   <g id="matplotlib.axis_2">
    <g id="ytick_1">
     <g id="line2d_9">
      <defs>
       <path id="m2e37cea7d6" d="M 0 0 
L -3.5 0 
" style="stroke: #000000; stroke-width: 0.8"/>
      </defs>
      <g>
       <use xlink:href="#m2e37cea7d6" x="57.6" y="307.584" style="stroke: #000000; stroke-width: 0.8"/>
      </g>
     </g>
     <g id="text_10">
      <!-- 0.0 -->
      <g transform="translate(34.696875 311.383219) scale(0.1 -0.1)">
       <defs>
        <path id="DejaVuSans-2e" d="M 684 794 
L 1344 794 
L 1344 0 
L 684 0 
L 684 794 
z
" transform="scale(0.015625)"/>
       </defs>
       <use xlink:href="#DejaVuSans-30"/>
       <use xlink:href="#DejaVuSans-2e" x="63.623047"/>
       <use xlink:href="#DejaVuSans-30" x="95.410156"/>
      </g>
     </g>
    </g>
    <g id="ytick_2">
     <g id="line2d_10">
      <g>
       <use xlink:href="#m2e37cea7d6" x="57.6" y="277.37108" style="stroke: #000000; stroke-width: 0.8"/>
      </g>
     </g>
     <g id="text_11">
      <!-- 0.1 -->
      <g transform="translate(34.696875 281.170299) scale(0.1 -0.1)">
       <use xlink:href="#DejaVuSans-30"/>
       <use xlink:href="#DejaVuSans-2e" x="63.623047"/>
       <use xlink:href="#DejaVuSans-31" x="95.410156"/>
      </g>
     </g>
    </g>
    <g id="ytick_3">
     <g id="line2d_11">
      <g>
       <use xlink:href="#m2e37cea7d6" x="57.6" y="247.15816" style="stroke: #000000; stroke-width: 0.8"/>
      </g>
     </g>
     <g id="text_12">
      <!-- 0.2 -->
      <g transform="translate(34.696875 250.957379) scale(0.1 -0.1)">
       <use xlink:href="#DejaVuSans-30"/>
       <use xlink:href="#DejaVuSans-2e" x="63.623047"/>
       <use xlink:href="#DejaVuSans-32" x="95.410156"/>
      </g>
     </g>
    </g>
    <g id="ytick_4">
     <g id="line2d_12">
      <g>
       <use xlink:href="#m2e37cea7d6" x="57.6" y="216.94524" style="stroke: #000000; stroke-width: 0.8"/>
      </g>
     </g>
     <g id="text_13">
      <!-- 0.3 -->
      <g transform="translate(34.696875 220.744459) scale(0.1 -0.1)">
       <defs>
        <path id="DejaVuSans-33" d="M 2597 2516 
Q 3050 2419 3304 2112 
Q 3559 1806 3559 1356 
Q 3559 666 3084 287 
Q 2609 -91 1734 -91 
Q 1441 -91 1130 -33 
Q 819 25 488 141 
L 488 750 
Q 750 597 1062 519 
Q 1375 441 1716 441 
Q 2309 441 2620 675 
Q 2931 909 2931 1356 
Q 2931 1769 2642 2001 
Q 2353 2234 1838 2234 
L 1294 2234 
L 1294 2753 
L 1863 2753 
Q 2328 2753 2575 2939 
Q 2822 3125 2822 3475 
Q 2822 3834 2567 4026 
Q 2313 4219 1838 4219 
Q 1578 4219 1281 4162 
Q 984 4106 628 3988 
L 628 4550 
Q 988 4650 1302 4700 
Q 1616 4750 1894 4750 
Q 2613 4750 3031 4423 
Q 3450 4097 3450 3541 
Q 3450 3153 3228 2886 
Q 3006 2619 2597 2516 
z
" transform="scale(0.015625)"/>
       </defs>
       <use xlink:href="#DejaVuSans-30"/>
       <use xlink:href="#DejaVuSans-2e" x="63.623047"/>
       <use xlink:href="#DejaVuSans-33" x="95.410156"/>
      </g>
     </g>
    </g>
    <g id="ytick_5">
     <g id="line2d_13">
      <g>
       <use xlink:href="#m2e37cea7d6" x="57.6" y="186.73232" style="stroke: #000000; stroke-width: 0.8"/>
      </g>
     </g>
     <g id="text_14">
      <!-- 0.4 -->
      <g transform="translate(34.696875 190.531539) scale(0.1 -0.1)">
       <use xlink:href="#DejaVuSans-30"/>
       <use xlink:href="#DejaVuSans-2e" x="63.623047"/>
       <use xlink:href="#DejaVuSans-34" x="95.410156"/>
      </g>
     </g>
    </g>
    <g id="ytick_6">
     <g id="line2d_14">
      <g>
       <use xlink:href="#m2e37cea7d6" x="57.6" y="156.5194" style="stroke: #000000; stroke-width: 0.8"/>
      </g>
     </g>
     <g id="text_15">
      <!-- 0.5 -->
      <g transform="translate(34.696875 160.318619) scale(0.1 -0.1)">
       <defs>
        <path id="DejaVuSans-35" d="M 691 4666 
L 3169 4666 
L 3169 4134 
L 1269 4134 
L 1269 2991 
Q 1406 3038 1543 3061 
Q 1681 3084 1819 3084 
Q 2600 3084 3056 2656 
Q 3513 2228 3513 1497 
Q 3513 744 3044 326 
Q 2575 -91 1722 -91 
Q 1428 -91 1123 -41 
Q 819 9 494 109 
L 494 744 
Q 775 591 1075 516 
Q 1375 441 1709 441 
Q 2250 441 2565 725 
Q 2881 1009 2881 1497 
Q 2881 1984 2565 2268 
Q 2250 2553 1709 2553 
Q 1456 2553 1204 2497 
Q 953 2441 691 2322 
L 691 4666 
z
" transform="scale(0.015625)"/>
       </defs>
       <use xlink:href="#DejaVuSans-30"/>
       <use xlink:href="#DejaVuSans-2e" x="63.623047"/>
       <use xlink:href="#DejaVuSans-35" x="95.410156"/>
      </g>
     </g>
    </g>
    <g id="ytick_7">
     <g id="line2d_15">
      <g>
       <use xlink:href="#m2e37cea7d6" x="57.6" y="126.30648" style="stroke: #000000; stroke-width: 0.8"/>
      </g>
     </g>
     <g id="text_16">
      <!-- 0.6 -->
      <g transform="translate(34.696875 130.105699) scale(0.1 -0.1)">
       <use xlink:href="#DejaVuSans-30"/>
       <use xlink:href="#DejaVuSans-2e" x="63.623047"/>
       <use xlink:href="#DejaVuSans-36" x="95.410156"/>
      </g>
     </g>
    </g>
    <g id="ytick_8">
     <g id="line2d_16">
      <g>
       <use xlink:href="#m2e37cea7d6" x="57.6" y="96.09356" style="stroke: #000000; stroke-width: 0.8"/>
      </g>
     </g>
     <g id="text_17">
      <!-- 0.7 -->
      <g transform="translate(34.696875 99.892779) scale(0.1 -0.1)">
       <defs>
        <path id="DejaVuSans-37" d="M 525 4666 
L 3525 4666 
L 3525 4397 
L 1831 0 
L 1172 0 
L 2766 4134 
L 525 4134 
L 525 4666 
z
" transform="scale(0.015625)"/>
       </defs>
       <use xlink:href="#DejaVuSans-30"/>
       <use xlink:href="#DejaVuSans-2e" x="63.623047"/>
       <use xlink:href="#DejaVuSans-37" x="95.410156"/>
      </g>
     </g>
    </g>
    <g id="ytick_9">
     <g id="line2d_17">
      <g>
       <use xlink:href="#m2e37cea7d6" x="57.6" y="65.88064" style="stroke: #000000; stroke-width: 0.8"/>
      </g>
     </g>
     <g id="text_18">
      <!-- 0.8 -->
      <g transform="translate(34.696875 69.679859) scale(0.1 -0.1)">
       <use xlink:href="#DejaVuSans-30"/>
       <use xlink:href="#DejaVuSans-2e" x="63.623047"/>
       <use xlink:href="#DejaVuSans-38" x="95.410156"/>
      </g>
     </g>
    </g>
   </g>
   <g id="line2d_18">
    <path d="M 73.832727 206.091567 
L 76.011617 178.797478 
L 78.190506 173.595489 
L 80.369396 185.167002 
L 82.548286 204.988383 
L 84.727175 199.541668 
L 86.906065 152.038222 
L 89.084954 162.00634 
L 91.263844 153.38715 
L 93.442733 144.290712 
L 95.621623 141.2785 
L 97.800513 145.580605 
L 99.979402 149.35722 
L 102.158292 142.121603 
L 104.337181 135.435963 
L 106.516071 124.506987 
L 108.69496 124.742431 
L 110.87385 128.71001 
L 113.052739 135.177071 
L 115.231629 131.713984 
L 117.410519 127.485436 
L 119.589408 133.047649 
L 121.768298 135.32007 
L 123.947187 130.462381 
L 126.126077 117.863208 
L 128.304966 136.023784 
L 130.483856 130.657569 
L 132.662746 135.391941 
L 134.841635 124.333742 
L 137.020525 132.412361 
L 139.199414 121.361596 
L 141.378304 136.107189 
L 143.557193 134.6112 
L 145.736083 110.454728 
L 147.914973 121.74161 
L 150.093862 119.822978 
L 152.272752 120.08251 
L 154.451641 116.335748 
L 156.630531 133.155434 
L 158.80942 132.315274 
L 160.98831 133.757435 
L 163.1672 131.199701 
L 165.346089 111.75181 
L 167.524979 124.263436 
L 169.703868 120.004918 
L 171.882758 138.381318 
L 174.061647 110.529021 
L 176.240537 126.584709 
L 178.419426 126.111153 
L 180.598316 137.022512 
L 182.777206 133.167251 
L 184.956095 122.963284 
L 187.134985 110.887072 
L 189.313874 118.724823 
L 191.492764 120.365476 
L 193.671653 122.951422 
L 195.850543 118.789524 
L 198.029433 136.126903 
L 202.387212 117.160845 
L 204.566101 126.709791 
L 206.744991 127.843347 
L 208.92388 133.297329 
L 211.10277 133.332987 
L 213.28166 113.183053 
L 215.460549 138.407849 
L 217.639439 139.57453 
L 219.818328 132.421925 
L 221.997218 119.102796 
L 224.176107 129.395759 
L 226.354997 131.238212 
L 228.533887 136.07656 
L 230.712776 119.435055 
L 232.891666 105.654514 
L 235.070555 119.462955 
L 237.249445 111.439671 
L 239.428334 117.583166 
L 241.607224 113.916838 
L 243.786113 135.081966 
L 245.965003 127.29035 
L 248.143893 125.915911 
L 250.322782 128.821611 
L 252.501672 117.93596 
L 254.680561 126.749882 
L 256.859451 132.802843 
L 259.03834 124.376438 
L 261.21723 122.892934 
L 263.39612 129.513716 
L 265.575009 114.808472 
L 267.753899 116.214828 
L 269.932788 126.943644 
L 272.111678 112.116405 
L 274.290567 117.457497 
L 276.469457 128.961341 
L 278.648347 120.734673 
L 280.827236 119.428458 
L 283.006126 121.033975 
L 285.185015 124.09245 
L 287.363905 129.663408 
L 289.542794 123.315086 
L 291.721684 132.244065 
L 293.900574 111.94918 
L 296.079463 118.7408 
L 298.258353 128.38788 
L 300.437242 127.735483 
L 302.616132 134.731308 
L 304.795021 128.844886 
L 306.973911 128.026342 
L 309.1528 123.269225 
L 311.33169 131.055418 
L 313.51058 120.894319 
L 315.689469 113.523848 
L 317.868359 116.794304 
L 320.047248 123.947114 
L 322.226138 135.112955 
L 324.405027 128.558617 
L 326.583917 117.93155 
L 328.762807 126.778779 
L 330.941696 134.473201 
L 333.120586 119.908006 
L 335.299475 136.244153 
L 337.478365 129.621209 
L 339.657254 127.338517 
L 341.836144 109.027749 
L 344.015034 103.489429 
L 346.193923 127.351842 
L 348.372813 131.209832 
L 350.551702 125.228777 
L 352.730592 128.509451 
L 354.909481 128.43463 
L 357.088371 126.985223 
L 359.267261 130.015325 
L 361.44615 119.893524 
L 363.62504 133.010435 
L 365.803929 113.086489 
L 367.982819 121.850177 
L 370.161708 133.704911 
L 372.340598 135.207484 
L 374.519487 112.504061 
L 376.698377 132.950696 
L 378.877267 129.881524 
L 381.056156 124.858912 
L 383.235046 135.588764 
L 385.413935 130.903591 
L 387.592825 127.921049 
L 389.771714 118.716765 
L 391.950604 125.596305 
L 394.129494 118.481902 
L 396.308383 125.267471 
L 398.487273 118.765171 
L 398.487273 118.765171 
" clip-path="url(#p3577f43dda)" style="fill: none; stroke: #1f77b4; stroke-linecap: square"/>
   </g>
   <g id="line2d_19">
    <path d="M 73.832727 206.874267 
L 76.011617 206.874267 
L 78.190506 202.826681 
L 80.369396 203.465424 
L 82.548286 206.874267 
L 84.727175 204.375788 
L 86.906065 206.826027 
L 89.084954 194.803109 
L 91.263844 201.970838 
L 93.442733 199.452598 
L 95.621623 201.146312 
L 97.800513 200.575748 
L 99.979402 184.174979 
L 102.158292 185.401761 
L 104.337181 187.914062 
L 106.516071 190.21551 
L 108.69496 190.844394 
L 110.87385 196.511065 
L 113.052739 200.225602 
L 115.231629 176.324685 
L 117.410519 192.22629 
L 119.589408 187.827399 
L 121.768298 184.170831 
L 123.947187 190.433479 
L 126.126077 176.140846 
L 128.304966 179.860319 
L 130.483856 195.315866 
L 132.662746 186.484129 
L 134.841635 183.138956 
L 137.020525 180.98006 
L 139.199414 175.829915 
L 141.378304 183.204022 
L 143.557193 172.12254 
L 145.736083 172.644884 
L 147.914973 185.184079 
L 150.093862 179.253262 
L 152.272752 190.237164 
L 154.451641 181.137445 
L 156.630531 188.023619 
L 158.80942 196.937981 
L 160.98831 186.588267 
L 163.1672 181.744949 
L 165.346089 167.688979 
L 167.524979 173.877836 
L 169.703868 176.985352 
L 171.882758 187.900513 
L 174.061647 175.782155 
L 176.240537 168.01553 
L 178.419426 185.724136 
L 180.598316 175.32982 
L 182.777206 184.182202 
L 184.956095 183.366418 
L 187.134985 185.22065 
L 189.313874 179.301239 
L 191.492764 159.596949 
L 193.671653 157.389799 
L 195.850543 173.345279 
L 198.029433 186.679748 
L 200.208322 162.660938 
L 202.387212 185.099825 
L 204.566101 182.643796 
L 206.744991 165.346827 
L 208.92388 173.552562 
L 211.10277 186.960066 
L 213.28166 181.694128 
L 215.460549 182.474383 
L 217.639439 167.767517 
L 219.818328 178.192228 
L 221.997218 173.631048 
L 224.176107 184.813837 
L 226.354997 174.232551 
L 228.533887 185.305849 
L 230.712776 182.627376 
L 232.891666 163.933621 
L 235.070555 188.352817 
L 237.249445 173.976498 
L 239.428334 194.355035 
L 241.607224 176.712008 
L 243.786113 185.289595 
L 245.965003 178.219791 
L 248.143893 182.448449 
L 250.322782 184.366197 
L 252.501672 171.162798 
L 254.680561 174.780162 
L 256.859451 182.544288 
L 259.03834 174.577007 
L 261.21723 177.254182 
L 263.39612 161.167419 
L 265.575009 173.560814 
L 267.753899 158.590386 
L 269.932788 176.972298 
L 272.111678 180.752512 
L 274.290567 176.011984 
L 276.469457 185.630989 
L 278.648347 168.8349 
L 280.827236 193.60322 
L 283.006126 177.390079 
L 285.185015 175.013934 
L 287.363905 170.491965 
L 289.542794 171.225816 
L 291.721684 179.19427 
L 293.900574 174.867486 
L 296.079463 181.033877 
L 298.258353 185.170206 
L 300.437242 172.939589 
L 302.616132 181.73502 
L 304.795021 182.930999 
L 306.973911 183.276235 
L 309.1528 174.251657 
L 311.33169 186.428123 
L 313.51058 181.838405 
L 315.689469 188.33715 
L 317.868359 173.97876 
L 320.047248 175.610669 
L 322.226138 161.374603 
L 324.405027 177.832502 
L 326.583917 181.110663 
L 328.762807 181.737958 
L 330.941696 172.246208 
L 333.120586 178.528492 
L 335.299475 167.188115 
L 337.478365 177.455622 
L 339.657254 174.276343 
L 341.836144 181.80996 
L 344.015034 187.003863 
L 346.193923 178.529966 
L 348.372813 175.93323 
L 350.551702 187.146845 
L 352.730592 184.571461 
L 354.909481 179.099687 
L 357.088371 175.581922 
L 359.267261 177.641536 
L 361.44615 176.403388 
L 363.62504 174.991917 
L 365.803929 173.403722 
L 367.982819 175.88452 
L 370.161708 177.577416 
L 372.340598 187.47231 
L 374.519487 171.842825 
L 376.698377 152.449207 
L 378.877267 176.639679 
L 381.056156 189.423293 
L 383.235046 182.529956 
L 385.413935 181.562594 
L 387.592825 181.438406 
L 389.771714 175.455817 
L 391.950604 182.349846 
L 394.129494 179.818799 
L 396.308383 162.40675 
L 398.487273 189.060853 
L 398.487273 189.060853 
" clip-path="url(#p3577f43dda)" style="fill: none; stroke: #ff7f0e; stroke-linecap: square"/>
   </g>
   <g id="line2d_20">
    <path d="M 73.832727 204.371418 
L 76.011617 207.147934 
L 78.190506 207.147934 
L 80.369396 206.600599 
L 82.548286 207.147934 
L 84.727175 206.600599 
L 86.906065 206.600599 
L 89.084954 207.147934 
L 91.263844 173.949126 
L 93.442733 175.153876 
L 95.621623 164.650478 
L 97.800513 207.100545 
L 99.979402 192.843486 
L 102.158292 171.76211 
L 104.337181 162.494211 
L 106.516071 172.430701 
L 108.69496 159.59673 
L 110.87385 160.400106 
L 113.052739 154.829466 
L 115.231629 193.968647 
L 117.410519 156.601096 
L 119.589408 162.005701 
L 121.768298 179.833338 
L 123.947187 193.163103 
L 126.126077 155.507737 
L 128.304966 152.625994 
L 130.483856 151.811479 
L 132.662746 166.945078 
L 134.841635 148.901401 
L 137.020525 140.792898 
L 139.199414 154.676541 
L 141.378304 133.80043 
L 143.557193 148.668698 
L 145.736083 158.922516 
L 147.914973 150.776595 
L 150.093862 188.265075 
L 152.272752 173.737131 
L 154.451641 134.940467 
L 156.630531 145.866174 
L 158.80942 137.290631 
L 160.98831 136.323854 
L 163.1672 145.910391 
L 165.346089 141.679297 
L 167.524979 141.258767 
L 169.703868 126.965338 
L 171.882758 135.858054 
L 174.061647 133.803267 
L 176.240537 134.21699 
L 178.419426 137.713261 
L 180.598316 133.363202 
L 182.777206 137.545726 
L 184.956095 162.404439 
L 187.134985 137.270951 
L 189.313874 136.616339 
L 191.492764 143.864311 
L 193.671653 135.303634 
L 195.850543 135.593518 
L 198.029433 121.263445 
L 200.208322 139.309427 
L 202.387212 120.240988 
L 204.566101 125.325251 
L 206.744991 124.558704 
L 208.92388 124.442902 
L 211.10277 139.560971 
L 213.28166 130.489346 
L 215.460549 114.879754 
L 217.639439 147.603006 
L 219.818328 133.349461 
L 221.997218 138.260397 
L 224.176107 127.691174 
L 226.354997 128.629366 
L 228.533887 132.808079 
L 230.712776 132.294707 
L 232.891666 122.141452 
L 235.070555 149.288552 
L 237.249445 127.88883 
L 239.428334 135.028821 
L 241.607224 126.023494 
L 243.786113 119.524275 
L 245.965003 133.734023 
L 248.143893 162.335677 
L 250.322782 133.365812 
L 252.501672 115.580619 
L 254.680561 126.301508 
L 256.859451 130.268524 
L 259.03834 128.870093 
L 261.21723 141.881727 
L 263.39612 131.203901 
L 265.575009 124.609865 
L 267.753899 131.837419 
L 269.932788 128.735598 
L 272.111678 124.837272 
L 274.290567 102.689955 
L 276.469457 140.738381 
L 278.648347 118.612157 
L 280.827236 129.169533 
L 283.006126 116.334438 
L 285.185015 120.160991 
L 287.363905 116.550644 
L 289.542794 120.971915 
L 291.721684 118.06465 
L 293.900574 121.418577 
L 296.079463 122.968736 
L 298.258353 127.84171 
L 300.437242 107.032902 
L 302.616132 111.89985 
L 304.795021 122.996069 
L 306.973911 125.098919 
L 309.1528 139.142245 
L 311.33169 127.291947 
L 313.51058 139.934141 
L 315.689469 131.047208 
L 317.868359 109.213893 
L 320.047248 125.721228 
L 322.226138 144.335633 
L 324.405027 108.524959 
L 326.583917 113.777494 
L 328.762807 118.355021 
L 330.941696 118.954438 
L 333.120586 119.429209 
L 335.299475 111.310542 
L 337.478365 115.962903 
L 339.657254 126.815879 
L 341.836144 151.068434 
L 344.015034 111.267459 
L 346.193923 130.66155 
L 348.372813 118.811676 
L 350.551702 134.095321 
L 352.730592 118.729636 
L 354.909481 127.492592 
L 357.088371 140.159869 
L 359.267261 138.691293 
L 361.44615 104.691712 
L 363.62504 137.013327 
L 365.803929 124.650319 
L 367.982819 129.313103 
L 370.161708 129.151722 
L 372.340598 145.08782 
L 374.519487 105.646593 
L 376.698377 104.308122 
L 378.877267 125.784778 
L 381.056156 114.927531 
L 383.235046 111.906046 
L 385.413935 118.564406 
L 387.592825 115.553488 
L 389.771714 130.591992 
L 391.950604 111.046729 
L 394.129494 125.022905 
L 396.308383 127.678334 
L 398.487273 112.464774 
L 398.487273 112.464774 
" clip-path="url(#p3577f43dda)" style="fill: none; stroke: #2ca02c; stroke-linecap: square"/>
   </g>
   <g id="line2d_21">
    <path d="M 73.832727 206.874267 
L 78.190506 206.874267 
L 80.369396 189.719261 
L 82.548286 206.874267 
L 84.727175 173.628128 
L 86.906065 183.886615 
L 89.084954 206.679124 
L 91.263844 200.203041 
L 93.442733 206.874267 
L 95.621623 206.833723 
L 97.800513 196.933137 
L 99.979402 174.912482 
L 102.158292 165.355388 
L 104.337181 175.252156 
L 106.516071 158.527736 
L 108.69496 200.831467 
L 110.87385 169.968793 
L 113.052739 146.865796 
L 115.231629 158.724625 
L 117.410519 144.50928 
L 119.589408 142.987515 
L 121.768298 147.349191 
L 123.947187 185.48781 
L 126.126077 143.063633 
L 128.304966 166.158768 
L 130.483856 139.435266 
L 132.662746 145.184263 
L 134.841635 138.488994 
L 137.020525 135.054504 
L 139.199414 150.808402 
L 141.378304 130.111006 
L 143.557193 143.468023 
L 145.736083 166.9645 
L 147.914973 145.80036 
L 152.272752 141.685469 
L 154.451641 140.276614 
L 156.630531 135.175046 
L 158.80942 143.371875 
L 160.98831 134.355809 
L 163.1672 121.676695 
L 165.346089 120.268603 
L 167.524979 134.311371 
L 169.703868 143.315559 
L 171.882758 136.903093 
L 174.061647 126.179688 
L 176.240537 131.28713 
L 178.419426 127.254998 
L 180.598316 133.534083 
L 182.777206 124.231417 
L 184.956095 133.686056 
L 187.134985 132.123169 
L 189.313874 131.754921 
L 191.492764 152.057164 
L 193.671653 125.805144 
L 195.850543 109.581813 
L 198.029433 127.290014 
L 200.208322 152.32785 
L 202.387212 125.107809 
L 204.566101 151.723542 
L 206.744991 119.208941 
L 208.92388 117.590094 
L 211.10277 120.620023 
L 213.28166 124.53179 
L 215.460549 129.349405 
L 217.639439 108.862466 
L 219.818328 114.183273 
L 221.997218 130.09455 
L 224.176107 133.544816 
L 226.354997 108.782259 
L 228.533887 116.922006 
L 230.712776 123.903641 
L 232.891666 119.786999 
L 235.070555 127.291549 
L 237.249445 114.836633 
L 239.428334 108.076056 
L 241.607224 120.220323 
L 243.786113 102.749277 
L 245.965003 119.600675 
L 248.143893 116.432456 
L 250.322782 138.69191 
L 252.501672 132.012374 
L 254.680561 105.116766 
L 259.03834 120.24429 
L 261.21723 128.49059 
L 263.39612 116.156379 
L 265.575009 150.516945 
L 267.753899 103.12881 
L 269.932788 108.864709 
L 272.111678 104.336385 
L 274.290567 106.721203 
L 276.469457 126.880032 
L 278.648347 117.528745 
L 280.827236 116.857493 
L 283.006126 119.672355 
L 285.185015 112.853779 
L 287.363905 103.976254 
L 289.542794 112.533191 
L 291.721684 115.939906 
L 293.900574 108.165006 
L 296.079463 111.603406 
L 298.258353 116.927893 
L 300.437242 121.65396 
L 302.616132 113.3469 
L 304.795021 118.084814 
L 306.973911 105.111776 
L 309.1528 125.185933 
L 311.33169 116.01069 
L 313.51058 102.332626 
L 315.689469 107.128981 
L 317.868359 139.320977 
L 320.047248 126.92926 
L 322.226138 120.283536 
L 324.405027 116.368582 
L 326.583917 114.613759 
L 328.762807 108.961859 
L 330.941696 128.161961 
L 333.120586 118.102925 
L 335.299475 118.478075 
L 337.478365 109.106434 
L 339.657254 100.410182 
L 341.836144 118.416055 
L 344.015034 120.547988 
L 346.193923 109.68647 
L 348.372813 115.18397 
L 350.551702 98.587127 
L 352.730592 97.318576 
L 354.909481 129.415023 
L 357.088371 107.88424 
L 359.267261 111.332327 
L 361.44615 111.200435 
L 363.62504 111.501059 
L 365.803929 104.331002 
L 367.982819 92.850099 
L 370.161708 117.421429 
L 372.340598 100.748757 
L 374.519487 96.61693 
L 376.698377 104.77458 
L 378.877267 108.814254 
L 381.056156 101.540089 
L 383.235046 126.766856 
L 385.413935 115.713366 
L 387.592825 103.210748 
L 389.771714 116.711119 
L 391.950604 122.052072 
L 394.129494 107.394107 
L 396.308383 124.24192 
L 398.487273 110.848849 
L 398.487273 110.848849 
" clip-path="url(#p3577f43dda)" style="fill: none; stroke: #d62728; stroke-linecap: square"/>
   </g>
   <g id="patch_3">
    <path d="M 57.6 307.584 
L 57.6 41.472 
" style="fill: none; stroke: #000000; stroke-width: 0.8; stroke-linejoin: miter; stroke-linecap: square"/>
   </g>
   <g id="patch_4">
    <path d="M 414.72 307.584 
L 414.72 41.472 
" style="fill: none; stroke: #000000; stroke-width: 0.8; stroke-linejoin: miter; stroke-linecap: square"/>
   </g>
   <g id="patch_5">
    <path d="M 57.6 307.584 
L 414.72 307.584 
" style="fill: none; stroke: #000000; stroke-width: 0.8; stroke-linejoin: miter; stroke-linecap: square"/>
   </g>
   <g id="patch_6">
    <path d="M 57.6 41.472 
L 414.72 41.472 
" style="fill: none; stroke: #000000; stroke-width: 0.8; stroke-linejoin: miter; stroke-linecap: square"/>
   </g>
   <g id="text_19">
    <!-- Recall of POD -->
    <g transform="translate(195.70125 35.472) scale(0.12 -0.12)">
     <defs>
      <path id="DejaVuSans-52" d="M 2841 2188 
Q 3044 2119 3236 1894 
Q 3428 1669 3622 1275 
L 4263 0 
L 3584 0 
L 2988 1197 
Q 2756 1666 2539 1819 
Q 2322 1972 1947 1972 
L 1259 1972 
L 1259 0 
L 628 0 
L 628 4666 
L 2053 4666 
Q 2853 4666 3247 4331 
Q 3641 3997 3641 3322 
Q 3641 2881 3436 2590 
Q 3231 2300 2841 2188 
z
M 1259 4147 
L 1259 2491 
L 2053 2491 
Q 2509 2491 2742 2702 
Q 2975 2913 2975 3322 
Q 2975 3731 2742 3939 
Q 2509 4147 2053 4147 
L 1259 4147 
z
" transform="scale(0.015625)"/>
      <path id="DejaVuSans-61" d="M 2194 1759 
Q 1497 1759 1228 1600 
Q 959 1441 959 1056 
Q 959 750 1161 570 
Q 1363 391 1709 391 
Q 2188 391 2477 730 
Q 2766 1069 2766 1631 
L 2766 1759 
L 2194 1759 
z
M 3341 1997 
L 3341 0 
L 2766 0 
L 2766 531 
Q 2569 213 2275 61 
Q 1981 -91 1556 -91 
Q 1019 -91 701 211 
Q 384 513 384 1019 
Q 384 1609 779 1909 
Q 1175 2209 1959 2209 
L 2766 2209 
L 2766 2266 
Q 2766 2663 2505 2880 
Q 2244 3097 1772 3097 
Q 1472 3097 1187 3025 
Q 903 2953 641 2809 
L 641 3341 
Q 956 3463 1253 3523 
Q 1550 3584 1831 3584 
Q 2591 3584 2966 3190 
Q 3341 2797 3341 1997 
z
" transform="scale(0.015625)"/>
      <path id="DejaVuSans-6c" d="M 603 4863 
L 1178 4863 
L 1178 0 
L 603 0 
L 603 4863 
z
" transform="scale(0.015625)"/>
      <path id="DejaVuSans-20" transform="scale(0.015625)"/>
      <path id="DejaVuSans-66" d="M 2375 4863 
L 2375 4384 
L 1825 4384 
Q 1516 4384 1395 4259 
Q 1275 4134 1275 3809 
L 1275 3500 
L 2222 3500 
L 2222 3053 
L 1275 3053 
L 1275 0 
L 697 0 
L 697 3053 
L 147 3053 
L 147 3500 
L 697 3500 
L 697 3744 
Q 697 4328 969 4595 
Q 1241 4863 1831 4863 
L 2375 4863 
z
" transform="scale(0.015625)"/>
      <path id="DejaVuSans-50" d="M 1259 4147 
L 1259 2394 
L 2053 2394 
Q 2494 2394 2734 2622 
Q 2975 2850 2975 3272 
Q 2975 3691 2734 3919 
Q 2494 4147 2053 4147 
L 1259 4147 
z
M 628 4666 
L 2053 4666 
Q 2838 4666 3239 4311 
Q 3641 3956 3641 3272 
Q 3641 2581 3239 2228 
Q 2838 1875 2053 1875 
L 1259 1875 
L 1259 0 
L 628 0 
L 628 4666 
z
" transform="scale(0.015625)"/>
      <path id="DejaVuSans-4f" d="M 2522 4238 
Q 1834 4238 1429 3725 
Q 1025 3213 1025 2328 
Q 1025 1447 1429 934 
Q 1834 422 2522 422 
Q 3209 422 3611 934 
Q 4013 1447 4013 2328 
Q 4013 3213 3611 3725 
Q 3209 4238 2522 4238 
z
M 2522 4750 
Q 3503 4750 4090 4092 
Q 4678 3434 4678 2328 
Q 4678 1225 4090 567 
Q 3503 -91 2522 -91 
Q 1538 -91 948 565 
Q 359 1222 359 2328 
Q 359 3434 948 4092 
Q 1538 4750 2522 4750 
z
" transform="scale(0.015625)"/>
      <path id="DejaVuSans-44" d="M 1259 4147 
L 1259 519 
L 2022 519 
Q 2988 519 3436 956 
Q 3884 1394 3884 2338 
Q 3884 3275 3436 3711 
Q 2988 4147 2022 4147 
L 1259 4147 
z
M 628 4666 
L 1925 4666 
Q 3281 4666 3915 4102 
Q 4550 3538 4550 2338 
Q 4550 1131 3912 565 
Q 3275 0 1925 0 
L 628 0 
L 628 4666 
z
" transform="scale(0.015625)"/>
     </defs>
     <use xlink:href="#DejaVuSans-52"/>
     <use xlink:href="#DejaVuSans-65" x="64.982422"/>
     <use xlink:href="#DejaVuSans-63" x="126.505859"/>
     <use xlink:href="#DejaVuSans-61" x="181.486328"/>
     <use xlink:href="#DejaVuSans-6c" x="242.765625"/>
     <use xlink:href="#DejaVuSans-6c" x="270.548828"/>
     <use xlink:href="#DejaVuSans-20" x="298.332031"/>
     <use xlink:href="#DejaVuSans-6f" x="330.119141"/>
     <use xlink:href="#DejaVuSans-66" x="391.300781"/>
     <use xlink:href="#DejaVuSans-20" x="426.505859"/>
     <use xlink:href="#DejaVuSans-50" x="458.292969"/>
     <use xlink:href="#DejaVuSans-4f" x="518.595703"/>
     <use xlink:href="#DejaVuSans-44" x="597.306641"/>
    </g>
   </g>
   <g id="legend_1">
    <g id="patch_7">
     <path d="M 64.6 108.1845 
L 173.157812 108.1845 
Q 175.157812 108.1845 175.157812 106.1845 
L 175.157812 48.472 
Q 175.157812 46.472 173.157812 46.472 
L 64.6 46.472 
Q 62.6 46.472 62.6 48.472 
L 62.6 106.1845 
Q 62.6 108.1845 64.6 108.1845 
z
" style="fill: #ffffff; opacity: 0.8; stroke: #cccccc; stroke-linejoin: miter"/>
    </g>
    <g id="line2d_22">
     <path d="M 66.6 54.570438 
L 76.6 54.570438 
L 86.6 54.570438 
" style="fill: none; stroke: #1f77b4; stroke-linecap: square"/>
    </g>
    <g id="text_20">
     <!-- 2000 samples -->
     <g transform="translate(94.6 58.070438) scale(0.1 -0.1)">
      <defs>
       <path id="DejaVuSans-73" d="M 2834 3397 
L 2834 2853 
Q 2591 2978 2328 3040 
Q 2066 3103 1784 3103 
Q 1356 3103 1142 2972 
Q 928 2841 928 2578 
Q 928 2378 1081 2264 
Q 1234 2150 1697 2047 
L 1894 2003 
Q 2506 1872 2764 1633 
Q 3022 1394 3022 966 
Q 3022 478 2636 193 
Q 2250 -91 1575 -91 
Q 1294 -91 989 -36 
Q 684 19 347 128 
L 347 722 
Q 666 556 975 473 
Q 1284 391 1588 391 
Q 1994 391 2212 530 
Q 2431 669 2431 922 
Q 2431 1156 2273 1281 
Q 2116 1406 1581 1522 
L 1381 1569 
Q 847 1681 609 1914 
Q 372 2147 372 2553 
Q 372 3047 722 3315 
Q 1072 3584 1716 3584 
Q 2034 3584 2315 3537 
Q 2597 3491 2834 3397 
z
" transform="scale(0.015625)"/>
       <path id="DejaVuSans-6d" d="M 3328 2828 
Q 3544 3216 3844 3400 
Q 4144 3584 4550 3584 
Q 5097 3584 5394 3201 
Q 5691 2819 5691 2113 
L 5691 0 
L 5113 0 
L 5113 2094 
Q 5113 2597 4934 2840 
Q 4756 3084 4391 3084 
Q 3944 3084 3684 2787 
Q 3425 2491 3425 1978 
L 3425 0 
L 2847 0 
L 2847 2094 
Q 2847 2600 2669 2842 
Q 2491 3084 2119 3084 
Q 1678 3084 1418 2786 
Q 1159 2488 1159 1978 
L 1159 0 
L 581 0 
L 581 3500 
L 1159 3500 
L 1159 2956 
Q 1356 3278 1631 3431 
Q 1906 3584 2284 3584 
Q 2666 3584 2933 3390 
Q 3200 3197 3328 2828 
z
" transform="scale(0.015625)"/>
      </defs>
      <use xlink:href="#DejaVuSans-32"/>
      <use xlink:href="#DejaVuSans-30" x="63.623047"/>
      <use xlink:href="#DejaVuSans-30" x="127.246094"/>
      <use xlink:href="#DejaVuSans-30" x="190.869141"/>
      <use xlink:href="#DejaVuSans-20" x="254.492188"/>
      <use xlink:href="#DejaVuSans-73" x="286.279297"/>
      <use xlink:href="#DejaVuSans-61" x="338.378906"/>
      <use xlink:href="#DejaVuSans-6d" x="399.658203"/>
      <use xlink:href="#DejaVuSans-70" x="497.070312"/>
      <use xlink:href="#DejaVuSans-6c" x="560.546875"/>
      <use xlink:href="#DejaVuSans-65" x="588.330078"/>
      <use xlink:href="#DejaVuSans-73" x="649.853516"/>
     </g>
    </g>
    <g id="line2d_23">
     <path d="M 66.6 69.248563 
L 76.6 69.248563 
L 86.6 69.248563 
" style="fill: none; stroke: #ff7f0e; stroke-linecap: square"/>
    </g>
    <g id="text_21">
     <!-- 5000 samples -->
     <g transform="translate(94.6 72.748563) scale(0.1 -0.1)">
      <use xlink:href="#DejaVuSans-35"/>
      <use xlink:href="#DejaVuSans-30" x="63.623047"/>
      <use xlink:href="#DejaVuSans-30" x="127.246094"/>
      <use xlink:href="#DejaVuSans-30" x="190.869141"/>
      <use xlink:href="#DejaVuSans-20" x="254.492188"/>
      <use xlink:href="#DejaVuSans-73" x="286.279297"/>
      <use xlink:href="#DejaVuSans-61" x="338.378906"/>
      <use xlink:href="#DejaVuSans-6d" x="399.658203"/>
      <use xlink:href="#DejaVuSans-70" x="497.070312"/>
      <use xlink:href="#DejaVuSans-6c" x="560.546875"/>
      <use xlink:href="#DejaVuSans-65" x="588.330078"/>
      <use xlink:href="#DejaVuSans-73" x="649.853516"/>
     </g>
    </g>
    <g id="line2d_24">
     <path d="M 66.6 83.926688 
L 76.6 83.926688 
L 86.6 83.926688 
" style="fill: none; stroke: #2ca02c; stroke-linecap: square"/>
    </g>
    <g id="text_22">
     <!-- 8000 samples -->
     <g transform="translate(94.6 87.426688) scale(0.1 -0.1)">
      <use xlink:href="#DejaVuSans-38"/>
      <use xlink:href="#DejaVuSans-30" x="63.623047"/>
      <use xlink:href="#DejaVuSans-30" x="127.246094"/>
      <use xlink:href="#DejaVuSans-30" x="190.869141"/>
      <use xlink:href="#DejaVuSans-20" x="254.492188"/>
      <use xlink:href="#DejaVuSans-73" x="286.279297"/>
      <use xlink:href="#DejaVuSans-61" x="338.378906"/>
      <use xlink:href="#DejaVuSans-6d" x="399.658203"/>
      <use xlink:href="#DejaVuSans-70" x="497.070312"/>
      <use xlink:href="#DejaVuSans-6c" x="560.546875"/>
      <use xlink:href="#DejaVuSans-65" x="588.330078"/>
      <use xlink:href="#DejaVuSans-73" x="649.853516"/>
     </g>
    </g>
    <g id="line2d_25">
     <path d="M 66.6 98.604813 
L 76.6 98.604813 
L 86.6 98.604813 
" style="fill: none; stroke: #d62728; stroke-linecap: square"/>
    </g>
    <g id="text_23">
     <!-- 10000 samples -->
     <g transform="translate(94.6 102.104813) scale(0.1 -0.1)">
      <use xlink:href="#DejaVuSans-31"/>
      <use xlink:href="#DejaVuSans-30" x="63.623047"/>
      <use xlink:href="#DejaVuSans-30" x="127.246094"/>
      <use xlink:href="#DejaVuSans-30" x="190.869141"/>
      <use xlink:href="#DejaVuSans-30" x="254.492188"/>
      <use xlink:href="#DejaVuSans-20" x="318.115234"/>
      <use xlink:href="#DejaVuSans-73" x="349.902344"/>
      <use xlink:href="#DejaVuSans-61" x="402.001953"/>
      <use xlink:href="#DejaVuSans-6d" x="463.28125"/>
      <use xlink:href="#DejaVuSans-70" x="560.693359"/>
      <use xlink:href="#DejaVuSans-6c" x="624.169922"/>
      <use xlink:href="#DejaVuSans-65" x="651.953125"/>
      <use xlink:href="#DejaVuSans-73" x="713.476562"/>
     </g>
    </g>
   </g>
  </g>
 </g>
 <defs>
  <clipPath id="p3577f43dda">
   <rect x="57.6" y="41.472" width="357.12" height="266.112"/>
  </clipPath>
 </defs>
</svg>
