<?xml version="1.0" encoding="utf-8" standalone="no"?>
<!DOCTYPE svg PUBLIC "-//W3C//DTD SVG 1.1//EN"
  "http://www.w3.org/Graphics/SVG/1.1/DTD/svg11.dtd">
<svg xmlns:xlink="http://www.w3.org/1999/xlink" width="460.8pt" height="345.6pt" viewBox="0 0 460.8 345.6" xmlns="http://www.w3.org/2000/svg" version="1.1">
 <metadata>
  <rdf:RDF xmlns:dc="http://purl.org/dc/elements/1.1/" xmlns:cc="http://creativecommons.org/ns#" xmlns:rdf="http://www.w3.org/1999/02/22-rdf-syntax-ns#">
   <cc:Work>
    <dc:type rdf:resource="http://purl.org/dc/dcmitype/StillImage"/>
    <dc:date>2023-09-13T16:28:04.155391</dc:date>
    <dc:format>image/svg+xml</dc:format>
    <dc:creator>
     <cc:Agent>
      <dc:title>Matplotlib v3.7.1, https://matplotlib.org/</dc:title>
     </cc:Agent>
    </dc:creator>
   </cc:Work>
  </rdf:RDF>
 </metadata>
 <defs>
  <style type="text/css">*{stroke-linejoin: round; stroke-linecap: butt}</style>
 </defs>
 <g id="figure_1">
  <g id="patch_1">
   <path d="M 0 345.6 
L 460.8 345.6 
L 460.8 0 
L 0 0 
z
" style="fill: #ffffff"/>
  </g>
  <g id="axes_1">
   <g id="patch_2">
    <path d="M 57.6 307.584 
L 414.72 307.584 
L 414.72 41.472 
L 57.6 41.472 
z
" style="fill: #ffffff"/>
   </g>
   <g id="matplotlib.axis_1">
    <g id="xtick_1">
     <g id="line2d_1">
      <defs>
       <path id="m3a3c90a6ab" d="M 0 0 
L 0 3.5 
" style="stroke: #000000; stroke-width: 0.8"/>
      </defs>
      <g>
       <use xlink:href="#m3a3c90a6ab" x="71.653838" y="307.584" style="stroke: #000000; stroke-width: 0.8"/>
      </g>
     </g>
     <g id="text_1">
      <!-- 0 -->
      <g transform="translate(68.472588 322.182437) scale(0.1 -0.1)">
       <defs>
        <path id="DejaVuSans-30" d="M 2034 4250 
Q 1547 4250 1301 3770 
Q 1056 3291 1056 2328 
Q 1056 1369 1301 889 
Q 1547 409 2034 409 
Q 2525 409 2770 889 
Q 3016 1369 3016 2328 
Q 3016 3291 2770 3770 
Q 2525 4250 2034 4250 
z
M 2034 4750 
Q 2819 4750 3233 4129 
Q 3647 3509 3647 2328 
Q 3647 1150 3233 529 
Q 2819 -91 2034 -91 
Q 1250 -91 836 529 
Q 422 1150 422 2328 
Q 422 3509 836 4129 
Q 1250 4750 2034 4750 
z
" transform="scale(0.015625)"/>
       </defs>
       <use xlink:href="#DejaVuSans-30"/>
      </g>
     </g>
    </g>
    <g id="xtick_2">
     <g id="line2d_2">
      <g>
       <use xlink:href="#m3a3c90a6ab" x="115.231629" y="307.584" style="stroke: #000000; stroke-width: 0.8"/>
      </g>
     </g>
     <g id="text_2">
      <!-- 20 -->
      <g transform="translate(108.869129 322.182437) scale(0.1 -0.1)">
       <defs>
        <path id="DejaVuSans-32" d="M 1228 531 
L 3431 531 
L 3431 0 
L 469 0 
L 469 531 
Q 828 903 1448 1529 
Q 2069 2156 2228 2338 
Q 2531 2678 2651 2914 
Q 2772 3150 2772 3378 
Q 2772 3750 2511 3984 
Q 2250 4219 1831 4219 
Q 1534 4219 1204 4116 
Q 875 4013 500 3803 
L 500 4441 
Q 881 4594 1212 4672 
Q 1544 4750 1819 4750 
Q 2544 4750 2975 4387 
Q 3406 4025 3406 3419 
Q 3406 3131 3298 2873 
Q 3191 2616 2906 2266 
Q 2828 2175 2409 1742 
Q 1991 1309 1228 531 
z
" transform="scale(0.015625)"/>
       </defs>
       <use xlink:href="#DejaVuSans-32"/>
       <use xlink:href="#DejaVuSans-30" x="63.623047"/>
      </g>
     </g>
    </g>
    <g id="xtick_3">
     <g id="line2d_3">
      <g>
       <use xlink:href="#m3a3c90a6ab" x="158.80942" y="307.584" style="stroke: #000000; stroke-width: 0.8"/>
      </g>
     </g>
     <g id="text_3">
      <!-- 40 -->
      <g transform="translate(152.44692 322.182437) scale(0.1 -0.1)">
       <defs>
        <path id="DejaVuSans-34" d="M 2419 4116 
L 825 1625 
L 2419 1625 
L 2419 4116 
z
M 2253 4666 
L 3047 4666 
L 3047 1625 
L 3713 1625 
L 3713 1100 
L 3047 1100 
L 3047 0 
L 2419 0 
L 2419 1100 
L 313 1100 
L 313 1709 
L 2253 4666 
z
" transform="scale(0.015625)"/>
       </defs>
       <use xlink:href="#DejaVuSans-34"/>
       <use xlink:href="#DejaVuSans-30" x="63.623047"/>
      </g>
     </g>
    </g>
    <g id="xtick_4">
     <g id="line2d_4">
      <g>
       <use xlink:href="#m3a3c90a6ab" x="202.387212" y="307.584" style="stroke: #000000; stroke-width: 0.8"/>
      </g>
     </g>
     <g id="text_4">
      <!-- 60 -->
      <g transform="translate(196.024712 322.182437) scale(0.1 -0.1)">
       <defs>
        <path id="DejaVuSans-36" d="M 2113 2584 
Q 1688 2584 1439 2293 
Q 1191 2003 1191 1497 
Q 1191 994 1439 701 
Q 1688 409 2113 409 
Q 2538 409 2786 701 
Q 3034 994 3034 1497 
Q 3034 2003 2786 2293 
Q 2538 2584 2113 2584 
z
M 3366 4563 
L 3366 3988 
Q 3128 4100 2886 4159 
Q 2644 4219 2406 4219 
Q 1781 4219 1451 3797 
Q 1122 3375 1075 2522 
Q 1259 2794 1537 2939 
Q 1816 3084 2150 3084 
Q 2853 3084 3261 2657 
Q 3669 2231 3669 1497 
Q 3669 778 3244 343 
Q 2819 -91 2113 -91 
Q 1303 -91 875 529 
Q 447 1150 447 2328 
Q 447 3434 972 4092 
Q 1497 4750 2381 4750 
Q 2619 4750 2861 4703 
Q 3103 4656 3366 4563 
z
" transform="scale(0.015625)"/>
       </defs>
       <use xlink:href="#DejaVuSans-36"/>
       <use xlink:href="#DejaVuSans-30" x="63.623047"/>
      </g>
     </g>
    </g>
    <g id="xtick_5">
     <g id="line2d_5">
      <g>
       <use xlink:href="#m3a3c90a6ab" x="245.965003" y="307.584" style="stroke: #000000; stroke-width: 0.8"/>
      </g>
     </g>
     <g id="text_5">
      <!-- 80 -->
      <g transform="translate(239.602503 322.182437) scale(0.1 -0.1)">
       <defs>
        <path id="DejaVuSans-38" d="M 2034 2216 
Q 1584 2216 1326 1975 
Q 1069 1734 1069 1313 
Q 1069 891 1326 650 
Q 1584 409 2034 409 
Q 2484 409 2743 651 
Q 3003 894 3003 1313 
Q 3003 1734 2745 1975 
Q 2488 2216 2034 2216 
z
M 1403 2484 
Q 997 2584 770 2862 
Q 544 3141 544 3541 
Q 544 4100 942 4425 
Q 1341 4750 2034 4750 
Q 2731 4750 3128 4425 
Q 3525 4100 3525 3541 
Q 3525 3141 3298 2862 
Q 3072 2584 2669 2484 
Q 3125 2378 3379 2068 
Q 3634 1759 3634 1313 
Q 3634 634 3220 271 
Q 2806 -91 2034 -91 
Q 1263 -91 848 271 
Q 434 634 434 1313 
Q 434 1759 690 2068 
Q 947 2378 1403 2484 
z
M 1172 3481 
Q 1172 3119 1398 2916 
Q 1625 2713 2034 2713 
Q 2441 2713 2670 2916 
Q 2900 3119 2900 3481 
Q 2900 3844 2670 4047 
Q 2441 4250 2034 4250 
Q 1625 4250 1398 4047 
Q 1172 3844 1172 3481 
z
" transform="scale(0.015625)"/>
       </defs>
       <use xlink:href="#DejaVuSans-38"/>
       <use xlink:href="#DejaVuSans-30" x="63.623047"/>
      </g>
     </g>
    </g>
    <g id="xtick_6">
     <g id="line2d_6">
      <g>
       <use xlink:href="#m3a3c90a6ab" x="289.542794" y="307.584" style="stroke: #000000; stroke-width: 0.8"/>
      </g>
     </g>
     <g id="text_6">
      <!-- 100 -->
      <g transform="translate(279.999044 322.182437) scale(0.1 -0.1)">
       <defs>
        <path id="DejaVuSans-31" d="M 794 531 
L 1825 531 
L 1825 4091 
L 703 3866 
L 703 4441 
L 1819 4666 
L 2450 4666 
L 2450 531 
L 3481 531 
L 3481 0 
L 794 0 
L 794 531 
z
" transform="scale(0.015625)"/>
       </defs>
       <use xlink:href="#DejaVuSans-31"/>
       <use xlink:href="#DejaVuSans-30" x="63.623047"/>
       <use xlink:href="#DejaVuSans-30" x="127.246094"/>
      </g>
     </g>
    </g>
    <g id="xtick_7">
     <g id="line2d_7">
      <g>
       <use xlink:href="#m3a3c90a6ab" x="333.120586" y="307.584" style="stroke: #000000; stroke-width: 0.8"/>
      </g>
     </g>
     <g id="text_7">
      <!-- 120 -->
      <g transform="translate(323.576836 322.182437) scale(0.1 -0.1)">
       <use xlink:href="#DejaVuSans-31"/>
       <use xlink:href="#DejaVuSans-32" x="63.623047"/>
       <use xlink:href="#DejaVuSans-30" x="127.246094"/>
      </g>
     </g>
    </g>
    <g id="xtick_8">
     <g id="line2d_8">
      <g>
       <use xlink:href="#m3a3c90a6ab" x="376.698377" y="307.584" style="stroke: #000000; stroke-width: 0.8"/>
      </g>
     </g>
     <g id="text_8">
      <!-- 140 -->
      <g transform="translate(367.154627 322.182437) scale(0.1 -0.1)">
       <use xlink:href="#DejaVuSans-31"/>
       <use xlink:href="#DejaVuSans-34" x="63.623047"/>
       <use xlink:href="#DejaVuSans-30" x="127.246094"/>
      </g>
     </g>
    </g>
    <g id="text_9">
     <!-- epoch -->
     <g transform="translate(220.931875 335.860562) scale(0.1 -0.1)">
      <defs>
       <path id="DejaVuSans-65" d="M 3597 1894 
L 3597 1613 
L 953 1613 
Q 991 1019 1311 708 
Q 1631 397 2203 397 
Q 2534 397 2845 478 
Q 3156 559 3463 722 
L 3463 178 
Q 3153 47 2828 -22 
Q 2503 -91 2169 -91 
Q 1331 -91 842 396 
Q 353 884 353 1716 
Q 353 2575 817 3079 
Q 1281 3584 2069 3584 
Q 2775 3584 3186 3129 
Q 3597 2675 3597 1894 
z
M 3022 2063 
Q 3016 2534 2758 2815 
Q 2500 3097 2075 3097 
Q 1594 3097 1305 2825 
Q 1016 2553 972 2059 
L 3022 2063 
z
" transform="scale(0.015625)"/>
       <path id="DejaVuSans-70" d="M 1159 525 
L 1159 -1331 
L 581 -1331 
L 581 3500 
L 1159 3500 
L 1159 2969 
Q 1341 3281 1617 3432 
Q 1894 3584 2278 3584 
Q 2916 3584 3314 3078 
Q 3713 2572 3713 1747 
Q 3713 922 3314 415 
Q 2916 -91 2278 -91 
Q 1894 -91 1617 61 
Q 1341 213 1159 525 
z
M 3116 1747 
Q 3116 2381 2855 2742 
Q 2594 3103 2138 3103 
Q 1681 3103 1420 2742 
Q 1159 2381 1159 1747 
Q 1159 1113 1420 752 
Q 1681 391 2138 391 
Q 2594 391 2855 752 
Q 3116 1113 3116 1747 
z
" transform="scale(0.015625)"/>
       <path id="DejaVuSans-6f" d="M 1959 3097 
Q 1497 3097 1228 2736 
Q 959 2375 959 1747 
Q 959 1119 1226 758 
Q 1494 397 1959 397 
Q 2419 397 2687 759 
Q 2956 1122 2956 1747 
Q 2956 2369 2687 2733 
Q 2419 3097 1959 3097 
z
M 1959 3584 
Q 2709 3584 3137 3096 
Q 3566 2609 3566 1747 
Q 3566 888 3137 398 
Q 2709 -91 1959 -91 
Q 1206 -91 779 398 
Q 353 888 353 1747 
Q 353 2609 779 3096 
Q 1206 3584 1959 3584 
z
" transform="scale(0.015625)"/>
       <path id="DejaVuSans-63" d="M 3122 3366 
L 3122 2828 
Q 2878 2963 2633 3030 
Q 2388 3097 2138 3097 
Q 1578 3097 1268 2742 
Q 959 2388 959 1747 
Q 959 1106 1268 751 
Q 1578 397 2138 397 
Q 2388 397 2633 464 
Q 2878 531 3122 666 
L 3122 134 
Q 2881 22 2623 -34 
Q 2366 -91 2075 -91 
Q 1284 -91 818 406 
Q 353 903 353 1747 
Q 353 2603 823 3093 
Q 1294 3584 2113 3584 
Q 2378 3584 2631 3529 
Q 2884 3475 3122 3366 
z
" transform="scale(0.015625)"/>
       <path id="DejaVuSans-68" d="M 3513 2113 
L 3513 0 
L 2938 0 
L 2938 2094 
Q 2938 2591 2744 2837 
Q 2550 3084 2163 3084 
Q 1697 3084 1428 2787 
Q 1159 2491 1159 1978 
L 1159 0 
L 581 0 
L 581 4863 
L 1159 4863 
L 1159 2956 
Q 1366 3272 1645 3428 
Q 1925 3584 2291 3584 
Q 2894 3584 3203 3211 
Q 3513 2838 3513 2113 
z
" transform="scale(0.015625)"/>
      </defs>
      <use xlink:href="#DejaVuSans-65"/>
      <use xlink:href="#DejaVuSans-70" x="61.523438"/>
      <use xlink:href="#DejaVuSans-6f" x="125"/>
      <use xlink:href="#DejaVuSans-63" x="186.181641"/>
      <use xlink:href="#DejaVuSans-68" x="241.162109"/>
     </g>
    </g>
   </g>
   <g id="matplotlib.axis_2">
    <g id="ytick_1">
     <g id="line2d_9">
      <defs>
       <path id="m8e3caa6215" d="M 0 0 
L -3.5 0 
" style="stroke: #000000; stroke-width: 0.8"/>
      </defs>
      <g>
       <use xlink:href="#m8e3caa6215" x="57.6" y="307.584" style="stroke: #000000; stroke-width: 0.8"/>
      </g>
     </g>
     <g id="text_10">
      <!-- 0.0 -->
      <g transform="translate(34.696875 311.383219) scale(0.1 -0.1)">
       <defs>
        <path id="DejaVuSans-2e" d="M 684 794 
L 1344 794 
L 1344 0 
L 684 0 
L 684 794 
z
" transform="scale(0.015625)"/>
       </defs>
       <use xlink:href="#DejaVuSans-30"/>
       <use xlink:href="#DejaVuSans-2e" x="63.623047"/>
       <use xlink:href="#DejaVuSans-30" x="95.410156"/>
      </g>
     </g>
    </g>
    <g id="ytick_2">
     <g id="line2d_10">
      <g>
       <use xlink:href="#m8e3caa6215" x="57.6" y="255.604586" style="stroke: #000000; stroke-width: 0.8"/>
      </g>
     </g>
     <g id="text_11">
      <!-- 0.2 -->
      <g transform="translate(34.696875 259.403805) scale(0.1 -0.1)">
       <use xlink:href="#DejaVuSans-30"/>
       <use xlink:href="#DejaVuSans-2e" x="63.623047"/>
       <use xlink:href="#DejaVuSans-32" x="95.410156"/>
      </g>
     </g>
    </g>
    <g id="ytick_3">
     <g id="line2d_11">
      <g>
       <use xlink:href="#m8e3caa6215" x="57.6" y="203.625172" style="stroke: #000000; stroke-width: 0.8"/>
      </g>
     </g>
     <g id="text_12">
      <!-- 0.4 -->
      <g transform="translate(34.696875 207.424391) scale(0.1 -0.1)">
       <use xlink:href="#DejaVuSans-30"/>
       <use xlink:href="#DejaVuSans-2e" x="63.623047"/>
       <use xlink:href="#DejaVuSans-34" x="95.410156"/>
      </g>
     </g>
    </g>
    <g id="ytick_4">
     <g id="line2d_12">
      <g>
       <use xlink:href="#m8e3caa6215" x="57.6" y="151.645758" style="stroke: #000000; stroke-width: 0.8"/>
      </g>
     </g>
     <g id="text_13">
      <!-- 0.6 -->
      <g transform="translate(34.696875 155.444977) scale(0.1 -0.1)">
       <use xlink:href="#DejaVuSans-30"/>
       <use xlink:href="#DejaVuSans-2e" x="63.623047"/>
       <use xlink:href="#DejaVuSans-36" x="95.410156"/>
      </g>
     </g>
    </g>
    <g id="ytick_5">
     <g id="line2d_13">
      <g>
       <use xlink:href="#m8e3caa6215" x="57.6" y="99.666344" style="stroke: #000000; stroke-width: 0.8"/>
      </g>
     </g>
     <g id="text_14">
      <!-- 0.8 -->
      <g transform="translate(34.696875 103.465563) scale(0.1 -0.1)">
       <use xlink:href="#DejaVuSans-30"/>
       <use xlink:href="#DejaVuSans-2e" x="63.623047"/>
       <use xlink:href="#DejaVuSans-38" x="95.410156"/>
      </g>
     </g>
    </g>
    <g id="ytick_6">
     <g id="line2d_14">
      <g>
       <use xlink:href="#m8e3caa6215" x="57.6" y="47.68693" style="stroke: #000000; stroke-width: 0.8"/>
      </g>
     </g>
     <g id="text_15">
      <!-- 1.0 -->
      <g transform="translate(34.696875 51.486149) scale(0.1 -0.1)">
       <use xlink:href="#DejaVuSans-31"/>
       <use xlink:href="#DejaVuSans-2e" x="63.623047"/>
       <use xlink:href="#DejaVuSans-30" x="95.410156"/>
      </g>
     </g>
    </g>
   </g>
   <g id="line2d_15">
    <path d="M 73.832727 235.510692 
L 76.011617 172.08558 
L 78.190506 125.355244 
L 80.369396 122.655503 
L 82.548286 130.867529 
L 84.727175 127.054803 
L 86.906065 110.585631 
L 89.084954 103.095541 
L 91.263844 97.793822 
L 93.442733 98.17735 
L 95.621623 96.628195 
L 97.800513 97.876544 
L 99.979402 96.84628 
L 102.158292 94.981278 
L 104.337181 95.176803 
L 106.516071 93.349401 
L 108.69496 93.334361 
L 110.87385 94.958718 
L 113.052739 96.079223 
L 115.231629 92.477062 
L 117.410519 95.05648 
L 119.589408 93.710369 
L 121.768298 94.357104 
L 123.947187 93.063635 
L 126.126077 93.537406 
L 128.304966 94.221741 
L 130.483856 93.191478 
L 132.662746 94.62031 
L 134.841635 92.341699 
L 137.020525 96.274747 
L 139.199414 93.108756 
L 141.378304 95.628013 
L 143.557193 94.650391 
L 145.736083 91.484399 
L 147.914973 90.243571 
L 150.093862 90.048047 
L 152.272752 91.010628 
L 154.451641 90.792544 
L 156.630531 94.582709 
L 158.80942 93.116276 
L 160.98831 93.048594 
L 163.1672 92.589864 
L 165.346089 91.732565 
L 167.524979 92.446981 
L 169.703868 90.890306 
L 171.882758 94.928637 
L 174.061647 90.160849 
L 176.240537 91.679924 
L 178.419426 91.52952 
L 180.598316 93.447163 
L 182.777206 93.3118 
L 184.956095 92.033372 
L 187.134985 92.349219 
L 189.313874 91.176072 
L 191.492764 92.003291 
L 193.671653 93.086195 
L 195.850543 92.025851 
L 198.029433 94.785754 
L 200.208322 94.16158 
L 202.387212 91.559601 
L 204.566101 93.29676 
L 206.744991 94.64287 
L 208.92388 94.530068 
L 211.10277 94.665431 
L 213.28166 90.536858 
L 215.460549 92.980913 
L 217.639439 94.244301 
L 219.818328 95.003839 
L 221.997218 91.867928 
L 224.176107 93.612607 
L 226.354997 92.634985 
L 228.533887 93.30428 
L 230.712776 91.025669 
L 232.891666 91.988251 
L 235.070555 95.011359 
L 237.249445 91.875448 
L 239.428334 91.792726 
L 241.607224 90.950467 
L 243.786113 94.274382 
L 245.965003 91.597202 
L 248.143893 90.988068 
L 250.322782 91.597202 
L 252.501672 92.980913 
L 254.680561 93.935975 
L 259.03834 92.138654 
L 261.21723 92.033372 
L 263.39612 91.266314 
L 265.575009 90.973028 
L 267.753899 89.792361 
L 269.932788 92.642505 
L 272.111678 89.348671 
L 274.290567 91.431758 
L 276.469457 91.176072 
L 278.648347 94.116459 
L 280.827236 89.920204 
L 283.006126 92.890671 
L 285.185015 91.882968 
L 287.363905 92.198815 
L 289.542794 90.942947 
L 291.721684 91.845367 
L 293.900574 91.484399 
L 296.079463 89.702119 
L 298.258353 93.462204 
L 300.437242 93.086195 
L 302.616132 92.950832 
L 304.795021 93.319321 
L 306.973911 91.183592 
L 309.1528 92.439461 
L 311.33169 94.063817 
L 313.51058 90.927907 
L 315.689469 92.777868 
L 317.868359 92.462021 
L 320.047248 90.326293 
L 322.226138 92.492102 
L 324.405027 93.770531 
L 326.583917 89.837482 
L 328.762807 92.732747 
L 330.941696 93.214038 
L 333.120586 91.439278 
L 335.299475 94.838395 
L 337.478365 92.311618 
L 339.657254 91.740085 
L 341.836144 88.987703 
L 344.015034 89.356191 
L 346.193923 92.4169 
L 348.372813 92.499622 
L 350.551702 93.010994 
L 352.730592 92.83803 
L 354.909481 93.905894 
L 357.088371 92.687626 
L 359.267261 92.582344 
L 361.44615 91.258794 
L 363.62504 95.94386 
L 365.803929 90.514297 
L 367.982819 90.326293 
L 370.161708 93.890854 
L 372.340598 92.687626 
L 374.519487 90.589499 
L 376.698377 93.838212 
L 378.877267 93.236599 
L 381.056156 93.770531 
L 383.235046 92.063452 
L 385.413935 92.627465 
L 387.592825 93.033554 
L 389.771714 90.980548 
L 391.950604 92.364259 
L 394.129494 93.229079 
L 396.308383 90.792544 
L 398.487273 90.21349 
L 398.487273 90.21349 
" clip-path="url(#p9e25c52af9)" style="fill: none; stroke: #1f77b4; stroke-linecap: square"/>
   </g>
   <g id="line2d_16">
    <path d="M 73.832727 132.024851 
L 76.011617 132.019744 
L 78.190506 275.473699 
L 80.369396 285.608965 
L 82.548286 132.027405 
L 84.727175 131.949339 
L 86.906065 132.041814 
L 89.084954 129.642561 
L 91.263844 129.909955 
L 93.442733 129.39596 
L 95.621623 129.368783 
L 97.800513 128.595054 
L 99.979402 154.223505 
L 102.158292 129.868369 
L 104.337181 134.842159 
L 106.516071 137.660378 
L 108.69496 132.132648 
L 110.87385 127.900303 
L 113.052739 128.209284 
L 115.231629 189.995795 
L 117.410519 131.580896 
L 119.589408 125.863473 
L 121.768298 129.819122 
L 123.947187 128.875216 
L 126.126077 132.200135 
L 128.304966 127.743259 
L 130.483856 131.819837 
L 132.662746 150.631192 
L 134.841635 126.748829 
L 137.020525 127.429171 
L 139.199414 127.716082 
L 141.378304 129.752911 
L 143.557193 166.745804 
L 145.736083 134.631672 
L 147.914973 138.048702 
L 150.093862 132.371588 
L 152.272752 133.99164 
L 154.451641 133.018004 
L 156.630531 129.795775 
L 158.80942 127.977092 
L 163.1672 128.201623 
L 165.346089 123.932798 
L 167.524979 129.563218 
L 169.703868 129.63107 
L 174.061647 125.786684 
L 176.240537 133.942393 
L 178.419426 133.892781 
L 180.598316 130.52281 
L 182.777206 127.446134 
L 184.956095 127.683433 
L 187.134985 124.63138 
L 189.313874 126.492014 
L 191.492764 142.491169 
L 193.671653 132.215821 
L 195.850543 130.965488 
L 198.029433 129.553004 
L 200.208322 129.246577 
L 202.387212 131.702738 
L 204.566101 130.764304 
L 206.744991 130.4566 
L 208.92388 129.716432 
L 211.10277 126.503505 
L 213.28166 133.46962 
L 215.460549 125.763337 
L 217.639439 131.321163 
L 219.818328 127.878233 
L 221.997218 131.277023 
L 224.176107 130.618751 
L 226.354997 127.936782 
L 228.533887 127.148644 
L 230.712776 129.576351 
L 232.891666 127.622694 
L 235.070555 127.07605 
L 237.249445 129.754188 
L 239.428334 127.368068 
L 241.607224 127.068389 
L 243.786113 129.576351 
L 245.965003 128.977906 
L 248.143893 127.304411 
L 250.322782 128.30942 
L 252.501672 135.354877 
L 254.680561 129.743974 
L 256.859451 127.518728 
L 259.03834 129.929472 
L 261.21723 138.488826 
L 263.39612 133.316771 
L 265.575009 130.647205 
L 267.753899 134.347315 
L 269.932788 128.828522 
L 272.111678 128.506774 
L 274.290567 135.949492 
L 278.648347 129.35565 
L 280.827236 128.48598 
L 283.006126 129.407816 
L 285.185015 129.743974 
L 287.363905 134.770477 
L 289.542794 132.908931 
L 291.721684 134.886299 
L 293.900574 129.510141 
L 296.079463 126.548922 
L 298.258353 134.958893 
L 300.437242 131.523988 
L 302.616132 141.917347 
L 304.795021 130.145977 
L 306.973911 129.647668 
L 309.1528 129.457063 
L 311.33169 129.097558 
L 313.51058 131.266808 
L 315.689469 134.460219 
L 317.868359 133.629582 
L 320.047248 130.164582 
L 322.226138 138.374281 
L 324.405027 131.669177 
L 326.583917 128.578091 
L 328.762807 130.413737 
L 330.941696 130.277486 
L 333.120586 126.743722 
L 335.299475 140.430992 
L 337.478365 135.013612 
L 339.657254 138.060193 
L 341.836144 130.981174 
L 344.015034 136.234761 
L 346.193923 129.682871 
L 348.372813 128.533951 
L 350.551702 130.873378 
L 352.730592 128.426154 
L 357.088371 131.073285 
L 359.267261 132.998488 
L 361.44615 127.27085 
L 363.62504 128.156206 
L 365.803929 126.084174 
L 367.982819 130.032162 
L 370.161708 129.092086 
L 372.340598 126.728036 
L 374.519487 127.621417 
L 376.698377 154.816478 
L 378.877267 129.32592 
L 381.056156 128.781829 
L 383.235046 131.048661 
L 385.413935 126.065934 
L 387.592825 127.548459 
L 389.771714 132.877923 
L 391.950604 126.898213 
L 394.129494 132.579156 
L 396.308383 136.206307 
L 398.487273 132.852935 
L 398.487273 132.852935 
" clip-path="url(#p9e25c52af9)" style="fill: none; stroke: #ff7f0e; stroke-linecap: square"/>
   </g>
   <g id="line2d_17">
    <path d="M 73.832727 134.044766 
L 76.011617 134.133046 
L 78.190506 134.006434 
L 80.369396 133.753209 
L 82.548286 134.512884 
L 84.727175 133.879821 
L 86.906065 133.373371 
L 89.084954 134.133046 
L 91.263844 133.013281 
L 93.442733 131.402166 
L 95.621623 129.095264 
L 97.800513 234.063972 
L 99.979402 124.395502 
L 102.158292 115.40137 
L 104.337181 118.071848 
L 106.516071 112.841243 
L 108.69496 126.916135 
L 110.87385 130.348611 
L 113.052739 119.678316 
L 115.231629 209.065559 
L 117.410519 123.551032 
L 119.589408 111.544917 
L 121.768298 182.929957 
L 123.947187 123.628858 
L 126.126077 109.625983 
L 128.304966 117.388837 
L 130.483856 107.126258 
L 132.662746 109.239176 
L 134.841635 109.040545 
L 137.020525 115.555861 
L 139.199414 106.475772 
L 141.378304 131.050207 
L 143.557193 108.521318 
L 145.736083 107.09838 
L 147.914973 106.568698 
L 150.093862 199.878604 
L 152.272752 185.224082 
L 154.451641 119.68877 
L 156.630531 103.346469 
L 158.80942 114.497659 
L 160.98831 119.595844 
L 163.1672 128.075395 
L 165.346089 116.69305 
L 167.524979 102.640227 
L 169.703868 129.989682 
L 171.882758 113.597433 
L 174.061647 112.355701 
L 176.240537 156.054427 
L 178.419426 135.887036 
L 180.598316 123.390733 
L 182.777206 124.450096 
L 184.956095 189.880866 
L 187.134985 126.531652 
L 189.313874 105.591808 
L 191.492764 101.923531 
L 195.850543 127.071787 
L 198.029433 108.312233 
L 200.208322 144.324769 
L 202.387212 120.284662 
L 204.566101 109.857138 
L 206.744991 107.8476 
L 211.10277 153.411828 
L 213.28166 114.088782 
L 215.460549 134.481521 
L 217.639439 102.766839 
L 219.818328 105.890334 
L 221.997218 134.01805 
L 224.176107 100.725939 
L 226.354997 128.196199 
L 228.533887 100.99078 
L 230.712776 109.592297 
L 232.891666 124.086521 
L 235.070555 154.935824 
L 237.249445 101.878229 
L 239.428334 103.423133 
L 241.607224 103.428941 
L 243.786113 112.565948 
L 245.965003 101.823635 
L 248.143893 107.683817 
L 250.322782 99.848945 
L 252.501672 102.204634 
L 254.680561 137.167099 
L 256.859451 103.356923 
L 259.03834 101.321831 
L 261.21723 102.501999 
L 263.39612 103.168747 
L 265.575009 112.052528 
L 267.753899 102.397456 
L 269.932788 111.307954 
L 272.111678 102.662297 
L 274.290567 117.911549 
L 276.469457 101.630812 
L 278.648347 106.889295 
L 280.827236 119.969873 
L 283.006126 124.720745 
L 285.185015 108.196075 
L 287.363905 108.340111 
L 289.542794 105.69635 
L 291.721684 101.647074 
L 293.900574 104.725267 
L 296.079463 102.216249 
L 298.258353 100.81422 
L 300.437242 109.487755 
L 302.616132 114.519729 
L 304.795021 105.834578 
L 306.973911 101.558794 
L 309.1528 101.845705 
L 311.33169 122.342986 
L 313.51058 101.956055 
L 315.689469 103.683328 
L 317.868359 105.635948 
L 320.047248 99.959295 
L 322.226138 102.055951 
L 324.405027 113.129315 
L 326.583917 103.390609 
L 328.762807 123.578909 
L 330.941696 104.361692 
L 333.120586 108.025322 
L 335.299475 111.391588 
L 337.478365 101.442636 
L 339.657254 100.543571 
L 341.836144 103.230311 
L 344.015034 107.335343 
L 346.193923 139.065125 
L 348.372813 106.000685 
L 350.551702 99.401736 
L 352.730592 116.581538 
L 354.909481 101.713284 
L 357.088371 102.519422 
L 359.267261 100.515693 
L 361.44615 104.736883 
L 363.62504 99.672384 
L 365.803929 106.789399 
L 367.982819 120.703993 
L 370.161708 102.529877 
L 372.340598 104.295482 
L 374.519487 123.314069 
L 376.698377 114.933252 
L 378.877267 101.145271 
L 381.056156 101.470514 
L 383.235046 102.915522 
L 385.413935 104.008571 
L 387.592825 128.522604 
L 389.771714 103.445203 
L 391.950604 112.477667 
L 394.129494 126.547914 
L 396.308383 101.978125 
L 398.487273 118.237954 
L 398.487273 118.237954 
" clip-path="url(#p9e25c52af9)" style="fill: none; stroke: #2ca02c; stroke-linecap: square"/>
   </g>
   <g id="line2d_18">
    <path d="M 73.832727 131.406038 
L 76.011617 131.423694 
L 78.190506 131.564943 
L 80.369396 171.08507 
L 82.548286 131.582599 
L 84.727175 128.675236 
L 86.906065 124.220025 
L 89.084954 131.200051 
L 91.263844 126.691873 
L 93.442733 131.423694 
L 95.621623 131.482548 
L 97.800513 124.696739 
L 99.979402 114.273783 
L 102.158292 109.995134 
L 104.337181 112.796561 
L 106.516071 105.469299 
L 108.69496 127.398115 
L 110.87385 107.829325 
L 113.052739 102.844433 
L 115.231629 102.950369 
L 117.410519 100.560917 
L 119.589408 99.872331 
L 121.768298 98.907134 
L 123.947187 117.222344 
L 126.126077 98.024331 
L 128.304966 105.522268 
L 130.483856 98.448076 
L 132.662746 98.224433 
L 134.841635 102.391261 
L 137.020525 98.336255 
L 139.199414 99.984153 
L 141.378304 95.776127 
L 143.557193 97.600586 
L 145.736083 105.310395 
L 147.914973 97.641783 
L 150.093862 97.406369 
L 152.272752 97.476994 
L 154.451641 97.312204 
L 156.630531 96.706013 
L 158.80942 98.195006 
L 160.98831 95.222904 
L 163.1672 94.198854 
L 165.346089 94.145885 
L 167.524979 97.141529 
L 169.703868 96.123363 
L 171.882758 96.246955 
L 174.061647 95.605452 
L 176.240537 95.858522 
L 178.419426 93.045325 
L 180.598316 96.464713 
L 182.777206 94.875669 
L 184.956095 95.958573 
L 187.134985 95.305299 
L 189.313874 99.960611 
L 191.492764 99.389732 
L 193.671653 98.41865 
L 195.850543 92.692204 
L 200.208322 99.007185 
L 202.387212 95.787898 
L 204.566101 98.736459 
L 206.744991 94.128229 
L 208.92388 93.163032 
L 211.10277 93.310166 
L 213.28166 94.310675 
L 215.460549 93.680943 
L 217.639439 92.450904 
L 219.818328 94.569631 
L 221.997218 93.97521 
L 224.176107 97.100331 
L 226.354997 92.533299 
L 228.533887 95.628994 
L 230.712776 94.22828 
L 232.891666 94.345987 
L 235.070555 95.381809 
L 237.249445 93.427873 
L 239.428334 93.504382 
L 241.607224 95.334726 
L 243.786113 91.144357 
L 245.965003 95.770242 
L 248.143893 94.575516 
L 250.322782 101.378981 
L 252.501672 96.06451 
L 254.680561 93.716255 
L 256.859451 93.733911 
L 259.03834 94.151771 
L 261.21723 95.164051 
L 263.39612 93.204229 
L 265.575009 98.17735 
L 267.753899 92.521529 
L 269.932788 93.316051 
L 272.111678 92.586268 
L 274.290567 92.821682 
L 276.469457 94.922752 
L 278.648347 92.88642 
L 280.827236 93.274854 
L 283.006126 94.487236 
L 287.363905 93.963439 
L 289.542794 93.992866 
L 291.721684 94.969834 
L 293.900574 96.070395 
L 296.079463 92.339083 
L 298.258353 93.345478 
L 300.437242 94.981605 
L 302.616132 92.815796 
L 304.795021 94.069376 
L 306.973911 93.569121 
L 309.1528 97.571159 
L 311.33169 94.587287 
L 313.51058 93.586777 
L 315.689469 92.427363 
L 317.868359 95.493631 
L 320.047248 97.841885 
L 322.226138 94.787389 
L 324.405027 94.999261 
L 328.762807 93.46907 
L 330.941696 97.271006 
L 333.120586 94.510777 
L 335.299475 96.376433 
L 337.478365 93.904586 
L 339.657254 93.180688 
L 341.836144 96.729554 
L 344.015034 95.970344 
L 346.193923 96.788408 
L 348.372813 92.880535 
L 350.551702 92.868764 
L 352.730592 91.685809 
L 354.909481 94.569631 
L 357.088371 93.616204 
L 361.44615 93.72214 
L 363.62504 94.522548 
L 365.803929 93.062981 
L 367.982819 96.246955 
L 370.161708 95.593682 
L 372.340598 96.447057 
L 374.519487 93.033554 
L 376.698377 91.856484 
L 378.877267 94.828586 
L 381.056156 93.498497 
L 383.235046 95.776127 
L 387.592825 93.833962 
L 389.771714 93.928127 
L 391.950604 95.15228 
L 394.129494 93.345478 
L 396.308383 98.012561 
L 398.487273 94.522548 
L 398.487273 94.522548 
" clip-path="url(#p9e25c52af9)" style="fill: none; stroke: #d62728; stroke-linecap: square"/>
   </g>
   <g id="patch_3">
    <path d="M 57.6 307.584 
L 57.6 41.472 
" style="fill: none; stroke: #000000; stroke-width: 0.8; stroke-linejoin: miter; stroke-linecap: square"/>
   </g>
   <g id="patch_4">
    <path d="M 414.72 307.584 
L 414.72 41.472 
" style="fill: none; stroke: #000000; stroke-width: 0.8; stroke-linejoin: miter; stroke-linecap: square"/>
   </g>
   <g id="patch_5">
    <path d="M 57.6 307.584 
L 414.72 307.584 
" style="fill: none; stroke: #000000; stroke-width: 0.8; stroke-linejoin: miter; stroke-linecap: square"/>
   </g>
   <g id="patch_6">
    <path d="M 57.6 41.472 
L 414.72 41.472 
" style="fill: none; stroke: #000000; stroke-width: 0.8; stroke-linejoin: miter; stroke-linecap: square"/>
   </g>
   <g id="text_16">
    <!-- Accuracy of POD -->
    <g transform="translate(186.208125 35.472) scale(0.12 -0.12)">
     <defs>
      <path id="DejaVuSans-41" d="M 2188 4044 
L 1331 1722 
L 3047 1722 
L 2188 4044 
z
M 1831 4666 
L 2547 4666 
L 4325 0 
L 3669 0 
L 3244 1197 
L 1141 1197 
L 716 0 
L 50 0 
L 1831 4666 
z
" transform="scale(0.015625)"/>
      <path id="DejaVuSans-75" d="M 544 1381 
L 544 3500 
L 1119 3500 
L 1119 1403 
Q 1119 906 1312 657 
Q 1506 409 1894 409 
Q 2359 409 2629 706 
Q 2900 1003 2900 1516 
L 2900 3500 
L 3475 3500 
L 3475 0 
L 2900 0 
L 2900 538 
Q 2691 219 2414 64 
Q 2138 -91 1772 -91 
Q 1169 -91 856 284 
Q 544 659 544 1381 
z
M 1991 3584 
L 1991 3584 
z
" transform="scale(0.015625)"/>
      <path id="DejaVuSans-72" d="M 2631 2963 
Q 2534 3019 2420 3045 
Q 2306 3072 2169 3072 
Q 1681 3072 1420 2755 
Q 1159 2438 1159 1844 
L 1159 0 
L 581 0 
L 581 3500 
L 1159 3500 
L 1159 2956 
Q 1341 3275 1631 3429 
Q 1922 3584 2338 3584 
Q 2397 3584 2469 3576 
Q 2541 3569 2628 3553 
L 2631 2963 
z
" transform="scale(0.015625)"/>
      <path id="DejaVuSans-61" d="M 2194 1759 
Q 1497 1759 1228 1600 
Q 959 1441 959 1056 
Q 959 750 1161 570 
Q 1363 391 1709 391 
Q 2188 391 2477 730 
Q 2766 1069 2766 1631 
L 2766 1759 
L 2194 1759 
z
M 3341 1997 
L 3341 0 
L 2766 0 
L 2766 531 
Q 2569 213 2275 61 
Q 1981 -91 1556 -91 
Q 1019 -91 701 211 
Q 384 513 384 1019 
Q 384 1609 779 1909 
Q 1175 2209 1959 2209 
L 2766 2209 
L 2766 2266 
Q 2766 2663 2505 2880 
Q 2244 3097 1772 3097 
Q 1472 3097 1187 3025 
Q 903 2953 641 2809 
L 641 3341 
Q 956 3463 1253 3523 
Q 1550 3584 1831 3584 
Q 2591 3584 2966 3190 
Q 3341 2797 3341 1997 
z
" transform="scale(0.015625)"/>
      <path id="DejaVuSans-79" d="M 2059 -325 
Q 1816 -950 1584 -1140 
Q 1353 -1331 966 -1331 
L 506 -1331 
L 506 -850 
L 844 -850 
Q 1081 -850 1212 -737 
Q 1344 -625 1503 -206 
L 1606 56 
L 191 3500 
L 800 3500 
L 1894 763 
L 2988 3500 
L 3597 3500 
L 2059 -325 
z
" transform="scale(0.015625)"/>
      <path id="DejaVuSans-20" transform="scale(0.015625)"/>
      <path id="DejaVuSans-66" d="M 2375 4863 
L 2375 4384 
L 1825 4384 
Q 1516 4384 1395 4259 
Q 1275 4134 1275 3809 
L 1275 3500 
L 2222 3500 
L 2222 3053 
L 1275 3053 
L 1275 0 
L 697 0 
L 697 3053 
L 147 3053 
L 147 3500 
L 697 3500 
L 697 3744 
Q 697 4328 969 4595 
Q 1241 4863 1831 4863 
L 2375 4863 
z
" transform="scale(0.015625)"/>
      <path id="DejaVuSans-50" d="M 1259 4147 
L 1259 2394 
L 2053 2394 
Q 2494 2394 2734 2622 
Q 2975 2850 2975 3272 
Q 2975 3691 2734 3919 
Q 2494 4147 2053 4147 
L 1259 4147 
z
M 628 4666 
L 2053 4666 
Q 2838 4666 3239 4311 
Q 3641 3956 3641 3272 
Q 3641 2581 3239 2228 
Q 2838 1875 2053 1875 
L 1259 1875 
L 1259 0 
L 628 0 
L 628 4666 
z
" transform="scale(0.015625)"/>
      <path id="DejaVuSans-4f" d="M 2522 4238 
Q 1834 4238 1429 3725 
Q 1025 3213 1025 2328 
Q 1025 1447 1429 934 
Q 1834 422 2522 422 
Q 3209 422 3611 934 
Q 4013 1447 4013 2328 
Q 4013 3213 3611 3725 
Q 3209 4238 2522 4238 
z
M 2522 4750 
Q 3503 4750 4090 4092 
Q 4678 3434 4678 2328 
Q 4678 1225 4090 567 
Q 3503 -91 2522 -91 
Q 1538 -91 948 565 
Q 359 1222 359 2328 
Q 359 3434 948 4092 
Q 1538 4750 2522 4750 
z
" transform="scale(0.015625)"/>
      <path id="DejaVuSans-44" d="M 1259 4147 
L 1259 519 
L 2022 519 
Q 2988 519 3436 956 
Q 3884 1394 3884 2338 
Q 3884 3275 3436 3711 
Q 2988 4147 2022 4147 
L 1259 4147 
z
M 628 4666 
L 1925 4666 
Q 3281 4666 3915 4102 
Q 4550 3538 4550 2338 
Q 4550 1131 3912 565 
Q 3275 0 1925 0 
L 628 0 
L 628 4666 
z
" transform="scale(0.015625)"/>
     </defs>
     <use xlink:href="#DejaVuSans-41"/>
     <use xlink:href="#DejaVuSans-63" x="66.658203"/>
     <use xlink:href="#DejaVuSans-63" x="121.638672"/>
     <use xlink:href="#DejaVuSans-75" x="176.619141"/>
     <use xlink:href="#DejaVuSans-72" x="239.998047"/>
     <use xlink:href="#DejaVuSans-61" x="281.111328"/>
     <use xlink:href="#DejaVuSans-63" x="342.390625"/>
     <use xlink:href="#DejaVuSans-79" x="397.371094"/>
     <use xlink:href="#DejaVuSans-20" x="456.550781"/>
     <use xlink:href="#DejaVuSans-6f" x="488.337891"/>
     <use xlink:href="#DejaVuSans-66" x="549.519531"/>
     <use xlink:href="#DejaVuSans-20" x="584.724609"/>
     <use xlink:href="#DejaVuSans-50" x="616.511719"/>
     <use xlink:href="#DejaVuSans-4f" x="676.814453"/>
     <use xlink:href="#DejaVuSans-44" x="755.525391"/>
    </g>
   </g>
   <g id="legend_1">
    <g id="patch_7">
     <path d="M 299.162188 302.584 
L 407.72 302.584 
Q 409.72 302.584 409.72 300.584 
L 409.72 242.8715 
Q 409.72 240.8715 407.72 240.8715 
L 299.162188 240.8715 
Q 297.162188 240.8715 297.162188 242.8715 
L 297.162188 300.584 
Q 297.162188 302.584 299.162188 302.584 
z
" style="fill: #ffffff; opacity: 0.8; stroke: #cccccc; stroke-linejoin: miter"/>
    </g>
    <g id="line2d_19">
     <path d="M 301.162188 248.969937 
L 311.162188 248.969937 
L 321.162188 248.969937 
" style="fill: none; stroke: #1f77b4; stroke-linecap: square"/>
    </g>
    <g id="text_17">
     <!-- 2000 samples -->
     <g transform="translate(329.162188 252.469937) scale(0.1 -0.1)">
      <defs>
       <path id="DejaVuSans-73" d="M 2834 3397 
L 2834 2853 
Q 2591 2978 2328 3040 
Q 2066 3103 1784 3103 
Q 1356 3103 1142 2972 
Q 928 2841 928 2578 
Q 928 2378 1081 2264 
Q 1234 2150 1697 2047 
L 1894 2003 
Q 2506 1872 2764 1633 
Q 3022 1394 3022 966 
Q 3022 478 2636 193 
Q 2250 -91 1575 -91 
Q 1294 -91 989 -36 
Q 684 19 347 128 
L 347 722 
Q 666 556 975 473 
Q 1284 391 1588 391 
Q 1994 391 2212 530 
Q 2431 669 2431 922 
Q 2431 1156 2273 1281 
Q 2116 1406 1581 1522 
L 1381 1569 
Q 847 1681 609 1914 
Q 372 2147 372 2553 
Q 372 3047 722 3315 
Q 1072 3584 1716 3584 
Q 2034 3584 2315 3537 
Q 2597 3491 2834 3397 
z
" transform="scale(0.015625)"/>
       <path id="DejaVuSans-6d" d="M 3328 2828 
Q 3544 3216 3844 3400 
Q 4144 3584 4550 3584 
Q 5097 3584 5394 3201 
Q 5691 2819 5691 2113 
L 5691 0 
L 5113 0 
L 5113 2094 
Q 5113 2597 4934 2840 
Q 4756 3084 4391 3084 
Q 3944 3084 3684 2787 
Q 3425 2491 3425 1978 
L 3425 0 
L 2847 0 
L 2847 2094 
Q 2847 2600 2669 2842 
Q 2491 3084 2119 3084 
Q 1678 3084 1418 2786 
Q 1159 2488 1159 1978 
L 1159 0 
L 581 0 
L 581 3500 
L 1159 3500 
L 1159 2956 
Q 1356 3278 1631 3431 
Q 1906 3584 2284 3584 
Q 2666 3584 2933 3390 
Q 3200 3197 3328 2828 
z
" transform="scale(0.015625)"/>
       <path id="DejaVuSans-6c" d="M 603 4863 
L 1178 4863 
L 1178 0 
L 603 0 
L 603 4863 
z
" transform="scale(0.015625)"/>
      </defs>
      <use xlink:href="#DejaVuSans-32"/>
      <use xlink:href="#DejaVuSans-30" x="63.623047"/>
      <use xlink:href="#DejaVuSans-30" x="127.246094"/>
      <use xlink:href="#DejaVuSans-30" x="190.869141"/>
      <use xlink:href="#DejaVuSans-20" x="254.492188"/>
      <use xlink:href="#DejaVuSans-73" x="286.279297"/>
      <use xlink:href="#DejaVuSans-61" x="338.378906"/>
      <use xlink:href="#DejaVuSans-6d" x="399.658203"/>
      <use xlink:href="#DejaVuSans-70" x="497.070312"/>
      <use xlink:href="#DejaVuSans-6c" x="560.546875"/>
      <use xlink:href="#DejaVuSans-65" x="588.330078"/>
      <use xlink:href="#DejaVuSans-73" x="649.853516"/>
     </g>
    </g>
    <g id="line2d_20">
     <path d="M 301.162188 263.648062 
L 311.162188 263.648062 
L 321.162188 263.648062 
" style="fill: none; stroke: #ff7f0e; stroke-linecap: square"/>
    </g>
    <g id="text_18">
     <!-- 5000 samples -->
     <g transform="translate(329.162188 267.148062) scale(0.1 -0.1)">
      <defs>
       <path id="DejaVuSans-35" d="M 691 4666 
L 3169 4666 
L 3169 4134 
L 1269 4134 
L 1269 2991 
Q 1406 3038 1543 3061 
Q 1681 3084 1819 3084 
Q 2600 3084 3056 2656 
Q 3513 2228 3513 1497 
Q 3513 744 3044 326 
Q 2575 -91 1722 -91 
Q 1428 -91 1123 -41 
Q 819 9 494 109 
L 494 744 
Q 775 591 1075 516 
Q 1375 441 1709 441 
Q 2250 441 2565 725 
Q 2881 1009 2881 1497 
Q 2881 1984 2565 2268 
Q 2250 2553 1709 2553 
Q 1456 2553 1204 2497 
Q 953 2441 691 2322 
L 691 4666 
z
" transform="scale(0.015625)"/>
      </defs>
      <use xlink:href="#DejaVuSans-35"/>
      <use xlink:href="#DejaVuSans-30" x="63.623047"/>
      <use xlink:href="#DejaVuSans-30" x="127.246094"/>
      <use xlink:href="#DejaVuSans-30" x="190.869141"/>
      <use xlink:href="#DejaVuSans-20" x="254.492188"/>
      <use xlink:href="#DejaVuSans-73" x="286.279297"/>
      <use xlink:href="#DejaVuSans-61" x="338.378906"/>
      <use xlink:href="#DejaVuSans-6d" x="399.658203"/>
      <use xlink:href="#DejaVuSans-70" x="497.070312"/>
      <use xlink:href="#DejaVuSans-6c" x="560.546875"/>
      <use xlink:href="#DejaVuSans-65" x="588.330078"/>
      <use xlink:href="#DejaVuSans-73" x="649.853516"/>
     </g>
    </g>
    <g id="line2d_21">
     <path d="M 301.162188 278.326187 
L 311.162188 278.326187 
L 321.162188 278.326187 
" style="fill: none; stroke: #2ca02c; stroke-linecap: square"/>
    </g>
    <g id="text_19">
     <!-- 8000 samples -->
     <g transform="translate(329.162188 281.826187) scale(0.1 -0.1)">
      <use xlink:href="#DejaVuSans-38"/>
      <use xlink:href="#DejaVuSans-30" x="63.623047"/>
      <use xlink:href="#DejaVuSans-30" x="127.246094"/>
      <use xlink:href="#DejaVuSans-30" x="190.869141"/>
      <use xlink:href="#DejaVuSans-20" x="254.492188"/>
      <use xlink:href="#DejaVuSans-73" x="286.279297"/>
      <use xlink:href="#DejaVuSans-61" x="338.378906"/>
      <use xlink:href="#DejaVuSans-6d" x="399.658203"/>
      <use xlink:href="#DejaVuSans-70" x="497.070312"/>
      <use xlink:href="#DejaVuSans-6c" x="560.546875"/>
      <use xlink:href="#DejaVuSans-65" x="588.330078"/>
      <use xlink:href="#DejaVuSans-73" x="649.853516"/>
     </g>
    </g>
    <g id="line2d_22">
     <path d="M 301.162188 293.004312 
L 311.162188 293.004312 
L 321.162188 293.004312 
" style="fill: none; stroke: #d62728; stroke-linecap: square"/>
    </g>
    <g id="text_20">
     <!-- 10000 samples -->
     <g transform="translate(329.162188 296.504312) scale(0.1 -0.1)">
      <use xlink:href="#DejaVuSans-31"/>
      <use xlink:href="#DejaVuSans-30" x="63.623047"/>
      <use xlink:href="#DejaVuSans-30" x="127.246094"/>
      <use xlink:href="#DejaVuSans-30" x="190.869141"/>
      <use xlink:href="#DejaVuSans-30" x="254.492188"/>
      <use xlink:href="#DejaVuSans-20" x="318.115234"/>
      <use xlink:href="#DejaVuSans-73" x="349.902344"/>
      <use xlink:href="#DejaVuSans-61" x="402.001953"/>
      <use xlink:href="#DejaVuSans-6d" x="463.28125"/>
      <use xlink:href="#DejaVuSans-70" x="560.693359"/>
      <use xlink:href="#DejaVuSans-6c" x="624.169922"/>
      <use xlink:href="#DejaVuSans-65" x="651.953125"/>
      <use xlink:href="#DejaVuSans-73" x="713.476562"/>
     </g>
    </g>
   </g>
  </g>
 </g>
 <defs>
  <clipPath id="p9e25c52af9">
   <rect x="57.6" y="41.472" width="357.12" height="266.112"/>
  </clipPath>
 </defs>
</svg>
