<?xml version="1.0" encoding="utf-8" standalone="no"?>
<!DOCTYPE svg PUBLIC "-//W3C//DTD SVG 1.1//EN"
  "http://www.w3.org/Graphics/SVG/1.1/DTD/svg11.dtd">
<svg xmlns:xlink="http://www.w3.org/1999/xlink" width="460.8pt" height="345.6pt" viewBox="0 0 460.8 345.6" xmlns="http://www.w3.org/2000/svg" version="1.1">
 <metadata>
  <rdf:RDF xmlns:dc="http://purl.org/dc/elements/1.1/" xmlns:cc="http://creativecommons.org/ns#" xmlns:rdf="http://www.w3.org/1999/02/22-rdf-syntax-ns#">
   <cc:Work>
    <dc:type rdf:resource="http://purl.org/dc/dcmitype/StillImage"/>
    <dc:date>2023-09-13T16:28:35.826005</dc:date>
    <dc:format>image/svg+xml</dc:format>
    <dc:creator>
     <cc:Agent>
      <dc:title>Matplotlib v3.7.1, https://matplotlib.org/</dc:title>
     </cc:Agent>
    </dc:creator>
   </cc:Work>
  </rdf:RDF>
 </metadata>
 <defs>
  <style type="text/css">*{stroke-linejoin: round; stroke-linecap: butt}</style>
 </defs>
 <g id="figure_1">
  <g id="patch_1">
   <path d="M 0 345.6 
L 460.8 345.6 
L 460.8 0 
L 0 0 
z
" style="fill: #ffffff"/>
  </g>
  <g id="axes_1">
   <g id="patch_2">
    <path d="M 57.6 307.584 
L 414.72 307.584 
L 414.72 41.472 
L 57.6 41.472 
z
" style="fill: #ffffff"/>
   </g>
   <g id="matplotlib.axis_1">
    <g id="xtick_1">
     <g id="line2d_1">
      <defs>
       <path id="mb97d5ebcbe" d="M 0 0 
L 0 3.5 
" style="stroke: #000000; stroke-width: 0.8"/>
      </defs>
      <g>
       <use xlink:href="#mb97d5ebcbe" x="71.653838" y="307.584" style="stroke: #000000; stroke-width: 0.8"/>
      </g>
     </g>
     <g id="text_1">
      <!-- 0 -->
      <g transform="translate(68.472588 322.182437) scale(0.1 -0.1)">
       <defs>
        <path id="DejaVuSans-30" d="M 2034 4250 
Q 1547 4250 1301 3770 
Q 1056 3291 1056 2328 
Q 1056 1369 1301 889 
Q 1547 409 2034 409 
Q 2525 409 2770 889 
Q 3016 1369 3016 2328 
Q 3016 3291 2770 3770 
Q 2525 4250 2034 4250 
z
M 2034 4750 
Q 2819 4750 3233 4129 
Q 3647 3509 3647 2328 
Q 3647 1150 3233 529 
Q 2819 -91 2034 -91 
Q 1250 -91 836 529 
Q 422 1150 422 2328 
Q 422 3509 836 4129 
Q 1250 4750 2034 4750 
z
" transform="scale(0.015625)"/>
       </defs>
       <use xlink:href="#DejaVuSans-30"/>
      </g>
     </g>
    </g>
    <g id="xtick_2">
     <g id="line2d_2">
      <g>
       <use xlink:href="#mb97d5ebcbe" x="115.231629" y="307.584" style="stroke: #000000; stroke-width: 0.8"/>
      </g>
     </g>
     <g id="text_2">
      <!-- 20 -->
      <g transform="translate(108.869129 322.182437) scale(0.1 -0.1)">
       <defs>
        <path id="DejaVuSans-32" d="M 1228 531 
L 3431 531 
L 3431 0 
L 469 0 
L 469 531 
Q 828 903 1448 1529 
Q 2069 2156 2228 2338 
Q 2531 2678 2651 2914 
Q 2772 3150 2772 3378 
Q 2772 3750 2511 3984 
Q 2250 4219 1831 4219 
Q 1534 4219 1204 4116 
Q 875 4013 500 3803 
L 500 4441 
Q 881 4594 1212 4672 
Q 1544 4750 1819 4750 
Q 2544 4750 2975 4387 
Q 3406 4025 3406 3419 
Q 3406 3131 3298 2873 
Q 3191 2616 2906 2266 
Q 2828 2175 2409 1742 
Q 1991 1309 1228 531 
z
" transform="scale(0.015625)"/>
       </defs>
       <use xlink:href="#DejaVuSans-32"/>
       <use xlink:href="#DejaVuSans-30" x="63.623047"/>
      </g>
     </g>
    </g>
    <g id="xtick_3">
     <g id="line2d_3">
      <g>
       <use xlink:href="#mb97d5ebcbe" x="158.80942" y="307.584" style="stroke: #000000; stroke-width: 0.8"/>
      </g>
     </g>
     <g id="text_3">
      <!-- 40 -->
      <g transform="translate(152.44692 322.182437) scale(0.1 -0.1)">
       <defs>
        <path id="DejaVuSans-34" d="M 2419 4116 
L 825 1625 
L 2419 1625 
L 2419 4116 
z
M 2253 4666 
L 3047 4666 
L 3047 1625 
L 3713 1625 
L 3713 1100 
L 3047 1100 
L 3047 0 
L 2419 0 
L 2419 1100 
L 313 1100 
L 313 1709 
L 2253 4666 
z
" transform="scale(0.015625)"/>
       </defs>
       <use xlink:href="#DejaVuSans-34"/>
       <use xlink:href="#DejaVuSans-30" x="63.623047"/>
      </g>
     </g>
    </g>
    <g id="xtick_4">
     <g id="line2d_4">
      <g>
       <use xlink:href="#mb97d5ebcbe" x="202.387212" y="307.584" style="stroke: #000000; stroke-width: 0.8"/>
      </g>
     </g>
     <g id="text_4">
      <!-- 60 -->
      <g transform="translate(196.024712 322.182437) scale(0.1 -0.1)">
       <defs>
        <path id="DejaVuSans-36" d="M 2113 2584 
Q 1688 2584 1439 2293 
Q 1191 2003 1191 1497 
Q 1191 994 1439 701 
Q 1688 409 2113 409 
Q 2538 409 2786 701 
Q 3034 994 3034 1497 
Q 3034 2003 2786 2293 
Q 2538 2584 2113 2584 
z
M 3366 4563 
L 3366 3988 
Q 3128 4100 2886 4159 
Q 2644 4219 2406 4219 
Q 1781 4219 1451 3797 
Q 1122 3375 1075 2522 
Q 1259 2794 1537 2939 
Q 1816 3084 2150 3084 
Q 2853 3084 3261 2657 
Q 3669 2231 3669 1497 
Q 3669 778 3244 343 
Q 2819 -91 2113 -91 
Q 1303 -91 875 529 
Q 447 1150 447 2328 
Q 447 3434 972 4092 
Q 1497 4750 2381 4750 
Q 2619 4750 2861 4703 
Q 3103 4656 3366 4563 
z
" transform="scale(0.015625)"/>
       </defs>
       <use xlink:href="#DejaVuSans-36"/>
       <use xlink:href="#DejaVuSans-30" x="63.623047"/>
      </g>
     </g>
    </g>
    <g id="xtick_5">
     <g id="line2d_5">
      <g>
       <use xlink:href="#mb97d5ebcbe" x="245.965003" y="307.584" style="stroke: #000000; stroke-width: 0.8"/>
      </g>
     </g>
     <g id="text_5">
      <!-- 80 -->
      <g transform="translate(239.602503 322.182437) scale(0.1 -0.1)">
       <defs>
        <path id="DejaVuSans-38" d="M 2034 2216 
Q 1584 2216 1326 1975 
Q 1069 1734 1069 1313 
Q 1069 891 1326 650 
Q 1584 409 2034 409 
Q 2484 409 2743 651 
Q 3003 894 3003 1313 
Q 3003 1734 2745 1975 
Q 2488 2216 2034 2216 
z
M 1403 2484 
Q 997 2584 770 2862 
Q 544 3141 544 3541 
Q 544 4100 942 4425 
Q 1341 4750 2034 4750 
Q 2731 4750 3128 4425 
Q 3525 4100 3525 3541 
Q 3525 3141 3298 2862 
Q 3072 2584 2669 2484 
Q 3125 2378 3379 2068 
Q 3634 1759 3634 1313 
Q 3634 634 3220 271 
Q 2806 -91 2034 -91 
Q 1263 -91 848 271 
Q 434 634 434 1313 
Q 434 1759 690 2068 
Q 947 2378 1403 2484 
z
M 1172 3481 
Q 1172 3119 1398 2916 
Q 1625 2713 2034 2713 
Q 2441 2713 2670 2916 
Q 2900 3119 2900 3481 
Q 2900 3844 2670 4047 
Q 2441 4250 2034 4250 
Q 1625 4250 1398 4047 
Q 1172 3844 1172 3481 
z
" transform="scale(0.015625)"/>
       </defs>
       <use xlink:href="#DejaVuSans-38"/>
       <use xlink:href="#DejaVuSans-30" x="63.623047"/>
      </g>
     </g>
    </g>
    <g id="xtick_6">
     <g id="line2d_6">
      <g>
       <use xlink:href="#mb97d5ebcbe" x="289.542794" y="307.584" style="stroke: #000000; stroke-width: 0.8"/>
      </g>
     </g>
     <g id="text_6">
      <!-- 100 -->
      <g transform="translate(279.999044 322.182437) scale(0.1 -0.1)">
       <defs>
        <path id="DejaVuSans-31" d="M 794 531 
L 1825 531 
L 1825 4091 
L 703 3866 
L 703 4441 
L 1819 4666 
L 2450 4666 
L 2450 531 
L 3481 531 
L 3481 0 
L 794 0 
L 794 531 
z
" transform="scale(0.015625)"/>
       </defs>
       <use xlink:href="#DejaVuSans-31"/>
       <use xlink:href="#DejaVuSans-30" x="63.623047"/>
       <use xlink:href="#DejaVuSans-30" x="127.246094"/>
      </g>
     </g>
    </g>
    <g id="xtick_7">
     <g id="line2d_7">
      <g>
       <use xlink:href="#mb97d5ebcbe" x="333.120586" y="307.584" style="stroke: #000000; stroke-width: 0.8"/>
      </g>
     </g>
     <g id="text_7">
      <!-- 120 -->
      <g transform="translate(323.576836 322.182437) scale(0.1 -0.1)">
       <use xlink:href="#DejaVuSans-31"/>
       <use xlink:href="#DejaVuSans-32" x="63.623047"/>
       <use xlink:href="#DejaVuSans-30" x="127.246094"/>
      </g>
     </g>
    </g>
    <g id="xtick_8">
     <g id="line2d_8">
      <g>
       <use xlink:href="#mb97d5ebcbe" x="376.698377" y="307.584" style="stroke: #000000; stroke-width: 0.8"/>
      </g>
     </g>
     <g id="text_8">
      <!-- 140 -->
      <g transform="translate(367.154627 322.182437) scale(0.1 -0.1)">
       <use xlink:href="#DejaVuSans-31"/>
       <use xlink:href="#DejaVuSans-34" x="63.623047"/>
       <use xlink:href="#DejaVuSans-30" x="127.246094"/>
      </g>
     </g>
    </g>
    <g id="text_9">
     <!-- epoch -->
     <g transform="translate(220.931875 335.860562) scale(0.1 -0.1)">
      <defs>
       <path id="DejaVuSans-65" d="M 3597 1894 
L 3597 1613 
L 953 1613 
Q 991 1019 1311 708 
Q 1631 397 2203 397 
Q 2534 397 2845 478 
Q 3156 559 3463 722 
L 3463 178 
Q 3153 47 2828 -22 
Q 2503 -91 2169 -91 
Q 1331 -91 842 396 
Q 353 884 353 1716 
Q 353 2575 817 3079 
Q 1281 3584 2069 3584 
Q 2775 3584 3186 3129 
Q 3597 2675 3597 1894 
z
M 3022 2063 
Q 3016 2534 2758 2815 
Q 2500 3097 2075 3097 
Q 1594 3097 1305 2825 
Q 1016 2553 972 2059 
L 3022 2063 
z
" transform="scale(0.015625)"/>
       <path id="DejaVuSans-70" d="M 1159 525 
L 1159 -1331 
L 581 -1331 
L 581 3500 
L 1159 3500 
L 1159 2969 
Q 1341 3281 1617 3432 
Q 1894 3584 2278 3584 
Q 2916 3584 3314 3078 
Q 3713 2572 3713 1747 
Q 3713 922 3314 415 
Q 2916 -91 2278 -91 
Q 1894 -91 1617 61 
Q 1341 213 1159 525 
z
M 3116 1747 
Q 3116 2381 2855 2742 
Q 2594 3103 2138 3103 
Q 1681 3103 1420 2742 
Q 1159 2381 1159 1747 
Q 1159 1113 1420 752 
Q 1681 391 2138 391 
Q 2594 391 2855 752 
Q 3116 1113 3116 1747 
z
" transform="scale(0.015625)"/>
       <path id="DejaVuSans-6f" d="M 1959 3097 
Q 1497 3097 1228 2736 
Q 959 2375 959 1747 
Q 959 1119 1226 758 
Q 1494 397 1959 397 
Q 2419 397 2687 759 
Q 2956 1122 2956 1747 
Q 2956 2369 2687 2733 
Q 2419 3097 1959 3097 
z
M 1959 3584 
Q 2709 3584 3137 3096 
Q 3566 2609 3566 1747 
Q 3566 888 3137 398 
Q 2709 -91 1959 -91 
Q 1206 -91 779 398 
Q 353 888 353 1747 
Q 353 2609 779 3096 
Q 1206 3584 1959 3584 
z
" transform="scale(0.015625)"/>
       <path id="DejaVuSans-63" d="M 3122 3366 
L 3122 2828 
Q 2878 2963 2633 3030 
Q 2388 3097 2138 3097 
Q 1578 3097 1268 2742 
Q 959 2388 959 1747 
Q 959 1106 1268 751 
Q 1578 397 2138 397 
Q 2388 397 2633 464 
Q 2878 531 3122 666 
L 3122 134 
Q 2881 22 2623 -34 
Q 2366 -91 2075 -91 
Q 1284 -91 818 406 
Q 353 903 353 1747 
Q 353 2603 823 3093 
Q 1294 3584 2113 3584 
Q 2378 3584 2631 3529 
Q 2884 3475 3122 3366 
z
" transform="scale(0.015625)"/>
       <path id="DejaVuSans-68" d="M 3513 2113 
L 3513 0 
L 2938 0 
L 2938 2094 
Q 2938 2591 2744 2837 
Q 2550 3084 2163 3084 
Q 1697 3084 1428 2787 
Q 1159 2491 1159 1978 
L 1159 0 
L 581 0 
L 581 4863 
L 1159 4863 
L 1159 2956 
Q 1366 3272 1645 3428 
Q 1925 3584 2291 3584 
Q 2894 3584 3203 3211 
Q 3513 2838 3513 2113 
z
" transform="scale(0.015625)"/>
      </defs>
      <use xlink:href="#DejaVuSans-65"/>
      <use xlink:href="#DejaVuSans-70" x="61.523438"/>
      <use xlink:href="#DejaVuSans-6f" x="125"/>
      <use xlink:href="#DejaVuSans-63" x="186.181641"/>
      <use xlink:href="#DejaVuSans-68" x="241.162109"/>
     </g>
    </g>
   </g>
   <g id="matplotlib.axis_2">
    <g id="ytick_1">
     <g id="line2d_9">
      <defs>
       <path id="m82a26442da" d="M 0 0 
L -3.5 0 
" style="stroke: #000000; stroke-width: 0.8"/>
      </defs>
      <g>
       <use xlink:href="#m82a26442da" x="57.6" y="307.584" style="stroke: #000000; stroke-width: 0.8"/>
      </g>
     </g>
     <g id="text_10">
      <!-- 0.00 -->
      <g transform="translate(28.334375 311.383219) scale(0.1 -0.1)">
       <defs>
        <path id="DejaVuSans-2e" d="M 684 794 
L 1344 794 
L 1344 0 
L 684 0 
L 684 794 
z
" transform="scale(0.015625)"/>
       </defs>
       <use xlink:href="#DejaVuSans-30"/>
       <use xlink:href="#DejaVuSans-2e" x="63.623047"/>
       <use xlink:href="#DejaVuSans-30" x="95.410156"/>
       <use xlink:href="#DejaVuSans-30" x="159.033203"/>
      </g>
     </g>
    </g>
    <g id="ytick_2">
     <g id="line2d_10">
      <g>
       <use xlink:href="#m82a26442da" x="57.6" y="273.947308" style="stroke: #000000; stroke-width: 0.8"/>
      </g>
     </g>
     <g id="text_11">
      <!-- 0.02 -->
      <g transform="translate(28.334375 277.746527) scale(0.1 -0.1)">
       <use xlink:href="#DejaVuSans-30"/>
       <use xlink:href="#DejaVuSans-2e" x="63.623047"/>
       <use xlink:href="#DejaVuSans-30" x="95.410156"/>
       <use xlink:href="#DejaVuSans-32" x="159.033203"/>
      </g>
     </g>
    </g>
    <g id="ytick_3">
     <g id="line2d_11">
      <g>
       <use xlink:href="#m82a26442da" x="57.6" y="240.310616" style="stroke: #000000; stroke-width: 0.8"/>
      </g>
     </g>
     <g id="text_12">
      <!-- 0.04 -->
      <g transform="translate(28.334375 244.109834) scale(0.1 -0.1)">
       <use xlink:href="#DejaVuSans-30"/>
       <use xlink:href="#DejaVuSans-2e" x="63.623047"/>
       <use xlink:href="#DejaVuSans-30" x="95.410156"/>
       <use xlink:href="#DejaVuSans-34" x="159.033203"/>
      </g>
     </g>
    </g>
    <g id="ytick_4">
     <g id="line2d_12">
      <g>
       <use xlink:href="#m82a26442da" x="57.6" y="206.673923" style="stroke: #000000; stroke-width: 0.8"/>
      </g>
     </g>
     <g id="text_13">
      <!-- 0.06 -->
      <g transform="translate(28.334375 210.473142) scale(0.1 -0.1)">
       <use xlink:href="#DejaVuSans-30"/>
       <use xlink:href="#DejaVuSans-2e" x="63.623047"/>
       <use xlink:href="#DejaVuSans-30" x="95.410156"/>
       <use xlink:href="#DejaVuSans-36" x="159.033203"/>
      </g>
     </g>
    </g>
    <g id="ytick_5">
     <g id="line2d_13">
      <g>
       <use xlink:href="#m82a26442da" x="57.6" y="173.037231" style="stroke: #000000; stroke-width: 0.8"/>
      </g>
     </g>
     <g id="text_14">
      <!-- 0.08 -->
      <g transform="translate(28.334375 176.83645) scale(0.1 -0.1)">
       <use xlink:href="#DejaVuSans-30"/>
       <use xlink:href="#DejaVuSans-2e" x="63.623047"/>
       <use xlink:href="#DejaVuSans-30" x="95.410156"/>
       <use xlink:href="#DejaVuSans-38" x="159.033203"/>
      </g>
     </g>
    </g>
    <g id="ytick_6">
     <g id="line2d_14">
      <g>
       <use xlink:href="#m82a26442da" x="57.6" y="139.400539" style="stroke: #000000; stroke-width: 0.8"/>
      </g>
     </g>
     <g id="text_15">
      <!-- 0.10 -->
      <g transform="translate(28.334375 143.199758) scale(0.1 -0.1)">
       <use xlink:href="#DejaVuSans-30"/>
       <use xlink:href="#DejaVuSans-2e" x="63.623047"/>
       <use xlink:href="#DejaVuSans-31" x="95.410156"/>
       <use xlink:href="#DejaVuSans-30" x="159.033203"/>
      </g>
     </g>
    </g>
    <g id="ytick_7">
     <g id="line2d_15">
      <g>
       <use xlink:href="#m82a26442da" x="57.6" y="105.763847" style="stroke: #000000; stroke-width: 0.8"/>
      </g>
     </g>
     <g id="text_16">
      <!-- 0.12 -->
      <g transform="translate(28.334375 109.563066) scale(0.1 -0.1)">
       <use xlink:href="#DejaVuSans-30"/>
       <use xlink:href="#DejaVuSans-2e" x="63.623047"/>
       <use xlink:href="#DejaVuSans-31" x="95.410156"/>
       <use xlink:href="#DejaVuSans-32" x="159.033203"/>
      </g>
     </g>
    </g>
    <g id="ytick_8">
     <g id="line2d_16">
      <g>
       <use xlink:href="#m82a26442da" x="57.6" y="72.127155" style="stroke: #000000; stroke-width: 0.8"/>
      </g>
     </g>
     <g id="text_17">
      <!-- 0.14 -->
      <g transform="translate(28.334375 75.926373) scale(0.1 -0.1)">
       <use xlink:href="#DejaVuSans-30"/>
       <use xlink:href="#DejaVuSans-2e" x="63.623047"/>
       <use xlink:href="#DejaVuSans-31" x="95.410156"/>
       <use xlink:href="#DejaVuSans-34" x="159.033203"/>
      </g>
     </g>
    </g>
   </g>
   <g id="line2d_17">
    <path d="M 73.832727 170.399659 
L 76.011617 158.178446 
L 78.190506 155.698757 
L 80.369396 54.144 
L 82.548286 181.003454 
L 84.727175 138.992814 
L 86.906065 254.176978 
L 89.084954 229.977572 
L 91.263844 288.970141 
L 93.442733 268.58653 
L 95.621623 295.719814 
L 97.800513 290.264718 
L 99.979402 289.228326 
L 102.158292 288.495886 
L 104.337181 295.268656 
L 106.516071 293.51698 
L 108.69496 294.683811 
L 110.87385 294.363573 
L 113.052739 296.088011 
L 115.231629 293.233903 
L 117.410519 295.592901 
L 119.589408 296.472827 
L 121.768298 292.812106 
L 123.947187 296.451097 
L 126.126077 296.630006 
L 128.304966 295.017658 
L 130.483856 296.767044 
L 132.662746 295.326426 
L 134.841635 296.41183 
L 137.020525 296.20182 
L 139.199414 296.694704 
L 141.378304 294.361182 
L 143.557193 295.957059 
L 145.736083 296.629408 
L 150.093862 296.758218 
L 152.272752 296.068654 
L 154.451641 295.819923 
L 156.630531 296.447084 
L 158.80942 295.807843 
L 160.98831 296.112727 
L 163.1672 296.743141 
L 165.346089 296.872243 
L 167.524979 293.793879 
L 169.703868 294.261057 
L 171.882758 295.832162 
L 174.061647 296.594702 
L 176.240537 296.053813 
L 180.598316 296.66785 
L 182.777206 296.576251 
L 184.956095 295.656836 
L 187.134985 296.33695 
L 189.313874 296.24062 
L 191.492764 297.125938 
L 193.671653 296.48853 
L 195.850543 295.267717 
L 198.029433 295.430385 
L 200.208322 293.772401 
L 202.387212 295.880872 
L 206.744991 296.439099 
L 211.10277 296.376246 
L 213.28166 296.913632 
L 215.460549 296.993731 
L 217.639439 295.508207 
L 219.818328 296.754799 
L 221.997218 296.567185 
L 224.176107 296.017771 
L 226.354997 296.67174 
L 230.712776 296.335085 
L 232.891666 297.188661 
L 235.070555 296.577171 
L 237.249445 297.069581 
L 239.428334 294.741088 
L 241.607224 295.633897 
L 243.786113 296.745161 
L 245.965003 296.20012 
L 248.143893 296.764692 
L 250.322782 296.73004 
L 252.501672 296.52378 
L 254.680561 293.682802 
L 256.859451 296.706 
L 261.21723 297.078694 
L 263.39612 295.223256 
L 265.575009 294.916613 
L 267.753899 295.90073 
L 269.932788 296.667145 
L 272.111678 296.938684 
L 276.469457 295.125857 
L 278.648347 294.717708 
L 280.827236 296.977496 
L 283.006126 295.455508 
L 285.185015 296.932325 
L 287.363905 296.624585 
L 289.542794 296.957753 
L 291.721684 296.58823 
L 293.900574 295.340767 
L 296.079463 296.720787 
L 300.437242 296.425977 
L 302.616132 296.657154 
L 304.795021 295.208498 
L 306.973911 297.030093 
L 311.33169 297.025974 
L 313.51058 296.260746 
L 315.689469 296.519643 
L 317.868359 296.628474 
L 320.047248 296.929745 
L 322.226138 296.524243 
L 324.405027 296.659415 
L 326.583917 295.911948 
L 328.762807 292.973443 
L 330.941696 294.808723 
L 333.120586 295.513374 
L 335.299475 297.006695 
L 337.478365 296.516267 
L 339.657254 294.394739 
L 341.836144 295.842899 
L 344.015034 296.95247 
L 346.193923 296.215916 
L 348.372813 297.225415 
L 350.551702 294.875183 
L 352.730592 296.537134 
L 354.909481 296.426505 
L 357.088371 296.768439 
L 361.44615 295.975068 
L 363.62504 297.133187 
L 365.803929 296.941161 
L 367.982819 297.061107 
L 370.161708 296.569983 
L 372.340598 296.797209 
L 374.519487 296.169155 
L 376.698377 296.784322 
L 378.877267 296.517123 
L 381.056156 296.673396 
L 383.235046 297.046668 
L 385.413935 296.276567 
L 387.592825 296.432471 
L 389.771714 296.102264 
L 391.950604 296.909775 
L 394.129494 297.251612 
L 396.308383 297.197625 
L 398.487273 296.236934 
L 398.487273 296.236934 
" clip-path="url(#p34cf320d97)" style="fill: none; stroke: #1f77b4; stroke-linecap: square"/>
   </g>
   <g id="line2d_18">
    <path d="M 73.832727 287.63854 
L 76.011617 273.882437 
L 78.190506 278.131723 
L 80.369396 174.73144 
L 82.548286 191.504597 
L 84.727175 253.678158 
L 86.906065 287.7883 
L 89.084954 263.983363 
L 91.263844 285.363236 
L 93.442733 191.285048 
L 95.621623 240.606353 
L 97.800513 271.345446 
L 99.979402 255.714347 
L 102.158292 207.392101 
L 104.337181 203.770638 
L 106.516071 170.107845 
L 108.69496 166.705963 
L 110.87385 144.915023 
L 113.052739 138.153174 
L 115.231629 158.57434 
L 117.410519 196.19701 
L 119.589408 221.171004 
L 121.768298 222.860298 
L 123.947187 254.451581 
L 126.126077 245.376945 
L 128.304966 248.24905 
L 130.483856 249.89797 
L 132.662746 258.479303 
L 134.841635 257.588455 
L 137.020525 257.75151 
L 139.199414 274.366427 
L 141.378304 289.149228 
L 143.557193 283.663655 
L 145.736083 283.937134 
L 147.914973 289.433648 
L 150.093862 282.241746 
L 152.272752 284.389953 
L 154.451641 291.488237 
L 156.630531 291.962998 
L 158.80942 286.584648 
L 160.98831 289.80297 
L 163.1672 284.889528 
L 165.346089 289.329747 
L 167.524979 291.453195 
L 169.703868 291.288992 
L 171.882758 286.019339 
L 174.061647 292.893486 
L 176.240537 286.276145 
L 178.419426 289.83084 
L 180.598316 291.686879 
L 182.777206 292.198309 
L 184.956095 288.665714 
L 187.134985 284.885864 
L 189.313874 289.178524 
L 191.492764 290.440233 
L 193.671653 292.766693 
L 195.850543 290.182365 
L 198.029433 292.781389 
L 200.208322 292.287518 
L 202.387212 289.849966 
L 204.566101 292.188225 
L 206.744991 291.99499 
L 208.92388 289.325722 
L 211.10277 291.549003 
L 213.28166 291.383226 
L 215.460549 293.093549 
L 217.639439 291.118282 
L 219.818328 289.671776 
L 221.997218 291.159679 
L 224.176107 291.74311 
L 226.354997 288.816835 
L 228.533887 289.42071 
L 230.712776 290.886053 
L 232.891666 290.494491 
L 235.070555 290.271604 
L 237.249445 288.375252 
L 239.428334 292.412023 
L 241.607224 290.362844 
L 245.965003 293.27769 
L 248.143893 291.188233 
L 250.322782 291.968599 
L 252.501672 291.912512 
L 254.680561 290.650953 
L 259.03834 291.917496 
L 263.39612 292.030538 
L 265.575009 291.847873 
L 267.753899 292.843774 
L 269.932788 292.364934 
L 272.111678 292.374941 
L 274.290567 290.045095 
L 276.469457 289.240965 
L 278.648347 288.596156 
L 280.827236 291.704442 
L 283.006126 289.745826 
L 285.185015 290.486141 
L 287.363905 291.8716 
L 289.542794 292.714827 
L 291.721684 289.309299 
L 293.900574 289.593685 
L 296.079463 292.062794 
L 298.258353 293.385251 
L 300.437242 291.69815 
L 302.616132 288.975058 
L 304.795021 288.833897 
L 306.973911 290.773614 
L 309.1528 289.535922 
L 311.33169 289.800126 
L 313.51058 289.066751 
L 315.689469 292.670705 
L 317.868359 292.376487 
L 320.047248 292.253014 
L 322.226138 291.974896 
L 324.405027 292.950939 
L 326.583917 290.384474 
L 328.762807 293.08427 
L 330.941696 292.801184 
L 333.120586 292.940012 
L 335.299475 292.08135 
L 337.478365 290.816411 
L 339.657254 292.262628 
L 341.836144 293.059497 
L 344.015034 292.862526 
L 346.193923 293.132289 
L 348.372813 291.639789 
L 350.551702 290.513522 
L 352.730592 293.552647 
L 354.909481 287.50123 
L 357.088371 290.847674 
L 359.267261 291.76235 
L 361.44615 291.435505 
L 363.62504 292.382944 
L 365.803929 292.521708 
L 367.982819 292.547363 
L 370.161708 293.201959 
L 372.340598 293.623996 
L 374.519487 290.707446 
L 376.698377 292.320131 
L 378.877267 292.790224 
L 381.056156 291.993205 
L 383.235046 290.139274 
L 385.413935 291.795598 
L 387.592825 292.269578 
L 389.771714 292.022835 
L 391.950604 292.601387 
L 394.129494 290.785633 
L 396.308383 291.207029 
L 398.487273 292.08588 
L 398.487273 292.08588 
" clip-path="url(#p34cf320d97)" style="fill: none; stroke: #ff7f0e; stroke-linecap: square"/>
   </g>
   <g id="line2d_19">
    <path d="M 73.832727 263.946877 
L 76.011617 278.171085 
L 78.190506 276.814148 
L 80.369396 224.67263 
L 82.548286 193.383279 
L 84.727175 211.763836 
L 86.906065 227.575109 
L 89.084954 271.331819 
L 91.263844 204.120888 
L 93.442733 258.819102 
L 95.621623 214.122717 
L 97.800513 280.99053 
L 99.979402 268.430815 
L 102.158292 291.889496 
L 104.337181 292.795681 
L 106.516071 293.135741 
L 108.69496 294.323859 
L 110.87385 291.325052 
L 113.052739 292.960002 
L 115.231629 291.031003 
L 117.410519 282.691567 
L 119.589408 290.634372 
L 121.768298 295.307513 
L 123.947187 294.151076 
L 126.126077 296.195275 
L 128.304966 295.609687 
L 130.483856 289.70629 
L 132.662746 295.446314 
L 134.841635 296.073114 
L 137.020525 295.406754 
L 139.199414 296.450747 
L 141.378304 296.280544 
L 143.557193 295.587165 
L 145.736083 294.650252 
L 147.914973 293.998211 
L 150.093862 295.913121 
L 152.272752 295.105161 
L 154.451641 296.189104 
L 156.630531 294.437113 
L 158.80942 293.584507 
L 160.98831 294.946129 
L 163.1672 296.580578 
L 165.346089 296.184672 
L 167.524979 296.29246 
L 169.703868 295.262845 
L 171.882758 296.684064 
L 174.061647 296.899062 
L 178.419426 296.592532 
L 180.598316 292.635494 
L 182.777206 295.198346 
L 184.956095 296.453539 
L 187.134985 297.076174 
L 189.313874 296.581334 
L 191.492764 296.91085 
L 193.671653 296.097866 
L 195.850543 296.34793 
L 198.029433 297.141462 
L 200.208322 296.336633 
L 202.387212 296.728696 
L 204.566101 296.84809 
L 206.744991 296.801861 
L 211.10277 297.047336 
L 213.28166 297.051653 
L 215.460549 296.046687 
L 217.639439 296.144116 
L 219.818328 297.008606 
L 221.997218 297.027311 
L 224.176107 297.184731 
L 226.354997 296.662713 
L 228.533887 296.676529 
L 230.712776 295.873066 
L 232.891666 296.135649 
L 235.070555 295.600941 
L 239.428334 297.126217 
L 241.607224 297.146721 
L 243.786113 296.624352 
L 245.965003 296.98465 
L 250.322782 297.19495 
L 254.680561 296.66341 
L 256.859451 297.086352 
L 259.03834 296.917202 
L 261.21723 296.209831 
L 263.39612 296.955605 
L 265.575009 297.183862 
L 267.753899 297.160752 
L 272.111678 296.291303 
L 274.290567 296.545696 
L 276.469457 296.093326 
L 278.648347 297.260853 
L 280.827236 296.092225 
L 283.006126 297.261709 
L 285.185015 296.964738 
L 287.363905 297.363945 
L 289.542794 297.141942 
L 291.721684 297.303716 
L 293.900574 297.109779 
L 296.079463 297.262796 
L 298.258353 296.99768 
L 300.437242 297.287197 
L 302.616132 296.80384 
L 306.973911 296.491552 
L 309.1528 296.969706 
L 311.33169 296.630324 
L 313.51058 296.499069 
L 315.689469 297.083434 
L 317.868359 297.011936 
L 320.047248 296.661523 
L 322.226138 297.126562 
L 324.405027 296.749075 
L 326.583917 297.287451 
L 333.120586 297.096837 
L 335.299475 296.41638 
L 337.478365 297.178262 
L 339.657254 297.016099 
L 341.836144 295.439086 
L 344.015034 295.907404 
L 346.193923 297.185348 
L 350.551702 297.113301 
L 352.730592 296.953542 
L 363.62504 297.263899 
L 365.803929 297.160354 
L 367.982819 297.193453 
L 370.161708 296.921628 
L 372.340598 295.98352 
L 374.519487 297.178551 
L 376.698377 295.509972 
L 378.877267 297.005995 
L 381.056156 297.43767 
L 383.235046 295.928688 
L 385.413935 297.240269 
L 391.950604 297.170142 
L 394.129494 297.265941 
L 396.308383 296.688674 
L 398.487273 296.966943 
L 398.487273 296.966943 
" clip-path="url(#p34cf320d97)" style="fill: none; stroke: #2ca02c; stroke-linecap: square"/>
   </g>
   <g id="line2d_20">
    <path d="M 73.832727 289.931951 
L 76.011617 290.206405 
L 78.190506 247.966214 
L 80.369396 270.760036 
L 82.548286 243.89056 
L 84.727175 260.204685 
L 86.906065 252.018249 
L 89.084954 268.88937 
L 91.263844 266.698992 
L 93.442733 265.747361 
L 95.621623 290.562099 
L 97.800513 295.257119 
L 102.158292 293.459951 
L 104.337181 295.202538 
L 106.516071 295.577143 
L 108.69496 296.267921 
L 113.052739 295.032651 
L 115.231629 296.059566 
L 117.410519 294.327526 
L 119.589408 295.893059 
L 121.768298 295.943373 
L 123.947187 293.534892 
L 126.126077 295.95361 
L 128.304966 293.768019 
L 130.483856 296.415935 
L 132.662746 295.140445 
L 134.841635 295.348539 
L 137.020525 295.182738 
L 139.199414 294.471523 
L 141.378304 296.746426 
L 143.557193 297.098743 
L 145.736083 296.778505 
L 147.914973 297.047045 
L 150.093862 296.400254 
L 152.272752 297.132969 
L 154.451641 296.526547 
L 156.630531 297.024768 
L 158.80942 295.528023 
L 160.98831 297.131738 
L 163.1672 297.353038 
L 165.346089 295.175491 
L 167.524979 296.966768 
L 171.882758 297.121435 
L 174.061647 297.017156 
L 176.240537 297.03563 
L 178.419426 294.113528 
L 180.598316 296.755136 
L 182.777206 297.371176 
L 189.313874 297.267312 
L 191.492764 297.252917 
L 193.671653 297.020766 
L 195.850543 296.066211 
L 198.029433 297.235355 
L 202.387212 297.158333 
L 204.566101 296.954272 
L 206.744991 295.70316 
L 208.92388 296.564244 
L 211.10277 296.83303 
L 213.28166 295.881107 
L 215.460549 297.248504 
L 217.639439 297.313959 
L 219.818328 296.835277 
L 221.997218 297.236551 
L 224.176107 297.094685 
L 226.354997 297.299749 
L 228.533887 296.668947 
L 230.712776 296.25596 
L 232.891666 295.993845 
L 235.070555 297.24274 
L 237.249445 297.435542 
L 239.428334 297.240554 
L 241.607224 295.942451 
L 243.786113 295.25743 
L 245.965003 297.418311 
L 248.143893 297.191831 
L 250.322782 295.701391 
L 252.501672 296.433941 
L 254.680561 295.78206 
L 259.03834 297.241926 
L 261.21723 296.298247 
L 263.39612 297.420758 
L 267.753899 297.487366 
L 269.932788 297.009195 
L 272.111678 297.519409 
L 274.290567 296.6975 
L 276.469457 296.556968 
L 278.648347 296.934841 
L 280.827236 297.171429 
L 283.006126 297.036679 
L 285.185015 297.335744 
L 287.363905 296.628937 
L 289.542794 297.385625 
L 291.721684 296.822778 
L 293.900574 296.054557 
L 296.079463 296.976853 
L 298.258353 295.807164 
L 300.437242 296.921595 
L 302.616132 297.578645 
L 304.795021 297.318278 
L 306.973911 297.434917 
L 311.33169 297.160987 
L 313.51058 297.507201 
L 315.689469 297.25411 
L 317.868359 297.165917 
L 320.047248 296.669915 
L 322.226138 297.383758 
L 324.405027 292.790418 
L 326.583917 297.425255 
L 330.941696 296.672056 
L 333.120586 297.274162 
L 335.299475 296.674754 
L 339.657254 297.201509 
L 341.836144 296.8889 
L 344.015034 297.488735 
L 346.193923 297.161154 
L 350.551702 296.763005 
L 352.730592 297.425638 
L 354.909481 297.547643 
L 359.267261 297.461365 
L 361.44615 297.551492 
L 363.62504 297.340316 
L 365.803929 297.25132 
L 367.982819 297.447824 
L 370.161708 297.022651 
L 374.519487 297.436157 
L 381.056156 297.373178 
L 383.235046 297.007514 
L 385.413935 296.115622 
L 387.592825 297.194052 
L 389.771714 297.537056 
L 398.487273 297.06941 
L 398.487273 297.06941 
" clip-path="url(#p34cf320d97)" style="fill: none; stroke: #d62728; stroke-linecap: square"/>
   </g>
   <g id="patch_3">
    <path d="M 57.6 307.584 
L 57.6 41.472 
" style="fill: none; stroke: #000000; stroke-width: 0.8; stroke-linejoin: miter; stroke-linecap: square"/>
   </g>
   <g id="patch_4">
    <path d="M 414.72 307.584 
L 414.72 41.472 
" style="fill: none; stroke: #000000; stroke-width: 0.8; stroke-linejoin: miter; stroke-linecap: square"/>
   </g>
   <g id="patch_5">
    <path d="M 57.6 307.584 
L 414.72 307.584 
" style="fill: none; stroke: #000000; stroke-width: 0.8; stroke-linejoin: miter; stroke-linecap: square"/>
   </g>
   <g id="patch_6">
    <path d="M 57.6 41.472 
L 414.72 41.472 
" style="fill: none; stroke: #000000; stroke-width: 0.8; stroke-linejoin: miter; stroke-linecap: square"/>
   </g>
   <g id="text_18">
    <!-- Mean Square Error of protein -->
    <g transform="translate(149.3325 35.472) scale(0.12 -0.12)">
     <defs>
      <path id="DejaVuSans-4d" d="M 628 4666 
L 1569 4666 
L 2759 1491 
L 3956 4666 
L 4897 4666 
L 4897 0 
L 4281 0 
L 4281 4097 
L 3078 897 
L 2444 897 
L 1241 4097 
L 1241 0 
L 628 0 
L 628 4666 
z
" transform="scale(0.015625)"/>
      <path id="DejaVuSans-61" d="M 2194 1759 
Q 1497 1759 1228 1600 
Q 959 1441 959 1056 
Q 959 750 1161 570 
Q 1363 391 1709 391 
Q 2188 391 2477 730 
Q 2766 1069 2766 1631 
L 2766 1759 
L 2194 1759 
z
M 3341 1997 
L 3341 0 
L 2766 0 
L 2766 531 
Q 2569 213 2275 61 
Q 1981 -91 1556 -91 
Q 1019 -91 701 211 
Q 384 513 384 1019 
Q 384 1609 779 1909 
Q 1175 2209 1959 2209 
L 2766 2209 
L 2766 2266 
Q 2766 2663 2505 2880 
Q 2244 3097 1772 3097 
Q 1472 3097 1187 3025 
Q 903 2953 641 2809 
L 641 3341 
Q 956 3463 1253 3523 
Q 1550 3584 1831 3584 
Q 2591 3584 2966 3190 
Q 3341 2797 3341 1997 
z
" transform="scale(0.015625)"/>
      <path id="DejaVuSans-6e" d="M 3513 2113 
L 3513 0 
L 2938 0 
L 2938 2094 
Q 2938 2591 2744 2837 
Q 2550 3084 2163 3084 
Q 1697 3084 1428 2787 
Q 1159 2491 1159 1978 
L 1159 0 
L 581 0 
L 581 3500 
L 1159 3500 
L 1159 2956 
Q 1366 3272 1645 3428 
Q 1925 3584 2291 3584 
Q 2894 3584 3203 3211 
Q 3513 2838 3513 2113 
z
" transform="scale(0.015625)"/>
      <path id="DejaVuSans-20" transform="scale(0.015625)"/>
      <path id="DejaVuSans-53" d="M 3425 4513 
L 3425 3897 
Q 3066 4069 2747 4153 
Q 2428 4238 2131 4238 
Q 1616 4238 1336 4038 
Q 1056 3838 1056 3469 
Q 1056 3159 1242 3001 
Q 1428 2844 1947 2747 
L 2328 2669 
Q 3034 2534 3370 2195 
Q 3706 1856 3706 1288 
Q 3706 609 3251 259 
Q 2797 -91 1919 -91 
Q 1588 -91 1214 -16 
Q 841 59 441 206 
L 441 856 
Q 825 641 1194 531 
Q 1563 422 1919 422 
Q 2459 422 2753 634 
Q 3047 847 3047 1241 
Q 3047 1584 2836 1778 
Q 2625 1972 2144 2069 
L 1759 2144 
Q 1053 2284 737 2584 
Q 422 2884 422 3419 
Q 422 4038 858 4394 
Q 1294 4750 2059 4750 
Q 2388 4750 2728 4690 
Q 3069 4631 3425 4513 
z
" transform="scale(0.015625)"/>
      <path id="DejaVuSans-71" d="M 947 1747 
Q 947 1113 1208 752 
Q 1469 391 1925 391 
Q 2381 391 2643 752 
Q 2906 1113 2906 1747 
Q 2906 2381 2643 2742 
Q 2381 3103 1925 3103 
Q 1469 3103 1208 2742 
Q 947 2381 947 1747 
z
M 2906 525 
Q 2725 213 2448 61 
Q 2172 -91 1784 -91 
Q 1150 -91 751 415 
Q 353 922 353 1747 
Q 353 2572 751 3078 
Q 1150 3584 1784 3584 
Q 2172 3584 2448 3432 
Q 2725 3281 2906 2969 
L 2906 3500 
L 3481 3500 
L 3481 -1331 
L 2906 -1331 
L 2906 525 
z
" transform="scale(0.015625)"/>
      <path id="DejaVuSans-75" d="M 544 1381 
L 544 3500 
L 1119 3500 
L 1119 1403 
Q 1119 906 1312 657 
Q 1506 409 1894 409 
Q 2359 409 2629 706 
Q 2900 1003 2900 1516 
L 2900 3500 
L 3475 3500 
L 3475 0 
L 2900 0 
L 2900 538 
Q 2691 219 2414 64 
Q 2138 -91 1772 -91 
Q 1169 -91 856 284 
Q 544 659 544 1381 
z
M 1991 3584 
L 1991 3584 
z
" transform="scale(0.015625)"/>
      <path id="DejaVuSans-72" d="M 2631 2963 
Q 2534 3019 2420 3045 
Q 2306 3072 2169 3072 
Q 1681 3072 1420 2755 
Q 1159 2438 1159 1844 
L 1159 0 
L 581 0 
L 581 3500 
L 1159 3500 
L 1159 2956 
Q 1341 3275 1631 3429 
Q 1922 3584 2338 3584 
Q 2397 3584 2469 3576 
Q 2541 3569 2628 3553 
L 2631 2963 
z
" transform="scale(0.015625)"/>
      <path id="DejaVuSans-45" d="M 628 4666 
L 3578 4666 
L 3578 4134 
L 1259 4134 
L 1259 2753 
L 3481 2753 
L 3481 2222 
L 1259 2222 
L 1259 531 
L 3634 531 
L 3634 0 
L 628 0 
L 628 4666 
z
" transform="scale(0.015625)"/>
      <path id="DejaVuSans-66" d="M 2375 4863 
L 2375 4384 
L 1825 4384 
Q 1516 4384 1395 4259 
Q 1275 4134 1275 3809 
L 1275 3500 
L 2222 3500 
L 2222 3053 
L 1275 3053 
L 1275 0 
L 697 0 
L 697 3053 
L 147 3053 
L 147 3500 
L 697 3500 
L 697 3744 
Q 697 4328 969 4595 
Q 1241 4863 1831 4863 
L 2375 4863 
z
" transform="scale(0.015625)"/>
      <path id="DejaVuSans-74" d="M 1172 4494 
L 1172 3500 
L 2356 3500 
L 2356 3053 
L 1172 3053 
L 1172 1153 
Q 1172 725 1289 603 
Q 1406 481 1766 481 
L 2356 481 
L 2356 0 
L 1766 0 
Q 1100 0 847 248 
Q 594 497 594 1153 
L 594 3053 
L 172 3053 
L 172 3500 
L 594 3500 
L 594 4494 
L 1172 4494 
z
" transform="scale(0.015625)"/>
      <path id="DejaVuSans-69" d="M 603 3500 
L 1178 3500 
L 1178 0 
L 603 0 
L 603 3500 
z
M 603 4863 
L 1178 4863 
L 1178 4134 
L 603 4134 
L 603 4863 
z
" transform="scale(0.015625)"/>
     </defs>
     <use xlink:href="#DejaVuSans-4d"/>
     <use xlink:href="#DejaVuSans-65" x="86.279297"/>
     <use xlink:href="#DejaVuSans-61" x="147.802734"/>
     <use xlink:href="#DejaVuSans-6e" x="209.082031"/>
     <use xlink:href="#DejaVuSans-20" x="272.460938"/>
     <use xlink:href="#DejaVuSans-53" x="304.248047"/>
     <use xlink:href="#DejaVuSans-71" x="367.724609"/>
     <use xlink:href="#DejaVuSans-75" x="431.201172"/>
     <use xlink:href="#DejaVuSans-61" x="494.580078"/>
     <use xlink:href="#DejaVuSans-72" x="555.859375"/>
     <use xlink:href="#DejaVuSans-65" x="594.722656"/>
     <use xlink:href="#DejaVuSans-20" x="656.246094"/>
     <use xlink:href="#DejaVuSans-45" x="688.033203"/>
     <use xlink:href="#DejaVuSans-72" x="751.216797"/>
     <use xlink:href="#DejaVuSans-72" x="790.580078"/>
     <use xlink:href="#DejaVuSans-6f" x="829.443359"/>
     <use xlink:href="#DejaVuSans-72" x="890.625"/>
     <use xlink:href="#DejaVuSans-20" x="931.738281"/>
     <use xlink:href="#DejaVuSans-6f" x="963.525391"/>
     <use xlink:href="#DejaVuSans-66" x="1024.707031"/>
     <use xlink:href="#DejaVuSans-20" x="1059.912109"/>
     <use xlink:href="#DejaVuSans-70" x="1091.699219"/>
     <use xlink:href="#DejaVuSans-72" x="1155.175781"/>
     <use xlink:href="#DejaVuSans-6f" x="1194.039062"/>
     <use xlink:href="#DejaVuSans-74" x="1255.220703"/>
     <use xlink:href="#DejaVuSans-65" x="1294.429688"/>
     <use xlink:href="#DejaVuSans-69" x="1355.953125"/>
     <use xlink:href="#DejaVuSans-6e" x="1383.736328"/>
    </g>
   </g>
   <g id="legend_1">
    <g id="patch_7">
     <path d="M 299.162188 108.1845 
L 407.72 108.1845 
Q 409.72 108.1845 409.72 106.1845 
L 409.72 48.472 
Q 409.72 46.472 407.72 46.472 
L 299.162188 46.472 
Q 297.162188 46.472 297.162188 48.472 
L 297.162188 106.1845 
Q 297.162188 108.1845 299.162188 108.1845 
z
" style="fill: #ffffff; opacity: 0.8; stroke: #cccccc; stroke-linejoin: miter"/>
    </g>
    <g id="line2d_21">
     <path d="M 301.162188 54.570438 
L 311.162188 54.570438 
L 321.162188 54.570438 
" style="fill: none; stroke: #1f77b4; stroke-linecap: square"/>
    </g>
    <g id="text_19">
     <!-- 2000 samples -->
     <g transform="translate(329.162188 58.070438) scale(0.1 -0.1)">
      <defs>
       <path id="DejaVuSans-73" d="M 2834 3397 
L 2834 2853 
Q 2591 2978 2328 3040 
Q 2066 3103 1784 3103 
Q 1356 3103 1142 2972 
Q 928 2841 928 2578 
Q 928 2378 1081 2264 
Q 1234 2150 1697 2047 
L 1894 2003 
Q 2506 1872 2764 1633 
Q 3022 1394 3022 966 
Q 3022 478 2636 193 
Q 2250 -91 1575 -91 
Q 1294 -91 989 -36 
Q 684 19 347 128 
L 347 722 
Q 666 556 975 473 
Q 1284 391 1588 391 
Q 1994 391 2212 530 
Q 2431 669 2431 922 
Q 2431 1156 2273 1281 
Q 2116 1406 1581 1522 
L 1381 1569 
Q 847 1681 609 1914 
Q 372 2147 372 2553 
Q 372 3047 722 3315 
Q 1072 3584 1716 3584 
Q 2034 3584 2315 3537 
Q 2597 3491 2834 3397 
z
" transform="scale(0.015625)"/>
       <path id="DejaVuSans-6d" d="M 3328 2828 
Q 3544 3216 3844 3400 
Q 4144 3584 4550 3584 
Q 5097 3584 5394 3201 
Q 5691 2819 5691 2113 
L 5691 0 
L 5113 0 
L 5113 2094 
Q 5113 2597 4934 2840 
Q 4756 3084 4391 3084 
Q 3944 3084 3684 2787 
Q 3425 2491 3425 1978 
L 3425 0 
L 2847 0 
L 2847 2094 
Q 2847 2600 2669 2842 
Q 2491 3084 2119 3084 
Q 1678 3084 1418 2786 
Q 1159 2488 1159 1978 
L 1159 0 
L 581 0 
L 581 3500 
L 1159 3500 
L 1159 2956 
Q 1356 3278 1631 3431 
Q 1906 3584 2284 3584 
Q 2666 3584 2933 3390 
Q 3200 3197 3328 2828 
z
" transform="scale(0.015625)"/>
       <path id="DejaVuSans-6c" d="M 603 4863 
L 1178 4863 
L 1178 0 
L 603 0 
L 603 4863 
z
" transform="scale(0.015625)"/>
      </defs>
      <use xlink:href="#DejaVuSans-32"/>
      <use xlink:href="#DejaVuSans-30" x="63.623047"/>
      <use xlink:href="#DejaVuSans-30" x="127.246094"/>
      <use xlink:href="#DejaVuSans-30" x="190.869141"/>
      <use xlink:href="#DejaVuSans-20" x="254.492188"/>
      <use xlink:href="#DejaVuSans-73" x="286.279297"/>
      <use xlink:href="#DejaVuSans-61" x="338.378906"/>
      <use xlink:href="#DejaVuSans-6d" x="399.658203"/>
      <use xlink:href="#DejaVuSans-70" x="497.070312"/>
      <use xlink:href="#DejaVuSans-6c" x="560.546875"/>
      <use xlink:href="#DejaVuSans-65" x="588.330078"/>
      <use xlink:href="#DejaVuSans-73" x="649.853516"/>
     </g>
    </g>
    <g id="line2d_22">
     <path d="M 301.162188 69.248563 
L 311.162188 69.248563 
L 321.162188 69.248563 
" style="fill: none; stroke: #ff7f0e; stroke-linecap: square"/>
    </g>
    <g id="text_20">
     <!-- 5000 samples -->
     <g transform="translate(329.162188 72.748563) scale(0.1 -0.1)">
      <defs>
       <path id="DejaVuSans-35" d="M 691 4666 
L 3169 4666 
L 3169 4134 
L 1269 4134 
L 1269 2991 
Q 1406 3038 1543 3061 
Q 1681 3084 1819 3084 
Q 2600 3084 3056 2656 
Q 3513 2228 3513 1497 
Q 3513 744 3044 326 
Q 2575 -91 1722 -91 
Q 1428 -91 1123 -41 
Q 819 9 494 109 
L 494 744 
Q 775 591 1075 516 
Q 1375 441 1709 441 
Q 2250 441 2565 725 
Q 2881 1009 2881 1497 
Q 2881 1984 2565 2268 
Q 2250 2553 1709 2553 
Q 1456 2553 1204 2497 
Q 953 2441 691 2322 
L 691 4666 
z
" transform="scale(0.015625)"/>
      </defs>
      <use xlink:href="#DejaVuSans-35"/>
      <use xlink:href="#DejaVuSans-30" x="63.623047"/>
      <use xlink:href="#DejaVuSans-30" x="127.246094"/>
      <use xlink:href="#DejaVuSans-30" x="190.869141"/>
      <use xlink:href="#DejaVuSans-20" x="254.492188"/>
      <use xlink:href="#DejaVuSans-73" x="286.279297"/>
      <use xlink:href="#DejaVuSans-61" x="338.378906"/>
      <use xlink:href="#DejaVuSans-6d" x="399.658203"/>
      <use xlink:href="#DejaVuSans-70" x="497.070312"/>
      <use xlink:href="#DejaVuSans-6c" x="560.546875"/>
      <use xlink:href="#DejaVuSans-65" x="588.330078"/>
      <use xlink:href="#DejaVuSans-73" x="649.853516"/>
     </g>
    </g>
    <g id="line2d_23">
     <path d="M 301.162188 83.926688 
L 311.162188 83.926688 
L 321.162188 83.926688 
" style="fill: none; stroke: #2ca02c; stroke-linecap: square"/>
    </g>
    <g id="text_21">
     <!-- 8000 samples -->
     <g transform="translate(329.162188 87.426688) scale(0.1 -0.1)">
      <use xlink:href="#DejaVuSans-38"/>
      <use xlink:href="#DejaVuSans-30" x="63.623047"/>
      <use xlink:href="#DejaVuSans-30" x="127.246094"/>
      <use xlink:href="#DejaVuSans-30" x="190.869141"/>
      <use xlink:href="#DejaVuSans-20" x="254.492188"/>
      <use xlink:href="#DejaVuSans-73" x="286.279297"/>
      <use xlink:href="#DejaVuSans-61" x="338.378906"/>
      <use xlink:href="#DejaVuSans-6d" x="399.658203"/>
      <use xlink:href="#DejaVuSans-70" x="497.070312"/>
      <use xlink:href="#DejaVuSans-6c" x="560.546875"/>
      <use xlink:href="#DejaVuSans-65" x="588.330078"/>
      <use xlink:href="#DejaVuSans-73" x="649.853516"/>
     </g>
    </g>
    <g id="line2d_24">
     <path d="M 301.162188 98.604813 
L 311.162188 98.604813 
L 321.162188 98.604813 
" style="fill: none; stroke: #d62728; stroke-linecap: square"/>
    </g>
    <g id="text_22">
     <!-- 10000 samples -->
     <g transform="translate(329.162188 102.104813) scale(0.1 -0.1)">
      <use xlink:href="#DejaVuSans-31"/>
      <use xlink:href="#DejaVuSans-30" x="63.623047"/>
      <use xlink:href="#DejaVuSans-30" x="127.246094"/>
      <use xlink:href="#DejaVuSans-30" x="190.869141"/>
      <use xlink:href="#DejaVuSans-30" x="254.492188"/>
      <use xlink:href="#DejaVuSans-20" x="318.115234"/>
      <use xlink:href="#DejaVuSans-73" x="349.902344"/>
      <use xlink:href="#DejaVuSans-61" x="402.001953"/>
      <use xlink:href="#DejaVuSans-6d" x="463.28125"/>
      <use xlink:href="#DejaVuSans-70" x="560.693359"/>
      <use xlink:href="#DejaVuSans-6c" x="624.169922"/>
      <use xlink:href="#DejaVuSans-65" x="651.953125"/>
      <use xlink:href="#DejaVuSans-73" x="713.476562"/>
     </g>
    </g>
   </g>
  </g>
 </g>
 <defs>
  <clipPath id="p34cf320d97">
   <rect x="57.6" y="41.472" width="357.12" height="266.112"/>
  </clipPath>
 </defs>
</svg>
