<?xml version="1.0" encoding="utf-8" standalone="no"?>
<!DOCTYPE svg PUBLIC "-//W3C//DTD SVG 1.1//EN"
  "http://www.w3.org/Graphics/SVG/1.1/DTD/svg11.dtd">
<svg xmlns:xlink="http://www.w3.org/1999/xlink" width="460.8pt" height="345.6pt" viewBox="0 0 460.8 345.6" xmlns="http://www.w3.org/2000/svg" version="1.1">
 <metadata>
  <rdf:RDF xmlns:dc="http://purl.org/dc/elements/1.1/" xmlns:cc="http://creativecommons.org/ns#" xmlns:rdf="http://www.w3.org/1999/02/22-rdf-syntax-ns#">
   <cc:Work>
    <dc:type rdf:resource="http://purl.org/dc/dcmitype/StillImage"/>
    <dc:date>2023-09-13T16:28:35.924148</dc:date>
    <dc:format>image/svg+xml</dc:format>
    <dc:creator>
     <cc:Agent>
      <dc:title>Matplotlib v3.7.1, https://matplotlib.org/</dc:title>
     </cc:Agent>
    </dc:creator>
   </cc:Work>
  </rdf:RDF>
 </metadata>
 <defs>
  <style type="text/css">*{stroke-linejoin: round; stroke-linecap: butt}</style>
 </defs>
 <g id="figure_1">
  <g id="patch_1">
   <path d="M 0 345.6 
L 460.8 345.6 
L 460.8 0 
L 0 0 
z
" style="fill: #ffffff"/>
  </g>
  <g id="axes_1">
   <g id="patch_2">
    <path d="M 57.6 307.584 
L 414.72 307.584 
L 414.72 41.472 
L 57.6 41.472 
z
" style="fill: #ffffff"/>
   </g>
   <g id="matplotlib.axis_1">
    <g id="xtick_1">
     <g id="line2d_1">
      <defs>
       <path id="m957b0c7983" d="M 0 0 
L 0 3.5 
" style="stroke: #000000; stroke-width: 0.8"/>
      </defs>
      <g>
       <use xlink:href="#m957b0c7983" x="71.653838" y="307.584" style="stroke: #000000; stroke-width: 0.8"/>
      </g>
     </g>
     <g id="text_1">
      <!-- 0 -->
      <g transform="translate(68.472588 322.182437) scale(0.1 -0.1)">
       <defs>
        <path id="DejaVuSans-30" d="M 2034 4250 
Q 1547 4250 1301 3770 
Q 1056 3291 1056 2328 
Q 1056 1369 1301 889 
Q 1547 409 2034 409 
Q 2525 409 2770 889 
Q 3016 1369 3016 2328 
Q 3016 3291 2770 3770 
Q 2525 4250 2034 4250 
z
M 2034 4750 
Q 2819 4750 3233 4129 
Q 3647 3509 3647 2328 
Q 3647 1150 3233 529 
Q 2819 -91 2034 -91 
Q 1250 -91 836 529 
Q 422 1150 422 2328 
Q 422 3509 836 4129 
Q 1250 4750 2034 4750 
z
" transform="scale(0.015625)"/>
       </defs>
       <use xlink:href="#DejaVuSans-30"/>
      </g>
     </g>
    </g>
    <g id="xtick_2">
     <g id="line2d_2">
      <g>
       <use xlink:href="#m957b0c7983" x="115.231629" y="307.584" style="stroke: #000000; stroke-width: 0.8"/>
      </g>
     </g>
     <g id="text_2">
      <!-- 20 -->
      <g transform="translate(108.869129 322.182437) scale(0.1 -0.1)">
       <defs>
        <path id="DejaVuSans-32" d="M 1228 531 
L 3431 531 
L 3431 0 
L 469 0 
L 469 531 
Q 828 903 1448 1529 
Q 2069 2156 2228 2338 
Q 2531 2678 2651 2914 
Q 2772 3150 2772 3378 
Q 2772 3750 2511 3984 
Q 2250 4219 1831 4219 
Q 1534 4219 1204 4116 
Q 875 4013 500 3803 
L 500 4441 
Q 881 4594 1212 4672 
Q 1544 4750 1819 4750 
Q 2544 4750 2975 4387 
Q 3406 4025 3406 3419 
Q 3406 3131 3298 2873 
Q 3191 2616 2906 2266 
Q 2828 2175 2409 1742 
Q 1991 1309 1228 531 
z
" transform="scale(0.015625)"/>
       </defs>
       <use xlink:href="#DejaVuSans-32"/>
       <use xlink:href="#DejaVuSans-30" x="63.623047"/>
      </g>
     </g>
    </g>
    <g id="xtick_3">
     <g id="line2d_3">
      <g>
       <use xlink:href="#m957b0c7983" x="158.80942" y="307.584" style="stroke: #000000; stroke-width: 0.8"/>
      </g>
     </g>
     <g id="text_3">
      <!-- 40 -->
      <g transform="translate(152.44692 322.182437) scale(0.1 -0.1)">
       <defs>
        <path id="DejaVuSans-34" d="M 2419 4116 
L 825 1625 
L 2419 1625 
L 2419 4116 
z
M 2253 4666 
L 3047 4666 
L 3047 1625 
L 3713 1625 
L 3713 1100 
L 3047 1100 
L 3047 0 
L 2419 0 
L 2419 1100 
L 313 1100 
L 313 1709 
L 2253 4666 
z
" transform="scale(0.015625)"/>
       </defs>
       <use xlink:href="#DejaVuSans-34"/>
       <use xlink:href="#DejaVuSans-30" x="63.623047"/>
      </g>
     </g>
    </g>
    <g id="xtick_4">
     <g id="line2d_4">
      <g>
       <use xlink:href="#m957b0c7983" x="202.387212" y="307.584" style="stroke: #000000; stroke-width: 0.8"/>
      </g>
     </g>
     <g id="text_4">
      <!-- 60 -->
      <g transform="translate(196.024712 322.182437) scale(0.1 -0.1)">
       <defs>
        <path id="DejaVuSans-36" d="M 2113 2584 
Q 1688 2584 1439 2293 
Q 1191 2003 1191 1497 
Q 1191 994 1439 701 
Q 1688 409 2113 409 
Q 2538 409 2786 701 
Q 3034 994 3034 1497 
Q 3034 2003 2786 2293 
Q 2538 2584 2113 2584 
z
M 3366 4563 
L 3366 3988 
Q 3128 4100 2886 4159 
Q 2644 4219 2406 4219 
Q 1781 4219 1451 3797 
Q 1122 3375 1075 2522 
Q 1259 2794 1537 2939 
Q 1816 3084 2150 3084 
Q 2853 3084 3261 2657 
Q 3669 2231 3669 1497 
Q 3669 778 3244 343 
Q 2819 -91 2113 -91 
Q 1303 -91 875 529 
Q 447 1150 447 2328 
Q 447 3434 972 4092 
Q 1497 4750 2381 4750 
Q 2619 4750 2861 4703 
Q 3103 4656 3366 4563 
z
" transform="scale(0.015625)"/>
       </defs>
       <use xlink:href="#DejaVuSans-36"/>
       <use xlink:href="#DejaVuSans-30" x="63.623047"/>
      </g>
     </g>
    </g>
    <g id="xtick_5">
     <g id="line2d_5">
      <g>
       <use xlink:href="#m957b0c7983" x="245.965003" y="307.584" style="stroke: #000000; stroke-width: 0.8"/>
      </g>
     </g>
     <g id="text_5">
      <!-- 80 -->
      <g transform="translate(239.602503 322.182437) scale(0.1 -0.1)">
       <defs>
        <path id="DejaVuSans-38" d="M 2034 2216 
Q 1584 2216 1326 1975 
Q 1069 1734 1069 1313 
Q 1069 891 1326 650 
Q 1584 409 2034 409 
Q 2484 409 2743 651 
Q 3003 894 3003 1313 
Q 3003 1734 2745 1975 
Q 2488 2216 2034 2216 
z
M 1403 2484 
Q 997 2584 770 2862 
Q 544 3141 544 3541 
Q 544 4100 942 4425 
Q 1341 4750 2034 4750 
Q 2731 4750 3128 4425 
Q 3525 4100 3525 3541 
Q 3525 3141 3298 2862 
Q 3072 2584 2669 2484 
Q 3125 2378 3379 2068 
Q 3634 1759 3634 1313 
Q 3634 634 3220 271 
Q 2806 -91 2034 -91 
Q 1263 -91 848 271 
Q 434 634 434 1313 
Q 434 1759 690 2068 
Q 947 2378 1403 2484 
z
M 1172 3481 
Q 1172 3119 1398 2916 
Q 1625 2713 2034 2713 
Q 2441 2713 2670 2916 
Q 2900 3119 2900 3481 
Q 2900 3844 2670 4047 
Q 2441 4250 2034 4250 
Q 1625 4250 1398 4047 
Q 1172 3844 1172 3481 
z
" transform="scale(0.015625)"/>
       </defs>
       <use xlink:href="#DejaVuSans-38"/>
       <use xlink:href="#DejaVuSans-30" x="63.623047"/>
      </g>
     </g>
    </g>
    <g id="xtick_6">
     <g id="line2d_6">
      <g>
       <use xlink:href="#m957b0c7983" x="289.542794" y="307.584" style="stroke: #000000; stroke-width: 0.8"/>
      </g>
     </g>
     <g id="text_6">
      <!-- 100 -->
      <g transform="translate(279.999044 322.182437) scale(0.1 -0.1)">
       <defs>
        <path id="DejaVuSans-31" d="M 794 531 
L 1825 531 
L 1825 4091 
L 703 3866 
L 703 4441 
L 1819 4666 
L 2450 4666 
L 2450 531 
L 3481 531 
L 3481 0 
L 794 0 
L 794 531 
z
" transform="scale(0.015625)"/>
       </defs>
       <use xlink:href="#DejaVuSans-31"/>
       <use xlink:href="#DejaVuSans-30" x="63.623047"/>
       <use xlink:href="#DejaVuSans-30" x="127.246094"/>
      </g>
     </g>
    </g>
    <g id="xtick_7">
     <g id="line2d_7">
      <g>
       <use xlink:href="#m957b0c7983" x="333.120586" y="307.584" style="stroke: #000000; stroke-width: 0.8"/>
      </g>
     </g>
     <g id="text_7">
      <!-- 120 -->
      <g transform="translate(323.576836 322.182437) scale(0.1 -0.1)">
       <use xlink:href="#DejaVuSans-31"/>
       <use xlink:href="#DejaVuSans-32" x="63.623047"/>
       <use xlink:href="#DejaVuSans-30" x="127.246094"/>
      </g>
     </g>
    </g>
    <g id="xtick_8">
     <g id="line2d_8">
      <g>
       <use xlink:href="#m957b0c7983" x="376.698377" y="307.584" style="stroke: #000000; stroke-width: 0.8"/>
      </g>
     </g>
     <g id="text_8">
      <!-- 140 -->
      <g transform="translate(367.154627 322.182437) scale(0.1 -0.1)">
       <use xlink:href="#DejaVuSans-31"/>
       <use xlink:href="#DejaVuSans-34" x="63.623047"/>
       <use xlink:href="#DejaVuSans-30" x="127.246094"/>
      </g>
     </g>
    </g>
    <g id="text_9">
     <!-- epoch -->
     <g transform="translate(220.931875 335.860562) scale(0.1 -0.1)">
      <defs>
       <path id="DejaVuSans-65" d="M 3597 1894 
L 3597 1613 
L 953 1613 
Q 991 1019 1311 708 
Q 1631 397 2203 397 
Q 2534 397 2845 478 
Q 3156 559 3463 722 
L 3463 178 
Q 3153 47 2828 -22 
Q 2503 -91 2169 -91 
Q 1331 -91 842 396 
Q 353 884 353 1716 
Q 353 2575 817 3079 
Q 1281 3584 2069 3584 
Q 2775 3584 3186 3129 
Q 3597 2675 3597 1894 
z
M 3022 2063 
Q 3016 2534 2758 2815 
Q 2500 3097 2075 3097 
Q 1594 3097 1305 2825 
Q 1016 2553 972 2059 
L 3022 2063 
z
" transform="scale(0.015625)"/>
       <path id="DejaVuSans-70" d="M 1159 525 
L 1159 -1331 
L 581 -1331 
L 581 3500 
L 1159 3500 
L 1159 2969 
Q 1341 3281 1617 3432 
Q 1894 3584 2278 3584 
Q 2916 3584 3314 3078 
Q 3713 2572 3713 1747 
Q 3713 922 3314 415 
Q 2916 -91 2278 -91 
Q 1894 -91 1617 61 
Q 1341 213 1159 525 
z
M 3116 1747 
Q 3116 2381 2855 2742 
Q 2594 3103 2138 3103 
Q 1681 3103 1420 2742 
Q 1159 2381 1159 1747 
Q 1159 1113 1420 752 
Q 1681 391 2138 391 
Q 2594 391 2855 752 
Q 3116 1113 3116 1747 
z
" transform="scale(0.015625)"/>
       <path id="DejaVuSans-6f" d="M 1959 3097 
Q 1497 3097 1228 2736 
Q 959 2375 959 1747 
Q 959 1119 1226 758 
Q 1494 397 1959 397 
Q 2419 397 2687 759 
Q 2956 1122 2956 1747 
Q 2956 2369 2687 2733 
Q 2419 3097 1959 3097 
z
M 1959 3584 
Q 2709 3584 3137 3096 
Q 3566 2609 3566 1747 
Q 3566 888 3137 398 
Q 2709 -91 1959 -91 
Q 1206 -91 779 398 
Q 353 888 353 1747 
Q 353 2609 779 3096 
Q 1206 3584 1959 3584 
z
" transform="scale(0.015625)"/>
       <path id="DejaVuSans-63" d="M 3122 3366 
L 3122 2828 
Q 2878 2963 2633 3030 
Q 2388 3097 2138 3097 
Q 1578 3097 1268 2742 
Q 959 2388 959 1747 
Q 959 1106 1268 751 
Q 1578 397 2138 397 
Q 2388 397 2633 464 
Q 2878 531 3122 666 
L 3122 134 
Q 2881 22 2623 -34 
Q 2366 -91 2075 -91 
Q 1284 -91 818 406 
Q 353 903 353 1747 
Q 353 2603 823 3093 
Q 1294 3584 2113 3584 
Q 2378 3584 2631 3529 
Q 2884 3475 3122 3366 
z
" transform="scale(0.015625)"/>
       <path id="DejaVuSans-68" d="M 3513 2113 
L 3513 0 
L 2938 0 
L 2938 2094 
Q 2938 2591 2744 2837 
Q 2550 3084 2163 3084 
Q 1697 3084 1428 2787 
Q 1159 2491 1159 1978 
L 1159 0 
L 581 0 
L 581 4863 
L 1159 4863 
L 1159 2956 
Q 1366 3272 1645 3428 
Q 1925 3584 2291 3584 
Q 2894 3584 3203 3211 
Q 3513 2838 3513 2113 
z
" transform="scale(0.015625)"/>
      </defs>
      <use xlink:href="#DejaVuSans-65"/>
      <use xlink:href="#DejaVuSans-70" x="61.523438"/>
      <use xlink:href="#DejaVuSans-6f" x="125"/>
      <use xlink:href="#DejaVuSans-63" x="186.181641"/>
      <use xlink:href="#DejaVuSans-68" x="241.162109"/>
     </g>
    </g>
   </g>
   <g id="matplotlib.axis_2">
    <g id="ytick_1">
     <g id="line2d_9">
      <defs>
       <path id="mc13be8749a" d="M 0 0 
L -3.5 0 
" style="stroke: #000000; stroke-width: 0.8"/>
      </defs>
      <g>
       <use xlink:href="#mc13be8749a" x="57.6" y="307.584" style="stroke: #000000; stroke-width: 0.8"/>
      </g>
     </g>
     <g id="text_10">
      <!-- 0.0 -->
      <g transform="translate(34.696875 311.383219) scale(0.1 -0.1)">
       <defs>
        <path id="DejaVuSans-2e" d="M 684 794 
L 1344 794 
L 1344 0 
L 684 0 
L 684 794 
z
" transform="scale(0.015625)"/>
       </defs>
       <use xlink:href="#DejaVuSans-30"/>
       <use xlink:href="#DejaVuSans-2e" x="63.623047"/>
       <use xlink:href="#DejaVuSans-30" x="95.410156"/>
      </g>
     </g>
    </g>
    <g id="ytick_2">
     <g id="line2d_10">
      <g>
       <use xlink:href="#mc13be8749a" x="57.6" y="273.929646" style="stroke: #000000; stroke-width: 0.8"/>
      </g>
     </g>
     <g id="text_11">
      <!-- 0.1 -->
      <g transform="translate(34.696875 277.728865) scale(0.1 -0.1)">
       <use xlink:href="#DejaVuSans-30"/>
       <use xlink:href="#DejaVuSans-2e" x="63.623047"/>
       <use xlink:href="#DejaVuSans-31" x="95.410156"/>
      </g>
     </g>
    </g>
    <g id="ytick_3">
     <g id="line2d_11">
      <g>
       <use xlink:href="#mc13be8749a" x="57.6" y="240.275293" style="stroke: #000000; stroke-width: 0.8"/>
      </g>
     </g>
     <g id="text_12">
      <!-- 0.2 -->
      <g transform="translate(34.696875 244.074512) scale(0.1 -0.1)">
       <use xlink:href="#DejaVuSans-30"/>
       <use xlink:href="#DejaVuSans-2e" x="63.623047"/>
       <use xlink:href="#DejaVuSans-32" x="95.410156"/>
      </g>
     </g>
    </g>
    <g id="ytick_4">
     <g id="line2d_12">
      <g>
       <use xlink:href="#mc13be8749a" x="57.6" y="206.620939" style="stroke: #000000; stroke-width: 0.8"/>
      </g>
     </g>
     <g id="text_13">
      <!-- 0.3 -->
      <g transform="translate(34.696875 210.420158) scale(0.1 -0.1)">
       <defs>
        <path id="DejaVuSans-33" d="M 2597 2516 
Q 3050 2419 3304 2112 
Q 3559 1806 3559 1356 
Q 3559 666 3084 287 
Q 2609 -91 1734 -91 
Q 1441 -91 1130 -33 
Q 819 25 488 141 
L 488 750 
Q 750 597 1062 519 
Q 1375 441 1716 441 
Q 2309 441 2620 675 
Q 2931 909 2931 1356 
Q 2931 1769 2642 2001 
Q 2353 2234 1838 2234 
L 1294 2234 
L 1294 2753 
L 1863 2753 
Q 2328 2753 2575 2939 
Q 2822 3125 2822 3475 
Q 2822 3834 2567 4026 
Q 2313 4219 1838 4219 
Q 1578 4219 1281 4162 
Q 984 4106 628 3988 
L 628 4550 
Q 988 4650 1302 4700 
Q 1616 4750 1894 4750 
Q 2613 4750 3031 4423 
Q 3450 4097 3450 3541 
Q 3450 3153 3228 2886 
Q 3006 2619 2597 2516 
z
" transform="scale(0.015625)"/>
       </defs>
       <use xlink:href="#DejaVuSans-30"/>
       <use xlink:href="#DejaVuSans-2e" x="63.623047"/>
       <use xlink:href="#DejaVuSans-33" x="95.410156"/>
      </g>
     </g>
    </g>
    <g id="ytick_5">
     <g id="line2d_13">
      <g>
       <use xlink:href="#mc13be8749a" x="57.6" y="172.966586" style="stroke: #000000; stroke-width: 0.8"/>
      </g>
     </g>
     <g id="text_14">
      <!-- 0.4 -->
      <g transform="translate(34.696875 176.765805) scale(0.1 -0.1)">
       <use xlink:href="#DejaVuSans-30"/>
       <use xlink:href="#DejaVuSans-2e" x="63.623047"/>
       <use xlink:href="#DejaVuSans-34" x="95.410156"/>
      </g>
     </g>
    </g>
    <g id="ytick_6">
     <g id="line2d_14">
      <g>
       <use xlink:href="#mc13be8749a" x="57.6" y="139.312232" style="stroke: #000000; stroke-width: 0.8"/>
      </g>
     </g>
     <g id="text_15">
      <!-- 0.5 -->
      <g transform="translate(34.696875 143.111451) scale(0.1 -0.1)">
       <defs>
        <path id="DejaVuSans-35" d="M 691 4666 
L 3169 4666 
L 3169 4134 
L 1269 4134 
L 1269 2991 
Q 1406 3038 1543 3061 
Q 1681 3084 1819 3084 
Q 2600 3084 3056 2656 
Q 3513 2228 3513 1497 
Q 3513 744 3044 326 
Q 2575 -91 1722 -91 
Q 1428 -91 1123 -41 
Q 819 9 494 109 
L 494 744 
Q 775 591 1075 516 
Q 1375 441 1709 441 
Q 2250 441 2565 725 
Q 2881 1009 2881 1497 
Q 2881 1984 2565 2268 
Q 2250 2553 1709 2553 
Q 1456 2553 1204 2497 
Q 953 2441 691 2322 
L 691 4666 
z
" transform="scale(0.015625)"/>
       </defs>
       <use xlink:href="#DejaVuSans-30"/>
       <use xlink:href="#DejaVuSans-2e" x="63.623047"/>
       <use xlink:href="#DejaVuSans-35" x="95.410156"/>
      </g>
     </g>
    </g>
    <g id="ytick_7">
     <g id="line2d_15">
      <g>
       <use xlink:href="#mc13be8749a" x="57.6" y="105.657879" style="stroke: #000000; stroke-width: 0.8"/>
      </g>
     </g>
     <g id="text_16">
      <!-- 0.6 -->
      <g transform="translate(34.696875 109.457097) scale(0.1 -0.1)">
       <use xlink:href="#DejaVuSans-30"/>
       <use xlink:href="#DejaVuSans-2e" x="63.623047"/>
       <use xlink:href="#DejaVuSans-36" x="95.410156"/>
      </g>
     </g>
    </g>
    <g id="ytick_8">
     <g id="line2d_16">
      <g>
       <use xlink:href="#mc13be8749a" x="57.6" y="72.003525" style="stroke: #000000; stroke-width: 0.8"/>
      </g>
     </g>
     <g id="text_17">
      <!-- 0.7 -->
      <g transform="translate(34.696875 75.802744) scale(0.1 -0.1)">
       <defs>
        <path id="DejaVuSans-37" d="M 525 4666 
L 3525 4666 
L 3525 4397 
L 1831 0 
L 1172 0 
L 2766 4134 
L 525 4134 
L 525 4666 
z
" transform="scale(0.015625)"/>
       </defs>
       <use xlink:href="#DejaVuSans-30"/>
       <use xlink:href="#DejaVuSans-2e" x="63.623047"/>
       <use xlink:href="#DejaVuSans-37" x="95.410156"/>
      </g>
     </g>
    </g>
   </g>
   <g id="line2d_17">
    <path d="M 73.832727 191.977455 
L 76.011617 187.652209 
L 78.190506 163.258169 
L 80.369396 141.308603 
L 82.548286 142.036825 
L 84.727175 209.447783 
L 86.906065 144.500714 
L 89.084954 133.178357 
L 91.263844 120.094576 
L 93.442733 123.811003 
L 95.621623 115.426789 
L 97.800513 112.492186 
L 99.979402 121.534592 
L 102.158292 119.279384 
L 104.337181 114.271395 
L 106.516071 105.647734 
L 108.69496 109.197576 
L 110.87385 115.938707 
L 113.052739 108.96865 
L 115.231629 113.807435 
L 117.410519 104.290003 
L 119.589408 101.967606 
L 121.768298 102.340755 
L 123.947187 98.071316 
L 126.126077 97.419417 
L 128.304966 99.289447 
L 130.483856 98.56237 
L 132.662746 100.438613 
L 134.841635 97.449679 
L 137.020525 97.752899 
L 139.199414 99.649099 
L 141.378304 99.242555 
L 143.557193 99.575501 
L 145.736083 100.517462 
L 147.914973 96.697734 
L 150.093862 96.253545 
L 152.272752 96.570295 
L 154.451641 100.269531 
L 156.630531 97.451424 
L 158.80942 97.312227 
L 160.98831 95.163082 
L 163.1672 96.69583 
L 165.346089 94.81516 
L 167.524979 99.82761 
L 169.703868 97.628383 
L 171.882758 103.014166 
L 174.061647 94.003415 
L 176.240537 96.951337 
L 178.419426 100.501214 
L 180.598316 97.222768 
L 182.777206 99.746976 
L 184.956095 98.295942 
L 187.134985 101.885977 
L 189.313874 103.070249 
L 191.492764 93.933519 
L 193.671653 99.363362 
L 195.850543 101.231094 
L 198.029433 99.6973 
L 200.208322 95.301976 
L 202.387212 97.026348 
L 204.566101 95.438469 
L 206.744991 94.326336 
L 208.92388 99.393039 
L 211.10277 93.781375 
L 213.28166 94.814488 
L 215.460549 94.93143 
L 217.639439 103.120833 
L 219.818328 95.747547 
L 221.997218 97.652452 
L 224.176107 97.685214 
L 226.354997 98.298624 
L 228.533887 94.008443 
L 230.712776 95.795212 
L 232.891666 91.572174 
L 235.070555 98.47829 
L 237.249445 92.325332 
L 239.428334 97.606783 
L 241.607224 101.794468 
L 243.786113 97.095236 
L 245.965003 98.823135 
L 248.143893 96.58429 
L 250.322782 93.996429 
L 252.501672 96.808311 
L 254.680561 105.519033 
L 256.859451 95.275273 
L 259.03834 96.122999 
L 261.21723 93.743254 
L 263.39612 98.42885 
L 265.575009 95.876007 
L 267.753899 99.863767 
L 269.932788 98.380518 
L 272.111678 94.049382 
L 274.290567 99.438314 
L 276.469457 95.363923 
L 278.648347 92.74208 
L 280.827236 95.34043 
L 283.006126 92.759476 
L 285.185015 94.762472 
L 287.363905 95.963687 
L 289.542794 93.100817 
L 291.721684 95.306253 
L 293.900574 100.521534 
L 296.079463 95.998966 
L 298.258353 93.649892 
L 300.437242 91.942055 
L 304.795021 97.97118 
L 306.973911 94.423139 
L 309.1528 95.09875 
L 311.33169 95.251264 
L 313.51058 97.008793 
L 315.689469 95.157882 
L 317.868359 95.007903 
L 320.047248 96.047466 
L 322.226138 93.524664 
L 324.405027 93.53711 
L 326.583917 95.116354 
L 328.762807 95.122794 
L 330.941696 98.305408 
L 333.120586 96.946948 
L 335.299475 95.400079 
L 337.478365 100.353107 
L 339.657254 92.690851 
L 341.836144 93.538546 
L 344.015034 93.774618 
L 346.193923 95.61507 
L 348.372813 92.396335 
L 350.551702 100.476202 
L 352.730592 95.118466 
L 354.909481 94.293107 
L 357.088371 92.587864 
L 359.267261 96.036673 
L 361.44615 93.088569 
L 363.62504 93.701125 
L 365.803929 95.869518 
L 367.982819 94.873552 
L 370.161708 94.468928 
L 372.340598 93.337362 
L 374.519487 94.351837 
L 376.698377 94.94672 
L 378.877267 98.192324 
L 381.056156 95.387797 
L 383.235046 92.071248 
L 385.413935 99.728043 
L 387.592825 96.393063 
L 389.771714 92.231942 
L 391.950604 94.409451 
L 394.129494 92.007507 
L 396.308383 92.810789 
L 398.487273 94.566243 
L 398.487273 94.566243 
" clip-path="url(#p680cd23143)" style="fill: none; stroke: #1f77b4; stroke-linecap: square"/>
   </g>
   <g id="line2d_18">
    <path d="M 73.832727 257.126245 
L 76.011617 237.297925 
L 78.190506 231.699361 
L 80.369396 224.909999 
L 82.548286 225.003992 
L 84.727175 220.242 
L 86.906065 221.899929 
L 89.084954 230.517138 
L 91.263844 218.327893 
L 93.442733 241.689583 
L 95.621623 229.048891 
L 97.800513 219.305916 
L 99.979402 222.149735 
L 102.158292 234.113872 
L 104.337181 242.482708 
L 106.516071 267.297771 
L 108.69496 256.965255 
L 110.87385 253.862 
L 113.052739 259.036392 
L 115.231629 245.456357 
L 117.410519 239.538723 
L 119.589408 237.365267 
L 121.768298 244.323856 
L 123.947187 231.633762 
L 126.126077 200.856422 
L 128.304966 228.933591 
L 130.483856 252.44506 
L 132.662746 211.458909 
L 134.841635 199.461629 
L 137.020525 209.030402 
L 139.199414 184.779858 
L 141.378304 163.434753 
L 143.557193 178.33124 
L 145.736083 167.540831 
L 147.914973 192.51565 
L 150.093862 183.003168 
L 152.272752 184.512158 
L 154.451641 168.380407 
L 156.630531 176.396627 
L 158.80942 197.257767 
L 160.98831 177.561004 
L 163.1672 165.931065 
L 165.346089 175.616011 
L 167.524979 174.209619 
L 169.703868 176.388347 
L 171.882758 181.518146 
L 174.061647 159.63915 
L 176.240537 178.884061 
L 178.419426 183.379911 
L 180.598316 174.459732 
L 182.777206 175.209852 
L 184.956095 178.364122 
L 187.134985 175.065554 
L 189.313874 175.266866 
L 191.492764 188.003061 
L 193.671653 173.403798 
L 195.850543 174.549071 
L 198.029433 171.297696 
L 200.208322 166.01813 
L 202.387212 176.77171 
L 204.566101 175.566781 
L 206.744991 165.470158 
L 208.92388 182.627895 
L 211.10277 173.931036 
L 213.28166 163.832629 
L 215.460549 166.685721 
L 217.639439 170.286862 
L 219.818328 177.286296 
L 221.997218 162.325802 
L 224.176107 185.868574 
L 226.354997 154.345352 
L 228.533887 189.550261 
L 230.712776 161.905516 
L 232.891666 181.16918 
L 235.070555 187.609709 
L 237.249445 174.910322 
L 239.428334 157.621904 
L 241.607224 175.585308 
L 243.786113 163.603471 
L 245.965003 161.137874 
L 248.143893 167.094134 
L 250.322782 190.279193 
L 252.501672 162.432221 
L 254.680561 171.487277 
L 256.859451 165.899929 
L 259.03834 179.216756 
L 261.21723 168.99941 
L 263.39612 175.83176 
L 265.575009 172.715911 
L 267.753899 147.519409 
L 269.932788 169.919868 
L 272.111678 160.56847 
L 274.290567 172.471899 
L 276.469457 180.61528 
L 278.648347 156.034802 
L 280.827236 175.545234 
L 283.006126 159.827908 
L 285.185015 161.166349 
L 287.363905 156.34654 
L 289.542794 174.719984 
L 291.721684 200.611542 
L 293.900574 175.580462 
L 296.079463 168.033648 
L 298.258353 155.301049 
L 300.437242 154.848138 
L 302.616132 176.577251 
L 304.795021 178.555172 
L 306.973911 171.582221 
L 309.1528 154.376486 
L 311.33169 149.103363 
L 313.51058 180.515111 
L 315.689469 156.989705 
L 317.868359 167.625689 
L 320.047248 163.926363 
L 322.226138 180.465411 
L 324.405027 163.441429 
L 326.583917 165.563826 
L 328.762807 160.527447 
L 330.941696 157.06077 
L 333.120586 163.931937 
L 335.299475 160.945774 
L 337.478365 162.027037 
L 339.657254 153.112038 
L 341.836144 153.059274 
L 344.015034 159.731824 
L 346.193923 159.368767 
L 348.372813 173.679622 
L 350.551702 161.817312 
L 352.730592 157.367529 
L 354.909481 156.633123 
L 357.088371 154.699601 
L 359.267261 161.847595 
L 361.44615 161.842397 
L 363.62504 169.614122 
L 365.803929 160.587545 
L 367.982819 152.053037 
L 370.161708 161.744758 
L 372.340598 155.764999 
L 374.519487 160.143628 
L 376.698377 160.349135 
L 378.877267 159.309974 
L 381.056156 156.084608 
L 383.235046 172.139273 
L 385.413935 160.151707 
L 387.592825 174.51022 
L 389.771714 173.313139 
L 391.950604 166.920456 
L 394.129494 157.684414 
L 396.308383 158.128786 
L 398.487273 165.231298 
L 398.487273 165.231298 
" clip-path="url(#p680cd23143)" style="fill: none; stroke: #ff7f0e; stroke-linecap: square"/>
   </g>
   <g id="line2d_19">
    <path d="M 73.832727 195.05777 
L 76.011617 185.508354 
L 78.190506 218.251208 
L 80.369396 214.533693 
L 82.548286 191.409516 
L 84.727175 208.754831 
L 86.906065 189.347716 
L 89.084954 151.862133 
L 91.263844 141.134598 
L 93.442733 133.830589 
L 95.621623 141.582926 
L 97.800513 130.047984 
L 99.979402 131.749418 
L 102.158292 122.799808 
L 104.337181 117.209003 
L 106.516071 116.217056 
L 108.69496 113.142065 
L 110.87385 111.69874 
L 113.052739 119.353341 
L 115.231629 109.654546 
L 117.410519 113.583571 
L 119.589408 112.104705 
L 121.768298 107.784541 
L 123.947187 110.090352 
L 126.126077 103.344996 
L 128.304966 104.418624 
L 130.483856 108.24108 
L 132.662746 103.400608 
L 134.841635 105.826257 
L 137.020525 108.015292 
L 139.199414 103.186898 
L 141.378304 102.054739 
L 143.557193 112.689406 
L 145.736083 106.045854 
L 147.914973 105.617587 
L 150.093862 106.143117 
L 152.272752 106.382887 
L 154.451641 104.429802 
L 156.630531 107.176215 
L 158.80942 99.865336 
L 160.98831 101.062509 
L 163.1672 99.853606 
L 165.346089 99.158284 
L 167.524979 101.559361 
L 171.882758 96.793167 
L 174.061647 95.702328 
L 176.240537 97.433146 
L 178.419426 94.364655 
L 180.598316 94.410024 
L 184.956095 93.516104 
L 187.134985 92.188694 
L 189.313874 94.481733 
L 191.492764 95.000017 
L 193.671653 95.657592 
L 195.850543 96.486139 
L 198.029433 93.58437 
L 200.208322 95.153051 
L 202.387212 93.299164 
L 204.566101 97.294832 
L 206.744991 92.653291 
L 208.92388 93.492528 
L 211.10277 92.876181 
L 213.28166 92.684687 
L 215.460549 93.733651 
L 217.639439 93.357519 
L 219.818328 91.811485 
L 224.176107 92.278488 
L 226.354997 93.052302 
L 228.533887 91.467491 
L 230.712776 93.260327 
L 232.891666 91.485893 
L 235.070555 91.00421 
L 239.428334 91.192589 
L 241.607224 92.292875 
L 243.786113 91.436654 
L 245.965003 91.945322 
L 248.143893 90.779696 
L 250.322782 92.072127 
L 252.501672 91.783241 
L 254.680561 92.259801 
L 256.859451 94.318429 
L 259.03834 91.679528 
L 261.21723 95.750525 
L 263.39612 89.371576 
L 265.575009 92.165525 
L 267.753899 91.153893 
L 269.932788 89.45675 
L 272.111678 93.459312 
L 274.290567 91.497649 
L 276.469457 88.843198 
L 278.648347 87.887939 
L 280.827236 92.449803 
L 283.006126 90.536066 
L 285.185015 92.068792 
L 287.363905 89.949164 
L 289.542794 89.687989 
L 291.721684 90.744413 
L 293.900574 91.411529 
L 296.079463 91.663055 
L 298.258353 92.108579 
L 300.437242 91.044281 
L 302.616132 92.274854 
L 304.795021 91.820147 
L 306.973911 92.746028 
L 309.1528 94.338675 
L 311.33169 94.090189 
L 313.51058 89.72193 
L 315.689469 91.795694 
L 317.868359 93.153861 
L 320.047248 90.448788 
L 322.226138 92.397589 
L 324.405027 91.909044 
L 326.583917 90.729654 
L 328.762807 89.71075 
L 330.941696 91.612586 
L 333.120586 92.727069 
L 335.299475 92.621811 
L 337.478365 92.878749 
L 339.657254 91.96322 
L 341.836144 93.842777 
L 344.015034 94.823808 
L 346.193923 91.147622 
L 348.372813 92.068408 
L 350.551702 92.57352 
L 352.730592 93.230734 
L 354.909481 93.771744 
L 357.088371 92.007182 
L 361.44615 92.013516 
L 363.62504 91.511673 
L 365.803929 91.217665 
L 367.982819 91.785758 
L 370.161708 91.082354 
L 372.340598 93.723297 
L 374.519487 91.343546 
L 376.698377 93.153998 
L 378.877267 92.115371 
L 381.056156 88.94849 
L 383.235046 92.130625 
L 385.413935 91.337364 
L 389.771714 92.172881 
L 391.950604 91.580905 
L 394.129494 90.572104 
L 396.308383 93.566081 
L 398.487273 90.82691 
L 398.487273 90.82691 
" clip-path="url(#p680cd23143)" style="fill: none; stroke: #2ca02c; stroke-linecap: square"/>
   </g>
   <g id="line2d_20">
    <path d="M 73.832727 187.123182 
L 76.011617 161.76079 
L 78.190506 173.268915 
L 80.369396 226.944968 
L 82.548286 223.701761 
L 84.727175 182.318838 
L 86.906065 137.43176 
L 89.084954 134.692634 
L 91.263844 126.742762 
L 93.442733 117.792927 
L 95.621623 113.588383 
L 97.800513 107.522043 
L 99.979402 109.184813 
L 102.158292 107.544291 
L 104.337181 109.027151 
L 108.69496 103.716248 
L 110.87385 107.05283 
L 113.052739 122.722108 
L 115.231629 109.103498 
L 117.410519 103.234236 
L 119.589408 103.121707 
L 121.768298 104.021155 
L 123.947187 109.616452 
L 126.126077 103.720676 
L 128.304966 104.118788 
L 130.483856 104.875328 
L 132.662746 108.498021 
L 134.841635 99.116966 
L 137.020525 99.738386 
L 139.199414 94.667593 
L 141.378304 95.614649 
L 143.557193 94.011719 
L 145.736083 93.03478 
L 147.914973 94.088879 
L 150.093862 94.276504 
L 152.272752 93.367564 
L 154.451641 92.8798 
L 156.630531 95.222071 
L 158.80942 94.687131 
L 160.98831 91.135282 
L 163.1672 90.181155 
L 165.346089 94.10354 
L 167.524979 94.629795 
L 169.703868 91.115155 
L 171.882758 92.998466 
L 174.061647 92.701932 
L 176.240537 92.900419 
L 178.419426 89.65134 
L 180.598316 91.32796 
L 182.777206 90.050941 
L 184.956095 90.156167 
L 187.134985 89.871118 
L 189.313874 90.524962 
L 191.492764 89.665693 
L 193.671653 91.093868 
L 195.850543 91.786387 
L 198.029433 88.845099 
L 200.208322 90.818586 
L 202.387212 88.645562 
L 204.566101 88.245106 
L 206.744991 90.150608 
L 208.92388 92.694792 
L 211.10277 90.326361 
L 213.28166 91.876015 
L 215.460549 89.85994 
L 217.639439 89.005198 
L 219.818328 91.297086 
L 221.997218 91.539596 
L 224.176107 89.85745 
L 226.354997 91.103154 
L 228.533887 89.508358 
L 230.712776 95.822174 
L 232.891666 90.670493 
L 235.070555 90.837234 
L 237.249445 89.382202 
L 239.428334 89.061415 
L 241.607224 89.186885 
L 243.786113 88.716893 
L 245.965003 89.621447 
L 248.143893 89.998098 
L 250.322782 87.594828 
L 252.501672 88.978149 
L 254.680561 91.869552 
L 256.859451 89.03785 
L 259.03834 89.855917 
L 261.21723 89.794274 
L 263.39612 87.918436 
L 265.575009 87.882354 
L 267.753899 88.008837 
L 269.932788 90.392728 
L 272.111678 87.028803 
L 274.290567 87.949736 
L 276.469457 88.531268 
L 278.648347 89.454226 
L 280.827236 88.250151 
L 283.006126 89.14089 
L 285.185015 87.786112 
L 287.363905 88.162263 
L 289.542794 89.352556 
L 291.721684 89.972736 
L 293.900574 87.518687 
L 296.079463 85.824 
L 298.258353 89.678666 
L 300.437242 89.38191 
L 302.616132 87.174955 
L 304.795021 89.058784 
L 306.973911 87.517965 
L 309.1528 88.394014 
L 311.33169 88.531234 
L 313.51058 87.541608 
L 315.689469 89.110922 
L 317.868359 89.86473 
L 320.047248 87.368969 
L 322.226138 87.844635 
L 324.405027 89.582316 
L 326.583917 89.11666 
L 328.762807 89.209479 
L 330.941696 91.009505 
L 333.120586 88.904156 
L 335.299475 88.24036 
L 337.478365 88.84584 
L 339.657254 88.198617 
L 341.836144 92.686817 
L 344.015034 86.776285 
L 346.193923 88.193549 
L 348.372813 91.873327 
L 350.551702 89.350142 
L 352.730592 87.225851 
L 354.909481 87.348085 
L 357.088371 88.438622 
L 359.267261 86.755173 
L 361.44615 87.521885 
L 363.62504 89.146568 
L 365.803929 86.520498 
L 367.982819 86.799402 
L 370.161708 89.070201 
L 372.340598 89.236926 
L 374.519487 88.255417 
L 376.698377 89.216019 
L 378.877267 87.33797 
L 381.056156 86.03598 
L 383.235046 89.468355 
L 385.413935 89.354121 
L 387.592825 88.947208 
L 389.771714 86.095401 
L 394.129494 88.21748 
L 396.308383 89.921177 
L 398.487273 88.436474 
L 398.487273 88.436474 
" clip-path="url(#p680cd23143)" style="fill: none; stroke: #d62728; stroke-linecap: square"/>
   </g>
   <g id="patch_3">
    <path d="M 57.6 307.584 
L 57.6 41.472 
" style="fill: none; stroke: #000000; stroke-width: 0.8; stroke-linejoin: miter; stroke-linecap: square"/>
   </g>
   <g id="patch_4">
    <path d="M 414.72 307.584 
L 414.72 41.472 
" style="fill: none; stroke: #000000; stroke-width: 0.8; stroke-linejoin: miter; stroke-linecap: square"/>
   </g>
   <g id="patch_5">
    <path d="M 57.6 307.584 
L 414.72 307.584 
" style="fill: none; stroke: #000000; stroke-width: 0.8; stroke-linejoin: miter; stroke-linecap: square"/>
   </g>
   <g id="patch_6">
    <path d="M 57.6 41.472 
L 414.72 41.472 
" style="fill: none; stroke: #000000; stroke-width: 0.8; stroke-linejoin: miter; stroke-linecap: square"/>
   </g>
   <g id="text_18">
    <!-- Accuracy of protein -->
    <g transform="translate(177.84375 35.472) scale(0.12 -0.12)">
     <defs>
      <path id="DejaVuSans-41" d="M 2188 4044 
L 1331 1722 
L 3047 1722 
L 2188 4044 
z
M 1831 4666 
L 2547 4666 
L 4325 0 
L 3669 0 
L 3244 1197 
L 1141 1197 
L 716 0 
L 50 0 
L 1831 4666 
z
" transform="scale(0.015625)"/>
      <path id="DejaVuSans-75" d="M 544 1381 
L 544 3500 
L 1119 3500 
L 1119 1403 
Q 1119 906 1312 657 
Q 1506 409 1894 409 
Q 2359 409 2629 706 
Q 2900 1003 2900 1516 
L 2900 3500 
L 3475 3500 
L 3475 0 
L 2900 0 
L 2900 538 
Q 2691 219 2414 64 
Q 2138 -91 1772 -91 
Q 1169 -91 856 284 
Q 544 659 544 1381 
z
M 1991 3584 
L 1991 3584 
z
" transform="scale(0.015625)"/>
      <path id="DejaVuSans-72" d="M 2631 2963 
Q 2534 3019 2420 3045 
Q 2306 3072 2169 3072 
Q 1681 3072 1420 2755 
Q 1159 2438 1159 1844 
L 1159 0 
L 581 0 
L 581 3500 
L 1159 3500 
L 1159 2956 
Q 1341 3275 1631 3429 
Q 1922 3584 2338 3584 
Q 2397 3584 2469 3576 
Q 2541 3569 2628 3553 
L 2631 2963 
z
" transform="scale(0.015625)"/>
      <path id="DejaVuSans-61" d="M 2194 1759 
Q 1497 1759 1228 1600 
Q 959 1441 959 1056 
Q 959 750 1161 570 
Q 1363 391 1709 391 
Q 2188 391 2477 730 
Q 2766 1069 2766 1631 
L 2766 1759 
L 2194 1759 
z
M 3341 1997 
L 3341 0 
L 2766 0 
L 2766 531 
Q 2569 213 2275 61 
Q 1981 -91 1556 -91 
Q 1019 -91 701 211 
Q 384 513 384 1019 
Q 384 1609 779 1909 
Q 1175 2209 1959 2209 
L 2766 2209 
L 2766 2266 
Q 2766 2663 2505 2880 
Q 2244 3097 1772 3097 
Q 1472 3097 1187 3025 
Q 903 2953 641 2809 
L 641 3341 
Q 956 3463 1253 3523 
Q 1550 3584 1831 3584 
Q 2591 3584 2966 3190 
Q 3341 2797 3341 1997 
z
" transform="scale(0.015625)"/>
      <path id="DejaVuSans-79" d="M 2059 -325 
Q 1816 -950 1584 -1140 
Q 1353 -1331 966 -1331 
L 506 -1331 
L 506 -850 
L 844 -850 
Q 1081 -850 1212 -737 
Q 1344 -625 1503 -206 
L 1606 56 
L 191 3500 
L 800 3500 
L 1894 763 
L 2988 3500 
L 3597 3500 
L 2059 -325 
z
" transform="scale(0.015625)"/>
      <path id="DejaVuSans-20" transform="scale(0.015625)"/>
      <path id="DejaVuSans-66" d="M 2375 4863 
L 2375 4384 
L 1825 4384 
Q 1516 4384 1395 4259 
Q 1275 4134 1275 3809 
L 1275 3500 
L 2222 3500 
L 2222 3053 
L 1275 3053 
L 1275 0 
L 697 0 
L 697 3053 
L 147 3053 
L 147 3500 
L 697 3500 
L 697 3744 
Q 697 4328 969 4595 
Q 1241 4863 1831 4863 
L 2375 4863 
z
" transform="scale(0.015625)"/>
      <path id="DejaVuSans-74" d="M 1172 4494 
L 1172 3500 
L 2356 3500 
L 2356 3053 
L 1172 3053 
L 1172 1153 
Q 1172 725 1289 603 
Q 1406 481 1766 481 
L 2356 481 
L 2356 0 
L 1766 0 
Q 1100 0 847 248 
Q 594 497 594 1153 
L 594 3053 
L 172 3053 
L 172 3500 
L 594 3500 
L 594 4494 
L 1172 4494 
z
" transform="scale(0.015625)"/>
      <path id="DejaVuSans-69" d="M 603 3500 
L 1178 3500 
L 1178 0 
L 603 0 
L 603 3500 
z
M 603 4863 
L 1178 4863 
L 1178 4134 
L 603 4134 
L 603 4863 
z
" transform="scale(0.015625)"/>
      <path id="DejaVuSans-6e" d="M 3513 2113 
L 3513 0 
L 2938 0 
L 2938 2094 
Q 2938 2591 2744 2837 
Q 2550 3084 2163 3084 
Q 1697 3084 1428 2787 
Q 1159 2491 1159 1978 
L 1159 0 
L 581 0 
L 581 3500 
L 1159 3500 
L 1159 2956 
Q 1366 3272 1645 3428 
Q 1925 3584 2291 3584 
Q 2894 3584 3203 3211 
Q 3513 2838 3513 2113 
z
" transform="scale(0.015625)"/>
     </defs>
     <use xlink:href="#DejaVuSans-41"/>
     <use xlink:href="#DejaVuSans-63" x="66.658203"/>
     <use xlink:href="#DejaVuSans-63" x="121.638672"/>
     <use xlink:href="#DejaVuSans-75" x="176.619141"/>
     <use xlink:href="#DejaVuSans-72" x="239.998047"/>
     <use xlink:href="#DejaVuSans-61" x="281.111328"/>
     <use xlink:href="#DejaVuSans-63" x="342.390625"/>
     <use xlink:href="#DejaVuSans-79" x="397.371094"/>
     <use xlink:href="#DejaVuSans-20" x="456.550781"/>
     <use xlink:href="#DejaVuSans-6f" x="488.337891"/>
     <use xlink:href="#DejaVuSans-66" x="549.519531"/>
     <use xlink:href="#DejaVuSans-20" x="584.724609"/>
     <use xlink:href="#DejaVuSans-70" x="616.511719"/>
     <use xlink:href="#DejaVuSans-72" x="679.988281"/>
     <use xlink:href="#DejaVuSans-6f" x="718.851562"/>
     <use xlink:href="#DejaVuSans-74" x="780.033203"/>
     <use xlink:href="#DejaVuSans-65" x="819.242188"/>
     <use xlink:href="#DejaVuSans-69" x="880.765625"/>
     <use xlink:href="#DejaVuSans-6e" x="908.548828"/>
    </g>
   </g>
   <g id="legend_1">
    <g id="patch_7">
     <path d="M 299.162188 302.584 
L 407.72 302.584 
Q 409.72 302.584 409.72 300.584 
L 409.72 242.8715 
Q 409.72 240.8715 407.72 240.8715 
L 299.162188 240.8715 
Q 297.162188 240.8715 297.162188 242.8715 
L 297.162188 300.584 
Q 297.162188 302.584 299.162188 302.584 
z
" style="fill: #ffffff; opacity: 0.8; stroke: #cccccc; stroke-linejoin: miter"/>
    </g>
    <g id="line2d_21">
     <path d="M 301.162188 248.969937 
L 311.162188 248.969937 
L 321.162188 248.969937 
" style="fill: none; stroke: #1f77b4; stroke-linecap: square"/>
    </g>
    <g id="text_19">
     <!-- 2000 samples -->
     <g transform="translate(329.162188 252.469937) scale(0.1 -0.1)">
      <defs>
       <path id="DejaVuSans-73" d="M 2834 3397 
L 2834 2853 
Q 2591 2978 2328 3040 
Q 2066 3103 1784 3103 
Q 1356 3103 1142 2972 
Q 928 2841 928 2578 
Q 928 2378 1081 2264 
Q 1234 2150 1697 2047 
L 1894 2003 
Q 2506 1872 2764 1633 
Q 3022 1394 3022 966 
Q 3022 478 2636 193 
Q 2250 -91 1575 -91 
Q 1294 -91 989 -36 
Q 684 19 347 128 
L 347 722 
Q 666 556 975 473 
Q 1284 391 1588 391 
Q 1994 391 2212 530 
Q 2431 669 2431 922 
Q 2431 1156 2273 1281 
Q 2116 1406 1581 1522 
L 1381 1569 
Q 847 1681 609 1914 
Q 372 2147 372 2553 
Q 372 3047 722 3315 
Q 1072 3584 1716 3584 
Q 2034 3584 2315 3537 
Q 2597 3491 2834 3397 
z
" transform="scale(0.015625)"/>
       <path id="DejaVuSans-6d" d="M 3328 2828 
Q 3544 3216 3844 3400 
Q 4144 3584 4550 3584 
Q 5097 3584 5394 3201 
Q 5691 2819 5691 2113 
L 5691 0 
L 5113 0 
L 5113 2094 
Q 5113 2597 4934 2840 
Q 4756 3084 4391 3084 
Q 3944 3084 3684 2787 
Q 3425 2491 3425 1978 
L 3425 0 
L 2847 0 
L 2847 2094 
Q 2847 2600 2669 2842 
Q 2491 3084 2119 3084 
Q 1678 3084 1418 2786 
Q 1159 2488 1159 1978 
L 1159 0 
L 581 0 
L 581 3500 
L 1159 3500 
L 1159 2956 
Q 1356 3278 1631 3431 
Q 1906 3584 2284 3584 
Q 2666 3584 2933 3390 
Q 3200 3197 3328 2828 
z
" transform="scale(0.015625)"/>
       <path id="DejaVuSans-6c" d="M 603 4863 
L 1178 4863 
L 1178 0 
L 603 0 
L 603 4863 
z
" transform="scale(0.015625)"/>
      </defs>
      <use xlink:href="#DejaVuSans-32"/>
      <use xlink:href="#DejaVuSans-30" x="63.623047"/>
      <use xlink:href="#DejaVuSans-30" x="127.246094"/>
      <use xlink:href="#DejaVuSans-30" x="190.869141"/>
      <use xlink:href="#DejaVuSans-20" x="254.492188"/>
      <use xlink:href="#DejaVuSans-73" x="286.279297"/>
      <use xlink:href="#DejaVuSans-61" x="338.378906"/>
      <use xlink:href="#DejaVuSans-6d" x="399.658203"/>
      <use xlink:href="#DejaVuSans-70" x="497.070312"/>
      <use xlink:href="#DejaVuSans-6c" x="560.546875"/>
      <use xlink:href="#DejaVuSans-65" x="588.330078"/>
      <use xlink:href="#DejaVuSans-73" x="649.853516"/>
     </g>
    </g>
    <g id="line2d_22">
     <path d="M 301.162188 263.648062 
L 311.162188 263.648062 
L 321.162188 263.648062 
" style="fill: none; stroke: #ff7f0e; stroke-linecap: square"/>
    </g>
    <g id="text_20">
     <!-- 5000 samples -->
     <g transform="translate(329.162188 267.148062) scale(0.1 -0.1)">
      <use xlink:href="#DejaVuSans-35"/>
      <use xlink:href="#DejaVuSans-30" x="63.623047"/>
      <use xlink:href="#DejaVuSans-30" x="127.246094"/>
      <use xlink:href="#DejaVuSans-30" x="190.869141"/>
      <use xlink:href="#DejaVuSans-20" x="254.492188"/>
      <use xlink:href="#DejaVuSans-73" x="286.279297"/>
      <use xlink:href="#DejaVuSans-61" x="338.378906"/>
      <use xlink:href="#DejaVuSans-6d" x="399.658203"/>
      <use xlink:href="#DejaVuSans-70" x="497.070312"/>
      <use xlink:href="#DejaVuSans-6c" x="560.546875"/>
      <use xlink:href="#DejaVuSans-65" x="588.330078"/>
      <use xlink:href="#DejaVuSans-73" x="649.853516"/>
     </g>
    </g>
    <g id="line2d_23">
     <path d="M 301.162188 278.326187 
L 311.162188 278.326187 
L 321.162188 278.326187 
" style="fill: none; stroke: #2ca02c; stroke-linecap: square"/>
    </g>
    <g id="text_21">
     <!-- 8000 samples -->
     <g transform="translate(329.162188 281.826187) scale(0.1 -0.1)">
      <use xlink:href="#DejaVuSans-38"/>
      <use xlink:href="#DejaVuSans-30" x="63.623047"/>
      <use xlink:href="#DejaVuSans-30" x="127.246094"/>
      <use xlink:href="#DejaVuSans-30" x="190.869141"/>
      <use xlink:href="#DejaVuSans-20" x="254.492188"/>
      <use xlink:href="#DejaVuSans-73" x="286.279297"/>
      <use xlink:href="#DejaVuSans-61" x="338.378906"/>
      <use xlink:href="#DejaVuSans-6d" x="399.658203"/>
      <use xlink:href="#DejaVuSans-70" x="497.070312"/>
      <use xlink:href="#DejaVuSans-6c" x="560.546875"/>
      <use xlink:href="#DejaVuSans-65" x="588.330078"/>
      <use xlink:href="#DejaVuSans-73" x="649.853516"/>
     </g>
    </g>
    <g id="line2d_24">
     <path d="M 301.162188 293.004312 
L 311.162188 293.004312 
L 321.162188 293.004312 
" style="fill: none; stroke: #d62728; stroke-linecap: square"/>
    </g>
    <g id="text_22">
     <!-- 10000 samples -->
     <g transform="translate(329.162188 296.504312) scale(0.1 -0.1)">
      <use xlink:href="#DejaVuSans-31"/>
      <use xlink:href="#DejaVuSans-30" x="63.623047"/>
      <use xlink:href="#DejaVuSans-30" x="127.246094"/>
      <use xlink:href="#DejaVuSans-30" x="190.869141"/>
      <use xlink:href="#DejaVuSans-30" x="254.492188"/>
      <use xlink:href="#DejaVuSans-20" x="318.115234"/>
      <use xlink:href="#DejaVuSans-73" x="349.902344"/>
      <use xlink:href="#DejaVuSans-61" x="402.001953"/>
      <use xlink:href="#DejaVuSans-6d" x="463.28125"/>
      <use xlink:href="#DejaVuSans-70" x="560.693359"/>
      <use xlink:href="#DejaVuSans-6c" x="624.169922"/>
      <use xlink:href="#DejaVuSans-65" x="651.953125"/>
      <use xlink:href="#DejaVuSans-73" x="713.476562"/>
     </g>
    </g>
   </g>
  </g>
 </g>
 <defs>
  <clipPath id="p680cd23143">
   <rect x="57.6" y="41.472" width="357.12" height="266.112"/>
  </clipPath>
 </defs>
</svg>
