<?xml version="1.0" encoding="utf-8" standalone="no"?>
<!DOCTYPE svg PUBLIC "-//W3C//DTD SVG 1.1//EN"
  "http://www.w3.org/Graphics/SVG/1.1/DTD/svg11.dtd">
<svg xmlns:xlink="http://www.w3.org/1999/xlink" width="460.8pt" height="345.6pt" viewBox="0 0 460.8 345.6" xmlns="http://www.w3.org/2000/svg" version="1.1">
 <metadata>
  <rdf:RDF xmlns:dc="http://purl.org/dc/elements/1.1/" xmlns:cc="http://creativecommons.org/ns#" xmlns:rdf="http://www.w3.org/1999/02/22-rdf-syntax-ns#">
   <cc:Work>
    <dc:type rdf:resource="http://purl.org/dc/dcmitype/StillImage"/>
    <dc:date>2023-09-13T16:28:36.819494</dc:date>
    <dc:format>image/svg+xml</dc:format>
    <dc:creator>
     <cc:Agent>
      <dc:title>Matplotlib v3.7.1, https://matplotlib.org/</dc:title>
     </cc:Agent>
    </dc:creator>
   </cc:Work>
  </rdf:RDF>
 </metadata>
 <defs>
  <style type="text/css">*{stroke-linejoin: round; stroke-linecap: butt}</style>
 </defs>
 <g id="figure_1">
  <g id="patch_1">
   <path d="M 0 345.6 
L 460.8 345.6 
L 460.8 0 
L 0 0 
z
" style="fill: #ffffff"/>
  </g>
  <g id="axes_1">
   <g id="patch_2">
    <path d="M 57.6 307.584 
L 414.72 307.584 
L 414.72 41.472 
L 57.6 41.472 
z
" style="fill: #ffffff"/>
   </g>
   <g id="matplotlib.axis_1">
    <g id="xtick_1">
     <g id="line2d_1">
      <defs>
       <path id="m965dffff4d" d="M 0 0 
L 0 3.5 
" style="stroke: #000000; stroke-width: 0.8"/>
      </defs>
      <g>
       <use xlink:href="#m965dffff4d" x="71.653838" y="307.584" style="stroke: #000000; stroke-width: 0.8"/>
      </g>
     </g>
     <g id="text_1">
      <!-- 0 -->
      <g transform="translate(68.472588 322.182437) scale(0.1 -0.1)">
       <defs>
        <path id="DejaVuSans-30" d="M 2034 4250 
Q 1547 4250 1301 3770 
Q 1056 3291 1056 2328 
Q 1056 1369 1301 889 
Q 1547 409 2034 409 
Q 2525 409 2770 889 
Q 3016 1369 3016 2328 
Q 3016 3291 2770 3770 
Q 2525 4250 2034 4250 
z
M 2034 4750 
Q 2819 4750 3233 4129 
Q 3647 3509 3647 2328 
Q 3647 1150 3233 529 
Q 2819 -91 2034 -91 
Q 1250 -91 836 529 
Q 422 1150 422 2328 
Q 422 3509 836 4129 
Q 1250 4750 2034 4750 
z
" transform="scale(0.015625)"/>
       </defs>
       <use xlink:href="#DejaVuSans-30"/>
      </g>
     </g>
    </g>
    <g id="xtick_2">
     <g id="line2d_2">
      <g>
       <use xlink:href="#m965dffff4d" x="115.231629" y="307.584" style="stroke: #000000; stroke-width: 0.8"/>
      </g>
     </g>
     <g id="text_2">
      <!-- 20 -->
      <g transform="translate(108.869129 322.182437) scale(0.1 -0.1)">
       <defs>
        <path id="DejaVuSans-32" d="M 1228 531 
L 3431 531 
L 3431 0 
L 469 0 
L 469 531 
Q 828 903 1448 1529 
Q 2069 2156 2228 2338 
Q 2531 2678 2651 2914 
Q 2772 3150 2772 3378 
Q 2772 3750 2511 3984 
Q 2250 4219 1831 4219 
Q 1534 4219 1204 4116 
Q 875 4013 500 3803 
L 500 4441 
Q 881 4594 1212 4672 
Q 1544 4750 1819 4750 
Q 2544 4750 2975 4387 
Q 3406 4025 3406 3419 
Q 3406 3131 3298 2873 
Q 3191 2616 2906 2266 
Q 2828 2175 2409 1742 
Q 1991 1309 1228 531 
z
" transform="scale(0.015625)"/>
       </defs>
       <use xlink:href="#DejaVuSans-32"/>
       <use xlink:href="#DejaVuSans-30" x="63.623047"/>
      </g>
     </g>
    </g>
    <g id="xtick_3">
     <g id="line2d_3">
      <g>
       <use xlink:href="#m965dffff4d" x="158.80942" y="307.584" style="stroke: #000000; stroke-width: 0.8"/>
      </g>
     </g>
     <g id="text_3">
      <!-- 40 -->
      <g transform="translate(152.44692 322.182437) scale(0.1 -0.1)">
       <defs>
        <path id="DejaVuSans-34" d="M 2419 4116 
L 825 1625 
L 2419 1625 
L 2419 4116 
z
M 2253 4666 
L 3047 4666 
L 3047 1625 
L 3713 1625 
L 3713 1100 
L 3047 1100 
L 3047 0 
L 2419 0 
L 2419 1100 
L 313 1100 
L 313 1709 
L 2253 4666 
z
" transform="scale(0.015625)"/>
       </defs>
       <use xlink:href="#DejaVuSans-34"/>
       <use xlink:href="#DejaVuSans-30" x="63.623047"/>
      </g>
     </g>
    </g>
    <g id="xtick_4">
     <g id="line2d_4">
      <g>
       <use xlink:href="#m965dffff4d" x="202.387212" y="307.584" style="stroke: #000000; stroke-width: 0.8"/>
      </g>
     </g>
     <g id="text_4">
      <!-- 60 -->
      <g transform="translate(196.024712 322.182437) scale(0.1 -0.1)">
       <defs>
        <path id="DejaVuSans-36" d="M 2113 2584 
Q 1688 2584 1439 2293 
Q 1191 2003 1191 1497 
Q 1191 994 1439 701 
Q 1688 409 2113 409 
Q 2538 409 2786 701 
Q 3034 994 3034 1497 
Q 3034 2003 2786 2293 
Q 2538 2584 2113 2584 
z
M 3366 4563 
L 3366 3988 
Q 3128 4100 2886 4159 
Q 2644 4219 2406 4219 
Q 1781 4219 1451 3797 
Q 1122 3375 1075 2522 
Q 1259 2794 1537 2939 
Q 1816 3084 2150 3084 
Q 2853 3084 3261 2657 
Q 3669 2231 3669 1497 
Q 3669 778 3244 343 
Q 2819 -91 2113 -91 
Q 1303 -91 875 529 
Q 447 1150 447 2328 
Q 447 3434 972 4092 
Q 1497 4750 2381 4750 
Q 2619 4750 2861 4703 
Q 3103 4656 3366 4563 
z
" transform="scale(0.015625)"/>
       </defs>
       <use xlink:href="#DejaVuSans-36"/>
       <use xlink:href="#DejaVuSans-30" x="63.623047"/>
      </g>
     </g>
    </g>
    <g id="xtick_5">
     <g id="line2d_5">
      <g>
       <use xlink:href="#m965dffff4d" x="245.965003" y="307.584" style="stroke: #000000; stroke-width: 0.8"/>
      </g>
     </g>
     <g id="text_5">
      <!-- 80 -->
      <g transform="translate(239.602503 322.182437) scale(0.1 -0.1)">
       <defs>
        <path id="DejaVuSans-38" d="M 2034 2216 
Q 1584 2216 1326 1975 
Q 1069 1734 1069 1313 
Q 1069 891 1326 650 
Q 1584 409 2034 409 
Q 2484 409 2743 651 
Q 3003 894 3003 1313 
Q 3003 1734 2745 1975 
Q 2488 2216 2034 2216 
z
M 1403 2484 
Q 997 2584 770 2862 
Q 544 3141 544 3541 
Q 544 4100 942 4425 
Q 1341 4750 2034 4750 
Q 2731 4750 3128 4425 
Q 3525 4100 3525 3541 
Q 3525 3141 3298 2862 
Q 3072 2584 2669 2484 
Q 3125 2378 3379 2068 
Q 3634 1759 3634 1313 
Q 3634 634 3220 271 
Q 2806 -91 2034 -91 
Q 1263 -91 848 271 
Q 434 634 434 1313 
Q 434 1759 690 2068 
Q 947 2378 1403 2484 
z
M 1172 3481 
Q 1172 3119 1398 2916 
Q 1625 2713 2034 2713 
Q 2441 2713 2670 2916 
Q 2900 3119 2900 3481 
Q 2900 3844 2670 4047 
Q 2441 4250 2034 4250 
Q 1625 4250 1398 4047 
Q 1172 3844 1172 3481 
z
" transform="scale(0.015625)"/>
       </defs>
       <use xlink:href="#DejaVuSans-38"/>
       <use xlink:href="#DejaVuSans-30" x="63.623047"/>
      </g>
     </g>
    </g>
    <g id="xtick_6">
     <g id="line2d_6">
      <g>
       <use xlink:href="#m965dffff4d" x="289.542794" y="307.584" style="stroke: #000000; stroke-width: 0.8"/>
      </g>
     </g>
     <g id="text_6">
      <!-- 100 -->
      <g transform="translate(279.999044 322.182437) scale(0.1 -0.1)">
       <defs>
        <path id="DejaVuSans-31" d="M 794 531 
L 1825 531 
L 1825 4091 
L 703 3866 
L 703 4441 
L 1819 4666 
L 2450 4666 
L 2450 531 
L 3481 531 
L 3481 0 
L 794 0 
L 794 531 
z
" transform="scale(0.015625)"/>
       </defs>
       <use xlink:href="#DejaVuSans-31"/>
       <use xlink:href="#DejaVuSans-30" x="63.623047"/>
       <use xlink:href="#DejaVuSans-30" x="127.246094"/>
      </g>
     </g>
    </g>
    <g id="xtick_7">
     <g id="line2d_7">
      <g>
       <use xlink:href="#m965dffff4d" x="333.120586" y="307.584" style="stroke: #000000; stroke-width: 0.8"/>
      </g>
     </g>
     <g id="text_7">
      <!-- 120 -->
      <g transform="translate(323.576836 322.182437) scale(0.1 -0.1)">
       <use xlink:href="#DejaVuSans-31"/>
       <use xlink:href="#DejaVuSans-32" x="63.623047"/>
       <use xlink:href="#DejaVuSans-30" x="127.246094"/>
      </g>
     </g>
    </g>
    <g id="xtick_8">
     <g id="line2d_8">
      <g>
       <use xlink:href="#m965dffff4d" x="376.698377" y="307.584" style="stroke: #000000; stroke-width: 0.8"/>
      </g>
     </g>
     <g id="text_8">
      <!-- 140 -->
      <g transform="translate(367.154627 322.182437) scale(0.1 -0.1)">
       <use xlink:href="#DejaVuSans-31"/>
       <use xlink:href="#DejaVuSans-34" x="63.623047"/>
       <use xlink:href="#DejaVuSans-30" x="127.246094"/>
      </g>
     </g>
    </g>
    <g id="text_9">
     <!-- epoch -->
     <g transform="translate(220.931875 335.860562) scale(0.1 -0.1)">
      <defs>
       <path id="DejaVuSans-65" d="M 3597 1894 
L 3597 1613 
L 953 1613 
Q 991 1019 1311 708 
Q 1631 397 2203 397 
Q 2534 397 2845 478 
Q 3156 559 3463 722 
L 3463 178 
Q 3153 47 2828 -22 
Q 2503 -91 2169 -91 
Q 1331 -91 842 396 
Q 353 884 353 1716 
Q 353 2575 817 3079 
Q 1281 3584 2069 3584 
Q 2775 3584 3186 3129 
Q 3597 2675 3597 1894 
z
M 3022 2063 
Q 3016 2534 2758 2815 
Q 2500 3097 2075 3097 
Q 1594 3097 1305 2825 
Q 1016 2553 972 2059 
L 3022 2063 
z
" transform="scale(0.015625)"/>
       <path id="DejaVuSans-70" d="M 1159 525 
L 1159 -1331 
L 581 -1331 
L 581 3500 
L 1159 3500 
L 1159 2969 
Q 1341 3281 1617 3432 
Q 1894 3584 2278 3584 
Q 2916 3584 3314 3078 
Q 3713 2572 3713 1747 
Q 3713 922 3314 415 
Q 2916 -91 2278 -91 
Q 1894 -91 1617 61 
Q 1341 213 1159 525 
z
M 3116 1747 
Q 3116 2381 2855 2742 
Q 2594 3103 2138 3103 
Q 1681 3103 1420 2742 
Q 1159 2381 1159 1747 
Q 1159 1113 1420 752 
Q 1681 391 2138 391 
Q 2594 391 2855 752 
Q 3116 1113 3116 1747 
z
" transform="scale(0.015625)"/>
       <path id="DejaVuSans-6f" d="M 1959 3097 
Q 1497 3097 1228 2736 
Q 959 2375 959 1747 
Q 959 1119 1226 758 
Q 1494 397 1959 397 
Q 2419 397 2687 759 
Q 2956 1122 2956 1747 
Q 2956 2369 2687 2733 
Q 2419 3097 1959 3097 
z
M 1959 3584 
Q 2709 3584 3137 3096 
Q 3566 2609 3566 1747 
Q 3566 888 3137 398 
Q 2709 -91 1959 -91 
Q 1206 -91 779 398 
Q 353 888 353 1747 
Q 353 2609 779 3096 
Q 1206 3584 1959 3584 
z
" transform="scale(0.015625)"/>
       <path id="DejaVuSans-63" d="M 3122 3366 
L 3122 2828 
Q 2878 2963 2633 3030 
Q 2388 3097 2138 3097 
Q 1578 3097 1268 2742 
Q 959 2388 959 1747 
Q 959 1106 1268 751 
Q 1578 397 2138 397 
Q 2388 397 2633 464 
Q 2878 531 3122 666 
L 3122 134 
Q 2881 22 2623 -34 
Q 2366 -91 2075 -91 
Q 1284 -91 818 406 
Q 353 903 353 1747 
Q 353 2603 823 3093 
Q 1294 3584 2113 3584 
Q 2378 3584 2631 3529 
Q 2884 3475 3122 3366 
z
" transform="scale(0.015625)"/>
       <path id="DejaVuSans-68" d="M 3513 2113 
L 3513 0 
L 2938 0 
L 2938 2094 
Q 2938 2591 2744 2837 
Q 2550 3084 2163 3084 
Q 1697 3084 1428 2787 
Q 1159 2491 1159 1978 
L 1159 0 
L 581 0 
L 581 4863 
L 1159 4863 
L 1159 2956 
Q 1366 3272 1645 3428 
Q 1925 3584 2291 3584 
Q 2894 3584 3203 3211 
Q 3513 2838 3513 2113 
z
" transform="scale(0.015625)"/>
      </defs>
      <use xlink:href="#DejaVuSans-65"/>
      <use xlink:href="#DejaVuSans-70" x="61.523438"/>
      <use xlink:href="#DejaVuSans-6f" x="125"/>
      <use xlink:href="#DejaVuSans-63" x="186.181641"/>
      <use xlink:href="#DejaVuSans-68" x="241.162109"/>
     </g>
    </g>
   </g>
   <g id="matplotlib.axis_2">
    <g id="ytick_1">
     <g id="line2d_9">
      <defs>
       <path id="m5fba9e23fb" d="M 0 0 
L -3.5 0 
" style="stroke: #000000; stroke-width: 0.8"/>
      </defs>
      <g>
       <use xlink:href="#m5fba9e23fb" x="57.6" y="307.584" style="stroke: #000000; stroke-width: 0.8"/>
      </g>
     </g>
     <g id="text_10">
      <!-- 0.00 -->
      <g transform="translate(28.334375 311.383219) scale(0.1 -0.1)">
       <defs>
        <path id="DejaVuSans-2e" d="M 684 794 
L 1344 794 
L 1344 0 
L 684 0 
L 684 794 
z
" transform="scale(0.015625)"/>
       </defs>
       <use xlink:href="#DejaVuSans-30"/>
       <use xlink:href="#DejaVuSans-2e" x="63.623047"/>
       <use xlink:href="#DejaVuSans-30" x="95.410156"/>
       <use xlink:href="#DejaVuSans-30" x="159.033203"/>
      </g>
     </g>
    </g>
    <g id="ytick_2">
     <g id="line2d_10">
      <g>
       <use xlink:href="#m5fba9e23fb" x="57.6" y="276.666965" style="stroke: #000000; stroke-width: 0.8"/>
      </g>
     </g>
     <g id="text_11">
      <!-- 0.05 -->
      <g transform="translate(28.334375 280.466184) scale(0.1 -0.1)">
       <defs>
        <path id="DejaVuSans-35" d="M 691 4666 
L 3169 4666 
L 3169 4134 
L 1269 4134 
L 1269 2991 
Q 1406 3038 1543 3061 
Q 1681 3084 1819 3084 
Q 2600 3084 3056 2656 
Q 3513 2228 3513 1497 
Q 3513 744 3044 326 
Q 2575 -91 1722 -91 
Q 1428 -91 1123 -41 
Q 819 9 494 109 
L 494 744 
Q 775 591 1075 516 
Q 1375 441 1709 441 
Q 2250 441 2565 725 
Q 2881 1009 2881 1497 
Q 2881 1984 2565 2268 
Q 2250 2553 1709 2553 
Q 1456 2553 1204 2497 
Q 953 2441 691 2322 
L 691 4666 
z
" transform="scale(0.015625)"/>
       </defs>
       <use xlink:href="#DejaVuSans-30"/>
       <use xlink:href="#DejaVuSans-2e" x="63.623047"/>
       <use xlink:href="#DejaVuSans-30" x="95.410156"/>
       <use xlink:href="#DejaVuSans-35" x="159.033203"/>
      </g>
     </g>
    </g>
    <g id="ytick_3">
     <g id="line2d_11">
      <g>
       <use xlink:href="#m5fba9e23fb" x="57.6" y="245.749931" style="stroke: #000000; stroke-width: 0.8"/>
      </g>
     </g>
     <g id="text_12">
      <!-- 0.10 -->
      <g transform="translate(28.334375 249.549149) scale(0.1 -0.1)">
       <use xlink:href="#DejaVuSans-30"/>
       <use xlink:href="#DejaVuSans-2e" x="63.623047"/>
       <use xlink:href="#DejaVuSans-31" x="95.410156"/>
       <use xlink:href="#DejaVuSans-30" x="159.033203"/>
      </g>
     </g>
    </g>
    <g id="ytick_4">
     <g id="line2d_12">
      <g>
       <use xlink:href="#m5fba9e23fb" x="57.6" y="214.832896" style="stroke: #000000; stroke-width: 0.8"/>
      </g>
     </g>
     <g id="text_13">
      <!-- 0.15 -->
      <g transform="translate(28.334375 218.632115) scale(0.1 -0.1)">
       <use xlink:href="#DejaVuSans-30"/>
       <use xlink:href="#DejaVuSans-2e" x="63.623047"/>
       <use xlink:href="#DejaVuSans-31" x="95.410156"/>
       <use xlink:href="#DejaVuSans-35" x="159.033203"/>
      </g>
     </g>
    </g>
    <g id="ytick_5">
     <g id="line2d_13">
      <g>
       <use xlink:href="#m5fba9e23fb" x="57.6" y="183.915861" style="stroke: #000000; stroke-width: 0.8"/>
      </g>
     </g>
     <g id="text_14">
      <!-- 0.20 -->
      <g transform="translate(28.334375 187.71508) scale(0.1 -0.1)">
       <use xlink:href="#DejaVuSans-30"/>
       <use xlink:href="#DejaVuSans-2e" x="63.623047"/>
       <use xlink:href="#DejaVuSans-32" x="95.410156"/>
       <use xlink:href="#DejaVuSans-30" x="159.033203"/>
      </g>
     </g>
    </g>
    <g id="ytick_6">
     <g id="line2d_14">
      <g>
       <use xlink:href="#m5fba9e23fb" x="57.6" y="152.998826" style="stroke: #000000; stroke-width: 0.8"/>
      </g>
     </g>
     <g id="text_15">
      <!-- 0.25 -->
      <g transform="translate(28.334375 156.798045) scale(0.1 -0.1)">
       <use xlink:href="#DejaVuSans-30"/>
       <use xlink:href="#DejaVuSans-2e" x="63.623047"/>
       <use xlink:href="#DejaVuSans-32" x="95.410156"/>
       <use xlink:href="#DejaVuSans-35" x="159.033203"/>
      </g>
     </g>
    </g>
    <g id="ytick_7">
     <g id="line2d_15">
      <g>
       <use xlink:href="#m5fba9e23fb" x="57.6" y="122.081792" style="stroke: #000000; stroke-width: 0.8"/>
      </g>
     </g>
     <g id="text_16">
      <!-- 0.30 -->
      <g transform="translate(28.334375 125.88101) scale(0.1 -0.1)">
       <defs>
        <path id="DejaVuSans-33" d="M 2597 2516 
Q 3050 2419 3304 2112 
Q 3559 1806 3559 1356 
Q 3559 666 3084 287 
Q 2609 -91 1734 -91 
Q 1441 -91 1130 -33 
Q 819 25 488 141 
L 488 750 
Q 750 597 1062 519 
Q 1375 441 1716 441 
Q 2309 441 2620 675 
Q 2931 909 2931 1356 
Q 2931 1769 2642 2001 
Q 2353 2234 1838 2234 
L 1294 2234 
L 1294 2753 
L 1863 2753 
Q 2328 2753 2575 2939 
Q 2822 3125 2822 3475 
Q 2822 3834 2567 4026 
Q 2313 4219 1838 4219 
Q 1578 4219 1281 4162 
Q 984 4106 628 3988 
L 628 4550 
Q 988 4650 1302 4700 
Q 1616 4750 1894 4750 
Q 2613 4750 3031 4423 
Q 3450 4097 3450 3541 
Q 3450 3153 3228 2886 
Q 3006 2619 2597 2516 
z
" transform="scale(0.015625)"/>
       </defs>
       <use xlink:href="#DejaVuSans-30"/>
       <use xlink:href="#DejaVuSans-2e" x="63.623047"/>
       <use xlink:href="#DejaVuSans-33" x="95.410156"/>
       <use xlink:href="#DejaVuSans-30" x="159.033203"/>
      </g>
     </g>
    </g>
    <g id="ytick_8">
     <g id="line2d_16">
      <g>
       <use xlink:href="#m5fba9e23fb" x="57.6" y="91.164757" style="stroke: #000000; stroke-width: 0.8"/>
      </g>
     </g>
     <g id="text_17">
      <!-- 0.35 -->
      <g transform="translate(28.334375 94.963976) scale(0.1 -0.1)">
       <use xlink:href="#DejaVuSans-30"/>
       <use xlink:href="#DejaVuSans-2e" x="63.623047"/>
       <use xlink:href="#DejaVuSans-33" x="95.410156"/>
       <use xlink:href="#DejaVuSans-35" x="159.033203"/>
      </g>
     </g>
    </g>
    <g id="ytick_9">
     <g id="line2d_17">
      <g>
       <use xlink:href="#m5fba9e23fb" x="57.6" y="60.247722" style="stroke: #000000; stroke-width: 0.8"/>
      </g>
     </g>
     <g id="text_18">
      <!-- 0.40 -->
      <g transform="translate(28.334375 64.046941) scale(0.1 -0.1)">
       <use xlink:href="#DejaVuSans-30"/>
       <use xlink:href="#DejaVuSans-2e" x="63.623047"/>
       <use xlink:href="#DejaVuSans-34" x="95.410156"/>
       <use xlink:href="#DejaVuSans-30" x="159.033203"/>
      </g>
     </g>
    </g>
   </g>
   <g id="line2d_18">
    <path d="M 73.832727 132.289416 
L 76.011617 198.968246 
L 78.190506 286.379075 
L 80.369396 294.653157 
L 82.548286 293.252101 
L 84.727175 293.541957 
L 86.906065 291.203424 
L 89.084954 297.916036 
L 91.263844 293.001232 
L 93.442733 297.93294 
L 95.621623 297.285945 
L 97.800513 298.301256 
L 99.979402 297.806584 
L 102.158292 298.891352 
L 104.337181 298.362965 
L 106.516071 298.253901 
L 108.69496 296.590251 
L 110.87385 298.100025 
L 113.052739 298.466898 
L 115.231629 298.590101 
L 117.410519 298.442869 
L 119.589408 298.172932 
L 121.768298 299.16131 
L 123.947187 298.581839 
L 126.126077 298.743376 
L 128.304966 299.120465 
L 132.662746 298.868194 
L 139.199414 299.172611 
L 141.378304 298.605818 
L 143.557193 299.393045 
L 145.736083 299.432135 
L 147.914973 299.008341 
L 150.093862 299.492185 
L 152.272752 299.109515 
L 154.451641 299.2986 
L 156.630531 299.137958 
L 158.80942 298.814295 
L 160.98831 299.070941 
L 163.1672 299.526406 
L 165.346089 298.823775 
L 167.524979 299.557871 
L 169.703868 299.472348 
L 171.882758 299.527367 
L 174.061647 299.21173 
L 176.240537 299.674938 
L 178.419426 299.536545 
L 180.598316 298.953367 
L 182.777206 299.66524 
L 184.956095 299.725544 
L 187.134985 299.400127 
L 193.671653 299.609991 
L 195.850543 299.422142 
L 198.029433 299.705344 
L 200.208322 299.273082 
L 202.387212 299.497664 
L 206.744991 299.656189 
L 208.92388 299.299518 
L 211.10277 299.346888 
L 213.28166 299.591104 
L 215.460549 298.44244 
L 217.639439 299.271234 
L 219.818328 299.494772 
L 221.997218 299.382264 
L 224.176107 299.766256 
L 226.354997 299.721883 
L 228.533887 299.476882 
L 232.891666 299.871531 
L 235.070555 298.668896 
L 237.249445 299.407655 
L 241.607224 299.793713 
L 243.786113 299.222066 
L 248.143893 299.73712 
L 250.322782 299.250644 
L 256.859451 299.653065 
L 259.03834 299.445532 
L 261.21723 299.885477 
L 263.39612 299.366777 
L 265.575009 299.71288 
L 267.753899 298.877238 
L 269.932788 299.736822 
L 272.111678 299.629799 
L 274.290567 299.845957 
L 278.648347 299.633965 
L 280.827236 299.042058 
L 283.006126 299.758685 
L 285.185015 299.04769 
L 287.363905 298.905504 
L 289.542794 299.722819 
L 291.721684 299.847885 
L 293.900574 299.375775 
L 296.079463 299.623887 
L 298.258353 299.535823 
L 300.437242 299.827433 
L 302.616132 299.43064 
L 306.973911 299.752326 
L 309.1528 298.941586 
L 311.33169 299.455354 
L 313.51058 299.772707 
L 315.689469 299.628357 
L 317.868359 299.715249 
L 320.047248 299.483655 
L 322.226138 299.751468 
L 324.405027 299.626817 
L 326.583917 299.679989 
L 328.762807 299.537007 
L 330.941696 299.738935 
L 333.120586 299.534388 
L 335.299475 299.209095 
L 337.478365 299.342453 
L 339.657254 299.623403 
L 344.015034 299.515071 
L 346.193923 299.72089 
L 348.372813 299.479792 
L 350.551702 299.747937 
L 354.909481 299.46942 
L 357.088371 299.63795 
L 359.267261 299.454265 
L 361.44615 299.012938 
L 363.62504 299.655715 
L 367.982819 299.679747 
L 370.161708 299.344004 
L 372.340598 299.705966 
L 374.519487 299.064478 
L 376.698377 299.747057 
L 378.877267 299.388428 
L 381.056156 299.629238 
L 383.235046 299.745966 
L 385.413935 299.498849 
L 387.592825 299.726814 
L 389.771714 299.662181 
L 391.950604 299.163371 
L 394.129494 299.257704 
L 396.308383 299.190937 
L 398.487273 299.692184 
L 398.487273 299.692184 
" clip-path="url(#p50ff3f3557)" style="fill: none; stroke: #1f77b4; stroke-linecap: square"/>
   </g>
   <g id="line2d_19">
    <path d="M 73.832727 241.26769 
L 76.011617 189.621561 
L 78.190506 193.511912 
L 80.369396 129.427402 
L 82.548286 182.523698 
L 84.727175 54.144 
L 86.906065 72.676899 
L 89.084954 213.034219 
L 91.263844 262.044929 
L 93.442733 195.005334 
L 95.621623 117.086841 
L 97.800513 198.48276 
L 99.979402 260.346219 
L 102.158292 261.383968 
L 104.337181 282.163787 
L 106.516071 231.55309 
L 108.69496 68.646385 
L 110.87385 280.654892 
L 113.052739 279.013647 
L 115.231629 249.501629 
L 117.410519 294.638061 
L 119.589408 270.638467 
L 121.768298 292.219031 
L 123.947187 276.740099 
L 126.126077 288.061534 
L 128.304966 270.303842 
L 130.483856 284.826134 
L 132.662746 292.748822 
L 134.841635 277.597007 
L 137.020525 296.181849 
L 139.199414 293.503789 
L 141.378304 220.48623 
L 143.557193 282.851566 
L 145.736083 285.419241 
L 147.914973 292.18493 
L 150.093862 291.201662 
L 152.272752 296.406501 
L 154.451641 294.348554 
L 156.630531 293.301716 
L 158.80942 294.717085 
L 160.98831 296.772911 
L 163.1672 292.69795 
L 165.346089 297.443018 
L 167.524979 297.430434 
L 171.882758 296.952962 
L 174.061647 295.372984 
L 176.240537 297.880779 
L 178.419426 297.76495 
L 180.598316 297.179874 
L 182.777206 297.663459 
L 184.956095 298.018312 
L 187.134985 295.123733 
L 189.313874 297.970799 
L 191.492764 296.797656 
L 193.671653 297.773785 
L 195.850543 297.97503 
L 198.029433 293.617417 
L 200.208322 297.838043 
L 202.387212 298.237427 
L 204.566101 296.716603 
L 206.744991 298.031859 
L 208.92388 297.491458 
L 211.10277 297.650332 
L 213.28166 294.486149 
L 215.460549 297.246816 
L 217.639439 297.239074 
L 219.818328 297.699184 
L 221.997218 297.2611 
L 224.176107 294.698684 
L 226.354997 296.192861 
L 228.533887 297.827136 
L 230.712776 296.494626 
L 232.891666 297.364572 
L 235.070555 296.858722 
L 237.249445 298.065047 
L 239.428334 298.079264 
L 241.607224 297.378922 
L 243.786113 297.687309 
L 245.965003 297.183475 
L 248.143893 293.958962 
L 250.322782 296.285911 
L 252.501672 297.190991 
L 256.859451 297.006106 
L 259.03834 295.608141 
L 261.21723 295.960216 
L 263.39612 297.448583 
L 265.575009 296.837876 
L 269.932788 297.379432 
L 272.111678 295.766719 
L 274.290567 297.538261 
L 276.469457 296.819012 
L 278.648347 294.888941 
L 280.827236 297.192575 
L 283.006126 296.843654 
L 285.185015 296.889683 
L 287.363905 296.194283 
L 289.542794 297.963479 
L 291.721684 296.334812 
L 293.900574 296.715267 
L 296.079463 297.428392 
L 298.258353 295.891414 
L 300.437242 295.508763 
L 302.616132 296.0261 
L 304.795021 297.557563 
L 306.973911 297.814991 
L 309.1528 297.281324 
L 311.33169 295.150464 
L 313.51058 297.286451 
L 315.689469 296.857835 
L 317.868359 295.642094 
L 320.047248 297.909099 
L 322.226138 296.940701 
L 324.405027 296.710525 
L 326.583917 296.329518 
L 328.762807 297.334168 
L 330.941696 298.033425 
L 333.120586 296.035989 
L 335.299475 296.14955 
L 337.478365 297.274173 
L 339.657254 296.822801 
L 341.836144 296.697363 
L 344.015034 295.119302 
L 346.193923 297.142425 
L 348.372813 297.619843 
L 352.730592 298.031422 
L 354.909481 295.389161 
L 357.088371 296.339332 
L 359.267261 297.152297 
L 361.44615 298.345046 
L 363.62504 297.514991 
L 365.803929 298.107292 
L 367.982819 292.414576 
L 370.161708 298.157245 
L 372.340598 297.358682 
L 374.519487 297.995061 
L 376.698377 297.213229 
L 378.877267 297.804402 
L 381.056156 297.733625 
L 383.235046 294.110625 
L 385.413935 297.160729 
L 389.771714 297.795324 
L 391.950604 296.688732 
L 394.129494 296.296496 
L 396.308383 298.045769 
L 398.487273 296.615279 
L 398.487273 296.615279 
" clip-path="url(#p50ff3f3557)" style="fill: none; stroke: #ff7f0e; stroke-linecap: square"/>
   </g>
   <g id="line2d_20">
    <path d="M 73.832727 245.423957 
L 76.011617 241.409553 
L 78.190506 255.329706 
L 80.369396 284.396117 
L 82.548286 288.299065 
L 84.727175 294.609886 
L 86.906065 275.884784 
L 89.084954 276.112395 
L 91.263844 282.310009 
L 93.442733 284.100346 
L 95.621623 285.467458 
L 97.800513 289.455584 
L 99.979402 291.85792 
L 102.158292 294.678988 
L 104.337181 294.958255 
L 106.516071 294.556192 
L 108.69496 298.032606 
L 113.052739 297.61515 
L 115.231629 298.074967 
L 117.410519 296.152265 
L 119.589408 297.471893 
L 121.768298 298.490582 
L 123.947187 296.304682 
L 126.126077 297.594643 
L 128.304966 297.765057 
L 130.483856 297.24613 
L 132.662746 298.067593 
L 134.841635 298.081009 
L 137.020525 297.813779 
L 139.199414 298.425091 
L 141.378304 298.058795 
L 143.557193 297.28215 
L 145.736083 297.810761 
L 147.914973 298.54135 
L 150.093862 298.534562 
L 152.272752 296.407926 
L 154.451641 298.190853 
L 156.630531 296.350374 
L 158.80942 298.198716 
L 160.98831 298.523394 
L 163.1672 298.426251 
L 165.346089 298.712649 
L 167.524979 298.335144 
L 169.703868 298.918122 
L 171.882758 298.730415 
L 174.061647 298.05741 
L 176.240537 298.613345 
L 178.419426 298.273123 
L 180.598316 298.561038 
L 182.777206 297.646757 
L 184.956095 298.653907 
L 189.313874 298.644941 
L 191.492764 298.740707 
L 193.671653 296.084836 
L 195.850543 298.270218 
L 198.029433 298.548127 
L 200.208322 297.449715 
L 202.387212 298.954186 
L 204.566101 298.635061 
L 206.744991 297.233529 
L 211.10277 298.698213 
L 213.28166 298.051933 
L 215.460549 298.067718 
L 217.639439 298.260179 
L 219.818328 296.80554 
L 221.997218 298.458655 
L 224.176107 298.637581 
L 226.354997 298.081131 
L 228.533887 297.931701 
L 235.070555 299.053732 
L 237.249445 298.888746 
L 239.428334 298.354569 
L 241.607224 297.620255 
L 243.786113 298.232328 
L 245.965003 299.033049 
L 248.143893 298.390769 
L 250.322782 298.533356 
L 252.501672 298.169286 
L 254.680561 299.164339 
L 256.859451 298.542676 
L 261.21723 298.97241 
L 263.39612 297.544798 
L 265.575009 298.144225 
L 267.753899 298.179897 
L 269.932788 298.040713 
L 272.111678 298.836292 
L 274.290567 297.09836 
L 276.469457 298.624593 
L 278.648347 297.832998 
L 280.827236 298.662715 
L 283.006126 298.771736 
L 285.185015 298.534532 
L 287.363905 297.767796 
L 289.542794 298.130605 
L 291.721684 297.960669 
L 293.900574 298.823442 
L 296.079463 297.668886 
L 298.258353 298.24818 
L 300.437242 297.471072 
L 302.616132 298.397961 
L 304.795021 298.799408 
L 306.973911 298.999 
L 309.1528 298.261165 
L 311.33169 298.460101 
L 313.51058 298.797518 
L 315.689469 297.319004 
L 317.868359 298.361646 
L 320.047248 298.873458 
L 322.226138 298.761439 
L 324.405027 299.105711 
L 326.583917 298.521902 
L 328.762807 298.855873 
L 330.941696 298.660398 
L 333.120586 297.97183 
L 335.299475 298.598513 
L 337.478365 297.697253 
L 341.836144 298.706059 
L 344.015034 298.654136 
L 346.193923 298.860454 
L 348.372813 298.626662 
L 350.551702 298.838666 
L 352.730592 298.748929 
L 354.909481 298.976152 
L 357.088371 298.417763 
L 361.44615 298.301635 
L 363.62504 298.813615 
L 365.803929 298.562262 
L 367.982819 298.739326 
L 370.161708 298.68896 
L 372.340598 298.805153 
L 374.519487 299.098025 
L 376.698377 299.019448 
L 378.877267 298.242332 
L 381.056156 298.720828 
L 383.235046 298.415161 
L 389.771714 298.580499 
L 391.950604 298.89094 
L 394.129494 297.749184 
L 396.308383 298.718384 
L 398.487273 298.870469 
L 398.487273 298.870469 
" clip-path="url(#p50ff3f3557)" style="fill: none; stroke: #2ca02c; stroke-linecap: square"/>
   </g>
   <g id="line2d_21">
    <path d="M 73.832727 293.094686 
L 76.011617 247.6988 
L 78.190506 268.949367 
L 80.369396 282.551777 
L 82.548286 265.452693 
L 84.727175 284.01153 
L 86.906065 296.953254 
L 89.084954 296.991446 
L 91.263844 297.217471 
L 93.442733 295.309251 
L 95.621623 298.092359 
L 97.800513 296.548277 
L 99.979402 296.493915 
L 102.158292 298.11026 
L 104.337181 297.591842 
L 106.516071 297.940096 
L 108.69496 298.499295 
L 110.87385 296.588595 
L 115.231629 298.074195 
L 117.410519 297.70578 
L 119.589408 298.147838 
L 121.768298 298.083294 
L 123.947187 298.282729 
L 126.126077 298.115483 
L 128.304966 296.565426 
L 130.483856 298.614426 
L 132.662746 298.345434 
L 134.841635 298.759969 
L 137.020525 298.972099 
L 139.199414 298.553554 
L 141.378304 298.98035 
L 145.736083 299.03434 
L 147.914973 298.151253 
L 150.093862 299.100175 
L 152.272752 298.913448 
L 156.630531 299.164329 
L 158.80942 298.973321 
L 163.1672 298.922033 
L 165.346089 297.925821 
L 167.524979 298.909353 
L 169.703868 299.24257 
L 171.882758 298.486795 
L 174.061647 299.213291 
L 176.240537 299.348208 
L 180.598316 299.014595 
L 182.777206 298.597795 
L 184.956095 299.342244 
L 187.134985 298.103848 
L 189.313874 298.590317 
L 191.492764 299.318453 
L 193.671653 299.098655 
L 195.850543 299.261802 
L 202.387212 299.063133 
L 208.92388 299.286146 
L 211.10277 299.059766 
L 215.460549 299.35901 
L 217.639439 299.342965 
L 221.997218 298.976808 
L 224.176107 299.010383 
L 226.354997 299.218382 
L 228.533887 298.914573 
L 230.712776 298.888593 
L 232.891666 299.215752 
L 237.249445 299.260542 
L 248.143893 299.264348 
L 252.501672 299.279194 
L 254.680561 298.986288 
L 256.859451 299.211162 
L 261.21723 299.014364 
L 263.39612 299.241902 
L 265.575009 299.066897 
L 269.932788 299.089996 
L 272.111678 298.869872 
L 274.290567 299.320435 
L 276.469457 299.418588 
L 278.648347 299.116648 
L 285.185015 299.306968 
L 287.363905 298.584399 
L 289.542794 299.308861 
L 291.721684 299.110499 
L 293.900574 299.20038 
L 296.079463 299.006594 
L 298.258353 299.258548 
L 300.437242 298.731414 
L 302.616132 299.332605 
L 304.795021 299.24411 
L 306.973911 298.966656 
L 309.1528 298.272289 
L 311.33169 299.218287 
L 313.51058 299.272105 
L 315.689469 298.952006 
L 317.868359 298.462524 
L 320.047248 299.198168 
L 322.226138 299.352686 
L 324.405027 299.158418 
L 326.583917 299.189795 
L 328.762807 298.275142 
L 330.941696 298.876318 
L 333.120586 299.038722 
L 335.299475 299.335263 
L 337.478365 298.568902 
L 339.657254 298.956005 
L 341.836144 298.747103 
L 346.193923 299.295847 
L 348.372813 298.988496 
L 350.551702 299.361447 
L 352.730592 298.882353 
L 354.909481 299.098545 
L 357.088371 298.483027 
L 359.267261 298.32849 
L 361.44615 299.139618 
L 365.803929 299.146732 
L 370.161708 298.722326 
L 372.340598 299.24933 
L 374.519487 298.426487 
L 376.698377 298.287843 
L 378.877267 298.894187 
L 381.056156 298.79992 
L 385.413935 298.958726 
L 387.592825 298.609254 
L 389.771714 299.183874 
L 391.950604 299.271065 
L 394.129494 299.100599 
L 396.308383 299.32673 
L 398.487273 299.155901 
L 398.487273 299.155901 
" clip-path="url(#p50ff3f3557)" style="fill: none; stroke: #d62728; stroke-linecap: square"/>
   </g>
   <g id="patch_3">
    <path d="M 57.6 307.584 
L 57.6 41.472 
" style="fill: none; stroke: #000000; stroke-width: 0.8; stroke-linejoin: miter; stroke-linecap: square"/>
   </g>
   <g id="patch_4">
    <path d="M 414.72 307.584 
L 414.72 41.472 
" style="fill: none; stroke: #000000; stroke-width: 0.8; stroke-linejoin: miter; stroke-linecap: square"/>
   </g>
   <g id="patch_5">
    <path d="M 57.6 307.584 
L 414.72 307.584 
" style="fill: none; stroke: #000000; stroke-width: 0.8; stroke-linejoin: miter; stroke-linecap: square"/>
   </g>
   <g id="patch_6">
    <path d="M 57.6 41.472 
L 414.72 41.472 
" style="fill: none; stroke: #000000; stroke-width: 0.8; stroke-linejoin: miter; stroke-linecap: square"/>
   </g>
   <g id="text_19">
    <!-- Mean Square Error of R1 -->
    <g transform="translate(162.67125 35.472) scale(0.12 -0.12)">
     <defs>
      <path id="DejaVuSans-4d" d="M 628 4666 
L 1569 4666 
L 2759 1491 
L 3956 4666 
L 4897 4666 
L 4897 0 
L 4281 0 
L 4281 4097 
L 3078 897 
L 2444 897 
L 1241 4097 
L 1241 0 
L 628 0 
L 628 4666 
z
" transform="scale(0.015625)"/>
      <path id="DejaVuSans-61" d="M 2194 1759 
Q 1497 1759 1228 1600 
Q 959 1441 959 1056 
Q 959 750 1161 570 
Q 1363 391 1709 391 
Q 2188 391 2477 730 
Q 2766 1069 2766 1631 
L 2766 1759 
L 2194 1759 
z
M 3341 1997 
L 3341 0 
L 2766 0 
L 2766 531 
Q 2569 213 2275 61 
Q 1981 -91 1556 -91 
Q 1019 -91 701 211 
Q 384 513 384 1019 
Q 384 1609 779 1909 
Q 1175 2209 1959 2209 
L 2766 2209 
L 2766 2266 
Q 2766 2663 2505 2880 
Q 2244 3097 1772 3097 
Q 1472 3097 1187 3025 
Q 903 2953 641 2809 
L 641 3341 
Q 956 3463 1253 3523 
Q 1550 3584 1831 3584 
Q 2591 3584 2966 3190 
Q 3341 2797 3341 1997 
z
" transform="scale(0.015625)"/>
      <path id="DejaVuSans-6e" d="M 3513 2113 
L 3513 0 
L 2938 0 
L 2938 2094 
Q 2938 2591 2744 2837 
Q 2550 3084 2163 3084 
Q 1697 3084 1428 2787 
Q 1159 2491 1159 1978 
L 1159 0 
L 581 0 
L 581 3500 
L 1159 3500 
L 1159 2956 
Q 1366 3272 1645 3428 
Q 1925 3584 2291 3584 
Q 2894 3584 3203 3211 
Q 3513 2838 3513 2113 
z
" transform="scale(0.015625)"/>
      <path id="DejaVuSans-20" transform="scale(0.015625)"/>
      <path id="DejaVuSans-53" d="M 3425 4513 
L 3425 3897 
Q 3066 4069 2747 4153 
Q 2428 4238 2131 4238 
Q 1616 4238 1336 4038 
Q 1056 3838 1056 3469 
Q 1056 3159 1242 3001 
Q 1428 2844 1947 2747 
L 2328 2669 
Q 3034 2534 3370 2195 
Q 3706 1856 3706 1288 
Q 3706 609 3251 259 
Q 2797 -91 1919 -91 
Q 1588 -91 1214 -16 
Q 841 59 441 206 
L 441 856 
Q 825 641 1194 531 
Q 1563 422 1919 422 
Q 2459 422 2753 634 
Q 3047 847 3047 1241 
Q 3047 1584 2836 1778 
Q 2625 1972 2144 2069 
L 1759 2144 
Q 1053 2284 737 2584 
Q 422 2884 422 3419 
Q 422 4038 858 4394 
Q 1294 4750 2059 4750 
Q 2388 4750 2728 4690 
Q 3069 4631 3425 4513 
z
" transform="scale(0.015625)"/>
      <path id="DejaVuSans-71" d="M 947 1747 
Q 947 1113 1208 752 
Q 1469 391 1925 391 
Q 2381 391 2643 752 
Q 2906 1113 2906 1747 
Q 2906 2381 2643 2742 
Q 2381 3103 1925 3103 
Q 1469 3103 1208 2742 
Q 947 2381 947 1747 
z
M 2906 525 
Q 2725 213 2448 61 
Q 2172 -91 1784 -91 
Q 1150 -91 751 415 
Q 353 922 353 1747 
Q 353 2572 751 3078 
Q 1150 3584 1784 3584 
Q 2172 3584 2448 3432 
Q 2725 3281 2906 2969 
L 2906 3500 
L 3481 3500 
L 3481 -1331 
L 2906 -1331 
L 2906 525 
z
" transform="scale(0.015625)"/>
      <path id="DejaVuSans-75" d="M 544 1381 
L 544 3500 
L 1119 3500 
L 1119 1403 
Q 1119 906 1312 657 
Q 1506 409 1894 409 
Q 2359 409 2629 706 
Q 2900 1003 2900 1516 
L 2900 3500 
L 3475 3500 
L 3475 0 
L 2900 0 
L 2900 538 
Q 2691 219 2414 64 
Q 2138 -91 1772 -91 
Q 1169 -91 856 284 
Q 544 659 544 1381 
z
M 1991 3584 
L 1991 3584 
z
" transform="scale(0.015625)"/>
      <path id="DejaVuSans-72" d="M 2631 2963 
Q 2534 3019 2420 3045 
Q 2306 3072 2169 3072 
Q 1681 3072 1420 2755 
Q 1159 2438 1159 1844 
L 1159 0 
L 581 0 
L 581 3500 
L 1159 3500 
L 1159 2956 
Q 1341 3275 1631 3429 
Q 1922 3584 2338 3584 
Q 2397 3584 2469 3576 
Q 2541 3569 2628 3553 
L 2631 2963 
z
" transform="scale(0.015625)"/>
      <path id="DejaVuSans-45" d="M 628 4666 
L 3578 4666 
L 3578 4134 
L 1259 4134 
L 1259 2753 
L 3481 2753 
L 3481 2222 
L 1259 2222 
L 1259 531 
L 3634 531 
L 3634 0 
L 628 0 
L 628 4666 
z
" transform="scale(0.015625)"/>
      <path id="DejaVuSans-66" d="M 2375 4863 
L 2375 4384 
L 1825 4384 
Q 1516 4384 1395 4259 
Q 1275 4134 1275 3809 
L 1275 3500 
L 2222 3500 
L 2222 3053 
L 1275 3053 
L 1275 0 
L 697 0 
L 697 3053 
L 147 3053 
L 147 3500 
L 697 3500 
L 697 3744 
Q 697 4328 969 4595 
Q 1241 4863 1831 4863 
L 2375 4863 
z
" transform="scale(0.015625)"/>
      <path id="DejaVuSans-52" d="M 2841 2188 
Q 3044 2119 3236 1894 
Q 3428 1669 3622 1275 
L 4263 0 
L 3584 0 
L 2988 1197 
Q 2756 1666 2539 1819 
Q 2322 1972 1947 1972 
L 1259 1972 
L 1259 0 
L 628 0 
L 628 4666 
L 2053 4666 
Q 2853 4666 3247 4331 
Q 3641 3997 3641 3322 
Q 3641 2881 3436 2590 
Q 3231 2300 2841 2188 
z
M 1259 4147 
L 1259 2491 
L 2053 2491 
Q 2509 2491 2742 2702 
Q 2975 2913 2975 3322 
Q 2975 3731 2742 3939 
Q 2509 4147 2053 4147 
L 1259 4147 
z
" transform="scale(0.015625)"/>
     </defs>
     <use xlink:href="#DejaVuSans-4d"/>
     <use xlink:href="#DejaVuSans-65" x="86.279297"/>
     <use xlink:href="#DejaVuSans-61" x="147.802734"/>
     <use xlink:href="#DejaVuSans-6e" x="209.082031"/>
     <use xlink:href="#DejaVuSans-20" x="272.460938"/>
     <use xlink:href="#DejaVuSans-53" x="304.248047"/>
     <use xlink:href="#DejaVuSans-71" x="367.724609"/>
     <use xlink:href="#DejaVuSans-75" x="431.201172"/>
     <use xlink:href="#DejaVuSans-61" x="494.580078"/>
     <use xlink:href="#DejaVuSans-72" x="555.859375"/>
     <use xlink:href="#DejaVuSans-65" x="594.722656"/>
     <use xlink:href="#DejaVuSans-20" x="656.246094"/>
     <use xlink:href="#DejaVuSans-45" x="688.033203"/>
     <use xlink:href="#DejaVuSans-72" x="751.216797"/>
     <use xlink:href="#DejaVuSans-72" x="790.580078"/>
     <use xlink:href="#DejaVuSans-6f" x="829.443359"/>
     <use xlink:href="#DejaVuSans-72" x="890.625"/>
     <use xlink:href="#DejaVuSans-20" x="931.738281"/>
     <use xlink:href="#DejaVuSans-6f" x="963.525391"/>
     <use xlink:href="#DejaVuSans-66" x="1024.707031"/>
     <use xlink:href="#DejaVuSans-20" x="1059.912109"/>
     <use xlink:href="#DejaVuSans-52" x="1091.699219"/>
     <use xlink:href="#DejaVuSans-31" x="1161.181641"/>
    </g>
   </g>
   <g id="legend_1">
    <g id="patch_7">
     <path d="M 299.162188 108.1845 
L 407.72 108.1845 
Q 409.72 108.1845 409.72 106.1845 
L 409.72 48.472 
Q 409.72 46.472 407.72 46.472 
L 299.162188 46.472 
Q 297.162188 46.472 297.162188 48.472 
L 297.162188 106.1845 
Q 297.162188 108.1845 299.162188 108.1845 
z
" style="fill: #ffffff; opacity: 0.8; stroke: #cccccc; stroke-linejoin: miter"/>
    </g>
    <g id="line2d_22">
     <path d="M 301.162188 54.570438 
L 311.162188 54.570438 
L 321.162188 54.570438 
" style="fill: none; stroke: #1f77b4; stroke-linecap: square"/>
    </g>
    <g id="text_20">
     <!-- 2000 samples -->
     <g transform="translate(329.162188 58.070438) scale(0.1 -0.1)">
      <defs>
       <path id="DejaVuSans-73" d="M 2834 3397 
L 2834 2853 
Q 2591 2978 2328 3040 
Q 2066 3103 1784 3103 
Q 1356 3103 1142 2972 
Q 928 2841 928 2578 
Q 928 2378 1081 2264 
Q 1234 2150 1697 2047 
L 1894 2003 
Q 2506 1872 2764 1633 
Q 3022 1394 3022 966 
Q 3022 478 2636 193 
Q 2250 -91 1575 -91 
Q 1294 -91 989 -36 
Q 684 19 347 128 
L 347 722 
Q 666 556 975 473 
Q 1284 391 1588 391 
Q 1994 391 2212 530 
Q 2431 669 2431 922 
Q 2431 1156 2273 1281 
Q 2116 1406 1581 1522 
L 1381 1569 
Q 847 1681 609 1914 
Q 372 2147 372 2553 
Q 372 3047 722 3315 
Q 1072 3584 1716 3584 
Q 2034 3584 2315 3537 
Q 2597 3491 2834 3397 
z
" transform="scale(0.015625)"/>
       <path id="DejaVuSans-6d" d="M 3328 2828 
Q 3544 3216 3844 3400 
Q 4144 3584 4550 3584 
Q 5097 3584 5394 3201 
Q 5691 2819 5691 2113 
L 5691 0 
L 5113 0 
L 5113 2094 
Q 5113 2597 4934 2840 
Q 4756 3084 4391 3084 
Q 3944 3084 3684 2787 
Q 3425 2491 3425 1978 
L 3425 0 
L 2847 0 
L 2847 2094 
Q 2847 2600 2669 2842 
Q 2491 3084 2119 3084 
Q 1678 3084 1418 2786 
Q 1159 2488 1159 1978 
L 1159 0 
L 581 0 
L 581 3500 
L 1159 3500 
L 1159 2956 
Q 1356 3278 1631 3431 
Q 1906 3584 2284 3584 
Q 2666 3584 2933 3390 
Q 3200 3197 3328 2828 
z
" transform="scale(0.015625)"/>
       <path id="DejaVuSans-6c" d="M 603 4863 
L 1178 4863 
L 1178 0 
L 603 0 
L 603 4863 
z
" transform="scale(0.015625)"/>
      </defs>
      <use xlink:href="#DejaVuSans-32"/>
      <use xlink:href="#DejaVuSans-30" x="63.623047"/>
      <use xlink:href="#DejaVuSans-30" x="127.246094"/>
      <use xlink:href="#DejaVuSans-30" x="190.869141"/>
      <use xlink:href="#DejaVuSans-20" x="254.492188"/>
      <use xlink:href="#DejaVuSans-73" x="286.279297"/>
      <use xlink:href="#DejaVuSans-61" x="338.378906"/>
      <use xlink:href="#DejaVuSans-6d" x="399.658203"/>
      <use xlink:href="#DejaVuSans-70" x="497.070312"/>
      <use xlink:href="#DejaVuSans-6c" x="560.546875"/>
      <use xlink:href="#DejaVuSans-65" x="588.330078"/>
      <use xlink:href="#DejaVuSans-73" x="649.853516"/>
     </g>
    </g>
    <g id="line2d_23">
     <path d="M 301.162188 69.248563 
L 311.162188 69.248563 
L 321.162188 69.248563 
" style="fill: none; stroke: #ff7f0e; stroke-linecap: square"/>
    </g>
    <g id="text_21">
     <!-- 5000 samples -->
     <g transform="translate(329.162188 72.748563) scale(0.1 -0.1)">
      <use xlink:href="#DejaVuSans-35"/>
      <use xlink:href="#DejaVuSans-30" x="63.623047"/>
      <use xlink:href="#DejaVuSans-30" x="127.246094"/>
      <use xlink:href="#DejaVuSans-30" x="190.869141"/>
      <use xlink:href="#DejaVuSans-20" x="254.492188"/>
      <use xlink:href="#DejaVuSans-73" x="286.279297"/>
      <use xlink:href="#DejaVuSans-61" x="338.378906"/>
      <use xlink:href="#DejaVuSans-6d" x="399.658203"/>
      <use xlink:href="#DejaVuSans-70" x="497.070312"/>
      <use xlink:href="#DejaVuSans-6c" x="560.546875"/>
      <use xlink:href="#DejaVuSans-65" x="588.330078"/>
      <use xlink:href="#DejaVuSans-73" x="649.853516"/>
     </g>
    </g>
    <g id="line2d_24">
     <path d="M 301.162188 83.926688 
L 311.162188 83.926688 
L 321.162188 83.926688 
" style="fill: none; stroke: #2ca02c; stroke-linecap: square"/>
    </g>
    <g id="text_22">
     <!-- 8000 samples -->
     <g transform="translate(329.162188 87.426688) scale(0.1 -0.1)">
      <use xlink:href="#DejaVuSans-38"/>
      <use xlink:href="#DejaVuSans-30" x="63.623047"/>
      <use xlink:href="#DejaVuSans-30" x="127.246094"/>
      <use xlink:href="#DejaVuSans-30" x="190.869141"/>
      <use xlink:href="#DejaVuSans-20" x="254.492188"/>
      <use xlink:href="#DejaVuSans-73" x="286.279297"/>
      <use xlink:href="#DejaVuSans-61" x="338.378906"/>
      <use xlink:href="#DejaVuSans-6d" x="399.658203"/>
      <use xlink:href="#DejaVuSans-70" x="497.070312"/>
      <use xlink:href="#DejaVuSans-6c" x="560.546875"/>
      <use xlink:href="#DejaVuSans-65" x="588.330078"/>
      <use xlink:href="#DejaVuSans-73" x="649.853516"/>
     </g>
    </g>
    <g id="line2d_25">
     <path d="M 301.162188 98.604813 
L 311.162188 98.604813 
L 321.162188 98.604813 
" style="fill: none; stroke: #d62728; stroke-linecap: square"/>
    </g>
    <g id="text_23">
     <!-- 10000 samples -->
     <g transform="translate(329.162188 102.104813) scale(0.1 -0.1)">
      <use xlink:href="#DejaVuSans-31"/>
      <use xlink:href="#DejaVuSans-30" x="63.623047"/>
      <use xlink:href="#DejaVuSans-30" x="127.246094"/>
      <use xlink:href="#DejaVuSans-30" x="190.869141"/>
      <use xlink:href="#DejaVuSans-30" x="254.492188"/>
      <use xlink:href="#DejaVuSans-20" x="318.115234"/>
      <use xlink:href="#DejaVuSans-73" x="349.902344"/>
      <use xlink:href="#DejaVuSans-61" x="402.001953"/>
      <use xlink:href="#DejaVuSans-6d" x="463.28125"/>
      <use xlink:href="#DejaVuSans-70" x="560.693359"/>
      <use xlink:href="#DejaVuSans-6c" x="624.169922"/>
      <use xlink:href="#DejaVuSans-65" x="651.953125"/>
      <use xlink:href="#DejaVuSans-73" x="713.476562"/>
     </g>
    </g>
   </g>
  </g>
 </g>
 <defs>
  <clipPath id="p50ff3f3557">
   <rect x="57.6" y="41.472" width="357.12" height="266.112"/>
  </clipPath>
 </defs>
</svg>
