<?xml version="1.0" encoding="utf-8" standalone="no"?>
<!DOCTYPE svg PUBLIC "-//W3C//DTD SVG 1.1//EN"
  "http://www.w3.org/Graphics/SVG/1.1/DTD/svg11.dtd">
<svg xmlns:xlink="http://www.w3.org/1999/xlink" width="460.8pt" height="345.6pt" viewBox="0 0 460.8 345.6" xmlns="http://www.w3.org/2000/svg" version="1.1">
 <metadata>
  <rdf:RDF xmlns:dc="http://purl.org/dc/elements/1.1/" xmlns:cc="http://creativecommons.org/ns#" xmlns:rdf="http://www.w3.org/1999/02/22-rdf-syntax-ns#">
   <cc:Work>
    <dc:type rdf:resource="http://purl.org/dc/dcmitype/StillImage"/>
    <dc:date>2023-09-13T16:28:36.937042</dc:date>
    <dc:format>image/svg+xml</dc:format>
    <dc:creator>
     <cc:Agent>
      <dc:title>Matplotlib v3.7.1, https://matplotlib.org/</dc:title>
     </cc:Agent>
    </dc:creator>
   </cc:Work>
  </rdf:RDF>
 </metadata>
 <defs>
  <style type="text/css">*{stroke-linejoin: round; stroke-linecap: butt}</style>
 </defs>
 <g id="figure_1">
  <g id="patch_1">
   <path d="M 0 345.6 
L 460.8 345.6 
L 460.8 0 
L 0 0 
z
" style="fill: #ffffff"/>
  </g>
  <g id="axes_1">
   <g id="patch_2">
    <path d="M 57.6 307.584 
L 414.72 307.584 
L 414.72 41.472 
L 57.6 41.472 
z
" style="fill: #ffffff"/>
   </g>
   <g id="matplotlib.axis_1">
    <g id="xtick_1">
     <g id="line2d_1">
      <defs>
       <path id="mc78e9bef73" d="M 0 0 
L 0 3.5 
" style="stroke: #000000; stroke-width: 0.8"/>
      </defs>
      <g>
       <use xlink:href="#mc78e9bef73" x="71.653838" y="307.584" style="stroke: #000000; stroke-width: 0.8"/>
      </g>
     </g>
     <g id="text_1">
      <!-- 0 -->
      <g transform="translate(68.472588 322.182437) scale(0.1 -0.1)">
       <defs>
        <path id="DejaVuSans-30" d="M 2034 4250 
Q 1547 4250 1301 3770 
Q 1056 3291 1056 2328 
Q 1056 1369 1301 889 
Q 1547 409 2034 409 
Q 2525 409 2770 889 
Q 3016 1369 3016 2328 
Q 3016 3291 2770 3770 
Q 2525 4250 2034 4250 
z
M 2034 4750 
Q 2819 4750 3233 4129 
Q 3647 3509 3647 2328 
Q 3647 1150 3233 529 
Q 2819 -91 2034 -91 
Q 1250 -91 836 529 
Q 422 1150 422 2328 
Q 422 3509 836 4129 
Q 1250 4750 2034 4750 
z
" transform="scale(0.015625)"/>
       </defs>
       <use xlink:href="#DejaVuSans-30"/>
      </g>
     </g>
    </g>
    <g id="xtick_2">
     <g id="line2d_2">
      <g>
       <use xlink:href="#mc78e9bef73" x="115.231629" y="307.584" style="stroke: #000000; stroke-width: 0.8"/>
      </g>
     </g>
     <g id="text_2">
      <!-- 20 -->
      <g transform="translate(108.869129 322.182437) scale(0.1 -0.1)">
       <defs>
        <path id="DejaVuSans-32" d="M 1228 531 
L 3431 531 
L 3431 0 
L 469 0 
L 469 531 
Q 828 903 1448 1529 
Q 2069 2156 2228 2338 
Q 2531 2678 2651 2914 
Q 2772 3150 2772 3378 
Q 2772 3750 2511 3984 
Q 2250 4219 1831 4219 
Q 1534 4219 1204 4116 
Q 875 4013 500 3803 
L 500 4441 
Q 881 4594 1212 4672 
Q 1544 4750 1819 4750 
Q 2544 4750 2975 4387 
Q 3406 4025 3406 3419 
Q 3406 3131 3298 2873 
Q 3191 2616 2906 2266 
Q 2828 2175 2409 1742 
Q 1991 1309 1228 531 
z
" transform="scale(0.015625)"/>
       </defs>
       <use xlink:href="#DejaVuSans-32"/>
       <use xlink:href="#DejaVuSans-30" x="63.623047"/>
      </g>
     </g>
    </g>
    <g id="xtick_3">
     <g id="line2d_3">
      <g>
       <use xlink:href="#mc78e9bef73" x="158.80942" y="307.584" style="stroke: #000000; stroke-width: 0.8"/>
      </g>
     </g>
     <g id="text_3">
      <!-- 40 -->
      <g transform="translate(152.44692 322.182437) scale(0.1 -0.1)">
       <defs>
        <path id="DejaVuSans-34" d="M 2419 4116 
L 825 1625 
L 2419 1625 
L 2419 4116 
z
M 2253 4666 
L 3047 4666 
L 3047 1625 
L 3713 1625 
L 3713 1100 
L 3047 1100 
L 3047 0 
L 2419 0 
L 2419 1100 
L 313 1100 
L 313 1709 
L 2253 4666 
z
" transform="scale(0.015625)"/>
       </defs>
       <use xlink:href="#DejaVuSans-34"/>
       <use xlink:href="#DejaVuSans-30" x="63.623047"/>
      </g>
     </g>
    </g>
    <g id="xtick_4">
     <g id="line2d_4">
      <g>
       <use xlink:href="#mc78e9bef73" x="202.387212" y="307.584" style="stroke: #000000; stroke-width: 0.8"/>
      </g>
     </g>
     <g id="text_4">
      <!-- 60 -->
      <g transform="translate(196.024712 322.182437) scale(0.1 -0.1)">
       <defs>
        <path id="DejaVuSans-36" d="M 2113 2584 
Q 1688 2584 1439 2293 
Q 1191 2003 1191 1497 
Q 1191 994 1439 701 
Q 1688 409 2113 409 
Q 2538 409 2786 701 
Q 3034 994 3034 1497 
Q 3034 2003 2786 2293 
Q 2538 2584 2113 2584 
z
M 3366 4563 
L 3366 3988 
Q 3128 4100 2886 4159 
Q 2644 4219 2406 4219 
Q 1781 4219 1451 3797 
Q 1122 3375 1075 2522 
Q 1259 2794 1537 2939 
Q 1816 3084 2150 3084 
Q 2853 3084 3261 2657 
Q 3669 2231 3669 1497 
Q 3669 778 3244 343 
Q 2819 -91 2113 -91 
Q 1303 -91 875 529 
Q 447 1150 447 2328 
Q 447 3434 972 4092 
Q 1497 4750 2381 4750 
Q 2619 4750 2861 4703 
Q 3103 4656 3366 4563 
z
" transform="scale(0.015625)"/>
       </defs>
       <use xlink:href="#DejaVuSans-36"/>
       <use xlink:href="#DejaVuSans-30" x="63.623047"/>
      </g>
     </g>
    </g>
    <g id="xtick_5">
     <g id="line2d_5">
      <g>
       <use xlink:href="#mc78e9bef73" x="245.965003" y="307.584" style="stroke: #000000; stroke-width: 0.8"/>
      </g>
     </g>
     <g id="text_5">
      <!-- 80 -->
      <g transform="translate(239.602503 322.182437) scale(0.1 -0.1)">
       <defs>
        <path id="DejaVuSans-38" d="M 2034 2216 
Q 1584 2216 1326 1975 
Q 1069 1734 1069 1313 
Q 1069 891 1326 650 
Q 1584 409 2034 409 
Q 2484 409 2743 651 
Q 3003 894 3003 1313 
Q 3003 1734 2745 1975 
Q 2488 2216 2034 2216 
z
M 1403 2484 
Q 997 2584 770 2862 
Q 544 3141 544 3541 
Q 544 4100 942 4425 
Q 1341 4750 2034 4750 
Q 2731 4750 3128 4425 
Q 3525 4100 3525 3541 
Q 3525 3141 3298 2862 
Q 3072 2584 2669 2484 
Q 3125 2378 3379 2068 
Q 3634 1759 3634 1313 
Q 3634 634 3220 271 
Q 2806 -91 2034 -91 
Q 1263 -91 848 271 
Q 434 634 434 1313 
Q 434 1759 690 2068 
Q 947 2378 1403 2484 
z
M 1172 3481 
Q 1172 3119 1398 2916 
Q 1625 2713 2034 2713 
Q 2441 2713 2670 2916 
Q 2900 3119 2900 3481 
Q 2900 3844 2670 4047 
Q 2441 4250 2034 4250 
Q 1625 4250 1398 4047 
Q 1172 3844 1172 3481 
z
" transform="scale(0.015625)"/>
       </defs>
       <use xlink:href="#DejaVuSans-38"/>
       <use xlink:href="#DejaVuSans-30" x="63.623047"/>
      </g>
     </g>
    </g>
    <g id="xtick_6">
     <g id="line2d_6">
      <g>
       <use xlink:href="#mc78e9bef73" x="289.542794" y="307.584" style="stroke: #000000; stroke-width: 0.8"/>
      </g>
     </g>
     <g id="text_6">
      <!-- 100 -->
      <g transform="translate(279.999044 322.182437) scale(0.1 -0.1)">
       <defs>
        <path id="DejaVuSans-31" d="M 794 531 
L 1825 531 
L 1825 4091 
L 703 3866 
L 703 4441 
L 1819 4666 
L 2450 4666 
L 2450 531 
L 3481 531 
L 3481 0 
L 794 0 
L 794 531 
z
" transform="scale(0.015625)"/>
       </defs>
       <use xlink:href="#DejaVuSans-31"/>
       <use xlink:href="#DejaVuSans-30" x="63.623047"/>
       <use xlink:href="#DejaVuSans-30" x="127.246094"/>
      </g>
     </g>
    </g>
    <g id="xtick_7">
     <g id="line2d_7">
      <g>
       <use xlink:href="#mc78e9bef73" x="333.120586" y="307.584" style="stroke: #000000; stroke-width: 0.8"/>
      </g>
     </g>
     <g id="text_7">
      <!-- 120 -->
      <g transform="translate(323.576836 322.182437) scale(0.1 -0.1)">
       <use xlink:href="#DejaVuSans-31"/>
       <use xlink:href="#DejaVuSans-32" x="63.623047"/>
       <use xlink:href="#DejaVuSans-30" x="127.246094"/>
      </g>
     </g>
    </g>
    <g id="xtick_8">
     <g id="line2d_8">
      <g>
       <use xlink:href="#mc78e9bef73" x="376.698377" y="307.584" style="stroke: #000000; stroke-width: 0.8"/>
      </g>
     </g>
     <g id="text_8">
      <!-- 140 -->
      <g transform="translate(367.154627 322.182437) scale(0.1 -0.1)">
       <use xlink:href="#DejaVuSans-31"/>
       <use xlink:href="#DejaVuSans-34" x="63.623047"/>
       <use xlink:href="#DejaVuSans-30" x="127.246094"/>
      </g>
     </g>
    </g>
    <g id="text_9">
     <!-- epoch -->
     <g transform="translate(220.931875 335.860562) scale(0.1 -0.1)">
      <defs>
       <path id="DejaVuSans-65" d="M 3597 1894 
L 3597 1613 
L 953 1613 
Q 991 1019 1311 708 
Q 1631 397 2203 397 
Q 2534 397 2845 478 
Q 3156 559 3463 722 
L 3463 178 
Q 3153 47 2828 -22 
Q 2503 -91 2169 -91 
Q 1331 -91 842 396 
Q 353 884 353 1716 
Q 353 2575 817 3079 
Q 1281 3584 2069 3584 
Q 2775 3584 3186 3129 
Q 3597 2675 3597 1894 
z
M 3022 2063 
Q 3016 2534 2758 2815 
Q 2500 3097 2075 3097 
Q 1594 3097 1305 2825 
Q 1016 2553 972 2059 
L 3022 2063 
z
" transform="scale(0.015625)"/>
       <path id="DejaVuSans-70" d="M 1159 525 
L 1159 -1331 
L 581 -1331 
L 581 3500 
L 1159 3500 
L 1159 2969 
Q 1341 3281 1617 3432 
Q 1894 3584 2278 3584 
Q 2916 3584 3314 3078 
Q 3713 2572 3713 1747 
Q 3713 922 3314 415 
Q 2916 -91 2278 -91 
Q 1894 -91 1617 61 
Q 1341 213 1159 525 
z
M 3116 1747 
Q 3116 2381 2855 2742 
Q 2594 3103 2138 3103 
Q 1681 3103 1420 2742 
Q 1159 2381 1159 1747 
Q 1159 1113 1420 752 
Q 1681 391 2138 391 
Q 2594 391 2855 752 
Q 3116 1113 3116 1747 
z
" transform="scale(0.015625)"/>
       <path id="DejaVuSans-6f" d="M 1959 3097 
Q 1497 3097 1228 2736 
Q 959 2375 959 1747 
Q 959 1119 1226 758 
Q 1494 397 1959 397 
Q 2419 397 2687 759 
Q 2956 1122 2956 1747 
Q 2956 2369 2687 2733 
Q 2419 3097 1959 3097 
z
M 1959 3584 
Q 2709 3584 3137 3096 
Q 3566 2609 3566 1747 
Q 3566 888 3137 398 
Q 2709 -91 1959 -91 
Q 1206 -91 779 398 
Q 353 888 353 1747 
Q 353 2609 779 3096 
Q 1206 3584 1959 3584 
z
" transform="scale(0.015625)"/>
       <path id="DejaVuSans-63" d="M 3122 3366 
L 3122 2828 
Q 2878 2963 2633 3030 
Q 2388 3097 2138 3097 
Q 1578 3097 1268 2742 
Q 959 2388 959 1747 
Q 959 1106 1268 751 
Q 1578 397 2138 397 
Q 2388 397 2633 464 
Q 2878 531 3122 666 
L 3122 134 
Q 2881 22 2623 -34 
Q 2366 -91 2075 -91 
Q 1284 -91 818 406 
Q 353 903 353 1747 
Q 353 2603 823 3093 
Q 1294 3584 2113 3584 
Q 2378 3584 2631 3529 
Q 2884 3475 3122 3366 
z
" transform="scale(0.015625)"/>
       <path id="DejaVuSans-68" d="M 3513 2113 
L 3513 0 
L 2938 0 
L 2938 2094 
Q 2938 2591 2744 2837 
Q 2550 3084 2163 3084 
Q 1697 3084 1428 2787 
Q 1159 2491 1159 1978 
L 1159 0 
L 581 0 
L 581 4863 
L 1159 4863 
L 1159 2956 
Q 1366 3272 1645 3428 
Q 1925 3584 2291 3584 
Q 2894 3584 3203 3211 
Q 3513 2838 3513 2113 
z
" transform="scale(0.015625)"/>
      </defs>
      <use xlink:href="#DejaVuSans-65"/>
      <use xlink:href="#DejaVuSans-70" x="61.523438"/>
      <use xlink:href="#DejaVuSans-6f" x="125"/>
      <use xlink:href="#DejaVuSans-63" x="186.181641"/>
      <use xlink:href="#DejaVuSans-68" x="241.162109"/>
     </g>
    </g>
   </g>
   <g id="matplotlib.axis_2">
    <g id="ytick_1">
     <g id="line2d_9">
      <defs>
       <path id="m2ad82dd3d3" d="M 0 0 
L -3.5 0 
" style="stroke: #000000; stroke-width: 0.8"/>
      </defs>
      <g>
       <use xlink:href="#m2ad82dd3d3" x="57.6" y="307.584" style="stroke: #000000; stroke-width: 0.8"/>
      </g>
     </g>
     <g id="text_10">
      <!-- 0.0 -->
      <g transform="translate(34.696875 311.383219) scale(0.1 -0.1)">
       <defs>
        <path id="DejaVuSans-2e" d="M 684 794 
L 1344 794 
L 1344 0 
L 684 0 
L 684 794 
z
" transform="scale(0.015625)"/>
       </defs>
       <use xlink:href="#DejaVuSans-30"/>
       <use xlink:href="#DejaVuSans-2e" x="63.623047"/>
       <use xlink:href="#DejaVuSans-30" x="95.410156"/>
      </g>
     </g>
    </g>
    <g id="ytick_2">
     <g id="line2d_10">
      <g>
       <use xlink:href="#m2ad82dd3d3" x="57.6" y="272.40842" style="stroke: #000000; stroke-width: 0.8"/>
      </g>
     </g>
     <g id="text_11">
      <!-- 0.1 -->
      <g transform="translate(34.696875 276.207639) scale(0.1 -0.1)">
       <use xlink:href="#DejaVuSans-30"/>
       <use xlink:href="#DejaVuSans-2e" x="63.623047"/>
       <use xlink:href="#DejaVuSans-31" x="95.410156"/>
      </g>
     </g>
    </g>
    <g id="ytick_3">
     <g id="line2d_11">
      <g>
       <use xlink:href="#m2ad82dd3d3" x="57.6" y="237.232841" style="stroke: #000000; stroke-width: 0.8"/>
      </g>
     </g>
     <g id="text_12">
      <!-- 0.2 -->
      <g transform="translate(34.696875 241.03206) scale(0.1 -0.1)">
       <use xlink:href="#DejaVuSans-30"/>
       <use xlink:href="#DejaVuSans-2e" x="63.623047"/>
       <use xlink:href="#DejaVuSans-32" x="95.410156"/>
      </g>
     </g>
    </g>
    <g id="ytick_4">
     <g id="line2d_12">
      <g>
       <use xlink:href="#m2ad82dd3d3" x="57.6" y="202.057261" style="stroke: #000000; stroke-width: 0.8"/>
      </g>
     </g>
     <g id="text_13">
      <!-- 0.3 -->
      <g transform="translate(34.696875 205.85648) scale(0.1 -0.1)">
       <defs>
        <path id="DejaVuSans-33" d="M 2597 2516 
Q 3050 2419 3304 2112 
Q 3559 1806 3559 1356 
Q 3559 666 3084 287 
Q 2609 -91 1734 -91 
Q 1441 -91 1130 -33 
Q 819 25 488 141 
L 488 750 
Q 750 597 1062 519 
Q 1375 441 1716 441 
Q 2309 441 2620 675 
Q 2931 909 2931 1356 
Q 2931 1769 2642 2001 
Q 2353 2234 1838 2234 
L 1294 2234 
L 1294 2753 
L 1863 2753 
Q 2328 2753 2575 2939 
Q 2822 3125 2822 3475 
Q 2822 3834 2567 4026 
Q 2313 4219 1838 4219 
Q 1578 4219 1281 4162 
Q 984 4106 628 3988 
L 628 4550 
Q 988 4650 1302 4700 
Q 1616 4750 1894 4750 
Q 2613 4750 3031 4423 
Q 3450 4097 3450 3541 
Q 3450 3153 3228 2886 
Q 3006 2619 2597 2516 
z
" transform="scale(0.015625)"/>
       </defs>
       <use xlink:href="#DejaVuSans-30"/>
       <use xlink:href="#DejaVuSans-2e" x="63.623047"/>
       <use xlink:href="#DejaVuSans-33" x="95.410156"/>
      </g>
     </g>
    </g>
    <g id="ytick_5">
     <g id="line2d_13">
      <g>
       <use xlink:href="#m2ad82dd3d3" x="57.6" y="166.881682" style="stroke: #000000; stroke-width: 0.8"/>
      </g>
     </g>
     <g id="text_14">
      <!-- 0.4 -->
      <g transform="translate(34.696875 170.680901) scale(0.1 -0.1)">
       <use xlink:href="#DejaVuSans-30"/>
       <use xlink:href="#DejaVuSans-2e" x="63.623047"/>
       <use xlink:href="#DejaVuSans-34" x="95.410156"/>
      </g>
     </g>
    </g>
    <g id="ytick_6">
     <g id="line2d_14">
      <g>
       <use xlink:href="#m2ad82dd3d3" x="57.6" y="131.706102" style="stroke: #000000; stroke-width: 0.8"/>
      </g>
     </g>
     <g id="text_15">
      <!-- 0.5 -->
      <g transform="translate(34.696875 135.505321) scale(0.1 -0.1)">
       <defs>
        <path id="DejaVuSans-35" d="M 691 4666 
L 3169 4666 
L 3169 4134 
L 1269 4134 
L 1269 2991 
Q 1406 3038 1543 3061 
Q 1681 3084 1819 3084 
Q 2600 3084 3056 2656 
Q 3513 2228 3513 1497 
Q 3513 744 3044 326 
Q 2575 -91 1722 -91 
Q 1428 -91 1123 -41 
Q 819 9 494 109 
L 494 744 
Q 775 591 1075 516 
Q 1375 441 1709 441 
Q 2250 441 2565 725 
Q 2881 1009 2881 1497 
Q 2881 1984 2565 2268 
Q 2250 2553 1709 2553 
Q 1456 2553 1204 2497 
Q 953 2441 691 2322 
L 691 4666 
z
" transform="scale(0.015625)"/>
       </defs>
       <use xlink:href="#DejaVuSans-30"/>
       <use xlink:href="#DejaVuSans-2e" x="63.623047"/>
       <use xlink:href="#DejaVuSans-35" x="95.410156"/>
      </g>
     </g>
    </g>
    <g id="ytick_7">
     <g id="line2d_15">
      <g>
       <use xlink:href="#m2ad82dd3d3" x="57.6" y="96.530523" style="stroke: #000000; stroke-width: 0.8"/>
      </g>
     </g>
     <g id="text_16">
      <!-- 0.6 -->
      <g transform="translate(34.696875 100.329742) scale(0.1 -0.1)">
       <use xlink:href="#DejaVuSans-30"/>
       <use xlink:href="#DejaVuSans-2e" x="63.623047"/>
       <use xlink:href="#DejaVuSans-36" x="95.410156"/>
      </g>
     </g>
    </g>
    <g id="ytick_8">
     <g id="line2d_16">
      <g>
       <use xlink:href="#m2ad82dd3d3" x="57.6" y="61.354943" style="stroke: #000000; stroke-width: 0.8"/>
      </g>
     </g>
     <g id="text_17">
      <!-- 0.7 -->
      <g transform="translate(34.696875 65.154162) scale(0.1 -0.1)">
       <defs>
        <path id="DejaVuSans-37" d="M 525 4666 
L 3525 4666 
L 3525 4397 
L 1831 0 
L 1172 0 
L 2766 4134 
L 525 4134 
L 525 4666 
z
" transform="scale(0.015625)"/>
       </defs>
       <use xlink:href="#DejaVuSans-30"/>
       <use xlink:href="#DejaVuSans-2e" x="63.623047"/>
       <use xlink:href="#DejaVuSans-37" x="95.410156"/>
      </g>
     </g>
    </g>
   </g>
   <g id="line2d_17">
    <path d="M 73.832727 224.808157 
L 76.011617 218.410109 
L 78.190506 207.118046 
L 80.369396 244.259605 
L 82.548286 314.922084 
L 84.727175 142.789614 
L 86.906065 138.221678 
L 89.084954 127.818666 
L 91.263844 120.297881 
L 93.442733 122.614508 
L 95.621623 117.629097 
L 97.800513 116.880212 
L 99.979402 119.825889 
L 102.158292 108.399882 
L 104.337181 113.018318 
L 106.516071 125.169553 
L 108.69496 121.519351 
L 113.052739 109.993843 
L 115.231629 115.053189 
L 117.410519 117.358102 
L 119.589408 105.989136 
L 121.768298 101.691357 
L 123.947187 102.039616 
L 126.126077 102.961999 
L 128.304966 101.373976 
L 130.483856 102.878038 
L 132.662746 102.865027 
L 134.841635 99.394373 
L 137.020525 98.725126 
L 139.199414 96.271612 
L 141.378304 97.871366 
L 143.557193 96.705856 
L 145.736083 92.905742 
L 147.914973 95.974332 
L 150.093862 92.736347 
L 152.272752 91.819192 
L 154.451641 92.759534 
L 158.80942 92.276706 
L 160.98831 92.784051 
L 163.1672 91.234358 
L 165.346089 93.149504 
L 167.524979 91.585209 
L 169.703868 92.328758 
L 171.882758 91.448982 
L 174.061647 95.921378 
L 176.240537 89.695703 
L 178.419426 89.606044 
L 180.598316 90.805022 
L 182.777206 88.101273 
L 184.956095 88.294321 
L 187.134985 91.661196 
L 189.313874 92.372457 
L 191.492764 90.735229 
L 193.671653 89.94067 
L 195.850543 93.989686 
L 198.029433 89.278763 
L 200.208322 90.244967 
L 202.387212 89.832222 
L 204.566101 91.222806 
L 206.744991 90.353043 
L 208.92388 87.850427 
L 211.10277 89.773483 
L 213.28166 92.540067 
L 215.460549 90.467935 
L 217.639439 90.899704 
L 219.818328 90.13195 
L 221.997218 88.652462 
L 224.176107 88.159241 
L 226.354997 88.838826 
L 228.533887 91.400384 
L 230.712776 89.308586 
L 232.891666 86.109055 
L 235.070555 91.84959 
L 239.428334 90.431288 
L 241.607224 87.256597 
L 243.786113 89.489938 
L 245.965003 88.540938 
L 248.143893 88.055661 
L 250.322782 90.62182 
L 252.501672 88.456564 
L 254.680561 87.675028 
L 256.859451 87.465287 
L 259.03834 88.997582 
L 261.21723 85.970901 
L 263.39612 87.513601 
L 265.575009 87.022863 
L 267.753899 88.4757 
L 269.932788 88.037468 
L 272.111678 89.730233 
L 274.290567 86.070887 
L 276.469457 87.720962 
L 278.648347 88.305353 
L 280.827236 90.041263 
L 283.006126 85.824 
L 285.185015 89.716338 
L 287.363905 86.292166 
L 289.542794 86.117199 
L 291.721684 86.725484 
L 293.900574 87.799269 
L 296.079463 89.247457 
L 298.258353 89.384929 
L 300.437242 86.3222 
L 302.616132 88.615779 
L 304.795021 88.91906 
L 306.973911 88.16717 
L 309.1528 88.968189 
L 311.33169 89.256794 
L 313.51058 88.209261 
L 315.689469 89.870041 
L 317.868359 87.412637 
L 320.047248 89.314649 
L 322.226138 88.220987 
L 324.405027 90.053487 
L 326.583917 88.092567 
L 328.762807 88.560041 
L 330.941696 87.757431 
L 335.299475 87.863729 
L 337.478365 89.878483 
L 339.657254 88.053446 
L 341.836144 92.24576 
L 344.015034 89.436271 
L 346.193923 89.646534 
L 348.372813 92.160694 
L 350.551702 89.08777 
L 352.730592 90.231388 
L 354.909481 92.90618 
L 357.088371 89.186869 
L 359.267261 89.228851 
L 361.44615 89.023444 
L 363.62504 90.8064 
L 365.803929 89.637227 
L 367.982819 88.981064 
L 370.161708 90.985912 
L 372.340598 88.908138 
L 374.519487 90.71039 
L 376.698377 87.766811 
L 378.877267 89.79604 
L 381.056156 90.719587 
L 383.235046 88.910532 
L 385.413935 92.782348 
L 387.592825 89.335085 
L 389.771714 90.512747 
L 391.950604 90.078702 
L 394.129494 91.835625 
L 396.308383 90.410675 
L 398.487273 88.036915 
L 398.487273 88.036915 
" clip-path="url(#pb07fe44e91)" style="fill: none; stroke: #1f77b4; stroke-linecap: square"/>
   </g>
   <g id="line2d_18">
    <path d="M 73.832727 231.885144 
L 76.011617 207.221179 
L 78.190506 189.556709 
L 80.369396 193.223945 
L 82.548286 190.724364 
L 84.727175 192.821147 
L 86.906065 199.495433 
L 89.084954 189.078687 
L 91.263844 182.282156 
L 93.442733 192.607031 
L 95.621623 200.925713 
L 97.800513 206.683507 
L 99.979402 205.81083 
L 102.158292 201.136896 
L 104.337181 202.118488 
L 106.516071 198.672523 
L 108.69496 200.045785 
L 110.87385 214.59888 
L 113.052739 218.752771 
L 115.231629 209.082548 
L 117.410519 281.441011 
L 119.589408 218.366511 
L 121.768298 219.212052 
L 123.947187 192.066526 
L 126.126077 219.486477 
L 128.304966 151.30934 
L 130.483856 155.121691 
L 132.662746 180.63912 
L 134.841635 159.844139 
L 137.020525 168.411527 
L 139.199414 201.649682 
L 141.378304 150.888288 
L 143.557193 150.558451 
L 145.736083 146.451644 
L 150.093862 165.182908 
L 152.272752 178.052921 
L 154.451641 137.569391 
L 156.630531 133.148836 
L 158.80942 124.993528 
L 160.98831 136.289628 
L 163.1672 130.339047 
L 165.346089 138.106775 
L 167.524979 129.414643 
L 169.703868 128.80345 
L 171.882758 144.641621 
L 174.061647 127.324558 
L 176.240537 124.737304 
L 178.419426 127.48762 
L 180.598316 123.154813 
L 182.777206 133.659418 
L 184.956095 125.380071 
L 187.134985 124.952681 
L 189.313874 121.519464 
L 191.492764 131.639644 
L 193.671653 130.159779 
L 195.850543 124.729455 
L 198.029433 126.493851 
L 200.208322 125.292636 
L 202.387212 121.063815 
L 204.566101 121.57996 
L 206.744991 127.428247 
L 208.92388 126.127033 
L 211.10277 129.386774 
L 213.28166 131.293752 
L 215.460549 142.158029 
L 217.639439 124.067966 
L 219.818328 136.736426 
L 221.997218 126.735109 
L 224.176107 122.440777 
L 226.354997 177.232159 
L 228.533887 136.088951 
L 230.712776 135.893195 
L 232.891666 127.908574 
L 235.070555 127.17912 
L 237.249445 127.400216 
L 239.428334 127.914847 
L 241.607224 130.93779 
L 243.786113 126.080444 
L 245.965003 137.253298 
L 248.143893 146.607917 
L 250.322782 124.274898 
L 252.501672 122.47873 
L 254.680561 126.581903 
L 256.859451 136.839274 
L 259.03834 127.518653 
L 261.21723 122.130087 
L 263.39612 129.093953 
L 265.575009 142.661078 
L 267.753899 122.829434 
L 269.932788 124.93675 
L 272.111678 122.308102 
L 274.290567 129.417893 
L 276.469457 139.856851 
L 278.648347 121.392962 
L 280.827236 126.351117 
L 283.006126 141.451461 
L 285.185015 120.945343 
L 287.363905 150.284278 
L 289.542794 123.950896 
L 291.721684 131.593605 
L 293.900574 121.11056 
L 296.079463 133.913639 
L 298.258353 123.366422 
L 300.437242 131.368792 
L 302.616132 130.566413 
L 304.795021 126.675483 
L 306.973911 124.423399 
L 309.1528 121.80575 
L 311.33169 138.845671 
L 313.51058 134.224302 
L 315.689469 131.68602 
L 317.868359 125.214145 
L 320.047248 122.007094 
L 322.226138 119.226086 
L 324.405027 134.300915 
L 326.583917 132.836073 
L 328.762807 130.052884 
L 330.941696 122.733554 
L 333.120586 127.956035 
L 335.299475 122.078414 
L 337.478365 126.982452 
L 339.657254 123.102581 
L 341.836144 127.172588 
L 344.015034 130.046969 
L 348.372813 118.46693 
L 350.551702 124.785803 
L 352.730592 121.514397 
L 354.909481 124.245823 
L 357.088371 121.853439 
L 359.267261 120.749338 
L 361.44615 119.304263 
L 363.62504 121.331096 
L 365.803929 117.506971 
L 367.982819 121.139752 
L 370.161708 120.904973 
L 372.340598 125.38628 
L 374.519487 121.928749 
L 376.698377 120.705673 
L 378.877267 121.609593 
L 381.056156 125.439657 
L 383.235046 126.699139 
L 385.413935 122.174315 
L 387.592825 123.49406 
L 389.771714 123.690849 
L 391.950604 117.601276 
L 394.129494 120.401677 
L 396.308383 122.706688 
L 398.487273 126.281105 
L 398.487273 126.281105 
" clip-path="url(#pb07fe44e91)" style="fill: none; stroke: #ff7f0e; stroke-linecap: square"/>
   </g>
   <g id="line2d_19">
    <path d="M 73.832727 203.174899 
L 76.011617 204.58988 
L 78.190506 196.897624 
L 80.369396 201.12913 
L 82.548286 221.659763 
L 84.727175 239.866483 
L 86.906065 175.173793 
L 89.084954 248.560071 
L 91.263844 160.845552 
L 93.442733 147.759374 
L 95.621623 158.101295 
L 97.800513 162.213179 
L 99.979402 131.529186 
L 102.158292 133.712702 
L 104.337181 141.325889 
L 106.516071 152.990205 
L 108.69496 123.392143 
L 110.87385 124.135936 
L 115.231629 122.55703 
L 117.410519 120.695965 
L 119.589408 122.796974 
L 121.768298 116.210955 
L 123.947187 127.6019 
L 126.126077 120.921918 
L 128.304966 125.167818 
L 130.483856 116.014501 
L 132.662746 121.042246 
L 134.841635 118.773664 
L 137.020525 125.154021 
L 141.378304 112.175759 
L 143.557193 117.563656 
L 145.736083 126.284387 
L 147.914973 113.446696 
L 150.093862 116.673877 
L 152.272752 133.543074 
L 154.451641 117.521848 
L 156.630531 131.555857 
L 158.80942 113.79 
L 160.98831 114.104732 
L 163.1672 116.694757 
L 165.346089 112.636493 
L 167.524979 110.486239 
L 169.703868 107.833374 
L 171.882758 112.509854 
L 176.240537 106.938401 
L 178.419426 108.207727 
L 180.598316 109.141381 
L 182.777206 108.197415 
L 184.956095 104.303838 
L 187.134985 109.277657 
L 189.313874 106.283278 
L 191.492764 105.446968 
L 193.671653 106.563525 
L 195.850543 106.084179 
L 198.029433 110.979498 
L 200.208322 105.733748 
L 202.387212 104.255548 
L 204.566101 108.298505 
L 206.744991 104.355735 
L 208.92388 104.10423 
L 211.10277 105.944085 
L 213.28166 104.323796 
L 215.460549 104.609118 
L 217.639439 106.186893 
L 219.818328 106.395437 
L 221.997218 102.29449 
L 224.176107 105.41041 
L 226.354997 103.418781 
L 228.533887 104.018599 
L 230.712776 104.778594 
L 232.891666 102.326561 
L 235.070555 104.974136 
L 237.249445 105.164636 
L 239.428334 104.502667 
L 241.607224 105.129155 
L 243.786113 102.912743 
L 245.965003 103.373213 
L 248.143893 105.93112 
L 250.322782 105.228125 
L 252.501672 101.792251 
L 254.680561 102.293508 
L 256.859451 103.069692 
L 259.03834 103.383452 
L 261.21723 100.832348 
L 263.39612 102.12445 
L 265.575009 102.383192 
L 267.753899 102.379435 
L 269.932788 104.35562 
L 272.111678 103.717928 
L 274.290567 101.377257 
L 276.469457 105.911895 
L 278.648347 104.42453 
L 280.827236 105.323693 
L 283.006126 104.06791 
L 285.185015 103.535621 
L 287.363905 103.876502 
L 289.542794 108.630647 
L 291.721684 104.384167 
L 293.900574 108.590044 
L 296.079463 107.41395 
L 298.258353 109.41945 
L 300.437242 105.293234 
L 302.616132 104.741876 
L 304.795021 103.863327 
L 306.973911 105.543097 
L 309.1528 102.053838 
L 311.33169 102.902682 
L 313.51058 103.088828 
L 315.689469 109.131368 
L 317.868359 106.557211 
L 320.047248 106.357771 
L 322.226138 104.41669 
L 324.405027 103.127998 
L 326.583917 103.225929 
L 328.762807 108.054991 
L 330.941696 105.340355 
L 333.120586 104.258327 
L 335.299475 107.617992 
L 337.478365 104.215934 
L 339.657254 110.138785 
L 341.836144 106.220058 
L 344.015034 102.547988 
L 346.193923 105.954692 
L 348.372813 105.748162 
L 350.551702 109.594953 
L 352.730592 105.166515 
L 354.909481 104.006573 
L 357.088371 113.708084 
L 359.267261 106.165661 
L 361.44615 104.902157 
L 363.62504 104.255009 
L 365.803929 104.192583 
L 367.982819 107.133499 
L 370.161708 104.545002 
L 372.340598 108.438898 
L 374.519487 103.567392 
L 376.698377 103.601157 
L 381.056156 109.632633 
L 383.235046 110.450268 
L 385.413935 105.787382 
L 387.592825 107.422797 
L 389.771714 107.154708 
L 391.950604 105.747182 
L 394.129494 106.373583 
L 396.308383 107.893009 
L 398.487273 107.799723 
L 398.487273 107.799723 
" clip-path="url(#pb07fe44e91)" style="fill: none; stroke: #2ca02c; stroke-linecap: square"/>
   </g>
   <g id="line2d_20">
    <path d="M 73.832727 193.14691 
L 76.011617 219.271108 
L 78.190506 206.469132 
L 80.369396 208.711418 
L 84.727175 160.871932 
L 86.906065 138.245907 
L 89.084954 129.283104 
L 91.263844 123.886297 
L 93.442733 126.7145 
L 95.621623 123.843258 
L 97.800513 117.109096 
L 99.979402 120.557042 
L 102.158292 113.890039 
L 104.337181 118.668972 
L 106.516071 114.487018 
L 108.69496 114.519782 
L 110.87385 114.892112 
L 113.052739 115.043048 
L 115.231629 120.382079 
L 117.410519 109.478266 
L 119.589408 113.753273 
L 121.768298 111.137359 
L 123.947187 111.939207 
L 126.126077 113.607866 
L 128.304966 112.188885 
L 130.483856 108.929931 
L 132.662746 107.885333 
L 134.841635 104.404426 
L 137.020525 103.442081 
L 139.199414 103.972988 
L 141.378304 102.163168 
L 143.557193 103.958019 
L 145.736083 101.100832 
L 147.914973 102.197532 
L 150.093862 100.404234 
L 152.272752 102.368154 
L 154.451641 100.180616 
L 156.630531 97.188232 
L 158.80942 99.240665 
L 160.98831 101.548306 
L 163.1672 98.318821 
L 165.346089 98.675864 
L 167.524979 96.730245 
L 169.703868 97.963705 
L 171.882758 99.666094 
L 174.061647 98.026081 
L 176.240537 95.727221 
L 178.419426 99.976602 
L 180.598316 98.009882 
L 182.777206 99.708278 
L 184.956095 95.526176 
L 187.134985 97.234391 
L 189.313874 94.075505 
L 191.492764 95.840243 
L 193.671653 96.042687 
L 195.850543 94.726326 
L 198.029433 95.290174 
L 200.208322 96.497136 
L 202.387212 95.017134 
L 204.566101 95.346483 
L 206.744991 95.996017 
L 208.92388 94.567966 
L 211.10277 96.277473 
L 213.28166 95.971209 
L 215.460549 95.415274 
L 217.639439 95.587069 
L 219.818328 98.935965 
L 221.997218 95.230533 
L 224.176107 95.240845 
L 226.354997 94.651869 
L 228.533887 96.647174 
L 230.712776 100.152132 
L 232.891666 97.578524 
L 235.070555 95.608181 
L 237.249445 96.740382 
L 239.428334 95.801852 
L 241.607224 98.78365 
L 243.786113 94.213746 
L 245.965003 97.673568 
L 248.143893 97.170893 
L 250.322782 97.193465 
L 252.501672 97.342468 
L 254.680561 98.466116 
L 256.859451 95.326125 
L 259.03834 95.310066 
L 261.21723 98.997107 
L 263.39612 97.263375 
L 265.575009 95.217568 
L 267.753899 98.176447 
L 269.932788 95.867101 
L 272.111678 93.829316 
L 274.290567 92.765481 
L 276.469457 93.67359 
L 278.648347 97.794811 
L 280.827236 95.428596 
L 283.006126 97.397122 
L 285.185015 95.795182 
L 287.363905 96.628233 
L 289.542794 94.582281 
L 291.721684 95.736934 
L 293.900574 95.880368 
L 296.079463 97.500314 
L 298.258353 96.953483 
L 300.437242 99.602624 
L 302.616132 94.810669 
L 304.795021 96.285565 
L 306.973911 95.222344 
L 309.1528 97.155096 
L 311.33169 97.748157 
L 313.51058 95.329032 
L 315.689469 95.623731 
L 317.868359 98.136522 
L 320.047248 94.915626 
L 322.226138 95.330894 
L 324.405027 98.391371 
L 326.583917 96.593159 
L 328.762807 100.813308 
L 330.941696 98.016006 
L 333.120586 99.596618 
L 335.299475 95.008717 
L 337.478365 97.768544 
L 339.657254 97.772419 
L 346.193923 94.961868 
L 348.372813 96.150564 
L 350.551702 95.433919 
L 352.730592 95.96124 
L 354.909481 99.8415 
L 357.088371 97.792021 
L 359.267261 96.339557 
L 361.44615 99.660394 
L 363.62504 99.482564 
L 365.803929 97.186392 
L 367.982819 98.785736 
L 370.161708 98.852343 
L 372.340598 95.409432 
L 374.519487 96.691103 
L 376.698377 96.594035 
L 378.877267 104.964008 
L 381.056156 99.975655 
L 383.235046 97.698941 
L 385.413935 101.542221 
L 387.592825 98.553466 
L 389.771714 97.889541 
L 391.950604 96.708093 
L 394.129494 98.747828 
L 396.308383 95.930794 
L 398.487273 99.486951 
L 398.487273 99.486951 
" clip-path="url(#pb07fe44e91)" style="fill: none; stroke: #d62728; stroke-linecap: square"/>
   </g>
   <g id="patch_3">
    <path d="M 57.6 307.584 
L 57.6 41.472 
" style="fill: none; stroke: #000000; stroke-width: 0.8; stroke-linejoin: miter; stroke-linecap: square"/>
   </g>
   <g id="patch_4">
    <path d="M 414.72 307.584 
L 414.72 41.472 
" style="fill: none; stroke: #000000; stroke-width: 0.8; stroke-linejoin: miter; stroke-linecap: square"/>
   </g>
   <g id="patch_5">
    <path d="M 57.6 307.584 
L 414.72 307.584 
" style="fill: none; stroke: #000000; stroke-width: 0.8; stroke-linejoin: miter; stroke-linecap: square"/>
   </g>
   <g id="patch_6">
    <path d="M 57.6 41.472 
L 414.72 41.472 
" style="fill: none; stroke: #000000; stroke-width: 0.8; stroke-linejoin: miter; stroke-linecap: square"/>
   </g>
   <g id="text_18">
    <!-- Accuracy of R1 -->
    <g transform="translate(191.1825 35.472) scale(0.12 -0.12)">
     <defs>
      <path id="DejaVuSans-41" d="M 2188 4044 
L 1331 1722 
L 3047 1722 
L 2188 4044 
z
M 1831 4666 
L 2547 4666 
L 4325 0 
L 3669 0 
L 3244 1197 
L 1141 1197 
L 716 0 
L 50 0 
L 1831 4666 
z
" transform="scale(0.015625)"/>
      <path id="DejaVuSans-75" d="M 544 1381 
L 544 3500 
L 1119 3500 
L 1119 1403 
Q 1119 906 1312 657 
Q 1506 409 1894 409 
Q 2359 409 2629 706 
Q 2900 1003 2900 1516 
L 2900 3500 
L 3475 3500 
L 3475 0 
L 2900 0 
L 2900 538 
Q 2691 219 2414 64 
Q 2138 -91 1772 -91 
Q 1169 -91 856 284 
Q 544 659 544 1381 
z
M 1991 3584 
L 1991 3584 
z
" transform="scale(0.015625)"/>
      <path id="DejaVuSans-72" d="M 2631 2963 
Q 2534 3019 2420 3045 
Q 2306 3072 2169 3072 
Q 1681 3072 1420 2755 
Q 1159 2438 1159 1844 
L 1159 0 
L 581 0 
L 581 3500 
L 1159 3500 
L 1159 2956 
Q 1341 3275 1631 3429 
Q 1922 3584 2338 3584 
Q 2397 3584 2469 3576 
Q 2541 3569 2628 3553 
L 2631 2963 
z
" transform="scale(0.015625)"/>
      <path id="DejaVuSans-61" d="M 2194 1759 
Q 1497 1759 1228 1600 
Q 959 1441 959 1056 
Q 959 750 1161 570 
Q 1363 391 1709 391 
Q 2188 391 2477 730 
Q 2766 1069 2766 1631 
L 2766 1759 
L 2194 1759 
z
M 3341 1997 
L 3341 0 
L 2766 0 
L 2766 531 
Q 2569 213 2275 61 
Q 1981 -91 1556 -91 
Q 1019 -91 701 211 
Q 384 513 384 1019 
Q 384 1609 779 1909 
Q 1175 2209 1959 2209 
L 2766 2209 
L 2766 2266 
Q 2766 2663 2505 2880 
Q 2244 3097 1772 3097 
Q 1472 3097 1187 3025 
Q 903 2953 641 2809 
L 641 3341 
Q 956 3463 1253 3523 
Q 1550 3584 1831 3584 
Q 2591 3584 2966 3190 
Q 3341 2797 3341 1997 
z
" transform="scale(0.015625)"/>
      <path id="DejaVuSans-79" d="M 2059 -325 
Q 1816 -950 1584 -1140 
Q 1353 -1331 966 -1331 
L 506 -1331 
L 506 -850 
L 844 -850 
Q 1081 -850 1212 -737 
Q 1344 -625 1503 -206 
L 1606 56 
L 191 3500 
L 800 3500 
L 1894 763 
L 2988 3500 
L 3597 3500 
L 2059 -325 
z
" transform="scale(0.015625)"/>
      <path id="DejaVuSans-20" transform="scale(0.015625)"/>
      <path id="DejaVuSans-66" d="M 2375 4863 
L 2375 4384 
L 1825 4384 
Q 1516 4384 1395 4259 
Q 1275 4134 1275 3809 
L 1275 3500 
L 2222 3500 
L 2222 3053 
L 1275 3053 
L 1275 0 
L 697 0 
L 697 3053 
L 147 3053 
L 147 3500 
L 697 3500 
L 697 3744 
Q 697 4328 969 4595 
Q 1241 4863 1831 4863 
L 2375 4863 
z
" transform="scale(0.015625)"/>
      <path id="DejaVuSans-52" d="M 2841 2188 
Q 3044 2119 3236 1894 
Q 3428 1669 3622 1275 
L 4263 0 
L 3584 0 
L 2988 1197 
Q 2756 1666 2539 1819 
Q 2322 1972 1947 1972 
L 1259 1972 
L 1259 0 
L 628 0 
L 628 4666 
L 2053 4666 
Q 2853 4666 3247 4331 
Q 3641 3997 3641 3322 
Q 3641 2881 3436 2590 
Q 3231 2300 2841 2188 
z
M 1259 4147 
L 1259 2491 
L 2053 2491 
Q 2509 2491 2742 2702 
Q 2975 2913 2975 3322 
Q 2975 3731 2742 3939 
Q 2509 4147 2053 4147 
L 1259 4147 
z
" transform="scale(0.015625)"/>
     </defs>
     <use xlink:href="#DejaVuSans-41"/>
     <use xlink:href="#DejaVuSans-63" x="66.658203"/>
     <use xlink:href="#DejaVuSans-63" x="121.638672"/>
     <use xlink:href="#DejaVuSans-75" x="176.619141"/>
     <use xlink:href="#DejaVuSans-72" x="239.998047"/>
     <use xlink:href="#DejaVuSans-61" x="281.111328"/>
     <use xlink:href="#DejaVuSans-63" x="342.390625"/>
     <use xlink:href="#DejaVuSans-79" x="397.371094"/>
     <use xlink:href="#DejaVuSans-20" x="456.550781"/>
     <use xlink:href="#DejaVuSans-6f" x="488.337891"/>
     <use xlink:href="#DejaVuSans-66" x="549.519531"/>
     <use xlink:href="#DejaVuSans-20" x="584.724609"/>
     <use xlink:href="#DejaVuSans-52" x="616.511719"/>
     <use xlink:href="#DejaVuSans-31" x="685.994141"/>
    </g>
   </g>
   <g id="legend_1">
    <g id="patch_7">
     <path d="M 299.162188 302.584 
L 407.72 302.584 
Q 409.72 302.584 409.72 300.584 
L 409.72 242.8715 
Q 409.72 240.8715 407.72 240.8715 
L 299.162188 240.8715 
Q 297.162188 240.8715 297.162188 242.8715 
L 297.162188 300.584 
Q 297.162188 302.584 299.162188 302.584 
z
" style="fill: #ffffff; opacity: 0.8; stroke: #cccccc; stroke-linejoin: miter"/>
    </g>
    <g id="line2d_21">
     <path d="M 301.162188 248.969937 
L 311.162188 248.969937 
L 321.162188 248.969937 
" style="fill: none; stroke: #1f77b4; stroke-linecap: square"/>
    </g>
    <g id="text_19">
     <!-- 2000 samples -->
     <g transform="translate(329.162188 252.469937) scale(0.1 -0.1)">
      <defs>
       <path id="DejaVuSans-73" d="M 2834 3397 
L 2834 2853 
Q 2591 2978 2328 3040 
Q 2066 3103 1784 3103 
Q 1356 3103 1142 2972 
Q 928 2841 928 2578 
Q 928 2378 1081 2264 
Q 1234 2150 1697 2047 
L 1894 2003 
Q 2506 1872 2764 1633 
Q 3022 1394 3022 966 
Q 3022 478 2636 193 
Q 2250 -91 1575 -91 
Q 1294 -91 989 -36 
Q 684 19 347 128 
L 347 722 
Q 666 556 975 473 
Q 1284 391 1588 391 
Q 1994 391 2212 530 
Q 2431 669 2431 922 
Q 2431 1156 2273 1281 
Q 2116 1406 1581 1522 
L 1381 1569 
Q 847 1681 609 1914 
Q 372 2147 372 2553 
Q 372 3047 722 3315 
Q 1072 3584 1716 3584 
Q 2034 3584 2315 3537 
Q 2597 3491 2834 3397 
z
" transform="scale(0.015625)"/>
       <path id="DejaVuSans-6d" d="M 3328 2828 
Q 3544 3216 3844 3400 
Q 4144 3584 4550 3584 
Q 5097 3584 5394 3201 
Q 5691 2819 5691 2113 
L 5691 0 
L 5113 0 
L 5113 2094 
Q 5113 2597 4934 2840 
Q 4756 3084 4391 3084 
Q 3944 3084 3684 2787 
Q 3425 2491 3425 1978 
L 3425 0 
L 2847 0 
L 2847 2094 
Q 2847 2600 2669 2842 
Q 2491 3084 2119 3084 
Q 1678 3084 1418 2786 
Q 1159 2488 1159 1978 
L 1159 0 
L 581 0 
L 581 3500 
L 1159 3500 
L 1159 2956 
Q 1356 3278 1631 3431 
Q 1906 3584 2284 3584 
Q 2666 3584 2933 3390 
Q 3200 3197 3328 2828 
z
" transform="scale(0.015625)"/>
       <path id="DejaVuSans-6c" d="M 603 4863 
L 1178 4863 
L 1178 0 
L 603 0 
L 603 4863 
z
" transform="scale(0.015625)"/>
      </defs>
      <use xlink:href="#DejaVuSans-32"/>
      <use xlink:href="#DejaVuSans-30" x="63.623047"/>
      <use xlink:href="#DejaVuSans-30" x="127.246094"/>
      <use xlink:href="#DejaVuSans-30" x="190.869141"/>
      <use xlink:href="#DejaVuSans-20" x="254.492188"/>
      <use xlink:href="#DejaVuSans-73" x="286.279297"/>
      <use xlink:href="#DejaVuSans-61" x="338.378906"/>
      <use xlink:href="#DejaVuSans-6d" x="399.658203"/>
      <use xlink:href="#DejaVuSans-70" x="497.070312"/>
      <use xlink:href="#DejaVuSans-6c" x="560.546875"/>
      <use xlink:href="#DejaVuSans-65" x="588.330078"/>
      <use xlink:href="#DejaVuSans-73" x="649.853516"/>
     </g>
    </g>
    <g id="line2d_22">
     <path d="M 301.162188 263.648062 
L 311.162188 263.648062 
L 321.162188 263.648062 
" style="fill: none; stroke: #ff7f0e; stroke-linecap: square"/>
    </g>
    <g id="text_20">
     <!-- 5000 samples -->
     <g transform="translate(329.162188 267.148062) scale(0.1 -0.1)">
      <use xlink:href="#DejaVuSans-35"/>
      <use xlink:href="#DejaVuSans-30" x="63.623047"/>
      <use xlink:href="#DejaVuSans-30" x="127.246094"/>
      <use xlink:href="#DejaVuSans-30" x="190.869141"/>
      <use xlink:href="#DejaVuSans-20" x="254.492188"/>
      <use xlink:href="#DejaVuSans-73" x="286.279297"/>
      <use xlink:href="#DejaVuSans-61" x="338.378906"/>
      <use xlink:href="#DejaVuSans-6d" x="399.658203"/>
      <use xlink:href="#DejaVuSans-70" x="497.070312"/>
      <use xlink:href="#DejaVuSans-6c" x="560.546875"/>
      <use xlink:href="#DejaVuSans-65" x="588.330078"/>
      <use xlink:href="#DejaVuSans-73" x="649.853516"/>
     </g>
    </g>
    <g id="line2d_23">
     <path d="M 301.162188 278.326187 
L 311.162188 278.326187 
L 321.162188 278.326187 
" style="fill: none; stroke: #2ca02c; stroke-linecap: square"/>
    </g>
    <g id="text_21">
     <!-- 8000 samples -->
     <g transform="translate(329.162188 281.826187) scale(0.1 -0.1)">
      <use xlink:href="#DejaVuSans-38"/>
      <use xlink:href="#DejaVuSans-30" x="63.623047"/>
      <use xlink:href="#DejaVuSans-30" x="127.246094"/>
      <use xlink:href="#DejaVuSans-30" x="190.869141"/>
      <use xlink:href="#DejaVuSans-20" x="254.492188"/>
      <use xlink:href="#DejaVuSans-73" x="286.279297"/>
      <use xlink:href="#DejaVuSans-61" x="338.378906"/>
      <use xlink:href="#DejaVuSans-6d" x="399.658203"/>
      <use xlink:href="#DejaVuSans-70" x="497.070312"/>
      <use xlink:href="#DejaVuSans-6c" x="560.546875"/>
      <use xlink:href="#DejaVuSans-65" x="588.330078"/>
      <use xlink:href="#DejaVuSans-73" x="649.853516"/>
     </g>
    </g>
    <g id="line2d_24">
     <path d="M 301.162188 293.004312 
L 311.162188 293.004312 
L 321.162188 293.004312 
" style="fill: none; stroke: #d62728; stroke-linecap: square"/>
    </g>
    <g id="text_22">
     <!-- 10000 samples -->
     <g transform="translate(329.162188 296.504312) scale(0.1 -0.1)">
      <use xlink:href="#DejaVuSans-31"/>
      <use xlink:href="#DejaVuSans-30" x="63.623047"/>
      <use xlink:href="#DejaVuSans-30" x="127.246094"/>
      <use xlink:href="#DejaVuSans-30" x="190.869141"/>
      <use xlink:href="#DejaVuSans-30" x="254.492188"/>
      <use xlink:href="#DejaVuSans-20" x="318.115234"/>
      <use xlink:href="#DejaVuSans-73" x="349.902344"/>
      <use xlink:href="#DejaVuSans-61" x="402.001953"/>
      <use xlink:href="#DejaVuSans-6d" x="463.28125"/>
      <use xlink:href="#DejaVuSans-70" x="560.693359"/>
      <use xlink:href="#DejaVuSans-6c" x="624.169922"/>
      <use xlink:href="#DejaVuSans-65" x="651.953125"/>
      <use xlink:href="#DejaVuSans-73" x="713.476562"/>
     </g>
    </g>
   </g>
  </g>
 </g>
 <defs>
  <clipPath id="pb07fe44e91">
   <rect x="57.6" y="41.472" width="357.12" height="266.112"/>
  </clipPath>
 </defs>
</svg>
