<?xml version="1.0" encoding="utf-8" standalone="no"?>
<!DOCTYPE svg PUBLIC "-//W3C//DTD SVG 1.1//EN"
  "http://www.w3.org/Graphics/SVG/1.1/DTD/svg11.dtd">
<svg xmlns:xlink="http://www.w3.org/1999/xlink" width="460.8pt" height="345.6pt" viewBox="0 0 460.8 345.6" xmlns="http://www.w3.org/2000/svg" version="1.1">
 <metadata>
  <rdf:RDF xmlns:dc="http://purl.org/dc/elements/1.1/" xmlns:cc="http://creativecommons.org/ns#" xmlns:rdf="http://www.w3.org/1999/02/22-rdf-syntax-ns#">
   <cc:Work>
    <dc:type rdf:resource="http://purl.org/dc/dcmitype/StillImage"/>
    <dc:date>2023-09-13T16:28:37.048877</dc:date>
    <dc:format>image/svg+xml</dc:format>
    <dc:creator>
     <cc:Agent>
      <dc:title>Matplotlib v3.7.1, https://matplotlib.org/</dc:title>
     </cc:Agent>
    </dc:creator>
   </cc:Work>
  </rdf:RDF>
 </metadata>
 <defs>
  <style type="text/css">*{stroke-linejoin: round; stroke-linecap: butt}</style>
 </defs>
 <g id="figure_1">
  <g id="patch_1">
   <path d="M 0 345.6 
L 460.8 345.6 
L 460.8 0 
L 0 0 
z
" style="fill: #ffffff"/>
  </g>
  <g id="axes_1">
   <g id="patch_2">
    <path d="M 57.6 307.584 
L 414.72 307.584 
L 414.72 41.472 
L 57.6 41.472 
z
" style="fill: #ffffff"/>
   </g>
   <g id="matplotlib.axis_1">
    <g id="xtick_1">
     <g id="line2d_1">
      <defs>
       <path id="m784ccc8e94" d="M 0 0 
L 0 3.5 
" style="stroke: #000000; stroke-width: 0.8"/>
      </defs>
      <g>
       <use xlink:href="#m784ccc8e94" x="71.653838" y="307.584" style="stroke: #000000; stroke-width: 0.8"/>
      </g>
     </g>
     <g id="text_1">
      <!-- 0 -->
      <g transform="translate(68.472588 322.182437) scale(0.1 -0.1)">
       <defs>
        <path id="DejaVuSans-30" d="M 2034 4250 
Q 1547 4250 1301 3770 
Q 1056 3291 1056 2328 
Q 1056 1369 1301 889 
Q 1547 409 2034 409 
Q 2525 409 2770 889 
Q 3016 1369 3016 2328 
Q 3016 3291 2770 3770 
Q 2525 4250 2034 4250 
z
M 2034 4750 
Q 2819 4750 3233 4129 
Q 3647 3509 3647 2328 
Q 3647 1150 3233 529 
Q 2819 -91 2034 -91 
Q 1250 -91 836 529 
Q 422 1150 422 2328 
Q 422 3509 836 4129 
Q 1250 4750 2034 4750 
z
" transform="scale(0.015625)"/>
       </defs>
       <use xlink:href="#DejaVuSans-30"/>
      </g>
     </g>
    </g>
    <g id="xtick_2">
     <g id="line2d_2">
      <g>
       <use xlink:href="#m784ccc8e94" x="115.231629" y="307.584" style="stroke: #000000; stroke-width: 0.8"/>
      </g>
     </g>
     <g id="text_2">
      <!-- 20 -->
      <g transform="translate(108.869129 322.182437) scale(0.1 -0.1)">
       <defs>
        <path id="DejaVuSans-32" d="M 1228 531 
L 3431 531 
L 3431 0 
L 469 0 
L 469 531 
Q 828 903 1448 1529 
Q 2069 2156 2228 2338 
Q 2531 2678 2651 2914 
Q 2772 3150 2772 3378 
Q 2772 3750 2511 3984 
Q 2250 4219 1831 4219 
Q 1534 4219 1204 4116 
Q 875 4013 500 3803 
L 500 4441 
Q 881 4594 1212 4672 
Q 1544 4750 1819 4750 
Q 2544 4750 2975 4387 
Q 3406 4025 3406 3419 
Q 3406 3131 3298 2873 
Q 3191 2616 2906 2266 
Q 2828 2175 2409 1742 
Q 1991 1309 1228 531 
z
" transform="scale(0.015625)"/>
       </defs>
       <use xlink:href="#DejaVuSans-32"/>
       <use xlink:href="#DejaVuSans-30" x="63.623047"/>
      </g>
     </g>
    </g>
    <g id="xtick_3">
     <g id="line2d_3">
      <g>
       <use xlink:href="#m784ccc8e94" x="158.80942" y="307.584" style="stroke: #000000; stroke-width: 0.8"/>
      </g>
     </g>
     <g id="text_3">
      <!-- 40 -->
      <g transform="translate(152.44692 322.182437) scale(0.1 -0.1)">
       <defs>
        <path id="DejaVuSans-34" d="M 2419 4116 
L 825 1625 
L 2419 1625 
L 2419 4116 
z
M 2253 4666 
L 3047 4666 
L 3047 1625 
L 3713 1625 
L 3713 1100 
L 3047 1100 
L 3047 0 
L 2419 0 
L 2419 1100 
L 313 1100 
L 313 1709 
L 2253 4666 
z
" transform="scale(0.015625)"/>
       </defs>
       <use xlink:href="#DejaVuSans-34"/>
       <use xlink:href="#DejaVuSans-30" x="63.623047"/>
      </g>
     </g>
    </g>
    <g id="xtick_4">
     <g id="line2d_4">
      <g>
       <use xlink:href="#m784ccc8e94" x="202.387212" y="307.584" style="stroke: #000000; stroke-width: 0.8"/>
      </g>
     </g>
     <g id="text_4">
      <!-- 60 -->
      <g transform="translate(196.024712 322.182437) scale(0.1 -0.1)">
       <defs>
        <path id="DejaVuSans-36" d="M 2113 2584 
Q 1688 2584 1439 2293 
Q 1191 2003 1191 1497 
Q 1191 994 1439 701 
Q 1688 409 2113 409 
Q 2538 409 2786 701 
Q 3034 994 3034 1497 
Q 3034 2003 2786 2293 
Q 2538 2584 2113 2584 
z
M 3366 4563 
L 3366 3988 
Q 3128 4100 2886 4159 
Q 2644 4219 2406 4219 
Q 1781 4219 1451 3797 
Q 1122 3375 1075 2522 
Q 1259 2794 1537 2939 
Q 1816 3084 2150 3084 
Q 2853 3084 3261 2657 
Q 3669 2231 3669 1497 
Q 3669 778 3244 343 
Q 2819 -91 2113 -91 
Q 1303 -91 875 529 
Q 447 1150 447 2328 
Q 447 3434 972 4092 
Q 1497 4750 2381 4750 
Q 2619 4750 2861 4703 
Q 3103 4656 3366 4563 
z
" transform="scale(0.015625)"/>
       </defs>
       <use xlink:href="#DejaVuSans-36"/>
       <use xlink:href="#DejaVuSans-30" x="63.623047"/>
      </g>
     </g>
    </g>
    <g id="xtick_5">
     <g id="line2d_5">
      <g>
       <use xlink:href="#m784ccc8e94" x="245.965003" y="307.584" style="stroke: #000000; stroke-width: 0.8"/>
      </g>
     </g>
     <g id="text_5">
      <!-- 80 -->
      <g transform="translate(239.602503 322.182437) scale(0.1 -0.1)">
       <defs>
        <path id="DejaVuSans-38" d="M 2034 2216 
Q 1584 2216 1326 1975 
Q 1069 1734 1069 1313 
Q 1069 891 1326 650 
Q 1584 409 2034 409 
Q 2484 409 2743 651 
Q 3003 894 3003 1313 
Q 3003 1734 2745 1975 
Q 2488 2216 2034 2216 
z
M 1403 2484 
Q 997 2584 770 2862 
Q 544 3141 544 3541 
Q 544 4100 942 4425 
Q 1341 4750 2034 4750 
Q 2731 4750 3128 4425 
Q 3525 4100 3525 3541 
Q 3525 3141 3298 2862 
Q 3072 2584 2669 2484 
Q 3125 2378 3379 2068 
Q 3634 1759 3634 1313 
Q 3634 634 3220 271 
Q 2806 -91 2034 -91 
Q 1263 -91 848 271 
Q 434 634 434 1313 
Q 434 1759 690 2068 
Q 947 2378 1403 2484 
z
M 1172 3481 
Q 1172 3119 1398 2916 
Q 1625 2713 2034 2713 
Q 2441 2713 2670 2916 
Q 2900 3119 2900 3481 
Q 2900 3844 2670 4047 
Q 2441 4250 2034 4250 
Q 1625 4250 1398 4047 
Q 1172 3844 1172 3481 
z
" transform="scale(0.015625)"/>
       </defs>
       <use xlink:href="#DejaVuSans-38"/>
       <use xlink:href="#DejaVuSans-30" x="63.623047"/>
      </g>
     </g>
    </g>
    <g id="xtick_6">
     <g id="line2d_6">
      <g>
       <use xlink:href="#m784ccc8e94" x="289.542794" y="307.584" style="stroke: #000000; stroke-width: 0.8"/>
      </g>
     </g>
     <g id="text_6">
      <!-- 100 -->
      <g transform="translate(279.999044 322.182437) scale(0.1 -0.1)">
       <defs>
        <path id="DejaVuSans-31" d="M 794 531 
L 1825 531 
L 1825 4091 
L 703 3866 
L 703 4441 
L 1819 4666 
L 2450 4666 
L 2450 531 
L 3481 531 
L 3481 0 
L 794 0 
L 794 531 
z
" transform="scale(0.015625)"/>
       </defs>
       <use xlink:href="#DejaVuSans-31"/>
       <use xlink:href="#DejaVuSans-30" x="63.623047"/>
       <use xlink:href="#DejaVuSans-30" x="127.246094"/>
      </g>
     </g>
    </g>
    <g id="xtick_7">
     <g id="line2d_7">
      <g>
       <use xlink:href="#m784ccc8e94" x="333.120586" y="307.584" style="stroke: #000000; stroke-width: 0.8"/>
      </g>
     </g>
     <g id="text_7">
      <!-- 120 -->
      <g transform="translate(323.576836 322.182437) scale(0.1 -0.1)">
       <use xlink:href="#DejaVuSans-31"/>
       <use xlink:href="#DejaVuSans-32" x="63.623047"/>
       <use xlink:href="#DejaVuSans-30" x="127.246094"/>
      </g>
     </g>
    </g>
    <g id="xtick_8">
     <g id="line2d_8">
      <g>
       <use xlink:href="#m784ccc8e94" x="376.698377" y="307.584" style="stroke: #000000; stroke-width: 0.8"/>
      </g>
     </g>
     <g id="text_8">
      <!-- 140 -->
      <g transform="translate(367.154627 322.182437) scale(0.1 -0.1)">
       <use xlink:href="#DejaVuSans-31"/>
       <use xlink:href="#DejaVuSans-34" x="63.623047"/>
       <use xlink:href="#DejaVuSans-30" x="127.246094"/>
      </g>
     </g>
    </g>
    <g id="text_9">
     <!-- epoch -->
     <g transform="translate(220.931875 335.860562) scale(0.1 -0.1)">
      <defs>
       <path id="DejaVuSans-65" d="M 3597 1894 
L 3597 1613 
L 953 1613 
Q 991 1019 1311 708 
Q 1631 397 2203 397 
Q 2534 397 2845 478 
Q 3156 559 3463 722 
L 3463 178 
Q 3153 47 2828 -22 
Q 2503 -91 2169 -91 
Q 1331 -91 842 396 
Q 353 884 353 1716 
Q 353 2575 817 3079 
Q 1281 3584 2069 3584 
Q 2775 3584 3186 3129 
Q 3597 2675 3597 1894 
z
M 3022 2063 
Q 3016 2534 2758 2815 
Q 2500 3097 2075 3097 
Q 1594 3097 1305 2825 
Q 1016 2553 972 2059 
L 3022 2063 
z
" transform="scale(0.015625)"/>
       <path id="DejaVuSans-70" d="M 1159 525 
L 1159 -1331 
L 581 -1331 
L 581 3500 
L 1159 3500 
L 1159 2969 
Q 1341 3281 1617 3432 
Q 1894 3584 2278 3584 
Q 2916 3584 3314 3078 
Q 3713 2572 3713 1747 
Q 3713 922 3314 415 
Q 2916 -91 2278 -91 
Q 1894 -91 1617 61 
Q 1341 213 1159 525 
z
M 3116 1747 
Q 3116 2381 2855 2742 
Q 2594 3103 2138 3103 
Q 1681 3103 1420 2742 
Q 1159 2381 1159 1747 
Q 1159 1113 1420 752 
Q 1681 391 2138 391 
Q 2594 391 2855 752 
Q 3116 1113 3116 1747 
z
" transform="scale(0.015625)"/>
       <path id="DejaVuSans-6f" d="M 1959 3097 
Q 1497 3097 1228 2736 
Q 959 2375 959 1747 
Q 959 1119 1226 758 
Q 1494 397 1959 397 
Q 2419 397 2687 759 
Q 2956 1122 2956 1747 
Q 2956 2369 2687 2733 
Q 2419 3097 1959 3097 
z
M 1959 3584 
Q 2709 3584 3137 3096 
Q 3566 2609 3566 1747 
Q 3566 888 3137 398 
Q 2709 -91 1959 -91 
Q 1206 -91 779 398 
Q 353 888 353 1747 
Q 353 2609 779 3096 
Q 1206 3584 1959 3584 
z
" transform="scale(0.015625)"/>
       <path id="DejaVuSans-63" d="M 3122 3366 
L 3122 2828 
Q 2878 2963 2633 3030 
Q 2388 3097 2138 3097 
Q 1578 3097 1268 2742 
Q 959 2388 959 1747 
Q 959 1106 1268 751 
Q 1578 397 2138 397 
Q 2388 397 2633 464 
Q 2878 531 3122 666 
L 3122 134 
Q 2881 22 2623 -34 
Q 2366 -91 2075 -91 
Q 1284 -91 818 406 
Q 353 903 353 1747 
Q 353 2603 823 3093 
Q 1294 3584 2113 3584 
Q 2378 3584 2631 3529 
Q 2884 3475 3122 3366 
z
" transform="scale(0.015625)"/>
       <path id="DejaVuSans-68" d="M 3513 2113 
L 3513 0 
L 2938 0 
L 2938 2094 
Q 2938 2591 2744 2837 
Q 2550 3084 2163 3084 
Q 1697 3084 1428 2787 
Q 1159 2491 1159 1978 
L 1159 0 
L 581 0 
L 581 4863 
L 1159 4863 
L 1159 2956 
Q 1366 3272 1645 3428 
Q 1925 3584 2291 3584 
Q 2894 3584 3203 3211 
Q 3513 2838 3513 2113 
z
" transform="scale(0.015625)"/>
      </defs>
      <use xlink:href="#DejaVuSans-65"/>
      <use xlink:href="#DejaVuSans-70" x="61.523438"/>
      <use xlink:href="#DejaVuSans-6f" x="125"/>
      <use xlink:href="#DejaVuSans-63" x="186.181641"/>
      <use xlink:href="#DejaVuSans-68" x="241.162109"/>
     </g>
    </g>
   </g>
   <g id="matplotlib.axis_2">
    <g id="ytick_1">
     <g id="line2d_9">
      <defs>
       <path id="m7492d53306" d="M 0 0 
L -3.5 0 
" style="stroke: #000000; stroke-width: 0.8"/>
      </defs>
      <g>
       <use xlink:href="#m7492d53306" x="57.6" y="307.584" style="stroke: #000000; stroke-width: 0.8"/>
      </g>
     </g>
     <g id="text_10">
      <!-- 0.0 -->
      <g transform="translate(34.696875 311.383219) scale(0.1 -0.1)">
       <defs>
        <path id="DejaVuSans-2e" d="M 684 794 
L 1344 794 
L 1344 0 
L 684 0 
L 684 794 
z
" transform="scale(0.015625)"/>
       </defs>
       <use xlink:href="#DejaVuSans-30"/>
       <use xlink:href="#DejaVuSans-2e" x="63.623047"/>
       <use xlink:href="#DejaVuSans-30" x="95.410156"/>
      </g>
     </g>
    </g>
    <g id="ytick_2">
     <g id="line2d_10">
      <g>
       <use xlink:href="#m7492d53306" x="57.6" y="249.35401" style="stroke: #000000; stroke-width: 0.8"/>
      </g>
     </g>
     <g id="text_11">
      <!-- 0.2 -->
      <g transform="translate(34.696875 253.153229) scale(0.1 -0.1)">
       <use xlink:href="#DejaVuSans-30"/>
       <use xlink:href="#DejaVuSans-2e" x="63.623047"/>
       <use xlink:href="#DejaVuSans-32" x="95.410156"/>
      </g>
     </g>
    </g>
    <g id="ytick_3">
     <g id="line2d_11">
      <g>
       <use xlink:href="#m7492d53306" x="57.6" y="191.12402" style="stroke: #000000; stroke-width: 0.8"/>
      </g>
     </g>
     <g id="text_12">
      <!-- 0.4 -->
      <g transform="translate(34.696875 194.923239) scale(0.1 -0.1)">
       <use xlink:href="#DejaVuSans-30"/>
       <use xlink:href="#DejaVuSans-2e" x="63.623047"/>
       <use xlink:href="#DejaVuSans-34" x="95.410156"/>
      </g>
     </g>
    </g>
    <g id="ytick_4">
     <g id="line2d_12">
      <g>
       <use xlink:href="#m7492d53306" x="57.6" y="132.89403" style="stroke: #000000; stroke-width: 0.8"/>
      </g>
     </g>
     <g id="text_13">
      <!-- 0.6 -->
      <g transform="translate(34.696875 136.693249) scale(0.1 -0.1)">
       <use xlink:href="#DejaVuSans-30"/>
       <use xlink:href="#DejaVuSans-2e" x="63.623047"/>
       <use xlink:href="#DejaVuSans-36" x="95.410156"/>
      </g>
     </g>
    </g>
    <g id="ytick_5">
     <g id="line2d_13">
      <g>
       <use xlink:href="#m7492d53306" x="57.6" y="74.66404" style="stroke: #000000; stroke-width: 0.8"/>
      </g>
     </g>
     <g id="text_14">
      <!-- 0.8 -->
      <g transform="translate(34.696875 78.463259) scale(0.1 -0.1)">
       <use xlink:href="#DejaVuSans-30"/>
       <use xlink:href="#DejaVuSans-2e" x="63.623047"/>
       <use xlink:href="#DejaVuSans-38" x="95.410156"/>
      </g>
     </g>
    </g>
   </g>
   <g id="line2d_14">
    <path d="M 73.832727 262.993355 
L 76.011617 207.970228 
L 78.190506 273.784843 
L 80.369396 284.180692 
L 82.548286 168.762031 
L 84.727175 256.874387 
L 86.906065 281.085182 
L 89.084954 286.904669 
L 91.263844 285.604724 
L 93.442733 288.197523 
L 95.621623 288.624542 
L 97.800513 288.392219 
L 99.979402 288.360743 
L 102.158292 274.560759 
L 104.337181 288.705806 
L 106.516071 286.936329 
L 108.69496 288.940669 
L 110.87385 288.860455 
L 113.052739 285.389543 
L 115.231629 289.133039 
L 117.410519 288.687576 
L 119.589408 289.296975 
L 121.768298 287.808178 
L 123.947187 289.241744 
L 126.126077 288.491707 
L 128.304966 288.657336 
L 130.483856 289.068064 
L 132.662746 287.833699 
L 134.841635 288.515883 
L 137.020525 289.531472 
L 139.199414 289.125432 
L 143.557193 289.582864 
L 145.736083 288.85326 
L 147.914973 288.735824 
L 150.093862 289.808154 
L 152.272752 289.356663 
L 154.451641 289.798098 
L 156.630531 289.727924 
L 158.80942 289.882686 
L 160.98831 288.215953 
L 163.1672 289.70547 
L 165.346089 289.027451 
L 167.524979 289.725778 
L 169.703868 289.327465 
L 171.882758 288.667308 
L 174.061647 289.885747 
L 176.240537 290.049809 
L 178.419426 288.097007 
L 180.598316 290.063428 
L 182.777206 289.460046 
L 184.956095 288.520935 
L 187.134985 289.646214 
L 191.492764 290.170863 
L 193.671653 290.003815 
L 195.850543 289.260152 
L 198.029433 289.661864 
L 200.208322 290.201636 
L 202.387212 289.450413 
L 206.744991 290.177537 
L 208.92388 288.821905 
L 211.10277 289.579996 
L 213.28166 289.629251 
L 215.460549 290.138715 
L 217.639439 289.484999 
L 219.818328 290.072051 
L 221.997218 290.179519 
L 224.176107 286.573577 
L 226.354997 289.555227 
L 228.533887 289.827147 
L 230.712776 289.942959 
L 232.891666 289.791305 
L 235.070555 289.826792 
L 237.249445 289.353102 
L 239.428334 290.051484 
L 241.607224 289.676672 
L 243.786113 287.731396 
L 245.965003 289.123186 
L 248.143893 288.090411 
L 250.322782 288.192003 
L 252.501672 289.239017 
L 254.680561 289.13023 
L 256.859451 288.792037 
L 259.03834 289.734908 
L 261.21723 290.085328 
L 263.39612 287.603957 
L 265.575009 289.844393 
L 267.753899 289.876129 
L 269.932788 288.808714 
L 272.111678 289.962504 
L 274.290567 289.107952 
L 276.469457 290.041306 
L 278.648347 289.704093 
L 280.827236 289.218041 
L 283.006126 289.49905 
L 285.185015 289.353351 
L 287.363905 290.074402 
L 289.542794 288.073465 
L 291.721684 289.917696 
L 293.900574 288.890779 
L 296.079463 289.89704 
L 298.258353 288.521685 
L 300.437242 289.332212 
L 302.616132 289.981049 
L 304.795021 288.30858 
L 306.973911 289.966191 
L 309.1528 289.672023 
L 311.33169 289.951031 
L 313.51058 289.16304 
L 315.689469 290.141256 
L 317.868359 289.260998 
L 320.047248 289.140332 
L 324.405027 289.937088 
L 326.583917 289.72186 
L 328.762807 289.862658 
L 330.941696 288.348847 
L 333.120586 290.173666 
L 335.299475 289.136399 
L 337.478365 289.771358 
L 339.657254 289.661712 
L 341.836144 290.038668 
L 344.015034 289.785021 
L 346.193923 290.013432 
L 348.372813 288.414532 
L 350.551702 290.225372 
L 352.730592 287.954037 
L 354.909481 290.257322 
L 357.088371 289.796342 
L 359.267261 289.705315 
L 361.44615 289.195806 
L 363.62504 289.290424 
L 365.803929 289.890977 
L 367.982819 289.851014 
L 370.161708 289.619592 
L 374.519487 290.248288 
L 376.698377 290.159887 
L 378.877267 289.692139 
L 381.056156 290.175862 
L 383.235046 290.008295 
L 385.413935 290.014639 
L 387.592825 289.489817 
L 389.771714 290.015074 
L 391.950604 289.604181 
L 396.308383 289.225778 
L 398.487273 289.866859 
L 398.487273 289.866859 
" clip-path="url(#pe15a7915d8)" style="fill: none; stroke: #1f77b4; stroke-linecap: square"/>
   </g>
   <g id="line2d_15">
    <path d="M 73.832727 270.33451 
L 76.011617 54.144 
L 78.190506 153.648373 
L 80.369396 275.259594 
L 82.548286 255.011668 
L 84.727175 276.631095 
L 86.906065 284.170818 
L 89.084954 275.821061 
L 91.263844 285.326923 
L 93.442733 261.62458 
L 95.621623 274.778205 
L 97.800513 261.652884 
L 99.979402 236.648936 
L 102.158292 271.025616 
L 104.337181 257.76242 
L 106.516071 277.198351 
L 108.69496 202.494235 
L 110.87385 249.73884 
L 113.052739 252.293611 
L 115.231629 137.274336 
L 117.410519 199.492385 
L 119.589408 249.071731 
L 121.768298 272.067094 
L 123.947187 227.400979 
L 126.126077 228.779355 
L 128.304966 143.229653 
L 130.483856 279.509607 
L 132.662746 282.579915 
L 134.841635 283.037919 
L 137.020525 284.6543 
L 139.199414 278.170305 
L 141.378304 279.075662 
L 143.557193 287.140465 
L 145.736083 283.689992 
L 147.914973 285.192077 
L 150.093862 287.780258 
L 152.272752 287.735344 
L 154.451641 286.944308 
L 156.630531 274.26832 
L 158.80942 280.461435 
L 160.98831 281.463974 
L 163.1672 286.01235 
L 165.346089 283.794874 
L 167.524979 287.057332 
L 169.703868 287.306889 
L 171.882758 284.074415 
L 174.061647 286.827343 
L 176.240537 286.247337 
L 178.419426 287.438796 
L 180.598316 282.963525 
L 182.777206 284.425788 
L 184.956095 286.902541 
L 187.134985 286.195427 
L 189.313874 275.673425 
L 191.492764 285.39382 
L 193.671653 278.389647 
L 195.850543 285.123297 
L 198.029433 284.129318 
L 200.208322 284.969127 
L 202.387212 287.0803 
L 204.566101 278.490033 
L 206.744991 285.558142 
L 208.92388 285.778673 
L 211.10277 285.160597 
L 213.28166 281.737185 
L 215.460549 284.081747 
L 217.639439 283.122834 
L 219.818328 284.215057 
L 221.997218 283.209321 
L 224.176107 282.550557 
L 226.354997 283.37793 
L 228.533887 283.630899 
L 230.712776 283.587224 
L 232.891666 283.034047 
L 235.070555 281.254783 
L 237.249445 286.281431 
L 239.428334 280.670784 
L 243.786113 285.751434 
L 245.965003 283.87393 
L 248.143893 282.659928 
L 250.322782 281.687275 
L 252.501672 283.613116 
L 254.680561 285.034079 
L 256.859451 285.171951 
L 259.03834 283.476424 
L 261.21723 281.404823 
L 263.39612 284.006459 
L 265.575009 280.630089 
L 267.753899 285.872389 
L 269.932788 283.314558 
L 272.111678 283.969372 
L 274.290567 282.975745 
L 276.469457 284.126965 
L 278.648347 284.195495 
L 280.827236 283.877952 
L 283.006126 285.198255 
L 285.185015 282.276277 
L 287.363905 282.343857 
L 289.542794 284.55809 
L 291.721684 279.123361 
L 293.900574 284.501334 
L 296.079463 285.551652 
L 298.258353 284.919565 
L 300.437242 278.490686 
L 302.616132 280.021418 
L 304.795021 284.256898 
L 306.973911 282.576928 
L 309.1528 286.204904 
L 311.33169 279.503212 
L 313.51058 283.851493 
L 315.689469 282.558954 
L 317.868359 283.462304 
L 320.047248 282.262695 
L 322.226138 282.254363 
L 324.405027 285.672042 
L 326.583917 285.161853 
L 328.762807 281.295877 
L 330.941696 284.461433 
L 333.120586 284.537985 
L 335.299475 283.814295 
L 337.478365 279.416171 
L 339.657254 283.477515 
L 341.836144 282.757517 
L 344.015034 277.999172 
L 346.193923 282.602964 
L 348.372813 276.187927 
L 350.551702 283.829727 
L 352.730592 280.562827 
L 354.909481 280.488006 
L 357.088371 280.796946 
L 359.267261 282.453499 
L 361.44615 283.7709 
L 363.62504 278.595779 
L 365.803929 281.150643 
L 367.982819 283.333968 
L 370.161708 283.140114 
L 372.340598 282.206774 
L 374.519487 281.855221 
L 376.698377 285.271178 
L 378.877267 283.857181 
L 381.056156 282.752619 
L 383.235046 284.162607 
L 385.413935 281.694954 
L 387.592825 280.776532 
L 389.771714 283.67326 
L 391.950604 283.541933 
L 394.129494 284.096465 
L 396.308383 282.568343 
L 398.487273 282.384613 
L 398.487273 282.384613 
" clip-path="url(#pe15a7915d8)" style="fill: none; stroke: #ff7f0e; stroke-linecap: square"/>
   </g>
   <g id="line2d_16">
    <path d="M 73.832727 269.206919 
L 76.011617 256.176062 
L 78.190506 280.603743 
L 80.369396 196.49942 
L 82.548286 183.496472 
L 84.727175 250.473821 
L 86.906065 271.923044 
L 89.084954 104.464101 
L 91.263844 86.072067 
L 93.442733 238.479871 
L 95.621623 265.206349 
L 97.800513 272.952685 
L 99.979402 249.493357 
L 102.158292 258.479227 
L 104.337181 279.322094 
L 106.516071 286.313088 
L 108.69496 288.653922 
L 110.87385 288.137366 
L 113.052739 287.13045 
L 115.231629 285.111559 
L 117.410519 280.011234 
L 119.589408 287.84599 
L 121.768298 287.364569 
L 123.947187 286.547837 
L 126.126077 246.411991 
L 128.304966 282.123966 
L 130.483856 288.219966 
L 132.662746 274.08972 
L 134.841635 288.327962 
L 137.020525 288.789319 
L 139.199414 288.354754 
L 141.378304 289.179921 
L 143.557193 286.215547 
L 145.736083 288.317359 
L 147.914973 287.539423 
L 150.093862 283.900366 
L 152.272752 268.441778 
L 154.451641 285.397892 
L 156.630531 287.912707 
L 158.80942 288.605149 
L 160.98831 285.7745 
L 163.1672 289.398623 
L 165.346089 289.004592 
L 167.524979 284.456745 
L 169.703868 288.46811 
L 171.882758 289.009983 
L 174.061647 280.487592 
L 176.240537 288.966364 
L 178.419426 287.782607 
L 180.598316 288.184397 
L 182.777206 287.596159 
L 184.956095 288.801571 
L 187.134985 289.511297 
L 189.313874 289.024349 
L 191.492764 288.032965 
L 193.671653 285.735447 
L 195.850543 284.615665 
L 198.029433 284.083198 
L 200.208322 287.317169 
L 202.387212 287.150732 
L 204.566101 286.760424 
L 206.744991 287.107202 
L 208.92388 285.53184 
L 211.10277 288.040258 
L 215.460549 288.075317 
L 217.639439 281.926411 
L 219.818328 288.646878 
L 221.997218 289.094357 
L 226.354997 285.345171 
L 228.533887 286.321616 
L 230.712776 287.136886 
L 232.891666 288.860993 
L 235.070555 288.293408 
L 237.249445 288.149933 
L 239.428334 285.099075 
L 241.607224 286.975918 
L 243.786113 286.68172 
L 245.965003 288.47857 
L 248.143893 286.204917 
L 250.322782 287.770316 
L 252.501672 285.7904 
L 254.680561 286.038637 
L 256.859451 282.590133 
L 259.03834 287.374439 
L 261.21723 286.027591 
L 263.39612 287.159557 
L 265.575009 285.350499 
L 267.753899 287.034329 
L 269.932788 286.231855 
L 272.111678 287.478055 
L 274.290567 283.654082 
L 276.469457 282.213703 
L 278.648347 286.988192 
L 280.827236 286.383409 
L 283.006126 283.326519 
L 285.185015 287.291416 
L 287.363905 285.048402 
L 289.542794 282.536654 
L 291.721684 285.473574 
L 293.900574 284.978752 
L 296.079463 285.109683 
L 298.258353 286.69923 
L 300.437242 283.581662 
L 302.616132 286.68221 
L 304.795021 284.491177 
L 306.973911 285.611993 
L 309.1528 286.453926 
L 311.33169 280.765286 
L 313.51058 288.799614 
L 315.689469 287.34779 
L 317.868359 284.903517 
L 320.047248 288.598654 
L 322.226138 287.2917 
L 324.405027 288.062174 
L 326.583917 281.536146 
L 328.762807 284.036664 
L 330.941696 286.112408 
L 333.120586 280.930187 
L 335.299475 283.572964 
L 339.657254 287.9543 
L 341.836144 288.805638 
L 344.015034 287.080154 
L 346.193923 279.640611 
L 348.372813 285.52312 
L 350.551702 285.884358 
L 352.730592 286.942586 
L 354.909481 286.375285 
L 357.088371 287.247357 
L 359.267261 286.246547 
L 361.44615 285.383688 
L 363.62504 287.157657 
L 365.803929 286.863729 
L 367.982819 288.374592 
L 370.161708 286.165426 
L 372.340598 284.241637 
L 374.519487 285.496872 
L 376.698377 280.093626 
L 378.877267 284.45507 
L 381.056156 284.911966 
L 383.235046 282.950065 
L 385.413935 284.801465 
L 387.592825 283.997741 
L 389.771714 286.462093 
L 391.950604 285.46862 
L 394.129494 283.167848 
L 398.487273 285.350984 
L 398.487273 285.350984 
" clip-path="url(#pe15a7915d8)" style="fill: none; stroke: #2ca02c; stroke-linecap: square"/>
   </g>
   <g id="line2d_17">
    <path d="M 73.832727 282.665327 
L 76.011617 184.952368 
L 78.190506 278.309752 
L 80.369396 281.694431 
L 82.548286 264.221568 
L 84.727175 286.085789 
L 86.906065 285.661897 
L 89.084954 286.772407 
L 91.263844 273.955208 
L 93.442733 281.496119 
L 95.621623 287.797978 
L 97.800513 288.058369 
L 99.979402 286.919475 
L 102.158292 288.966745 
L 104.337181 287.895034 
L 106.516071 287.44649 
L 108.69496 287.944812 
L 110.87385 281.846944 
L 113.052739 288.268598 
L 115.231629 288.556946 
L 117.410519 287.921605 
L 119.589408 288.594676 
L 121.768298 287.290414 
L 123.947187 289.249557 
L 126.126077 284.522295 
L 128.304966 289.040354 
L 130.483856 288.353917 
L 132.662746 289.504209 
L 134.841635 287.425551 
L 137.020525 289.670366 
L 139.199414 288.9958 
L 141.378304 289.486767 
L 143.557193 289.374143 
L 145.736083 289.067049 
L 147.914973 289.419348 
L 150.093862 289.058331 
L 152.272752 288.427408 
L 154.451641 289.075828 
L 156.630531 289.206663 
L 158.80942 287.530184 
L 160.98831 287.684464 
L 163.1672 289.407413 
L 165.346089 289.150957 
L 167.524979 289.156972 
L 169.703868 287.481402 
L 171.882758 288.757683 
L 174.061647 289.406525 
L 176.240537 289.288218 
L 178.419426 288.407939 
L 180.598316 289.391252 
L 182.777206 288.733817 
L 184.956095 287.712343 
L 187.134985 288.428215 
L 189.313874 289.789203 
L 191.492764 289.944931 
L 193.671653 288.171924 
L 195.850543 289.477417 
L 198.029433 287.672017 
L 200.208322 289.323977 
L 202.387212 289.22734 
L 204.566101 287.090612 
L 206.744991 289.063567 
L 208.92388 284.698788 
L 211.10277 289.22757 
L 213.28166 287.58081 
L 215.460549 287.117934 
L 217.639439 289.227399 
L 219.818328 288.97429 
L 221.997218 289.285439 
L 224.176107 287.607992 
L 226.354997 288.48042 
L 228.533887 288.185671 
L 230.712776 289.552063 
L 232.891666 288.545662 
L 235.070555 289.190947 
L 237.249445 287.614409 
L 239.428334 289.446378 
L 241.607224 289.048825 
L 243.786113 287.339215 
L 245.965003 289.472205 
L 248.143893 289.049016 
L 250.322782 289.41837 
L 252.501672 289.049927 
L 254.680561 289.719695 
L 256.859451 288.321736 
L 259.03834 288.474544 
L 261.21723 287.637264 
L 263.39612 288.203678 
L 265.575009 288.971429 
L 267.753899 287.199833 
L 269.932788 289.070151 
L 272.111678 288.202853 
L 274.290567 287.82861 
L 276.469457 288.150507 
L 278.648347 288.203027 
L 280.827236 288.444578 
L 283.006126 287.800371 
L 285.185015 288.278117 
L 287.363905 288.55471 
L 291.721684 288.666258 
L 293.900574 287.657138 
L 296.079463 288.285119 
L 298.258353 288.657597 
L 300.437242 288.288009 
L 302.616132 286.843814 
L 304.795021 288.590756 
L 306.973911 286.259055 
L 309.1528 288.101103 
L 311.33169 284.702767 
L 313.51058 288.154698 
L 315.689469 288.518592 
L 317.868359 287.683935 
L 320.047248 286.177266 
L 322.226138 288.347815 
L 324.405027 288.312437 
L 326.583917 288.51911 
L 328.762807 287.360448 
L 330.941696 288.492047 
L 333.120586 288.141171 
L 335.299475 287.620665 
L 337.478365 288.807714 
L 339.657254 289.043404 
L 341.836144 287.028177 
L 344.015034 287.632175 
L 346.193923 287.554492 
L 348.372813 287.789117 
L 350.551702 289.062077 
L 352.730592 286.614706 
L 354.909481 288.281291 
L 357.088371 288.652625 
L 359.267261 288.506802 
L 361.44615 288.97293 
L 363.62504 287.797573 
L 365.803929 288.793512 
L 367.982819 287.772223 
L 370.161708 288.15 
L 372.340598 284.444176 
L 374.519487 287.835508 
L 376.698377 288.371158 
L 378.877267 287.861591 
L 381.056156 288.38206 
L 383.235046 287.143296 
L 385.413935 289.089212 
L 387.592825 287.965797 
L 389.771714 288.816654 
L 391.950604 288.814172 
L 394.129494 287.626355 
L 396.308383 288.789098 
L 398.487273 288.24173 
L 398.487273 288.24173 
" clip-path="url(#pe15a7915d8)" style="fill: none; stroke: #d62728; stroke-linecap: square"/>
   </g>
   <g id="patch_3">
    <path d="M 57.6 307.584 
L 57.6 41.472 
" style="fill: none; stroke: #000000; stroke-width: 0.8; stroke-linejoin: miter; stroke-linecap: square"/>
   </g>
   <g id="patch_4">
    <path d="M 414.72 307.584 
L 414.72 41.472 
" style="fill: none; stroke: #000000; stroke-width: 0.8; stroke-linejoin: miter; stroke-linecap: square"/>
   </g>
   <g id="patch_5">
    <path d="M 57.6 307.584 
L 414.72 307.584 
" style="fill: none; stroke: #000000; stroke-width: 0.8; stroke-linejoin: miter; stroke-linecap: square"/>
   </g>
   <g id="patch_6">
    <path d="M 57.6 41.472 
L 414.72 41.472 
" style="fill: none; stroke: #000000; stroke-width: 0.8; stroke-linejoin: miter; stroke-linecap: square"/>
   </g>
   <g id="text_15">
    <!-- Mean Square Error of R8 -->
    <g transform="translate(162.67125 35.472) scale(0.12 -0.12)">
     <defs>
      <path id="DejaVuSans-4d" d="M 628 4666 
L 1569 4666 
L 2759 1491 
L 3956 4666 
L 4897 4666 
L 4897 0 
L 4281 0 
L 4281 4097 
L 3078 897 
L 2444 897 
L 1241 4097 
L 1241 0 
L 628 0 
L 628 4666 
z
" transform="scale(0.015625)"/>
      <path id="DejaVuSans-61" d="M 2194 1759 
Q 1497 1759 1228 1600 
Q 959 1441 959 1056 
Q 959 750 1161 570 
Q 1363 391 1709 391 
Q 2188 391 2477 730 
Q 2766 1069 2766 1631 
L 2766 1759 
L 2194 1759 
z
M 3341 1997 
L 3341 0 
L 2766 0 
L 2766 531 
Q 2569 213 2275 61 
Q 1981 -91 1556 -91 
Q 1019 -91 701 211 
Q 384 513 384 1019 
Q 384 1609 779 1909 
Q 1175 2209 1959 2209 
L 2766 2209 
L 2766 2266 
Q 2766 2663 2505 2880 
Q 2244 3097 1772 3097 
Q 1472 3097 1187 3025 
Q 903 2953 641 2809 
L 641 3341 
Q 956 3463 1253 3523 
Q 1550 3584 1831 3584 
Q 2591 3584 2966 3190 
Q 3341 2797 3341 1997 
z
" transform="scale(0.015625)"/>
      <path id="DejaVuSans-6e" d="M 3513 2113 
L 3513 0 
L 2938 0 
L 2938 2094 
Q 2938 2591 2744 2837 
Q 2550 3084 2163 3084 
Q 1697 3084 1428 2787 
Q 1159 2491 1159 1978 
L 1159 0 
L 581 0 
L 581 3500 
L 1159 3500 
L 1159 2956 
Q 1366 3272 1645 3428 
Q 1925 3584 2291 3584 
Q 2894 3584 3203 3211 
Q 3513 2838 3513 2113 
z
" transform="scale(0.015625)"/>
      <path id="DejaVuSans-20" transform="scale(0.015625)"/>
      <path id="DejaVuSans-53" d="M 3425 4513 
L 3425 3897 
Q 3066 4069 2747 4153 
Q 2428 4238 2131 4238 
Q 1616 4238 1336 4038 
Q 1056 3838 1056 3469 
Q 1056 3159 1242 3001 
Q 1428 2844 1947 2747 
L 2328 2669 
Q 3034 2534 3370 2195 
Q 3706 1856 3706 1288 
Q 3706 609 3251 259 
Q 2797 -91 1919 -91 
Q 1588 -91 1214 -16 
Q 841 59 441 206 
L 441 856 
Q 825 641 1194 531 
Q 1563 422 1919 422 
Q 2459 422 2753 634 
Q 3047 847 3047 1241 
Q 3047 1584 2836 1778 
Q 2625 1972 2144 2069 
L 1759 2144 
Q 1053 2284 737 2584 
Q 422 2884 422 3419 
Q 422 4038 858 4394 
Q 1294 4750 2059 4750 
Q 2388 4750 2728 4690 
Q 3069 4631 3425 4513 
z
" transform="scale(0.015625)"/>
      <path id="DejaVuSans-71" d="M 947 1747 
Q 947 1113 1208 752 
Q 1469 391 1925 391 
Q 2381 391 2643 752 
Q 2906 1113 2906 1747 
Q 2906 2381 2643 2742 
Q 2381 3103 1925 3103 
Q 1469 3103 1208 2742 
Q 947 2381 947 1747 
z
M 2906 525 
Q 2725 213 2448 61 
Q 2172 -91 1784 -91 
Q 1150 -91 751 415 
Q 353 922 353 1747 
Q 353 2572 751 3078 
Q 1150 3584 1784 3584 
Q 2172 3584 2448 3432 
Q 2725 3281 2906 2969 
L 2906 3500 
L 3481 3500 
L 3481 -1331 
L 2906 -1331 
L 2906 525 
z
" transform="scale(0.015625)"/>
      <path id="DejaVuSans-75" d="M 544 1381 
L 544 3500 
L 1119 3500 
L 1119 1403 
Q 1119 906 1312 657 
Q 1506 409 1894 409 
Q 2359 409 2629 706 
Q 2900 1003 2900 1516 
L 2900 3500 
L 3475 3500 
L 3475 0 
L 2900 0 
L 2900 538 
Q 2691 219 2414 64 
Q 2138 -91 1772 -91 
Q 1169 -91 856 284 
Q 544 659 544 1381 
z
M 1991 3584 
L 1991 3584 
z
" transform="scale(0.015625)"/>
      <path id="DejaVuSans-72" d="M 2631 2963 
Q 2534 3019 2420 3045 
Q 2306 3072 2169 3072 
Q 1681 3072 1420 2755 
Q 1159 2438 1159 1844 
L 1159 0 
L 581 0 
L 581 3500 
L 1159 3500 
L 1159 2956 
Q 1341 3275 1631 3429 
Q 1922 3584 2338 3584 
Q 2397 3584 2469 3576 
Q 2541 3569 2628 3553 
L 2631 2963 
z
" transform="scale(0.015625)"/>
      <path id="DejaVuSans-45" d="M 628 4666 
L 3578 4666 
L 3578 4134 
L 1259 4134 
L 1259 2753 
L 3481 2753 
L 3481 2222 
L 1259 2222 
L 1259 531 
L 3634 531 
L 3634 0 
L 628 0 
L 628 4666 
z
" transform="scale(0.015625)"/>
      <path id="DejaVuSans-66" d="M 2375 4863 
L 2375 4384 
L 1825 4384 
Q 1516 4384 1395 4259 
Q 1275 4134 1275 3809 
L 1275 3500 
L 2222 3500 
L 2222 3053 
L 1275 3053 
L 1275 0 
L 697 0 
L 697 3053 
L 147 3053 
L 147 3500 
L 697 3500 
L 697 3744 
Q 697 4328 969 4595 
Q 1241 4863 1831 4863 
L 2375 4863 
z
" transform="scale(0.015625)"/>
      <path id="DejaVuSans-52" d="M 2841 2188 
Q 3044 2119 3236 1894 
Q 3428 1669 3622 1275 
L 4263 0 
L 3584 0 
L 2988 1197 
Q 2756 1666 2539 1819 
Q 2322 1972 1947 1972 
L 1259 1972 
L 1259 0 
L 628 0 
L 628 4666 
L 2053 4666 
Q 2853 4666 3247 4331 
Q 3641 3997 3641 3322 
Q 3641 2881 3436 2590 
Q 3231 2300 2841 2188 
z
M 1259 4147 
L 1259 2491 
L 2053 2491 
Q 2509 2491 2742 2702 
Q 2975 2913 2975 3322 
Q 2975 3731 2742 3939 
Q 2509 4147 2053 4147 
L 1259 4147 
z
" transform="scale(0.015625)"/>
     </defs>
     <use xlink:href="#DejaVuSans-4d"/>
     <use xlink:href="#DejaVuSans-65" x="86.279297"/>
     <use xlink:href="#DejaVuSans-61" x="147.802734"/>
     <use xlink:href="#DejaVuSans-6e" x="209.082031"/>
     <use xlink:href="#DejaVuSans-20" x="272.460938"/>
     <use xlink:href="#DejaVuSans-53" x="304.248047"/>
     <use xlink:href="#DejaVuSans-71" x="367.724609"/>
     <use xlink:href="#DejaVuSans-75" x="431.201172"/>
     <use xlink:href="#DejaVuSans-61" x="494.580078"/>
     <use xlink:href="#DejaVuSans-72" x="555.859375"/>
     <use xlink:href="#DejaVuSans-65" x="594.722656"/>
     <use xlink:href="#DejaVuSans-20" x="656.246094"/>
     <use xlink:href="#DejaVuSans-45" x="688.033203"/>
     <use xlink:href="#DejaVuSans-72" x="751.216797"/>
     <use xlink:href="#DejaVuSans-72" x="790.580078"/>
     <use xlink:href="#DejaVuSans-6f" x="829.443359"/>
     <use xlink:href="#DejaVuSans-72" x="890.625"/>
     <use xlink:href="#DejaVuSans-20" x="931.738281"/>
     <use xlink:href="#DejaVuSans-6f" x="963.525391"/>
     <use xlink:href="#DejaVuSans-66" x="1024.707031"/>
     <use xlink:href="#DejaVuSans-20" x="1059.912109"/>
     <use xlink:href="#DejaVuSans-52" x="1091.699219"/>
     <use xlink:href="#DejaVuSans-38" x="1161.181641"/>
    </g>
   </g>
   <g id="legend_1">
    <g id="patch_7">
     <path d="M 299.162188 108.1845 
L 407.72 108.1845 
Q 409.72 108.1845 409.72 106.1845 
L 409.72 48.472 
Q 409.72 46.472 407.72 46.472 
L 299.162188 46.472 
Q 297.162188 46.472 297.162188 48.472 
L 297.162188 106.1845 
Q 297.162188 108.1845 299.162188 108.1845 
z
" style="fill: #ffffff; opacity: 0.8; stroke: #cccccc; stroke-linejoin: miter"/>
    </g>
    <g id="line2d_18">
     <path d="M 301.162188 54.570438 
L 311.162188 54.570438 
L 321.162188 54.570438 
" style="fill: none; stroke: #1f77b4; stroke-linecap: square"/>
    </g>
    <g id="text_16">
     <!-- 2000 samples -->
     <g transform="translate(329.162188 58.070438) scale(0.1 -0.1)">
      <defs>
       <path id="DejaVuSans-73" d="M 2834 3397 
L 2834 2853 
Q 2591 2978 2328 3040 
Q 2066 3103 1784 3103 
Q 1356 3103 1142 2972 
Q 928 2841 928 2578 
Q 928 2378 1081 2264 
Q 1234 2150 1697 2047 
L 1894 2003 
Q 2506 1872 2764 1633 
Q 3022 1394 3022 966 
Q 3022 478 2636 193 
Q 2250 -91 1575 -91 
Q 1294 -91 989 -36 
Q 684 19 347 128 
L 347 722 
Q 666 556 975 473 
Q 1284 391 1588 391 
Q 1994 391 2212 530 
Q 2431 669 2431 922 
Q 2431 1156 2273 1281 
Q 2116 1406 1581 1522 
L 1381 1569 
Q 847 1681 609 1914 
Q 372 2147 372 2553 
Q 372 3047 722 3315 
Q 1072 3584 1716 3584 
Q 2034 3584 2315 3537 
Q 2597 3491 2834 3397 
z
" transform="scale(0.015625)"/>
       <path id="DejaVuSans-6d" d="M 3328 2828 
Q 3544 3216 3844 3400 
Q 4144 3584 4550 3584 
Q 5097 3584 5394 3201 
Q 5691 2819 5691 2113 
L 5691 0 
L 5113 0 
L 5113 2094 
Q 5113 2597 4934 2840 
Q 4756 3084 4391 3084 
Q 3944 3084 3684 2787 
Q 3425 2491 3425 1978 
L 3425 0 
L 2847 0 
L 2847 2094 
Q 2847 2600 2669 2842 
Q 2491 3084 2119 3084 
Q 1678 3084 1418 2786 
Q 1159 2488 1159 1978 
L 1159 0 
L 581 0 
L 581 3500 
L 1159 3500 
L 1159 2956 
Q 1356 3278 1631 3431 
Q 1906 3584 2284 3584 
Q 2666 3584 2933 3390 
Q 3200 3197 3328 2828 
z
" transform="scale(0.015625)"/>
       <path id="DejaVuSans-6c" d="M 603 4863 
L 1178 4863 
L 1178 0 
L 603 0 
L 603 4863 
z
" transform="scale(0.015625)"/>
      </defs>
      <use xlink:href="#DejaVuSans-32"/>
      <use xlink:href="#DejaVuSans-30" x="63.623047"/>
      <use xlink:href="#DejaVuSans-30" x="127.246094"/>
      <use xlink:href="#DejaVuSans-30" x="190.869141"/>
      <use xlink:href="#DejaVuSans-20" x="254.492188"/>
      <use xlink:href="#DejaVuSans-73" x="286.279297"/>
      <use xlink:href="#DejaVuSans-61" x="338.378906"/>
      <use xlink:href="#DejaVuSans-6d" x="399.658203"/>
      <use xlink:href="#DejaVuSans-70" x="497.070312"/>
      <use xlink:href="#DejaVuSans-6c" x="560.546875"/>
      <use xlink:href="#DejaVuSans-65" x="588.330078"/>
      <use xlink:href="#DejaVuSans-73" x="649.853516"/>
     </g>
    </g>
    <g id="line2d_19">
     <path d="M 301.162188 69.248563 
L 311.162188 69.248563 
L 321.162188 69.248563 
" style="fill: none; stroke: #ff7f0e; stroke-linecap: square"/>
    </g>
    <g id="text_17">
     <!-- 5000 samples -->
     <g transform="translate(329.162188 72.748563) scale(0.1 -0.1)">
      <defs>
       <path id="DejaVuSans-35" d="M 691 4666 
L 3169 4666 
L 3169 4134 
L 1269 4134 
L 1269 2991 
Q 1406 3038 1543 3061 
Q 1681 3084 1819 3084 
Q 2600 3084 3056 2656 
Q 3513 2228 3513 1497 
Q 3513 744 3044 326 
Q 2575 -91 1722 -91 
Q 1428 -91 1123 -41 
Q 819 9 494 109 
L 494 744 
Q 775 591 1075 516 
Q 1375 441 1709 441 
Q 2250 441 2565 725 
Q 2881 1009 2881 1497 
Q 2881 1984 2565 2268 
Q 2250 2553 1709 2553 
Q 1456 2553 1204 2497 
Q 953 2441 691 2322 
L 691 4666 
z
" transform="scale(0.015625)"/>
      </defs>
      <use xlink:href="#DejaVuSans-35"/>
      <use xlink:href="#DejaVuSans-30" x="63.623047"/>
      <use xlink:href="#DejaVuSans-30" x="127.246094"/>
      <use xlink:href="#DejaVuSans-30" x="190.869141"/>
      <use xlink:href="#DejaVuSans-20" x="254.492188"/>
      <use xlink:href="#DejaVuSans-73" x="286.279297"/>
      <use xlink:href="#DejaVuSans-61" x="338.378906"/>
      <use xlink:href="#DejaVuSans-6d" x="399.658203"/>
      <use xlink:href="#DejaVuSans-70" x="497.070312"/>
      <use xlink:href="#DejaVuSans-6c" x="560.546875"/>
      <use xlink:href="#DejaVuSans-65" x="588.330078"/>
      <use xlink:href="#DejaVuSans-73" x="649.853516"/>
     </g>
    </g>
    <g id="line2d_20">
     <path d="M 301.162188 83.926688 
L 311.162188 83.926688 
L 321.162188 83.926688 
" style="fill: none; stroke: #2ca02c; stroke-linecap: square"/>
    </g>
    <g id="text_18">
     <!-- 8000 samples -->
     <g transform="translate(329.162188 87.426688) scale(0.1 -0.1)">
      <use xlink:href="#DejaVuSans-38"/>
      <use xlink:href="#DejaVuSans-30" x="63.623047"/>
      <use xlink:href="#DejaVuSans-30" x="127.246094"/>
      <use xlink:href="#DejaVuSans-30" x="190.869141"/>
      <use xlink:href="#DejaVuSans-20" x="254.492188"/>
      <use xlink:href="#DejaVuSans-73" x="286.279297"/>
      <use xlink:href="#DejaVuSans-61" x="338.378906"/>
      <use xlink:href="#DejaVuSans-6d" x="399.658203"/>
      <use xlink:href="#DejaVuSans-70" x="497.070312"/>
      <use xlink:href="#DejaVuSans-6c" x="560.546875"/>
      <use xlink:href="#DejaVuSans-65" x="588.330078"/>
      <use xlink:href="#DejaVuSans-73" x="649.853516"/>
     </g>
    </g>
    <g id="line2d_21">
     <path d="M 301.162188 98.604813 
L 311.162188 98.604813 
L 321.162188 98.604813 
" style="fill: none; stroke: #d62728; stroke-linecap: square"/>
    </g>
    <g id="text_19">
     <!-- 10000 samples -->
     <g transform="translate(329.162188 102.104813) scale(0.1 -0.1)">
      <use xlink:href="#DejaVuSans-31"/>
      <use xlink:href="#DejaVuSans-30" x="63.623047"/>
      <use xlink:href="#DejaVuSans-30" x="127.246094"/>
      <use xlink:href="#DejaVuSans-30" x="190.869141"/>
      <use xlink:href="#DejaVuSans-30" x="254.492188"/>
      <use xlink:href="#DejaVuSans-20" x="318.115234"/>
      <use xlink:href="#DejaVuSans-73" x="349.902344"/>
      <use xlink:href="#DejaVuSans-61" x="402.001953"/>
      <use xlink:href="#DejaVuSans-6d" x="463.28125"/>
      <use xlink:href="#DejaVuSans-70" x="560.693359"/>
      <use xlink:href="#DejaVuSans-6c" x="624.169922"/>
      <use xlink:href="#DejaVuSans-65" x="651.953125"/>
      <use xlink:href="#DejaVuSans-73" x="713.476562"/>
     </g>
    </g>
   </g>
  </g>
 </g>
 <defs>
  <clipPath id="pe15a7915d8">
   <rect x="57.6" y="41.472" width="357.12" height="266.112"/>
  </clipPath>
 </defs>
</svg>
