<?xml version="1.0" encoding="utf-8" standalone="no"?>
<!DOCTYPE svg PUBLIC "-//W3C//DTD SVG 1.1//EN"
  "http://www.w3.org/Graphics/SVG/1.1/DTD/svg11.dtd">
<svg xmlns:xlink="http://www.w3.org/1999/xlink" width="460.8pt" height="345.6pt" viewBox="0 0 460.8 345.6" xmlns="http://www.w3.org/2000/svg" version="1.1">
 <metadata>
  <rdf:RDF xmlns:dc="http://purl.org/dc/elements/1.1/" xmlns:cc="http://creativecommons.org/ns#" xmlns:rdf="http://www.w3.org/1999/02/22-rdf-syntax-ns#">
   <cc:Work>
    <dc:type rdf:resource="http://purl.org/dc/dcmitype/StillImage"/>
    <dc:date>2023-09-13T16:28:37.141766</dc:date>
    <dc:format>image/svg+xml</dc:format>
    <dc:creator>
     <cc:Agent>
      <dc:title>Matplotlib v3.7.1, https://matplotlib.org/</dc:title>
     </cc:Agent>
    </dc:creator>
   </cc:Work>
  </rdf:RDF>
 </metadata>
 <defs>
  <style type="text/css">*{stroke-linejoin: round; stroke-linecap: butt}</style>
 </defs>
 <g id="figure_1">
  <g id="patch_1">
   <path d="M 0 345.6 
L 460.8 345.6 
L 460.8 0 
L 0 0 
z
" style="fill: #ffffff"/>
  </g>
  <g id="axes_1">
   <g id="patch_2">
    <path d="M 57.6 307.584 
L 414.72 307.584 
L 414.72 41.472 
L 57.6 41.472 
z
" style="fill: #ffffff"/>
   </g>
   <g id="matplotlib.axis_1">
    <g id="xtick_1">
     <g id="line2d_1">
      <defs>
       <path id="md00e0284b0" d="M 0 0 
L 0 3.5 
" style="stroke: #000000; stroke-width: 0.8"/>
      </defs>
      <g>
       <use xlink:href="#md00e0284b0" x="71.653838" y="307.584" style="stroke: #000000; stroke-width: 0.8"/>
      </g>
     </g>
     <g id="text_1">
      <!-- 0 -->
      <g transform="translate(68.472588 322.182437) scale(0.1 -0.1)">
       <defs>
        <path id="DejaVuSans-30" d="M 2034 4250 
Q 1547 4250 1301 3770 
Q 1056 3291 1056 2328 
Q 1056 1369 1301 889 
Q 1547 409 2034 409 
Q 2525 409 2770 889 
Q 3016 1369 3016 2328 
Q 3016 3291 2770 3770 
Q 2525 4250 2034 4250 
z
M 2034 4750 
Q 2819 4750 3233 4129 
Q 3647 3509 3647 2328 
Q 3647 1150 3233 529 
Q 2819 -91 2034 -91 
Q 1250 -91 836 529 
Q 422 1150 422 2328 
Q 422 3509 836 4129 
Q 1250 4750 2034 4750 
z
" transform="scale(0.015625)"/>
       </defs>
       <use xlink:href="#DejaVuSans-30"/>
      </g>
     </g>
    </g>
    <g id="xtick_2">
     <g id="line2d_2">
      <g>
       <use xlink:href="#md00e0284b0" x="115.231629" y="307.584" style="stroke: #000000; stroke-width: 0.8"/>
      </g>
     </g>
     <g id="text_2">
      <!-- 20 -->
      <g transform="translate(108.869129 322.182437) scale(0.1 -0.1)">
       <defs>
        <path id="DejaVuSans-32" d="M 1228 531 
L 3431 531 
L 3431 0 
L 469 0 
L 469 531 
Q 828 903 1448 1529 
Q 2069 2156 2228 2338 
Q 2531 2678 2651 2914 
Q 2772 3150 2772 3378 
Q 2772 3750 2511 3984 
Q 2250 4219 1831 4219 
Q 1534 4219 1204 4116 
Q 875 4013 500 3803 
L 500 4441 
Q 881 4594 1212 4672 
Q 1544 4750 1819 4750 
Q 2544 4750 2975 4387 
Q 3406 4025 3406 3419 
Q 3406 3131 3298 2873 
Q 3191 2616 2906 2266 
Q 2828 2175 2409 1742 
Q 1991 1309 1228 531 
z
" transform="scale(0.015625)"/>
       </defs>
       <use xlink:href="#DejaVuSans-32"/>
       <use xlink:href="#DejaVuSans-30" x="63.623047"/>
      </g>
     </g>
    </g>
    <g id="xtick_3">
     <g id="line2d_3">
      <g>
       <use xlink:href="#md00e0284b0" x="158.80942" y="307.584" style="stroke: #000000; stroke-width: 0.8"/>
      </g>
     </g>
     <g id="text_3">
      <!-- 40 -->
      <g transform="translate(152.44692 322.182437) scale(0.1 -0.1)">
       <defs>
        <path id="DejaVuSans-34" d="M 2419 4116 
L 825 1625 
L 2419 1625 
L 2419 4116 
z
M 2253 4666 
L 3047 4666 
L 3047 1625 
L 3713 1625 
L 3713 1100 
L 3047 1100 
L 3047 0 
L 2419 0 
L 2419 1100 
L 313 1100 
L 313 1709 
L 2253 4666 
z
" transform="scale(0.015625)"/>
       </defs>
       <use xlink:href="#DejaVuSans-34"/>
       <use xlink:href="#DejaVuSans-30" x="63.623047"/>
      </g>
     </g>
    </g>
    <g id="xtick_4">
     <g id="line2d_4">
      <g>
       <use xlink:href="#md00e0284b0" x="202.387212" y="307.584" style="stroke: #000000; stroke-width: 0.8"/>
      </g>
     </g>
     <g id="text_4">
      <!-- 60 -->
      <g transform="translate(196.024712 322.182437) scale(0.1 -0.1)">
       <defs>
        <path id="DejaVuSans-36" d="M 2113 2584 
Q 1688 2584 1439 2293 
Q 1191 2003 1191 1497 
Q 1191 994 1439 701 
Q 1688 409 2113 409 
Q 2538 409 2786 701 
Q 3034 994 3034 1497 
Q 3034 2003 2786 2293 
Q 2538 2584 2113 2584 
z
M 3366 4563 
L 3366 3988 
Q 3128 4100 2886 4159 
Q 2644 4219 2406 4219 
Q 1781 4219 1451 3797 
Q 1122 3375 1075 2522 
Q 1259 2794 1537 2939 
Q 1816 3084 2150 3084 
Q 2853 3084 3261 2657 
Q 3669 2231 3669 1497 
Q 3669 778 3244 343 
Q 2819 -91 2113 -91 
Q 1303 -91 875 529 
Q 447 1150 447 2328 
Q 447 3434 972 4092 
Q 1497 4750 2381 4750 
Q 2619 4750 2861 4703 
Q 3103 4656 3366 4563 
z
" transform="scale(0.015625)"/>
       </defs>
       <use xlink:href="#DejaVuSans-36"/>
       <use xlink:href="#DejaVuSans-30" x="63.623047"/>
      </g>
     </g>
    </g>
    <g id="xtick_5">
     <g id="line2d_5">
      <g>
       <use xlink:href="#md00e0284b0" x="245.965003" y="307.584" style="stroke: #000000; stroke-width: 0.8"/>
      </g>
     </g>
     <g id="text_5">
      <!-- 80 -->
      <g transform="translate(239.602503 322.182437) scale(0.1 -0.1)">
       <defs>
        <path id="DejaVuSans-38" d="M 2034 2216 
Q 1584 2216 1326 1975 
Q 1069 1734 1069 1313 
Q 1069 891 1326 650 
Q 1584 409 2034 409 
Q 2484 409 2743 651 
Q 3003 894 3003 1313 
Q 3003 1734 2745 1975 
Q 2488 2216 2034 2216 
z
M 1403 2484 
Q 997 2584 770 2862 
Q 544 3141 544 3541 
Q 544 4100 942 4425 
Q 1341 4750 2034 4750 
Q 2731 4750 3128 4425 
Q 3525 4100 3525 3541 
Q 3525 3141 3298 2862 
Q 3072 2584 2669 2484 
Q 3125 2378 3379 2068 
Q 3634 1759 3634 1313 
Q 3634 634 3220 271 
Q 2806 -91 2034 -91 
Q 1263 -91 848 271 
Q 434 634 434 1313 
Q 434 1759 690 2068 
Q 947 2378 1403 2484 
z
M 1172 3481 
Q 1172 3119 1398 2916 
Q 1625 2713 2034 2713 
Q 2441 2713 2670 2916 
Q 2900 3119 2900 3481 
Q 2900 3844 2670 4047 
Q 2441 4250 2034 4250 
Q 1625 4250 1398 4047 
Q 1172 3844 1172 3481 
z
" transform="scale(0.015625)"/>
       </defs>
       <use xlink:href="#DejaVuSans-38"/>
       <use xlink:href="#DejaVuSans-30" x="63.623047"/>
      </g>
     </g>
    </g>
    <g id="xtick_6">
     <g id="line2d_6">
      <g>
       <use xlink:href="#md00e0284b0" x="289.542794" y="307.584" style="stroke: #000000; stroke-width: 0.8"/>
      </g>
     </g>
     <g id="text_6">
      <!-- 100 -->
      <g transform="translate(279.999044 322.182437) scale(0.1 -0.1)">
       <defs>
        <path id="DejaVuSans-31" d="M 794 531 
L 1825 531 
L 1825 4091 
L 703 3866 
L 703 4441 
L 1819 4666 
L 2450 4666 
L 2450 531 
L 3481 531 
L 3481 0 
L 794 0 
L 794 531 
z
" transform="scale(0.015625)"/>
       </defs>
       <use xlink:href="#DejaVuSans-31"/>
       <use xlink:href="#DejaVuSans-30" x="63.623047"/>
       <use xlink:href="#DejaVuSans-30" x="127.246094"/>
      </g>
     </g>
    </g>
    <g id="xtick_7">
     <g id="line2d_7">
      <g>
       <use xlink:href="#md00e0284b0" x="333.120586" y="307.584" style="stroke: #000000; stroke-width: 0.8"/>
      </g>
     </g>
     <g id="text_7">
      <!-- 120 -->
      <g transform="translate(323.576836 322.182437) scale(0.1 -0.1)">
       <use xlink:href="#DejaVuSans-31"/>
       <use xlink:href="#DejaVuSans-32" x="63.623047"/>
       <use xlink:href="#DejaVuSans-30" x="127.246094"/>
      </g>
     </g>
    </g>
    <g id="xtick_8">
     <g id="line2d_8">
      <g>
       <use xlink:href="#md00e0284b0" x="376.698377" y="307.584" style="stroke: #000000; stroke-width: 0.8"/>
      </g>
     </g>
     <g id="text_8">
      <!-- 140 -->
      <g transform="translate(367.154627 322.182437) scale(0.1 -0.1)">
       <use xlink:href="#DejaVuSans-31"/>
       <use xlink:href="#DejaVuSans-34" x="63.623047"/>
       <use xlink:href="#DejaVuSans-30" x="127.246094"/>
      </g>
     </g>
    </g>
    <g id="text_9">
     <!-- epoch -->
     <g transform="translate(220.931875 335.860562) scale(0.1 -0.1)">
      <defs>
       <path id="DejaVuSans-65" d="M 3597 1894 
L 3597 1613 
L 953 1613 
Q 991 1019 1311 708 
Q 1631 397 2203 397 
Q 2534 397 2845 478 
Q 3156 559 3463 722 
L 3463 178 
Q 3153 47 2828 -22 
Q 2503 -91 2169 -91 
Q 1331 -91 842 396 
Q 353 884 353 1716 
Q 353 2575 817 3079 
Q 1281 3584 2069 3584 
Q 2775 3584 3186 3129 
Q 3597 2675 3597 1894 
z
M 3022 2063 
Q 3016 2534 2758 2815 
Q 2500 3097 2075 3097 
Q 1594 3097 1305 2825 
Q 1016 2553 972 2059 
L 3022 2063 
z
" transform="scale(0.015625)"/>
       <path id="DejaVuSans-70" d="M 1159 525 
L 1159 -1331 
L 581 -1331 
L 581 3500 
L 1159 3500 
L 1159 2969 
Q 1341 3281 1617 3432 
Q 1894 3584 2278 3584 
Q 2916 3584 3314 3078 
Q 3713 2572 3713 1747 
Q 3713 922 3314 415 
Q 2916 -91 2278 -91 
Q 1894 -91 1617 61 
Q 1341 213 1159 525 
z
M 3116 1747 
Q 3116 2381 2855 2742 
Q 2594 3103 2138 3103 
Q 1681 3103 1420 2742 
Q 1159 2381 1159 1747 
Q 1159 1113 1420 752 
Q 1681 391 2138 391 
Q 2594 391 2855 752 
Q 3116 1113 3116 1747 
z
" transform="scale(0.015625)"/>
       <path id="DejaVuSans-6f" d="M 1959 3097 
Q 1497 3097 1228 2736 
Q 959 2375 959 1747 
Q 959 1119 1226 758 
Q 1494 397 1959 397 
Q 2419 397 2687 759 
Q 2956 1122 2956 1747 
Q 2956 2369 2687 2733 
Q 2419 3097 1959 3097 
z
M 1959 3584 
Q 2709 3584 3137 3096 
Q 3566 2609 3566 1747 
Q 3566 888 3137 398 
Q 2709 -91 1959 -91 
Q 1206 -91 779 398 
Q 353 888 353 1747 
Q 353 2609 779 3096 
Q 1206 3584 1959 3584 
z
" transform="scale(0.015625)"/>
       <path id="DejaVuSans-63" d="M 3122 3366 
L 3122 2828 
Q 2878 2963 2633 3030 
Q 2388 3097 2138 3097 
Q 1578 3097 1268 2742 
Q 959 2388 959 1747 
Q 959 1106 1268 751 
Q 1578 397 2138 397 
Q 2388 397 2633 464 
Q 2878 531 3122 666 
L 3122 134 
Q 2881 22 2623 -34 
Q 2366 -91 2075 -91 
Q 1284 -91 818 406 
Q 353 903 353 1747 
Q 353 2603 823 3093 
Q 1294 3584 2113 3584 
Q 2378 3584 2631 3529 
Q 2884 3475 3122 3366 
z
" transform="scale(0.015625)"/>
       <path id="DejaVuSans-68" d="M 3513 2113 
L 3513 0 
L 2938 0 
L 2938 2094 
Q 2938 2591 2744 2837 
Q 2550 3084 2163 3084 
Q 1697 3084 1428 2787 
Q 1159 2491 1159 1978 
L 1159 0 
L 581 0 
L 581 4863 
L 1159 4863 
L 1159 2956 
Q 1366 3272 1645 3428 
Q 1925 3584 2291 3584 
Q 2894 3584 3203 3211 
Q 3513 2838 3513 2113 
z
" transform="scale(0.015625)"/>
      </defs>
      <use xlink:href="#DejaVuSans-65"/>
      <use xlink:href="#DejaVuSans-70" x="61.523438"/>
      <use xlink:href="#DejaVuSans-6f" x="125"/>
      <use xlink:href="#DejaVuSans-63" x="186.181641"/>
      <use xlink:href="#DejaVuSans-68" x="241.162109"/>
     </g>
    </g>
   </g>
   <g id="matplotlib.axis_2">
    <g id="ytick_1">
     <g id="line2d_9">
      <defs>
       <path id="m295840d6ce" d="M 0 0 
L -3.5 0 
" style="stroke: #000000; stroke-width: 0.8"/>
      </defs>
      <g>
       <use xlink:href="#m295840d6ce" x="57.6" y="307.584" style="stroke: #000000; stroke-width: 0.8"/>
      </g>
     </g>
     <g id="text_10">
      <!-- 0.0 -->
      <g transform="translate(34.696875 311.383219) scale(0.1 -0.1)">
       <defs>
        <path id="DejaVuSans-2e" d="M 684 794 
L 1344 794 
L 1344 0 
L 684 0 
L 684 794 
z
" transform="scale(0.015625)"/>
       </defs>
       <use xlink:href="#DejaVuSans-30"/>
       <use xlink:href="#DejaVuSans-2e" x="63.623047"/>
       <use xlink:href="#DejaVuSans-30" x="95.410156"/>
      </g>
     </g>
    </g>
    <g id="ytick_2">
     <g id="line2d_10">
      <g>
       <use xlink:href="#m295840d6ce" x="57.6" y="261.503208" style="stroke: #000000; stroke-width: 0.8"/>
      </g>
     </g>
     <g id="text_11">
      <!-- 0.1 -->
      <g transform="translate(34.696875 265.302427) scale(0.1 -0.1)">
       <use xlink:href="#DejaVuSans-30"/>
       <use xlink:href="#DejaVuSans-2e" x="63.623047"/>
       <use xlink:href="#DejaVuSans-31" x="95.410156"/>
      </g>
     </g>
    </g>
    <g id="ytick_3">
     <g id="line2d_11">
      <g>
       <use xlink:href="#m295840d6ce" x="57.6" y="215.422417" style="stroke: #000000; stroke-width: 0.8"/>
      </g>
     </g>
     <g id="text_12">
      <!-- 0.2 -->
      <g transform="translate(34.696875 219.221636) scale(0.1 -0.1)">
       <use xlink:href="#DejaVuSans-30"/>
       <use xlink:href="#DejaVuSans-2e" x="63.623047"/>
       <use xlink:href="#DejaVuSans-32" x="95.410156"/>
      </g>
     </g>
    </g>
    <g id="ytick_4">
     <g id="line2d_12">
      <g>
       <use xlink:href="#m295840d6ce" x="57.6" y="169.341625" style="stroke: #000000; stroke-width: 0.8"/>
      </g>
     </g>
     <g id="text_13">
      <!-- 0.3 -->
      <g transform="translate(34.696875 173.140844) scale(0.1 -0.1)">
       <defs>
        <path id="DejaVuSans-33" d="M 2597 2516 
Q 3050 2419 3304 2112 
Q 3559 1806 3559 1356 
Q 3559 666 3084 287 
Q 2609 -91 1734 -91 
Q 1441 -91 1130 -33 
Q 819 25 488 141 
L 488 750 
Q 750 597 1062 519 
Q 1375 441 1716 441 
Q 2309 441 2620 675 
Q 2931 909 2931 1356 
Q 2931 1769 2642 2001 
Q 2353 2234 1838 2234 
L 1294 2234 
L 1294 2753 
L 1863 2753 
Q 2328 2753 2575 2939 
Q 2822 3125 2822 3475 
Q 2822 3834 2567 4026 
Q 2313 4219 1838 4219 
Q 1578 4219 1281 4162 
Q 984 4106 628 3988 
L 628 4550 
Q 988 4650 1302 4700 
Q 1616 4750 1894 4750 
Q 2613 4750 3031 4423 
Q 3450 4097 3450 3541 
Q 3450 3153 3228 2886 
Q 3006 2619 2597 2516 
z
" transform="scale(0.015625)"/>
       </defs>
       <use xlink:href="#DejaVuSans-30"/>
       <use xlink:href="#DejaVuSans-2e" x="63.623047"/>
       <use xlink:href="#DejaVuSans-33" x="95.410156"/>
      </g>
     </g>
    </g>
    <g id="ytick_5">
     <g id="line2d_13">
      <g>
       <use xlink:href="#m295840d6ce" x="57.6" y="123.260834" style="stroke: #000000; stroke-width: 0.8"/>
      </g>
     </g>
     <g id="text_14">
      <!-- 0.4 -->
      <g transform="translate(34.696875 127.060053) scale(0.1 -0.1)">
       <use xlink:href="#DejaVuSans-30"/>
       <use xlink:href="#DejaVuSans-2e" x="63.623047"/>
       <use xlink:href="#DejaVuSans-34" x="95.410156"/>
      </g>
     </g>
    </g>
    <g id="ytick_6">
     <g id="line2d_14">
      <g>
       <use xlink:href="#m295840d6ce" x="57.6" y="77.180042" style="stroke: #000000; stroke-width: 0.8"/>
      </g>
     </g>
     <g id="text_15">
      <!-- 0.5 -->
      <g transform="translate(34.696875 80.979261) scale(0.1 -0.1)">
       <defs>
        <path id="DejaVuSans-35" d="M 691 4666 
L 3169 4666 
L 3169 4134 
L 1269 4134 
L 1269 2991 
Q 1406 3038 1543 3061 
Q 1681 3084 1819 3084 
Q 2600 3084 3056 2656 
Q 3513 2228 3513 1497 
Q 3513 744 3044 326 
Q 2575 -91 1722 -91 
Q 1428 -91 1123 -41 
Q 819 9 494 109 
L 494 744 
Q 775 591 1075 516 
Q 1375 441 1709 441 
Q 2250 441 2565 725 
Q 2881 1009 2881 1497 
Q 2881 1984 2565 2268 
Q 2250 2553 1709 2553 
Q 1456 2553 1204 2497 
Q 953 2441 691 2322 
L 691 4666 
z
" transform="scale(0.015625)"/>
       </defs>
       <use xlink:href="#DejaVuSans-30"/>
       <use xlink:href="#DejaVuSans-2e" x="63.623047"/>
       <use xlink:href="#DejaVuSans-35" x="95.410156"/>
      </g>
     </g>
    </g>
   </g>
   <g id="line2d_15">
    <path d="M 73.832727 215.432769 
L 76.011617 215.028136 
L 78.190506 190.76427 
L 80.369396 175.870341 
L 82.548286 162.646364 
L 84.727175 152.372121 
L 86.906065 136.248784 
L 89.084954 150.591423 
L 93.442733 136.486347 
L 95.621623 130.24613 
L 97.800513 133.542657 
L 99.979402 127.544412 
L 102.158292 135.40413 
L 104.337181 125.508114 
L 106.516071 165.835086 
L 108.69496 121.224353 
L 110.87385 124.857184 
L 113.052739 123.12027 
L 115.231629 115.818172 
L 117.410519 114.170481 
L 119.589408 113.985018 
L 121.768298 109.557945 
L 123.947187 110.388763 
L 126.126077 110.304508 
L 130.483856 109.34605 
L 132.662746 105.344435 
L 134.841635 107.148456 
L 137.020525 108.138413 
L 139.199414 100.739822 
L 141.378304 100.334701 
L 143.557193 99.594777 
L 145.736083 107.861494 
L 147.914973 101.552173 
L 150.093862 98.367883 
L 152.272752 100.698148 
L 154.451641 95.707374 
L 156.630531 99.750885 
L 158.80942 99.120297 
L 160.98831 99.932836 
L 163.1672 98.751994 
L 165.346089 97.038488 
L 167.524979 96.573921 
L 169.703868 94.935414 
L 171.882758 98.090219 
L 174.061647 97.182308 
L 176.240537 94.362814 
L 180.598316 93.323752 
L 182.777206 93.461211 
L 184.956095 92.526368 
L 187.134985 94.323862 
L 189.313874 94.653334 
L 191.492764 93.707978 
L 193.671653 93.949451 
L 195.850543 96.087394 
L 198.029433 92.349489 
L 200.208322 93.064043 
L 202.387212 95.78566 
L 204.566101 95.154637 
L 206.744991 93.334986 
L 208.92388 93.33082 
L 211.10277 91.317013 
L 213.28166 92.202757 
L 215.460549 93.532807 
L 217.639439 93.683347 
L 219.818328 89.492353 
L 221.997218 91.645355 
L 224.176107 90.926136 
L 226.354997 93.948697 
L 228.533887 90.684106 
L 230.712776 91.370442 
L 232.891666 90.277617 
L 235.070555 88.84377 
L 237.249445 91.658099 
L 239.428334 90.145484 
L 241.607224 92.543547 
L 243.786113 94.162516 
L 245.965003 94.130345 
L 248.143893 89.637029 
L 250.322782 93.857872 
L 252.501672 93.440074 
L 254.680561 92.115456 
L 256.859451 91.174802 
L 259.03834 94.660465 
L 261.21723 95.23513 
L 263.39612 88.299558 
L 265.575009 89.224786 
L 267.753899 88.349942 
L 269.932788 85.90735 
L 272.111678 91.339411 
L 274.290567 89.62386 
L 276.469457 93.537549 
L 280.827236 89.56231 
L 283.006126 87.412241 
L 285.185015 93.446195 
L 287.363905 91.739387 
L 289.542794 91.6936 
L 291.721684 88.58271 
L 293.900574 91.109015 
L 296.079463 91.371974 
L 298.258353 93.599805 
L 300.437242 94.757327 
L 302.616132 93.946245 
L 304.795021 90.782575 
L 306.973911 88.69664 
L 309.1528 92.29831 
L 311.33169 88.692333 
L 313.51058 89.025829 
L 315.689469 90.650526 
L 317.868359 90.843318 
L 320.047248 91.584302 
L 322.226138 94.760212 
L 324.405027 88.244646 
L 326.583917 92.273043 
L 328.762807 92.185603 
L 330.941696 92.596191 
L 333.120586 93.142323 
L 335.299475 93.573453 
L 337.478365 88.358812 
L 339.657254 85.824 
L 341.836144 90.413508 
L 344.015034 90.456009 
L 346.193923 88.281824 
L 348.372813 91.37089 
L 350.551702 88.338321 
L 352.730592 92.954586 
L 354.909481 88.941653 
L 357.088371 92.610704 
L 361.44615 89.972347 
L 363.62504 90.613897 
L 365.803929 90.231034 
L 367.982819 91.784451 
L 370.161708 88.744269 
L 372.340598 89.799709 
L 374.519487 90.318038 
L 376.698377 90.30329 
L 378.877267 91.435096 
L 381.056156 92.269923 
L 383.235046 89.798469 
L 385.413935 88.118597 
L 387.592825 92.317787 
L 389.771714 88.308808 
L 391.950604 93.283047 
L 394.129494 91.046069 
L 396.308383 91.295559 
L 398.487273 88.370515 
L 398.487273 88.370515 
" clip-path="url(#p1359311762)" style="fill: none; stroke: #1f77b4; stroke-linecap: square"/>
   </g>
   <g id="line2d_16">
    <path d="M 73.832727 276.279872 
L 76.011617 229.239691 
L 78.190506 246.315232 
L 80.369396 226.659427 
L 82.548286 242.395994 
L 84.727175 215.870297 
L 86.906065 215.312056 
L 89.084954 202.762721 
L 91.263844 206.268704 
L 93.442733 207.443683 
L 95.621623 205.719482 
L 97.800513 199.93409 
L 99.979402 195.133797 
L 102.158292 185.325019 
L 104.337181 186.159485 
L 106.516071 184.577683 
L 108.69496 184.81072 
L 110.87385 182.707341 
L 113.052739 174.009526 
L 115.231629 172.614829 
L 117.410519 171.605114 
L 119.589408 166.625344 
L 123.947187 158.048638 
L 126.126077 155.802759 
L 128.304966 151.789886 
L 130.483856 155.894878 
L 132.662746 159.306224 
L 134.841635 156.788079 
L 137.020525 149.146815 
L 139.199414 148.58108 
L 141.378304 150.675159 
L 143.557193 144.38944 
L 145.736083 143.793119 
L 147.914973 144.30729 
L 150.093862 146.846884 
L 152.272752 150.598713 
L 154.451641 145.48443 
L 156.630531 142.421541 
L 158.80942 144.70263 
L 160.98831 144.7558 
L 163.1672 141.214509 
L 165.346089 145.858649 
L 167.524979 143.79169 
L 169.703868 138.297005 
L 171.882758 146.178953 
L 174.061647 145.558868 
L 176.240537 145.366933 
L 178.419426 143.180525 
L 180.598316 140.730609 
L 182.777206 143.22401 
L 184.956095 145.08898 
L 187.134985 152.381186 
L 189.313874 148.259688 
L 191.492764 145.754214 
L 193.671653 151.267982 
L 195.850543 140.482729 
L 198.029433 143.917645 
L 200.208322 145.909962 
L 202.387212 138.720927 
L 204.566101 154.99395 
L 206.744991 150.28955 
L 208.92388 147.998657 
L 211.10277 146.567673 
L 213.28166 149.184118 
L 215.460549 142.799415 
L 217.639439 151.239394 
L 219.818328 160.159931 
L 221.997218 146.91568 
L 224.176107 150.580378 
L 226.354997 149.913762 
L 228.533887 151.790137 
L 230.712776 147.979917 
L 232.891666 143.525205 
L 235.070555 149.954265 
L 237.249445 155.151199 
L 239.428334 148.567798 
L 241.607224 162.353196 
L 243.786113 153.101823 
L 245.965003 149.230789 
L 248.143893 150.958402 
L 250.322782 151.635143 
L 252.501672 155.762707 
L 254.680561 154.425895 
L 256.859451 161.016825 
L 259.03834 149.419173 
L 261.21723 151.141806 
L 263.39612 148.751936 
L 265.575009 149.338033 
L 267.753899 151.282724 
L 269.932788 158.126785 
L 272.111678 154.696222 
L 274.290567 143.204059 
L 276.469457 147.727081 
L 278.648347 153.156442 
L 280.827236 150.055095 
L 283.006126 145.612934 
L 285.185015 153.922002 
L 287.363905 148.550767 
L 289.542794 148.144237 
L 291.721684 151.547947 
L 293.900574 155.605246 
L 296.079463 152.483498 
L 298.258353 154.255194 
L 300.437242 149.275399 
L 302.616132 153.31315 
L 304.795021 155.691616 
L 309.1528 147.009166 
L 311.33169 155.584314 
L 313.51058 153.778982 
L 315.689469 152.665312 
L 317.868359 150.583487 
L 320.047248 155.47304 
L 322.226138 156.49623 
L 324.405027 146.633989 
L 326.583917 142.845091 
L 328.762807 150.54872 
L 330.941696 151.193307 
L 333.120586 151.547914 
L 335.299475 147.467471 
L 337.478365 154.02727 
L 339.657254 144.659763 
L 341.836144 156.388918 
L 344.015034 154.921354 
L 346.193923 150.372768 
L 348.372813 149.704752 
L 350.551702 156.727199 
L 352.730592 159.425262 
L 354.909481 149.015726 
L 357.088371 159.226402 
L 359.267261 151.510943 
L 361.44615 151.655824 
L 363.62504 152.782916 
L 365.803929 155.458969 
L 367.982819 149.401579 
L 370.161708 150.778066 
L 372.340598 150.884522 
L 374.519487 158.350705 
L 376.698377 152.481118 
L 378.877267 148.019319 
L 381.056156 148.922581 
L 383.235046 150.236866 
L 385.413935 149.536215 
L 387.592825 150.640425 
L 389.771714 149.590933 
L 391.950604 155.802401 
L 394.129494 145.967648 
L 396.308383 148.314251 
L 398.487273 149.759211 
L 398.487273 149.759211 
" clip-path="url(#p1359311762)" style="fill: none; stroke: #ff7f0e; stroke-linecap: square"/>
   </g>
   <g id="line2d_17">
    <path d="M 73.832727 243.847597 
L 76.011617 213.854014 
L 78.190506 205.662918 
L 80.369396 206.970664 
L 82.548286 191.893601 
L 84.727175 190.890746 
L 86.906065 194.369652 
L 89.084954 178.471749 
L 91.263844 168.919043 
L 93.442733 162.551149 
L 95.621623 152.513525 
L 97.800513 147.741637 
L 99.979402 148.04782 
L 102.158292 133.766394 
L 104.337181 137.246253 
L 106.516071 143.559436 
L 108.69496 131.801617 
L 110.87385 126.85744 
L 113.052739 126.761229 
L 115.231629 122.6303 
L 117.410519 125.664142 
L 119.589408 122.616554 
L 121.768298 164.029609 
L 123.947187 118.298939 
L 126.126077 130.965761 
L 128.304966 122.942757 
L 130.483856 137.52964 
L 132.662746 120.950926 
L 134.841635 124.56291 
L 137.020525 121.169238 
L 139.199414 122.11308 
L 141.378304 110.886287 
L 143.557193 117.513392 
L 145.736083 116.864482 
L 147.914973 112.906426 
L 150.093862 110.02103 
L 152.272752 105.294559 
L 154.451641 109.095129 
L 156.630531 110.236072 
L 158.80942 111.038455 
L 160.98831 112.610975 
L 163.1672 112.246383 
L 165.346089 104.427709 
L 167.524979 108.281208 
L 169.703868 108.861341 
L 171.882758 103.682224 
L 174.061647 108.932885 
L 176.240537 107.152702 
L 178.419426 107.959044 
L 180.598316 104.507453 
L 182.777206 100.349914 
L 184.956095 106.884846 
L 187.134985 100.918651 
L 189.313874 98.880547 
L 191.492764 102.546586 
L 193.671653 109.708823 
L 195.850543 106.5697 
L 198.029433 117.554171 
L 200.208322 110.575568 
L 202.387212 106.0726 
L 204.566101 104.118924 
L 206.744991 111.903674 
L 208.92388 111.074112 
L 211.10277 100.6763 
L 213.28166 100.978957 
L 215.460549 105.415416 
L 217.639439 108.269579 
L 219.818328 105.578352 
L 221.997218 108.022647 
L 224.176107 103.857436 
L 226.354997 108.636784 
L 228.533887 105.801704 
L 230.712776 102.039217 
L 232.891666 103.805011 
L 235.070555 104.840086 
L 237.249445 105.526022 
L 241.607224 105.43154 
L 243.786113 105.170157 
L 245.965003 103.195049 
L 248.143893 111.031055 
L 250.322782 105.156594 
L 252.501672 114.759018 
L 254.680561 112.409097 
L 256.859451 112.083031 
L 259.03834 108.590978 
L 261.21723 109.084474 
L 263.39612 104.369223 
L 265.575009 110.94586 
L 267.753899 107.649018 
L 269.932788 106.778732 
L 272.111678 112.197342 
L 274.290567 107.768269 
L 276.469457 112.125613 
L 278.648347 108.699601 
L 280.827236 108.261664 
L 283.006126 116.733539 
L 285.185015 107.311094 
L 287.363905 104.403586 
L 289.542794 109.953997 
L 291.721684 109.479919 
L 293.900574 102.688978 
L 296.079463 119.335806 
L 298.258353 106.686997 
L 300.437242 117.188046 
L 302.616132 106.788337 
L 304.795021 108.98396 
L 306.973911 108.636466 
L 309.1528 112.252236 
L 311.33169 116.785409 
L 313.51058 110.116925 
L 315.689469 107.476168 
L 317.868359 112.526823 
L 320.047248 107.72296 
L 322.226138 106.132424 
L 324.405027 106.060437 
L 326.583917 109.399648 
L 328.762807 112.337518 
L 330.941696 108.791519 
L 333.120586 122.009492 
L 335.299475 114.041882 
L 337.478365 116.166085 
L 339.657254 103.903009 
L 341.836144 111.167569 
L 344.015034 106.685471 
L 346.193923 114.668479 
L 348.372813 113.13327 
L 350.551702 109.546404 
L 352.730592 108.396699 
L 354.909481 108.81281 
L 357.088371 112.202571 
L 359.267261 111.398474 
L 361.44615 110.013307 
L 363.62504 113.878109 
L 365.803929 113.193549 
L 367.982819 108.391051 
L 370.161708 110.428203 
L 372.340598 110.355056 
L 376.698377 124.434438 
L 378.877267 125.708517 
L 381.056156 112.778108 
L 383.235046 109.558316 
L 385.413935 108.57403 
L 387.592825 111.556143 
L 389.771714 113.616723 
L 391.950604 109.688364 
L 394.129494 111.676218 
L 398.487273 111.202586 
L 398.487273 111.202586 
" clip-path="url(#p1359311762)" style="fill: none; stroke: #2ca02c; stroke-linecap: square"/>
   </g>
   <g id="line2d_18">
    <path d="M 73.832727 228.121951 
L 76.011617 207.812631 
L 78.190506 202.790919 
L 80.369396 190.784035 
L 82.548286 182.134581 
L 86.906065 147.817822 
L 89.084954 143.034388 
L 91.263844 143.178176 
L 93.442733 139.526012 
L 95.621623 126.299416 
L 97.800513 124.39842 
L 99.979402 135.57592 
L 102.158292 121.349935 
L 104.337181 118.7768 
L 106.516071 119.181608 
L 110.87385 139.454366 
L 113.052739 128.661744 
L 115.231629 120.037031 
L 117.410519 116.083778 
L 119.589408 115.157525 
L 121.768298 121.275981 
L 123.947187 106.541934 
L 126.126077 119.459597 
L 128.304966 106.531909 
L 130.483856 106.241376 
L 132.662746 107.385759 
L 134.841635 102.539957 
L 137.020525 102.288574 
L 139.199414 100.404253 
L 141.378304 103.112419 
L 143.557193 100.733232 
L 145.736083 97.306392 
L 147.914973 100.645317 
L 150.093862 99.308562 
L 152.272752 98.695711 
L 154.451641 97.848815 
L 156.630531 99.853767 
L 158.80942 100.172422 
L 160.98831 97.392992 
L 163.1672 101.144884 
L 165.346089 98.828348 
L 167.524979 100.374315 
L 169.703868 99.893169 
L 171.882758 100.09495 
L 174.061647 93.89899 
L 176.240537 101.708966 
L 178.419426 94.559242 
L 180.598316 99.457499 
L 182.777206 97.187924 
L 184.956095 98.269994 
L 187.134985 99.768147 
L 189.313874 96.688792 
L 191.492764 94.621111 
L 193.671653 93.412324 
L 198.029433 97.315048 
L 200.208322 93.536456 
L 202.387212 97.346716 
L 204.566101 95.519444 
L 206.744991 99.01753 
L 208.92388 105.748903 
L 211.10277 97.199559 
L 213.28166 100.673334 
L 215.460549 95.213613 
L 217.639439 97.866658 
L 219.818328 99.350128 
L 221.997218 97.6863 
L 224.176107 97.382921 
L 226.354997 96.454923 
L 228.533887 101.704328 
L 230.712776 95.24332 
L 232.891666 94.802099 
L 235.070555 96.081453 
L 237.249445 98.078141 
L 239.428334 95.952186 
L 241.607224 97.517389 
L 243.786113 94.926095 
L 245.965003 96.32719 
L 248.143893 95.924186 
L 250.322782 96.209443 
L 252.501672 91.857869 
L 254.680561 93.030043 
L 256.859451 95.477364 
L 259.03834 96.02113 
L 261.21723 95.454242 
L 263.39612 95.493741 
L 265.575009 95.728488 
L 267.753899 99.930974 
L 269.932788 99.07045 
L 272.111678 97.408001 
L 274.290567 101.931176 
L 276.469457 96.730958 
L 278.648347 102.593135 
L 280.827236 98.831858 
L 283.006126 101.137291 
L 285.185015 98.662459 
L 287.363905 102.440228 
L 289.542794 99.668915 
L 291.721684 100.542061 
L 293.900574 103.303205 
L 296.079463 99.972517 
L 298.258353 95.444462 
L 300.437242 98.951725 
L 302.616132 105.500834 
L 304.795021 96.361714 
L 306.973911 109.683031 
L 309.1528 101.022042 
L 311.33169 110.224212 
L 313.51058 101.665987 
L 315.689469 100.199807 
L 317.868359 102.077513 
L 320.047248 100.955045 
L 322.226138 99.40908 
L 324.405027 105.911302 
L 326.583917 101.863895 
L 328.762807 105.294108 
L 330.941696 98.589846 
L 333.120586 104.844477 
L 337.478365 98.973138 
L 339.657254 98.708221 
L 341.836144 100.997194 
L 344.015034 98.372719 
L 346.193923 99.473415 
L 348.372813 103.750153 
L 350.551702 95.734354 
L 352.730592 96.706555 
L 354.909481 94.085074 
L 357.088371 97.635719 
L 359.267261 94.890146 
L 361.44615 96.338956 
L 363.62504 94.621932 
L 365.803929 105.45409 
L 367.982819 102.051034 
L 370.161708 99.167622 
L 372.340598 105.248409 
L 374.519487 99.323979 
L 376.698377 98.932377 
L 378.877267 101.102758 
L 381.056156 96.417326 
L 383.235046 100.615705 
L 385.413935 96.935566 
L 387.592825 100.495591 
L 389.771714 96.652546 
L 391.950604 96.104341 
L 394.129494 96.50979 
L 396.308383 96.650188 
L 398.487273 95.804261 
L 398.487273 95.804261 
" clip-path="url(#p1359311762)" style="fill: none; stroke: #d62728; stroke-linecap: square"/>
   </g>
   <g id="patch_3">
    <path d="M 57.6 307.584 
L 57.6 41.472 
" style="fill: none; stroke: #000000; stroke-width: 0.8; stroke-linejoin: miter; stroke-linecap: square"/>
   </g>
   <g id="patch_4">
    <path d="M 414.72 307.584 
L 414.72 41.472 
" style="fill: none; stroke: #000000; stroke-width: 0.8; stroke-linejoin: miter; stroke-linecap: square"/>
   </g>
   <g id="patch_5">
    <path d="M 57.6 307.584 
L 414.72 307.584 
" style="fill: none; stroke: #000000; stroke-width: 0.8; stroke-linejoin: miter; stroke-linecap: square"/>
   </g>
   <g id="patch_6">
    <path d="M 57.6 41.472 
L 414.72 41.472 
" style="fill: none; stroke: #000000; stroke-width: 0.8; stroke-linejoin: miter; stroke-linecap: square"/>
   </g>
   <g id="text_16">
    <!-- Accuracy of R8 -->
    <g transform="translate(191.1825 35.472) scale(0.12 -0.12)">
     <defs>
      <path id="DejaVuSans-41" d="M 2188 4044 
L 1331 1722 
L 3047 1722 
L 2188 4044 
z
M 1831 4666 
L 2547 4666 
L 4325 0 
L 3669 0 
L 3244 1197 
L 1141 1197 
L 716 0 
L 50 0 
L 1831 4666 
z
" transform="scale(0.015625)"/>
      <path id="DejaVuSans-75" d="M 544 1381 
L 544 3500 
L 1119 3500 
L 1119 1403 
Q 1119 906 1312 657 
Q 1506 409 1894 409 
Q 2359 409 2629 706 
Q 2900 1003 2900 1516 
L 2900 3500 
L 3475 3500 
L 3475 0 
L 2900 0 
L 2900 538 
Q 2691 219 2414 64 
Q 2138 -91 1772 -91 
Q 1169 -91 856 284 
Q 544 659 544 1381 
z
M 1991 3584 
L 1991 3584 
z
" transform="scale(0.015625)"/>
      <path id="DejaVuSans-72" d="M 2631 2963 
Q 2534 3019 2420 3045 
Q 2306 3072 2169 3072 
Q 1681 3072 1420 2755 
Q 1159 2438 1159 1844 
L 1159 0 
L 581 0 
L 581 3500 
L 1159 3500 
L 1159 2956 
Q 1341 3275 1631 3429 
Q 1922 3584 2338 3584 
Q 2397 3584 2469 3576 
Q 2541 3569 2628 3553 
L 2631 2963 
z
" transform="scale(0.015625)"/>
      <path id="DejaVuSans-61" d="M 2194 1759 
Q 1497 1759 1228 1600 
Q 959 1441 959 1056 
Q 959 750 1161 570 
Q 1363 391 1709 391 
Q 2188 391 2477 730 
Q 2766 1069 2766 1631 
L 2766 1759 
L 2194 1759 
z
M 3341 1997 
L 3341 0 
L 2766 0 
L 2766 531 
Q 2569 213 2275 61 
Q 1981 -91 1556 -91 
Q 1019 -91 701 211 
Q 384 513 384 1019 
Q 384 1609 779 1909 
Q 1175 2209 1959 2209 
L 2766 2209 
L 2766 2266 
Q 2766 2663 2505 2880 
Q 2244 3097 1772 3097 
Q 1472 3097 1187 3025 
Q 903 2953 641 2809 
L 641 3341 
Q 956 3463 1253 3523 
Q 1550 3584 1831 3584 
Q 2591 3584 2966 3190 
Q 3341 2797 3341 1997 
z
" transform="scale(0.015625)"/>
      <path id="DejaVuSans-79" d="M 2059 -325 
Q 1816 -950 1584 -1140 
Q 1353 -1331 966 -1331 
L 506 -1331 
L 506 -850 
L 844 -850 
Q 1081 -850 1212 -737 
Q 1344 -625 1503 -206 
L 1606 56 
L 191 3500 
L 800 3500 
L 1894 763 
L 2988 3500 
L 3597 3500 
L 2059 -325 
z
" transform="scale(0.015625)"/>
      <path id="DejaVuSans-20" transform="scale(0.015625)"/>
      <path id="DejaVuSans-66" d="M 2375 4863 
L 2375 4384 
L 1825 4384 
Q 1516 4384 1395 4259 
Q 1275 4134 1275 3809 
L 1275 3500 
L 2222 3500 
L 2222 3053 
L 1275 3053 
L 1275 0 
L 697 0 
L 697 3053 
L 147 3053 
L 147 3500 
L 697 3500 
L 697 3744 
Q 697 4328 969 4595 
Q 1241 4863 1831 4863 
L 2375 4863 
z
" transform="scale(0.015625)"/>
      <path id="DejaVuSans-52" d="M 2841 2188 
Q 3044 2119 3236 1894 
Q 3428 1669 3622 1275 
L 4263 0 
L 3584 0 
L 2988 1197 
Q 2756 1666 2539 1819 
Q 2322 1972 1947 1972 
L 1259 1972 
L 1259 0 
L 628 0 
L 628 4666 
L 2053 4666 
Q 2853 4666 3247 4331 
Q 3641 3997 3641 3322 
Q 3641 2881 3436 2590 
Q 3231 2300 2841 2188 
z
M 1259 4147 
L 1259 2491 
L 2053 2491 
Q 2509 2491 2742 2702 
Q 2975 2913 2975 3322 
Q 2975 3731 2742 3939 
Q 2509 4147 2053 4147 
L 1259 4147 
z
" transform="scale(0.015625)"/>
     </defs>
     <use xlink:href="#DejaVuSans-41"/>
     <use xlink:href="#DejaVuSans-63" x="66.658203"/>
     <use xlink:href="#DejaVuSans-63" x="121.638672"/>
     <use xlink:href="#DejaVuSans-75" x="176.619141"/>
     <use xlink:href="#DejaVuSans-72" x="239.998047"/>
     <use xlink:href="#DejaVuSans-61" x="281.111328"/>
     <use xlink:href="#DejaVuSans-63" x="342.390625"/>
     <use xlink:href="#DejaVuSans-79" x="397.371094"/>
     <use xlink:href="#DejaVuSans-20" x="456.550781"/>
     <use xlink:href="#DejaVuSans-6f" x="488.337891"/>
     <use xlink:href="#DejaVuSans-66" x="549.519531"/>
     <use xlink:href="#DejaVuSans-20" x="584.724609"/>
     <use xlink:href="#DejaVuSans-52" x="616.511719"/>
     <use xlink:href="#DejaVuSans-38" x="685.994141"/>
    </g>
   </g>
   <g id="legend_1">
    <g id="patch_7">
     <path d="M 299.162188 302.584 
L 407.72 302.584 
Q 409.72 302.584 409.72 300.584 
L 409.72 242.8715 
Q 409.72 240.8715 407.72 240.8715 
L 299.162188 240.8715 
Q 297.162188 240.8715 297.162188 242.8715 
L 297.162188 300.584 
Q 297.162188 302.584 299.162188 302.584 
z
" style="fill: #ffffff; opacity: 0.8; stroke: #cccccc; stroke-linejoin: miter"/>
    </g>
    <g id="line2d_19">
     <path d="M 301.162188 248.969937 
L 311.162188 248.969937 
L 321.162188 248.969937 
" style="fill: none; stroke: #1f77b4; stroke-linecap: square"/>
    </g>
    <g id="text_17">
     <!-- 2000 samples -->
     <g transform="translate(329.162188 252.469937) scale(0.1 -0.1)">
      <defs>
       <path id="DejaVuSans-73" d="M 2834 3397 
L 2834 2853 
Q 2591 2978 2328 3040 
Q 2066 3103 1784 3103 
Q 1356 3103 1142 2972 
Q 928 2841 928 2578 
Q 928 2378 1081 2264 
Q 1234 2150 1697 2047 
L 1894 2003 
Q 2506 1872 2764 1633 
Q 3022 1394 3022 966 
Q 3022 478 2636 193 
Q 2250 -91 1575 -91 
Q 1294 -91 989 -36 
Q 684 19 347 128 
L 347 722 
Q 666 556 975 473 
Q 1284 391 1588 391 
Q 1994 391 2212 530 
Q 2431 669 2431 922 
Q 2431 1156 2273 1281 
Q 2116 1406 1581 1522 
L 1381 1569 
Q 847 1681 609 1914 
Q 372 2147 372 2553 
Q 372 3047 722 3315 
Q 1072 3584 1716 3584 
Q 2034 3584 2315 3537 
Q 2597 3491 2834 3397 
z
" transform="scale(0.015625)"/>
       <path id="DejaVuSans-6d" d="M 3328 2828 
Q 3544 3216 3844 3400 
Q 4144 3584 4550 3584 
Q 5097 3584 5394 3201 
Q 5691 2819 5691 2113 
L 5691 0 
L 5113 0 
L 5113 2094 
Q 5113 2597 4934 2840 
Q 4756 3084 4391 3084 
Q 3944 3084 3684 2787 
Q 3425 2491 3425 1978 
L 3425 0 
L 2847 0 
L 2847 2094 
Q 2847 2600 2669 2842 
Q 2491 3084 2119 3084 
Q 1678 3084 1418 2786 
Q 1159 2488 1159 1978 
L 1159 0 
L 581 0 
L 581 3500 
L 1159 3500 
L 1159 2956 
Q 1356 3278 1631 3431 
Q 1906 3584 2284 3584 
Q 2666 3584 2933 3390 
Q 3200 3197 3328 2828 
z
" transform="scale(0.015625)"/>
       <path id="DejaVuSans-6c" d="M 603 4863 
L 1178 4863 
L 1178 0 
L 603 0 
L 603 4863 
z
" transform="scale(0.015625)"/>
      </defs>
      <use xlink:href="#DejaVuSans-32"/>
      <use xlink:href="#DejaVuSans-30" x="63.623047"/>
      <use xlink:href="#DejaVuSans-30" x="127.246094"/>
      <use xlink:href="#DejaVuSans-30" x="190.869141"/>
      <use xlink:href="#DejaVuSans-20" x="254.492188"/>
      <use xlink:href="#DejaVuSans-73" x="286.279297"/>
      <use xlink:href="#DejaVuSans-61" x="338.378906"/>
      <use xlink:href="#DejaVuSans-6d" x="399.658203"/>
      <use xlink:href="#DejaVuSans-70" x="497.070312"/>
      <use xlink:href="#DejaVuSans-6c" x="560.546875"/>
      <use xlink:href="#DejaVuSans-65" x="588.330078"/>
      <use xlink:href="#DejaVuSans-73" x="649.853516"/>
     </g>
    </g>
    <g id="line2d_20">
     <path d="M 301.162188 263.648062 
L 311.162188 263.648062 
L 321.162188 263.648062 
" style="fill: none; stroke: #ff7f0e; stroke-linecap: square"/>
    </g>
    <g id="text_18">
     <!-- 5000 samples -->
     <g transform="translate(329.162188 267.148062) scale(0.1 -0.1)">
      <use xlink:href="#DejaVuSans-35"/>
      <use xlink:href="#DejaVuSans-30" x="63.623047"/>
      <use xlink:href="#DejaVuSans-30" x="127.246094"/>
      <use xlink:href="#DejaVuSans-30" x="190.869141"/>
      <use xlink:href="#DejaVuSans-20" x="254.492188"/>
      <use xlink:href="#DejaVuSans-73" x="286.279297"/>
      <use xlink:href="#DejaVuSans-61" x="338.378906"/>
      <use xlink:href="#DejaVuSans-6d" x="399.658203"/>
      <use xlink:href="#DejaVuSans-70" x="497.070312"/>
      <use xlink:href="#DejaVuSans-6c" x="560.546875"/>
      <use xlink:href="#DejaVuSans-65" x="588.330078"/>
      <use xlink:href="#DejaVuSans-73" x="649.853516"/>
     </g>
    </g>
    <g id="line2d_21">
     <path d="M 301.162188 278.326187 
L 311.162188 278.326187 
L 321.162188 278.326187 
" style="fill: none; stroke: #2ca02c; stroke-linecap: square"/>
    </g>
    <g id="text_19">
     <!-- 8000 samples -->
     <g transform="translate(329.162188 281.826187) scale(0.1 -0.1)">
      <use xlink:href="#DejaVuSans-38"/>
      <use xlink:href="#DejaVuSans-30" x="63.623047"/>
      <use xlink:href="#DejaVuSans-30" x="127.246094"/>
      <use xlink:href="#DejaVuSans-30" x="190.869141"/>
      <use xlink:href="#DejaVuSans-20" x="254.492188"/>
      <use xlink:href="#DejaVuSans-73" x="286.279297"/>
      <use xlink:href="#DejaVuSans-61" x="338.378906"/>
      <use xlink:href="#DejaVuSans-6d" x="399.658203"/>
      <use xlink:href="#DejaVuSans-70" x="497.070312"/>
      <use xlink:href="#DejaVuSans-6c" x="560.546875"/>
      <use xlink:href="#DejaVuSans-65" x="588.330078"/>
      <use xlink:href="#DejaVuSans-73" x="649.853516"/>
     </g>
    </g>
    <g id="line2d_22">
     <path d="M 301.162188 293.004312 
L 311.162188 293.004312 
L 321.162188 293.004312 
" style="fill: none; stroke: #d62728; stroke-linecap: square"/>
    </g>
    <g id="text_20">
     <!-- 10000 samples -->
     <g transform="translate(329.162188 296.504312) scale(0.1 -0.1)">
      <use xlink:href="#DejaVuSans-31"/>
      <use xlink:href="#DejaVuSans-30" x="63.623047"/>
      <use xlink:href="#DejaVuSans-30" x="127.246094"/>
      <use xlink:href="#DejaVuSans-30" x="190.869141"/>
      <use xlink:href="#DejaVuSans-30" x="254.492188"/>
      <use xlink:href="#DejaVuSans-20" x="318.115234"/>
      <use xlink:href="#DejaVuSans-73" x="349.902344"/>
      <use xlink:href="#DejaVuSans-61" x="402.001953"/>
      <use xlink:href="#DejaVuSans-6d" x="463.28125"/>
      <use xlink:href="#DejaVuSans-70" x="560.693359"/>
      <use xlink:href="#DejaVuSans-6c" x="624.169922"/>
      <use xlink:href="#DejaVuSans-65" x="651.953125"/>
      <use xlink:href="#DejaVuSans-73" x="713.476562"/>
     </g>
    </g>
   </g>
  </g>
 </g>
 <defs>
  <clipPath id="p1359311762">
   <rect x="57.6" y="41.472" width="357.12" height="266.112"/>
  </clipPath>
 </defs>
</svg>
