<?xml version="1.0" encoding="utf-8" standalone="no"?>
<!DOCTYPE svg PUBLIC "-//W3C//DTD SVG 1.1//EN"
  "http://www.w3.org/Graphics/SVG/1.1/DTD/svg11.dtd">
<svg xmlns:xlink="http://www.w3.org/1999/xlink" width="460.8pt" height="345.6pt" viewBox="0 0 460.8 345.6" xmlns="http://www.w3.org/2000/svg" version="1.1">
 <metadata>
  <rdf:RDF xmlns:dc="http://purl.org/dc/elements/1.1/" xmlns:cc="http://creativecommons.org/ns#" xmlns:rdf="http://www.w3.org/1999/02/22-rdf-syntax-ns#">
   <cc:Work>
    <dc:type rdf:resource="http://purl.org/dc/dcmitype/StillImage"/>
    <dc:date>2023-09-13T16:28:36.302120</dc:date>
    <dc:format>image/svg+xml</dc:format>
    <dc:creator>
     <cc:Agent>
      <dc:title>Matplotlib v3.7.1, https://matplotlib.org/</dc:title>
     </cc:Agent>
    </dc:creator>
   </cc:Work>
  </rdf:RDF>
 </metadata>
 <defs>
  <style type="text/css">*{stroke-linejoin: round; stroke-linecap: butt}</style>
 </defs>
 <g id="figure_1">
  <g id="patch_1">
   <path d="M 0 345.6 
L 460.8 345.6 
L 460.8 0 
L 0 0 
z
" style="fill: #ffffff"/>
  </g>
  <g id="axes_1">
   <g id="patch_2">
    <path d="M 57.6 307.584 
L 414.72 307.584 
L 414.72 41.472 
L 57.6 41.472 
z
" style="fill: #ffffff"/>
   </g>
   <g id="matplotlib.axis_1">
    <g id="xtick_1">
     <g id="line2d_1">
      <defs>
       <path id="me627bae26e" d="M 0 0 
L 0 3.5 
" style="stroke: #000000; stroke-width: 0.8"/>
      </defs>
      <g>
       <use xlink:href="#me627bae26e" x="71.653838" y="307.584" style="stroke: #000000; stroke-width: 0.8"/>
      </g>
     </g>
     <g id="text_1">
      <!-- 0 -->
      <g transform="translate(68.472588 322.182437) scale(0.1 -0.1)">
       <defs>
        <path id="DejaVuSans-30" d="M 2034 4250 
Q 1547 4250 1301 3770 
Q 1056 3291 1056 2328 
Q 1056 1369 1301 889 
Q 1547 409 2034 409 
Q 2525 409 2770 889 
Q 3016 1369 3016 2328 
Q 3016 3291 2770 3770 
Q 2525 4250 2034 4250 
z
M 2034 4750 
Q 2819 4750 3233 4129 
Q 3647 3509 3647 2328 
Q 3647 1150 3233 529 
Q 2819 -91 2034 -91 
Q 1250 -91 836 529 
Q 422 1150 422 2328 
Q 422 3509 836 4129 
Q 1250 4750 2034 4750 
z
" transform="scale(0.015625)"/>
       </defs>
       <use xlink:href="#DejaVuSans-30"/>
      </g>
     </g>
    </g>
    <g id="xtick_2">
     <g id="line2d_2">
      <g>
       <use xlink:href="#me627bae26e" x="115.231629" y="307.584" style="stroke: #000000; stroke-width: 0.8"/>
      </g>
     </g>
     <g id="text_2">
      <!-- 20 -->
      <g transform="translate(108.869129 322.182437) scale(0.1 -0.1)">
       <defs>
        <path id="DejaVuSans-32" d="M 1228 531 
L 3431 531 
L 3431 0 
L 469 0 
L 469 531 
Q 828 903 1448 1529 
Q 2069 2156 2228 2338 
Q 2531 2678 2651 2914 
Q 2772 3150 2772 3378 
Q 2772 3750 2511 3984 
Q 2250 4219 1831 4219 
Q 1534 4219 1204 4116 
Q 875 4013 500 3803 
L 500 4441 
Q 881 4594 1212 4672 
Q 1544 4750 1819 4750 
Q 2544 4750 2975 4387 
Q 3406 4025 3406 3419 
Q 3406 3131 3298 2873 
Q 3191 2616 2906 2266 
Q 2828 2175 2409 1742 
Q 1991 1309 1228 531 
z
" transform="scale(0.015625)"/>
       </defs>
       <use xlink:href="#DejaVuSans-32"/>
       <use xlink:href="#DejaVuSans-30" x="63.623047"/>
      </g>
     </g>
    </g>
    <g id="xtick_3">
     <g id="line2d_3">
      <g>
       <use xlink:href="#me627bae26e" x="158.80942" y="307.584" style="stroke: #000000; stroke-width: 0.8"/>
      </g>
     </g>
     <g id="text_3">
      <!-- 40 -->
      <g transform="translate(152.44692 322.182437) scale(0.1 -0.1)">
       <defs>
        <path id="DejaVuSans-34" d="M 2419 4116 
L 825 1625 
L 2419 1625 
L 2419 4116 
z
M 2253 4666 
L 3047 4666 
L 3047 1625 
L 3713 1625 
L 3713 1100 
L 3047 1100 
L 3047 0 
L 2419 0 
L 2419 1100 
L 313 1100 
L 313 1709 
L 2253 4666 
z
" transform="scale(0.015625)"/>
       </defs>
       <use xlink:href="#DejaVuSans-34"/>
       <use xlink:href="#DejaVuSans-30" x="63.623047"/>
      </g>
     </g>
    </g>
    <g id="xtick_4">
     <g id="line2d_4">
      <g>
       <use xlink:href="#me627bae26e" x="202.387212" y="307.584" style="stroke: #000000; stroke-width: 0.8"/>
      </g>
     </g>
     <g id="text_4">
      <!-- 60 -->
      <g transform="translate(196.024712 322.182437) scale(0.1 -0.1)">
       <defs>
        <path id="DejaVuSans-36" d="M 2113 2584 
Q 1688 2584 1439 2293 
Q 1191 2003 1191 1497 
Q 1191 994 1439 701 
Q 1688 409 2113 409 
Q 2538 409 2786 701 
Q 3034 994 3034 1497 
Q 3034 2003 2786 2293 
Q 2538 2584 2113 2584 
z
M 3366 4563 
L 3366 3988 
Q 3128 4100 2886 4159 
Q 2644 4219 2406 4219 
Q 1781 4219 1451 3797 
Q 1122 3375 1075 2522 
Q 1259 2794 1537 2939 
Q 1816 3084 2150 3084 
Q 2853 3084 3261 2657 
Q 3669 2231 3669 1497 
Q 3669 778 3244 343 
Q 2819 -91 2113 -91 
Q 1303 -91 875 529 
Q 447 1150 447 2328 
Q 447 3434 972 4092 
Q 1497 4750 2381 4750 
Q 2619 4750 2861 4703 
Q 3103 4656 3366 4563 
z
" transform="scale(0.015625)"/>
       </defs>
       <use xlink:href="#DejaVuSans-36"/>
       <use xlink:href="#DejaVuSans-30" x="63.623047"/>
      </g>
     </g>
    </g>
    <g id="xtick_5">
     <g id="line2d_5">
      <g>
       <use xlink:href="#me627bae26e" x="245.965003" y="307.584" style="stroke: #000000; stroke-width: 0.8"/>
      </g>
     </g>
     <g id="text_5">
      <!-- 80 -->
      <g transform="translate(239.602503 322.182437) scale(0.1 -0.1)">
       <defs>
        <path id="DejaVuSans-38" d="M 2034 2216 
Q 1584 2216 1326 1975 
Q 1069 1734 1069 1313 
Q 1069 891 1326 650 
Q 1584 409 2034 409 
Q 2484 409 2743 651 
Q 3003 894 3003 1313 
Q 3003 1734 2745 1975 
Q 2488 2216 2034 2216 
z
M 1403 2484 
Q 997 2584 770 2862 
Q 544 3141 544 3541 
Q 544 4100 942 4425 
Q 1341 4750 2034 4750 
Q 2731 4750 3128 4425 
Q 3525 4100 3525 3541 
Q 3525 3141 3298 2862 
Q 3072 2584 2669 2484 
Q 3125 2378 3379 2068 
Q 3634 1759 3634 1313 
Q 3634 634 3220 271 
Q 2806 -91 2034 -91 
Q 1263 -91 848 271 
Q 434 634 434 1313 
Q 434 1759 690 2068 
Q 947 2378 1403 2484 
z
M 1172 3481 
Q 1172 3119 1398 2916 
Q 1625 2713 2034 2713 
Q 2441 2713 2670 2916 
Q 2900 3119 2900 3481 
Q 2900 3844 2670 4047 
Q 2441 4250 2034 4250 
Q 1625 4250 1398 4047 
Q 1172 3844 1172 3481 
z
" transform="scale(0.015625)"/>
       </defs>
       <use xlink:href="#DejaVuSans-38"/>
       <use xlink:href="#DejaVuSans-30" x="63.623047"/>
      </g>
     </g>
    </g>
    <g id="xtick_6">
     <g id="line2d_6">
      <g>
       <use xlink:href="#me627bae26e" x="289.542794" y="307.584" style="stroke: #000000; stroke-width: 0.8"/>
      </g>
     </g>
     <g id="text_6">
      <!-- 100 -->
      <g transform="translate(279.999044 322.182437) scale(0.1 -0.1)">
       <defs>
        <path id="DejaVuSans-31" d="M 794 531 
L 1825 531 
L 1825 4091 
L 703 3866 
L 703 4441 
L 1819 4666 
L 2450 4666 
L 2450 531 
L 3481 531 
L 3481 0 
L 794 0 
L 794 531 
z
" transform="scale(0.015625)"/>
       </defs>
       <use xlink:href="#DejaVuSans-31"/>
       <use xlink:href="#DejaVuSans-30" x="63.623047"/>
       <use xlink:href="#DejaVuSans-30" x="127.246094"/>
      </g>
     </g>
    </g>
    <g id="xtick_7">
     <g id="line2d_7">
      <g>
       <use xlink:href="#me627bae26e" x="333.120586" y="307.584" style="stroke: #000000; stroke-width: 0.8"/>
      </g>
     </g>
     <g id="text_7">
      <!-- 120 -->
      <g transform="translate(323.576836 322.182437) scale(0.1 -0.1)">
       <use xlink:href="#DejaVuSans-31"/>
       <use xlink:href="#DejaVuSans-32" x="63.623047"/>
       <use xlink:href="#DejaVuSans-30" x="127.246094"/>
      </g>
     </g>
    </g>
    <g id="xtick_8">
     <g id="line2d_8">
      <g>
       <use xlink:href="#me627bae26e" x="376.698377" y="307.584" style="stroke: #000000; stroke-width: 0.8"/>
      </g>
     </g>
     <g id="text_8">
      <!-- 140 -->
      <g transform="translate(367.154627 322.182437) scale(0.1 -0.1)">
       <use xlink:href="#DejaVuSans-31"/>
       <use xlink:href="#DejaVuSans-34" x="63.623047"/>
       <use xlink:href="#DejaVuSans-30" x="127.246094"/>
      </g>
     </g>
    </g>
    <g id="text_9">
     <!-- epoch -->
     <g transform="translate(220.931875 335.860562) scale(0.1 -0.1)">
      <defs>
       <path id="DejaVuSans-65" d="M 3597 1894 
L 3597 1613 
L 953 1613 
Q 991 1019 1311 708 
Q 1631 397 2203 397 
Q 2534 397 2845 478 
Q 3156 559 3463 722 
L 3463 178 
Q 3153 47 2828 -22 
Q 2503 -91 2169 -91 
Q 1331 -91 842 396 
Q 353 884 353 1716 
Q 353 2575 817 3079 
Q 1281 3584 2069 3584 
Q 2775 3584 3186 3129 
Q 3597 2675 3597 1894 
z
M 3022 2063 
Q 3016 2534 2758 2815 
Q 2500 3097 2075 3097 
Q 1594 3097 1305 2825 
Q 1016 2553 972 2059 
L 3022 2063 
z
" transform="scale(0.015625)"/>
       <path id="DejaVuSans-70" d="M 1159 525 
L 1159 -1331 
L 581 -1331 
L 581 3500 
L 1159 3500 
L 1159 2969 
Q 1341 3281 1617 3432 
Q 1894 3584 2278 3584 
Q 2916 3584 3314 3078 
Q 3713 2572 3713 1747 
Q 3713 922 3314 415 
Q 2916 -91 2278 -91 
Q 1894 -91 1617 61 
Q 1341 213 1159 525 
z
M 3116 1747 
Q 3116 2381 2855 2742 
Q 2594 3103 2138 3103 
Q 1681 3103 1420 2742 
Q 1159 2381 1159 1747 
Q 1159 1113 1420 752 
Q 1681 391 2138 391 
Q 2594 391 2855 752 
Q 3116 1113 3116 1747 
z
" transform="scale(0.015625)"/>
       <path id="DejaVuSans-6f" d="M 1959 3097 
Q 1497 3097 1228 2736 
Q 959 2375 959 1747 
Q 959 1119 1226 758 
Q 1494 397 1959 397 
Q 2419 397 2687 759 
Q 2956 1122 2956 1747 
Q 2956 2369 2687 2733 
Q 2419 3097 1959 3097 
z
M 1959 3584 
Q 2709 3584 3137 3096 
Q 3566 2609 3566 1747 
Q 3566 888 3137 398 
Q 2709 -91 1959 -91 
Q 1206 -91 779 398 
Q 353 888 353 1747 
Q 353 2609 779 3096 
Q 1206 3584 1959 3584 
z
" transform="scale(0.015625)"/>
       <path id="DejaVuSans-63" d="M 3122 3366 
L 3122 2828 
Q 2878 2963 2633 3030 
Q 2388 3097 2138 3097 
Q 1578 3097 1268 2742 
Q 959 2388 959 1747 
Q 959 1106 1268 751 
Q 1578 397 2138 397 
Q 2388 397 2633 464 
Q 2878 531 3122 666 
L 3122 134 
Q 2881 22 2623 -34 
Q 2366 -91 2075 -91 
Q 1284 -91 818 406 
Q 353 903 353 1747 
Q 353 2603 823 3093 
Q 1294 3584 2113 3584 
Q 2378 3584 2631 3529 
Q 2884 3475 3122 3366 
z
" transform="scale(0.015625)"/>
       <path id="DejaVuSans-68" d="M 3513 2113 
L 3513 0 
L 2938 0 
L 2938 2094 
Q 2938 2591 2744 2837 
Q 2550 3084 2163 3084 
Q 1697 3084 1428 2787 
Q 1159 2491 1159 1978 
L 1159 0 
L 581 0 
L 581 4863 
L 1159 4863 
L 1159 2956 
Q 1366 3272 1645 3428 
Q 1925 3584 2291 3584 
Q 2894 3584 3203 3211 
Q 3513 2838 3513 2113 
z
" transform="scale(0.015625)"/>
      </defs>
      <use xlink:href="#DejaVuSans-65"/>
      <use xlink:href="#DejaVuSans-70" x="61.523438"/>
      <use xlink:href="#DejaVuSans-6f" x="125"/>
      <use xlink:href="#DejaVuSans-63" x="186.181641"/>
      <use xlink:href="#DejaVuSans-68" x="241.162109"/>
     </g>
    </g>
   </g>
   <g id="matplotlib.axis_2">
    <g id="ytick_1">
     <g id="line2d_9">
      <defs>
       <path id="m58db821387" d="M 0 0 
L -3.5 0 
" style="stroke: #000000; stroke-width: 0.8"/>
      </defs>
      <g>
       <use xlink:href="#m58db821387" x="57.6" y="307.584" style="stroke: #000000; stroke-width: 0.8"/>
      </g>
     </g>
     <g id="text_10">
      <!-- 0.0 -->
      <g transform="translate(34.696875 311.383219) scale(0.1 -0.1)">
       <defs>
        <path id="DejaVuSans-2e" d="M 684 794 
L 1344 794 
L 1344 0 
L 684 0 
L 684 794 
z
" transform="scale(0.015625)"/>
       </defs>
       <use xlink:href="#DejaVuSans-30"/>
       <use xlink:href="#DejaVuSans-2e" x="63.623047"/>
       <use xlink:href="#DejaVuSans-30" x="95.410156"/>
      </g>
     </g>
    </g>
    <g id="ytick_2">
     <g id="line2d_10">
      <g>
       <use xlink:href="#m58db821387" x="57.6" y="258.196258" style="stroke: #000000; stroke-width: 0.8"/>
      </g>
     </g>
     <g id="text_11">
      <!-- 0.2 -->
      <g transform="translate(34.696875 261.995477) scale(0.1 -0.1)">
       <use xlink:href="#DejaVuSans-30"/>
       <use xlink:href="#DejaVuSans-2e" x="63.623047"/>
       <use xlink:href="#DejaVuSans-32" x="95.410156"/>
      </g>
     </g>
    </g>
    <g id="ytick_3">
     <g id="line2d_11">
      <g>
       <use xlink:href="#m58db821387" x="57.6" y="208.808517" style="stroke: #000000; stroke-width: 0.8"/>
      </g>
     </g>
     <g id="text_12">
      <!-- 0.4 -->
      <g transform="translate(34.696875 212.607735) scale(0.1 -0.1)">
       <use xlink:href="#DejaVuSans-30"/>
       <use xlink:href="#DejaVuSans-2e" x="63.623047"/>
       <use xlink:href="#DejaVuSans-34" x="95.410156"/>
      </g>
     </g>
    </g>
    <g id="ytick_4">
     <g id="line2d_12">
      <g>
       <use xlink:href="#m58db821387" x="57.6" y="159.420775" style="stroke: #000000; stroke-width: 0.8"/>
      </g>
     </g>
     <g id="text_13">
      <!-- 0.6 -->
      <g transform="translate(34.696875 163.219994) scale(0.1 -0.1)">
       <use xlink:href="#DejaVuSans-30"/>
       <use xlink:href="#DejaVuSans-2e" x="63.623047"/>
       <use xlink:href="#DejaVuSans-36" x="95.410156"/>
      </g>
     </g>
    </g>
    <g id="ytick_5">
     <g id="line2d_13">
      <g>
       <use xlink:href="#m58db821387" x="57.6" y="110.033033" style="stroke: #000000; stroke-width: 0.8"/>
      </g>
     </g>
     <g id="text_14">
      <!-- 0.8 -->
      <g transform="translate(34.696875 113.832252) scale(0.1 -0.1)">
       <use xlink:href="#DejaVuSans-30"/>
       <use xlink:href="#DejaVuSans-2e" x="63.623047"/>
       <use xlink:href="#DejaVuSans-38" x="95.410156"/>
      </g>
     </g>
    </g>
    <g id="ytick_6">
     <g id="line2d_14">
      <g>
       <use xlink:href="#m58db821387" x="57.6" y="60.645292" style="stroke: #000000; stroke-width: 0.8"/>
      </g>
     </g>
     <g id="text_15">
      <!-- 1.0 -->
      <g transform="translate(34.696875 64.44451) scale(0.1 -0.1)">
       <use xlink:href="#DejaVuSans-31"/>
       <use xlink:href="#DejaVuSans-2e" x="63.623047"/>
       <use xlink:href="#DejaVuSans-30" x="95.410156"/>
      </g>
     </g>
    </g>
   </g>
   <g id="line2d_15">
    <path d="M 73.832727 207.784789 
L 76.011617 241.036581 
L 78.190506 169.342287 
L 80.369396 143.178953 
L 82.548286 130.175772 
L 84.727175 121.376631 
L 86.906065 102.378229 
L 89.084954 104.034069 
L 91.263844 96.246845 
L 93.442733 95.454435 
L 95.621623 100.573262 
L 97.800513 95.682603 
L 99.979402 93.278683 
L 102.158292 94.297235 
L 104.337181 94.57502 
L 106.516071 92.627514 
L 110.87385 93.321155 
L 113.052739 95.452329 
L 115.231629 91.254723 
L 117.410519 91.809319 
L 119.589408 89.876833 
L 121.768298 89.713267 
L 123.947187 90.455701 
L 126.126077 91.064502 
L 128.304966 89.606798 
L 130.483856 88.624845 
L 132.662746 88.433596 
L 134.841635 87.610328 
L 137.020525 88.66843 
L 143.557193 87.955361 
L 145.736083 88.534115 
L 147.914973 87.592487 
L 150.093862 87.252595 
L 152.272752 88.277002 
L 154.451641 87.527573 
L 156.630531 87.221033 
L 158.80942 88.519497 
L 160.98831 88.034646 
L 163.1672 87.969593 
L 167.524979 87.292256 
L 169.703868 87.3878 
L 171.882758 88.142166 
L 174.061647 87.091402 
L 176.240537 87.420995 
L 178.419426 88.630449 
L 180.598316 87.38028 
L 182.777206 87.475735 
L 184.956095 87.72911 
L 187.134985 87.802964 
L 189.313874 87.297627 
L 191.492764 87.291259 
L 193.671653 87.687443 
L 195.850543 87.714299 
L 198.029433 87.447167 
L 200.208322 86.881078 
L 202.387212 87.881704 
L 204.566101 87.051367 
L 206.744991 87.575066 
L 208.92388 86.588057 
L 211.10277 87.360994 
L 213.28166 86.931488 
L 215.460549 87.306381 
L 217.639439 87.226638 
L 219.818328 86.987288 
L 221.997218 87.430931 
L 224.176107 87.242249 
L 226.354997 87.201413 
L 228.533887 87.038235 
L 230.712776 86.411214 
L 232.891666 86.820376 
L 235.070555 87.427709 
L 237.249445 86.043511 
L 239.428334 86.829021 
L 241.607224 85.824 
L 243.786113 86.624359 
L 248.143893 86.937498 
L 250.322782 87.35278 
L 252.501672 86.118997 
L 256.859451 86.39004 
L 259.03834 87.211838 
L 261.21723 86.679069 
L 263.39612 87.040815 
L 265.575009 87.017687 
L 267.753899 86.565176 
L 269.932788 86.32677 
L 272.111678 86.764262 
L 274.290567 86.650426 
L 276.469457 86.89002 
L 278.648347 86.453012 
L 280.827236 86.250649 
L 283.006126 87.306461 
L 285.185015 85.979956 
L 287.363905 86.816096 
L 289.542794 86.035914 
L 293.900574 86.157351 
L 296.079463 86.867355 
L 298.258353 86.651756 
L 302.616132 86.520614 
L 306.973911 87.042439 
L 309.1528 86.538771 
L 313.51058 86.274827 
L 315.689469 86.749104 
L 317.868359 86.670386 
L 320.047248 87.169675 
L 322.226138 87.064153 
L 324.405027 86.304238 
L 326.583917 86.459414 
L 328.762807 86.916281 
L 335.299475 86.073704 
L 337.478365 86.612751 
L 339.657254 86.874962 
L 341.836144 86.620321 
L 344.015034 87.251575 
L 346.193923 87.500469 
L 348.372813 86.62495 
L 350.551702 87.176703 
L 352.730592 86.217683 
L 354.909481 86.580694 
L 357.088371 87.185189 
L 359.267261 86.656043 
L 361.44615 87.305009 
L 365.803929 86.580468 
L 370.161708 87.258884 
L 372.340598 87.212428 
L 374.519487 86.141393 
L 376.698377 86.627 
L 378.877267 86.596622 
L 381.056156 86.924112 
L 383.235046 86.54511 
L 385.413935 86.375943 
L 389.771714 86.728673 
L 394.129494 87.767445 
L 396.308383 86.893736 
L 398.487273 86.578496 
L 398.487273 86.578496 
" clip-path="url(#p3a6b38306e)" style="fill: none; stroke: #1f77b4; stroke-linecap: square"/>
   </g>
   <g id="line2d_16">
    <path d="M 73.832727 185.545646 
L 76.011617 189.675757 
L 78.190506 283.937734 
L 80.369396 344.69443 
L 82.548286 207.156473 
L 84.727175 278.378527 
L 86.906065 287.964158 
L 89.084954 319.892972 
L 91.263844 317.618442 
L 93.442733 308.090518 
L 95.621623 297.665482 
L 97.800513 261.229073 
L 99.979402 229.125906 
L 102.158292 236.161392 
L 104.337181 240.982904 
L 106.516071 249.995771 
L 108.69496 200.581974 
L 110.87385 240.317402 
L 113.052739 208.453614 
L 115.231629 216.006326 
L 117.410519 198.706472 
L 119.589408 177.155333 
L 121.768298 174.255298 
L 123.947187 158.897473 
L 126.126077 173.195566 
L 128.304966 172.560528 
L 130.483856 146.318129 
L 132.662746 154.360666 
L 134.841635 145.696109 
L 137.020525 161.998775 
L 139.199414 145.802783 
L 141.378304 136.848182 
L 143.557193 136.889023 
L 145.736083 146.115977 
L 147.914973 135.305468 
L 150.093862 129.207226 
L 152.272752 129.386857 
L 154.451641 127.167075 
L 156.630531 129.218977 
L 158.80942 126.253972 
L 163.1672 132.0911 
L 165.346089 128.866739 
L 167.524979 124.724422 
L 171.882758 130.875326 
L 174.061647 131.560492 
L 176.240537 127.095812 
L 178.419426 126.362624 
L 180.598316 131.269593 
L 182.777206 126.13145 
L 184.956095 125.34486 
L 187.134985 127.330389 
L 189.313874 128.361154 
L 191.492764 126.582215 
L 193.671653 131.30243 
L 195.850543 132.827165 
L 198.029433 125.408529 
L 200.208322 129.350116 
L 202.387212 126.286195 
L 204.566101 126.6648 
L 206.744991 130.878137 
L 208.92388 126.770225 
L 211.10277 129.818454 
L 213.28166 126.617109 
L 215.460549 128.273533 
L 217.639439 128.35304 
L 219.818328 124.771226 
L 221.997218 133.710611 
L 224.176107 125.223787 
L 226.354997 124.035865 
L 228.533887 130.748532 
L 230.712776 130.977155 
L 232.891666 127.247517 
L 235.070555 125.165802 
L 237.249445 126.254409 
L 239.428334 130.37451 
L 241.607224 125.409328 
L 243.786113 120.927072 
L 245.965003 125.552761 
L 248.143893 121.817179 
L 250.322782 123.872751 
L 252.501672 127.918261 
L 254.680561 131.302712 
L 256.859451 121.970765 
L 259.03834 125.277459 
L 261.21723 131.51961 
L 263.39612 118.843398 
L 265.575009 128.200244 
L 267.753899 122.156262 
L 269.932788 121.547281 
L 272.111678 125.740707 
L 274.290567 127.324886 
L 276.469457 124.2597 
L 278.648347 119.256027 
L 280.827236 130.225011 
L 283.006126 124.510929 
L 285.185015 122.48333 
L 287.363905 119.686872 
L 289.542794 121.854203 
L 291.721684 118.570365 
L 293.900574 119.659771 
L 296.079463 118.958981 
L 298.258353 117.97184 
L 300.437242 121.217514 
L 302.616132 118.601795 
L 304.795021 119.994261 
L 306.973911 120.042868 
L 309.1528 120.360299 
L 311.33169 123.223313 
L 313.51058 119.286508 
L 315.689469 120.859905 
L 317.868359 121.3512 
L 320.047248 119.154188 
L 322.226138 122.044992 
L 324.405027 119.456791 
L 326.583917 119.914819 
L 328.762807 119.470896 
L 330.941696 118.08547 
L 333.120586 120.403072 
L 335.299475 121.140439 
L 337.478365 120.787797 
L 339.657254 120.745353 
L 341.836144 119.840924 
L 344.015034 120.348942 
L 346.193923 118.443896 
L 348.372813 119.239082 
L 350.551702 118.126181 
L 352.730592 119.632473 
L 357.088371 119.795859 
L 359.267261 120.244599 
L 361.44615 119.119617 
L 363.62504 118.753726 
L 365.803929 119.139296 
L 367.982819 121.204992 
L 370.161708 116.913587 
L 372.340598 118.864488 
L 374.519487 119.079898 
L 376.698377 119.704684 
L 378.877267 122.326795 
L 381.056156 119.90107 
L 383.235046 118.374615 
L 385.413935 117.961695 
L 387.592825 119.147807 
L 389.771714 119.056818 
L 391.950604 120.983566 
L 394.129494 117.292849 
L 396.308383 116.888835 
L 398.487273 117.348278 
L 398.487273 117.348278 
" clip-path="url(#p3a6b38306e)" style="fill: none; stroke: #ff7f0e; stroke-linecap: square"/>
   </g>
   <g id="line2d_17">
    <path d="M 73.832727 158.618102 
L 76.011617 156.929803 
L 78.190506 233.186862 
L 80.369396 143.400729 
L 82.548286 256.515261 
L 84.727175 230.150263 
L 86.906065 185.351593 
L 91.263844 172.347401 
L 93.442733 153.306758 
L 95.621623 142.103055 
L 97.800513 122.208686 
L 99.979402 116.9165 
L 102.158292 118.995782 
L 104.337181 115.352977 
L 106.516071 105.902333 
L 108.69496 101.139285 
L 110.87385 103.247005 
L 113.052739 103.816703 
L 115.231629 97.663223 
L 117.410519 101.20401 
L 119.589408 99.150614 
L 121.768298 97.826385 
L 123.947187 98.853506 
L 126.126077 98.301542 
L 128.304966 97.980198 
L 130.483856 98.328663 
L 132.662746 96.611815 
L 134.841635 100.026827 
L 137.020525 97.097946 
L 139.199414 95.977641 
L 141.378304 97.147099 
L 143.557193 96.563146 
L 145.736083 95.149503 
L 147.914973 96.743465 
L 150.093862 96.722294 
L 152.272752 96.569671 
L 154.451641 95.141381 
L 156.630531 95.413013 
L 158.80942 95.937576 
L 160.98831 94.294268 
L 165.346089 92.574917 
L 167.524979 92.424814 
L 169.703868 93.76463 
L 171.882758 92.126564 
L 174.061647 92.916166 
L 176.240537 91.86866 
L 178.419426 92.499795 
L 180.598316 92.092289 
L 182.777206 94.423149 
L 184.956095 91.904561 
L 187.134985 93.809238 
L 189.313874 91.657695 
L 191.492764 91.783581 
L 193.671653 90.947997 
L 195.850543 93.009667 
L 198.029433 91.198741 
L 200.208322 91.152885 
L 202.387212 91.950382 
L 204.566101 90.974438 
L 206.744991 91.376615 
L 208.92388 91.367001 
L 211.10277 90.444272 
L 213.28166 91.175258 
L 215.460549 91.342652 
L 217.639439 90.964509 
L 219.818328 92.193042 
L 221.997218 90.028248 
L 224.176107 91.793806 
L 226.354997 90.728666 
L 228.533887 90.176114 
L 230.712776 90.176035 
L 232.891666 91.521268 
L 235.070555 90.192067 
L 237.249445 90.434427 
L 239.428334 91.667539 
L 241.607224 90.576095 
L 243.786113 90.799765 
L 245.965003 91.526272 
L 250.322782 89.85965 
L 252.501672 90.789441 
L 254.680561 90.964485 
L 256.859451 90.672932 
L 259.03834 90.993318 
L 261.21723 90.080279 
L 263.39612 89.903703 
L 265.575009 90.064009 
L 267.753899 90.801739 
L 269.932788 91.288998 
L 272.111678 90.777965 
L 274.290567 89.811415 
L 276.469457 90.932119 
L 278.648347 90.55861 
L 280.827236 90.338449 
L 283.006126 90.338306 
L 287.363905 89.730776 
L 289.542794 91.536252 
L 296.079463 90.277003 
L 298.258353 90.486869 
L 300.437242 90.358994 
L 302.616132 92.808747 
L 304.795021 90.724198 
L 311.33169 90.731833 
L 313.51058 89.535955 
L 315.689469 90.218295 
L 320.047248 90.820241 
L 322.226138 90.376291 
L 324.405027 91.699092 
L 326.583917 90.411772 
L 328.762807 90.483114 
L 330.941696 91.037573 
L 333.120586 91.009581 
L 335.299475 90.510039 
L 337.478365 92.457705 
L 339.657254 92.263234 
L 341.836144 91.06893 
L 344.015034 91.281002 
L 346.193923 90.867939 
L 348.372813 90.689311 
L 350.551702 91.798063 
L 352.730592 90.210511 
L 354.909481 91.679001 
L 357.088371 90.251806 
L 359.267261 91.228822 
L 361.44615 90.011727 
L 363.62504 90.175994 
L 365.803929 90.210936 
L 370.161708 89.968139 
L 372.340598 90.297314 
L 374.519487 90.42697 
L 376.698377 90.424468 
L 378.877267 90.946426 
L 381.056156 89.818323 
L 383.235046 90.236302 
L 385.413935 92.114454 
L 387.592825 91.122537 
L 389.771714 91.283235 
L 391.950604 91.130391 
L 394.129494 90.311374 
L 396.308383 90.370653 
L 398.487273 89.341757 
L 398.487273 89.341757 
" clip-path="url(#p3a6b38306e)" style="fill: none; stroke: #2ca02c; stroke-linecap: square"/>
   </g>
   <g id="line2d_18">
    <path d="M 73.832727 150.20901 
L 76.011617 232.765215 
L 78.190506 160.272296 
L 80.369396 263.370102 
L 82.548286 301.389605 
L 84.727175 295.938145 
L 86.906065 295.282658 
L 89.084954 254.631432 
L 91.263844 264.789944 
L 93.442733 261.714896 
L 95.621623 185.576933 
L 97.800513 191.395318 
L 99.979402 113.785168 
L 102.158292 95.832728 
L 104.337181 99.070152 
L 106.516071 121.635261 
L 108.69496 94.607745 
L 110.87385 98.363419 
L 113.052739 92.740683 
L 115.231629 94.648826 
L 117.410519 95.168046 
L 119.589408 94.828214 
L 121.768298 98.451584 
L 123.947187 95.084066 
L 126.126077 94.289664 
L 128.304966 92.284559 
L 130.483856 91.881284 
L 132.662746 92.68301 
L 134.841635 92.039011 
L 137.020525 91.079666 
L 139.199414 96.040471 
L 141.378304 92.851617 
L 143.557193 91.80407 
L 145.736083 91.131228 
L 147.914973 91.714222 
L 150.093862 91.280916 
L 152.272752 91.844064 
L 154.451641 91.860051 
L 156.630531 91.122444 
L 158.80942 89.796997 
L 160.98831 90.719032 
L 163.1672 89.872657 
L 165.346089 90.739555 
L 167.524979 90.01405 
L 169.703868 90.091757 
L 174.061647 89.608644 
L 176.240537 90.295662 
L 178.419426 90.026323 
L 180.598316 89.170809 
L 184.956095 90.177289 
L 187.134985 88.943764 
L 191.492764 89.633596 
L 193.671653 88.877051 
L 195.850543 88.603971 
L 198.029433 89.570058 
L 202.387212 88.939533 
L 206.744991 89.34102 
L 208.92388 89.603972 
L 211.10277 89.370596 
L 213.28166 89.37797 
L 215.460549 88.89507 
L 219.818328 88.830574 
L 221.997218 89.243638 
L 224.176107 89.222992 
L 226.354997 88.822096 
L 228.533887 90.503426 
L 230.712776 89.659198 
L 232.891666 89.078653 
L 235.070555 88.991828 
L 237.249445 89.410511 
L 239.428334 88.559658 
L 241.607224 89.116854 
L 245.965003 89.520368 
L 248.143893 89.167592 
L 250.322782 88.295818 
L 254.680561 89.191378 
L 256.859451 89.116253 
L 259.03834 89.294422 
L 261.21723 89.241142 
L 263.39612 89.599074 
L 265.575009 89.047403 
L 267.753899 89.96913 
L 269.932788 88.920927 
L 272.111678 88.626307 
L 276.469457 88.373283 
L 278.648347 89.207395 
L 280.827236 88.978028 
L 285.185015 89.805888 
L 287.363905 88.973052 
L 289.542794 88.495773 
L 291.721684 88.752604 
L 293.900574 89.277068 
L 296.079463 88.100583 
L 298.258353 88.951773 
L 300.437242 88.541711 
L 302.616132 88.875883 
L 304.795021 89.583969 
L 306.973911 88.18633 
L 309.1528 88.75814 
L 311.33169 88.62373 
L 313.51058 89.513087 
L 315.689469 87.877329 
L 317.868359 88.028011 
L 320.047248 88.710321 
L 322.226138 88.1441 
L 324.405027 88.14342 
L 326.583917 89.241659 
L 328.762807 88.842461 
L 330.941696 89.269719 
L 333.120586 88.177259 
L 335.299475 88.675682 
L 337.478365 88.420541 
L 339.657254 88.63515 
L 341.836144 88.455633 
L 346.193923 89.037338 
L 348.372813 87.76782 
L 350.551702 88.810117 
L 352.730592 89.479413 
L 354.909481 88.337644 
L 357.088371 87.851455 
L 361.44615 88.794614 
L 363.62504 88.649594 
L 365.803929 88.09462 
L 367.982819 88.843881 
L 370.161708 88.754738 
L 372.340598 88.515492 
L 374.519487 87.953021 
L 376.698377 88.548531 
L 378.877267 88.695363 
L 383.235046 87.89686 
L 385.413935 88.876415 
L 387.592825 88.332398 
L 389.771714 88.312168 
L 391.950604 88.853802 
L 394.129494 89.206348 
L 396.308383 88.607049 
L 398.487273 89.10043 
L 398.487273 89.10043 
" clip-path="url(#p3a6b38306e)" style="fill: none; stroke: #d62728; stroke-linecap: square"/>
   </g>
   <g id="patch_3">
    <path d="M 57.6 307.584 
L 57.6 41.472 
" style="fill: none; stroke: #000000; stroke-width: 0.8; stroke-linejoin: miter; stroke-linecap: square"/>
   </g>
   <g id="patch_4">
    <path d="M 414.72 307.584 
L 414.72 41.472 
" style="fill: none; stroke: #000000; stroke-width: 0.8; stroke-linejoin: miter; stroke-linecap: square"/>
   </g>
   <g id="patch_5">
    <path d="M 57.6 307.584 
L 414.72 307.584 
" style="fill: none; stroke: #000000; stroke-width: 0.8; stroke-linejoin: miter; stroke-linecap: square"/>
   </g>
   <g id="patch_6">
    <path d="M 57.6 41.472 
L 414.72 41.472 
" style="fill: none; stroke: #000000; stroke-width: 0.8; stroke-linejoin: miter; stroke-linecap: square"/>
   </g>
   <g id="text_16">
    <!-- Accuracy of SdWgt -->
    <g transform="translate(179.457188 35.472) scale(0.12 -0.12)">
     <defs>
      <path id="DejaVuSans-41" d="M 2188 4044 
L 1331 1722 
L 3047 1722 
L 2188 4044 
z
M 1831 4666 
L 2547 4666 
L 4325 0 
L 3669 0 
L 3244 1197 
L 1141 1197 
L 716 0 
L 50 0 
L 1831 4666 
z
" transform="scale(0.015625)"/>
      <path id="DejaVuSans-75" d="M 544 1381 
L 544 3500 
L 1119 3500 
L 1119 1403 
Q 1119 906 1312 657 
Q 1506 409 1894 409 
Q 2359 409 2629 706 
Q 2900 1003 2900 1516 
L 2900 3500 
L 3475 3500 
L 3475 0 
L 2900 0 
L 2900 538 
Q 2691 219 2414 64 
Q 2138 -91 1772 -91 
Q 1169 -91 856 284 
Q 544 659 544 1381 
z
M 1991 3584 
L 1991 3584 
z
" transform="scale(0.015625)"/>
      <path id="DejaVuSans-72" d="M 2631 2963 
Q 2534 3019 2420 3045 
Q 2306 3072 2169 3072 
Q 1681 3072 1420 2755 
Q 1159 2438 1159 1844 
L 1159 0 
L 581 0 
L 581 3500 
L 1159 3500 
L 1159 2956 
Q 1341 3275 1631 3429 
Q 1922 3584 2338 3584 
Q 2397 3584 2469 3576 
Q 2541 3569 2628 3553 
L 2631 2963 
z
" transform="scale(0.015625)"/>
      <path id="DejaVuSans-61" d="M 2194 1759 
Q 1497 1759 1228 1600 
Q 959 1441 959 1056 
Q 959 750 1161 570 
Q 1363 391 1709 391 
Q 2188 391 2477 730 
Q 2766 1069 2766 1631 
L 2766 1759 
L 2194 1759 
z
M 3341 1997 
L 3341 0 
L 2766 0 
L 2766 531 
Q 2569 213 2275 61 
Q 1981 -91 1556 -91 
Q 1019 -91 701 211 
Q 384 513 384 1019 
Q 384 1609 779 1909 
Q 1175 2209 1959 2209 
L 2766 2209 
L 2766 2266 
Q 2766 2663 2505 2880 
Q 2244 3097 1772 3097 
Q 1472 3097 1187 3025 
Q 903 2953 641 2809 
L 641 3341 
Q 956 3463 1253 3523 
Q 1550 3584 1831 3584 
Q 2591 3584 2966 3190 
Q 3341 2797 3341 1997 
z
" transform="scale(0.015625)"/>
      <path id="DejaVuSans-79" d="M 2059 -325 
Q 1816 -950 1584 -1140 
Q 1353 -1331 966 -1331 
L 506 -1331 
L 506 -850 
L 844 -850 
Q 1081 -850 1212 -737 
Q 1344 -625 1503 -206 
L 1606 56 
L 191 3500 
L 800 3500 
L 1894 763 
L 2988 3500 
L 3597 3500 
L 2059 -325 
z
" transform="scale(0.015625)"/>
      <path id="DejaVuSans-20" transform="scale(0.015625)"/>
      <path id="DejaVuSans-66" d="M 2375 4863 
L 2375 4384 
L 1825 4384 
Q 1516 4384 1395 4259 
Q 1275 4134 1275 3809 
L 1275 3500 
L 2222 3500 
L 2222 3053 
L 1275 3053 
L 1275 0 
L 697 0 
L 697 3053 
L 147 3053 
L 147 3500 
L 697 3500 
L 697 3744 
Q 697 4328 969 4595 
Q 1241 4863 1831 4863 
L 2375 4863 
z
" transform="scale(0.015625)"/>
      <path id="DejaVuSans-53" d="M 3425 4513 
L 3425 3897 
Q 3066 4069 2747 4153 
Q 2428 4238 2131 4238 
Q 1616 4238 1336 4038 
Q 1056 3838 1056 3469 
Q 1056 3159 1242 3001 
Q 1428 2844 1947 2747 
L 2328 2669 
Q 3034 2534 3370 2195 
Q 3706 1856 3706 1288 
Q 3706 609 3251 259 
Q 2797 -91 1919 -91 
Q 1588 -91 1214 -16 
Q 841 59 441 206 
L 441 856 
Q 825 641 1194 531 
Q 1563 422 1919 422 
Q 2459 422 2753 634 
Q 3047 847 3047 1241 
Q 3047 1584 2836 1778 
Q 2625 1972 2144 2069 
L 1759 2144 
Q 1053 2284 737 2584 
Q 422 2884 422 3419 
Q 422 4038 858 4394 
Q 1294 4750 2059 4750 
Q 2388 4750 2728 4690 
Q 3069 4631 3425 4513 
z
" transform="scale(0.015625)"/>
      <path id="DejaVuSans-64" d="M 2906 2969 
L 2906 4863 
L 3481 4863 
L 3481 0 
L 2906 0 
L 2906 525 
Q 2725 213 2448 61 
Q 2172 -91 1784 -91 
Q 1150 -91 751 415 
Q 353 922 353 1747 
Q 353 2572 751 3078 
Q 1150 3584 1784 3584 
Q 2172 3584 2448 3432 
Q 2725 3281 2906 2969 
z
M 947 1747 
Q 947 1113 1208 752 
Q 1469 391 1925 391 
Q 2381 391 2643 752 
Q 2906 1113 2906 1747 
Q 2906 2381 2643 2742 
Q 2381 3103 1925 3103 
Q 1469 3103 1208 2742 
Q 947 2381 947 1747 
z
" transform="scale(0.015625)"/>
      <path id="DejaVuSans-57" d="M 213 4666 
L 850 4666 
L 1831 722 
L 2809 4666 
L 3519 4666 
L 4500 722 
L 5478 4666 
L 6119 4666 
L 4947 0 
L 4153 0 
L 3169 4050 
L 2175 0 
L 1381 0 
L 213 4666 
z
" transform="scale(0.015625)"/>
      <path id="DejaVuSans-67" d="M 2906 1791 
Q 2906 2416 2648 2759 
Q 2391 3103 1925 3103 
Q 1463 3103 1205 2759 
Q 947 2416 947 1791 
Q 947 1169 1205 825 
Q 1463 481 1925 481 
Q 2391 481 2648 825 
Q 2906 1169 2906 1791 
z
M 3481 434 
Q 3481 -459 3084 -895 
Q 2688 -1331 1869 -1331 
Q 1566 -1331 1297 -1286 
Q 1028 -1241 775 -1147 
L 775 -588 
Q 1028 -725 1275 -790 
Q 1522 -856 1778 -856 
Q 2344 -856 2625 -561 
Q 2906 -266 2906 331 
L 2906 616 
Q 2728 306 2450 153 
Q 2172 0 1784 0 
Q 1141 0 747 490 
Q 353 981 353 1791 
Q 353 2603 747 3093 
Q 1141 3584 1784 3584 
Q 2172 3584 2450 3431 
Q 2728 3278 2906 2969 
L 2906 3500 
L 3481 3500 
L 3481 434 
z
" transform="scale(0.015625)"/>
      <path id="DejaVuSans-74" d="M 1172 4494 
L 1172 3500 
L 2356 3500 
L 2356 3053 
L 1172 3053 
L 1172 1153 
Q 1172 725 1289 603 
Q 1406 481 1766 481 
L 2356 481 
L 2356 0 
L 1766 0 
Q 1100 0 847 248 
Q 594 497 594 1153 
L 594 3053 
L 172 3053 
L 172 3500 
L 594 3500 
L 594 4494 
L 1172 4494 
z
" transform="scale(0.015625)"/>
     </defs>
     <use xlink:href="#DejaVuSans-41"/>
     <use xlink:href="#DejaVuSans-63" x="66.658203"/>
     <use xlink:href="#DejaVuSans-63" x="121.638672"/>
     <use xlink:href="#DejaVuSans-75" x="176.619141"/>
     <use xlink:href="#DejaVuSans-72" x="239.998047"/>
     <use xlink:href="#DejaVuSans-61" x="281.111328"/>
     <use xlink:href="#DejaVuSans-63" x="342.390625"/>
     <use xlink:href="#DejaVuSans-79" x="397.371094"/>
     <use xlink:href="#DejaVuSans-20" x="456.550781"/>
     <use xlink:href="#DejaVuSans-6f" x="488.337891"/>
     <use xlink:href="#DejaVuSans-66" x="549.519531"/>
     <use xlink:href="#DejaVuSans-20" x="584.724609"/>
     <use xlink:href="#DejaVuSans-53" x="616.511719"/>
     <use xlink:href="#DejaVuSans-64" x="679.988281"/>
     <use xlink:href="#DejaVuSans-57" x="743.464844"/>
     <use xlink:href="#DejaVuSans-67" x="842.341797"/>
     <use xlink:href="#DejaVuSans-74" x="905.818359"/>
    </g>
   </g>
   <g id="legend_1">
    <g id="patch_7">
     <path d="M 299.162188 302.584 
L 407.72 302.584 
Q 409.72 302.584 409.72 300.584 
L 409.72 242.8715 
Q 409.72 240.8715 407.72 240.8715 
L 299.162188 240.8715 
Q 297.162188 240.8715 297.162188 242.8715 
L 297.162188 300.584 
Q 297.162188 302.584 299.162188 302.584 
z
" style="fill: #ffffff; opacity: 0.8; stroke: #cccccc; stroke-linejoin: miter"/>
    </g>
    <g id="line2d_19">
     <path d="M 301.162188 248.969937 
L 311.162188 248.969937 
L 321.162188 248.969937 
" style="fill: none; stroke: #1f77b4; stroke-linecap: square"/>
    </g>
    <g id="text_17">
     <!-- 2000 samples -->
     <g transform="translate(329.162188 252.469937) scale(0.1 -0.1)">
      <defs>
       <path id="DejaVuSans-73" d="M 2834 3397 
L 2834 2853 
Q 2591 2978 2328 3040 
Q 2066 3103 1784 3103 
Q 1356 3103 1142 2972 
Q 928 2841 928 2578 
Q 928 2378 1081 2264 
Q 1234 2150 1697 2047 
L 1894 2003 
Q 2506 1872 2764 1633 
Q 3022 1394 3022 966 
Q 3022 478 2636 193 
Q 2250 -91 1575 -91 
Q 1294 -91 989 -36 
Q 684 19 347 128 
L 347 722 
Q 666 556 975 473 
Q 1284 391 1588 391 
Q 1994 391 2212 530 
Q 2431 669 2431 922 
Q 2431 1156 2273 1281 
Q 2116 1406 1581 1522 
L 1381 1569 
Q 847 1681 609 1914 
Q 372 2147 372 2553 
Q 372 3047 722 3315 
Q 1072 3584 1716 3584 
Q 2034 3584 2315 3537 
Q 2597 3491 2834 3397 
z
" transform="scale(0.015625)"/>
       <path id="DejaVuSans-6d" d="M 3328 2828 
Q 3544 3216 3844 3400 
Q 4144 3584 4550 3584 
Q 5097 3584 5394 3201 
Q 5691 2819 5691 2113 
L 5691 0 
L 5113 0 
L 5113 2094 
Q 5113 2597 4934 2840 
Q 4756 3084 4391 3084 
Q 3944 3084 3684 2787 
Q 3425 2491 3425 1978 
L 3425 0 
L 2847 0 
L 2847 2094 
Q 2847 2600 2669 2842 
Q 2491 3084 2119 3084 
Q 1678 3084 1418 2786 
Q 1159 2488 1159 1978 
L 1159 0 
L 581 0 
L 581 3500 
L 1159 3500 
L 1159 2956 
Q 1356 3278 1631 3431 
Q 1906 3584 2284 3584 
Q 2666 3584 2933 3390 
Q 3200 3197 3328 2828 
z
" transform="scale(0.015625)"/>
       <path id="DejaVuSans-6c" d="M 603 4863 
L 1178 4863 
L 1178 0 
L 603 0 
L 603 4863 
z
" transform="scale(0.015625)"/>
      </defs>
      <use xlink:href="#DejaVuSans-32"/>
      <use xlink:href="#DejaVuSans-30" x="63.623047"/>
      <use xlink:href="#DejaVuSans-30" x="127.246094"/>
      <use xlink:href="#DejaVuSans-30" x="190.869141"/>
      <use xlink:href="#DejaVuSans-20" x="254.492188"/>
      <use xlink:href="#DejaVuSans-73" x="286.279297"/>
      <use xlink:href="#DejaVuSans-61" x="338.378906"/>
      <use xlink:href="#DejaVuSans-6d" x="399.658203"/>
      <use xlink:href="#DejaVuSans-70" x="497.070312"/>
      <use xlink:href="#DejaVuSans-6c" x="560.546875"/>
      <use xlink:href="#DejaVuSans-65" x="588.330078"/>
      <use xlink:href="#DejaVuSans-73" x="649.853516"/>
     </g>
    </g>
    <g id="line2d_20">
     <path d="M 301.162188 263.648062 
L 311.162188 263.648062 
L 321.162188 263.648062 
" style="fill: none; stroke: #ff7f0e; stroke-linecap: square"/>
    </g>
    <g id="text_18">
     <!-- 5000 samples -->
     <g transform="translate(329.162188 267.148062) scale(0.1 -0.1)">
      <defs>
       <path id="DejaVuSans-35" d="M 691 4666 
L 3169 4666 
L 3169 4134 
L 1269 4134 
L 1269 2991 
Q 1406 3038 1543 3061 
Q 1681 3084 1819 3084 
Q 2600 3084 3056 2656 
Q 3513 2228 3513 1497 
Q 3513 744 3044 326 
Q 2575 -91 1722 -91 
Q 1428 -91 1123 -41 
Q 819 9 494 109 
L 494 744 
Q 775 591 1075 516 
Q 1375 441 1709 441 
Q 2250 441 2565 725 
Q 2881 1009 2881 1497 
Q 2881 1984 2565 2268 
Q 2250 2553 1709 2553 
Q 1456 2553 1204 2497 
Q 953 2441 691 2322 
L 691 4666 
z
" transform="scale(0.015625)"/>
      </defs>
      <use xlink:href="#DejaVuSans-35"/>
      <use xlink:href="#DejaVuSans-30" x="63.623047"/>
      <use xlink:href="#DejaVuSans-30" x="127.246094"/>
      <use xlink:href="#DejaVuSans-30" x="190.869141"/>
      <use xlink:href="#DejaVuSans-20" x="254.492188"/>
      <use xlink:href="#DejaVuSans-73" x="286.279297"/>
      <use xlink:href="#DejaVuSans-61" x="338.378906"/>
      <use xlink:href="#DejaVuSans-6d" x="399.658203"/>
      <use xlink:href="#DejaVuSans-70" x="497.070312"/>
      <use xlink:href="#DejaVuSans-6c" x="560.546875"/>
      <use xlink:href="#DejaVuSans-65" x="588.330078"/>
      <use xlink:href="#DejaVuSans-73" x="649.853516"/>
     </g>
    </g>
    <g id="line2d_21">
     <path d="M 301.162188 278.326187 
L 311.162188 278.326187 
L 321.162188 278.326187 
" style="fill: none; stroke: #2ca02c; stroke-linecap: square"/>
    </g>
    <g id="text_19">
     <!-- 8000 samples -->
     <g transform="translate(329.162188 281.826187) scale(0.1 -0.1)">
      <use xlink:href="#DejaVuSans-38"/>
      <use xlink:href="#DejaVuSans-30" x="63.623047"/>
      <use xlink:href="#DejaVuSans-30" x="127.246094"/>
      <use xlink:href="#DejaVuSans-30" x="190.869141"/>
      <use xlink:href="#DejaVuSans-20" x="254.492188"/>
      <use xlink:href="#DejaVuSans-73" x="286.279297"/>
      <use xlink:href="#DejaVuSans-61" x="338.378906"/>
      <use xlink:href="#DejaVuSans-6d" x="399.658203"/>
      <use xlink:href="#DejaVuSans-70" x="497.070312"/>
      <use xlink:href="#DejaVuSans-6c" x="560.546875"/>
      <use xlink:href="#DejaVuSans-65" x="588.330078"/>
      <use xlink:href="#DejaVuSans-73" x="649.853516"/>
     </g>
    </g>
    <g id="line2d_22">
     <path d="M 301.162188 293.004312 
L 311.162188 293.004312 
L 321.162188 293.004312 
" style="fill: none; stroke: #d62728; stroke-linecap: square"/>
    </g>
    <g id="text_20">
     <!-- 10000 samples -->
     <g transform="translate(329.162188 296.504312) scale(0.1 -0.1)">
      <use xlink:href="#DejaVuSans-31"/>
      <use xlink:href="#DejaVuSans-30" x="63.623047"/>
      <use xlink:href="#DejaVuSans-30" x="127.246094"/>
      <use xlink:href="#DejaVuSans-30" x="190.869141"/>
      <use xlink:href="#DejaVuSans-30" x="254.492188"/>
      <use xlink:href="#DejaVuSans-20" x="318.115234"/>
      <use xlink:href="#DejaVuSans-73" x="349.902344"/>
      <use xlink:href="#DejaVuSans-61" x="402.001953"/>
      <use xlink:href="#DejaVuSans-6d" x="463.28125"/>
      <use xlink:href="#DejaVuSans-70" x="560.693359"/>
      <use xlink:href="#DejaVuSans-6c" x="624.169922"/>
      <use xlink:href="#DejaVuSans-65" x="651.953125"/>
      <use xlink:href="#DejaVuSans-73" x="713.476562"/>
     </g>
    </g>
   </g>
  </g>
 </g>
 <defs>
  <clipPath id="p3a6b38306e">
   <rect x="57.6" y="41.472" width="357.12" height="266.112"/>
  </clipPath>
 </defs>
</svg>
