<?xml version="1.0" encoding="utf-8" standalone="no"?>
<!DOCTYPE svg PUBLIC "-//W3C//DTD SVG 1.1//EN"
  "http://www.w3.org/Graphics/SVG/1.1/DTD/svg11.dtd">
<svg xmlns:xlink="http://www.w3.org/1999/xlink" width="460.8pt" height="345.6pt" viewBox="0 0 460.8 345.6" xmlns="http://www.w3.org/2000/svg" version="1.1">
 <metadata>
  <rdf:RDF xmlns:dc="http://purl.org/dc/elements/1.1/" xmlns:cc="http://creativecommons.org/ns#" xmlns:rdf="http://www.w3.org/1999/02/22-rdf-syntax-ns#">
   <cc:Work>
    <dc:type rdf:resource="http://purl.org/dc/dcmitype/StillImage"/>
    <dc:date>2023-09-13T16:28:02.824138</dc:date>
    <dc:format>image/svg+xml</dc:format>
    <dc:creator>
     <cc:Agent>
      <dc:title>Matplotlib v3.7.1, https://matplotlib.org/</dc:title>
     </cc:Agent>
    </dc:creator>
   </cc:Work>
  </rdf:RDF>
 </metadata>
 <defs>
  <style type="text/css">*{stroke-linejoin: round; stroke-linecap: butt}</style>
 </defs>
 <g id="figure_1">
  <g id="patch_1">
   <path d="M 0 345.6 
L 460.8 345.6 
L 460.8 0 
L 0 0 
z
" style="fill: #ffffff"/>
  </g>
  <g id="axes_1">
   <g id="patch_2">
    <path d="M 57.6 307.584 
L 414.72 307.584 
L 414.72 41.472 
L 57.6 41.472 
z
" style="fill: #ffffff"/>
   </g>
   <g id="matplotlib.axis_1">
    <g id="xtick_1">
     <g id="line2d_1">
      <defs>
       <path id="m918b9fd134" d="M 0 0 
L 0 3.5 
" style="stroke: #000000; stroke-width: 0.8"/>
      </defs>
      <g>
       <use xlink:href="#m918b9fd134" x="71.653838" y="307.584" style="stroke: #000000; stroke-width: 0.8"/>
      </g>
     </g>
     <g id="text_1">
      <!-- 0 -->
      <g transform="translate(68.472588 322.182437) scale(0.1 -0.1)">
       <defs>
        <path id="DejaVuSans-30" d="M 2034 4250 
Q 1547 4250 1301 3770 
Q 1056 3291 1056 2328 
Q 1056 1369 1301 889 
Q 1547 409 2034 409 
Q 2525 409 2770 889 
Q 3016 1369 3016 2328 
Q 3016 3291 2770 3770 
Q 2525 4250 2034 4250 
z
M 2034 4750 
Q 2819 4750 3233 4129 
Q 3647 3509 3647 2328 
Q 3647 1150 3233 529 
Q 2819 -91 2034 -91 
Q 1250 -91 836 529 
Q 422 1150 422 2328 
Q 422 3509 836 4129 
Q 1250 4750 2034 4750 
z
" transform="scale(0.015625)"/>
       </defs>
       <use xlink:href="#DejaVuSans-30"/>
      </g>
     </g>
    </g>
    <g id="xtick_2">
     <g id="line2d_2">
      <g>
       <use xlink:href="#m918b9fd134" x="115.231629" y="307.584" style="stroke: #000000; stroke-width: 0.8"/>
      </g>
     </g>
     <g id="text_2">
      <!-- 20 -->
      <g transform="translate(108.869129 322.182437) scale(0.1 -0.1)">
       <defs>
        <path id="DejaVuSans-32" d="M 1228 531 
L 3431 531 
L 3431 0 
L 469 0 
L 469 531 
Q 828 903 1448 1529 
Q 2069 2156 2228 2338 
Q 2531 2678 2651 2914 
Q 2772 3150 2772 3378 
Q 2772 3750 2511 3984 
Q 2250 4219 1831 4219 
Q 1534 4219 1204 4116 
Q 875 4013 500 3803 
L 500 4441 
Q 881 4594 1212 4672 
Q 1544 4750 1819 4750 
Q 2544 4750 2975 4387 
Q 3406 4025 3406 3419 
Q 3406 3131 3298 2873 
Q 3191 2616 2906 2266 
Q 2828 2175 2409 1742 
Q 1991 1309 1228 531 
z
" transform="scale(0.015625)"/>
       </defs>
       <use xlink:href="#DejaVuSans-32"/>
       <use xlink:href="#DejaVuSans-30" x="63.623047"/>
      </g>
     </g>
    </g>
    <g id="xtick_3">
     <g id="line2d_3">
      <g>
       <use xlink:href="#m918b9fd134" x="158.80942" y="307.584" style="stroke: #000000; stroke-width: 0.8"/>
      </g>
     </g>
     <g id="text_3">
      <!-- 40 -->
      <g transform="translate(152.44692 322.182437) scale(0.1 -0.1)">
       <defs>
        <path id="DejaVuSans-34" d="M 2419 4116 
L 825 1625 
L 2419 1625 
L 2419 4116 
z
M 2253 4666 
L 3047 4666 
L 3047 1625 
L 3713 1625 
L 3713 1100 
L 3047 1100 
L 3047 0 
L 2419 0 
L 2419 1100 
L 313 1100 
L 313 1709 
L 2253 4666 
z
" transform="scale(0.015625)"/>
       </defs>
       <use xlink:href="#DejaVuSans-34"/>
       <use xlink:href="#DejaVuSans-30" x="63.623047"/>
      </g>
     </g>
    </g>
    <g id="xtick_4">
     <g id="line2d_4">
      <g>
       <use xlink:href="#m918b9fd134" x="202.387212" y="307.584" style="stroke: #000000; stroke-width: 0.8"/>
      </g>
     </g>
     <g id="text_4">
      <!-- 60 -->
      <g transform="translate(196.024712 322.182437) scale(0.1 -0.1)">
       <defs>
        <path id="DejaVuSans-36" d="M 2113 2584 
Q 1688 2584 1439 2293 
Q 1191 2003 1191 1497 
Q 1191 994 1439 701 
Q 1688 409 2113 409 
Q 2538 409 2786 701 
Q 3034 994 3034 1497 
Q 3034 2003 2786 2293 
Q 2538 2584 2113 2584 
z
M 3366 4563 
L 3366 3988 
Q 3128 4100 2886 4159 
Q 2644 4219 2406 4219 
Q 1781 4219 1451 3797 
Q 1122 3375 1075 2522 
Q 1259 2794 1537 2939 
Q 1816 3084 2150 3084 
Q 2853 3084 3261 2657 
Q 3669 2231 3669 1497 
Q 3669 778 3244 343 
Q 2819 -91 2113 -91 
Q 1303 -91 875 529 
Q 447 1150 447 2328 
Q 447 3434 972 4092 
Q 1497 4750 2381 4750 
Q 2619 4750 2861 4703 
Q 3103 4656 3366 4563 
z
" transform="scale(0.015625)"/>
       </defs>
       <use xlink:href="#DejaVuSans-36"/>
       <use xlink:href="#DejaVuSans-30" x="63.623047"/>
      </g>
     </g>
    </g>
    <g id="xtick_5">
     <g id="line2d_5">
      <g>
       <use xlink:href="#m918b9fd134" x="245.965003" y="307.584" style="stroke: #000000; stroke-width: 0.8"/>
      </g>
     </g>
     <g id="text_5">
      <!-- 80 -->
      <g transform="translate(239.602503 322.182437) scale(0.1 -0.1)">
       <defs>
        <path id="DejaVuSans-38" d="M 2034 2216 
Q 1584 2216 1326 1975 
Q 1069 1734 1069 1313 
Q 1069 891 1326 650 
Q 1584 409 2034 409 
Q 2484 409 2743 651 
Q 3003 894 3003 1313 
Q 3003 1734 2745 1975 
Q 2488 2216 2034 2216 
z
M 1403 2484 
Q 997 2584 770 2862 
Q 544 3141 544 3541 
Q 544 4100 942 4425 
Q 1341 4750 2034 4750 
Q 2731 4750 3128 4425 
Q 3525 4100 3525 3541 
Q 3525 3141 3298 2862 
Q 3072 2584 2669 2484 
Q 3125 2378 3379 2068 
Q 3634 1759 3634 1313 
Q 3634 634 3220 271 
Q 2806 -91 2034 -91 
Q 1263 -91 848 271 
Q 434 634 434 1313 
Q 434 1759 690 2068 
Q 947 2378 1403 2484 
z
M 1172 3481 
Q 1172 3119 1398 2916 
Q 1625 2713 2034 2713 
Q 2441 2713 2670 2916 
Q 2900 3119 2900 3481 
Q 2900 3844 2670 4047 
Q 2441 4250 2034 4250 
Q 1625 4250 1398 4047 
Q 1172 3844 1172 3481 
z
" transform="scale(0.015625)"/>
       </defs>
       <use xlink:href="#DejaVuSans-38"/>
       <use xlink:href="#DejaVuSans-30" x="63.623047"/>
      </g>
     </g>
    </g>
    <g id="xtick_6">
     <g id="line2d_6">
      <g>
       <use xlink:href="#m918b9fd134" x="289.542794" y="307.584" style="stroke: #000000; stroke-width: 0.8"/>
      </g>
     </g>
     <g id="text_6">
      <!-- 100 -->
      <g transform="translate(279.999044 322.182437) scale(0.1 -0.1)">
       <defs>
        <path id="DejaVuSans-31" d="M 794 531 
L 1825 531 
L 1825 4091 
L 703 3866 
L 703 4441 
L 1819 4666 
L 2450 4666 
L 2450 531 
L 3481 531 
L 3481 0 
L 794 0 
L 794 531 
z
" transform="scale(0.015625)"/>
       </defs>
       <use xlink:href="#DejaVuSans-31"/>
       <use xlink:href="#DejaVuSans-30" x="63.623047"/>
       <use xlink:href="#DejaVuSans-30" x="127.246094"/>
      </g>
     </g>
    </g>
    <g id="xtick_7">
     <g id="line2d_7">
      <g>
       <use xlink:href="#m918b9fd134" x="333.120586" y="307.584" style="stroke: #000000; stroke-width: 0.8"/>
      </g>
     </g>
     <g id="text_7">
      <!-- 120 -->
      <g transform="translate(323.576836 322.182437) scale(0.1 -0.1)">
       <use xlink:href="#DejaVuSans-31"/>
       <use xlink:href="#DejaVuSans-32" x="63.623047"/>
       <use xlink:href="#DejaVuSans-30" x="127.246094"/>
      </g>
     </g>
    </g>
    <g id="xtick_8">
     <g id="line2d_8">
      <g>
       <use xlink:href="#m918b9fd134" x="376.698377" y="307.584" style="stroke: #000000; stroke-width: 0.8"/>
      </g>
     </g>
     <g id="text_8">
      <!-- 140 -->
      <g transform="translate(367.154627 322.182437) scale(0.1 -0.1)">
       <use xlink:href="#DejaVuSans-31"/>
       <use xlink:href="#DejaVuSans-34" x="63.623047"/>
       <use xlink:href="#DejaVuSans-30" x="127.246094"/>
      </g>
     </g>
    </g>
    <g id="text_9">
     <!-- epoch -->
     <g transform="translate(220.931875 335.860562) scale(0.1 -0.1)">
      <defs>
       <path id="DejaVuSans-65" d="M 3597 1894 
L 3597 1613 
L 953 1613 
Q 991 1019 1311 708 
Q 1631 397 2203 397 
Q 2534 397 2845 478 
Q 3156 559 3463 722 
L 3463 178 
Q 3153 47 2828 -22 
Q 2503 -91 2169 -91 
Q 1331 -91 842 396 
Q 353 884 353 1716 
Q 353 2575 817 3079 
Q 1281 3584 2069 3584 
Q 2775 3584 3186 3129 
Q 3597 2675 3597 1894 
z
M 3022 2063 
Q 3016 2534 2758 2815 
Q 2500 3097 2075 3097 
Q 1594 3097 1305 2825 
Q 1016 2553 972 2059 
L 3022 2063 
z
" transform="scale(0.015625)"/>
       <path id="DejaVuSans-70" d="M 1159 525 
L 1159 -1331 
L 581 -1331 
L 581 3500 
L 1159 3500 
L 1159 2969 
Q 1341 3281 1617 3432 
Q 1894 3584 2278 3584 
Q 2916 3584 3314 3078 
Q 3713 2572 3713 1747 
Q 3713 922 3314 415 
Q 2916 -91 2278 -91 
Q 1894 -91 1617 61 
Q 1341 213 1159 525 
z
M 3116 1747 
Q 3116 2381 2855 2742 
Q 2594 3103 2138 3103 
Q 1681 3103 1420 2742 
Q 1159 2381 1159 1747 
Q 1159 1113 1420 752 
Q 1681 391 2138 391 
Q 2594 391 2855 752 
Q 3116 1113 3116 1747 
z
" transform="scale(0.015625)"/>
       <path id="DejaVuSans-6f" d="M 1959 3097 
Q 1497 3097 1228 2736 
Q 959 2375 959 1747 
Q 959 1119 1226 758 
Q 1494 397 1959 397 
Q 2419 397 2687 759 
Q 2956 1122 2956 1747 
Q 2956 2369 2687 2733 
Q 2419 3097 1959 3097 
z
M 1959 3584 
Q 2709 3584 3137 3096 
Q 3566 2609 3566 1747 
Q 3566 888 3137 398 
Q 2709 -91 1959 -91 
Q 1206 -91 779 398 
Q 353 888 353 1747 
Q 353 2609 779 3096 
Q 1206 3584 1959 3584 
z
" transform="scale(0.015625)"/>
       <path id="DejaVuSans-63" d="M 3122 3366 
L 3122 2828 
Q 2878 2963 2633 3030 
Q 2388 3097 2138 3097 
Q 1578 3097 1268 2742 
Q 959 2388 959 1747 
Q 959 1106 1268 751 
Q 1578 397 2138 397 
Q 2388 397 2633 464 
Q 2878 531 3122 666 
L 3122 134 
Q 2881 22 2623 -34 
Q 2366 -91 2075 -91 
Q 1284 -91 818 406 
Q 353 903 353 1747 
Q 353 2603 823 3093 
Q 1294 3584 2113 3584 
Q 2378 3584 2631 3529 
Q 2884 3475 3122 3366 
z
" transform="scale(0.015625)"/>
       <path id="DejaVuSans-68" d="M 3513 2113 
L 3513 0 
L 2938 0 
L 2938 2094 
Q 2938 2591 2744 2837 
Q 2550 3084 2163 3084 
Q 1697 3084 1428 2787 
Q 1159 2491 1159 1978 
L 1159 0 
L 581 0 
L 581 4863 
L 1159 4863 
L 1159 2956 
Q 1366 3272 1645 3428 
Q 1925 3584 2291 3584 
Q 2894 3584 3203 3211 
Q 3513 2838 3513 2113 
z
" transform="scale(0.015625)"/>
      </defs>
      <use xlink:href="#DejaVuSans-65"/>
      <use xlink:href="#DejaVuSans-70" x="61.523438"/>
      <use xlink:href="#DejaVuSans-6f" x="125"/>
      <use xlink:href="#DejaVuSans-63" x="186.181641"/>
      <use xlink:href="#DejaVuSans-68" x="241.162109"/>
     </g>
    </g>
   </g>
   <g id="matplotlib.axis_2">
    <g id="ytick_1">
     <g id="line2d_9">
      <defs>
       <path id="m47b113c417" d="M 0 0 
L -3.5 0 
" style="stroke: #000000; stroke-width: 0.8"/>
      </defs>
      <g>
       <use xlink:href="#m47b113c417" x="57.6" y="307.584" style="stroke: #000000; stroke-width: 0.8"/>
      </g>
     </g>
     <g id="text_10">
      <!-- 0.0 -->
      <g transform="translate(34.696875 311.383219) scale(0.1 -0.1)">
       <defs>
        <path id="DejaVuSans-2e" d="M 684 794 
L 1344 794 
L 1344 0 
L 684 0 
L 684 794 
z
" transform="scale(0.015625)"/>
       </defs>
       <use xlink:href="#DejaVuSans-30"/>
       <use xlink:href="#DejaVuSans-2e" x="63.623047"/>
       <use xlink:href="#DejaVuSans-30" x="95.410156"/>
      </g>
     </g>
    </g>
    <g id="ytick_2">
     <g id="line2d_10">
      <g>
       <use xlink:href="#m47b113c417" x="57.6" y="253.780598" style="stroke: #000000; stroke-width: 0.8"/>
      </g>
     </g>
     <g id="text_11">
      <!-- 0.2 -->
      <g transform="translate(34.696875 257.579817) scale(0.1 -0.1)">
       <use xlink:href="#DejaVuSans-30"/>
       <use xlink:href="#DejaVuSans-2e" x="63.623047"/>
       <use xlink:href="#DejaVuSans-32" x="95.410156"/>
      </g>
     </g>
    </g>
    <g id="ytick_3">
     <g id="line2d_11">
      <g>
       <use xlink:href="#m47b113c417" x="57.6" y="199.977196" style="stroke: #000000; stroke-width: 0.8"/>
      </g>
     </g>
     <g id="text_12">
      <!-- 0.4 -->
      <g transform="translate(34.696875 203.776415) scale(0.1 -0.1)">
       <use xlink:href="#DejaVuSans-30"/>
       <use xlink:href="#DejaVuSans-2e" x="63.623047"/>
       <use xlink:href="#DejaVuSans-34" x="95.410156"/>
      </g>
     </g>
    </g>
    <g id="ytick_4">
     <g id="line2d_12">
      <g>
       <use xlink:href="#m47b113c417" x="57.6" y="146.173794" style="stroke: #000000; stroke-width: 0.8"/>
      </g>
     </g>
     <g id="text_13">
      <!-- 0.6 -->
      <g transform="translate(34.696875 149.973013) scale(0.1 -0.1)">
       <use xlink:href="#DejaVuSans-30"/>
       <use xlink:href="#DejaVuSans-2e" x="63.623047"/>
       <use xlink:href="#DejaVuSans-36" x="95.410156"/>
      </g>
     </g>
    </g>
    <g id="ytick_5">
     <g id="line2d_13">
      <g>
       <use xlink:href="#m47b113c417" x="57.6" y="92.370392" style="stroke: #000000; stroke-width: 0.8"/>
      </g>
     </g>
     <g id="text_14">
      <!-- 0.8 -->
      <g transform="translate(34.696875 96.169611) scale(0.1 -0.1)">
       <use xlink:href="#DejaVuSans-30"/>
       <use xlink:href="#DejaVuSans-2e" x="63.623047"/>
       <use xlink:href="#DejaVuSans-38" x="95.410156"/>
      </g>
     </g>
    </g>
   </g>
   <g id="line2d_14">
    <path d="M 73.832727 203.557862 
L 76.011617 109.191739 
L 78.190506 98.216219 
L 80.369396 96.495942 
L 84.727175 95.094812 
L 86.906065 94.098453 
L 89.084954 98.512013 
L 91.263844 91.841076 
L 93.442733 91.778804 
L 95.621623 93.156582 
L 97.800513 90.471082 
L 99.979402 91.054886 
L 102.158292 91.451873 
L 104.337181 93.102093 
L 106.516071 88.851998 
L 108.69496 92.845219 
L 110.87385 89.941766 
L 113.052739 90.299833 
L 115.231629 89.272337 
L 117.410519 90.253128 
L 119.589408 93.125445 
L 121.768298 89.684892 
L 123.947187 89.155576 
L 126.126077 89.357962 
L 128.304966 92.518289 
L 130.483856 90.595627 
L 132.662746 89.389098 
L 134.841635 91.249488 
L 139.199414 88.743021 
L 141.378304 90.494434 
L 143.557193 90.891421 
L 145.736083 87.645469 
L 147.914973 88.844214 
L 150.093862 90.642331 
L 152.272752 89.716029 
L 154.451641 89.202281 
L 156.630531 88.571772 
L 158.80942 89.381314 
L 160.98831 88.680749 
L 163.1672 88.400523 
L 165.346089 88.743021 
L 167.524979 89.887278 
L 169.703868 89.12444 
L 171.882758 91.194999 
L 174.061647 88.813078 
L 176.240537 88.369387 
L 178.419426 88.556204 
L 180.598316 90.330969 
L 182.777206 87.738878 
L 184.956095 90.813581 
L 187.134985 88.392739 
L 189.313874 88.01132 
L 191.492764 88.283762 
L 193.671653 88.735237 
L 195.850543 88.05024 
L 198.029433 89.023247 
L 200.208322 88.400523 
L 202.387212 88.073592 
L 206.744991 88.937623 
L 208.92388 88.743021 
L 211.10277 89.638188 
L 213.28166 87.995752 
L 215.460549 86.765871 
L 217.639439 88.159217 
L 219.818328 88.167001 
L 221.997218 89.708244 
L 224.176107 89.365746 
L 226.354997 88.844214 
L 228.533887 89.280121 
L 230.712776 88.704101 
L 232.891666 88.470579 
L 235.070555 89.326826 
L 237.249445 89.599268 
L 239.428334 88.898703 
L 241.607224 90.050743 
L 243.786113 89.015463 
L 245.965003 88.634045 
L 248.143893 88.384955 
L 250.322782 87.840071 
L 252.501672 89.420234 
L 254.680561 89.482507 
L 256.859451 87.840071 
L 259.03834 88.820862 
L 261.21723 88.5095 
L 263.39612 89.280121 
L 265.575009 87.980184 
L 267.753899 90.190856 
L 269.932788 89.521427 
L 274.290567 88.493932 
L 276.469457 90.315401 
L 278.648347 87.980184 
L 280.827236 89.762733 
L 283.006126 88.369387 
L 285.185015 90.494434 
L 287.363905 87.894559 
L 289.542794 88.205921 
L 291.721684 88.01132 
L 293.900574 88.844214 
L 296.079463 88.579556 
L 298.258353 86.563485 
L 300.437242 89.389098 
L 302.616132 87.559845 
L 304.795021 88.883134 
L 306.973911 88.641829 
L 309.1528 89.280121 
L 311.33169 87.668822 
L 313.51058 88.672965 
L 315.689469 88.470579 
L 317.868359 88.128081 
L 320.047248 87.279619 
L 322.226138 88.431659 
L 324.405027 88.571772 
L 328.762807 87.4353 
L 330.941696 89.747165 
L 333.120586 88.361603 
L 335.299475 88.135865 
L 337.478365 88.626261 
L 339.657254 87.326323 
L 341.836144 89.12444 
L 344.015034 88.353819 
L 346.193923 86.314396 
L 348.372813 88.120297 
L 350.551702 88.540636 
L 352.730592 87.139506 
L 354.909481 88.112513 
L 357.088371 87.863423 
L 359.267261 88.167001 
L 361.44615 88.696317 
L 363.62504 87.14729 
L 365.803929 87.956832 
L 367.982819 86.843711 
L 370.161708 86.726951 
L 372.340598 88.532852 
L 374.519487 86.874848 
L 376.698377 87.855639 
L 378.877267 86.470077 
L 381.056156 88.828646 
L 383.235046 87.653253 
L 385.413935 88.244842 
L 387.592825 85.824 
L 389.771714 87.085017 
L 391.950604 87.139506 
L 394.129494 86.64911 
L 396.308383 88.805294 
L 398.487273 87.847855 
L 398.487273 87.847855 
" clip-path="url(#p8c49949162)" style="fill: none; stroke: #1f77b4; stroke-linecap: square"/>
   </g>
   <g id="line2d_15">
    <path d="M 73.832727 201.967954 
L 86.906065 201.950773 
L 89.084954 201.757067 
L 91.263844 166.116036 
L 93.442733 138.938049 
L 95.621623 126.53612 
L 97.800513 188.816499 
L 99.979402 142.413058 
L 102.158292 124.308308 
L 104.337181 129.29502 
L 106.516071 141.750567 
L 108.69496 134.130128 
L 110.87385 172.001992 
L 113.052739 135.635223 
L 115.231629 178.4213 
L 117.410519 142.054531 
L 121.768298 116.561374 
L 123.947187 119.263635 
L 126.126077 120.241984 
L 128.304966 136.790664 
L 130.483856 146.58964 
L 132.662746 115.150301 
L 134.841635 114.2554 
L 137.020525 187.90404 
L 139.199414 117.605614 
L 141.378304 117.019586 
L 143.557193 121.705355 
L 145.736083 129.637688 
L 147.914973 126.254056 
L 150.093862 108.23672 
L 152.272752 110.894613 
L 154.451641 115.791269 
L 156.630531 121.814291 
L 158.80942 112.534132 
L 160.98831 113.566099 
L 163.1672 114.755336 
L 165.346089 116.826257 
L 167.524979 118.516751 
L 169.703868 139.651515 
L 171.882758 120.884274 
L 174.061647 113.675036 
L 176.240537 112.556976 
L 178.419426 116.281954 
L 180.598316 115.347972 
L 182.777206 115.528085 
L 184.956095 112.563584 
L 187.134985 116.42695 
L 189.313874 117.488748 
L 191.492764 121.544122 
L 193.671653 113.056912 
L 195.850543 122.427128 
L 198.029433 116.586862 
L 200.208322 111.162139 
L 202.387212 109.807705 
L 204.566101 118.097243 
L 206.744991 116.741487 
L 208.92388 122.869103 
L 211.10277 113.512481 
L 213.28166 111.082655 
L 215.460549 116.80077 
L 217.639439 117.68472 
L 219.818328 113.603859 
L 221.997218 110.873467 
L 224.176107 120.674708 
L 226.354997 115.385731 
L 228.533887 117.652625 
L 230.712776 112.082528 
L 232.891666 113.043319 
L 235.070555 111.932245 
L 237.249445 111.115128 
L 239.428334 111.008835 
L 241.607224 119.731475 
L 243.786113 116.003855 
L 245.965003 111.542189 
L 248.143893 113.438661 
L 250.322782 112.675163 
L 252.501672 111.303171 
L 254.680561 110.232122 
L 256.859451 110.947287 
L 259.03834 114.645078 
L 261.21723 112.72916 
L 263.39612 111.36774 
L 265.575009 111.484605 
L 267.753899 115.455586 
L 269.932788 111.57334 
L 274.290567 114.197816 
L 276.469457 111.675291 
L 278.648347 111.649803 
L 280.827236 114.762321 
L 283.006126 108.103617 
L 285.185015 110.362581 
L 287.363905 110.300655 
L 289.542794 111.170069 
L 291.721684 109.767302 
L 293.900574 114.329597 
L 296.079463 112.956283 
L 298.258353 114.650742 
L 300.437242 112.006065 
L 302.616132 111.894485 
L 304.795021 108.584674 
L 306.973911 108.677373 
L 309.1528 114.064714 
L 311.33169 110.996941 
L 313.51058 110.47416 
L 315.689469 115.760494 
L 317.868359 110.062959 
L 320.047248 111.058867 
L 322.226138 112.741054 
L 324.405027 113.633311 
L 326.583917 116.031986 
L 328.762807 112.913237 
L 330.941696 111.781584 
L 333.120586 110.777747 
L 335.299475 112.10405 
L 337.478365 114.966223 
L 339.657254 109.798076 
L 341.836144 114.071322 
L 344.015034 109.654401 
L 346.193923 110.502291 
L 348.372813 111.710407 
L 350.551702 112.003044 
L 352.730592 110.903864 
L 354.909481 112.908895 
L 357.088371 113.599894 
L 359.267261 111.269376 
L 361.44615 112.098764 
L 363.62504 113.629347 
L 365.803929 112.630796 
L 367.982819 111.445524 
L 370.161708 109.666673 
L 372.340598 109.84773 
L 374.519487 114.990389 
L 376.698377 107.984108 
L 378.877267 112.504302 
L 381.056156 109.479574 
L 383.235046 117.06131 
L 385.413935 113.564778 
L 387.592825 111.34093 
L 389.771714 109.335899 
L 391.950604 110.100341 
L 394.129494 111.226708 
L 396.308383 109.800719 
L 398.487273 109.292854 
L 398.487273 109.292854 
" clip-path="url(#p8c49949162)" style="fill: none; stroke: #ff7f0e; stroke-linecap: square"/>
   </g>
   <g id="line2d_16">
    <path d="M 73.832727 204.872724 
L 76.011617 204.646226 
L 78.190506 205.008623 
L 80.369396 109.817097 
L 82.548286 103.92919 
L 84.727175 108.974312 
L 86.906065 202.018843 
L 89.084954 105.298716 
L 91.263844 118.46618 
L 93.442733 99.154812 
L 95.621623 104.547583 
L 97.800513 99.209593 
L 99.979402 97.447119 
L 102.158292 98.396306 
L 106.516071 97.66835 
L 108.69496 97.800035 
L 110.87385 96.889827 
L 113.052739 97.268027 
L 115.231629 96.228241 
L 117.410519 97.467135 
L 119.589408 97.268027 
L 121.768298 98.110812 
L 123.947187 97.248011 
L 126.126077 96.072326 
L 130.483856 94.789185 
L 132.662746 94.89664 
L 134.841635 96.407333 
L 137.020525 94.04016 
L 139.199414 95.566655 
L 141.378304 95.259038 
L 143.557193 93.729383 
L 145.736083 94.436269 
L 147.914973 96.692826 
L 150.093862 95.01147 
L 152.272752 94.346723 
L 154.451641 94.308798 
L 156.630531 94.456285 
L 158.80942 93.618767 
L 160.98831 94.326707 
L 163.1672 93.97063 
L 165.346089 94.479462 
L 167.524979 94.258231 
L 169.703868 93.368039 
L 171.882758 93.772576 
L 174.061647 94.349883 
L 176.240537 93.090973 
L 178.419426 94.75126 
L 180.598316 93.086759 
L 182.777206 95.562441 
L 184.956095 94.461553 
L 187.134985 95.828971 
L 189.313874 94.215038 
L 191.492764 93.663014 
L 193.671653 93.578735 
L 195.850543 92.68749 
L 198.029433 94.370953 
L 200.208322 95.121032 
L 202.387212 93.531328 
L 204.566101 93.215284 
L 206.744991 91.963748 
L 208.92388 92.085952 
L 211.10277 92.957181 
L 213.28166 93.16577 
L 215.460549 95.03886 
L 217.639439 92.293488 
L 219.818328 92.40305 
L 221.997218 94.856608 
L 224.176107 93.703046 
L 226.354997 93.929544 
L 228.533887 93.972737 
L 230.712776 91.872095 
L 232.891666 93.769415 
L 235.070555 92.159696 
L 237.249445 93.418606 
L 239.428334 92.443082 
L 241.607224 93.154182 
L 243.786113 93.39859 
L 245.965003 92.731736 
L 248.143893 92.801266 
L 250.322782 92.624281 
L 252.501672 93.528168 
L 254.680561 93.795752 
L 256.859451 92.710666 
L 259.03834 96.384156 
L 261.21723 92.243974 
L 263.39612 93.220551 
L 265.575009 93.530275 
L 267.753899 92.823389 
L 269.932788 92.38198 
L 272.111678 94.241375 
L 274.290567 91.626634 
L 276.469457 93.754666 
L 278.648347 93.250049 
L 280.827236 91.867881 
L 283.006126 93.416499 
L 285.185015 91.66772 
L 287.363905 92.533682 
L 289.542794 93.037246 
L 291.721684 92.59689 
L 293.900574 92.604265 
L 298.258353 93.812608 
L 300.437242 94.946154 
L 302.616132 92.863421 
L 304.795021 93.729383 
L 306.973911 93.284814 
L 309.1528 91.783603 
L 311.33169 95.538211 
L 313.51058 94.994614 
L 315.689469 93.291135 
L 317.868359 92.820228 
L 322.226138 92.775982 
L 324.405027 93.331167 
L 326.583917 91.625581 
L 328.762807 92.909774 
L 330.941696 91.803619 
L 333.120586 93.107829 
L 335.299475 92.397782 
L 337.478365 92.585302 
L 339.657254 91.888951 
L 341.836144 93.196321 
L 344.015034 92.184979 
L 346.193923 92.560019 
L 348.372813 92.731736 
L 350.551702 91.847865 
L 352.730592 93.930598 
L 354.909481 93.396483 
L 357.088371 93.725169 
L 359.267261 92.398836 
L 361.44615 92.891865 
L 363.62504 92.577928 
L 365.803929 93.393322 
L 367.982819 93.635623 
L 370.161708 92.73279 
L 372.340598 93.423873 
L 374.519487 93.512366 
L 376.698377 92.99932 
L 378.877267 94.968277 
L 381.056156 92.582142 
L 383.235046 92.225012 
L 385.413935 92.601104 
L 387.592825 92.686436 
L 389.771714 93.328007 
L 391.950604 93.349076 
L 394.129494 91.71302 
L 396.308383 92.978251 
L 398.487273 92.775982 
L 398.487273 92.775982 
" clip-path="url(#p8c49949162)" style="fill: none; stroke: #2ca02c; stroke-linecap: square"/>
   </g>
   <g id="line2d_17">
    <path d="M 73.832727 206.154353 
L 76.011617 204.844601 
L 78.190506 160.0328 
L 80.369396 176.633147 
L 82.548286 149.097892 
L 84.727175 100.405569 
L 86.906065 116.841437 
L 89.084954 96.683436 
L 91.263844 111.492774 
L 93.442733 95.172652 
L 95.621623 95.19702 
L 97.800513 99.930403 
L 99.979402 93.345091 
L 102.158292 96.122984 
L 104.337181 92.382576 
L 106.516071 91.505346 
L 108.69496 92.638434 
L 110.87385 94.758405 
L 113.052739 92.668894 
L 115.231629 92.00488 
L 117.410519 93.412102 
L 119.589408 92.534872 
L 121.768298 92.711537 
L 123.947187 92.090166 
L 128.304966 96.098617 
L 130.483856 91.864767 
L 132.662746 94.593925 
L 134.841635 92.242463 
L 137.020525 95.123917 
L 139.199414 91.365233 
L 141.378304 92.467862 
L 143.557193 91.749021 
L 145.736083 91.87695 
L 147.914973 90.555014 
L 150.093862 94.015197 
L 152.272752 93.929911 
L 154.451641 90.433177 
L 156.630531 92.193728 
L 158.80942 90.445361 
L 163.1672 90.31134 
L 165.346089 99.491789 
L 167.524979 92.75418 
L 169.703868 89.616866 
L 171.882758 89.446294 
L 174.061647 90.695127 
L 176.240537 89.415835 
L 178.419426 91.694194 
L 180.598316 90.50628 
L 182.777206 91.480979 
L 184.956095 90.238237 
L 187.134985 90.975354 
L 189.313874 89.964103 
L 191.492764 91.535806 
L 193.671653 91.170293 
L 195.850543 96.957571 
L 198.029433 89.903184 
L 200.208322 90.40881 
L 202.387212 90.40881 
L 204.566101 91.77948 
L 206.744991 90.567198 
L 208.92388 89.056414 
L 211.10277 90.207778 
L 213.28166 90.201686 
L 215.460549 90.50628 
L 217.639439 92.717629 
L 219.818328 90.152951 
L 221.997218 89.720428 
L 224.176107 90.640301 
L 226.354997 91.011905 
L 228.533887 92.047523 
L 230.712776 89.604683 
L 232.891666 90.061573 
L 235.070555 90.098124 
L 237.249445 89.56204 
L 241.607224 90.092032 
L 243.786113 89.476753 
L 245.965003 89.33664 
L 248.143893 90.749954 
L 250.322782 88.276655 
L 252.501672 90.762138 
L 254.680561 90.195594 
L 259.03834 89.348824 
L 261.21723 89.263538 
L 263.39612 89.744796 
L 265.575009 90.853516 
L 267.753899 90.317432 
L 269.932788 89.440202 
L 272.111678 89.799623 
L 274.290567 88.922393 
L 276.469457 89.970195 
L 278.648347 89.178252 
L 280.827236 89.080782 
L 283.006126 90.098124 
L 285.185015 88.258379 
L 287.363905 87.338507 
L 289.542794 87.697927 
L 291.721684 89.421927 
L 293.900574 88.696994 
L 296.079463 88.776188 
L 298.258353 88.441135 
L 300.437242 89.019863 
L 302.616132 88.629983 
L 304.795021 88.642167 
L 306.973911 88.983312 
L 309.1528 89.032047 
L 311.33169 89.732612 
L 313.51058 90.049389 
L 315.689469 90.993629 
L 317.868359 88.185277 
L 320.047248 89.488937 
L 322.226138 89.354916 
L 324.405027 89.092966 
L 326.583917 89.044231 
L 328.762807 89.403651 
L 330.941696 90.043297 
L 333.120586 88.971128 
L 335.299475 89.933644 
L 337.478365 89.872725 
L 339.657254 87.588273 
L 341.836144 89.622958 
L 344.015034 89.123425 
L 346.193923 90.494096 
L 348.372813 88.179185 
L 350.551702 90.293064 
L 352.730592 89.202619 
L 354.909481 89.397559 
L 357.088371 88.922393 
L 359.267261 88.6178 
L 361.44615 87.509079 
L 363.62504 89.056414 
L 365.803929 89.604683 
L 367.982819 88.240104 
L 370.161708 88.014704 
L 372.340598 87.460344 
L 374.519487 89.318365 
L 376.698377 89.586407 
L 378.877267 88.32539 
L 381.056156 88.940669 
L 383.235046 88.026888 
L 385.413935 89.756979 
L 387.592825 87.539538 
L 389.771714 88.386309 
L 391.950604 89.945827 
L 394.129494 88.68481 
L 398.487273 88.995496 
L 398.487273 88.995496 
" clip-path="url(#p8c49949162)" style="fill: none; stroke: #d62728; stroke-linecap: square"/>
   </g>
   <g id="patch_3">
    <path d="M 57.6 307.584 
L 57.6 41.472 
" style="fill: none; stroke: #000000; stroke-width: 0.8; stroke-linejoin: miter; stroke-linecap: square"/>
   </g>
   <g id="patch_4">
    <path d="M 414.72 307.584 
L 414.72 41.472 
" style="fill: none; stroke: #000000; stroke-width: 0.8; stroke-linejoin: miter; stroke-linecap: square"/>
   </g>
   <g id="patch_5">
    <path d="M 57.6 307.584 
L 414.72 307.584 
" style="fill: none; stroke: #000000; stroke-width: 0.8; stroke-linejoin: miter; stroke-linecap: square"/>
   </g>
   <g id="patch_6">
    <path d="M 57.6 41.472 
L 414.72 41.472 
" style="fill: none; stroke: #000000; stroke-width: 0.8; stroke-linejoin: miter; stroke-linecap: square"/>
   </g>
   <g id="text_15">
    <!-- Accuracy of ST -->
    <g transform="translate(191.695312 35.472) scale(0.12 -0.12)">
     <defs>
      <path id="DejaVuSans-41" d="M 2188 4044 
L 1331 1722 
L 3047 1722 
L 2188 4044 
z
M 1831 4666 
L 2547 4666 
L 4325 0 
L 3669 0 
L 3244 1197 
L 1141 1197 
L 716 0 
L 50 0 
L 1831 4666 
z
" transform="scale(0.015625)"/>
      <path id="DejaVuSans-75" d="M 544 1381 
L 544 3500 
L 1119 3500 
L 1119 1403 
Q 1119 906 1312 657 
Q 1506 409 1894 409 
Q 2359 409 2629 706 
Q 2900 1003 2900 1516 
L 2900 3500 
L 3475 3500 
L 3475 0 
L 2900 0 
L 2900 538 
Q 2691 219 2414 64 
Q 2138 -91 1772 -91 
Q 1169 -91 856 284 
Q 544 659 544 1381 
z
M 1991 3584 
L 1991 3584 
z
" transform="scale(0.015625)"/>
      <path id="DejaVuSans-72" d="M 2631 2963 
Q 2534 3019 2420 3045 
Q 2306 3072 2169 3072 
Q 1681 3072 1420 2755 
Q 1159 2438 1159 1844 
L 1159 0 
L 581 0 
L 581 3500 
L 1159 3500 
L 1159 2956 
Q 1341 3275 1631 3429 
Q 1922 3584 2338 3584 
Q 2397 3584 2469 3576 
Q 2541 3569 2628 3553 
L 2631 2963 
z
" transform="scale(0.015625)"/>
      <path id="DejaVuSans-61" d="M 2194 1759 
Q 1497 1759 1228 1600 
Q 959 1441 959 1056 
Q 959 750 1161 570 
Q 1363 391 1709 391 
Q 2188 391 2477 730 
Q 2766 1069 2766 1631 
L 2766 1759 
L 2194 1759 
z
M 3341 1997 
L 3341 0 
L 2766 0 
L 2766 531 
Q 2569 213 2275 61 
Q 1981 -91 1556 -91 
Q 1019 -91 701 211 
Q 384 513 384 1019 
Q 384 1609 779 1909 
Q 1175 2209 1959 2209 
L 2766 2209 
L 2766 2266 
Q 2766 2663 2505 2880 
Q 2244 3097 1772 3097 
Q 1472 3097 1187 3025 
Q 903 2953 641 2809 
L 641 3341 
Q 956 3463 1253 3523 
Q 1550 3584 1831 3584 
Q 2591 3584 2966 3190 
Q 3341 2797 3341 1997 
z
" transform="scale(0.015625)"/>
      <path id="DejaVuSans-79" d="M 2059 -325 
Q 1816 -950 1584 -1140 
Q 1353 -1331 966 -1331 
L 506 -1331 
L 506 -850 
L 844 -850 
Q 1081 -850 1212 -737 
Q 1344 -625 1503 -206 
L 1606 56 
L 191 3500 
L 800 3500 
L 1894 763 
L 2988 3500 
L 3597 3500 
L 2059 -325 
z
" transform="scale(0.015625)"/>
      <path id="DejaVuSans-20" transform="scale(0.015625)"/>
      <path id="DejaVuSans-66" d="M 2375 4863 
L 2375 4384 
L 1825 4384 
Q 1516 4384 1395 4259 
Q 1275 4134 1275 3809 
L 1275 3500 
L 2222 3500 
L 2222 3053 
L 1275 3053 
L 1275 0 
L 697 0 
L 697 3053 
L 147 3053 
L 147 3500 
L 697 3500 
L 697 3744 
Q 697 4328 969 4595 
Q 1241 4863 1831 4863 
L 2375 4863 
z
" transform="scale(0.015625)"/>
      <path id="DejaVuSans-53" d="M 3425 4513 
L 3425 3897 
Q 3066 4069 2747 4153 
Q 2428 4238 2131 4238 
Q 1616 4238 1336 4038 
Q 1056 3838 1056 3469 
Q 1056 3159 1242 3001 
Q 1428 2844 1947 2747 
L 2328 2669 
Q 3034 2534 3370 2195 
Q 3706 1856 3706 1288 
Q 3706 609 3251 259 
Q 2797 -91 1919 -91 
Q 1588 -91 1214 -16 
Q 841 59 441 206 
L 441 856 
Q 825 641 1194 531 
Q 1563 422 1919 422 
Q 2459 422 2753 634 
Q 3047 847 3047 1241 
Q 3047 1584 2836 1778 
Q 2625 1972 2144 2069 
L 1759 2144 
Q 1053 2284 737 2584 
Q 422 2884 422 3419 
Q 422 4038 858 4394 
Q 1294 4750 2059 4750 
Q 2388 4750 2728 4690 
Q 3069 4631 3425 4513 
z
" transform="scale(0.015625)"/>
      <path id="DejaVuSans-54" d="M -19 4666 
L 3928 4666 
L 3928 4134 
L 2272 4134 
L 2272 0 
L 1638 0 
L 1638 4134 
L -19 4134 
L -19 4666 
z
" transform="scale(0.015625)"/>
     </defs>
     <use xlink:href="#DejaVuSans-41"/>
     <use xlink:href="#DejaVuSans-63" x="66.658203"/>
     <use xlink:href="#DejaVuSans-63" x="121.638672"/>
     <use xlink:href="#DejaVuSans-75" x="176.619141"/>
     <use xlink:href="#DejaVuSans-72" x="239.998047"/>
     <use xlink:href="#DejaVuSans-61" x="281.111328"/>
     <use xlink:href="#DejaVuSans-63" x="342.390625"/>
     <use xlink:href="#DejaVuSans-79" x="397.371094"/>
     <use xlink:href="#DejaVuSans-20" x="456.550781"/>
     <use xlink:href="#DejaVuSans-6f" x="488.337891"/>
     <use xlink:href="#DejaVuSans-66" x="549.519531"/>
     <use xlink:href="#DejaVuSans-20" x="584.724609"/>
     <use xlink:href="#DejaVuSans-53" x="616.511719"/>
     <use xlink:href="#DejaVuSans-54" x="679.988281"/>
    </g>
   </g>
   <g id="legend_1">
    <g id="patch_7">
     <path d="M 64.6 302.584 
L 173.157812 302.584 
Q 175.157812 302.584 175.157812 300.584 
L 175.157812 242.8715 
Q 175.157812 240.8715 173.157812 240.8715 
L 64.6 240.8715 
Q 62.6 240.8715 62.6 242.8715 
L 62.6 300.584 
Q 62.6 302.584 64.6 302.584 
z
" style="fill: #ffffff; opacity: 0.8; stroke: #cccccc; stroke-linejoin: miter"/>
    </g>
    <g id="line2d_18">
     <path d="M 66.6 248.969937 
L 76.6 248.969937 
L 86.6 248.969937 
" style="fill: none; stroke: #1f77b4; stroke-linecap: square"/>
    </g>
    <g id="text_16">
     <!-- 2000 samples -->
     <g transform="translate(94.6 252.469937) scale(0.1 -0.1)">
      <defs>
       <path id="DejaVuSans-73" d="M 2834 3397 
L 2834 2853 
Q 2591 2978 2328 3040 
Q 2066 3103 1784 3103 
Q 1356 3103 1142 2972 
Q 928 2841 928 2578 
Q 928 2378 1081 2264 
Q 1234 2150 1697 2047 
L 1894 2003 
Q 2506 1872 2764 1633 
Q 3022 1394 3022 966 
Q 3022 478 2636 193 
Q 2250 -91 1575 -91 
Q 1294 -91 989 -36 
Q 684 19 347 128 
L 347 722 
Q 666 556 975 473 
Q 1284 391 1588 391 
Q 1994 391 2212 530 
Q 2431 669 2431 922 
Q 2431 1156 2273 1281 
Q 2116 1406 1581 1522 
L 1381 1569 
Q 847 1681 609 1914 
Q 372 2147 372 2553 
Q 372 3047 722 3315 
Q 1072 3584 1716 3584 
Q 2034 3584 2315 3537 
Q 2597 3491 2834 3397 
z
" transform="scale(0.015625)"/>
       <path id="DejaVuSans-6d" d="M 3328 2828 
Q 3544 3216 3844 3400 
Q 4144 3584 4550 3584 
Q 5097 3584 5394 3201 
Q 5691 2819 5691 2113 
L 5691 0 
L 5113 0 
L 5113 2094 
Q 5113 2597 4934 2840 
Q 4756 3084 4391 3084 
Q 3944 3084 3684 2787 
Q 3425 2491 3425 1978 
L 3425 0 
L 2847 0 
L 2847 2094 
Q 2847 2600 2669 2842 
Q 2491 3084 2119 3084 
Q 1678 3084 1418 2786 
Q 1159 2488 1159 1978 
L 1159 0 
L 581 0 
L 581 3500 
L 1159 3500 
L 1159 2956 
Q 1356 3278 1631 3431 
Q 1906 3584 2284 3584 
Q 2666 3584 2933 3390 
Q 3200 3197 3328 2828 
z
" transform="scale(0.015625)"/>
       <path id="DejaVuSans-6c" d="M 603 4863 
L 1178 4863 
L 1178 0 
L 603 0 
L 603 4863 
z
" transform="scale(0.015625)"/>
      </defs>
      <use xlink:href="#DejaVuSans-32"/>
      <use xlink:href="#DejaVuSans-30" x="63.623047"/>
      <use xlink:href="#DejaVuSans-30" x="127.246094"/>
      <use xlink:href="#DejaVuSans-30" x="190.869141"/>
      <use xlink:href="#DejaVuSans-20" x="254.492188"/>
      <use xlink:href="#DejaVuSans-73" x="286.279297"/>
      <use xlink:href="#DejaVuSans-61" x="338.378906"/>
      <use xlink:href="#DejaVuSans-6d" x="399.658203"/>
      <use xlink:href="#DejaVuSans-70" x="497.070312"/>
      <use xlink:href="#DejaVuSans-6c" x="560.546875"/>
      <use xlink:href="#DejaVuSans-65" x="588.330078"/>
      <use xlink:href="#DejaVuSans-73" x="649.853516"/>
     </g>
    </g>
    <g id="line2d_19">
     <path d="M 66.6 263.648062 
L 76.6 263.648062 
L 86.6 263.648062 
" style="fill: none; stroke: #ff7f0e; stroke-linecap: square"/>
    </g>
    <g id="text_17">
     <!-- 5000 samples -->
     <g transform="translate(94.6 267.148062) scale(0.1 -0.1)">
      <defs>
       <path id="DejaVuSans-35" d="M 691 4666 
L 3169 4666 
L 3169 4134 
L 1269 4134 
L 1269 2991 
Q 1406 3038 1543 3061 
Q 1681 3084 1819 3084 
Q 2600 3084 3056 2656 
Q 3513 2228 3513 1497 
Q 3513 744 3044 326 
Q 2575 -91 1722 -91 
Q 1428 -91 1123 -41 
Q 819 9 494 109 
L 494 744 
Q 775 591 1075 516 
Q 1375 441 1709 441 
Q 2250 441 2565 725 
Q 2881 1009 2881 1497 
Q 2881 1984 2565 2268 
Q 2250 2553 1709 2553 
Q 1456 2553 1204 2497 
Q 953 2441 691 2322 
L 691 4666 
z
" transform="scale(0.015625)"/>
      </defs>
      <use xlink:href="#DejaVuSans-35"/>
      <use xlink:href="#DejaVuSans-30" x="63.623047"/>
      <use xlink:href="#DejaVuSans-30" x="127.246094"/>
      <use xlink:href="#DejaVuSans-30" x="190.869141"/>
      <use xlink:href="#DejaVuSans-20" x="254.492188"/>
      <use xlink:href="#DejaVuSans-73" x="286.279297"/>
      <use xlink:href="#DejaVuSans-61" x="338.378906"/>
      <use xlink:href="#DejaVuSans-6d" x="399.658203"/>
      <use xlink:href="#DejaVuSans-70" x="497.070312"/>
      <use xlink:href="#DejaVuSans-6c" x="560.546875"/>
      <use xlink:href="#DejaVuSans-65" x="588.330078"/>
      <use xlink:href="#DejaVuSans-73" x="649.853516"/>
     </g>
    </g>
    <g id="line2d_20">
     <path d="M 66.6 278.326187 
L 76.6 278.326187 
L 86.6 278.326187 
" style="fill: none; stroke: #2ca02c; stroke-linecap: square"/>
    </g>
    <g id="text_18">
     <!-- 8000 samples -->
     <g transform="translate(94.6 281.826187) scale(0.1 -0.1)">
      <use xlink:href="#DejaVuSans-38"/>
      <use xlink:href="#DejaVuSans-30" x="63.623047"/>
      <use xlink:href="#DejaVuSans-30" x="127.246094"/>
      <use xlink:href="#DejaVuSans-30" x="190.869141"/>
      <use xlink:href="#DejaVuSans-20" x="254.492188"/>
      <use xlink:href="#DejaVuSans-73" x="286.279297"/>
      <use xlink:href="#DejaVuSans-61" x="338.378906"/>
      <use xlink:href="#DejaVuSans-6d" x="399.658203"/>
      <use xlink:href="#DejaVuSans-70" x="497.070312"/>
      <use xlink:href="#DejaVuSans-6c" x="560.546875"/>
      <use xlink:href="#DejaVuSans-65" x="588.330078"/>
      <use xlink:href="#DejaVuSans-73" x="649.853516"/>
     </g>
    </g>
    <g id="line2d_21">
     <path d="M 66.6 293.004312 
L 76.6 293.004312 
L 86.6 293.004312 
" style="fill: none; stroke: #d62728; stroke-linecap: square"/>
    </g>
    <g id="text_19">
     <!-- 10000 samples -->
     <g transform="translate(94.6 296.504312) scale(0.1 -0.1)">
      <use xlink:href="#DejaVuSans-31"/>
      <use xlink:href="#DejaVuSans-30" x="63.623047"/>
      <use xlink:href="#DejaVuSans-30" x="127.246094"/>
      <use xlink:href="#DejaVuSans-30" x="190.869141"/>
      <use xlink:href="#DejaVuSans-30" x="254.492188"/>
      <use xlink:href="#DejaVuSans-20" x="318.115234"/>
      <use xlink:href="#DejaVuSans-73" x="349.902344"/>
      <use xlink:href="#DejaVuSans-61" x="402.001953"/>
      <use xlink:href="#DejaVuSans-6d" x="463.28125"/>
      <use xlink:href="#DejaVuSans-70" x="560.693359"/>
      <use xlink:href="#DejaVuSans-6c" x="624.169922"/>
      <use xlink:href="#DejaVuSans-65" x="651.953125"/>
      <use xlink:href="#DejaVuSans-73" x="713.476562"/>
     </g>
    </g>
   </g>
  </g>
 </g>
 <defs>
  <clipPath id="p8c49949162">
   <rect x="57.6" y="41.472" width="357.12" height="266.112"/>
  </clipPath>
 </defs>
</svg>
