<?xml version="1.0" encoding="utf-8" standalone="no"?>
<!DOCTYPE svg PUBLIC "-//W3C//DTD SVG 1.1//EN"
  "http://www.w3.org/Graphics/SVG/1.1/DTD/svg11.dtd">
<svg xmlns:xlink="http://www.w3.org/1999/xlink" width="460.8pt" height="345.6pt" viewBox="0 0 460.8 345.6" xmlns="http://www.w3.org/2000/svg" version="1.1">
 <metadata>
  <rdf:RDF xmlns:dc="http://purl.org/dc/elements/1.1/" xmlns:cc="http://creativecommons.org/ns#" xmlns:rdf="http://www.w3.org/1999/02/22-rdf-syntax-ns#">
   <cc:Work>
    <dc:type rdf:resource="http://purl.org/dc/dcmitype/StillImage"/>
    <dc:date>2023-09-13T16:28:02.644294</dc:date>
    <dc:format>image/svg+xml</dc:format>
    <dc:creator>
     <cc:Agent>
      <dc:title>Matplotlib v3.7.1, https://matplotlib.org/</dc:title>
     </cc:Agent>
    </dc:creator>
   </cc:Work>
  </rdf:RDF>
 </metadata>
 <defs>
  <style type="text/css">*{stroke-linejoin: round; stroke-linecap: butt}</style>
 </defs>
 <g id="figure_1">
  <g id="patch_1">
   <path d="M 0 345.6 
L 460.8 345.6 
L 460.8 0 
L 0 0 
z
" style="fill: #ffffff"/>
  </g>
  <g id="axes_1">
   <g id="patch_2">
    <path d="M 57.6 307.584 
L 414.72 307.584 
L 414.72 41.472 
L 57.6 41.472 
z
" style="fill: #ffffff"/>
   </g>
   <g id="matplotlib.axis_1">
    <g id="xtick_1">
     <g id="line2d_1">
      <defs>
       <path id="m04b0b2a49b" d="M 0 0 
L 0 3.5 
" style="stroke: #000000; stroke-width: 0.8"/>
      </defs>
      <g>
       <use xlink:href="#m04b0b2a49b" x="71.653838" y="307.584" style="stroke: #000000; stroke-width: 0.8"/>
      </g>
     </g>
     <g id="text_1">
      <!-- 0 -->
      <g transform="translate(68.472588 322.182437) scale(0.1 -0.1)">
       <defs>
        <path id="DejaVuSans-30" d="M 2034 4250 
Q 1547 4250 1301 3770 
Q 1056 3291 1056 2328 
Q 1056 1369 1301 889 
Q 1547 409 2034 409 
Q 2525 409 2770 889 
Q 3016 1369 3016 2328 
Q 3016 3291 2770 3770 
Q 2525 4250 2034 4250 
z
M 2034 4750 
Q 2819 4750 3233 4129 
Q 3647 3509 3647 2328 
Q 3647 1150 3233 529 
Q 2819 -91 2034 -91 
Q 1250 -91 836 529 
Q 422 1150 422 2328 
Q 422 3509 836 4129 
Q 1250 4750 2034 4750 
z
" transform="scale(0.015625)"/>
       </defs>
       <use xlink:href="#DejaVuSans-30"/>
      </g>
     </g>
    </g>
    <g id="xtick_2">
     <g id="line2d_2">
      <g>
       <use xlink:href="#m04b0b2a49b" x="115.231629" y="307.584" style="stroke: #000000; stroke-width: 0.8"/>
      </g>
     </g>
     <g id="text_2">
      <!-- 20 -->
      <g transform="translate(108.869129 322.182437) scale(0.1 -0.1)">
       <defs>
        <path id="DejaVuSans-32" d="M 1228 531 
L 3431 531 
L 3431 0 
L 469 0 
L 469 531 
Q 828 903 1448 1529 
Q 2069 2156 2228 2338 
Q 2531 2678 2651 2914 
Q 2772 3150 2772 3378 
Q 2772 3750 2511 3984 
Q 2250 4219 1831 4219 
Q 1534 4219 1204 4116 
Q 875 4013 500 3803 
L 500 4441 
Q 881 4594 1212 4672 
Q 1544 4750 1819 4750 
Q 2544 4750 2975 4387 
Q 3406 4025 3406 3419 
Q 3406 3131 3298 2873 
Q 3191 2616 2906 2266 
Q 2828 2175 2409 1742 
Q 1991 1309 1228 531 
z
" transform="scale(0.015625)"/>
       </defs>
       <use xlink:href="#DejaVuSans-32"/>
       <use xlink:href="#DejaVuSans-30" x="63.623047"/>
      </g>
     </g>
    </g>
    <g id="xtick_3">
     <g id="line2d_3">
      <g>
       <use xlink:href="#m04b0b2a49b" x="158.80942" y="307.584" style="stroke: #000000; stroke-width: 0.8"/>
      </g>
     </g>
     <g id="text_3">
      <!-- 40 -->
      <g transform="translate(152.44692 322.182437) scale(0.1 -0.1)">
       <defs>
        <path id="DejaVuSans-34" d="M 2419 4116 
L 825 1625 
L 2419 1625 
L 2419 4116 
z
M 2253 4666 
L 3047 4666 
L 3047 1625 
L 3713 1625 
L 3713 1100 
L 3047 1100 
L 3047 0 
L 2419 0 
L 2419 1100 
L 313 1100 
L 313 1709 
L 2253 4666 
z
" transform="scale(0.015625)"/>
       </defs>
       <use xlink:href="#DejaVuSans-34"/>
       <use xlink:href="#DejaVuSans-30" x="63.623047"/>
      </g>
     </g>
    </g>
    <g id="xtick_4">
     <g id="line2d_4">
      <g>
       <use xlink:href="#m04b0b2a49b" x="202.387212" y="307.584" style="stroke: #000000; stroke-width: 0.8"/>
      </g>
     </g>
     <g id="text_4">
      <!-- 60 -->
      <g transform="translate(196.024712 322.182437) scale(0.1 -0.1)">
       <defs>
        <path id="DejaVuSans-36" d="M 2113 2584 
Q 1688 2584 1439 2293 
Q 1191 2003 1191 1497 
Q 1191 994 1439 701 
Q 1688 409 2113 409 
Q 2538 409 2786 701 
Q 3034 994 3034 1497 
Q 3034 2003 2786 2293 
Q 2538 2584 2113 2584 
z
M 3366 4563 
L 3366 3988 
Q 3128 4100 2886 4159 
Q 2644 4219 2406 4219 
Q 1781 4219 1451 3797 
Q 1122 3375 1075 2522 
Q 1259 2794 1537 2939 
Q 1816 3084 2150 3084 
Q 2853 3084 3261 2657 
Q 3669 2231 3669 1497 
Q 3669 778 3244 343 
Q 2819 -91 2113 -91 
Q 1303 -91 875 529 
Q 447 1150 447 2328 
Q 447 3434 972 4092 
Q 1497 4750 2381 4750 
Q 2619 4750 2861 4703 
Q 3103 4656 3366 4563 
z
" transform="scale(0.015625)"/>
       </defs>
       <use xlink:href="#DejaVuSans-36"/>
       <use xlink:href="#DejaVuSans-30" x="63.623047"/>
      </g>
     </g>
    </g>
    <g id="xtick_5">
     <g id="line2d_5">
      <g>
       <use xlink:href="#m04b0b2a49b" x="245.965003" y="307.584" style="stroke: #000000; stroke-width: 0.8"/>
      </g>
     </g>
     <g id="text_5">
      <!-- 80 -->
      <g transform="translate(239.602503 322.182437) scale(0.1 -0.1)">
       <defs>
        <path id="DejaVuSans-38" d="M 2034 2216 
Q 1584 2216 1326 1975 
Q 1069 1734 1069 1313 
Q 1069 891 1326 650 
Q 1584 409 2034 409 
Q 2484 409 2743 651 
Q 3003 894 3003 1313 
Q 3003 1734 2745 1975 
Q 2488 2216 2034 2216 
z
M 1403 2484 
Q 997 2584 770 2862 
Q 544 3141 544 3541 
Q 544 4100 942 4425 
Q 1341 4750 2034 4750 
Q 2731 4750 3128 4425 
Q 3525 4100 3525 3541 
Q 3525 3141 3298 2862 
Q 3072 2584 2669 2484 
Q 3125 2378 3379 2068 
Q 3634 1759 3634 1313 
Q 3634 634 3220 271 
Q 2806 -91 2034 -91 
Q 1263 -91 848 271 
Q 434 634 434 1313 
Q 434 1759 690 2068 
Q 947 2378 1403 2484 
z
M 1172 3481 
Q 1172 3119 1398 2916 
Q 1625 2713 2034 2713 
Q 2441 2713 2670 2916 
Q 2900 3119 2900 3481 
Q 2900 3844 2670 4047 
Q 2441 4250 2034 4250 
Q 1625 4250 1398 4047 
Q 1172 3844 1172 3481 
z
" transform="scale(0.015625)"/>
       </defs>
       <use xlink:href="#DejaVuSans-38"/>
       <use xlink:href="#DejaVuSans-30" x="63.623047"/>
      </g>
     </g>
    </g>
    <g id="xtick_6">
     <g id="line2d_6">
      <g>
       <use xlink:href="#m04b0b2a49b" x="289.542794" y="307.584" style="stroke: #000000; stroke-width: 0.8"/>
      </g>
     </g>
     <g id="text_6">
      <!-- 100 -->
      <g transform="translate(279.999044 322.182437) scale(0.1 -0.1)">
       <defs>
        <path id="DejaVuSans-31" d="M 794 531 
L 1825 531 
L 1825 4091 
L 703 3866 
L 703 4441 
L 1819 4666 
L 2450 4666 
L 2450 531 
L 3481 531 
L 3481 0 
L 794 0 
L 794 531 
z
" transform="scale(0.015625)"/>
       </defs>
       <use xlink:href="#DejaVuSans-31"/>
       <use xlink:href="#DejaVuSans-30" x="63.623047"/>
       <use xlink:href="#DejaVuSans-30" x="127.246094"/>
      </g>
     </g>
    </g>
    <g id="xtick_7">
     <g id="line2d_7">
      <g>
       <use xlink:href="#m04b0b2a49b" x="333.120586" y="307.584" style="stroke: #000000; stroke-width: 0.8"/>
      </g>
     </g>
     <g id="text_7">
      <!-- 120 -->
      <g transform="translate(323.576836 322.182437) scale(0.1 -0.1)">
       <use xlink:href="#DejaVuSans-31"/>
       <use xlink:href="#DejaVuSans-32" x="63.623047"/>
       <use xlink:href="#DejaVuSans-30" x="127.246094"/>
      </g>
     </g>
    </g>
    <g id="xtick_8">
     <g id="line2d_8">
      <g>
       <use xlink:href="#m04b0b2a49b" x="376.698377" y="307.584" style="stroke: #000000; stroke-width: 0.8"/>
      </g>
     </g>
     <g id="text_8">
      <!-- 140 -->
      <g transform="translate(367.154627 322.182437) scale(0.1 -0.1)">
       <use xlink:href="#DejaVuSans-31"/>
       <use xlink:href="#DejaVuSans-34" x="63.623047"/>
       <use xlink:href="#DejaVuSans-30" x="127.246094"/>
      </g>
     </g>
    </g>
    <g id="text_9">
     <!-- epoch -->
     <g transform="translate(220.931875 335.860562) scale(0.1 -0.1)">
      <defs>
       <path id="DejaVuSans-65" d="M 3597 1894 
L 3597 1613 
L 953 1613 
Q 991 1019 1311 708 
Q 1631 397 2203 397 
Q 2534 397 2845 478 
Q 3156 559 3463 722 
L 3463 178 
Q 3153 47 2828 -22 
Q 2503 -91 2169 -91 
Q 1331 -91 842 396 
Q 353 884 353 1716 
Q 353 2575 817 3079 
Q 1281 3584 2069 3584 
Q 2775 3584 3186 3129 
Q 3597 2675 3597 1894 
z
M 3022 2063 
Q 3016 2534 2758 2815 
Q 2500 3097 2075 3097 
Q 1594 3097 1305 2825 
Q 1016 2553 972 2059 
L 3022 2063 
z
" transform="scale(0.015625)"/>
       <path id="DejaVuSans-70" d="M 1159 525 
L 1159 -1331 
L 581 -1331 
L 581 3500 
L 1159 3500 
L 1159 2969 
Q 1341 3281 1617 3432 
Q 1894 3584 2278 3584 
Q 2916 3584 3314 3078 
Q 3713 2572 3713 1747 
Q 3713 922 3314 415 
Q 2916 -91 2278 -91 
Q 1894 -91 1617 61 
Q 1341 213 1159 525 
z
M 3116 1747 
Q 3116 2381 2855 2742 
Q 2594 3103 2138 3103 
Q 1681 3103 1420 2742 
Q 1159 2381 1159 1747 
Q 1159 1113 1420 752 
Q 1681 391 2138 391 
Q 2594 391 2855 752 
Q 3116 1113 3116 1747 
z
" transform="scale(0.015625)"/>
       <path id="DejaVuSans-6f" d="M 1959 3097 
Q 1497 3097 1228 2736 
Q 959 2375 959 1747 
Q 959 1119 1226 758 
Q 1494 397 1959 397 
Q 2419 397 2687 759 
Q 2956 1122 2956 1747 
Q 2956 2369 2687 2733 
Q 2419 3097 1959 3097 
z
M 1959 3584 
Q 2709 3584 3137 3096 
Q 3566 2609 3566 1747 
Q 3566 888 3137 398 
Q 2709 -91 1959 -91 
Q 1206 -91 779 398 
Q 353 888 353 1747 
Q 353 2609 779 3096 
Q 1206 3584 1959 3584 
z
" transform="scale(0.015625)"/>
       <path id="DejaVuSans-63" d="M 3122 3366 
L 3122 2828 
Q 2878 2963 2633 3030 
Q 2388 3097 2138 3097 
Q 1578 3097 1268 2742 
Q 959 2388 959 1747 
Q 959 1106 1268 751 
Q 1578 397 2138 397 
Q 2388 397 2633 464 
Q 2878 531 3122 666 
L 3122 134 
Q 2881 22 2623 -34 
Q 2366 -91 2075 -91 
Q 1284 -91 818 406 
Q 353 903 353 1747 
Q 353 2603 823 3093 
Q 1294 3584 2113 3584 
Q 2378 3584 2631 3529 
Q 2884 3475 3122 3366 
z
" transform="scale(0.015625)"/>
       <path id="DejaVuSans-68" d="M 3513 2113 
L 3513 0 
L 2938 0 
L 2938 2094 
Q 2938 2591 2744 2837 
Q 2550 3084 2163 3084 
Q 1697 3084 1428 2787 
Q 1159 2491 1159 1978 
L 1159 0 
L 581 0 
L 581 4863 
L 1159 4863 
L 1159 2956 
Q 1366 3272 1645 3428 
Q 1925 3584 2291 3584 
Q 2894 3584 3203 3211 
Q 3513 2838 3513 2113 
z
" transform="scale(0.015625)"/>
      </defs>
      <use xlink:href="#DejaVuSans-65"/>
      <use xlink:href="#DejaVuSans-70" x="61.523438"/>
      <use xlink:href="#DejaVuSans-6f" x="125"/>
      <use xlink:href="#DejaVuSans-63" x="186.181641"/>
      <use xlink:href="#DejaVuSans-68" x="241.162109"/>
     </g>
    </g>
   </g>
   <g id="matplotlib.axis_2">
    <g id="ytick_1">
     <g id="line2d_9">
      <defs>
       <path id="m0e99b93b32" d="M 0 0 
L -3.5 0 
" style="stroke: #000000; stroke-width: 0.8"/>
      </defs>
      <g>
       <use xlink:href="#m0e99b93b32" x="57.6" y="307.584" style="stroke: #000000; stroke-width: 0.8"/>
      </g>
     </g>
     <g id="text_10">
      <!-- 0.0 -->
      <g transform="translate(34.696875 311.383219) scale(0.1 -0.1)">
       <defs>
        <path id="DejaVuSans-2e" d="M 684 794 
L 1344 794 
L 1344 0 
L 684 0 
L 684 794 
z
" transform="scale(0.015625)"/>
       </defs>
       <use xlink:href="#DejaVuSans-30"/>
       <use xlink:href="#DejaVuSans-2e" x="63.623047"/>
       <use xlink:href="#DejaVuSans-30" x="95.410156"/>
      </g>
     </g>
    </g>
    <g id="ytick_2">
     <g id="line2d_10">
      <g>
       <use xlink:href="#m0e99b93b32" x="57.6" y="264.263922" style="stroke: #000000; stroke-width: 0.8"/>
      </g>
     </g>
     <g id="text_11">
      <!-- 0.5 -->
      <g transform="translate(34.696875 268.063141) scale(0.1 -0.1)">
       <defs>
        <path id="DejaVuSans-35" d="M 691 4666 
L 3169 4666 
L 3169 4134 
L 1269 4134 
L 1269 2991 
Q 1406 3038 1543 3061 
Q 1681 3084 1819 3084 
Q 2600 3084 3056 2656 
Q 3513 2228 3513 1497 
Q 3513 744 3044 326 
Q 2575 -91 1722 -91 
Q 1428 -91 1123 -41 
Q 819 9 494 109 
L 494 744 
Q 775 591 1075 516 
Q 1375 441 1709 441 
Q 2250 441 2565 725 
Q 2881 1009 2881 1497 
Q 2881 1984 2565 2268 
Q 2250 2553 1709 2553 
Q 1456 2553 1204 2497 
Q 953 2441 691 2322 
L 691 4666 
z
" transform="scale(0.015625)"/>
       </defs>
       <use xlink:href="#DejaVuSans-30"/>
       <use xlink:href="#DejaVuSans-2e" x="63.623047"/>
       <use xlink:href="#DejaVuSans-35" x="95.410156"/>
      </g>
     </g>
    </g>
    <g id="ytick_3">
     <g id="line2d_11">
      <g>
       <use xlink:href="#m0e99b93b32" x="57.6" y="220.943844" style="stroke: #000000; stroke-width: 0.8"/>
      </g>
     </g>
     <g id="text_12">
      <!-- 1.0 -->
      <g transform="translate(34.696875 224.743063) scale(0.1 -0.1)">
       <use xlink:href="#DejaVuSans-31"/>
       <use xlink:href="#DejaVuSans-2e" x="63.623047"/>
       <use xlink:href="#DejaVuSans-30" x="95.410156"/>
      </g>
     </g>
    </g>
    <g id="ytick_4">
     <g id="line2d_12">
      <g>
       <use xlink:href="#m0e99b93b32" x="57.6" y="177.623767" style="stroke: #000000; stroke-width: 0.8"/>
      </g>
     </g>
     <g id="text_13">
      <!-- 1.5 -->
      <g transform="translate(34.696875 181.422985) scale(0.1 -0.1)">
       <use xlink:href="#DejaVuSans-31"/>
       <use xlink:href="#DejaVuSans-2e" x="63.623047"/>
       <use xlink:href="#DejaVuSans-35" x="95.410156"/>
      </g>
     </g>
    </g>
    <g id="ytick_5">
     <g id="line2d_13">
      <g>
       <use xlink:href="#m0e99b93b32" x="57.6" y="134.303689" style="stroke: #000000; stroke-width: 0.8"/>
      </g>
     </g>
     <g id="text_14">
      <!-- 2.0 -->
      <g transform="translate(34.696875 138.102908) scale(0.1 -0.1)">
       <use xlink:href="#DejaVuSans-32"/>
       <use xlink:href="#DejaVuSans-2e" x="63.623047"/>
       <use xlink:href="#DejaVuSans-30" x="95.410156"/>
      </g>
     </g>
    </g>
    <g id="ytick_6">
     <g id="line2d_14">
      <g>
       <use xlink:href="#m0e99b93b32" x="57.6" y="90.983611" style="stroke: #000000; stroke-width: 0.8"/>
      </g>
     </g>
     <g id="text_15">
      <!-- 2.5 -->
      <g transform="translate(34.696875 94.78283) scale(0.1 -0.1)">
       <use xlink:href="#DejaVuSans-32"/>
       <use xlink:href="#DejaVuSans-2e" x="63.623047"/>
       <use xlink:href="#DejaVuSans-35" x="95.410156"/>
      </g>
     </g>
    </g>
    <g id="ytick_7">
     <g id="line2d_15">
      <g>
       <use xlink:href="#m0e99b93b32" x="57.6" y="47.663533" style="stroke: #000000; stroke-width: 0.8"/>
      </g>
     </g>
     <g id="text_16">
      <!-- 3.0 -->
      <g transform="translate(34.696875 51.462752) scale(0.1 -0.1)">
       <defs>
        <path id="DejaVuSans-33" d="M 2597 2516 
Q 3050 2419 3304 2112 
Q 3559 1806 3559 1356 
Q 3559 666 3084 287 
Q 2609 -91 1734 -91 
Q 1441 -91 1130 -33 
Q 819 25 488 141 
L 488 750 
Q 750 597 1062 519 
Q 1375 441 1716 441 
Q 2309 441 2620 675 
Q 2931 909 2931 1356 
Q 2931 1769 2642 2001 
Q 2353 2234 1838 2234 
L 1294 2234 
L 1294 2753 
L 1863 2753 
Q 2328 2753 2575 2939 
Q 2822 3125 2822 3475 
Q 2822 3834 2567 4026 
Q 2313 4219 1838 4219 
Q 1578 4219 1281 4162 
Q 984 4106 628 3988 
L 628 4550 
Q 988 4650 1302 4700 
Q 1616 4750 1894 4750 
Q 2613 4750 3031 4423 
Q 3450 4097 3450 3541 
Q 3450 3153 3228 2886 
Q 3006 2619 2597 2516 
z
" transform="scale(0.015625)"/>
       </defs>
       <use xlink:href="#DejaVuSans-33"/>
       <use xlink:href="#DejaVuSans-2e" x="63.623047"/>
       <use xlink:href="#DejaVuSans-30" x="95.410156"/>
      </g>
     </g>
    </g>
   </g>
   <g id="line2d_16">
    <path d="M 73.832727 192.408662 
L 76.011617 244.898643 
L 78.190506 248.648972 
L 80.369396 255.665464 
L 82.548286 255.340979 
L 84.727175 256.717025 
L 86.906065 257.824251 
L 89.084954 254.189569 
L 91.263844 259.490156 
L 93.442733 257.807948 
L 95.621623 257.006182 
L 97.800513 260.534209 
L 99.979402 258.932283 
L 102.158292 257.968259 
L 104.337181 257.490621 
L 106.516071 260.840526 
L 108.69496 258.445835 
L 110.87385 259.048079 
L 113.052739 260.654906 
L 115.231629 260.382192 
L 117.410519 261.296562 
L 119.589408 259.850578 
L 121.768298 261.278488 
L 123.947187 261.503387 
L 126.126077 259.863199 
L 128.304966 256.683375 
L 130.483856 259.157982 
L 132.662746 262.021124 
L 134.841635 260.267816 
L 137.020525 260.770774 
L 139.199414 260.834097 
L 141.378304 258.949836 
L 143.557193 261.432664 
L 145.736083 261.605059 
L 147.914973 260.066827 
L 150.093862 261.937021 
L 152.272752 261.175396 
L 154.451641 260.95297 
L 156.630531 261.735557 
L 158.80942 260.814669 
L 160.98831 262.646643 
L 163.1672 261.387875 
L 165.346089 262.489839 
L 167.524979 261.783041 
L 169.703868 261.565857 
L 171.882758 260.849744 
L 174.061647 261.276329 
L 176.240537 259.748286 
L 178.419426 262.453214 
L 180.598316 261.367683 
L 182.777206 262.535381 
L 184.956095 259.292885 
L 187.134985 260.235184 
L 189.313874 261.794382 
L 191.492764 262.147166 
L 193.671653 261.211999 
L 195.850543 262.584064 
L 198.029433 260.460186 
L 200.208322 261.903247 
L 202.387212 258.353577 
L 204.566101 262.708076 
L 206.744991 260.966593 
L 208.92388 262.240028 
L 211.10277 261.403496 
L 213.28166 260.868376 
L 215.460549 262.980407 
L 217.639439 259.62114 
L 219.818328 262.411142 
L 221.997218 262.228594 
L 224.176107 261.367306 
L 226.354997 261.474597 
L 228.533887 261.709741 
L 230.712776 260.734475 
L 232.891666 262.58048 
L 235.070555 261.306596 
L 237.249445 261.280915 
L 239.428334 261.889552 
L 241.607224 259.22415 
L 243.786113 262.229028 
L 245.965003 260.990286 
L 248.143893 262.383369 
L 250.322782 261.361584 
L 252.501672 261.433924 
L 254.680561 261.627621 
L 256.859451 262.435827 
L 261.21723 261.97507 
L 263.39612 261.856935 
L 265.575009 261.608002 
L 267.753899 261.197281 
L 269.932788 256.207669 
L 272.111678 262.271183 
L 274.290567 261.889511 
L 276.469457 261.168181 
L 278.648347 260.234951 
L 280.827236 260.708923 
L 283.006126 262.242961 
L 285.185015 259.906057 
L 287.363905 262.314252 
L 289.542794 261.048848 
L 291.721684 262.769798 
L 293.900574 261.883427 
L 296.079463 262.406918 
L 298.258353 263.173986 
L 300.437242 261.924302 
L 302.616132 262.762062 
L 304.795021 261.978045 
L 306.973911 261.724134 
L 309.1528 261.301566 
L 311.33169 262.926659 
L 313.51058 261.412554 
L 315.689469 261.401968 
L 317.868359 262.358313 
L 322.226138 262.981538 
L 324.405027 261.640562 
L 326.583917 262.123313 
L 328.762807 261.425924 
L 330.941696 262.503162 
L 333.120586 261.587289 
L 335.299475 262.625258 
L 337.478365 262.56412 
L 339.657254 260.283572 
L 341.836144 262.941501 
L 344.015034 261.972369 
L 346.193923 263.763237 
L 348.372813 263.111386 
L 350.551702 262.691499 
L 352.730592 263.477871 
L 354.909481 258.595394 
L 357.088371 262.932412 
L 359.267261 262.386669 
L 361.44615 262.914311 
L 363.62504 262.510237 
L 365.803929 262.852889 
L 367.982819 261.56515 
L 370.161708 262.646426 
L 374.519487 263.662308 
L 376.698377 261.835814 
L 378.877267 258.166691 
L 381.056156 261.297884 
L 383.235046 262.736205 
L 385.413935 262.316493 
L 387.592825 262.112359 
L 391.950604 261.960358 
L 394.129494 262.108662 
L 396.308383 262.434876 
L 398.487273 262.891031 
L 398.487273 262.891031 
" clip-path="url(#pe0ff6fe1b0)" style="fill: none; stroke: #1f77b4; stroke-linecap: square"/>
   </g>
   <g id="line2d_17">
    <path d="M 73.832727 85.824 
L 76.011617 145.177707 
L 78.190506 219.107357 
L 80.369396 174.445652 
L 82.548286 192.417214 
L 84.727175 168.266265 
L 86.906065 136.294543 
L 89.084954 194.179781 
L 91.263844 228.996354 
L 93.442733 228.805378 
L 95.621623 228.418789 
L 97.800513 203.848 
L 99.979402 227.786583 
L 102.158292 224.632771 
L 104.337181 232.099913 
L 106.516071 231.233533 
L 108.69496 233.196238 
L 110.87385 220.209553 
L 113.052739 236.589047 
L 115.231629 171.250259 
L 117.410519 233.435746 
L 119.589408 227.12521 
L 121.768298 243.507621 
L 123.947187 242.049744 
L 126.126077 240.16697 
L 128.304966 230.326015 
L 130.483856 224.497388 
L 132.662746 240.277891 
L 134.841635 244.938469 
L 137.020525 160.300865 
L 139.199414 244.131812 
L 141.378304 244.050296 
L 145.736083 224.00685 
L 147.914973 234.022642 
L 150.093862 247.777706 
L 154.451641 240.946143 
L 156.630531 235.542969 
L 158.80942 244.313668 
L 160.98831 245.564287 
L 163.1672 238.542667 
L 165.346089 245.060983 
L 167.524979 242.778468 
L 169.703868 225.311708 
L 171.882758 239.086277 
L 174.061647 246.556915 
L 176.240537 246.148658 
L 178.419426 243.100024 
L 180.598316 244.620775 
L 182.777206 238.614325 
L 184.956095 243.241336 
L 187.134985 234.49854 
L 189.313874 241.584262 
L 191.492764 237.325925 
L 193.671653 243.700228 
L 195.850543 236.187394 
L 198.029433 240.28526 
L 200.208322 242.51867 
L 202.387212 245.855959 
L 204.566101 234.607978 
L 206.744991 240.510118 
L 208.92388 224.801675 
L 211.10277 244.150832 
L 213.28166 243.011779 
L 215.460549 238.644825 
L 217.639439 238.21134 
L 219.818328 240.348934 
L 221.997218 241.873393 
L 224.176107 235.482038 
L 226.354997 237.142169 
L 228.533887 237.971326 
L 230.712776 240.67676 
L 232.891666 242.344534 
L 235.070555 238.71578 
L 237.249445 240.10514 
L 239.428334 241.043141 
L 241.607224 241.223437 
L 243.786113 236.693987 
L 245.965003 244.703412 
L 248.143893 237.420615 
L 250.322782 239.798389 
L 252.501672 242.84145 
L 254.680561 243.961917 
L 256.859451 242.447632 
L 259.03834 232.196912 
L 261.21723 242.426417 
L 263.39612 241.734875 
L 265.575009 243.816959 
L 267.753899 240.591675 
L 269.932788 244.346734 
L 272.111678 243.070031 
L 274.290567 243.991203 
L 276.469457 242.010109 
L 278.648347 244.323268 
L 280.827236 237.953448 
L 283.006126 242.041698 
L 285.185015 241.987407 
L 287.363905 244.059452 
L 289.542794 240.568535 
L 291.721684 243.629975 
L 293.900574 242.509782 
L 296.079463 236.433342 
L 298.258353 241.120686 
L 300.437242 237.877411 
L 302.616132 240.731789 
L 304.795021 242.583175 
L 306.973911 241.092206 
L 309.1528 244.461802 
L 311.33169 239.624362 
L 313.51058 244.887778 
L 315.689469 235.772919 
L 317.868359 241.832983 
L 320.047248 242.711995 
L 322.226138 241.836418 
L 324.405027 241.937501 
L 326.583917 242.585473 
L 328.762807 243.920764 
L 330.941696 242.348237 
L 333.120586 244.209151 
L 335.299475 245.237618 
L 337.478365 239.204542 
L 339.657254 243.166983 
L 341.836144 240.037267 
L 344.015034 241.354937 
L 346.193923 242.142094 
L 348.372813 244.10139 
L 350.551702 239.12081 
L 352.730592 239.423321 
L 354.909481 242.326909 
L 357.088371 240.449857 
L 359.267261 243.244817 
L 361.44615 244.035971 
L 363.62504 236.587265 
L 365.803929 230.208113 
L 367.982819 237.925587 
L 370.161708 240.178471 
L 372.340598 237.391882 
L 374.519487 241.308615 
L 376.698377 240.601229 
L 378.877267 238.087049 
L 381.056156 240.231439 
L 383.235046 232.495477 
L 385.413935 238.435485 
L 387.592825 231.721205 
L 389.771714 238.712232 
L 391.950604 236.368759 
L 394.129494 231.807209 
L 396.308383 239.058479 
L 398.487273 240.810197 
L 398.487273 240.810197 
" clip-path="url(#pe0ff6fe1b0)" style="fill: none; stroke: #ff7f0e; stroke-linecap: square"/>
   </g>
   <g id="line2d_18">
    <path d="M 73.832727 150.55727 
L 76.011617 207.82881 
L 78.190506 170.27381 
L 80.369396 247.537129 
L 82.548286 245.674872 
L 84.727175 249.986777 
L 86.906065 125.414091 
L 89.084954 249.76525 
L 91.263844 243.963456 
L 93.442733 253.815209 
L 95.621623 247.284178 
L 97.800513 254.70585 
L 99.979402 255.761661 
L 102.158292 254.626027 
L 104.337181 254.430451 
L 106.516071 256.105279 
L 108.69496 254.514007 
L 110.87385 255.564628 
L 113.052739 255.863716 
L 115.231629 253.367006 
L 117.410519 255.550644 
L 119.589408 255.915641 
L 121.768298 255.68251 
L 123.947187 255.094148 
L 126.126077 256.249184 
L 128.304966 256.770428 
L 130.483856 257.111794 
L 132.662746 257.80834 
L 134.841635 253.629428 
L 137.020525 257.995056 
L 141.378304 257.319729 
L 145.736083 258.460201 
L 147.914973 257.360773 
L 150.093862 257.515827 
L 152.272752 258.477098 
L 154.451641 258.198038 
L 156.630531 257.707815 
L 158.80942 258.570466 
L 163.1672 258.37474 
L 165.346089 258.703263 
L 167.524979 258.685834 
L 169.703868 259.13558 
L 171.882758 259.30972 
L 174.061647 258.381871 
L 176.240537 258.737992 
L 178.419426 258.602236 
L 180.598316 258.66607 
L 182.777206 256.926659 
L 187.134985 258.456896 
L 189.313874 258.90547 
L 191.492764 259.187454 
L 193.671653 257.943626 
L 195.850543 259.034419 
L 198.029433 255.238863 
L 200.208322 256.961672 
L 202.387212 258.900601 
L 204.566101 258.746915 
L 206.744991 259.430722 
L 208.92388 259.666466 
L 211.10277 257.974115 
L 213.28166 259.214431 
L 215.460549 259.163719 
L 217.639439 259.941808 
L 219.818328 258.997651 
L 221.997218 257.113999 
L 224.176107 258.614718 
L 226.354997 259.218418 
L 228.533887 258.478916 
L 230.712776 259.58417 
L 232.891666 256.337878 
L 235.070555 258.809851 
L 237.249445 258.608547 
L 239.428334 259.506372 
L 241.607224 258.708742 
L 243.786113 259.261539 
L 245.965003 258.406076 
L 248.143893 257.33315 
L 250.322782 258.898349 
L 252.501672 258.397106 
L 254.680561 257.337793 
L 256.859451 259.49437 
L 259.03834 257.511603 
L 261.21723 259.907766 
L 265.575009 259.127426 
L 267.753899 259.854162 
L 269.932788 259.479337 
L 272.111678 257.946285 
L 274.290567 259.876982 
L 276.469457 256.001237 
L 278.648347 258.697443 
L 280.827236 258.390919 
L 283.006126 258.236619 
L 287.363905 256.975631 
L 289.542794 259.693298 
L 291.721684 258.724735 
L 293.900574 259.491514 
L 296.079463 257.469448 
L 298.258353 258.047203 
L 300.437242 257.204774 
L 302.616132 259.167097 
L 304.795021 259.502767 
L 306.973911 257.564014 
L 309.1528 258.556058 
L 311.33169 258.771977 
L 313.51058 257.290737 
L 315.689469 258.35555 
L 317.868359 256.346337 
L 320.047248 258.982385 
L 322.226138 259.649475 
L 324.405027 256.73463 
L 326.583917 259.563415 
L 328.762807 259.623593 
L 330.941696 257.255218 
L 333.120586 257.509155 
L 335.299475 259.889717 
L 337.478365 259.512161 
L 339.657254 256.466145 
L 341.836144 258.881824 
L 344.015034 258.456571 
L 346.193923 259.828739 
L 348.372813 259.740339 
L 352.730592 258.86944 
L 354.909481 258.047332 
L 357.088371 258.536114 
L 359.267261 259.711146 
L 361.44615 255.968217 
L 363.62504 259.572364 
L 367.982819 257.426069 
L 370.161708 254.911445 
L 372.340598 257.006094 
L 374.519487 257.549508 
L 376.698377 259.587206 
L 378.877267 256.878477 
L 381.056156 259.305481 
L 383.235046 259.228034 
L 385.413935 258.48265 
L 387.592825 259.19662 
L 389.771714 257.644719 
L 391.950604 259.055164 
L 394.129494 258.147445 
L 398.487273 258.81896 
L 398.487273 258.81896 
" clip-path="url(#pe0ff6fe1b0)" style="fill: none; stroke: #2ca02c; stroke-linecap: square"/>
   </g>
   <g id="line2d_19">
    <path d="M 73.832727 207.172652 
L 76.011617 200.546173 
L 78.190506 221.95087 
L 80.369396 205.026254 
L 82.548286 235.157315 
L 84.727175 252.427786 
L 86.906065 243.233776 
L 89.084954 254.089053 
L 91.263844 242.427832 
L 93.442733 256.67753 
L 95.621623 257.752965 
L 97.800513 250.324678 
L 99.979402 253.577141 
L 102.158292 257.536881 
L 104.337181 257.64254 
L 106.516071 259.230802 
L 108.69496 257.905886 
L 113.052739 258.595709 
L 115.231629 259.059842 
L 117.410519 258.141175 
L 119.589408 258.959214 
L 121.768298 259.405113 
L 123.947187 260.036834 
L 126.126077 258.561104 
L 128.304966 255.860731 
L 130.483856 258.613463 
L 132.662746 258.799047 
L 134.841635 258.47321 
L 137.020525 256.683422 
L 139.199414 258.534689 
L 141.378304 259.122246 
L 143.557193 259.579155 
L 145.736083 259.130194 
L 147.914973 259.512672 
L 150.093862 258.51599 
L 152.272752 258.318476 
L 154.451641 259.982042 
L 156.630531 259.574688 
L 158.80942 260.17813 
L 160.98831 260.65598 
L 163.1672 258.740785 
L 165.346089 251.597922 
L 167.524979 259.697079 
L 169.703868 260.081436 
L 171.882758 259.331725 
L 174.061647 260.294556 
L 176.240537 260.589212 
L 178.419426 256.686541 
L 180.598316 259.455055 
L 182.777206 260.016296 
L 184.956095 259.195949 
L 187.134985 258.54227 
L 189.313874 260.499108 
L 191.492764 259.522876 
L 193.671653 259.359141 
L 195.850543 256.202515 
L 198.029433 259.213311 
L 200.208322 260.512401 
L 202.387212 257.970696 
L 204.566101 259.976867 
L 206.744991 259.245132 
L 208.92388 260.905295 
L 211.10277 258.041497 
L 213.28166 260.159663 
L 217.639439 258.556812 
L 219.818328 260.554504 
L 221.997218 260.187007 
L 224.176107 259.962031 
L 226.354997 260.367154 
L 228.533887 257.722925 
L 230.712776 259.971445 
L 232.891666 260.833632 
L 235.070555 260.687636 
L 237.249445 260.20234 
L 239.428334 260.876654 
L 241.607224 259.686967 
L 243.786113 260.643777 
L 245.965003 260.52433 
L 248.143893 259.476037 
L 250.322782 261.189096 
L 252.501672 259.850108 
L 254.680561 258.921614 
L 256.859451 261.428217 
L 259.03834 260.809066 
L 261.21723 260.809737 
L 263.39612 261.526693 
L 265.575009 260.658712 
L 267.753899 261.444458 
L 269.932788 260.145296 
L 272.111678 259.68707 
L 274.290567 260.404857 
L 276.469457 260.46834 
L 278.648347 261.544576 
L 280.827236 259.567319 
L 283.006126 257.154966 
L 285.185015 261.452329 
L 287.363905 261.568899 
L 289.542794 261.811072 
L 291.721684 259.280527 
L 293.900574 258.486012 
L 296.079463 261.585445 
L 298.258353 261.267204 
L 300.437242 261.196445 
L 302.616132 261.526765 
L 304.795021 261.986969 
L 306.973911 261.323385 
L 309.1528 260.489487 
L 311.33169 261.392094 
L 313.51058 261.038138 
L 315.689469 258.675319 
L 317.868359 261.293221 
L 320.047248 261.20179 
L 324.405027 260.039157 
L 326.583917 261.056512 
L 328.762807 261.463029 
L 330.941696 259.94249 
L 333.120586 259.286776 
L 335.299475 259.471436 
L 337.478365 259.289611 
L 339.657254 260.031902 
L 341.836144 262.178254 
L 346.193923 261.147277 
L 348.372813 261.559454 
L 350.551702 259.188234 
L 352.730592 261.612572 
L 354.909481 261.198071 
L 357.088371 260.62706 
L 359.267261 261.296593 
L 361.44615 257.014212 
L 363.62504 261.547432 
L 365.803929 260.822493 
L 367.982819 261.315272 
L 370.161708 262.250124 
L 372.340598 260.913346 
L 374.519487 260.495204 
L 376.698377 261.133344 
L 378.877267 261.352691 
L 381.056156 261.176997 
L 383.235046 261.320736 
L 385.413935 260.561465 
L 387.592825 261.203659 
L 389.771714 262.322566 
L 391.950604 261.013334 
L 394.129494 261.660904 
L 396.308383 259.173821 
L 398.487273 261.606339 
L 398.487273 261.606339 
" clip-path="url(#pe0ff6fe1b0)" style="fill: none; stroke: #d62728; stroke-linecap: square"/>
   </g>
   <g id="patch_3">
    <path d="M 57.6 307.584 
L 57.6 41.472 
" style="fill: none; stroke: #000000; stroke-width: 0.8; stroke-linejoin: miter; stroke-linecap: square"/>
   </g>
   <g id="patch_4">
    <path d="M 414.72 307.584 
L 414.72 41.472 
" style="fill: none; stroke: #000000; stroke-width: 0.8; stroke-linejoin: miter; stroke-linecap: square"/>
   </g>
   <g id="patch_5">
    <path d="M 57.6 307.584 
L 414.72 307.584 
" style="fill: none; stroke: #000000; stroke-width: 0.8; stroke-linejoin: miter; stroke-linecap: square"/>
   </g>
   <g id="patch_6">
    <path d="M 57.6 41.472 
L 414.72 41.472 
" style="fill: none; stroke: #000000; stroke-width: 0.8; stroke-linejoin: miter; stroke-linecap: square"/>
   </g>
   <g id="text_17">
    <!-- CrossEntropyLoss of ST -->
    <g transform="translate(166.175625 35.472) scale(0.12 -0.12)">
     <defs>
      <path id="DejaVuSans-43" d="M 4122 4306 
L 4122 3641 
Q 3803 3938 3442 4084 
Q 3081 4231 2675 4231 
Q 1875 4231 1450 3742 
Q 1025 3253 1025 2328 
Q 1025 1406 1450 917 
Q 1875 428 2675 428 
Q 3081 428 3442 575 
Q 3803 722 4122 1019 
L 4122 359 
Q 3791 134 3420 21 
Q 3050 -91 2638 -91 
Q 1578 -91 968 557 
Q 359 1206 359 2328 
Q 359 3453 968 4101 
Q 1578 4750 2638 4750 
Q 3056 4750 3426 4639 
Q 3797 4528 4122 4306 
z
" transform="scale(0.015625)"/>
      <path id="DejaVuSans-72" d="M 2631 2963 
Q 2534 3019 2420 3045 
Q 2306 3072 2169 3072 
Q 1681 3072 1420 2755 
Q 1159 2438 1159 1844 
L 1159 0 
L 581 0 
L 581 3500 
L 1159 3500 
L 1159 2956 
Q 1341 3275 1631 3429 
Q 1922 3584 2338 3584 
Q 2397 3584 2469 3576 
Q 2541 3569 2628 3553 
L 2631 2963 
z
" transform="scale(0.015625)"/>
      <path id="DejaVuSans-73" d="M 2834 3397 
L 2834 2853 
Q 2591 2978 2328 3040 
Q 2066 3103 1784 3103 
Q 1356 3103 1142 2972 
Q 928 2841 928 2578 
Q 928 2378 1081 2264 
Q 1234 2150 1697 2047 
L 1894 2003 
Q 2506 1872 2764 1633 
Q 3022 1394 3022 966 
Q 3022 478 2636 193 
Q 2250 -91 1575 -91 
Q 1294 -91 989 -36 
Q 684 19 347 128 
L 347 722 
Q 666 556 975 473 
Q 1284 391 1588 391 
Q 1994 391 2212 530 
Q 2431 669 2431 922 
Q 2431 1156 2273 1281 
Q 2116 1406 1581 1522 
L 1381 1569 
Q 847 1681 609 1914 
Q 372 2147 372 2553 
Q 372 3047 722 3315 
Q 1072 3584 1716 3584 
Q 2034 3584 2315 3537 
Q 2597 3491 2834 3397 
z
" transform="scale(0.015625)"/>
      <path id="DejaVuSans-45" d="M 628 4666 
L 3578 4666 
L 3578 4134 
L 1259 4134 
L 1259 2753 
L 3481 2753 
L 3481 2222 
L 1259 2222 
L 1259 531 
L 3634 531 
L 3634 0 
L 628 0 
L 628 4666 
z
" transform="scale(0.015625)"/>
      <path id="DejaVuSans-6e" d="M 3513 2113 
L 3513 0 
L 2938 0 
L 2938 2094 
Q 2938 2591 2744 2837 
Q 2550 3084 2163 3084 
Q 1697 3084 1428 2787 
Q 1159 2491 1159 1978 
L 1159 0 
L 581 0 
L 581 3500 
L 1159 3500 
L 1159 2956 
Q 1366 3272 1645 3428 
Q 1925 3584 2291 3584 
Q 2894 3584 3203 3211 
Q 3513 2838 3513 2113 
z
" transform="scale(0.015625)"/>
      <path id="DejaVuSans-74" d="M 1172 4494 
L 1172 3500 
L 2356 3500 
L 2356 3053 
L 1172 3053 
L 1172 1153 
Q 1172 725 1289 603 
Q 1406 481 1766 481 
L 2356 481 
L 2356 0 
L 1766 0 
Q 1100 0 847 248 
Q 594 497 594 1153 
L 594 3053 
L 172 3053 
L 172 3500 
L 594 3500 
L 594 4494 
L 1172 4494 
z
" transform="scale(0.015625)"/>
      <path id="DejaVuSans-79" d="M 2059 -325 
Q 1816 -950 1584 -1140 
Q 1353 -1331 966 -1331 
L 506 -1331 
L 506 -850 
L 844 -850 
Q 1081 -850 1212 -737 
Q 1344 -625 1503 -206 
L 1606 56 
L 191 3500 
L 800 3500 
L 1894 763 
L 2988 3500 
L 3597 3500 
L 2059 -325 
z
" transform="scale(0.015625)"/>
      <path id="DejaVuSans-4c" d="M 628 4666 
L 1259 4666 
L 1259 531 
L 3531 531 
L 3531 0 
L 628 0 
L 628 4666 
z
" transform="scale(0.015625)"/>
      <path id="DejaVuSans-20" transform="scale(0.015625)"/>
      <path id="DejaVuSans-66" d="M 2375 4863 
L 2375 4384 
L 1825 4384 
Q 1516 4384 1395 4259 
Q 1275 4134 1275 3809 
L 1275 3500 
L 2222 3500 
L 2222 3053 
L 1275 3053 
L 1275 0 
L 697 0 
L 697 3053 
L 147 3053 
L 147 3500 
L 697 3500 
L 697 3744 
Q 697 4328 969 4595 
Q 1241 4863 1831 4863 
L 2375 4863 
z
" transform="scale(0.015625)"/>
      <path id="DejaVuSans-53" d="M 3425 4513 
L 3425 3897 
Q 3066 4069 2747 4153 
Q 2428 4238 2131 4238 
Q 1616 4238 1336 4038 
Q 1056 3838 1056 3469 
Q 1056 3159 1242 3001 
Q 1428 2844 1947 2747 
L 2328 2669 
Q 3034 2534 3370 2195 
Q 3706 1856 3706 1288 
Q 3706 609 3251 259 
Q 2797 -91 1919 -91 
Q 1588 -91 1214 -16 
Q 841 59 441 206 
L 441 856 
Q 825 641 1194 531 
Q 1563 422 1919 422 
Q 2459 422 2753 634 
Q 3047 847 3047 1241 
Q 3047 1584 2836 1778 
Q 2625 1972 2144 2069 
L 1759 2144 
Q 1053 2284 737 2584 
Q 422 2884 422 3419 
Q 422 4038 858 4394 
Q 1294 4750 2059 4750 
Q 2388 4750 2728 4690 
Q 3069 4631 3425 4513 
z
" transform="scale(0.015625)"/>
      <path id="DejaVuSans-54" d="M -19 4666 
L 3928 4666 
L 3928 4134 
L 2272 4134 
L 2272 0 
L 1638 0 
L 1638 4134 
L -19 4134 
L -19 4666 
z
" transform="scale(0.015625)"/>
     </defs>
     <use xlink:href="#DejaVuSans-43"/>
     <use xlink:href="#DejaVuSans-72" x="69.824219"/>
     <use xlink:href="#DejaVuSans-6f" x="108.6875"/>
     <use xlink:href="#DejaVuSans-73" x="169.869141"/>
     <use xlink:href="#DejaVuSans-73" x="221.96875"/>
     <use xlink:href="#DejaVuSans-45" x="274.068359"/>
     <use xlink:href="#DejaVuSans-6e" x="337.251953"/>
     <use xlink:href="#DejaVuSans-74" x="400.630859"/>
     <use xlink:href="#DejaVuSans-72" x="439.839844"/>
     <use xlink:href="#DejaVuSans-6f" x="478.703125"/>
     <use xlink:href="#DejaVuSans-70" x="539.884766"/>
     <use xlink:href="#DejaVuSans-79" x="603.361328"/>
     <use xlink:href="#DejaVuSans-4c" x="662.541016"/>
     <use xlink:href="#DejaVuSans-6f" x="716.503906"/>
     <use xlink:href="#DejaVuSans-73" x="777.685547"/>
     <use xlink:href="#DejaVuSans-73" x="829.785156"/>
     <use xlink:href="#DejaVuSans-20" x="881.884766"/>
     <use xlink:href="#DejaVuSans-6f" x="913.671875"/>
     <use xlink:href="#DejaVuSans-66" x="974.853516"/>
     <use xlink:href="#DejaVuSans-20" x="1010.058594"/>
     <use xlink:href="#DejaVuSans-53" x="1041.845703"/>
     <use xlink:href="#DejaVuSans-54" x="1105.322266"/>
    </g>
   </g>
   <g id="legend_1">
    <g id="patch_7">
     <path d="M 299.162188 108.1845 
L 407.72 108.1845 
Q 409.72 108.1845 409.72 106.1845 
L 409.72 48.472 
Q 409.72 46.472 407.72 46.472 
L 299.162188 46.472 
Q 297.162188 46.472 297.162188 48.472 
L 297.162188 106.1845 
Q 297.162188 108.1845 299.162188 108.1845 
z
" style="fill: #ffffff; opacity: 0.8; stroke: #cccccc; stroke-linejoin: miter"/>
    </g>
    <g id="line2d_20">
     <path d="M 301.162188 54.570438 
L 311.162188 54.570438 
L 321.162188 54.570438 
" style="fill: none; stroke: #1f77b4; stroke-linecap: square"/>
    </g>
    <g id="text_18">
     <!-- 2000 samples -->
     <g transform="translate(329.162188 58.070438) scale(0.1 -0.1)">
      <defs>
       <path id="DejaVuSans-61" d="M 2194 1759 
Q 1497 1759 1228 1600 
Q 959 1441 959 1056 
Q 959 750 1161 570 
Q 1363 391 1709 391 
Q 2188 391 2477 730 
Q 2766 1069 2766 1631 
L 2766 1759 
L 2194 1759 
z
M 3341 1997 
L 3341 0 
L 2766 0 
L 2766 531 
Q 2569 213 2275 61 
Q 1981 -91 1556 -91 
Q 1019 -91 701 211 
Q 384 513 384 1019 
Q 384 1609 779 1909 
Q 1175 2209 1959 2209 
L 2766 2209 
L 2766 2266 
Q 2766 2663 2505 2880 
Q 2244 3097 1772 3097 
Q 1472 3097 1187 3025 
Q 903 2953 641 2809 
L 641 3341 
Q 956 3463 1253 3523 
Q 1550 3584 1831 3584 
Q 2591 3584 2966 3190 
Q 3341 2797 3341 1997 
z
" transform="scale(0.015625)"/>
       <path id="DejaVuSans-6d" d="M 3328 2828 
Q 3544 3216 3844 3400 
Q 4144 3584 4550 3584 
Q 5097 3584 5394 3201 
Q 5691 2819 5691 2113 
L 5691 0 
L 5113 0 
L 5113 2094 
Q 5113 2597 4934 2840 
Q 4756 3084 4391 3084 
Q 3944 3084 3684 2787 
Q 3425 2491 3425 1978 
L 3425 0 
L 2847 0 
L 2847 2094 
Q 2847 2600 2669 2842 
Q 2491 3084 2119 3084 
Q 1678 3084 1418 2786 
Q 1159 2488 1159 1978 
L 1159 0 
L 581 0 
L 581 3500 
L 1159 3500 
L 1159 2956 
Q 1356 3278 1631 3431 
Q 1906 3584 2284 3584 
Q 2666 3584 2933 3390 
Q 3200 3197 3328 2828 
z
" transform="scale(0.015625)"/>
       <path id="DejaVuSans-6c" d="M 603 4863 
L 1178 4863 
L 1178 0 
L 603 0 
L 603 4863 
z
" transform="scale(0.015625)"/>
      </defs>
      <use xlink:href="#DejaVuSans-32"/>
      <use xlink:href="#DejaVuSans-30" x="63.623047"/>
      <use xlink:href="#DejaVuSans-30" x="127.246094"/>
      <use xlink:href="#DejaVuSans-30" x="190.869141"/>
      <use xlink:href="#DejaVuSans-20" x="254.492188"/>
      <use xlink:href="#DejaVuSans-73" x="286.279297"/>
      <use xlink:href="#DejaVuSans-61" x="338.378906"/>
      <use xlink:href="#DejaVuSans-6d" x="399.658203"/>
      <use xlink:href="#DejaVuSans-70" x="497.070312"/>
      <use xlink:href="#DejaVuSans-6c" x="560.546875"/>
      <use xlink:href="#DejaVuSans-65" x="588.330078"/>
      <use xlink:href="#DejaVuSans-73" x="649.853516"/>
     </g>
    </g>
    <g id="line2d_21">
     <path d="M 301.162188 69.248563 
L 311.162188 69.248563 
L 321.162188 69.248563 
" style="fill: none; stroke: #ff7f0e; stroke-linecap: square"/>
    </g>
    <g id="text_19">
     <!-- 5000 samples -->
     <g transform="translate(329.162188 72.748563) scale(0.1 -0.1)">
      <use xlink:href="#DejaVuSans-35"/>
      <use xlink:href="#DejaVuSans-30" x="63.623047"/>
      <use xlink:href="#DejaVuSans-30" x="127.246094"/>
      <use xlink:href="#DejaVuSans-30" x="190.869141"/>
      <use xlink:href="#DejaVuSans-20" x="254.492188"/>
      <use xlink:href="#DejaVuSans-73" x="286.279297"/>
      <use xlink:href="#DejaVuSans-61" x="338.378906"/>
      <use xlink:href="#DejaVuSans-6d" x="399.658203"/>
      <use xlink:href="#DejaVuSans-70" x="497.070312"/>
      <use xlink:href="#DejaVuSans-6c" x="560.546875"/>
      <use xlink:href="#DejaVuSans-65" x="588.330078"/>
      <use xlink:href="#DejaVuSans-73" x="649.853516"/>
     </g>
    </g>
    <g id="line2d_22">
     <path d="M 301.162188 83.926688 
L 311.162188 83.926688 
L 321.162188 83.926688 
" style="fill: none; stroke: #2ca02c; stroke-linecap: square"/>
    </g>
    <g id="text_20">
     <!-- 8000 samples -->
     <g transform="translate(329.162188 87.426688) scale(0.1 -0.1)">
      <use xlink:href="#DejaVuSans-38"/>
      <use xlink:href="#DejaVuSans-30" x="63.623047"/>
      <use xlink:href="#DejaVuSans-30" x="127.246094"/>
      <use xlink:href="#DejaVuSans-30" x="190.869141"/>
      <use xlink:href="#DejaVuSans-20" x="254.492188"/>
      <use xlink:href="#DejaVuSans-73" x="286.279297"/>
      <use xlink:href="#DejaVuSans-61" x="338.378906"/>
      <use xlink:href="#DejaVuSans-6d" x="399.658203"/>
      <use xlink:href="#DejaVuSans-70" x="497.070312"/>
      <use xlink:href="#DejaVuSans-6c" x="560.546875"/>
      <use xlink:href="#DejaVuSans-65" x="588.330078"/>
      <use xlink:href="#DejaVuSans-73" x="649.853516"/>
     </g>
    </g>
    <g id="line2d_23">
     <path d="M 301.162188 98.604813 
L 311.162188 98.604813 
L 321.162188 98.604813 
" style="fill: none; stroke: #d62728; stroke-linecap: square"/>
    </g>
    <g id="text_21">
     <!-- 10000 samples -->
     <g transform="translate(329.162188 102.104813) scale(0.1 -0.1)">
      <use xlink:href="#DejaVuSans-31"/>
      <use xlink:href="#DejaVuSans-30" x="63.623047"/>
      <use xlink:href="#DejaVuSans-30" x="127.246094"/>
      <use xlink:href="#DejaVuSans-30" x="190.869141"/>
      <use xlink:href="#DejaVuSans-30" x="254.492188"/>
      <use xlink:href="#DejaVuSans-20" x="318.115234"/>
      <use xlink:href="#DejaVuSans-73" x="349.902344"/>
      <use xlink:href="#DejaVuSans-61" x="402.001953"/>
      <use xlink:href="#DejaVuSans-6d" x="463.28125"/>
      <use xlink:href="#DejaVuSans-70" x="560.693359"/>
      <use xlink:href="#DejaVuSans-6c" x="624.169922"/>
      <use xlink:href="#DejaVuSans-65" x="651.953125"/>
      <use xlink:href="#DejaVuSans-73" x="713.476562"/>
     </g>
    </g>
   </g>
  </g>
 </g>
 <defs>
  <clipPath id="pe0ff6fe1b0">
   <rect x="57.6" y="41.472" width="357.12" height="266.112"/>
  </clipPath>
 </defs>
</svg>
