<?xml version="1.0" encoding="utf-8" standalone="no"?>
<!DOCTYPE svg PUBLIC "-//W3C//DTD SVG 1.1//EN"
  "http://www.w3.org/Graphics/SVG/1.1/DTD/svg11.dtd">
<svg xmlns:xlink="http://www.w3.org/1999/xlink" width="460.8pt" height="345.6pt" viewBox="0 0 460.8 345.6" xmlns="http://www.w3.org/2000/svg" version="1.1">
 <metadata>
  <rdf:RDF xmlns:dc="http://purl.org/dc/elements/1.1/" xmlns:cc="http://creativecommons.org/ns#" xmlns:rdf="http://www.w3.org/1999/02/22-rdf-syntax-ns#">
   <cc:Work>
    <dc:type rdf:resource="http://purl.org/dc/dcmitype/StillImage"/>
    <dc:date>2023-09-13T16:28:02.907311</dc:date>
    <dc:format>image/svg+xml</dc:format>
    <dc:creator>
     <cc:Agent>
      <dc:title>Matplotlib v3.7.1, https://matplotlib.org/</dc:title>
     </cc:Agent>
    </dc:creator>
   </cc:Work>
  </rdf:RDF>
 </metadata>
 <defs>
  <style type="text/css">*{stroke-linejoin: round; stroke-linecap: butt}</style>
 </defs>
 <g id="figure_1">
  <g id="patch_1">
   <path d="M 0 345.6 
L 460.8 345.6 
L 460.8 0 
L 0 0 
z
" style="fill: #ffffff"/>
  </g>
  <g id="axes_1">
   <g id="patch_2">
    <path d="M 57.6 307.584 
L 414.72 307.584 
L 414.72 41.472 
L 57.6 41.472 
z
" style="fill: #ffffff"/>
   </g>
   <g id="matplotlib.axis_1">
    <g id="xtick_1">
     <g id="line2d_1">
      <defs>
       <path id="m18663e8d6d" d="M 0 0 
L 0 3.5 
" style="stroke: #000000; stroke-width: 0.8"/>
      </defs>
      <g>
       <use xlink:href="#m18663e8d6d" x="71.653838" y="307.584" style="stroke: #000000; stroke-width: 0.8"/>
      </g>
     </g>
     <g id="text_1">
      <!-- 0 -->
      <g transform="translate(68.472588 322.182437) scale(0.1 -0.1)">
       <defs>
        <path id="DejaVuSans-30" d="M 2034 4250 
Q 1547 4250 1301 3770 
Q 1056 3291 1056 2328 
Q 1056 1369 1301 889 
Q 1547 409 2034 409 
Q 2525 409 2770 889 
Q 3016 1369 3016 2328 
Q 3016 3291 2770 3770 
Q 2525 4250 2034 4250 
z
M 2034 4750 
Q 2819 4750 3233 4129 
Q 3647 3509 3647 2328 
Q 3647 1150 3233 529 
Q 2819 -91 2034 -91 
Q 1250 -91 836 529 
Q 422 1150 422 2328 
Q 422 3509 836 4129 
Q 1250 4750 2034 4750 
z
" transform="scale(0.015625)"/>
       </defs>
       <use xlink:href="#DejaVuSans-30"/>
      </g>
     </g>
    </g>
    <g id="xtick_2">
     <g id="line2d_2">
      <g>
       <use xlink:href="#m18663e8d6d" x="115.231629" y="307.584" style="stroke: #000000; stroke-width: 0.8"/>
      </g>
     </g>
     <g id="text_2">
      <!-- 20 -->
      <g transform="translate(108.869129 322.182437) scale(0.1 -0.1)">
       <defs>
        <path id="DejaVuSans-32" d="M 1228 531 
L 3431 531 
L 3431 0 
L 469 0 
L 469 531 
Q 828 903 1448 1529 
Q 2069 2156 2228 2338 
Q 2531 2678 2651 2914 
Q 2772 3150 2772 3378 
Q 2772 3750 2511 3984 
Q 2250 4219 1831 4219 
Q 1534 4219 1204 4116 
Q 875 4013 500 3803 
L 500 4441 
Q 881 4594 1212 4672 
Q 1544 4750 1819 4750 
Q 2544 4750 2975 4387 
Q 3406 4025 3406 3419 
Q 3406 3131 3298 2873 
Q 3191 2616 2906 2266 
Q 2828 2175 2409 1742 
Q 1991 1309 1228 531 
z
" transform="scale(0.015625)"/>
       </defs>
       <use xlink:href="#DejaVuSans-32"/>
       <use xlink:href="#DejaVuSans-30" x="63.623047"/>
      </g>
     </g>
    </g>
    <g id="xtick_3">
     <g id="line2d_3">
      <g>
       <use xlink:href="#m18663e8d6d" x="158.80942" y="307.584" style="stroke: #000000; stroke-width: 0.8"/>
      </g>
     </g>
     <g id="text_3">
      <!-- 40 -->
      <g transform="translate(152.44692 322.182437) scale(0.1 -0.1)">
       <defs>
        <path id="DejaVuSans-34" d="M 2419 4116 
L 825 1625 
L 2419 1625 
L 2419 4116 
z
M 2253 4666 
L 3047 4666 
L 3047 1625 
L 3713 1625 
L 3713 1100 
L 3047 1100 
L 3047 0 
L 2419 0 
L 2419 1100 
L 313 1100 
L 313 1709 
L 2253 4666 
z
" transform="scale(0.015625)"/>
       </defs>
       <use xlink:href="#DejaVuSans-34"/>
       <use xlink:href="#DejaVuSans-30" x="63.623047"/>
      </g>
     </g>
    </g>
    <g id="xtick_4">
     <g id="line2d_4">
      <g>
       <use xlink:href="#m18663e8d6d" x="202.387212" y="307.584" style="stroke: #000000; stroke-width: 0.8"/>
      </g>
     </g>
     <g id="text_4">
      <!-- 60 -->
      <g transform="translate(196.024712 322.182437) scale(0.1 -0.1)">
       <defs>
        <path id="DejaVuSans-36" d="M 2113 2584 
Q 1688 2584 1439 2293 
Q 1191 2003 1191 1497 
Q 1191 994 1439 701 
Q 1688 409 2113 409 
Q 2538 409 2786 701 
Q 3034 994 3034 1497 
Q 3034 2003 2786 2293 
Q 2538 2584 2113 2584 
z
M 3366 4563 
L 3366 3988 
Q 3128 4100 2886 4159 
Q 2644 4219 2406 4219 
Q 1781 4219 1451 3797 
Q 1122 3375 1075 2522 
Q 1259 2794 1537 2939 
Q 1816 3084 2150 3084 
Q 2853 3084 3261 2657 
Q 3669 2231 3669 1497 
Q 3669 778 3244 343 
Q 2819 -91 2113 -91 
Q 1303 -91 875 529 
Q 447 1150 447 2328 
Q 447 3434 972 4092 
Q 1497 4750 2381 4750 
Q 2619 4750 2861 4703 
Q 3103 4656 3366 4563 
z
" transform="scale(0.015625)"/>
       </defs>
       <use xlink:href="#DejaVuSans-36"/>
       <use xlink:href="#DejaVuSans-30" x="63.623047"/>
      </g>
     </g>
    </g>
    <g id="xtick_5">
     <g id="line2d_5">
      <g>
       <use xlink:href="#m18663e8d6d" x="245.965003" y="307.584" style="stroke: #000000; stroke-width: 0.8"/>
      </g>
     </g>
     <g id="text_5">
      <!-- 80 -->
      <g transform="translate(239.602503 322.182437) scale(0.1 -0.1)">
       <defs>
        <path id="DejaVuSans-38" d="M 2034 2216 
Q 1584 2216 1326 1975 
Q 1069 1734 1069 1313 
Q 1069 891 1326 650 
Q 1584 409 2034 409 
Q 2484 409 2743 651 
Q 3003 894 3003 1313 
Q 3003 1734 2745 1975 
Q 2488 2216 2034 2216 
z
M 1403 2484 
Q 997 2584 770 2862 
Q 544 3141 544 3541 
Q 544 4100 942 4425 
Q 1341 4750 2034 4750 
Q 2731 4750 3128 4425 
Q 3525 4100 3525 3541 
Q 3525 3141 3298 2862 
Q 3072 2584 2669 2484 
Q 3125 2378 3379 2068 
Q 3634 1759 3634 1313 
Q 3634 634 3220 271 
Q 2806 -91 2034 -91 
Q 1263 -91 848 271 
Q 434 634 434 1313 
Q 434 1759 690 2068 
Q 947 2378 1403 2484 
z
M 1172 3481 
Q 1172 3119 1398 2916 
Q 1625 2713 2034 2713 
Q 2441 2713 2670 2916 
Q 2900 3119 2900 3481 
Q 2900 3844 2670 4047 
Q 2441 4250 2034 4250 
Q 1625 4250 1398 4047 
Q 1172 3844 1172 3481 
z
" transform="scale(0.015625)"/>
       </defs>
       <use xlink:href="#DejaVuSans-38"/>
       <use xlink:href="#DejaVuSans-30" x="63.623047"/>
      </g>
     </g>
    </g>
    <g id="xtick_6">
     <g id="line2d_6">
      <g>
       <use xlink:href="#m18663e8d6d" x="289.542794" y="307.584" style="stroke: #000000; stroke-width: 0.8"/>
      </g>
     </g>
     <g id="text_6">
      <!-- 100 -->
      <g transform="translate(279.999044 322.182437) scale(0.1 -0.1)">
       <defs>
        <path id="DejaVuSans-31" d="M 794 531 
L 1825 531 
L 1825 4091 
L 703 3866 
L 703 4441 
L 1819 4666 
L 2450 4666 
L 2450 531 
L 3481 531 
L 3481 0 
L 794 0 
L 794 531 
z
" transform="scale(0.015625)"/>
       </defs>
       <use xlink:href="#DejaVuSans-31"/>
       <use xlink:href="#DejaVuSans-30" x="63.623047"/>
       <use xlink:href="#DejaVuSans-30" x="127.246094"/>
      </g>
     </g>
    </g>
    <g id="xtick_7">
     <g id="line2d_7">
      <g>
       <use xlink:href="#m18663e8d6d" x="333.120586" y="307.584" style="stroke: #000000; stroke-width: 0.8"/>
      </g>
     </g>
     <g id="text_7">
      <!-- 120 -->
      <g transform="translate(323.576836 322.182437) scale(0.1 -0.1)">
       <use xlink:href="#DejaVuSans-31"/>
       <use xlink:href="#DejaVuSans-32" x="63.623047"/>
       <use xlink:href="#DejaVuSans-30" x="127.246094"/>
      </g>
     </g>
    </g>
    <g id="xtick_8">
     <g id="line2d_8">
      <g>
       <use xlink:href="#m18663e8d6d" x="376.698377" y="307.584" style="stroke: #000000; stroke-width: 0.8"/>
      </g>
     </g>
     <g id="text_8">
      <!-- 140 -->
      <g transform="translate(367.154627 322.182437) scale(0.1 -0.1)">
       <use xlink:href="#DejaVuSans-31"/>
       <use xlink:href="#DejaVuSans-34" x="63.623047"/>
       <use xlink:href="#DejaVuSans-30" x="127.246094"/>
      </g>
     </g>
    </g>
    <g id="text_9">
     <!-- epoch -->
     <g transform="translate(220.931875 335.860562) scale(0.1 -0.1)">
      <defs>
       <path id="DejaVuSans-65" d="M 3597 1894 
L 3597 1613 
L 953 1613 
Q 991 1019 1311 708 
Q 1631 397 2203 397 
Q 2534 397 2845 478 
Q 3156 559 3463 722 
L 3463 178 
Q 3153 47 2828 -22 
Q 2503 -91 2169 -91 
Q 1331 -91 842 396 
Q 353 884 353 1716 
Q 353 2575 817 3079 
Q 1281 3584 2069 3584 
Q 2775 3584 3186 3129 
Q 3597 2675 3597 1894 
z
M 3022 2063 
Q 3016 2534 2758 2815 
Q 2500 3097 2075 3097 
Q 1594 3097 1305 2825 
Q 1016 2553 972 2059 
L 3022 2063 
z
" transform="scale(0.015625)"/>
       <path id="DejaVuSans-70" d="M 1159 525 
L 1159 -1331 
L 581 -1331 
L 581 3500 
L 1159 3500 
L 1159 2969 
Q 1341 3281 1617 3432 
Q 1894 3584 2278 3584 
Q 2916 3584 3314 3078 
Q 3713 2572 3713 1747 
Q 3713 922 3314 415 
Q 2916 -91 2278 -91 
Q 1894 -91 1617 61 
Q 1341 213 1159 525 
z
M 3116 1747 
Q 3116 2381 2855 2742 
Q 2594 3103 2138 3103 
Q 1681 3103 1420 2742 
Q 1159 2381 1159 1747 
Q 1159 1113 1420 752 
Q 1681 391 2138 391 
Q 2594 391 2855 752 
Q 3116 1113 3116 1747 
z
" transform="scale(0.015625)"/>
       <path id="DejaVuSans-6f" d="M 1959 3097 
Q 1497 3097 1228 2736 
Q 959 2375 959 1747 
Q 959 1119 1226 758 
Q 1494 397 1959 397 
Q 2419 397 2687 759 
Q 2956 1122 2956 1747 
Q 2956 2369 2687 2733 
Q 2419 3097 1959 3097 
z
M 1959 3584 
Q 2709 3584 3137 3096 
Q 3566 2609 3566 1747 
Q 3566 888 3137 398 
Q 2709 -91 1959 -91 
Q 1206 -91 779 398 
Q 353 888 353 1747 
Q 353 2609 779 3096 
Q 1206 3584 1959 3584 
z
" transform="scale(0.015625)"/>
       <path id="DejaVuSans-63" d="M 3122 3366 
L 3122 2828 
Q 2878 2963 2633 3030 
Q 2388 3097 2138 3097 
Q 1578 3097 1268 2742 
Q 959 2388 959 1747 
Q 959 1106 1268 751 
Q 1578 397 2138 397 
Q 2388 397 2633 464 
Q 2878 531 3122 666 
L 3122 134 
Q 2881 22 2623 -34 
Q 2366 -91 2075 -91 
Q 1284 -91 818 406 
Q 353 903 353 1747 
Q 353 2603 823 3093 
Q 1294 3584 2113 3584 
Q 2378 3584 2631 3529 
Q 2884 3475 3122 3366 
z
" transform="scale(0.015625)"/>
       <path id="DejaVuSans-68" d="M 3513 2113 
L 3513 0 
L 2938 0 
L 2938 2094 
Q 2938 2591 2744 2837 
Q 2550 3084 2163 3084 
Q 1697 3084 1428 2787 
Q 1159 2491 1159 1978 
L 1159 0 
L 581 0 
L 581 4863 
L 1159 4863 
L 1159 2956 
Q 1366 3272 1645 3428 
Q 1925 3584 2291 3584 
Q 2894 3584 3203 3211 
Q 3513 2838 3513 2113 
z
" transform="scale(0.015625)"/>
      </defs>
      <use xlink:href="#DejaVuSans-65"/>
      <use xlink:href="#DejaVuSans-70" x="61.523438"/>
      <use xlink:href="#DejaVuSans-6f" x="125"/>
      <use xlink:href="#DejaVuSans-63" x="186.181641"/>
      <use xlink:href="#DejaVuSans-68" x="241.162109"/>
     </g>
    </g>
   </g>
   <g id="matplotlib.axis_2">
    <g id="ytick_1">
     <g id="line2d_9">
      <defs>
       <path id="m166c3efebf" d="M 0 0 
L -3.5 0 
" style="stroke: #000000; stroke-width: 0.8"/>
      </defs>
      <g>
       <use xlink:href="#m166c3efebf" x="57.6" y="307.584" style="stroke: #000000; stroke-width: 0.8"/>
      </g>
     </g>
     <g id="text_10">
      <!-- 0.0 -->
      <g transform="translate(34.696875 311.383219) scale(0.1 -0.1)">
       <defs>
        <path id="DejaVuSans-2e" d="M 684 794 
L 1344 794 
L 1344 0 
L 684 0 
L 684 794 
z
" transform="scale(0.015625)"/>
       </defs>
       <use xlink:href="#DejaVuSans-30"/>
       <use xlink:href="#DejaVuSans-2e" x="63.623047"/>
       <use xlink:href="#DejaVuSans-30" x="95.410156"/>
      </g>
     </g>
    </g>
    <g id="ytick_2">
     <g id="line2d_10">
      <g>
       <use xlink:href="#m166c3efebf" x="57.6" y="272.391968" style="stroke: #000000; stroke-width: 0.8"/>
      </g>
     </g>
     <g id="text_11">
      <!-- 0.1 -->
      <g transform="translate(34.696875 276.191187) scale(0.1 -0.1)">
       <use xlink:href="#DejaVuSans-30"/>
       <use xlink:href="#DejaVuSans-2e" x="63.623047"/>
       <use xlink:href="#DejaVuSans-31" x="95.410156"/>
      </g>
     </g>
    </g>
    <g id="ytick_3">
     <g id="line2d_11">
      <g>
       <use xlink:href="#m166c3efebf" x="57.6" y="237.199936" style="stroke: #000000; stroke-width: 0.8"/>
      </g>
     </g>
     <g id="text_12">
      <!-- 0.2 -->
      <g transform="translate(34.696875 240.999155) scale(0.1 -0.1)">
       <use xlink:href="#DejaVuSans-30"/>
       <use xlink:href="#DejaVuSans-2e" x="63.623047"/>
       <use xlink:href="#DejaVuSans-32" x="95.410156"/>
      </g>
     </g>
    </g>
    <g id="ytick_4">
     <g id="line2d_12">
      <g>
       <use xlink:href="#m166c3efebf" x="57.6" y="202.007904" style="stroke: #000000; stroke-width: 0.8"/>
      </g>
     </g>
     <g id="text_13">
      <!-- 0.3 -->
      <g transform="translate(34.696875 205.807123) scale(0.1 -0.1)">
       <defs>
        <path id="DejaVuSans-33" d="M 2597 2516 
Q 3050 2419 3304 2112 
Q 3559 1806 3559 1356 
Q 3559 666 3084 287 
Q 2609 -91 1734 -91 
Q 1441 -91 1130 -33 
Q 819 25 488 141 
L 488 750 
Q 750 597 1062 519 
Q 1375 441 1716 441 
Q 2309 441 2620 675 
Q 2931 909 2931 1356 
Q 2931 1769 2642 2001 
Q 2353 2234 1838 2234 
L 1294 2234 
L 1294 2753 
L 1863 2753 
Q 2328 2753 2575 2939 
Q 2822 3125 2822 3475 
Q 2822 3834 2567 4026 
Q 2313 4219 1838 4219 
Q 1578 4219 1281 4162 
Q 984 4106 628 3988 
L 628 4550 
Q 988 4650 1302 4700 
Q 1616 4750 1894 4750 
Q 2613 4750 3031 4423 
Q 3450 4097 3450 3541 
Q 3450 3153 3228 2886 
Q 3006 2619 2597 2516 
z
" transform="scale(0.015625)"/>
       </defs>
       <use xlink:href="#DejaVuSans-30"/>
       <use xlink:href="#DejaVuSans-2e" x="63.623047"/>
       <use xlink:href="#DejaVuSans-33" x="95.410156"/>
      </g>
     </g>
    </g>
    <g id="ytick_5">
     <g id="line2d_13">
      <g>
       <use xlink:href="#m166c3efebf" x="57.6" y="166.815873" style="stroke: #000000; stroke-width: 0.8"/>
      </g>
     </g>
     <g id="text_14">
      <!-- 0.4 -->
      <g transform="translate(34.696875 170.615091) scale(0.1 -0.1)">
       <use xlink:href="#DejaVuSans-30"/>
       <use xlink:href="#DejaVuSans-2e" x="63.623047"/>
       <use xlink:href="#DejaVuSans-34" x="95.410156"/>
      </g>
     </g>
    </g>
    <g id="ytick_6">
     <g id="line2d_14">
      <g>
       <use xlink:href="#m166c3efebf" x="57.6" y="131.623841" style="stroke: #000000; stroke-width: 0.8"/>
      </g>
     </g>
     <g id="text_15">
      <!-- 0.5 -->
      <g transform="translate(34.696875 135.42306) scale(0.1 -0.1)">
       <defs>
        <path id="DejaVuSans-35" d="M 691 4666 
L 3169 4666 
L 3169 4134 
L 1269 4134 
L 1269 2991 
Q 1406 3038 1543 3061 
Q 1681 3084 1819 3084 
Q 2600 3084 3056 2656 
Q 3513 2228 3513 1497 
Q 3513 744 3044 326 
Q 2575 -91 1722 -91 
Q 1428 -91 1123 -41 
Q 819 9 494 109 
L 494 744 
Q 775 591 1075 516 
Q 1375 441 1709 441 
Q 2250 441 2565 725 
Q 2881 1009 2881 1497 
Q 2881 1984 2565 2268 
Q 2250 2553 1709 2553 
Q 1456 2553 1204 2497 
Q 953 2441 691 2322 
L 691 4666 
z
" transform="scale(0.015625)"/>
       </defs>
       <use xlink:href="#DejaVuSans-30"/>
       <use xlink:href="#DejaVuSans-2e" x="63.623047"/>
       <use xlink:href="#DejaVuSans-35" x="95.410156"/>
      </g>
     </g>
    </g>
    <g id="ytick_7">
     <g id="line2d_15">
      <g>
       <use xlink:href="#m166c3efebf" x="57.6" y="96.431809" style="stroke: #000000; stroke-width: 0.8"/>
      </g>
     </g>
     <g id="text_16">
      <!-- 0.6 -->
      <g transform="translate(34.696875 100.231028) scale(0.1 -0.1)">
       <use xlink:href="#DejaVuSans-30"/>
       <use xlink:href="#DejaVuSans-2e" x="63.623047"/>
       <use xlink:href="#DejaVuSans-36" x="95.410156"/>
      </g>
     </g>
    </g>
    <g id="ytick_8">
     <g id="line2d_16">
      <g>
       <use xlink:href="#m166c3efebf" x="57.6" y="61.239777" style="stroke: #000000; stroke-width: 0.8"/>
      </g>
     </g>
     <g id="text_17">
      <!-- 0.7 -->
      <g transform="translate(34.696875 65.038996) scale(0.1 -0.1)">
       <defs>
        <path id="DejaVuSans-37" d="M 525 4666 
L 3525 4666 
L 3525 4397 
L 1831 0 
L 1172 0 
L 2766 4134 
L 525 4134 
L 525 4666 
z
" transform="scale(0.015625)"/>
       </defs>
       <use xlink:href="#DejaVuSans-30"/>
       <use xlink:href="#DejaVuSans-2e" x="63.623047"/>
       <use xlink:href="#DejaVuSans-37" x="95.410156"/>
      </g>
     </g>
    </g>
   </g>
   <g id="line2d_17">
    <path d="M 73.832727 242.1156 
L 76.011617 132.4819 
L 78.190506 118.496818 
L 82.548286 116.320288 
L 84.727175 116.732257 
L 86.906065 114.776987 
L 89.084954 120.354291 
L 91.263844 113.175344 
L 93.442733 112.814144 
L 95.621623 114.527122 
L 97.800513 111.841843 
L 99.979402 112.042075 
L 102.158292 112.518197 
L 104.337181 114.130357 
L 106.516071 110.267133 
L 108.69496 113.822527 
L 110.87385 111.068854 
L 113.052739 111.542158 
L 115.231629 110.610705 
L 117.410519 111.780511 
L 119.589408 113.603845 
L 121.768298 110.774066 
L 123.947187 110.467826 
L 126.126077 110.757868 
L 128.304966 113.955884 
L 130.483856 111.639051 
L 132.662746 110.711725 
L 134.841635 112.13624 
L 137.020525 111.598694 
L 139.199414 109.793112 
L 141.378304 111.577749 
L 143.557193 112.146235 
L 145.736083 109.002265 
L 147.914973 110.013162 
L 150.093862 111.532854 
L 156.630531 109.798763 
L 158.80942 110.689969 
L 160.98831 109.805415 
L 163.1672 109.635158 
L 165.346089 109.973029 
L 167.524979 111.032794 
L 169.703868 110.117134 
L 171.882758 112.205768 
L 174.061647 110.437315 
L 176.240537 109.467999 
L 178.419426 109.565462 
L 180.598316 111.278278 
L 182.777206 108.875664 
L 184.956095 111.757941 
L 187.134985 109.568472 
L 189.313874 109.25824 
L 191.492764 109.433699 
L 193.671653 109.932475 
L 195.850543 109.059667 
L 198.029433 110.103349 
L 202.387212 109.31934 
L 204.566101 109.754442 
L 206.744991 110.075823 
L 208.92388 109.87219 
L 211.10277 111.163101 
L 213.28166 109.230585 
L 215.460549 108.067666 
L 217.639439 109.206508 
L 219.818328 109.40142 
L 221.997218 110.95112 
L 224.176107 110.783051 
L 226.354997 110.011643 
L 228.533887 110.542811 
L 230.712776 109.787255 
L 232.891666 109.55634 
L 235.070555 110.565375 
L 237.249445 111.056371 
L 239.428334 110.246268 
L 241.607224 110.804014 
L 243.786113 110.168068 
L 245.965003 109.747995 
L 248.143893 109.559391 
L 250.322782 108.99179 
L 252.501672 110.210688 
L 254.680561 110.852172 
L 256.859451 108.972536 
L 259.03834 110.048913 
L 261.21723 109.394827 
L 263.39612 110.538463 
L 265.575009 109.152981 
L 267.753899 111.474634 
L 269.932788 110.662965 
L 272.111678 110.485526 
L 274.290567 109.605524 
L 276.469457 111.741274 
L 278.648347 109.119686 
L 280.827236 110.501517 
L 283.006126 109.655961 
L 285.185015 111.151085 
L 287.363905 109.102664 
L 291.721684 109.192757 
L 293.900574 110.201451 
L 296.079463 109.903137 
L 298.258353 107.839776 
L 300.437242 110.52054 
L 302.616132 108.762254 
L 304.795021 109.883789 
L 306.973911 109.903377 
L 309.1528 110.378677 
L 311.33169 108.992642 
L 313.51058 109.60255 
L 315.689469 109.80045 
L 320.047248 108.719904 
L 322.226138 109.575597 
L 324.405027 109.574821 
L 326.583917 109.054997 
L 328.762807 108.96477 
L 330.941696 110.750405 
L 333.120586 109.999119 
L 335.299475 109.445826 
L 337.478365 109.912935 
L 339.657254 108.371753 
L 341.836144 110.399255 
L 344.015034 109.521811 
L 346.193923 107.658434 
L 348.372813 109.224294 
L 350.551702 109.841089 
L 352.730592 108.697566 
L 354.909481 109.078823 
L 357.088371 109.178161 
L 359.267261 109.42412 
L 361.44615 109.96607 
L 363.62504 108.649355 
L 365.803929 109.293135 
L 367.982819 108.287249 
L 370.161708 108.00066 
L 372.340598 109.603172 
L 374.519487 108.234145 
L 376.698377 109.15072 
L 378.877267 107.799882 
L 381.056156 109.803892 
L 383.235046 108.892576 
L 385.413935 109.698579 
L 387.592825 107.203223 
L 389.771714 108.309112 
L 391.950604 108.283624 
L 394.129494 107.706396 
L 396.308383 110.048257 
L 398.487273 108.944456 
L 398.487273 108.944456 
" clip-path="url(#p10aa80d0a7)" style="fill: none; stroke: #1f77b4; stroke-linecap: square"/>
   </g>
   <g id="line2d_18">
    <path d="M 73.832727 241.582882 
L 86.906065 241.621203 
L 89.084954 241.259721 
L 91.263844 185.96306 
L 93.442733 158.68379 
L 95.621623 142.947998 
L 97.800513 207.64338 
L 99.979402 158.351332 
L 102.158292 140.941835 
L 104.337181 145.563081 
L 106.516071 158.013854 
L 108.69496 150.270703 
L 110.87385 193.851606 
L 113.052739 151.706735 
L 115.231629 202.811874 
L 117.410519 158.453834 
L 119.589408 143.485834 
L 121.768298 134.487115 
L 123.947187 136.310488 
L 126.126077 136.835784 
L 128.304966 150.41698 
L 130.483856 161.170029 
L 132.662746 132.125954 
L 134.841635 130.920369 
L 137.020525 217.542484 
L 139.199414 128.238374 
L 141.378304 130.40819 
L 143.557193 137.324532 
L 145.736083 153.360782 
L 147.914973 142.797443 
L 150.093862 127.088584 
L 152.272752 128.826021 
L 154.451641 133.315903 
L 156.630531 138.546695 
L 158.80942 127.691005 
L 160.98831 131.276775 
L 163.1672 130.940587 
L 165.346089 134.141363 
L 167.524979 135.745198 
L 169.703868 155.959267 
L 171.882758 137.74258 
L 174.061647 132.212481 
L 176.240537 130.620952 
L 178.419426 134.833942 
L 180.598316 132.739277 
L 182.777206 132.892742 
L 184.956095 128.318555 
L 187.134985 129.702213 
L 189.313874 131.461536 
L 191.492764 138.451999 
L 193.671653 128.088903 
L 195.850543 139.260277 
L 198.029433 131.833939 
L 200.208322 126.512855 
L 202.387212 128.851584 
L 204.566101 135.379024 
L 206.744991 131.348283 
L 208.92388 134.528809 
L 211.10277 128.922201 
L 213.28166 122.354098 
L 215.460549 134.393131 
L 217.639439 134.993982 
L 219.818328 121.864146 
L 221.997218 118.130493 
L 224.176107 137.606393 
L 226.354997 124.929643 
L 228.533887 130.609014 
L 230.712776 125.809546 
L 232.891666 128.923916 
L 235.070555 130.229425 
L 237.249445 127.057068 
L 239.428334 127.541897 
L 241.607224 136.785852 
L 243.786113 129.273443 
L 245.965003 130.162989 
L 248.143893 121.877092 
L 250.322782 124.118733 
L 252.501672 124.370086 
L 254.680561 128.686448 
L 256.859451 124.234969 
L 259.03834 118.455375 
L 261.21723 122.49522 
L 263.39612 127.296204 
L 265.575009 125.059938 
L 267.753899 131.407864 
L 269.932788 127.675308 
L 272.111678 131.241018 
L 274.290567 132.132294 
L 276.469457 127.423978 
L 278.648347 128.089986 
L 280.827236 132.182373 
L 283.006126 123.716052 
L 285.185015 122.053442 
L 287.363905 127.297898 
L 289.542794 129.948593 
L 291.721684 126.826354 
L 293.900574 129.791833 
L 296.079463 125.888883 
L 298.258353 133.002401 
L 300.437242 121.745487 
L 302.616132 130.175267 
L 304.795021 119.323504 
L 306.973911 123.403129 
L 309.1528 129.816219 
L 311.33169 115.366872 
L 313.51058 124.593365 
L 315.689469 132.585037 
L 317.868359 122.34642 
L 320.047248 128.736761 
L 322.226138 130.455632 
L 324.405027 128.919216 
L 326.583917 131.745919 
L 328.762807 131.097647 
L 330.941696 125.221745 
L 333.120586 125.295885 
L 335.299475 131.184903 
L 337.478365 133.54664 
L 339.657254 127.385968 
L 341.836144 132.141255 
L 344.015034 125.782189 
L 346.193923 126.904834 
L 348.372813 130.261302 
L 350.551702 130.610953 
L 352.730592 121.268604 
L 354.909481 128.602906 
L 357.088371 130.115985 
L 359.267261 127.38964 
L 361.44615 128.608393 
L 363.62504 126.59757 
L 365.803929 126.050591 
L 367.982819 119.984761 
L 370.161708 125.449527 
L 372.340598 126.550178 
L 374.519487 125.488234 
L 376.698377 119.220324 
L 378.877267 124.923984 
L 381.056156 122.892766 
L 383.235046 109.411377 
L 385.413935 130.295367 
L 387.592825 127.384429 
L 389.771714 123.291687 
L 391.950604 123.759831 
L 394.129494 121.600767 
L 396.308383 129.004786 
L 398.487273 123.113106 
L 398.487273 123.113106 
" clip-path="url(#p10aa80d0a7)" style="fill: none; stroke: #ff7f0e; stroke-linecap: square"/>
   </g>
   <g id="line2d_19">
    <path d="M 73.832727 242.918181 
L 76.011617 242.794483 
L 78.190506 243.003686 
L 80.369396 129.53922 
L 82.548286 124.911963 
L 84.727175 131.625803 
L 86.906065 237.778229 
L 89.084954 125.015903 
L 91.263844 136.444706 
L 93.442733 120.28312 
L 95.621623 124.639805 
L 97.800513 119.514116 
L 99.979402 118.955779 
L 102.158292 120.199798 
L 104.337181 118.940449 
L 106.516071 119.028621 
L 108.69496 119.662549 
L 110.87385 118.374916 
L 113.052739 119.279819 
L 115.231629 117.992494 
L 117.410519 119.192969 
L 119.589408 118.737888 
L 121.768298 119.974502 
L 123.947187 118.801787 
L 126.126077 117.475092 
L 128.304966 117.215458 
L 130.483856 116.65602 
L 132.662746 116.266128 
L 134.841635 118.386256 
L 137.020525 115.416628 
L 139.199414 117.139553 
L 141.378304 116.750747 
L 143.557193 115.240163 
L 145.736083 116.094105 
L 147.914973 118.022299 
L 150.093862 116.275697 
L 152.272752 116.053049 
L 154.451641 115.632729 
L 156.630531 116.414413 
L 158.80942 115.149331 
L 160.98831 116.199767 
L 163.1672 111.304094 
L 165.346089 114.459399 
L 167.524979 113.839914 
L 169.703868 113.983813 
L 171.882758 114.490954 
L 174.061647 113.81524 
L 176.240537 111.254044 
L 178.419426 116.008095 
L 180.598316 111.167077 
L 182.777206 112.07606 
L 184.956095 107.594806 
L 187.134985 112.623822 
L 189.313874 110.424279 
L 191.492764 114.451608 
L 193.671653 108.320405 
L 195.850543 107.924665 
L 198.029433 113.984679 
L 200.208322 111.924279 
L 202.387212 104.048678 
L 204.566101 107.910725 
L 206.744991 100.499012 
L 208.92388 103.353963 
L 211.10277 112.811244 
L 213.28166 105.828922 
L 215.460549 114.269192 
L 217.639439 107.434258 
L 219.818328 104.967385 
L 221.997218 113.778948 
L 224.176107 111.601708 
L 226.354997 110.447292 
L 228.533887 112.16838 
L 230.712776 102.535851 
L 232.891666 101.607952 
L 235.070555 107.026674 
L 237.249445 109.608669 
L 239.428334 96.505258 
L 241.607224 106.848617 
L 243.786113 106.501907 
L 245.965003 105.679786 
L 248.143893 100.892599 
L 250.322782 105.427384 
L 252.501672 111.21146 
L 254.680561 102.777142 
L 256.859451 101.371308 
L 259.03834 98.215825 
L 261.21723 95.691655 
L 263.39612 106.070904 
L 265.575009 100.944251 
L 267.753899 104.862495 
L 269.932788 98.712553 
L 272.111678 108.533095 
L 274.290567 104.129188 
L 276.469457 105.826046 
L 280.827236 93.505243 
L 283.006126 96.065969 
L 285.185015 100.943553 
L 287.363905 98.205626 
L 289.542794 92.877754 
L 291.721684 94.467704 
L 293.900574 97.112467 
L 296.079463 104.980688 
L 300.437242 97.74868 
L 302.616132 103.155935 
L 304.795021 99.557061 
L 306.973911 103.401738 
L 309.1528 99.468003 
L 311.33169 94.534867 
L 313.51058 97.092526 
L 315.689469 100.081361 
L 317.868359 93.872223 
L 320.047248 106.457083 
L 322.226138 96.908533 
L 324.405027 99.033397 
L 326.583917 96.745481 
L 328.762807 92.831291 
L 333.120586 104.553695 
L 335.299475 94.364067 
L 337.478365 99.31592 
L 339.657254 93.077698 
L 341.836144 98.273765 
L 344.015034 94.258833 
L 346.193923 103.877048 
L 348.372813 100.61525 
L 350.551702 96.68829 
L 352.730592 100.340261 
L 354.909481 104.739396 
L 357.088371 111.822936 
L 359.267261 100.235047 
L 361.44615 95.315146 
L 363.62504 94.920387 
L 365.803929 99.15594 
L 367.982819 96.381363 
L 370.161708 106.670841 
L 372.340598 101.884667 
L 374.519487 98.06118 
L 376.698377 103.368299 
L 378.877267 96.329685 
L 381.056156 98.054001 
L 383.235046 101.413206 
L 385.413935 94.399106 
L 387.592825 101.616701 
L 389.771714 98.436201 
L 391.950604 94.366797 
L 394.129494 99.790346 
L 396.308383 93.913052 
L 398.487273 97.704877 
L 398.487273 97.704877 
" clip-path="url(#p10aa80d0a7)" style="fill: none; stroke: #2ca02c; stroke-linecap: square"/>
   </g>
   <g id="line2d_20">
    <path d="M 73.832727 243.469884 
L 76.011617 241.278988 
L 78.190506 177.530371 
L 80.369396 197.42558 
L 82.548286 165.361247 
L 84.727175 119.979155 
L 86.906065 134.060835 
L 89.084954 117.589197 
L 91.263844 129.294209 
L 93.442733 116.051857 
L 95.621623 115.305464 
L 97.800513 119.266865 
L 99.979402 103.182408 
L 102.158292 115.97942 
L 104.337181 103.241638 
L 106.516071 101.367678 
L 108.69496 105.343 
L 110.87385 106.203306 
L 113.052739 108.832999 
L 115.231629 95.620098 
L 117.410519 113.749333 
L 119.589408 110.658543 
L 121.768298 103.905413 
L 123.947187 104.563124 
L 126.126077 106.803186 
L 128.304966 115.835523 
L 130.483856 105.103267 
L 132.662746 107.904747 
L 134.841635 104.696486 
L 137.020525 104.733108 
L 139.199414 109.310377 
L 141.378304 106.31168 
L 143.557193 101.133107 
L 145.736083 111.007199 
L 147.914973 100.817077 
L 150.093862 108.001493 
L 152.272752 111.410623 
L 154.451641 104.001606 
L 156.630531 106.536648 
L 158.80942 105.777219 
L 160.98831 98.545766 
L 163.1672 102.424698 
L 165.346089 116.531294 
L 167.524979 93.970696 
L 169.703868 105.424178 
L 171.882758 94.534153 
L 174.061647 101.317598 
L 176.240537 102.234025 
L 178.419426 101.774 
L 180.598316 102.246222 
L 182.777206 101.747662 
L 184.956095 109.65933 
L 187.134985 104.542586 
L 189.313874 95.946307 
L 191.492764 107.93269 
L 193.671653 105.191973 
L 195.850543 110.884668 
L 198.029433 94.727623 
L 200.208322 108.420881 
L 202.387212 102.533247 
L 204.566101 105.791554 
L 206.744991 96.74544 
L 208.92388 93.957068 
L 211.10277 95.980342 
L 213.28166 93.593201 
L 215.460549 101.200073 
L 217.639439 99.683285 
L 219.818328 99.258879 
L 221.997218 97.865446 
L 224.176107 94.367205 
L 226.354997 101.105795 
L 228.533887 101.572661 
L 230.712776 93.997047 
L 232.891666 94.507251 
L 235.070555 96.865067 
L 237.249445 91.458046 
L 239.428334 92.563128 
L 241.607224 99.593116 
L 243.786113 97.441452 
L 245.965003 96.620802 
L 248.143893 98.173852 
L 250.322782 96.829448 
L 252.501672 94.091478 
L 254.680561 95.379915 
L 256.859451 99.000948 
L 259.03834 99.704902 
L 261.21723 99.062019 
L 263.39612 96.083466 
L 265.575009 96.077558 
L 267.753899 94.527833 
L 269.932788 102.712355 
L 272.111678 103.083102 
L 274.290567 96.984756 
L 276.469457 106.930638 
L 278.648347 99.003692 
L 280.827236 96.895027 
L 283.006126 106.503834 
L 285.185015 97.343641 
L 287.363905 96.285116 
L 289.542794 92.555351 
L 291.721684 97.557829 
L 293.900574 100.853138 
L 296.079463 91.731701 
L 298.258353 104.787237 
L 300.437242 95.576262 
L 302.616132 99.319425 
L 304.795021 101.202529 
L 306.973911 104.246067 
L 309.1528 101.319298 
L 311.33169 94.613883 
L 313.51058 92.237301 
L 315.689469 92.61596 
L 317.868359 99.390969 
L 320.047248 97.850981 
L 322.226138 94.557564 
L 324.405027 88.419658 
L 326.583917 104.074431 
L 328.762807 105.343009 
L 330.941696 103.272145 
L 333.120586 98.910955 
L 335.299475 100.256615 
L 337.478365 90.47848 
L 339.657254 100.575017 
L 341.836144 101.440736 
L 344.015034 100.168132 
L 346.193923 93.010765 
L 348.372813 94.976951 
L 350.551702 89.137649 
L 352.730592 92.443118 
L 354.909481 98.320619 
L 357.088371 93.997053 
L 359.267261 93.217117 
L 361.44615 95.044566 
L 363.62504 89.188686 
L 365.803929 101.911786 
L 367.982819 97.044804 
L 370.161708 85.824 
L 372.340598 94.100034 
L 374.519487 96.548565 
L 376.698377 100.419463 
L 378.877267 93.648215 
L 381.056156 90.719649 
L 383.235046 101.061143 
L 385.413935 95.412861 
L 387.592825 93.413644 
L 389.771714 103.208669 
L 391.950604 98.839988 
L 396.308383 95.434183 
L 398.487273 88.542418 
L 398.487273 88.542418 
" clip-path="url(#p10aa80d0a7)" style="fill: none; stroke: #d62728; stroke-linecap: square"/>
   </g>
   <g id="patch_3">
    <path d="M 57.6 307.584 
L 57.6 41.472 
" style="fill: none; stroke: #000000; stroke-width: 0.8; stroke-linejoin: miter; stroke-linecap: square"/>
   </g>
   <g id="patch_4">
    <path d="M 414.72 307.584 
L 414.72 41.472 
" style="fill: none; stroke: #000000; stroke-width: 0.8; stroke-linejoin: miter; stroke-linecap: square"/>
   </g>
   <g id="patch_5">
    <path d="M 57.6 307.584 
L 414.72 307.584 
" style="fill: none; stroke: #000000; stroke-width: 0.8; stroke-linejoin: miter; stroke-linecap: square"/>
   </g>
   <g id="patch_6">
    <path d="M 57.6 41.472 
L 414.72 41.472 
" style="fill: none; stroke: #000000; stroke-width: 0.8; stroke-linejoin: miter; stroke-linecap: square"/>
   </g>
   <g id="text_18">
    <!-- F1 score of ST -->
    <g transform="translate(193.794375 35.472) scale(0.12 -0.12)">
     <defs>
      <path id="DejaVuSans-46" d="M 628 4666 
L 3309 4666 
L 3309 4134 
L 1259 4134 
L 1259 2759 
L 3109 2759 
L 3109 2228 
L 1259 2228 
L 1259 0 
L 628 0 
L 628 4666 
z
" transform="scale(0.015625)"/>
      <path id="DejaVuSans-20" transform="scale(0.015625)"/>
      <path id="DejaVuSans-73" d="M 2834 3397 
L 2834 2853 
Q 2591 2978 2328 3040 
Q 2066 3103 1784 3103 
Q 1356 3103 1142 2972 
Q 928 2841 928 2578 
Q 928 2378 1081 2264 
Q 1234 2150 1697 2047 
L 1894 2003 
Q 2506 1872 2764 1633 
Q 3022 1394 3022 966 
Q 3022 478 2636 193 
Q 2250 -91 1575 -91 
Q 1294 -91 989 -36 
Q 684 19 347 128 
L 347 722 
Q 666 556 975 473 
Q 1284 391 1588 391 
Q 1994 391 2212 530 
Q 2431 669 2431 922 
Q 2431 1156 2273 1281 
Q 2116 1406 1581 1522 
L 1381 1569 
Q 847 1681 609 1914 
Q 372 2147 372 2553 
Q 372 3047 722 3315 
Q 1072 3584 1716 3584 
Q 2034 3584 2315 3537 
Q 2597 3491 2834 3397 
z
" transform="scale(0.015625)"/>
      <path id="DejaVuSans-72" d="M 2631 2963 
Q 2534 3019 2420 3045 
Q 2306 3072 2169 3072 
Q 1681 3072 1420 2755 
Q 1159 2438 1159 1844 
L 1159 0 
L 581 0 
L 581 3500 
L 1159 3500 
L 1159 2956 
Q 1341 3275 1631 3429 
Q 1922 3584 2338 3584 
Q 2397 3584 2469 3576 
Q 2541 3569 2628 3553 
L 2631 2963 
z
" transform="scale(0.015625)"/>
      <path id="DejaVuSans-66" d="M 2375 4863 
L 2375 4384 
L 1825 4384 
Q 1516 4384 1395 4259 
Q 1275 4134 1275 3809 
L 1275 3500 
L 2222 3500 
L 2222 3053 
L 1275 3053 
L 1275 0 
L 697 0 
L 697 3053 
L 147 3053 
L 147 3500 
L 697 3500 
L 697 3744 
Q 697 4328 969 4595 
Q 1241 4863 1831 4863 
L 2375 4863 
z
" transform="scale(0.015625)"/>
      <path id="DejaVuSans-53" d="M 3425 4513 
L 3425 3897 
Q 3066 4069 2747 4153 
Q 2428 4238 2131 4238 
Q 1616 4238 1336 4038 
Q 1056 3838 1056 3469 
Q 1056 3159 1242 3001 
Q 1428 2844 1947 2747 
L 2328 2669 
Q 3034 2534 3370 2195 
Q 3706 1856 3706 1288 
Q 3706 609 3251 259 
Q 2797 -91 1919 -91 
Q 1588 -91 1214 -16 
Q 841 59 441 206 
L 441 856 
Q 825 641 1194 531 
Q 1563 422 1919 422 
Q 2459 422 2753 634 
Q 3047 847 3047 1241 
Q 3047 1584 2836 1778 
Q 2625 1972 2144 2069 
L 1759 2144 
Q 1053 2284 737 2584 
Q 422 2884 422 3419 
Q 422 4038 858 4394 
Q 1294 4750 2059 4750 
Q 2388 4750 2728 4690 
Q 3069 4631 3425 4513 
z
" transform="scale(0.015625)"/>
      <path id="DejaVuSans-54" d="M -19 4666 
L 3928 4666 
L 3928 4134 
L 2272 4134 
L 2272 0 
L 1638 0 
L 1638 4134 
L -19 4134 
L -19 4666 
z
" transform="scale(0.015625)"/>
     </defs>
     <use xlink:href="#DejaVuSans-46"/>
     <use xlink:href="#DejaVuSans-31" x="57.519531"/>
     <use xlink:href="#DejaVuSans-20" x="121.142578"/>
     <use xlink:href="#DejaVuSans-73" x="152.929688"/>
     <use xlink:href="#DejaVuSans-63" x="205.029297"/>
     <use xlink:href="#DejaVuSans-6f" x="260.009766"/>
     <use xlink:href="#DejaVuSans-72" x="321.191406"/>
     <use xlink:href="#DejaVuSans-65" x="360.054688"/>
     <use xlink:href="#DejaVuSans-20" x="421.578125"/>
     <use xlink:href="#DejaVuSans-6f" x="453.365234"/>
     <use xlink:href="#DejaVuSans-66" x="514.546875"/>
     <use xlink:href="#DejaVuSans-20" x="549.751953"/>
     <use xlink:href="#DejaVuSans-53" x="581.539062"/>
     <use xlink:href="#DejaVuSans-54" x="645.015625"/>
    </g>
   </g>
   <g id="legend_1">
    <g id="patch_7">
     <path d="M 299.162188 302.584 
L 407.72 302.584 
Q 409.72 302.584 409.72 300.584 
L 409.72 242.8715 
Q 409.72 240.8715 407.72 240.8715 
L 299.162188 240.8715 
Q 297.162188 240.8715 297.162188 242.8715 
L 297.162188 300.584 
Q 297.162188 302.584 299.162188 302.584 
z
" style="fill: #ffffff; opacity: 0.8; stroke: #cccccc; stroke-linejoin: miter"/>
    </g>
    <g id="line2d_21">
     <path d="M 301.162188 248.969937 
L 311.162188 248.969937 
L 321.162188 248.969937 
" style="fill: none; stroke: #1f77b4; stroke-linecap: square"/>
    </g>
    <g id="text_19">
     <!-- 2000 samples -->
     <g transform="translate(329.162188 252.469937) scale(0.1 -0.1)">
      <defs>
       <path id="DejaVuSans-61" d="M 2194 1759 
Q 1497 1759 1228 1600 
Q 959 1441 959 1056 
Q 959 750 1161 570 
Q 1363 391 1709 391 
Q 2188 391 2477 730 
Q 2766 1069 2766 1631 
L 2766 1759 
L 2194 1759 
z
M 3341 1997 
L 3341 0 
L 2766 0 
L 2766 531 
Q 2569 213 2275 61 
Q 1981 -91 1556 -91 
Q 1019 -91 701 211 
Q 384 513 384 1019 
Q 384 1609 779 1909 
Q 1175 2209 1959 2209 
L 2766 2209 
L 2766 2266 
Q 2766 2663 2505 2880 
Q 2244 3097 1772 3097 
Q 1472 3097 1187 3025 
Q 903 2953 641 2809 
L 641 3341 
Q 956 3463 1253 3523 
Q 1550 3584 1831 3584 
Q 2591 3584 2966 3190 
Q 3341 2797 3341 1997 
z
" transform="scale(0.015625)"/>
       <path id="DejaVuSans-6d" d="M 3328 2828 
Q 3544 3216 3844 3400 
Q 4144 3584 4550 3584 
Q 5097 3584 5394 3201 
Q 5691 2819 5691 2113 
L 5691 0 
L 5113 0 
L 5113 2094 
Q 5113 2597 4934 2840 
Q 4756 3084 4391 3084 
Q 3944 3084 3684 2787 
Q 3425 2491 3425 1978 
L 3425 0 
L 2847 0 
L 2847 2094 
Q 2847 2600 2669 2842 
Q 2491 3084 2119 3084 
Q 1678 3084 1418 2786 
Q 1159 2488 1159 1978 
L 1159 0 
L 581 0 
L 581 3500 
L 1159 3500 
L 1159 2956 
Q 1356 3278 1631 3431 
Q 1906 3584 2284 3584 
Q 2666 3584 2933 3390 
Q 3200 3197 3328 2828 
z
" transform="scale(0.015625)"/>
       <path id="DejaVuSans-6c" d="M 603 4863 
L 1178 4863 
L 1178 0 
L 603 0 
L 603 4863 
z
" transform="scale(0.015625)"/>
      </defs>
      <use xlink:href="#DejaVuSans-32"/>
      <use xlink:href="#DejaVuSans-30" x="63.623047"/>
      <use xlink:href="#DejaVuSans-30" x="127.246094"/>
      <use xlink:href="#DejaVuSans-30" x="190.869141"/>
      <use xlink:href="#DejaVuSans-20" x="254.492188"/>
      <use xlink:href="#DejaVuSans-73" x="286.279297"/>
      <use xlink:href="#DejaVuSans-61" x="338.378906"/>
      <use xlink:href="#DejaVuSans-6d" x="399.658203"/>
      <use xlink:href="#DejaVuSans-70" x="497.070312"/>
      <use xlink:href="#DejaVuSans-6c" x="560.546875"/>
      <use xlink:href="#DejaVuSans-65" x="588.330078"/>
      <use xlink:href="#DejaVuSans-73" x="649.853516"/>
     </g>
    </g>
    <g id="line2d_22">
     <path d="M 301.162188 263.648062 
L 311.162188 263.648062 
L 321.162188 263.648062 
" style="fill: none; stroke: #ff7f0e; stroke-linecap: square"/>
    </g>
    <g id="text_20">
     <!-- 5000 samples -->
     <g transform="translate(329.162188 267.148062) scale(0.1 -0.1)">
      <use xlink:href="#DejaVuSans-35"/>
      <use xlink:href="#DejaVuSans-30" x="63.623047"/>
      <use xlink:href="#DejaVuSans-30" x="127.246094"/>
      <use xlink:href="#DejaVuSans-30" x="190.869141"/>
      <use xlink:href="#DejaVuSans-20" x="254.492188"/>
      <use xlink:href="#DejaVuSans-73" x="286.279297"/>
      <use xlink:href="#DejaVuSans-61" x="338.378906"/>
      <use xlink:href="#DejaVuSans-6d" x="399.658203"/>
      <use xlink:href="#DejaVuSans-70" x="497.070312"/>
      <use xlink:href="#DejaVuSans-6c" x="560.546875"/>
      <use xlink:href="#DejaVuSans-65" x="588.330078"/>
      <use xlink:href="#DejaVuSans-73" x="649.853516"/>
     </g>
    </g>
    <g id="line2d_23">
     <path d="M 301.162188 278.326187 
L 311.162188 278.326187 
L 321.162188 278.326187 
" style="fill: none; stroke: #2ca02c; stroke-linecap: square"/>
    </g>
    <g id="text_21">
     <!-- 8000 samples -->
     <g transform="translate(329.162188 281.826187) scale(0.1 -0.1)">
      <use xlink:href="#DejaVuSans-38"/>
      <use xlink:href="#DejaVuSans-30" x="63.623047"/>
      <use xlink:href="#DejaVuSans-30" x="127.246094"/>
      <use xlink:href="#DejaVuSans-30" x="190.869141"/>
      <use xlink:href="#DejaVuSans-20" x="254.492188"/>
      <use xlink:href="#DejaVuSans-73" x="286.279297"/>
      <use xlink:href="#DejaVuSans-61" x="338.378906"/>
      <use xlink:href="#DejaVuSans-6d" x="399.658203"/>
      <use xlink:href="#DejaVuSans-70" x="497.070312"/>
      <use xlink:href="#DejaVuSans-6c" x="560.546875"/>
      <use xlink:href="#DejaVuSans-65" x="588.330078"/>
      <use xlink:href="#DejaVuSans-73" x="649.853516"/>
     </g>
    </g>
    <g id="line2d_24">
     <path d="M 301.162188 293.004312 
L 311.162188 293.004312 
L 321.162188 293.004312 
" style="fill: none; stroke: #d62728; stroke-linecap: square"/>
    </g>
    <g id="text_22">
     <!-- 10000 samples -->
     <g transform="translate(329.162188 296.504312) scale(0.1 -0.1)">
      <use xlink:href="#DejaVuSans-31"/>
      <use xlink:href="#DejaVuSans-30" x="63.623047"/>
      <use xlink:href="#DejaVuSans-30" x="127.246094"/>
      <use xlink:href="#DejaVuSans-30" x="190.869141"/>
      <use xlink:href="#DejaVuSans-30" x="254.492188"/>
      <use xlink:href="#DejaVuSans-20" x="318.115234"/>
      <use xlink:href="#DejaVuSans-73" x="349.902344"/>
      <use xlink:href="#DejaVuSans-61" x="402.001953"/>
      <use xlink:href="#DejaVuSans-6d" x="463.28125"/>
      <use xlink:href="#DejaVuSans-70" x="560.693359"/>
      <use xlink:href="#DejaVuSans-6c" x="624.169922"/>
      <use xlink:href="#DejaVuSans-65" x="651.953125"/>
      <use xlink:href="#DejaVuSans-73" x="713.476562"/>
     </g>
    </g>
   </g>
  </g>
 </g>
 <defs>
  <clipPath id="p10aa80d0a7">
   <rect x="57.6" y="41.472" width="357.12" height="266.112"/>
  </clipPath>
 </defs>
</svg>
