<?xml version="1.0" encoding="utf-8" standalone="no"?>
<!DOCTYPE svg PUBLIC "-//W3C//DTD SVG 1.1//EN"
  "http://www.w3.org/Graphics/SVG/1.1/DTD/svg11.dtd">
<svg xmlns:xlink="http://www.w3.org/1999/xlink" width="460.8pt" height="345.6pt" viewBox="0 0 460.8 345.6" xmlns="http://www.w3.org/2000/svg" version="1.1">
 <metadata>
  <rdf:RDF xmlns:dc="http://purl.org/dc/elements/1.1/" xmlns:cc="http://creativecommons.org/ns#" xmlns:rdf="http://www.w3.org/1999/02/22-rdf-syntax-ns#">
   <cc:Work>
    <dc:type rdf:resource="http://purl.org/dc/dcmitype/StillImage"/>
    <dc:date>2023-09-13T16:28:02.998705</dc:date>
    <dc:format>image/svg+xml</dc:format>
    <dc:creator>
     <cc:Agent>
      <dc:title>Matplotlib v3.7.1, https://matplotlib.org/</dc:title>
     </cc:Agent>
    </dc:creator>
   </cc:Work>
  </rdf:RDF>
 </metadata>
 <defs>
  <style type="text/css">*{stroke-linejoin: round; stroke-linecap: butt}</style>
 </defs>
 <g id="figure_1">
  <g id="patch_1">
   <path d="M 0 345.6 
L 460.8 345.6 
L 460.8 0 
L 0 0 
z
" style="fill: #ffffff"/>
  </g>
  <g id="axes_1">
   <g id="patch_2">
    <path d="M 57.6 307.584 
L 414.72 307.584 
L 414.72 41.472 
L 57.6 41.472 
z
" style="fill: #ffffff"/>
   </g>
   <g id="matplotlib.axis_1">
    <g id="xtick_1">
     <g id="line2d_1">
      <defs>
       <path id="m87fe0cb6da" d="M 0 0 
L 0 3.5 
" style="stroke: #000000; stroke-width: 0.8"/>
      </defs>
      <g>
       <use xlink:href="#m87fe0cb6da" x="71.653838" y="307.584" style="stroke: #000000; stroke-width: 0.8"/>
      </g>
     </g>
     <g id="text_1">
      <!-- 0 -->
      <g transform="translate(68.472588 322.182437) scale(0.1 -0.1)">
       <defs>
        <path id="DejaVuSans-30" d="M 2034 4250 
Q 1547 4250 1301 3770 
Q 1056 3291 1056 2328 
Q 1056 1369 1301 889 
Q 1547 409 2034 409 
Q 2525 409 2770 889 
Q 3016 1369 3016 2328 
Q 3016 3291 2770 3770 
Q 2525 4250 2034 4250 
z
M 2034 4750 
Q 2819 4750 3233 4129 
Q 3647 3509 3647 2328 
Q 3647 1150 3233 529 
Q 2819 -91 2034 -91 
Q 1250 -91 836 529 
Q 422 1150 422 2328 
Q 422 3509 836 4129 
Q 1250 4750 2034 4750 
z
" transform="scale(0.015625)"/>
       </defs>
       <use xlink:href="#DejaVuSans-30"/>
      </g>
     </g>
    </g>
    <g id="xtick_2">
     <g id="line2d_2">
      <g>
       <use xlink:href="#m87fe0cb6da" x="115.231629" y="307.584" style="stroke: #000000; stroke-width: 0.8"/>
      </g>
     </g>
     <g id="text_2">
      <!-- 20 -->
      <g transform="translate(108.869129 322.182437) scale(0.1 -0.1)">
       <defs>
        <path id="DejaVuSans-32" d="M 1228 531 
L 3431 531 
L 3431 0 
L 469 0 
L 469 531 
Q 828 903 1448 1529 
Q 2069 2156 2228 2338 
Q 2531 2678 2651 2914 
Q 2772 3150 2772 3378 
Q 2772 3750 2511 3984 
Q 2250 4219 1831 4219 
Q 1534 4219 1204 4116 
Q 875 4013 500 3803 
L 500 4441 
Q 881 4594 1212 4672 
Q 1544 4750 1819 4750 
Q 2544 4750 2975 4387 
Q 3406 4025 3406 3419 
Q 3406 3131 3298 2873 
Q 3191 2616 2906 2266 
Q 2828 2175 2409 1742 
Q 1991 1309 1228 531 
z
" transform="scale(0.015625)"/>
       </defs>
       <use xlink:href="#DejaVuSans-32"/>
       <use xlink:href="#DejaVuSans-30" x="63.623047"/>
      </g>
     </g>
    </g>
    <g id="xtick_3">
     <g id="line2d_3">
      <g>
       <use xlink:href="#m87fe0cb6da" x="158.80942" y="307.584" style="stroke: #000000; stroke-width: 0.8"/>
      </g>
     </g>
     <g id="text_3">
      <!-- 40 -->
      <g transform="translate(152.44692 322.182437) scale(0.1 -0.1)">
       <defs>
        <path id="DejaVuSans-34" d="M 2419 4116 
L 825 1625 
L 2419 1625 
L 2419 4116 
z
M 2253 4666 
L 3047 4666 
L 3047 1625 
L 3713 1625 
L 3713 1100 
L 3047 1100 
L 3047 0 
L 2419 0 
L 2419 1100 
L 313 1100 
L 313 1709 
L 2253 4666 
z
" transform="scale(0.015625)"/>
       </defs>
       <use xlink:href="#DejaVuSans-34"/>
       <use xlink:href="#DejaVuSans-30" x="63.623047"/>
      </g>
     </g>
    </g>
    <g id="xtick_4">
     <g id="line2d_4">
      <g>
       <use xlink:href="#m87fe0cb6da" x="202.387212" y="307.584" style="stroke: #000000; stroke-width: 0.8"/>
      </g>
     </g>
     <g id="text_4">
      <!-- 60 -->
      <g transform="translate(196.024712 322.182437) scale(0.1 -0.1)">
       <defs>
        <path id="DejaVuSans-36" d="M 2113 2584 
Q 1688 2584 1439 2293 
Q 1191 2003 1191 1497 
Q 1191 994 1439 701 
Q 1688 409 2113 409 
Q 2538 409 2786 701 
Q 3034 994 3034 1497 
Q 3034 2003 2786 2293 
Q 2538 2584 2113 2584 
z
M 3366 4563 
L 3366 3988 
Q 3128 4100 2886 4159 
Q 2644 4219 2406 4219 
Q 1781 4219 1451 3797 
Q 1122 3375 1075 2522 
Q 1259 2794 1537 2939 
Q 1816 3084 2150 3084 
Q 2853 3084 3261 2657 
Q 3669 2231 3669 1497 
Q 3669 778 3244 343 
Q 2819 -91 2113 -91 
Q 1303 -91 875 529 
Q 447 1150 447 2328 
Q 447 3434 972 4092 
Q 1497 4750 2381 4750 
Q 2619 4750 2861 4703 
Q 3103 4656 3366 4563 
z
" transform="scale(0.015625)"/>
       </defs>
       <use xlink:href="#DejaVuSans-36"/>
       <use xlink:href="#DejaVuSans-30" x="63.623047"/>
      </g>
     </g>
    </g>
    <g id="xtick_5">
     <g id="line2d_5">
      <g>
       <use xlink:href="#m87fe0cb6da" x="245.965003" y="307.584" style="stroke: #000000; stroke-width: 0.8"/>
      </g>
     </g>
     <g id="text_5">
      <!-- 80 -->
      <g transform="translate(239.602503 322.182437) scale(0.1 -0.1)">
       <defs>
        <path id="DejaVuSans-38" d="M 2034 2216 
Q 1584 2216 1326 1975 
Q 1069 1734 1069 1313 
Q 1069 891 1326 650 
Q 1584 409 2034 409 
Q 2484 409 2743 651 
Q 3003 894 3003 1313 
Q 3003 1734 2745 1975 
Q 2488 2216 2034 2216 
z
M 1403 2484 
Q 997 2584 770 2862 
Q 544 3141 544 3541 
Q 544 4100 942 4425 
Q 1341 4750 2034 4750 
Q 2731 4750 3128 4425 
Q 3525 4100 3525 3541 
Q 3525 3141 3298 2862 
Q 3072 2584 2669 2484 
Q 3125 2378 3379 2068 
Q 3634 1759 3634 1313 
Q 3634 634 3220 271 
Q 2806 -91 2034 -91 
Q 1263 -91 848 271 
Q 434 634 434 1313 
Q 434 1759 690 2068 
Q 947 2378 1403 2484 
z
M 1172 3481 
Q 1172 3119 1398 2916 
Q 1625 2713 2034 2713 
Q 2441 2713 2670 2916 
Q 2900 3119 2900 3481 
Q 2900 3844 2670 4047 
Q 2441 4250 2034 4250 
Q 1625 4250 1398 4047 
Q 1172 3844 1172 3481 
z
" transform="scale(0.015625)"/>
       </defs>
       <use xlink:href="#DejaVuSans-38"/>
       <use xlink:href="#DejaVuSans-30" x="63.623047"/>
      </g>
     </g>
    </g>
    <g id="xtick_6">
     <g id="line2d_6">
      <g>
       <use xlink:href="#m87fe0cb6da" x="289.542794" y="307.584" style="stroke: #000000; stroke-width: 0.8"/>
      </g>
     </g>
     <g id="text_6">
      <!-- 100 -->
      <g transform="translate(279.999044 322.182437) scale(0.1 -0.1)">
       <defs>
        <path id="DejaVuSans-31" d="M 794 531 
L 1825 531 
L 1825 4091 
L 703 3866 
L 703 4441 
L 1819 4666 
L 2450 4666 
L 2450 531 
L 3481 531 
L 3481 0 
L 794 0 
L 794 531 
z
" transform="scale(0.015625)"/>
       </defs>
       <use xlink:href="#DejaVuSans-31"/>
       <use xlink:href="#DejaVuSans-30" x="63.623047"/>
       <use xlink:href="#DejaVuSans-30" x="127.246094"/>
      </g>
     </g>
    </g>
    <g id="xtick_7">
     <g id="line2d_7">
      <g>
       <use xlink:href="#m87fe0cb6da" x="333.120586" y="307.584" style="stroke: #000000; stroke-width: 0.8"/>
      </g>
     </g>
     <g id="text_7">
      <!-- 120 -->
      <g transform="translate(323.576836 322.182437) scale(0.1 -0.1)">
       <use xlink:href="#DejaVuSans-31"/>
       <use xlink:href="#DejaVuSans-32" x="63.623047"/>
       <use xlink:href="#DejaVuSans-30" x="127.246094"/>
      </g>
     </g>
    </g>
    <g id="xtick_8">
     <g id="line2d_8">
      <g>
       <use xlink:href="#m87fe0cb6da" x="376.698377" y="307.584" style="stroke: #000000; stroke-width: 0.8"/>
      </g>
     </g>
     <g id="text_8">
      <!-- 140 -->
      <g transform="translate(367.154627 322.182437) scale(0.1 -0.1)">
       <use xlink:href="#DejaVuSans-31"/>
       <use xlink:href="#DejaVuSans-34" x="63.623047"/>
       <use xlink:href="#DejaVuSans-30" x="127.246094"/>
      </g>
     </g>
    </g>
    <g id="text_9">
     <!-- epoch -->
     <g transform="translate(220.931875 335.860562) scale(0.1 -0.1)">
      <defs>
       <path id="DejaVuSans-65" d="M 3597 1894 
L 3597 1613 
L 953 1613 
Q 991 1019 1311 708 
Q 1631 397 2203 397 
Q 2534 397 2845 478 
Q 3156 559 3463 722 
L 3463 178 
Q 3153 47 2828 -22 
Q 2503 -91 2169 -91 
Q 1331 -91 842 396 
Q 353 884 353 1716 
Q 353 2575 817 3079 
Q 1281 3584 2069 3584 
Q 2775 3584 3186 3129 
Q 3597 2675 3597 1894 
z
M 3022 2063 
Q 3016 2534 2758 2815 
Q 2500 3097 2075 3097 
Q 1594 3097 1305 2825 
Q 1016 2553 972 2059 
L 3022 2063 
z
" transform="scale(0.015625)"/>
       <path id="DejaVuSans-70" d="M 1159 525 
L 1159 -1331 
L 581 -1331 
L 581 3500 
L 1159 3500 
L 1159 2969 
Q 1341 3281 1617 3432 
Q 1894 3584 2278 3584 
Q 2916 3584 3314 3078 
Q 3713 2572 3713 1747 
Q 3713 922 3314 415 
Q 2916 -91 2278 -91 
Q 1894 -91 1617 61 
Q 1341 213 1159 525 
z
M 3116 1747 
Q 3116 2381 2855 2742 
Q 2594 3103 2138 3103 
Q 1681 3103 1420 2742 
Q 1159 2381 1159 1747 
Q 1159 1113 1420 752 
Q 1681 391 2138 391 
Q 2594 391 2855 752 
Q 3116 1113 3116 1747 
z
" transform="scale(0.015625)"/>
       <path id="DejaVuSans-6f" d="M 1959 3097 
Q 1497 3097 1228 2736 
Q 959 2375 959 1747 
Q 959 1119 1226 758 
Q 1494 397 1959 397 
Q 2419 397 2687 759 
Q 2956 1122 2956 1747 
Q 2956 2369 2687 2733 
Q 2419 3097 1959 3097 
z
M 1959 3584 
Q 2709 3584 3137 3096 
Q 3566 2609 3566 1747 
Q 3566 888 3137 398 
Q 2709 -91 1959 -91 
Q 1206 -91 779 398 
Q 353 888 353 1747 
Q 353 2609 779 3096 
Q 1206 3584 1959 3584 
z
" transform="scale(0.015625)"/>
       <path id="DejaVuSans-63" d="M 3122 3366 
L 3122 2828 
Q 2878 2963 2633 3030 
Q 2388 3097 2138 3097 
Q 1578 3097 1268 2742 
Q 959 2388 959 1747 
Q 959 1106 1268 751 
Q 1578 397 2138 397 
Q 2388 397 2633 464 
Q 2878 531 3122 666 
L 3122 134 
Q 2881 22 2623 -34 
Q 2366 -91 2075 -91 
Q 1284 -91 818 406 
Q 353 903 353 1747 
Q 353 2603 823 3093 
Q 1294 3584 2113 3584 
Q 2378 3584 2631 3529 
Q 2884 3475 3122 3366 
z
" transform="scale(0.015625)"/>
       <path id="DejaVuSans-68" d="M 3513 2113 
L 3513 0 
L 2938 0 
L 2938 2094 
Q 2938 2591 2744 2837 
Q 2550 3084 2163 3084 
Q 1697 3084 1428 2787 
Q 1159 2491 1159 1978 
L 1159 0 
L 581 0 
L 581 4863 
L 1159 4863 
L 1159 2956 
Q 1366 3272 1645 3428 
Q 1925 3584 2291 3584 
Q 2894 3584 3203 3211 
Q 3513 2838 3513 2113 
z
" transform="scale(0.015625)"/>
      </defs>
      <use xlink:href="#DejaVuSans-65"/>
      <use xlink:href="#DejaVuSans-70" x="61.523438"/>
      <use xlink:href="#DejaVuSans-6f" x="125"/>
      <use xlink:href="#DejaVuSans-63" x="186.181641"/>
      <use xlink:href="#DejaVuSans-68" x="241.162109"/>
     </g>
    </g>
   </g>
   <g id="matplotlib.axis_2">
    <g id="ytick_1">
     <g id="line2d_9">
      <defs>
       <path id="m6e0a1b4534" d="M 0 0 
L -3.5 0 
" style="stroke: #000000; stroke-width: 0.8"/>
      </defs>
      <g>
       <use xlink:href="#m6e0a1b4534" x="57.6" y="307.584" style="stroke: #000000; stroke-width: 0.8"/>
      </g>
     </g>
     <g id="text_10">
      <!-- 0.0 -->
      <g transform="translate(34.696875 311.383219) scale(0.1 -0.1)">
       <defs>
        <path id="DejaVuSans-2e" d="M 684 794 
L 1344 794 
L 1344 0 
L 684 0 
L 684 794 
z
" transform="scale(0.015625)"/>
       </defs>
       <use xlink:href="#DejaVuSans-30"/>
       <use xlink:href="#DejaVuSans-2e" x="63.623047"/>
       <use xlink:href="#DejaVuSans-30" x="95.410156"/>
      </g>
     </g>
    </g>
    <g id="ytick_2">
     <g id="line2d_10">
      <g>
       <use xlink:href="#m6e0a1b4534" x="57.6" y="276.665827" style="stroke: #000000; stroke-width: 0.8"/>
      </g>
     </g>
     <g id="text_11">
      <!-- 0.1 -->
      <g transform="translate(34.696875 280.465046) scale(0.1 -0.1)">
       <use xlink:href="#DejaVuSans-30"/>
       <use xlink:href="#DejaVuSans-2e" x="63.623047"/>
       <use xlink:href="#DejaVuSans-31" x="95.410156"/>
      </g>
     </g>
    </g>
    <g id="ytick_3">
     <g id="line2d_11">
      <g>
       <use xlink:href="#m6e0a1b4534" x="57.6" y="245.747655" style="stroke: #000000; stroke-width: 0.8"/>
      </g>
     </g>
     <g id="text_12">
      <!-- 0.2 -->
      <g transform="translate(34.696875 249.546873) scale(0.1 -0.1)">
       <use xlink:href="#DejaVuSans-30"/>
       <use xlink:href="#DejaVuSans-2e" x="63.623047"/>
       <use xlink:href="#DejaVuSans-32" x="95.410156"/>
      </g>
     </g>
    </g>
    <g id="ytick_4">
     <g id="line2d_12">
      <g>
       <use xlink:href="#m6e0a1b4534" x="57.6" y="214.829482" style="stroke: #000000; stroke-width: 0.8"/>
      </g>
     </g>
     <g id="text_13">
      <!-- 0.3 -->
      <g transform="translate(34.696875 218.628701) scale(0.1 -0.1)">
       <defs>
        <path id="DejaVuSans-33" d="M 2597 2516 
Q 3050 2419 3304 2112 
Q 3559 1806 3559 1356 
Q 3559 666 3084 287 
Q 2609 -91 1734 -91 
Q 1441 -91 1130 -33 
Q 819 25 488 141 
L 488 750 
Q 750 597 1062 519 
Q 1375 441 1716 441 
Q 2309 441 2620 675 
Q 2931 909 2931 1356 
Q 2931 1769 2642 2001 
Q 2353 2234 1838 2234 
L 1294 2234 
L 1294 2753 
L 1863 2753 
Q 2328 2753 2575 2939 
Q 2822 3125 2822 3475 
Q 2822 3834 2567 4026 
Q 2313 4219 1838 4219 
Q 1578 4219 1281 4162 
Q 984 4106 628 3988 
L 628 4550 
Q 988 4650 1302 4700 
Q 1616 4750 1894 4750 
Q 2613 4750 3031 4423 
Q 3450 4097 3450 3541 
Q 3450 3153 3228 2886 
Q 3006 2619 2597 2516 
z
" transform="scale(0.015625)"/>
       </defs>
       <use xlink:href="#DejaVuSans-30"/>
       <use xlink:href="#DejaVuSans-2e" x="63.623047"/>
       <use xlink:href="#DejaVuSans-33" x="95.410156"/>
      </g>
     </g>
    </g>
    <g id="ytick_5">
     <g id="line2d_13">
      <g>
       <use xlink:href="#m6e0a1b4534" x="57.6" y="183.911309" style="stroke: #000000; stroke-width: 0.8"/>
      </g>
     </g>
     <g id="text_14">
      <!-- 0.4 -->
      <g transform="translate(34.696875 187.710528) scale(0.1 -0.1)">
       <use xlink:href="#DejaVuSans-30"/>
       <use xlink:href="#DejaVuSans-2e" x="63.623047"/>
       <use xlink:href="#DejaVuSans-34" x="95.410156"/>
      </g>
     </g>
    </g>
    <g id="ytick_6">
     <g id="line2d_14">
      <g>
       <use xlink:href="#m6e0a1b4534" x="57.6" y="152.993136" style="stroke: #000000; stroke-width: 0.8"/>
      </g>
     </g>
     <g id="text_15">
      <!-- 0.5 -->
      <g transform="translate(34.696875 156.792355) scale(0.1 -0.1)">
       <defs>
        <path id="DejaVuSans-35" d="M 691 4666 
L 3169 4666 
L 3169 4134 
L 1269 4134 
L 1269 2991 
Q 1406 3038 1543 3061 
Q 1681 3084 1819 3084 
Q 2600 3084 3056 2656 
Q 3513 2228 3513 1497 
Q 3513 744 3044 326 
Q 2575 -91 1722 -91 
Q 1428 -91 1123 -41 
Q 819 9 494 109 
L 494 744 
Q 775 591 1075 516 
Q 1375 441 1709 441 
Q 2250 441 2565 725 
Q 2881 1009 2881 1497 
Q 2881 1984 2565 2268 
Q 2250 2553 1709 2553 
Q 1456 2553 1204 2497 
Q 953 2441 691 2322 
L 691 4666 
z
" transform="scale(0.015625)"/>
       </defs>
       <use xlink:href="#DejaVuSans-30"/>
       <use xlink:href="#DejaVuSans-2e" x="63.623047"/>
       <use xlink:href="#DejaVuSans-35" x="95.410156"/>
      </g>
     </g>
    </g>
    <g id="ytick_7">
     <g id="line2d_15">
      <g>
       <use xlink:href="#m6e0a1b4534" x="57.6" y="122.074964" style="stroke: #000000; stroke-width: 0.8"/>
      </g>
     </g>
     <g id="text_16">
      <!-- 0.6 -->
      <g transform="translate(34.696875 125.874182) scale(0.1 -0.1)">
       <use xlink:href="#DejaVuSans-30"/>
       <use xlink:href="#DejaVuSans-2e" x="63.623047"/>
       <use xlink:href="#DejaVuSans-36" x="95.410156"/>
      </g>
     </g>
    </g>
    <g id="ytick_8">
     <g id="line2d_16">
      <g>
       <use xlink:href="#m6e0a1b4534" x="57.6" y="91.156791" style="stroke: #000000; stroke-width: 0.8"/>
      </g>
     </g>
     <g id="text_17">
      <!-- 0.7 -->
      <g transform="translate(34.696875 94.95601) scale(0.1 -0.1)">
       <defs>
        <path id="DejaVuSans-37" d="M 525 4666 
L 3525 4666 
L 3525 4397 
L 1831 0 
L 1172 0 
L 2766 4134 
L 525 4134 
L 525 4666 
z
" transform="scale(0.015625)"/>
       </defs>
       <use xlink:href="#DejaVuSans-30"/>
       <use xlink:href="#DejaVuSans-2e" x="63.623047"/>
       <use xlink:href="#DejaVuSans-37" x="95.410156"/>
      </g>
     </g>
    </g>
    <g id="ytick_9">
     <g id="line2d_17">
      <g>
       <use xlink:href="#m6e0a1b4534" x="57.6" y="60.238618" style="stroke: #000000; stroke-width: 0.8"/>
      </g>
     </g>
     <g id="text_18">
      <!-- 0.8 -->
      <g transform="translate(34.696875 64.037837) scale(0.1 -0.1)">
       <use xlink:href="#DejaVuSans-30"/>
       <use xlink:href="#DejaVuSans-2e" x="63.623047"/>
       <use xlink:href="#DejaVuSans-38" x="95.410156"/>
      </g>
     </g>
    </g>
   </g>
   <g id="line2d_18">
    <path d="M 73.832727 260.892519 
L 76.011617 147.022155 
L 78.190506 148.122581 
L 80.369396 146.401749 
L 82.548286 146.27517 
L 84.727175 143.07676 
L 86.906065 145.150874 
L 89.084954 143.568824 
L 91.263844 141.317194 
L 93.442733 142.489254 
L 95.621623 141.924413 
L 97.800513 140.623962 
L 99.979402 142.202502 
L 102.158292 142.46077 
L 104.337181 143.042942 
L 106.516071 139.381842 
L 108.69496 144.239759 
L 110.87385 141.277421 
L 113.052739 140.258286 
L 115.231629 139.474506 
L 117.410519 140.34511 
L 119.589408 144.091746 
L 121.768298 140.793784 
L 123.947187 139.003646 
L 126.126077 140.170713 
L 128.304966 139.769406 
L 130.483856 140.470571 
L 132.662746 140.940757 
L 134.841635 142.09944 
L 137.020525 140.709881 
L 139.199414 139.871995 
L 143.557193 142.258799 
L 145.736083 139.332574 
L 147.914973 139.85257 
L 150.093862 142.223186 
L 152.272752 139.472121 
L 154.451641 140.51874 
L 156.630531 140.152572 
L 158.80942 140.394242 
L 160.98831 140.382049 
L 163.1672 139.382737 
L 165.346089 140.435204 
L 169.703868 140.080765 
L 171.882758 140.024681 
L 174.061647 138.302907 
L 176.240537 139.740714 
L 178.419426 140.148575 
L 180.598316 141.110387 
L 182.777206 139.556501 
L 184.956095 141.742481 
L 187.134985 140.550125 
L 189.313874 139.006656 
L 191.492764 140.116741 
L 193.671653 140.112861 
L 195.850543 138.911531 
L 198.029433 140.608403 
L 200.208322 139.678282 
L 202.387212 138.315098 
L 204.566101 138.997103 
L 206.744991 139.861234 
L 208.92388 140.105776 
L 211.10277 139.940677 
L 213.28166 138.007374 
L 215.460549 138.587301 
L 217.639439 140.017869 
L 219.818328 139.799135 
L 221.997218 140.264468 
L 224.176107 139.135956 
L 226.354997 138.824814 
L 228.533887 139.656806 
L 230.712776 139.625315 
L 232.891666 139.811788 
L 235.070555 140.699054 
L 237.249445 139.999313 
L 239.428334 140.780416 
L 241.607224 140.968257 
L 243.786113 140.660329 
L 245.965003 139.490674 
L 248.143893 138.836797 
L 250.322782 138.795832 
L 252.501672 140.907093 
L 254.680561 139.822068 
L 256.859451 139.169169 
L 259.03834 140.329491 
L 261.21723 140.305343 
L 263.39612 139.519304 
L 265.575009 139.240164 
L 267.753899 140.177053 
L 269.932788 140.110585 
L 272.111678 140.629749 
L 274.290567 139.673176 
L 276.469457 138.906408 
L 278.648347 139.111984 
L 280.827236 141.529049 
L 283.006126 139.951422 
L 285.185015 141.834987 
L 287.363905 140.05736 
L 289.542794 140.141597 
L 291.721684 139.554323 
L 293.900574 137.173604 
L 296.079463 139.585106 
L 298.258353 137.854675 
L 300.437242 140.644928 
L 302.616132 138.833436 
L 304.795021 140.82281 
L 306.973911 139.214155 
L 309.1528 140.424852 
L 311.33169 139.7005 
L 313.51058 139.96756 
L 315.689469 138.970348 
L 317.868359 139.837589 
L 320.047248 137.524757 
L 322.226138 140.360511 
L 324.405027 139.964647 
L 326.583917 138.362089 
L 328.762807 138.1201 
L 330.941696 140.235077 
L 333.120586 139.059721 
L 335.299475 139.025592 
L 337.478365 140.609608 
L 339.657254 139.205127 
L 341.836144 140.80594 
L 346.193923 138.228869 
L 348.372813 139.215665 
L 350.551702 140.541581 
L 352.730592 139.207301 
L 354.909481 140.033139 
L 357.088371 138.785204 
L 359.267261 139.150375 
L 361.44615 140.661253 
L 363.62504 136.864751 
L 365.803929 138.569035 
L 367.982819 137.519525 
L 370.161708 137.468134 
L 372.340598 140.469852 
L 374.519487 137.261579 
L 376.698377 139.997608 
L 378.877267 138.620219 
L 381.056156 140.716746 
L 383.235046 138.995508 
L 385.413935 138.835588 
L 387.592825 137.692689 
L 389.771714 136.93921 
L 391.950604 138.710957 
L 394.129494 138.062736 
L 396.308383 141.090967 
L 398.487273 139.39785 
L 398.487273 139.39785 
" clip-path="url(#p9363ff0372)" style="fill: none; stroke: #1f77b4; stroke-linecap: square"/>
   </g>
   <g id="line2d_19">
    <path d="M 73.832727 267.12243 
L 86.906065 267.115848 
L 89.084954 257.007175 
L 91.263844 169.34723 
L 93.442733 160.543709 
L 95.621623 164.066828 
L 97.800513 160.295058 
L 99.979402 166.106248 
L 102.158292 162.382452 
L 104.337181 163.139458 
L 106.516071 164.960749 
L 108.69496 162.751597 
L 110.87385 169.934918 
L 113.052739 164.89171 
L 115.231629 169.360136 
L 117.410519 164.222284 
L 119.589408 149.5162 
L 121.768298 161.750277 
L 123.947187 159.571524 
L 126.126077 156.967843 
L 128.304966 150.112531 
L 130.483856 159.370097 
L 132.662746 155.680021 
L 134.841635 153.030227 
L 137.020525 168.804271 
L 139.199414 135.415753 
L 141.378304 147.136033 
L 143.557193 153.85209 
L 145.736083 158.854393 
L 147.914973 160.51429 
L 150.093862 154.151691 
L 152.272752 153.97558 
L 154.451641 159.496959 
L 156.630531 159.847675 
L 158.80942 144.275702 
L 160.98831 157.454047 
L 163.1672 149.932979 
L 165.346089 158.175022 
L 167.524979 159.443403 
L 169.703868 163.574575 
L 171.882758 159.108431 
L 174.061647 159.877643 
L 176.240537 158.421813 
L 178.419426 150.040103 
L 180.598316 158.524801 
L 182.777206 157.991962 
L 184.956095 147.201269 
L 187.134985 141.062582 
L 189.313874 143.671737 
L 191.492764 162.630215 
L 193.671653 146.937745 
L 195.850543 160.646941 
L 198.029433 138.077825 
L 200.208322 140.289456 
L 202.387212 156.812707 
L 204.566101 159.804734 
L 206.744991 144.781766 
L 208.92388 125.641202 
L 211.10277 145.107418 
L 213.28166 126.153773 
L 215.460549 160.369039 
L 217.639439 159.782421 
L 219.818328 128.470535 
L 221.997218 127.018754 
L 224.176107 160.535164 
L 226.354997 132.498065 
L 228.533887 137.454836 
L 230.712776 132.835922 
L 235.070555 157.977321 
L 237.249445 147.006991 
L 239.428334 147.487505 
L 241.607224 159.656254 
L 243.786113 140.867319 
L 245.965003 158.230994 
L 248.143893 122.145335 
L 250.322782 130.487363 
L 252.501672 130.877672 
L 254.680561 156.885782 
L 256.859451 132.527165 
L 259.03834 120.17101 
L 261.21723 122.232219 
L 263.39612 146.505128 
L 265.575009 135.258516 
L 267.753899 147.768242 
L 269.932788 146.470744 
L 272.111678 156.03569 
L 274.290567 159.358139 
L 276.469457 141.645931 
L 278.648347 147.645796 
L 280.827236 157.357324 
L 283.006126 140.208412 
L 285.185015 124.534447 
L 287.363905 146.887197 
L 289.542794 158.083256 
L 291.721684 149.699375 
L 293.900574 146.138808 
L 296.079463 133.661674 
L 298.258353 160.656215 
L 300.437242 121.110735 
L 302.616132 158.163226 
L 304.795021 125.975698 
L 306.973911 132.147849 
L 309.1528 144.46759 
L 311.33169 120.510169 
L 313.51058 138.790036 
L 315.689469 149.199009 
L 317.868359 128.442892 
L 320.047248 153.956996 
L 322.226138 155.522788 
L 324.405027 141.430113 
L 326.583917 150.766657 
L 328.762807 155.165488 
L 330.941696 133.047943 
L 333.120586 138.499855 
L 335.299475 157.315561 
L 337.478365 147.007947 
L 339.657254 145.314295 
L 341.836144 146.319422 
L 344.015034 140.05317 
L 346.193923 146.147067 
L 348.372813 158.345145 
L 350.551702 158.616575 
L 352.730592 127.016587 
L 354.909481 144.641475 
L 357.088371 148.632877 
L 359.267261 145.808224 
L 361.44615 148.113371 
L 363.62504 132.809198 
L 365.803929 136.883926 
L 367.982819 123.54773 
L 370.161708 139.796141 
L 372.340598 147.653491 
L 374.519487 130.267363 
L 376.698377 122.185818 
L 378.877267 132.744814 
L 381.056156 130.802226 
L 383.235046 130.925379 
L 385.413935 149.818311 
L 387.592825 141.581014 
L 391.950604 133.267687 
L 394.129494 117.154781 
L 396.308383 154.15851 
L 398.487273 131.214564 
L 398.487273 131.214564 
" clip-path="url(#p9363ff0372)" style="fill: none; stroke: #ff7f0e; stroke-linecap: square"/>
   </g>
   <g id="line2d_20">
    <path d="M 73.832727 268.235249 
L 76.011617 268.148478 
L 78.190506 268.287312 
L 80.369396 157.272176 
L 82.548286 152.762898 
L 84.727175 150.114349 
L 86.906065 189.442396 
L 89.084954 152.818877 
L 91.263844 157.741538 
L 93.442733 148.964455 
L 95.621623 153.087009 
L 97.800513 147.574925 
L 99.979402 147.271853 
L 102.158292 146.807753 
L 104.337181 148.112451 
L 106.516071 147.524462 
L 108.69496 146.718467 
L 110.87385 147.32548 
L 113.052739 145.627127 
L 115.231629 145.519844 
L 119.589408 147.27635 
L 121.768298 146.797104 
L 123.947187 145.793313 
L 126.126077 146.651911 
L 128.304966 144.885111 
L 130.483856 143.572359 
L 132.662746 145.298316 
L 134.841635 144.824578 
L 137.020525 144.705936 
L 139.199414 145.190971 
L 141.378304 145.273295 
L 143.557193 144.256752 
L 145.736083 144.126529 
L 147.914973 146.668355 
L 150.093862 145.392561 
L 152.272752 144.277053 
L 154.451641 145.028315 
L 156.630531 143.337986 
L 158.80942 144.383623 
L 160.98831 143.594589 
L 163.1672 126.384192 
L 165.346089 137.557204 
L 167.524979 132.003803 
L 169.703868 141.372908 
L 171.882758 140.145475 
L 174.061647 133.833129 
L 176.240537 127.056069 
L 178.419426 145.45831 
L 180.598316 126.057563 
L 182.777206 124.890736 
L 184.956095 117.592025 
L 187.134985 130.934689 
L 189.313874 120.154894 
L 191.492764 140.84395 
L 193.671653 112.775947 
L 195.850543 115.862207 
L 198.029433 129.83265 
L 200.208322 122.27312 
L 202.387212 105.763693 
L 204.566101 114.864474 
L 206.744991 97.294803 
L 208.92388 109.899348 
L 211.10277 131.899413 
L 213.28166 109.63909 
L 215.460549 134.404347 
L 217.639439 117.271331 
L 219.818328 108.511863 
L 221.997218 133.773613 
L 224.176107 128.315388 
L 226.354997 126.376116 
L 228.533887 129.072273 
L 230.712776 100.553477 
L 232.891666 113.118874 
L 235.070555 116.790012 
L 237.249445 119.138248 
L 239.428334 98.174318 
L 241.607224 108.601298 
L 243.786113 116.629617 
L 245.965003 110.39591 
L 248.143893 102.068143 
L 250.322782 109.587886 
L 252.501672 127.839909 
L 254.680561 103.424467 
L 256.859451 100.282556 
L 259.03834 103.980995 
L 261.21723 99.228952 
L 263.39612 114.187268 
L 265.575009 104.264921 
L 267.753899 109.575527 
L 269.932788 101.066371 
L 272.111678 116.041965 
L 274.290567 105.92905 
L 276.469457 114.793761 
L 278.648347 98.562581 
L 280.827236 99.741185 
L 283.006126 102.34906 
L 285.185015 100.678659 
L 287.363905 98.478207 
L 289.542794 106.912109 
L 291.721684 101.013289 
L 293.900574 96.362925 
L 296.079463 107.340162 
L 298.258353 105.009478 
L 300.437242 104.301926 
L 302.616132 104.490627 
L 304.795021 98.240898 
L 306.973911 105.293627 
L 309.1528 101.673587 
L 311.33169 107.791972 
L 313.51058 105.339731 
L 315.689469 103.885426 
L 317.868359 98.621927 
L 320.047248 113.288389 
L 322.226138 101.878591 
L 324.405027 103.874356 
L 326.583917 101.459388 
L 328.762807 101.926345 
L 330.941696 99.014685 
L 333.120586 109.425759 
L 335.299475 102.074727 
L 337.478365 99.296983 
L 339.657254 100.950466 
L 341.836144 93.126323 
L 344.015034 97.814936 
L 346.193923 106.324133 
L 348.372813 103.785797 
L 350.551702 94.832621 
L 352.730592 104.097056 
L 354.909481 109.636608 
L 357.088371 128.469711 
L 359.267261 108.28251 
L 361.44615 97.833563 
L 363.62504 99.985552 
L 365.803929 105.27737 
L 367.982819 100.062021 
L 370.161708 113.578663 
L 372.340598 99.324071 
L 374.519487 104.657541 
L 376.698377 111.313456 
L 378.877267 109.306891 
L 383.235046 100.938426 
L 385.413935 98.044287 
L 387.592825 103.441657 
L 389.771714 101.590018 
L 391.950604 98.292004 
L 394.129494 106.456683 
L 396.308383 102.707946 
L 398.487273 98.02054 
L 398.487273 98.02054 
" clip-path="url(#p9363ff0372)" style="fill: none; stroke: #2ca02c; stroke-linecap: square"/>
   </g>
   <g id="line2d_21">
    <path d="M 73.832727 268.726242 
L 76.011617 225.489551 
L 78.190506 167.273541 
L 80.369396 173.937012 
L 82.548286 164.853665 
L 84.727175 149.759688 
L 86.906065 155.276577 
L 89.084954 145.433657 
L 91.263844 152.510964 
L 93.442733 145.081902 
L 95.621623 145.887276 
L 97.800513 147.97247 
L 99.979402 113.420084 
L 102.158292 146.366016 
L 104.337181 102.76152 
L 106.516071 103.785525 
L 108.69496 109.784284 
L 110.87385 110.832611 
L 113.052739 123.819014 
L 115.231629 100.280374 
L 117.410519 144.694308 
L 119.589408 133.80088 
L 121.768298 104.591023 
L 123.947187 110.523169 
L 126.126077 109.026523 
L 128.304966 146.034755 
L 130.483856 115.854047 
L 132.662746 113.593998 
L 134.841635 110.878142 
L 137.020525 106.947127 
L 139.199414 131.034091 
L 141.378304 111.462761 
L 143.557193 105.014786 
L 145.736083 134.976969 
L 147.914973 104.470758 
L 150.093862 116.744207 
L 152.272752 133.399219 
L 154.451641 113.064445 
L 156.630531 121.566977 
L 158.80942 116.520801 
L 160.98831 101.009663 
L 163.1672 110.288444 
L 165.346089 135.457936 
L 167.524979 101.186273 
L 169.703868 116.983223 
L 171.882758 92.010905 
L 174.061647 107.584553 
L 176.240537 105.558892 
L 178.419426 105.428547 
L 180.598316 110.611295 
L 182.777206 103.676693 
L 184.956095 133.755166 
L 187.134985 107.506925 
L 189.313874 97.867031 
L 191.492764 124.177078 
L 193.671653 109.700246 
L 195.850543 123.788016 
L 198.029433 93.485584 
L 200.208322 124.816407 
L 202.387212 110.962857 
L 204.566101 111.866535 
L 208.92388 85.824 
L 211.10277 101.326327 
L 213.28166 94.265618 
L 215.460549 105.504144 
L 217.639439 101.184991 
L 219.818328 102.04565 
L 221.997218 100.46821 
L 224.176107 94.980096 
L 226.354997 106.145343 
L 228.533887 100.927604 
L 230.712776 90.612666 
L 232.891666 97.799261 
L 235.070555 102.341859 
L 237.249445 93.321757 
L 239.428334 96.816823 
L 241.607224 100.08708 
L 243.786113 97.839026 
L 245.965003 96.938335 
L 248.143893 103.643525 
L 250.322782 93.417831 
L 252.501672 97.688874 
L 254.680561 107.316715 
L 256.859451 101.16452 
L 259.03834 107.555367 
L 261.21723 100.83912 
L 263.39612 101.946236 
L 265.575009 98.239381 
L 267.753899 106.013826 
L 269.932788 109.444381 
L 272.111678 109.870652 
L 274.290567 98.593237 
L 276.469457 122.367341 
L 278.648347 107.390181 
L 280.827236 98.839682 
L 283.006126 117.617285 
L 285.185015 99.745376 
L 289.542794 97.587155 
L 291.721684 102.306989 
L 293.900574 106.363866 
L 296.079463 90.722232 
L 298.258353 116.325748 
L 300.437242 94.105673 
L 302.616132 108.495055 
L 304.795021 109.937164 
L 306.973911 119.383433 
L 309.1528 108.954429 
L 311.33169 100.174183 
L 313.51058 95.704234 
L 315.689469 97.805131 
L 317.868359 97.16806 
L 320.047248 98.463894 
L 322.226138 95.012421 
L 324.405027 94.64861 
L 326.583917 110.81205 
L 328.762807 115.375763 
L 330.941696 103.976081 
L 333.120586 97.387326 
L 335.299475 98.23349 
L 337.478365 87.818972 
L 339.657254 106.018729 
L 341.836144 101.098768 
L 344.015034 108.286246 
L 346.193923 91.95072 
L 348.372813 97.931228 
L 350.551702 96.032414 
L 352.730592 96.218734 
L 354.909481 97.182838 
L 357.088371 91.717157 
L 359.267261 90.034173 
L 361.44615 96.532078 
L 363.62504 93.958325 
L 365.803929 107.989915 
L 367.982819 97.619366 
L 370.161708 96.337802 
L 372.340598 96.745896 
L 374.519487 101.007039 
L 376.698377 103.370632 
L 378.877267 86.207979 
L 381.056156 95.638941 
L 383.235046 109.257696 
L 385.413935 94.557596 
L 387.592825 91.550887 
L 389.771714 112.379224 
L 391.950604 102.400468 
L 394.129494 101.030106 
L 396.308383 94.349225 
L 398.487273 98.243221 
L 398.487273 98.243221 
" clip-path="url(#p9363ff0372)" style="fill: none; stroke: #d62728; stroke-linecap: square"/>
   </g>
   <g id="patch_3">
    <path d="M 57.6 307.584 
L 57.6 41.472 
" style="fill: none; stroke: #000000; stroke-width: 0.8; stroke-linejoin: miter; stroke-linecap: square"/>
   </g>
   <g id="patch_4">
    <path d="M 414.72 307.584 
L 414.72 41.472 
" style="fill: none; stroke: #000000; stroke-width: 0.8; stroke-linejoin: miter; stroke-linecap: square"/>
   </g>
   <g id="patch_5">
    <path d="M 57.6 307.584 
L 414.72 307.584 
" style="fill: none; stroke: #000000; stroke-width: 0.8; stroke-linejoin: miter; stroke-linecap: square"/>
   </g>
   <g id="patch_6">
    <path d="M 57.6 41.472 
L 414.72 41.472 
" style="fill: none; stroke: #000000; stroke-width: 0.8; stroke-linejoin: miter; stroke-linecap: square"/>
   </g>
   <g id="text_19">
    <!-- Precision of ST -->
    <g transform="translate(192.320625 35.472) scale(0.12 -0.12)">
     <defs>
      <path id="DejaVuSans-50" d="M 1259 4147 
L 1259 2394 
L 2053 2394 
Q 2494 2394 2734 2622 
Q 2975 2850 2975 3272 
Q 2975 3691 2734 3919 
Q 2494 4147 2053 4147 
L 1259 4147 
z
M 628 4666 
L 2053 4666 
Q 2838 4666 3239 4311 
Q 3641 3956 3641 3272 
Q 3641 2581 3239 2228 
Q 2838 1875 2053 1875 
L 1259 1875 
L 1259 0 
L 628 0 
L 628 4666 
z
" transform="scale(0.015625)"/>
      <path id="DejaVuSans-72" d="M 2631 2963 
Q 2534 3019 2420 3045 
Q 2306 3072 2169 3072 
Q 1681 3072 1420 2755 
Q 1159 2438 1159 1844 
L 1159 0 
L 581 0 
L 581 3500 
L 1159 3500 
L 1159 2956 
Q 1341 3275 1631 3429 
Q 1922 3584 2338 3584 
Q 2397 3584 2469 3576 
Q 2541 3569 2628 3553 
L 2631 2963 
z
" transform="scale(0.015625)"/>
      <path id="DejaVuSans-69" d="M 603 3500 
L 1178 3500 
L 1178 0 
L 603 0 
L 603 3500 
z
M 603 4863 
L 1178 4863 
L 1178 4134 
L 603 4134 
L 603 4863 
z
" transform="scale(0.015625)"/>
      <path id="DejaVuSans-73" d="M 2834 3397 
L 2834 2853 
Q 2591 2978 2328 3040 
Q 2066 3103 1784 3103 
Q 1356 3103 1142 2972 
Q 928 2841 928 2578 
Q 928 2378 1081 2264 
Q 1234 2150 1697 2047 
L 1894 2003 
Q 2506 1872 2764 1633 
Q 3022 1394 3022 966 
Q 3022 478 2636 193 
Q 2250 -91 1575 -91 
Q 1294 -91 989 -36 
Q 684 19 347 128 
L 347 722 
Q 666 556 975 473 
Q 1284 391 1588 391 
Q 1994 391 2212 530 
Q 2431 669 2431 922 
Q 2431 1156 2273 1281 
Q 2116 1406 1581 1522 
L 1381 1569 
Q 847 1681 609 1914 
Q 372 2147 372 2553 
Q 372 3047 722 3315 
Q 1072 3584 1716 3584 
Q 2034 3584 2315 3537 
Q 2597 3491 2834 3397 
z
" transform="scale(0.015625)"/>
      <path id="DejaVuSans-6e" d="M 3513 2113 
L 3513 0 
L 2938 0 
L 2938 2094 
Q 2938 2591 2744 2837 
Q 2550 3084 2163 3084 
Q 1697 3084 1428 2787 
Q 1159 2491 1159 1978 
L 1159 0 
L 581 0 
L 581 3500 
L 1159 3500 
L 1159 2956 
Q 1366 3272 1645 3428 
Q 1925 3584 2291 3584 
Q 2894 3584 3203 3211 
Q 3513 2838 3513 2113 
z
" transform="scale(0.015625)"/>
      <path id="DejaVuSans-20" transform="scale(0.015625)"/>
      <path id="DejaVuSans-66" d="M 2375 4863 
L 2375 4384 
L 1825 4384 
Q 1516 4384 1395 4259 
Q 1275 4134 1275 3809 
L 1275 3500 
L 2222 3500 
L 2222 3053 
L 1275 3053 
L 1275 0 
L 697 0 
L 697 3053 
L 147 3053 
L 147 3500 
L 697 3500 
L 697 3744 
Q 697 4328 969 4595 
Q 1241 4863 1831 4863 
L 2375 4863 
z
" transform="scale(0.015625)"/>
      <path id="DejaVuSans-53" d="M 3425 4513 
L 3425 3897 
Q 3066 4069 2747 4153 
Q 2428 4238 2131 4238 
Q 1616 4238 1336 4038 
Q 1056 3838 1056 3469 
Q 1056 3159 1242 3001 
Q 1428 2844 1947 2747 
L 2328 2669 
Q 3034 2534 3370 2195 
Q 3706 1856 3706 1288 
Q 3706 609 3251 259 
Q 2797 -91 1919 -91 
Q 1588 -91 1214 -16 
Q 841 59 441 206 
L 441 856 
Q 825 641 1194 531 
Q 1563 422 1919 422 
Q 2459 422 2753 634 
Q 3047 847 3047 1241 
Q 3047 1584 2836 1778 
Q 2625 1972 2144 2069 
L 1759 2144 
Q 1053 2284 737 2584 
Q 422 2884 422 3419 
Q 422 4038 858 4394 
Q 1294 4750 2059 4750 
Q 2388 4750 2728 4690 
Q 3069 4631 3425 4513 
z
" transform="scale(0.015625)"/>
      <path id="DejaVuSans-54" d="M -19 4666 
L 3928 4666 
L 3928 4134 
L 2272 4134 
L 2272 0 
L 1638 0 
L 1638 4134 
L -19 4134 
L -19 4666 
z
" transform="scale(0.015625)"/>
     </defs>
     <use xlink:href="#DejaVuSans-50"/>
     <use xlink:href="#DejaVuSans-72" x="58.552734"/>
     <use xlink:href="#DejaVuSans-65" x="97.416016"/>
     <use xlink:href="#DejaVuSans-63" x="158.939453"/>
     <use xlink:href="#DejaVuSans-69" x="213.919922"/>
     <use xlink:href="#DejaVuSans-73" x="241.703125"/>
     <use xlink:href="#DejaVuSans-69" x="293.802734"/>
     <use xlink:href="#DejaVuSans-6f" x="321.585938"/>
     <use xlink:href="#DejaVuSans-6e" x="382.767578"/>
     <use xlink:href="#DejaVuSans-20" x="446.146484"/>
     <use xlink:href="#DejaVuSans-6f" x="477.933594"/>
     <use xlink:href="#DejaVuSans-66" x="539.115234"/>
     <use xlink:href="#DejaVuSans-20" x="574.320312"/>
     <use xlink:href="#DejaVuSans-53" x="606.107422"/>
     <use xlink:href="#DejaVuSans-54" x="669.583984"/>
    </g>
   </g>
   <g id="legend_1">
    <g id="patch_7">
     <path d="M 299.162188 302.584 
L 407.72 302.584 
Q 409.72 302.584 409.72 300.584 
L 409.72 242.8715 
Q 409.72 240.8715 407.72 240.8715 
L 299.162188 240.8715 
Q 297.162188 240.8715 297.162188 242.8715 
L 297.162188 300.584 
Q 297.162188 302.584 299.162188 302.584 
z
" style="fill: #ffffff; opacity: 0.8; stroke: #cccccc; stroke-linejoin: miter"/>
    </g>
    <g id="line2d_22">
     <path d="M 301.162188 248.969937 
L 311.162188 248.969937 
L 321.162188 248.969937 
" style="fill: none; stroke: #1f77b4; stroke-linecap: square"/>
    </g>
    <g id="text_20">
     <!-- 2000 samples -->
     <g transform="translate(329.162188 252.469937) scale(0.1 -0.1)">
      <defs>
       <path id="DejaVuSans-61" d="M 2194 1759 
Q 1497 1759 1228 1600 
Q 959 1441 959 1056 
Q 959 750 1161 570 
Q 1363 391 1709 391 
Q 2188 391 2477 730 
Q 2766 1069 2766 1631 
L 2766 1759 
L 2194 1759 
z
M 3341 1997 
L 3341 0 
L 2766 0 
L 2766 531 
Q 2569 213 2275 61 
Q 1981 -91 1556 -91 
Q 1019 -91 701 211 
Q 384 513 384 1019 
Q 384 1609 779 1909 
Q 1175 2209 1959 2209 
L 2766 2209 
L 2766 2266 
Q 2766 2663 2505 2880 
Q 2244 3097 1772 3097 
Q 1472 3097 1187 3025 
Q 903 2953 641 2809 
L 641 3341 
Q 956 3463 1253 3523 
Q 1550 3584 1831 3584 
Q 2591 3584 2966 3190 
Q 3341 2797 3341 1997 
z
" transform="scale(0.015625)"/>
       <path id="DejaVuSans-6d" d="M 3328 2828 
Q 3544 3216 3844 3400 
Q 4144 3584 4550 3584 
Q 5097 3584 5394 3201 
Q 5691 2819 5691 2113 
L 5691 0 
L 5113 0 
L 5113 2094 
Q 5113 2597 4934 2840 
Q 4756 3084 4391 3084 
Q 3944 3084 3684 2787 
Q 3425 2491 3425 1978 
L 3425 0 
L 2847 0 
L 2847 2094 
Q 2847 2600 2669 2842 
Q 2491 3084 2119 3084 
Q 1678 3084 1418 2786 
Q 1159 2488 1159 1978 
L 1159 0 
L 581 0 
L 581 3500 
L 1159 3500 
L 1159 2956 
Q 1356 3278 1631 3431 
Q 1906 3584 2284 3584 
Q 2666 3584 2933 3390 
Q 3200 3197 3328 2828 
z
" transform="scale(0.015625)"/>
       <path id="DejaVuSans-6c" d="M 603 4863 
L 1178 4863 
L 1178 0 
L 603 0 
L 603 4863 
z
" transform="scale(0.015625)"/>
      </defs>
      <use xlink:href="#DejaVuSans-32"/>
      <use xlink:href="#DejaVuSans-30" x="63.623047"/>
      <use xlink:href="#DejaVuSans-30" x="127.246094"/>
      <use xlink:href="#DejaVuSans-30" x="190.869141"/>
      <use xlink:href="#DejaVuSans-20" x="254.492188"/>
      <use xlink:href="#DejaVuSans-73" x="286.279297"/>
      <use xlink:href="#DejaVuSans-61" x="338.378906"/>
      <use xlink:href="#DejaVuSans-6d" x="399.658203"/>
      <use xlink:href="#DejaVuSans-70" x="497.070312"/>
      <use xlink:href="#DejaVuSans-6c" x="560.546875"/>
      <use xlink:href="#DejaVuSans-65" x="588.330078"/>
      <use xlink:href="#DejaVuSans-73" x="649.853516"/>
     </g>
    </g>
    <g id="line2d_23">
     <path d="M 301.162188 263.648062 
L 311.162188 263.648062 
L 321.162188 263.648062 
" style="fill: none; stroke: #ff7f0e; stroke-linecap: square"/>
    </g>
    <g id="text_21">
     <!-- 5000 samples -->
     <g transform="translate(329.162188 267.148062) scale(0.1 -0.1)">
      <use xlink:href="#DejaVuSans-35"/>
      <use xlink:href="#DejaVuSans-30" x="63.623047"/>
      <use xlink:href="#DejaVuSans-30" x="127.246094"/>
      <use xlink:href="#DejaVuSans-30" x="190.869141"/>
      <use xlink:href="#DejaVuSans-20" x="254.492188"/>
      <use xlink:href="#DejaVuSans-73" x="286.279297"/>
      <use xlink:href="#DejaVuSans-61" x="338.378906"/>
      <use xlink:href="#DejaVuSans-6d" x="399.658203"/>
      <use xlink:href="#DejaVuSans-70" x="497.070312"/>
      <use xlink:href="#DejaVuSans-6c" x="560.546875"/>
      <use xlink:href="#DejaVuSans-65" x="588.330078"/>
      <use xlink:href="#DejaVuSans-73" x="649.853516"/>
     </g>
    </g>
    <g id="line2d_24">
     <path d="M 301.162188 278.326187 
L 311.162188 278.326187 
L 321.162188 278.326187 
" style="fill: none; stroke: #2ca02c; stroke-linecap: square"/>
    </g>
    <g id="text_22">
     <!-- 8000 samples -->
     <g transform="translate(329.162188 281.826187) scale(0.1 -0.1)">
      <use xlink:href="#DejaVuSans-38"/>
      <use xlink:href="#DejaVuSans-30" x="63.623047"/>
      <use xlink:href="#DejaVuSans-30" x="127.246094"/>
      <use xlink:href="#DejaVuSans-30" x="190.869141"/>
      <use xlink:href="#DejaVuSans-20" x="254.492188"/>
      <use xlink:href="#DejaVuSans-73" x="286.279297"/>
      <use xlink:href="#DejaVuSans-61" x="338.378906"/>
      <use xlink:href="#DejaVuSans-6d" x="399.658203"/>
      <use xlink:href="#DejaVuSans-70" x="497.070312"/>
      <use xlink:href="#DejaVuSans-6c" x="560.546875"/>
      <use xlink:href="#DejaVuSans-65" x="588.330078"/>
      <use xlink:href="#DejaVuSans-73" x="649.853516"/>
     </g>
    </g>
    <g id="line2d_25">
     <path d="M 301.162188 293.004312 
L 311.162188 293.004312 
L 321.162188 293.004312 
" style="fill: none; stroke: #d62728; stroke-linecap: square"/>
    </g>
    <g id="text_23">
     <!-- 10000 samples -->
     <g transform="translate(329.162188 296.504312) scale(0.1 -0.1)">
      <use xlink:href="#DejaVuSans-31"/>
      <use xlink:href="#DejaVuSans-30" x="63.623047"/>
      <use xlink:href="#DejaVuSans-30" x="127.246094"/>
      <use xlink:href="#DejaVuSans-30" x="190.869141"/>
      <use xlink:href="#DejaVuSans-30" x="254.492188"/>
      <use xlink:href="#DejaVuSans-20" x="318.115234"/>
      <use xlink:href="#DejaVuSans-73" x="349.902344"/>
      <use xlink:href="#DejaVuSans-61" x="402.001953"/>
      <use xlink:href="#DejaVuSans-6d" x="463.28125"/>
      <use xlink:href="#DejaVuSans-70" x="560.693359"/>
      <use xlink:href="#DejaVuSans-6c" x="624.169922"/>
      <use xlink:href="#DejaVuSans-65" x="651.953125"/>
      <use xlink:href="#DejaVuSans-73" x="713.476562"/>
     </g>
    </g>
   </g>
  </g>
 </g>
 <defs>
  <clipPath id="p9363ff0372">
   <rect x="57.6" y="41.472" width="357.12" height="266.112"/>
  </clipPath>
 </defs>
</svg>
