<?xml version="1.0" encoding="utf-8" standalone="no"?>
<!DOCTYPE svg PUBLIC "-//W3C//DTD SVG 1.1//EN"
  "http://www.w3.org/Graphics/SVG/1.1/DTD/svg11.dtd">
<svg xmlns:xlink="http://www.w3.org/1999/xlink" width="460.8pt" height="345.6pt" viewBox="0 0 460.8 345.6" xmlns="http://www.w3.org/2000/svg" version="1.1">
 <metadata>
  <rdf:RDF xmlns:dc="http://purl.org/dc/elements/1.1/" xmlns:cc="http://creativecommons.org/ns#" xmlns:rdf="http://www.w3.org/1999/02/22-rdf-syntax-ns#">
   <cc:Work>
    <dc:type rdf:resource="http://purl.org/dc/dcmitype/StillImage"/>
    <dc:date>2023-09-13T16:28:02.732628</dc:date>
    <dc:format>image/svg+xml</dc:format>
    <dc:creator>
     <cc:Agent>
      <dc:title>Matplotlib v3.7.1, https://matplotlib.org/</dc:title>
     </cc:Agent>
    </dc:creator>
   </cc:Work>
  </rdf:RDF>
 </metadata>
 <defs>
  <style type="text/css">*{stroke-linejoin: round; stroke-linecap: butt}</style>
 </defs>
 <g id="figure_1">
  <g id="patch_1">
   <path d="M 0 345.6 
L 460.8 345.6 
L 460.8 0 
L 0 0 
z
" style="fill: #ffffff"/>
  </g>
  <g id="axes_1">
   <g id="patch_2">
    <path d="M 57.6 307.584 
L 414.72 307.584 
L 414.72 41.472 
L 57.6 41.472 
z
" style="fill: #ffffff"/>
   </g>
   <g id="matplotlib.axis_1">
    <g id="xtick_1">
     <g id="line2d_1">
      <defs>
       <path id="mbc801c0a3d" d="M 0 0 
L 0 3.5 
" style="stroke: #000000; stroke-width: 0.8"/>
      </defs>
      <g>
       <use xlink:href="#mbc801c0a3d" x="71.653838" y="307.584" style="stroke: #000000; stroke-width: 0.8"/>
      </g>
     </g>
     <g id="text_1">
      <!-- 0 -->
      <g transform="translate(68.472588 322.182437) scale(0.1 -0.1)">
       <defs>
        <path id="DejaVuSans-30" d="M 2034 4250 
Q 1547 4250 1301 3770 
Q 1056 3291 1056 2328 
Q 1056 1369 1301 889 
Q 1547 409 2034 409 
Q 2525 409 2770 889 
Q 3016 1369 3016 2328 
Q 3016 3291 2770 3770 
Q 2525 4250 2034 4250 
z
M 2034 4750 
Q 2819 4750 3233 4129 
Q 3647 3509 3647 2328 
Q 3647 1150 3233 529 
Q 2819 -91 2034 -91 
Q 1250 -91 836 529 
Q 422 1150 422 2328 
Q 422 3509 836 4129 
Q 1250 4750 2034 4750 
z
" transform="scale(0.015625)"/>
       </defs>
       <use xlink:href="#DejaVuSans-30"/>
      </g>
     </g>
    </g>
    <g id="xtick_2">
     <g id="line2d_2">
      <g>
       <use xlink:href="#mbc801c0a3d" x="115.231629" y="307.584" style="stroke: #000000; stroke-width: 0.8"/>
      </g>
     </g>
     <g id="text_2">
      <!-- 20 -->
      <g transform="translate(108.869129 322.182437) scale(0.1 -0.1)">
       <defs>
        <path id="DejaVuSans-32" d="M 1228 531 
L 3431 531 
L 3431 0 
L 469 0 
L 469 531 
Q 828 903 1448 1529 
Q 2069 2156 2228 2338 
Q 2531 2678 2651 2914 
Q 2772 3150 2772 3378 
Q 2772 3750 2511 3984 
Q 2250 4219 1831 4219 
Q 1534 4219 1204 4116 
Q 875 4013 500 3803 
L 500 4441 
Q 881 4594 1212 4672 
Q 1544 4750 1819 4750 
Q 2544 4750 2975 4387 
Q 3406 4025 3406 3419 
Q 3406 3131 3298 2873 
Q 3191 2616 2906 2266 
Q 2828 2175 2409 1742 
Q 1991 1309 1228 531 
z
" transform="scale(0.015625)"/>
       </defs>
       <use xlink:href="#DejaVuSans-32"/>
       <use xlink:href="#DejaVuSans-30" x="63.623047"/>
      </g>
     </g>
    </g>
    <g id="xtick_3">
     <g id="line2d_3">
      <g>
       <use xlink:href="#mbc801c0a3d" x="158.80942" y="307.584" style="stroke: #000000; stroke-width: 0.8"/>
      </g>
     </g>
     <g id="text_3">
      <!-- 40 -->
      <g transform="translate(152.44692 322.182437) scale(0.1 -0.1)">
       <defs>
        <path id="DejaVuSans-34" d="M 2419 4116 
L 825 1625 
L 2419 1625 
L 2419 4116 
z
M 2253 4666 
L 3047 4666 
L 3047 1625 
L 3713 1625 
L 3713 1100 
L 3047 1100 
L 3047 0 
L 2419 0 
L 2419 1100 
L 313 1100 
L 313 1709 
L 2253 4666 
z
" transform="scale(0.015625)"/>
       </defs>
       <use xlink:href="#DejaVuSans-34"/>
       <use xlink:href="#DejaVuSans-30" x="63.623047"/>
      </g>
     </g>
    </g>
    <g id="xtick_4">
     <g id="line2d_4">
      <g>
       <use xlink:href="#mbc801c0a3d" x="202.387212" y="307.584" style="stroke: #000000; stroke-width: 0.8"/>
      </g>
     </g>
     <g id="text_4">
      <!-- 60 -->
      <g transform="translate(196.024712 322.182437) scale(0.1 -0.1)">
       <defs>
        <path id="DejaVuSans-36" d="M 2113 2584 
Q 1688 2584 1439 2293 
Q 1191 2003 1191 1497 
Q 1191 994 1439 701 
Q 1688 409 2113 409 
Q 2538 409 2786 701 
Q 3034 994 3034 1497 
Q 3034 2003 2786 2293 
Q 2538 2584 2113 2584 
z
M 3366 4563 
L 3366 3988 
Q 3128 4100 2886 4159 
Q 2644 4219 2406 4219 
Q 1781 4219 1451 3797 
Q 1122 3375 1075 2522 
Q 1259 2794 1537 2939 
Q 1816 3084 2150 3084 
Q 2853 3084 3261 2657 
Q 3669 2231 3669 1497 
Q 3669 778 3244 343 
Q 2819 -91 2113 -91 
Q 1303 -91 875 529 
Q 447 1150 447 2328 
Q 447 3434 972 4092 
Q 1497 4750 2381 4750 
Q 2619 4750 2861 4703 
Q 3103 4656 3366 4563 
z
" transform="scale(0.015625)"/>
       </defs>
       <use xlink:href="#DejaVuSans-36"/>
       <use xlink:href="#DejaVuSans-30" x="63.623047"/>
      </g>
     </g>
    </g>
    <g id="xtick_5">
     <g id="line2d_5">
      <g>
       <use xlink:href="#mbc801c0a3d" x="245.965003" y="307.584" style="stroke: #000000; stroke-width: 0.8"/>
      </g>
     </g>
     <g id="text_5">
      <!-- 80 -->
      <g transform="translate(239.602503 322.182437) scale(0.1 -0.1)">
       <defs>
        <path id="DejaVuSans-38" d="M 2034 2216 
Q 1584 2216 1326 1975 
Q 1069 1734 1069 1313 
Q 1069 891 1326 650 
Q 1584 409 2034 409 
Q 2484 409 2743 651 
Q 3003 894 3003 1313 
Q 3003 1734 2745 1975 
Q 2488 2216 2034 2216 
z
M 1403 2484 
Q 997 2584 770 2862 
Q 544 3141 544 3541 
Q 544 4100 942 4425 
Q 1341 4750 2034 4750 
Q 2731 4750 3128 4425 
Q 3525 4100 3525 3541 
Q 3525 3141 3298 2862 
Q 3072 2584 2669 2484 
Q 3125 2378 3379 2068 
Q 3634 1759 3634 1313 
Q 3634 634 3220 271 
Q 2806 -91 2034 -91 
Q 1263 -91 848 271 
Q 434 634 434 1313 
Q 434 1759 690 2068 
Q 947 2378 1403 2484 
z
M 1172 3481 
Q 1172 3119 1398 2916 
Q 1625 2713 2034 2713 
Q 2441 2713 2670 2916 
Q 2900 3119 2900 3481 
Q 2900 3844 2670 4047 
Q 2441 4250 2034 4250 
Q 1625 4250 1398 4047 
Q 1172 3844 1172 3481 
z
" transform="scale(0.015625)"/>
       </defs>
       <use xlink:href="#DejaVuSans-38"/>
       <use xlink:href="#DejaVuSans-30" x="63.623047"/>
      </g>
     </g>
    </g>
    <g id="xtick_6">
     <g id="line2d_6">
      <g>
       <use xlink:href="#mbc801c0a3d" x="289.542794" y="307.584" style="stroke: #000000; stroke-width: 0.8"/>
      </g>
     </g>
     <g id="text_6">
      <!-- 100 -->
      <g transform="translate(279.999044 322.182437) scale(0.1 -0.1)">
       <defs>
        <path id="DejaVuSans-31" d="M 794 531 
L 1825 531 
L 1825 4091 
L 703 3866 
L 703 4441 
L 1819 4666 
L 2450 4666 
L 2450 531 
L 3481 531 
L 3481 0 
L 794 0 
L 794 531 
z
" transform="scale(0.015625)"/>
       </defs>
       <use xlink:href="#DejaVuSans-31"/>
       <use xlink:href="#DejaVuSans-30" x="63.623047"/>
       <use xlink:href="#DejaVuSans-30" x="127.246094"/>
      </g>
     </g>
    </g>
    <g id="xtick_7">
     <g id="line2d_7">
      <g>
       <use xlink:href="#mbc801c0a3d" x="333.120586" y="307.584" style="stroke: #000000; stroke-width: 0.8"/>
      </g>
     </g>
     <g id="text_7">
      <!-- 120 -->
      <g transform="translate(323.576836 322.182437) scale(0.1 -0.1)">
       <use xlink:href="#DejaVuSans-31"/>
       <use xlink:href="#DejaVuSans-32" x="63.623047"/>
       <use xlink:href="#DejaVuSans-30" x="127.246094"/>
      </g>
     </g>
    </g>
    <g id="xtick_8">
     <g id="line2d_8">
      <g>
       <use xlink:href="#mbc801c0a3d" x="376.698377" y="307.584" style="stroke: #000000; stroke-width: 0.8"/>
      </g>
     </g>
     <g id="text_8">
      <!-- 140 -->
      <g transform="translate(367.154627 322.182437) scale(0.1 -0.1)">
       <use xlink:href="#DejaVuSans-31"/>
       <use xlink:href="#DejaVuSans-34" x="63.623047"/>
       <use xlink:href="#DejaVuSans-30" x="127.246094"/>
      </g>
     </g>
    </g>
    <g id="text_9">
     <!-- epoch -->
     <g transform="translate(220.931875 335.860562) scale(0.1 -0.1)">
      <defs>
       <path id="DejaVuSans-65" d="M 3597 1894 
L 3597 1613 
L 953 1613 
Q 991 1019 1311 708 
Q 1631 397 2203 397 
Q 2534 397 2845 478 
Q 3156 559 3463 722 
L 3463 178 
Q 3153 47 2828 -22 
Q 2503 -91 2169 -91 
Q 1331 -91 842 396 
Q 353 884 353 1716 
Q 353 2575 817 3079 
Q 1281 3584 2069 3584 
Q 2775 3584 3186 3129 
Q 3597 2675 3597 1894 
z
M 3022 2063 
Q 3016 2534 2758 2815 
Q 2500 3097 2075 3097 
Q 1594 3097 1305 2825 
Q 1016 2553 972 2059 
L 3022 2063 
z
" transform="scale(0.015625)"/>
       <path id="DejaVuSans-70" d="M 1159 525 
L 1159 -1331 
L 581 -1331 
L 581 3500 
L 1159 3500 
L 1159 2969 
Q 1341 3281 1617 3432 
Q 1894 3584 2278 3584 
Q 2916 3584 3314 3078 
Q 3713 2572 3713 1747 
Q 3713 922 3314 415 
Q 2916 -91 2278 -91 
Q 1894 -91 1617 61 
Q 1341 213 1159 525 
z
M 3116 1747 
Q 3116 2381 2855 2742 
Q 2594 3103 2138 3103 
Q 1681 3103 1420 2742 
Q 1159 2381 1159 1747 
Q 1159 1113 1420 752 
Q 1681 391 2138 391 
Q 2594 391 2855 752 
Q 3116 1113 3116 1747 
z
" transform="scale(0.015625)"/>
       <path id="DejaVuSans-6f" d="M 1959 3097 
Q 1497 3097 1228 2736 
Q 959 2375 959 1747 
Q 959 1119 1226 758 
Q 1494 397 1959 397 
Q 2419 397 2687 759 
Q 2956 1122 2956 1747 
Q 2956 2369 2687 2733 
Q 2419 3097 1959 3097 
z
M 1959 3584 
Q 2709 3584 3137 3096 
Q 3566 2609 3566 1747 
Q 3566 888 3137 398 
Q 2709 -91 1959 -91 
Q 1206 -91 779 398 
Q 353 888 353 1747 
Q 353 2609 779 3096 
Q 1206 3584 1959 3584 
z
" transform="scale(0.015625)"/>
       <path id="DejaVuSans-63" d="M 3122 3366 
L 3122 2828 
Q 2878 2963 2633 3030 
Q 2388 3097 2138 3097 
Q 1578 3097 1268 2742 
Q 959 2388 959 1747 
Q 959 1106 1268 751 
Q 1578 397 2138 397 
Q 2388 397 2633 464 
Q 2878 531 3122 666 
L 3122 134 
Q 2881 22 2623 -34 
Q 2366 -91 2075 -91 
Q 1284 -91 818 406 
Q 353 903 353 1747 
Q 353 2603 823 3093 
Q 1294 3584 2113 3584 
Q 2378 3584 2631 3529 
Q 2884 3475 3122 3366 
z
" transform="scale(0.015625)"/>
       <path id="DejaVuSans-68" d="M 3513 2113 
L 3513 0 
L 2938 0 
L 2938 2094 
Q 2938 2591 2744 2837 
Q 2550 3084 2163 3084 
Q 1697 3084 1428 2787 
Q 1159 2491 1159 1978 
L 1159 0 
L 581 0 
L 581 4863 
L 1159 4863 
L 1159 2956 
Q 1366 3272 1645 3428 
Q 1925 3584 2291 3584 
Q 2894 3584 3203 3211 
Q 3513 2838 3513 2113 
z
" transform="scale(0.015625)"/>
      </defs>
      <use xlink:href="#DejaVuSans-65"/>
      <use xlink:href="#DejaVuSans-70" x="61.523438"/>
      <use xlink:href="#DejaVuSans-6f" x="125"/>
      <use xlink:href="#DejaVuSans-63" x="186.181641"/>
      <use xlink:href="#DejaVuSans-68" x="241.162109"/>
     </g>
    </g>
   </g>
   <g id="matplotlib.axis_2">
    <g id="ytick_1">
     <g id="line2d_9">
      <defs>
       <path id="mf50fe772b5" d="M 0 0 
L -3.5 0 
" style="stroke: #000000; stroke-width: 0.8"/>
      </defs>
      <g>
       <use xlink:href="#mf50fe772b5" x="57.6" y="307.584" style="stroke: #000000; stroke-width: 0.8"/>
      </g>
     </g>
     <g id="text_10">
      <!-- 0.0 -->
      <g transform="translate(34.696875 311.383219) scale(0.1 -0.1)">
       <defs>
        <path id="DejaVuSans-2e" d="M 684 794 
L 1344 794 
L 1344 0 
L 684 0 
L 684 794 
z
" transform="scale(0.015625)"/>
       </defs>
       <use xlink:href="#DejaVuSans-30"/>
       <use xlink:href="#DejaVuSans-2e" x="63.623047"/>
       <use xlink:href="#DejaVuSans-30" x="95.410156"/>
      </g>
     </g>
    </g>
    <g id="ytick_2">
     <g id="line2d_10">
      <g>
       <use xlink:href="#mf50fe772b5" x="57.6" y="272.27315" style="stroke: #000000; stroke-width: 0.8"/>
      </g>
     </g>
     <g id="text_11">
      <!-- 0.1 -->
      <g transform="translate(34.696875 276.072369) scale(0.1 -0.1)">
       <use xlink:href="#DejaVuSans-30"/>
       <use xlink:href="#DejaVuSans-2e" x="63.623047"/>
       <use xlink:href="#DejaVuSans-31" x="95.410156"/>
      </g>
     </g>
    </g>
    <g id="ytick_3">
     <g id="line2d_11">
      <g>
       <use xlink:href="#mf50fe772b5" x="57.6" y="236.962301" style="stroke: #000000; stroke-width: 0.8"/>
      </g>
     </g>
     <g id="text_12">
      <!-- 0.2 -->
      <g transform="translate(34.696875 240.761519) scale(0.1 -0.1)">
       <use xlink:href="#DejaVuSans-30"/>
       <use xlink:href="#DejaVuSans-2e" x="63.623047"/>
       <use xlink:href="#DejaVuSans-32" x="95.410156"/>
      </g>
     </g>
    </g>
    <g id="ytick_4">
     <g id="line2d_12">
      <g>
       <use xlink:href="#mf50fe772b5" x="57.6" y="201.651451" style="stroke: #000000; stroke-width: 0.8"/>
      </g>
     </g>
     <g id="text_13">
      <!-- 0.3 -->
      <g transform="translate(34.696875 205.45067) scale(0.1 -0.1)">
       <defs>
        <path id="DejaVuSans-33" d="M 2597 2516 
Q 3050 2419 3304 2112 
Q 3559 1806 3559 1356 
Q 3559 666 3084 287 
Q 2609 -91 1734 -91 
Q 1441 -91 1130 -33 
Q 819 25 488 141 
L 488 750 
Q 750 597 1062 519 
Q 1375 441 1716 441 
Q 2309 441 2620 675 
Q 2931 909 2931 1356 
Q 2931 1769 2642 2001 
Q 2353 2234 1838 2234 
L 1294 2234 
L 1294 2753 
L 1863 2753 
Q 2328 2753 2575 2939 
Q 2822 3125 2822 3475 
Q 2822 3834 2567 4026 
Q 2313 4219 1838 4219 
Q 1578 4219 1281 4162 
Q 984 4106 628 3988 
L 628 4550 
Q 988 4650 1302 4700 
Q 1616 4750 1894 4750 
Q 2613 4750 3031 4423 
Q 3450 4097 3450 3541 
Q 3450 3153 3228 2886 
Q 3006 2619 2597 2516 
z
" transform="scale(0.015625)"/>
       </defs>
       <use xlink:href="#DejaVuSans-30"/>
       <use xlink:href="#DejaVuSans-2e" x="63.623047"/>
       <use xlink:href="#DejaVuSans-33" x="95.410156"/>
      </g>
     </g>
    </g>
    <g id="ytick_5">
     <g id="line2d_13">
      <g>
       <use xlink:href="#mf50fe772b5" x="57.6" y="166.340601" style="stroke: #000000; stroke-width: 0.8"/>
      </g>
     </g>
     <g id="text_14">
      <!-- 0.4 -->
      <g transform="translate(34.696875 170.13982) scale(0.1 -0.1)">
       <use xlink:href="#DejaVuSans-30"/>
       <use xlink:href="#DejaVuSans-2e" x="63.623047"/>
       <use xlink:href="#DejaVuSans-34" x="95.410156"/>
      </g>
     </g>
    </g>
    <g id="ytick_6">
     <g id="line2d_14">
      <g>
       <use xlink:href="#mf50fe772b5" x="57.6" y="131.029752" style="stroke: #000000; stroke-width: 0.8"/>
      </g>
     </g>
     <g id="text_15">
      <!-- 0.5 -->
      <g transform="translate(34.696875 134.828971) scale(0.1 -0.1)">
       <defs>
        <path id="DejaVuSans-35" d="M 691 4666 
L 3169 4666 
L 3169 4134 
L 1269 4134 
L 1269 2991 
Q 1406 3038 1543 3061 
Q 1681 3084 1819 3084 
Q 2600 3084 3056 2656 
Q 3513 2228 3513 1497 
Q 3513 744 3044 326 
Q 2575 -91 1722 -91 
Q 1428 -91 1123 -41 
Q 819 9 494 109 
L 494 744 
Q 775 591 1075 516 
Q 1375 441 1709 441 
Q 2250 441 2565 725 
Q 2881 1009 2881 1497 
Q 2881 1984 2565 2268 
Q 2250 2553 1709 2553 
Q 1456 2553 1204 2497 
Q 953 2441 691 2322 
L 691 4666 
z
" transform="scale(0.015625)"/>
       </defs>
       <use xlink:href="#DejaVuSans-30"/>
       <use xlink:href="#DejaVuSans-2e" x="63.623047"/>
       <use xlink:href="#DejaVuSans-35" x="95.410156"/>
      </g>
     </g>
    </g>
    <g id="ytick_7">
     <g id="line2d_15">
      <g>
       <use xlink:href="#mf50fe772b5" x="57.6" y="95.718902" style="stroke: #000000; stroke-width: 0.8"/>
      </g>
     </g>
     <g id="text_16">
      <!-- 0.6 -->
      <g transform="translate(34.696875 99.518121) scale(0.1 -0.1)">
       <use xlink:href="#DejaVuSans-30"/>
       <use xlink:href="#DejaVuSans-2e" x="63.623047"/>
       <use xlink:href="#DejaVuSans-36" x="95.410156"/>
      </g>
     </g>
    </g>
    <g id="ytick_8">
     <g id="line2d_16">
      <g>
       <use xlink:href="#mf50fe772b5" x="57.6" y="60.408052" style="stroke: #000000; stroke-width: 0.8"/>
      </g>
     </g>
     <g id="text_17">
      <!-- 0.7 -->
      <g transform="translate(34.696875 64.207271) scale(0.1 -0.1)">
       <defs>
        <path id="DejaVuSans-37" d="M 525 4666 
L 3525 4666 
L 3525 4397 
L 1831 0 
L 1172 0 
L 2766 4134 
L 525 4134 
L 525 4666 
z
" transform="scale(0.015625)"/>
       </defs>
       <use xlink:href="#DejaVuSans-30"/>
       <use xlink:href="#DejaVuSans-2e" x="63.623047"/>
       <use xlink:href="#DejaVuSans-37" x="95.410156"/>
      </g>
     </g>
    </g>
   </g>
   <g id="line2d_17">
    <path d="M 73.832727 189.768211 
L 76.011617 126.245401 
L 78.190506 108.701218 
L 80.369396 108.740929 
L 82.548286 106.073727 
L 84.727175 109.302922 
L 86.906065 104.69229 
L 89.084954 113.890353 
L 91.263844 105.25187 
L 93.442733 104.025564 
L 95.621623 106.826741 
L 97.800513 103.640319 
L 99.979402 102.824213 
L 102.158292 103.607419 
L 104.337181 105.735055 
L 106.516071 102.09703 
L 108.69496 103.772084 
L 110.87385 101.987829 
L 113.052739 103.194293 
L 115.231629 102.404175 
L 117.410519 103.68519 
L 119.589408 103.709288 
L 121.768298 101.697433 
L 123.947187 102.496064 
L 126.126077 102.407101 
L 128.304966 107.004776 
L 130.483856 103.448525 
L 132.662746 101.430425 
L 134.841635 103.135563 
L 137.020525 103.270832 
L 139.199414 100.864817 
L 141.378304 102.920478 
L 143.557193 102.995252 
L 145.736083 99.895426 
L 147.914973 101.213493 
L 150.093862 101.729884 
L 152.272752 102.871409 
L 154.451641 101.290934 
L 156.630531 100.822063 
L 158.80942 101.796596 
L 160.98831 100.367808 
L 163.1672 100.952861 
L 165.346089 100.898345 
L 167.524979 102.616286 
L 169.703868 101.359939 
L 171.882758 104.525495 
L 174.061647 102.595474 
L 176.240537 100.252681 
L 178.419426 100.382915 
L 180.598316 102.374524 
L 182.777206 99.600155 
L 184.956095 102.69463 
L 187.134985 99.893471 
L 189.313874 100.83616 
L 191.492764 99.985866 
L 193.671653 101.014953 
L 195.850543 100.312325 
L 198.029433 100.877333 
L 200.208322 100.797197 
L 204.566101 101.402326 
L 208.92388 101.003153 
L 211.10277 102.998616 
L 213.28166 101.353021 
L 215.460549 99.082318 
L 217.639439 99.579671 
L 219.818328 100.237512 
L 221.997218 102.451354 
L 224.176107 102.904621 
L 226.354997 101.977397 
L 228.533887 102.183748 
L 230.712776 101.001104 
L 232.891666 100.669711 
L 237.249445 102.618622 
L 239.428334 100.737227 
L 241.607224 101.73892 
L 243.786113 100.766322 
L 245.965003 101.229692 
L 248.143893 101.351068 
L 250.322782 100.500611 
L 252.501672 100.533214 
L 254.680561 102.594972 
L 256.859451 100.270173 
L 259.03834 101.009696 
L 261.21723 99.595464 
L 263.39612 102.274028 
L 265.575009 100.426771 
L 267.753899 103.463695 
L 269.932788 102.072005 
L 272.111678 101.608555 
L 274.290567 100.765819 
L 276.469457 104.260659 
L 278.648347 100.434554 
L 280.827236 100.252028 
L 283.006126 100.604104 
L 285.185015 100.798326 
L 287.363905 99.526007 
L 289.542794 99.429848 
L 291.721684 100.174991 
L 293.900574 102.900909 
L 298.258353 99.289043 
L 300.437242 101.395969 
L 302.616132 100.107068 
L 304.795021 100.175391 
L 306.973911 101.416795 
L 309.1528 101.589209 
L 311.33169 99.587726 
L 315.689469 101.636623 
L 317.868359 100.053985 
L 320.047248 100.823834 
L 322.226138 99.97539 
L 324.405027 100.470175 
L 326.583917 100.804212 
L 328.762807 100.673212 
L 330.941696 102.41239 
L 333.120586 101.870722 
L 335.299475 101.012814 
L 337.478365 100.45515 
L 339.657254 98.941991 
L 341.836144 101.272984 
L 344.015034 100.69086 
L 346.193923 98.692103 
L 348.372813 100.579652 
L 350.551702 100.193282 
L 352.730592 99.543297 
L 354.909481 99.442863 
L 357.088371 100.736489 
L 359.267261 100.925778 
L 361.44615 100.517004 
L 365.803929 101.072038 
L 367.982819 100.086409 
L 370.161708 99.564176 
L 372.340598 100.070093 
L 374.519487 100.274013 
L 376.698377 99.722273 
L 378.877267 98.256231 
L 381.056156 99.729943 
L 383.235046 100.105208 
L 385.413935 101.468977 
L 387.592825 98.206049 
L 389.771714 100.397263 
L 391.950604 99.294419 
L 394.129494 98.753656 
L 396.308383 100.209525 
L 398.487273 99.76969 
L 398.487273 99.76969 
" clip-path="url(#p6b4b38d4fd)" style="fill: none; stroke: #1f77b4; stroke-linecap: square"/>
   </g>
   <g id="line2d_18">
    <path d="M 73.832727 189.881168 
L 86.906065 189.881168 
L 89.084954 189.707544 
L 91.263844 160.705712 
L 93.442733 152.289233 
L 95.621623 135.442687 
L 97.800513 175.211768 
L 99.979402 141.94348 
L 102.158292 128.357797 
L 104.337181 131.580759 
L 106.516071 141.048593 
L 108.69496 134.916366 
L 110.87385 165.460142 
L 113.052739 136.550437 
L 115.231629 170.533362 
L 117.410519 141.12777 
L 119.589408 130.003733 
L 121.768298 124.563279 
L 123.947187 123.904231 
L 126.126077 124.411237 
L 128.304966 135.83998 
L 130.483856 143.723188 
L 132.662746 121.084414 
L 134.841635 120.360157 
L 137.020525 178.207706 
L 139.199414 121.476221 
L 141.378304 123.090839 
L 143.557193 125.689748 
L 145.736083 145.339967 
L 147.914973 128.610538 
L 150.093862 118.168788 
L 152.272752 120.159766 
L 154.451641 121.965636 
L 156.630531 125.467663 
L 158.80942 118.327996 
L 160.98831 120.413113 
L 163.1672 119.996496 
L 165.346089 121.639058 
L 167.524979 123.444565 
L 169.703868 139.156736 
L 171.882758 124.727019 
L 174.061647 122.588022 
L 176.240537 120.051726 
L 178.419426 127.865997 
L 180.598316 121.561782 
L 182.777206 121.523703 
L 184.956095 119.705077 
L 187.134985 122.170022 
L 189.313874 121.203118 
L 191.492764 126.646446 
L 193.671653 118.684266 
L 195.850543 126.172854 
L 198.029433 126.695653 
L 200.208322 118.761186 
L 202.387212 119.788741 
L 204.566101 123.296184 
L 206.744991 123.415264 
L 208.92388 132.080904 
L 211.10277 120.081152 
L 213.28166 116.826174 
L 215.460549 123.04537 
L 217.639439 123.159754 
L 219.818328 118.051732 
L 221.997218 113.91467 
L 224.176107 125.09631 
L 226.354997 119.554848 
L 228.533887 126.170566 
L 230.712776 119.03056 
L 232.891666 120.680671 
L 235.070555 119.727782 
L 237.249445 117.401934 
L 239.428334 118.24015 
L 241.607224 123.851099 
L 243.786113 123.227879 
L 245.965003 120.339257 
L 248.143893 116.175175 
L 250.322782 117.882626 
L 252.501672 118.591317 
L 254.680561 118.301333 
L 256.859451 118.989073 
L 259.03834 116.019795 
L 261.21723 118.835762 
L 265.575009 117.879152 
L 267.753899 124.042903 
L 269.932788 118.929857 
L 272.111678 122.312612 
L 274.290567 121.466035 
L 276.469457 117.553508 
L 278.648347 118.334038 
L 280.827236 121.585072 
L 283.006126 115.651742 
L 285.185015 114.979135 
L 287.363905 119.440774 
L 289.542794 120.268049 
L 291.721684 117.14282 
L 293.900574 120.244259 
L 296.079463 118.961962 
L 298.258353 123.428719 
L 300.437242 114.854446 
L 302.616132 120.088481 
L 304.795021 114.391727 
L 306.973911 117.02433 
L 309.1528 122.040072 
L 311.33169 112.600793 
L 313.51058 116.958835 
L 315.689469 125.135924 
L 317.868359 116.975643 
L 320.047248 118.575177 
L 322.226138 120.68308 
L 324.405027 122.575556 
L 326.583917 122.196422 
L 328.762807 122.506989 
L 330.941696 118.864444 
L 333.120586 117.404746 
L 337.478365 127.235366 
L 339.657254 119.888008 
L 341.836144 125.200361 
L 344.015034 118.020009 
L 346.193923 117.786596 
L 348.372813 120.308902 
L 350.551702 120.896752 
L 352.730592 115.267639 
L 354.909481 120.730399 
L 357.088371 121.745187 
L 359.267261 118.930873 
L 361.44615 118.872254 
L 363.62504 120.67968 
L 365.803929 119.13648 
L 367.982819 115.565049 
L 370.161708 118.677132 
L 372.340598 117.993376 
L 374.519487 120.426921 
L 376.698377 114.621713 
L 378.877267 119.382999 
L 381.056156 117.452244 
L 383.235046 107.524106 
L 385.413935 122.433457 
L 387.592825 120.580923 
L 389.771714 116.085093 
L 391.950604 116.88991 
L 396.308383 120.44039 
L 398.487273 116.373228 
L 398.487273 116.373228 
" clip-path="url(#p6b4b38d4fd)" style="fill: none; stroke: #ff7f0e; stroke-linecap: square"/>
   </g>
   <g id="line2d_19">
    <path d="M 73.832727 189.881168 
L 78.190506 189.881168 
L 80.369396 120.060464 
L 82.548286 116.715362 
L 84.727175 125.535209 
L 86.906065 187.641216 
L 89.084954 114.280757 
L 91.263844 123.335715 
L 93.442733 111.583775 
L 95.621623 114.596744 
L 97.800513 111.511907 
L 99.979402 110.64374 
L 102.158292 112.93913 
L 104.337181 109.966602 
L 106.516071 110.621487 
L 108.69496 111.942435 
L 110.87385 109.709337 
L 113.052739 111.993403 
L 115.231629 110.211146 
L 117.410519 111.686895 
L 119.589408 110.462184 
L 121.768298 112.535909 
L 123.947187 111.479441 
L 126.126077 108.633677 
L 128.304966 109.488146 
L 130.483856 109.297171 
L 132.662746 107.716616 
L 134.841635 111.27461 
L 137.020525 106.810415 
L 139.199414 109.334275 
L 141.378304 108.56824 
L 143.557193 106.869268 
L 147.914973 109.59662 
L 150.093862 107.637477 
L 152.272752 108.01313 
L 154.451641 106.807167 
L 156.630531 109.232618 
L 158.80942 106.589119 
L 160.98831 108.608156 
L 163.1672 104.370369 
L 165.346089 107.282806 
L 167.524979 107.23764 
L 169.703868 106.34175 
L 171.882758 106.233152 
L 174.061647 106.991662 
L 176.240537 105.059739 
L 178.419426 106.975868 
L 180.598316 105.584489 
L 182.777206 105.149666 
L 184.956095 103.458897 
L 187.134985 104.786049 
L 189.313874 103.976374 
L 191.492764 106.58501 
L 193.671653 104.672694 
L 195.850543 103.612114 
L 198.029433 108.353932 
L 200.208322 107.386164 
L 202.387212 100.534168 
L 204.566101 103.919933 
L 206.744991 98.330684 
L 208.92388 100.338432 
L 211.10277 106.790295 
L 213.28166 102.237703 
L 215.460549 107.206168 
L 217.639439 101.635239 
L 219.818328 101.117571 
L 221.997218 107.101869 
L 224.176107 105.785043 
L 226.354997 103.759024 
L 228.533887 105.632686 
L 230.712776 99.495962 
L 232.891666 100.398188 
L 235.070555 103.28579 
L 237.249445 105.053395 
L 239.428334 96.078977 
L 241.607224 103.176811 
L 243.786113 100.848765 
L 245.965003 101.376726 
L 248.143893 98.733689 
L 250.322782 100.949056 
L 252.501672 104.926199 
L 254.680561 101.300062 
L 256.859451 98.855965 
L 261.21723 95.198467 
L 263.39612 101.62673 
L 265.575009 99.297967 
L 267.753899 100.500459 
L 269.932788 97.079345 
L 272.111678 104.03274 
L 274.290567 99.756179 
L 276.469457 103.141835 
L 278.648347 99.888826 
L 280.827236 93.421985 
L 283.006126 95.588449 
L 285.185015 98.409691 
L 287.363905 97.859743 
L 289.542794 92.299422 
L 291.721684 95.045165 
L 293.900574 96.27703 
L 296.079463 101.971778 
L 298.258353 98.055381 
L 300.437242 96.527968 
L 302.616132 101.053743 
L 304.795021 99.112388 
L 306.973911 99.340979 
L 309.1528 98.00632 
L 311.33169 91.658457 
L 313.51058 96.473719 
L 315.689469 98.99797 
L 317.868359 93.987525 
L 320.047248 102.801748 
L 322.226138 95.921093 
L 324.405027 97.765095 
L 326.583917 96.016106 
L 328.762807 93.917734 
L 330.941696 97.011356 
L 333.120586 101.424056 
L 335.299475 94.338344 
L 337.478365 97.78238 
L 339.657254 92.915933 
L 341.836144 97.19873 
L 344.015034 94.822116 
L 346.193923 100.736677 
L 348.372813 98.277874 
L 350.551702 96.01802 
L 352.730592 97.634848 
L 354.909481 100.310914 
L 357.088371 104.209966 
L 359.267261 98.145295 
L 361.44615 95.184611 
L 363.62504 94.329154 
L 365.803929 96.638759 
L 367.982819 97.036642 
L 370.161708 102.70813 
L 372.340598 99.966283 
L 374.519487 97.473925 
L 376.698377 100.127627 
L 378.877267 95.92761 
L 381.056156 96.390894 
L 383.235046 99.577515 
L 385.413935 95.458497 
L 387.592825 98.820867 
L 389.771714 98.284874 
L 391.950604 94.386073 
L 394.129494 97.36903 
L 396.308383 94.068781 
L 398.487273 96.249537 
L 398.487273 96.249537 
" clip-path="url(#p6b4b38d4fd)" style="fill: none; stroke: #2ca02c; stroke-linecap: square"/>
   </g>
   <g id="line2d_20">
    <path d="M 73.832727 189.881168 
L 76.011617 188.845749 
L 78.190506 153.092724 
L 80.369396 166.634435 
L 82.548286 144.462126 
L 84.727175 108.811936 
L 86.906065 119.538972 
L 89.084954 109.261437 
L 91.263844 114.961487 
L 93.442733 107.284661 
L 95.621623 104.134442 
L 97.800513 106.587125 
L 99.979402 99.623972 
L 102.158292 104.173129 
L 104.337181 99.510621 
L 106.516071 96.33998 
L 108.69496 100.838088 
L 110.87385 98.49782 
L 113.052739 100.528637 
L 115.231629 93.876596 
L 117.410519 103.046107 
L 119.589408 101.45875 
L 121.768298 98.836328 
L 123.947187 97.674006 
L 126.126077 98.853313 
L 128.304966 103.623097 
L 130.483856 99.346733 
L 132.662746 99.344409 
L 134.841635 99.637396 
L 137.020525 97.931066 
L 139.199414 99.68283 
L 141.378304 98.620707 
L 143.557193 96.306086 
L 145.736083 101.825085 
L 147.914973 96.784702 
L 150.093862 99.409911 
L 152.272752 101.405918 
L 154.451641 98.265233 
L 156.630531 98.51662 
L 158.80942 98.161523 
L 160.98831 95.135018 
L 163.1672 96.170775 
L 165.346089 104.765903 
L 167.524979 91.894845 
L 169.703868 98.380743 
L 171.882758 92.4364 
L 174.061647 95.435641 
L 176.240537 96.031174 
L 178.419426 99.00166 
L 180.598316 95.734743 
L 182.777206 95.225069 
L 184.956095 100.717051 
L 187.134985 97.381556 
L 189.313874 93.423744 
L 191.492764 99.469521 
L 193.671653 100.038054 
L 195.850543 100.913605 
L 198.029433 92.496769 
L 200.208322 100.576387 
L 202.387212 97.788374 
L 204.566101 97.704119 
L 206.744991 93.840637 
L 208.92388 91.46016 
L 211.10277 93.486157 
L 213.28166 92.949592 
L 215.460549 96.977203 
L 217.639439 94.518197 
L 219.818328 94.317022 
L 221.997218 95.472879 
L 224.176107 93.485247 
L 226.354997 97.824176 
L 228.533887 99.942088 
L 230.712776 91.599677 
L 232.891666 93.831287 
L 235.070555 93.10032 
L 237.249445 90.794896 
L 239.428334 90.962048 
L 241.607224 94.976297 
L 243.786113 93.125395 
L 245.965003 91.808764 
L 248.143893 96.130257 
L 250.322782 93.01693 
L 252.501672 94.095586 
L 254.680561 93.740538 
L 256.859451 95.812837 
L 259.03834 94.301187 
L 261.21723 94.997218 
L 263.39612 92.369184 
L 267.753899 92.012206 
L 269.932788 96.571892 
L 272.111678 98.092045 
L 274.290567 94.284179 
L 276.469457 99.573457 
L 278.648347 94.890222 
L 280.827236 92.891255 
L 283.006126 100.708587 
L 285.185015 93.509472 
L 289.542794 91.268491 
L 291.721684 95.725862 
L 293.900574 96.603156 
L 296.079463 90.373358 
L 298.258353 97.337813 
L 300.437242 92.235185 
L 302.616132 94.256651 
L 304.795021 96.045744 
L 306.973911 96.334735 
L 309.1528 97.392044 
L 311.33169 91.362831 
L 313.51058 89.689993 
L 315.689469 92.952311 
L 317.868359 95.024853 
L 320.047248 93.983651 
L 322.226138 91.125018 
L 324.405027 89.300159 
L 326.583917 97.874134 
L 328.762807 98.365483 
L 330.941696 99.48283 
L 333.120586 93.954183 
L 335.299475 97.361642 
L 337.478365 91.587149 
L 339.657254 95.179546 
L 341.836144 96.548781 
L 344.015034 95.40618 
L 346.193923 92.302624 
L 348.372813 92.109683 
L 350.551702 90.095997 
L 352.730592 91.533083 
L 354.909481 93.745075 
L 357.088371 92.9776 
L 359.267261 92.018467 
L 361.44615 92.56466 
L 363.62504 89.02523 
L 365.803929 98.017306 
L 367.982819 93.295769 
L 370.161708 85.824 
L 372.340598 91.428972 
L 374.519487 92.665036 
L 376.698377 94.557502 
L 378.877267 92.192122 
L 381.056156 90.021415 
L 383.235046 95.24325 
L 385.413935 94.345144 
L 387.592825 91.537083 
L 389.771714 97.043254 
L 391.950604 93.21744 
L 394.129494 93.906891 
L 396.308383 91.650454 
L 398.487273 88.214323 
L 398.487273 88.214323 
" clip-path="url(#p6b4b38d4fd)" style="fill: none; stroke: #d62728; stroke-linecap: square"/>
   </g>
   <g id="patch_3">
    <path d="M 57.6 307.584 
L 57.6 41.472 
" style="fill: none; stroke: #000000; stroke-width: 0.8; stroke-linejoin: miter; stroke-linecap: square"/>
   </g>
   <g id="patch_4">
    <path d="M 414.72 307.584 
L 414.72 41.472 
" style="fill: none; stroke: #000000; stroke-width: 0.8; stroke-linejoin: miter; stroke-linecap: square"/>
   </g>
   <g id="patch_5">
    <path d="M 57.6 307.584 
L 414.72 307.584 
" style="fill: none; stroke: #000000; stroke-width: 0.8; stroke-linejoin: miter; stroke-linecap: square"/>
   </g>
   <g id="patch_6">
    <path d="M 57.6 41.472 
L 414.72 41.472 
" style="fill: none; stroke: #000000; stroke-width: 0.8; stroke-linejoin: miter; stroke-linecap: square"/>
   </g>
   <g id="text_18">
    <!-- Recall of ST -->
    <g transform="translate(201.188437 35.472) scale(0.12 -0.12)">
     <defs>
      <path id="DejaVuSans-52" d="M 2841 2188 
Q 3044 2119 3236 1894 
Q 3428 1669 3622 1275 
L 4263 0 
L 3584 0 
L 2988 1197 
Q 2756 1666 2539 1819 
Q 2322 1972 1947 1972 
L 1259 1972 
L 1259 0 
L 628 0 
L 628 4666 
L 2053 4666 
Q 2853 4666 3247 4331 
Q 3641 3997 3641 3322 
Q 3641 2881 3436 2590 
Q 3231 2300 2841 2188 
z
M 1259 4147 
L 1259 2491 
L 2053 2491 
Q 2509 2491 2742 2702 
Q 2975 2913 2975 3322 
Q 2975 3731 2742 3939 
Q 2509 4147 2053 4147 
L 1259 4147 
z
" transform="scale(0.015625)"/>
      <path id="DejaVuSans-61" d="M 2194 1759 
Q 1497 1759 1228 1600 
Q 959 1441 959 1056 
Q 959 750 1161 570 
Q 1363 391 1709 391 
Q 2188 391 2477 730 
Q 2766 1069 2766 1631 
L 2766 1759 
L 2194 1759 
z
M 3341 1997 
L 3341 0 
L 2766 0 
L 2766 531 
Q 2569 213 2275 61 
Q 1981 -91 1556 -91 
Q 1019 -91 701 211 
Q 384 513 384 1019 
Q 384 1609 779 1909 
Q 1175 2209 1959 2209 
L 2766 2209 
L 2766 2266 
Q 2766 2663 2505 2880 
Q 2244 3097 1772 3097 
Q 1472 3097 1187 3025 
Q 903 2953 641 2809 
L 641 3341 
Q 956 3463 1253 3523 
Q 1550 3584 1831 3584 
Q 2591 3584 2966 3190 
Q 3341 2797 3341 1997 
z
" transform="scale(0.015625)"/>
      <path id="DejaVuSans-6c" d="M 603 4863 
L 1178 4863 
L 1178 0 
L 603 0 
L 603 4863 
z
" transform="scale(0.015625)"/>
      <path id="DejaVuSans-20" transform="scale(0.015625)"/>
      <path id="DejaVuSans-66" d="M 2375 4863 
L 2375 4384 
L 1825 4384 
Q 1516 4384 1395 4259 
Q 1275 4134 1275 3809 
L 1275 3500 
L 2222 3500 
L 2222 3053 
L 1275 3053 
L 1275 0 
L 697 0 
L 697 3053 
L 147 3053 
L 147 3500 
L 697 3500 
L 697 3744 
Q 697 4328 969 4595 
Q 1241 4863 1831 4863 
L 2375 4863 
z
" transform="scale(0.015625)"/>
      <path id="DejaVuSans-53" d="M 3425 4513 
L 3425 3897 
Q 3066 4069 2747 4153 
Q 2428 4238 2131 4238 
Q 1616 4238 1336 4038 
Q 1056 3838 1056 3469 
Q 1056 3159 1242 3001 
Q 1428 2844 1947 2747 
L 2328 2669 
Q 3034 2534 3370 2195 
Q 3706 1856 3706 1288 
Q 3706 609 3251 259 
Q 2797 -91 1919 -91 
Q 1588 -91 1214 -16 
Q 841 59 441 206 
L 441 856 
Q 825 641 1194 531 
Q 1563 422 1919 422 
Q 2459 422 2753 634 
Q 3047 847 3047 1241 
Q 3047 1584 2836 1778 
Q 2625 1972 2144 2069 
L 1759 2144 
Q 1053 2284 737 2584 
Q 422 2884 422 3419 
Q 422 4038 858 4394 
Q 1294 4750 2059 4750 
Q 2388 4750 2728 4690 
Q 3069 4631 3425 4513 
z
" transform="scale(0.015625)"/>
      <path id="DejaVuSans-54" d="M -19 4666 
L 3928 4666 
L 3928 4134 
L 2272 4134 
L 2272 0 
L 1638 0 
L 1638 4134 
L -19 4134 
L -19 4666 
z
" transform="scale(0.015625)"/>
     </defs>
     <use xlink:href="#DejaVuSans-52"/>
     <use xlink:href="#DejaVuSans-65" x="64.982422"/>
     <use xlink:href="#DejaVuSans-63" x="126.505859"/>
     <use xlink:href="#DejaVuSans-61" x="181.486328"/>
     <use xlink:href="#DejaVuSans-6c" x="242.765625"/>
     <use xlink:href="#DejaVuSans-6c" x="270.548828"/>
     <use xlink:href="#DejaVuSans-20" x="298.332031"/>
     <use xlink:href="#DejaVuSans-6f" x="330.119141"/>
     <use xlink:href="#DejaVuSans-66" x="391.300781"/>
     <use xlink:href="#DejaVuSans-20" x="426.505859"/>
     <use xlink:href="#DejaVuSans-53" x="458.292969"/>
     <use xlink:href="#DejaVuSans-54" x="521.769531"/>
    </g>
   </g>
   <g id="legend_1">
    <g id="patch_7">
     <path d="M 64.6 302.584 
L 173.157812 302.584 
Q 175.157812 302.584 175.157812 300.584 
L 175.157812 242.8715 
Q 175.157812 240.8715 173.157812 240.8715 
L 64.6 240.8715 
Q 62.6 240.8715 62.6 242.8715 
L 62.6 300.584 
Q 62.6 302.584 64.6 302.584 
z
" style="fill: #ffffff; opacity: 0.8; stroke: #cccccc; stroke-linejoin: miter"/>
    </g>
    <g id="line2d_21">
     <path d="M 66.6 248.969937 
L 76.6 248.969937 
L 86.6 248.969937 
" style="fill: none; stroke: #1f77b4; stroke-linecap: square"/>
    </g>
    <g id="text_19">
     <!-- 2000 samples -->
     <g transform="translate(94.6 252.469937) scale(0.1 -0.1)">
      <defs>
       <path id="DejaVuSans-73" d="M 2834 3397 
L 2834 2853 
Q 2591 2978 2328 3040 
Q 2066 3103 1784 3103 
Q 1356 3103 1142 2972 
Q 928 2841 928 2578 
Q 928 2378 1081 2264 
Q 1234 2150 1697 2047 
L 1894 2003 
Q 2506 1872 2764 1633 
Q 3022 1394 3022 966 
Q 3022 478 2636 193 
Q 2250 -91 1575 -91 
Q 1294 -91 989 -36 
Q 684 19 347 128 
L 347 722 
Q 666 556 975 473 
Q 1284 391 1588 391 
Q 1994 391 2212 530 
Q 2431 669 2431 922 
Q 2431 1156 2273 1281 
Q 2116 1406 1581 1522 
L 1381 1569 
Q 847 1681 609 1914 
Q 372 2147 372 2553 
Q 372 3047 722 3315 
Q 1072 3584 1716 3584 
Q 2034 3584 2315 3537 
Q 2597 3491 2834 3397 
z
" transform="scale(0.015625)"/>
       <path id="DejaVuSans-6d" d="M 3328 2828 
Q 3544 3216 3844 3400 
Q 4144 3584 4550 3584 
Q 5097 3584 5394 3201 
Q 5691 2819 5691 2113 
L 5691 0 
L 5113 0 
L 5113 2094 
Q 5113 2597 4934 2840 
Q 4756 3084 4391 3084 
Q 3944 3084 3684 2787 
Q 3425 2491 3425 1978 
L 3425 0 
L 2847 0 
L 2847 2094 
Q 2847 2600 2669 2842 
Q 2491 3084 2119 3084 
Q 1678 3084 1418 2786 
Q 1159 2488 1159 1978 
L 1159 0 
L 581 0 
L 581 3500 
L 1159 3500 
L 1159 2956 
Q 1356 3278 1631 3431 
Q 1906 3584 2284 3584 
Q 2666 3584 2933 3390 
Q 3200 3197 3328 2828 
z
" transform="scale(0.015625)"/>
      </defs>
      <use xlink:href="#DejaVuSans-32"/>
      <use xlink:href="#DejaVuSans-30" x="63.623047"/>
      <use xlink:href="#DejaVuSans-30" x="127.246094"/>
      <use xlink:href="#DejaVuSans-30" x="190.869141"/>
      <use xlink:href="#DejaVuSans-20" x="254.492188"/>
      <use xlink:href="#DejaVuSans-73" x="286.279297"/>
      <use xlink:href="#DejaVuSans-61" x="338.378906"/>
      <use xlink:href="#DejaVuSans-6d" x="399.658203"/>
      <use xlink:href="#DejaVuSans-70" x="497.070312"/>
      <use xlink:href="#DejaVuSans-6c" x="560.546875"/>
      <use xlink:href="#DejaVuSans-65" x="588.330078"/>
      <use xlink:href="#DejaVuSans-73" x="649.853516"/>
     </g>
    </g>
    <g id="line2d_22">
     <path d="M 66.6 263.648062 
L 76.6 263.648062 
L 86.6 263.648062 
" style="fill: none; stroke: #ff7f0e; stroke-linecap: square"/>
    </g>
    <g id="text_20">
     <!-- 5000 samples -->
     <g transform="translate(94.6 267.148062) scale(0.1 -0.1)">
      <use xlink:href="#DejaVuSans-35"/>
      <use xlink:href="#DejaVuSans-30" x="63.623047"/>
      <use xlink:href="#DejaVuSans-30" x="127.246094"/>
      <use xlink:href="#DejaVuSans-30" x="190.869141"/>
      <use xlink:href="#DejaVuSans-20" x="254.492188"/>
      <use xlink:href="#DejaVuSans-73" x="286.279297"/>
      <use xlink:href="#DejaVuSans-61" x="338.378906"/>
      <use xlink:href="#DejaVuSans-6d" x="399.658203"/>
      <use xlink:href="#DejaVuSans-70" x="497.070312"/>
      <use xlink:href="#DejaVuSans-6c" x="560.546875"/>
      <use xlink:href="#DejaVuSans-65" x="588.330078"/>
      <use xlink:href="#DejaVuSans-73" x="649.853516"/>
     </g>
    </g>
    <g id="line2d_23">
     <path d="M 66.6 278.326187 
L 76.6 278.326187 
L 86.6 278.326187 
" style="fill: none; stroke: #2ca02c; stroke-linecap: square"/>
    </g>
    <g id="text_21">
     <!-- 8000 samples -->
     <g transform="translate(94.6 281.826187) scale(0.1 -0.1)">
      <use xlink:href="#DejaVuSans-38"/>
      <use xlink:href="#DejaVuSans-30" x="63.623047"/>
      <use xlink:href="#DejaVuSans-30" x="127.246094"/>
      <use xlink:href="#DejaVuSans-30" x="190.869141"/>
      <use xlink:href="#DejaVuSans-20" x="254.492188"/>
      <use xlink:href="#DejaVuSans-73" x="286.279297"/>
      <use xlink:href="#DejaVuSans-61" x="338.378906"/>
      <use xlink:href="#DejaVuSans-6d" x="399.658203"/>
      <use xlink:href="#DejaVuSans-70" x="497.070312"/>
      <use xlink:href="#DejaVuSans-6c" x="560.546875"/>
      <use xlink:href="#DejaVuSans-65" x="588.330078"/>
      <use xlink:href="#DejaVuSans-73" x="649.853516"/>
     </g>
    </g>
    <g id="line2d_24">
     <path d="M 66.6 293.004312 
L 76.6 293.004312 
L 86.6 293.004312 
" style="fill: none; stroke: #d62728; stroke-linecap: square"/>
    </g>
    <g id="text_22">
     <!-- 10000 samples -->
     <g transform="translate(94.6 296.504312) scale(0.1 -0.1)">
      <use xlink:href="#DejaVuSans-31"/>
      <use xlink:href="#DejaVuSans-30" x="63.623047"/>
      <use xlink:href="#DejaVuSans-30" x="127.246094"/>
      <use xlink:href="#DejaVuSans-30" x="190.869141"/>
      <use xlink:href="#DejaVuSans-30" x="254.492188"/>
      <use xlink:href="#DejaVuSans-20" x="318.115234"/>
      <use xlink:href="#DejaVuSans-73" x="349.902344"/>
      <use xlink:href="#DejaVuSans-61" x="402.001953"/>
      <use xlink:href="#DejaVuSans-6d" x="463.28125"/>
      <use xlink:href="#DejaVuSans-70" x="560.693359"/>
      <use xlink:href="#DejaVuSans-6c" x="624.169922"/>
      <use xlink:href="#DejaVuSans-65" x="651.953125"/>
      <use xlink:href="#DejaVuSans-73" x="713.476562"/>
     </g>
    </g>
   </g>
  </g>
 </g>
 <defs>
  <clipPath id="p6b4b38d4fd">
   <rect x="57.6" y="41.472" width="357.12" height="266.112"/>
  </clipPath>
 </defs>
</svg>
