<?xml version="1.0" encoding="utf-8" standalone="no"?>
<!DOCTYPE svg PUBLIC "-//W3C//DTD SVG 1.1//EN"
  "http://www.w3.org/Graphics/SVG/1.1/DTD/svg11.dtd">
<svg xmlns:xlink="http://www.w3.org/1999/xlink" width="460.8pt" height="345.6pt" viewBox="0 0 460.8 345.6" xmlns="http://www.w3.org/2000/svg" version="1.1">
 <metadata>
  <rdf:RDF xmlns:dc="http://purl.org/dc/elements/1.1/" xmlns:cc="http://creativecommons.org/ns#" xmlns:rdf="http://www.w3.org/1999/02/22-rdf-syntax-ns#">
   <cc:Work>
    <dc:type rdf:resource="http://purl.org/dc/dcmitype/StillImage"/>
    <dc:date>2023-09-13T16:28:36.720084</dc:date>
    <dc:format>image/svg+xml</dc:format>
    <dc:creator>
     <cc:Agent>
      <dc:title>Matplotlib v3.7.1, https://matplotlib.org/</dc:title>
     </cc:Agent>
    </dc:creator>
   </cc:Work>
  </rdf:RDF>
 </metadata>
 <defs>
  <style type="text/css">*{stroke-linejoin: round; stroke-linecap: butt}</style>
 </defs>
 <g id="figure_1">
  <g id="patch_1">
   <path d="M 0 345.6 
L 460.8 345.6 
L 460.8 0 
L 0 0 
z
" style="fill: #ffffff"/>
  </g>
  <g id="axes_1">
   <g id="patch_2">
    <path d="M 57.6 307.584 
L 414.72 307.584 
L 414.72 41.472 
L 57.6 41.472 
z
" style="fill: #ffffff"/>
   </g>
   <g id="matplotlib.axis_1">
    <g id="xtick_1">
     <g id="line2d_1">
      <defs>
       <path id="m79a706cb57" d="M 0 0 
L 0 3.5 
" style="stroke: #000000; stroke-width: 0.8"/>
      </defs>
      <g>
       <use xlink:href="#m79a706cb57" x="71.653838" y="307.584" style="stroke: #000000; stroke-width: 0.8"/>
      </g>
     </g>
     <g id="text_1">
      <!-- 0 -->
      <g transform="translate(68.472588 322.182437) scale(0.1 -0.1)">
       <defs>
        <path id="DejaVuSans-30" d="M 2034 4250 
Q 1547 4250 1301 3770 
Q 1056 3291 1056 2328 
Q 1056 1369 1301 889 
Q 1547 409 2034 409 
Q 2525 409 2770 889 
Q 3016 1369 3016 2328 
Q 3016 3291 2770 3770 
Q 2525 4250 2034 4250 
z
M 2034 4750 
Q 2819 4750 3233 4129 
Q 3647 3509 3647 2328 
Q 3647 1150 3233 529 
Q 2819 -91 2034 -91 
Q 1250 -91 836 529 
Q 422 1150 422 2328 
Q 422 3509 836 4129 
Q 1250 4750 2034 4750 
z
" transform="scale(0.015625)"/>
       </defs>
       <use xlink:href="#DejaVuSans-30"/>
      </g>
     </g>
    </g>
    <g id="xtick_2">
     <g id="line2d_2">
      <g>
       <use xlink:href="#m79a706cb57" x="115.231629" y="307.584" style="stroke: #000000; stroke-width: 0.8"/>
      </g>
     </g>
     <g id="text_2">
      <!-- 20 -->
      <g transform="translate(108.869129 322.182437) scale(0.1 -0.1)">
       <defs>
        <path id="DejaVuSans-32" d="M 1228 531 
L 3431 531 
L 3431 0 
L 469 0 
L 469 531 
Q 828 903 1448 1529 
Q 2069 2156 2228 2338 
Q 2531 2678 2651 2914 
Q 2772 3150 2772 3378 
Q 2772 3750 2511 3984 
Q 2250 4219 1831 4219 
Q 1534 4219 1204 4116 
Q 875 4013 500 3803 
L 500 4441 
Q 881 4594 1212 4672 
Q 1544 4750 1819 4750 
Q 2544 4750 2975 4387 
Q 3406 4025 3406 3419 
Q 3406 3131 3298 2873 
Q 3191 2616 2906 2266 
Q 2828 2175 2409 1742 
Q 1991 1309 1228 531 
z
" transform="scale(0.015625)"/>
       </defs>
       <use xlink:href="#DejaVuSans-32"/>
       <use xlink:href="#DejaVuSans-30" x="63.623047"/>
      </g>
     </g>
    </g>
    <g id="xtick_3">
     <g id="line2d_3">
      <g>
       <use xlink:href="#m79a706cb57" x="158.80942" y="307.584" style="stroke: #000000; stroke-width: 0.8"/>
      </g>
     </g>
     <g id="text_3">
      <!-- 40 -->
      <g transform="translate(152.44692 322.182437) scale(0.1 -0.1)">
       <defs>
        <path id="DejaVuSans-34" d="M 2419 4116 
L 825 1625 
L 2419 1625 
L 2419 4116 
z
M 2253 4666 
L 3047 4666 
L 3047 1625 
L 3713 1625 
L 3713 1100 
L 3047 1100 
L 3047 0 
L 2419 0 
L 2419 1100 
L 313 1100 
L 313 1709 
L 2253 4666 
z
" transform="scale(0.015625)"/>
       </defs>
       <use xlink:href="#DejaVuSans-34"/>
       <use xlink:href="#DejaVuSans-30" x="63.623047"/>
      </g>
     </g>
    </g>
    <g id="xtick_4">
     <g id="line2d_4">
      <g>
       <use xlink:href="#m79a706cb57" x="202.387212" y="307.584" style="stroke: #000000; stroke-width: 0.8"/>
      </g>
     </g>
     <g id="text_4">
      <!-- 60 -->
      <g transform="translate(196.024712 322.182437) scale(0.1 -0.1)">
       <defs>
        <path id="DejaVuSans-36" d="M 2113 2584 
Q 1688 2584 1439 2293 
Q 1191 2003 1191 1497 
Q 1191 994 1439 701 
Q 1688 409 2113 409 
Q 2538 409 2786 701 
Q 3034 994 3034 1497 
Q 3034 2003 2786 2293 
Q 2538 2584 2113 2584 
z
M 3366 4563 
L 3366 3988 
Q 3128 4100 2886 4159 
Q 2644 4219 2406 4219 
Q 1781 4219 1451 3797 
Q 1122 3375 1075 2522 
Q 1259 2794 1537 2939 
Q 1816 3084 2150 3084 
Q 2853 3084 3261 2657 
Q 3669 2231 3669 1497 
Q 3669 778 3244 343 
Q 2819 -91 2113 -91 
Q 1303 -91 875 529 
Q 447 1150 447 2328 
Q 447 3434 972 4092 
Q 1497 4750 2381 4750 
Q 2619 4750 2861 4703 
Q 3103 4656 3366 4563 
z
" transform="scale(0.015625)"/>
       </defs>
       <use xlink:href="#DejaVuSans-36"/>
       <use xlink:href="#DejaVuSans-30" x="63.623047"/>
      </g>
     </g>
    </g>
    <g id="xtick_5">
     <g id="line2d_5">
      <g>
       <use xlink:href="#m79a706cb57" x="245.965003" y="307.584" style="stroke: #000000; stroke-width: 0.8"/>
      </g>
     </g>
     <g id="text_5">
      <!-- 80 -->
      <g transform="translate(239.602503 322.182437) scale(0.1 -0.1)">
       <defs>
        <path id="DejaVuSans-38" d="M 2034 2216 
Q 1584 2216 1326 1975 
Q 1069 1734 1069 1313 
Q 1069 891 1326 650 
Q 1584 409 2034 409 
Q 2484 409 2743 651 
Q 3003 894 3003 1313 
Q 3003 1734 2745 1975 
Q 2488 2216 2034 2216 
z
M 1403 2484 
Q 997 2584 770 2862 
Q 544 3141 544 3541 
Q 544 4100 942 4425 
Q 1341 4750 2034 4750 
Q 2731 4750 3128 4425 
Q 3525 4100 3525 3541 
Q 3525 3141 3298 2862 
Q 3072 2584 2669 2484 
Q 3125 2378 3379 2068 
Q 3634 1759 3634 1313 
Q 3634 634 3220 271 
Q 2806 -91 2034 -91 
Q 1263 -91 848 271 
Q 434 634 434 1313 
Q 434 1759 690 2068 
Q 947 2378 1403 2484 
z
M 1172 3481 
Q 1172 3119 1398 2916 
Q 1625 2713 2034 2713 
Q 2441 2713 2670 2916 
Q 2900 3119 2900 3481 
Q 2900 3844 2670 4047 
Q 2441 4250 2034 4250 
Q 1625 4250 1398 4047 
Q 1172 3844 1172 3481 
z
" transform="scale(0.015625)"/>
       </defs>
       <use xlink:href="#DejaVuSans-38"/>
       <use xlink:href="#DejaVuSans-30" x="63.623047"/>
      </g>
     </g>
    </g>
    <g id="xtick_6">
     <g id="line2d_6">
      <g>
       <use xlink:href="#m79a706cb57" x="289.542794" y="307.584" style="stroke: #000000; stroke-width: 0.8"/>
      </g>
     </g>
     <g id="text_6">
      <!-- 100 -->
      <g transform="translate(279.999044 322.182437) scale(0.1 -0.1)">
       <defs>
        <path id="DejaVuSans-31" d="M 794 531 
L 1825 531 
L 1825 4091 
L 703 3866 
L 703 4441 
L 1819 4666 
L 2450 4666 
L 2450 531 
L 3481 531 
L 3481 0 
L 794 0 
L 794 531 
z
" transform="scale(0.015625)"/>
       </defs>
       <use xlink:href="#DejaVuSans-31"/>
       <use xlink:href="#DejaVuSans-30" x="63.623047"/>
       <use xlink:href="#DejaVuSans-30" x="127.246094"/>
      </g>
     </g>
    </g>
    <g id="xtick_7">
     <g id="line2d_7">
      <g>
       <use xlink:href="#m79a706cb57" x="333.120586" y="307.584" style="stroke: #000000; stroke-width: 0.8"/>
      </g>
     </g>
     <g id="text_7">
      <!-- 120 -->
      <g transform="translate(323.576836 322.182437) scale(0.1 -0.1)">
       <use xlink:href="#DejaVuSans-31"/>
       <use xlink:href="#DejaVuSans-32" x="63.623047"/>
       <use xlink:href="#DejaVuSans-30" x="127.246094"/>
      </g>
     </g>
    </g>
    <g id="xtick_8">
     <g id="line2d_8">
      <g>
       <use xlink:href="#m79a706cb57" x="376.698377" y="307.584" style="stroke: #000000; stroke-width: 0.8"/>
      </g>
     </g>
     <g id="text_8">
      <!-- 140 -->
      <g transform="translate(367.154627 322.182437) scale(0.1 -0.1)">
       <use xlink:href="#DejaVuSans-31"/>
       <use xlink:href="#DejaVuSans-34" x="63.623047"/>
       <use xlink:href="#DejaVuSans-30" x="127.246094"/>
      </g>
     </g>
    </g>
    <g id="text_9">
     <!-- epoch -->
     <g transform="translate(220.931875 335.860562) scale(0.1 -0.1)">
      <defs>
       <path id="DejaVuSans-65" d="M 3597 1894 
L 3597 1613 
L 953 1613 
Q 991 1019 1311 708 
Q 1631 397 2203 397 
Q 2534 397 2845 478 
Q 3156 559 3463 722 
L 3463 178 
Q 3153 47 2828 -22 
Q 2503 -91 2169 -91 
Q 1331 -91 842 396 
Q 353 884 353 1716 
Q 353 2575 817 3079 
Q 1281 3584 2069 3584 
Q 2775 3584 3186 3129 
Q 3597 2675 3597 1894 
z
M 3022 2063 
Q 3016 2534 2758 2815 
Q 2500 3097 2075 3097 
Q 1594 3097 1305 2825 
Q 1016 2553 972 2059 
L 3022 2063 
z
" transform="scale(0.015625)"/>
       <path id="DejaVuSans-70" d="M 1159 525 
L 1159 -1331 
L 581 -1331 
L 581 3500 
L 1159 3500 
L 1159 2969 
Q 1341 3281 1617 3432 
Q 1894 3584 2278 3584 
Q 2916 3584 3314 3078 
Q 3713 2572 3713 1747 
Q 3713 922 3314 415 
Q 2916 -91 2278 -91 
Q 1894 -91 1617 61 
Q 1341 213 1159 525 
z
M 3116 1747 
Q 3116 2381 2855 2742 
Q 2594 3103 2138 3103 
Q 1681 3103 1420 2742 
Q 1159 2381 1159 1747 
Q 1159 1113 1420 752 
Q 1681 391 2138 391 
Q 2594 391 2855 752 
Q 3116 1113 3116 1747 
z
" transform="scale(0.015625)"/>
       <path id="DejaVuSans-6f" d="M 1959 3097 
Q 1497 3097 1228 2736 
Q 959 2375 959 1747 
Q 959 1119 1226 758 
Q 1494 397 1959 397 
Q 2419 397 2687 759 
Q 2956 1122 2956 1747 
Q 2956 2369 2687 2733 
Q 2419 3097 1959 3097 
z
M 1959 3584 
Q 2709 3584 3137 3096 
Q 3566 2609 3566 1747 
Q 3566 888 3137 398 
Q 2709 -91 1959 -91 
Q 1206 -91 779 398 
Q 353 888 353 1747 
Q 353 2609 779 3096 
Q 1206 3584 1959 3584 
z
" transform="scale(0.015625)"/>
       <path id="DejaVuSans-63" d="M 3122 3366 
L 3122 2828 
Q 2878 2963 2633 3030 
Q 2388 3097 2138 3097 
Q 1578 3097 1268 2742 
Q 959 2388 959 1747 
Q 959 1106 1268 751 
Q 1578 397 2138 397 
Q 2388 397 2633 464 
Q 2878 531 3122 666 
L 3122 134 
Q 2881 22 2623 -34 
Q 2366 -91 2075 -91 
Q 1284 -91 818 406 
Q 353 903 353 1747 
Q 353 2603 823 3093 
Q 1294 3584 2113 3584 
Q 2378 3584 2631 3529 
Q 2884 3475 3122 3366 
z
" transform="scale(0.015625)"/>
       <path id="DejaVuSans-68" d="M 3513 2113 
L 3513 0 
L 2938 0 
L 2938 2094 
Q 2938 2591 2744 2837 
Q 2550 3084 2163 3084 
Q 1697 3084 1428 2787 
Q 1159 2491 1159 1978 
L 1159 0 
L 581 0 
L 581 4863 
L 1159 4863 
L 1159 2956 
Q 1366 3272 1645 3428 
Q 1925 3584 2291 3584 
Q 2894 3584 3203 3211 
Q 3513 2838 3513 2113 
z
" transform="scale(0.015625)"/>
      </defs>
      <use xlink:href="#DejaVuSans-65"/>
      <use xlink:href="#DejaVuSans-70" x="61.523438"/>
      <use xlink:href="#DejaVuSans-6f" x="125"/>
      <use xlink:href="#DejaVuSans-63" x="186.181641"/>
      <use xlink:href="#DejaVuSans-68" x="241.162109"/>
     </g>
    </g>
   </g>
   <g id="matplotlib.axis_2">
    <g id="ytick_1">
     <g id="line2d_9">
      <defs>
       <path id="mcf1b155eca" d="M 0 0 
L -3.5 0 
" style="stroke: #000000; stroke-width: 0.8"/>
      </defs>
      <g>
       <use xlink:href="#mcf1b155eca" x="57.6" y="307.584" style="stroke: #000000; stroke-width: 0.8"/>
      </g>
     </g>
     <g id="text_10">
      <!-- 0.0 -->
      <g transform="translate(34.696875 311.383219) scale(0.1 -0.1)">
       <defs>
        <path id="DejaVuSans-2e" d="M 684 794 
L 1344 794 
L 1344 0 
L 684 0 
L 684 794 
z
" transform="scale(0.015625)"/>
       </defs>
       <use xlink:href="#DejaVuSans-30"/>
       <use xlink:href="#DejaVuSans-2e" x="63.623047"/>
       <use xlink:href="#DejaVuSans-30" x="95.410156"/>
      </g>
     </g>
    </g>
    <g id="ytick_2">
     <g id="line2d_10">
      <g>
       <use xlink:href="#mcf1b155eca" x="57.6" y="248.794552" style="stroke: #000000; stroke-width: 0.8"/>
      </g>
     </g>
     <g id="text_11">
      <!-- 0.2 -->
      <g transform="translate(34.696875 252.593771) scale(0.1 -0.1)">
       <use xlink:href="#DejaVuSans-30"/>
       <use xlink:href="#DejaVuSans-2e" x="63.623047"/>
       <use xlink:href="#DejaVuSans-32" x="95.410156"/>
      </g>
     </g>
    </g>
    <g id="ytick_3">
     <g id="line2d_11">
      <g>
       <use xlink:href="#mcf1b155eca" x="57.6" y="190.005104" style="stroke: #000000; stroke-width: 0.8"/>
      </g>
     </g>
     <g id="text_12">
      <!-- 0.4 -->
      <g transform="translate(34.696875 193.804323) scale(0.1 -0.1)">
       <use xlink:href="#DejaVuSans-30"/>
       <use xlink:href="#DejaVuSans-2e" x="63.623047"/>
       <use xlink:href="#DejaVuSans-34" x="95.410156"/>
      </g>
     </g>
    </g>
    <g id="ytick_4">
     <g id="line2d_12">
      <g>
       <use xlink:href="#mcf1b155eca" x="57.6" y="131.215656" style="stroke: #000000; stroke-width: 0.8"/>
      </g>
     </g>
     <g id="text_13">
      <!-- 0.6 -->
      <g transform="translate(34.696875 135.014875) scale(0.1 -0.1)">
       <use xlink:href="#DejaVuSans-30"/>
       <use xlink:href="#DejaVuSans-2e" x="63.623047"/>
       <use xlink:href="#DejaVuSans-36" x="95.410156"/>
      </g>
     </g>
    </g>
    <g id="ytick_5">
     <g id="line2d_13">
      <g>
       <use xlink:href="#mcf1b155eca" x="57.6" y="72.426208" style="stroke: #000000; stroke-width: 0.8"/>
      </g>
     </g>
     <g id="text_14">
      <!-- 0.8 -->
      <g transform="translate(34.696875 76.225426) scale(0.1 -0.1)">
       <use xlink:href="#DejaVuSans-30"/>
       <use xlink:href="#DejaVuSans-2e" x="63.623047"/>
       <use xlink:href="#DejaVuSans-38" x="95.410156"/>
      </g>
     </g>
    </g>
   </g>
   <g id="line2d_14">
    <path d="M 73.832727 152.021336 
L 76.011617 149.35965 
L 78.190506 143.291912 
L 80.369396 130.96947 
L 82.548286 120.164014 
L 84.727175 114.426894 
L 86.906065 111.014651 
L 89.084954 111.438888 
L 93.442733 102.966183 
L 95.621623 103.773541 
L 97.800513 103.025247 
L 99.979402 103.280166 
L 102.158292 102.776297 
L 104.337181 103.18938 
L 106.516071 102.92667 
L 108.69496 103.180266 
L 110.87385 105.613185 
L 113.052739 103.585208 
L 115.231629 98.749196 
L 117.410519 96.78421 
L 119.589408 99.525692 
L 121.768298 102.484201 
L 123.947187 96.171898 
L 126.126077 101.471487 
L 128.304966 93.252242 
L 130.483856 92.452965 
L 132.662746 93.589339 
L 134.841635 95.097556 
L 137.020525 92.491927 
L 139.199414 92.552696 
L 141.378304 91.21995 
L 143.557193 91.991482 
L 147.914973 90.95752 
L 150.093862 89.882036 
L 152.272752 91.236996 
L 154.451641 91.239058 
L 156.630531 89.581797 
L 158.80942 89.642993 
L 160.98831 90.684104 
L 163.1672 89.113894 
L 165.346089 89.534078 
L 167.524979 90.180872 
L 169.703868 89.868148 
L 171.882758 90.566948 
L 174.061647 89.982026 
L 176.240537 90.350408 
L 178.419426 90.410863 
L 180.598316 90.635857 
L 182.777206 90.598872 
L 184.956095 89.690035 
L 187.134985 91.237318 
L 189.313874 88.751857 
L 191.492764 92.186473 
L 193.671653 88.988145 
L 195.850543 89.483799 
L 198.029433 89.807541 
L 200.208322 90.428228 
L 202.387212 88.646404 
L 204.566101 88.609764 
L 206.744991 90.411644 
L 208.92388 87.722692 
L 211.10277 88.712125 
L 213.28166 87.787714 
L 215.460549 89.82635 
L 217.639439 89.520933 
L 219.818328 88.880378 
L 221.997218 86.579883 
L 224.176107 86.411265 
L 226.354997 89.601607 
L 228.533887 85.922032 
L 230.712776 87.597913 
L 232.891666 88.139483 
L 235.070555 87.452557 
L 237.249445 88.065275 
L 239.428334 89.653299 
L 241.607224 90.415302 
L 243.786113 87.852128 
L 245.965003 91.3241 
L 248.143893 87.364284 
L 250.322782 88.660329 
L 252.501672 88.058705 
L 254.680561 90.872431 
L 256.859451 88.021215 
L 259.03834 86.684003 
L 261.21723 86.421971 
L 263.39612 89.552142 
L 265.575009 87.756262 
L 267.753899 88.634178 
L 269.932788 91.158434 
L 272.111678 87.866173 
L 274.290567 88.285831 
L 276.469457 87.849043 
L 278.648347 87.991533 
L 280.827236 86.709828 
L 283.006126 88.720334 
L 285.185015 87.929803 
L 287.363905 87.999034 
L 289.542794 87.748709 
L 291.721684 89.476357 
L 293.900574 88.434591 
L 296.079463 88.226215 
L 298.258353 89.202839 
L 300.437242 88.309004 
L 302.616132 86.457799 
L 304.795021 87.782973 
L 306.973911 87.342016 
L 309.1528 86.296865 
L 311.33169 87.468332 
L 313.51058 89.558457 
L 315.689469 88.648002 
L 317.868359 85.824 
L 320.047248 88.649169 
L 322.226138 86.792469 
L 324.405027 88.411248 
L 326.583917 87.971132 
L 328.762807 88.488717 
L 330.941696 87.595388 
L 333.120586 89.130658 
L 335.299475 88.544209 
L 337.478365 88.523126 
L 339.657254 87.009019 
L 341.836144 88.330933 
L 344.015034 88.318918 
L 346.193923 87.725979 
L 348.372813 88.185569 
L 350.551702 87.487795 
L 352.730592 87.499616 
L 354.909481 87.660739 
L 357.088371 87.186133 
L 359.267261 89.307733 
L 361.44615 86.425454 
L 363.62504 89.117821 
L 365.803929 86.561297 
L 367.982819 91.29254 
L 370.161708 89.538342 
L 372.340598 87.992627 
L 374.519487 87.404676 
L 376.698377 87.228012 
L 378.877267 88.149813 
L 381.056156 87.390271 
L 383.235046 86.908931 
L 385.413935 87.097939 
L 387.592825 86.943222 
L 389.771714 88.362962 
L 391.950604 87.624242 
L 394.129494 86.462061 
L 396.308383 87.076982 
L 398.487273 87.553582 
L 398.487273 87.553582 
" clip-path="url(#pf1d5e6801c)" style="fill: none; stroke: #1f77b4; stroke-linecap: square"/>
   </g>
   <g id="line2d_15">
    <path d="M 73.832727 217.306809 
L 76.011617 216.053259 
L 78.190506 210.133147 
L 80.369396 222.471265 
L 82.548286 219.090483 
L 84.727175 205.724601 
L 86.906065 217.441091 
L 89.084954 225.124052 
L 91.263844 193.931395 
L 93.442733 202.175527 
L 95.621623 201.601989 
L 97.800513 182.296044 
L 99.979402 198.377633 
L 102.158292 173.894961 
L 104.337181 168.97999 
L 106.516071 166.280074 
L 108.69496 172.037463 
L 110.87385 197.359488 
L 113.052739 191.415382 
L 115.231629 160.249808 
L 117.410519 166.893068 
L 119.589408 153.015755 
L 121.768298 149.250769 
L 123.947187 144.526569 
L 126.126077 140.203877 
L 128.304966 143.856365 
L 130.483856 135.825496 
L 132.662746 139.233598 
L 134.841635 138.16797 
L 137.020525 139.123391 
L 139.199414 136.276568 
L 141.378304 143.272154 
L 143.557193 142.211163 
L 145.736083 140.281812 
L 147.914973 139.213085 
L 150.093862 134.196901 
L 152.272752 136.356176 
L 154.451641 141.115692 
L 156.630531 134.933467 
L 158.80942 133.446561 
L 160.98831 134.747403 
L 163.1672 130.14437 
L 165.346089 131.282503 
L 167.524979 134.23021 
L 169.703868 130.980567 
L 171.882758 134.88723 
L 174.061647 135.100107 
L 176.240537 140.244144 
L 178.419426 136.325729 
L 180.598316 134.313866 
L 182.777206 133.983926 
L 184.956095 134.821991 
L 189.313874 141.080193 
L 191.492764 143.646694 
L 193.671653 136.519267 
L 195.850543 136.988141 
L 198.029433 137.284374 
L 200.208322 131.69896 
L 202.387212 148.829269 
L 204.566101 141.236433 
L 206.744991 143.928675 
L 208.92388 132.245582 
L 211.10277 134.793453 
L 213.28166 132.69635 
L 215.460549 131.149534 
L 217.639439 133.863636 
L 219.818328 130.953753 
L 221.997218 134.696679 
L 224.176107 133.607311 
L 226.354997 139.572098 
L 228.533887 132.233604 
L 230.712776 130.469866 
L 232.891666 135.727129 
L 235.070555 132.12328 
L 237.249445 135.142755 
L 239.428334 139.500117 
L 241.607224 134.759423 
L 243.786113 132.953012 
L 245.965003 146.106676 
L 248.143893 142.311994 
L 250.322782 128.505914 
L 252.501672 130.982383 
L 254.680561 131.240412 
L 256.859451 136.755105 
L 259.03834 134.417381 
L 261.21723 134.618746 
L 263.39612 135.740393 
L 265.575009 132.118569 
L 267.753899 129.341119 
L 269.932788 141.126945 
L 272.111678 132.053203 
L 274.290567 136.561877 
L 276.469457 129.455965 
L 278.648347 132.277974 
L 280.827236 138.138303 
L 283.006126 130.101768 
L 285.185015 136.942744 
L 287.363905 135.890164 
L 289.542794 134.575516 
L 291.721684 133.73219 
L 293.900574 138.710706 
L 296.079463 133.226544 
L 298.258353 130.893333 
L 300.437242 127.320937 
L 302.616132 130.528563 
L 304.795021 131.182606 
L 306.973911 133.706801 
L 309.1528 150.425185 
L 311.33169 132.166912 
L 313.51058 129.364049 
L 315.689469 128.358811 
L 317.868359 132.239591 
L 320.047248 129.555973 
L 322.226138 137.221303 
L 324.405027 131.282125 
L 326.583917 128.916044 
L 328.762807 130.806966 
L 330.941696 135.595334 
L 333.120586 129.155975 
L 337.478365 133.236881 
L 339.657254 137.745231 
L 341.836144 140.185367 
L 344.015034 128.00695 
L 346.193923 136.27883 
L 348.372813 132.89547 
L 350.551702 127.0938 
L 352.730592 129.434526 
L 354.909481 135.062715 
L 357.088371 129.772789 
L 359.267261 131.248902 
L 361.44615 129.177479 
L 363.62504 132.468532 
L 365.803929 129.937575 
L 367.982819 134.096402 
L 370.161708 129.005761 
L 372.340598 132.26398 
L 374.519487 130.62798 
L 376.698377 135.637637 
L 381.056156 129.685163 
L 383.235046 130.489633 
L 387.592825 131.404066 
L 389.771714 135.951343 
L 391.950604 132.620148 
L 394.129494 129.841539 
L 396.308383 129.502055 
L 398.487273 133.642785 
L 398.487273 133.642785 
" clip-path="url(#pf1d5e6801c)" style="fill: none; stroke: #ff7f0e; stroke-linecap: square"/>
   </g>
   <g id="line2d_16">
    <path d="M 73.832727 187.567677 
L 76.011617 194.339332 
L 78.190506 178.491704 
L 80.369396 175.34275 
L 82.548286 309.41659 
L 84.727175 146.300793 
L 86.906065 151.959953 
L 89.084954 123.661384 
L 91.263844 130.517586 
L 93.442733 125.932756 
L 95.621623 125.230872 
L 97.800513 118.78243 
L 99.979402 117.210434 
L 102.158292 110.185646 
L 104.337181 109.953424 
L 106.516071 105.986619 
L 108.69496 105.867217 
L 110.87385 112.314775 
L 113.052739 104.717384 
L 115.231629 100.671249 
L 117.410519 102.649854 
L 119.589408 99.74682 
L 121.768298 99.017753 
L 123.947187 100.0573 
L 126.126077 96.133373 
L 128.304966 101.136321 
L 130.483856 109.838302 
L 132.662746 101.317185 
L 134.841635 99.681344 
L 137.020525 101.693946 
L 139.199414 100.026443 
L 141.378304 99.933723 
L 143.557193 103.851465 
L 145.736083 102.266557 
L 147.914973 101.624468 
L 150.093862 100.861113 
L 152.272752 99.177574 
L 154.451641 107.342369 
L 156.630531 97.001753 
L 158.80942 95.724855 
L 160.98831 95.899139 
L 163.1672 97.025538 
L 165.346089 94.16869 
L 167.524979 94.945085 
L 169.703868 97.582473 
L 171.882758 98.117551 
L 174.061647 94.499536 
L 176.240537 95.746015 
L 178.419426 96.158893 
L 180.598316 93.701038 
L 182.777206 92.220473 
L 184.956095 92.626236 
L 187.134985 94.295696 
L 189.313874 95.426395 
L 191.492764 92.588242 
L 193.671653 94.128113 
L 195.850543 93.898072 
L 198.029433 93.343833 
L 200.208322 94.330647 
L 202.387212 92.755078 
L 204.566101 93.913187 
L 206.744991 92.548092 
L 208.92388 91.671785 
L 211.10277 92.393521 
L 213.28166 92.676683 
L 215.460549 93.246175 
L 217.639439 91.728576 
L 219.818328 91.023205 
L 221.997218 91.173018 
L 224.176107 91.488417 
L 226.354997 92.005943 
L 228.533887 92.230334 
L 230.712776 92.129296 
L 232.891666 90.576051 
L 235.070555 91.083858 
L 239.428334 90.877887 
L 241.607224 92.593856 
L 243.786113 91.54499 
L 245.965003 91.890875 
L 248.143893 91.177046 
L 250.322782 91.069025 
L 252.501672 91.785343 
L 254.680561 90.624885 
L 256.859451 91.201674 
L 259.03834 91.479883 
L 261.21723 90.915194 
L 263.39612 90.499632 
L 265.575009 92.118724 
L 267.753899 90.293182 
L 269.932788 93.201678 
L 272.111678 91.313282 
L 274.290567 90.833274 
L 276.469457 90.545383 
L 278.648347 92.132166 
L 280.827236 92.994202 
L 283.006126 93.504881 
L 285.185015 91.278764 
L 287.363905 90.951516 
L 289.542794 89.876778 
L 291.721684 90.321701 
L 293.900574 91.314717 
L 296.079463 91.911421 
L 298.258353 90.415993 
L 300.437242 91.825325 
L 302.616132 90.283274 
L 304.795021 92.745322 
L 306.973911 91.021807 
L 309.1528 91.256485 
L 311.33169 92.486346 
L 313.51058 91.245907 
L 315.689469 91.361853 
L 317.868359 92.644661 
L 320.047248 91.433358 
L 322.226138 90.558628 
L 324.405027 91.773789 
L 326.583917 93.658244 
L 328.762807 92.272563 
L 330.941696 91.856847 
L 333.120586 90.635374 
L 335.299475 91.003068 
L 337.478365 92.730853 
L 339.657254 90.90698 
L 341.836144 91.3613 
L 344.015034 94.535538 
L 346.193923 91.713049 
L 348.372813 92.14697 
L 350.551702 90.238894 
L 352.730592 91.002638 
L 354.909481 90.443881 
L 357.088371 90.204075 
L 359.267261 90.182593 
L 361.44615 92.356301 
L 365.803929 91.083215 
L 367.982819 91.553677 
L 370.161708 91.359006 
L 372.340598 93.451166 
L 376.698377 90.948593 
L 378.877267 90.273761 
L 381.056156 91.271005 
L 383.235046 92.074444 
L 385.413935 90.921562 
L 387.592825 93.327092 
L 389.771714 90.308742 
L 391.950604 90.378267 
L 394.129494 91.11683 
L 396.308383 89.863869 
L 398.487273 90.125369 
L 398.487273 90.125369 
" clip-path="url(#pf1d5e6801c)" style="fill: none; stroke: #2ca02c; stroke-linecap: square"/>
   </g>
   <g id="line2d_17">
    <path d="M 73.832727 256.586321 
L 76.011617 166.428643 
L 78.190506 177.541284 
L 80.369396 140.039336 
L 82.548286 165.103612 
L 84.727175 170.618719 
L 86.906065 158.074087 
L 89.084954 137.232448 
L 91.263844 132.791521 
L 93.442733 115.410951 
L 95.621623 107.389378 
L 97.800513 105.231752 
L 99.979402 111.902584 
L 102.158292 101.933581 
L 104.337181 101.014393 
L 106.516071 97.408629 
L 108.69496 102.439853 
L 110.87385 110.588983 
L 113.052739 99.910699 
L 115.231629 106.013692 
L 117.410519 100.746664 
L 119.589408 101.352333 
L 121.768298 124.518285 
L 123.947187 100.237261 
L 126.126077 101.531015 
L 128.304966 94.843739 
L 130.483856 95.687793 
L 132.662746 94.929511 
L 134.841635 99.661987 
L 137.020525 96.321736 
L 139.199414 94.3504 
L 141.378304 92.817883 
L 143.557193 92.426411 
L 145.736083 93.343172 
L 147.914973 93.274337 
L 150.093862 96.898471 
L 152.272752 93.190428 
L 154.451641 91.164648 
L 156.630531 89.858912 
L 158.80942 90.485046 
L 160.98831 93.502132 
L 163.1672 88.65198 
L 165.346089 89.360024 
L 167.524979 90.418326 
L 169.703868 92.697891 
L 171.882758 87.956529 
L 174.061647 89.908607 
L 176.240537 91.456677 
L 178.419426 88.450411 
L 180.598316 88.680956 
L 182.777206 90.334739 
L 184.956095 88.820064 
L 187.134985 89.16814 
L 189.313874 90.888295 
L 191.492764 88.808308 
L 193.671653 89.902935 
L 195.850543 88.921382 
L 198.029433 90.494472 
L 200.208322 91.826064 
L 202.387212 89.870465 
L 206.744991 87.989057 
L 208.92388 87.715959 
L 211.10277 88.097996 
L 213.28166 89.084668 
L 215.460549 90.54595 
L 217.639439 87.710421 
L 219.818328 88.305705 
L 221.997218 86.635122 
L 224.176107 87.916828 
L 226.354997 88.892929 
L 228.533887 87.283675 
L 230.712776 87.339837 
L 232.891666 87.829707 
L 235.070555 88.195213 
L 237.249445 87.949145 
L 239.428334 89.644603 
L 241.607224 88.909721 
L 243.786113 87.452428 
L 245.965003 88.502282 
L 248.143893 87.604204 
L 250.322782 88.006121 
L 252.501672 88.603176 
L 254.680561 88.2867 
L 256.859451 87.733495 
L 259.03834 89.658928 
L 261.21723 89.063652 
L 263.39612 89.765153 
L 265.575009 89.476178 
L 267.753899 87.269212 
L 269.932788 88.922673 
L 272.111678 88.098926 
L 274.290567 90.222697 
L 276.469457 86.988011 
L 278.648347 89.455366 
L 280.827236 87.72034 
L 283.006126 88.133052 
L 285.185015 87.521095 
L 287.363905 86.637601 
L 289.542794 91.206217 
L 291.721684 88.264797 
L 293.900574 87.276814 
L 296.079463 87.735493 
L 298.258353 89.65611 
L 302.616132 89.261187 
L 304.795021 88.614379 
L 306.973911 87.316459 
L 309.1528 87.973895 
L 311.33169 87.69848 
L 313.51058 88.641019 
L 315.689469 87.55567 
L 317.868359 88.265508 
L 320.047248 90.123847 
L 322.226138 88.033234 
L 324.405027 91.444098 
L 326.583917 88.286859 
L 328.762807 90.385233 
L 330.941696 88.128788 
L 333.120586 89.936075 
L 335.299475 87.553558 
L 337.478365 87.992179 
L 339.657254 88.022657 
L 341.836144 88.754279 
L 344.015034 88.755496 
L 346.193923 89.481763 
L 348.372813 92.650498 
L 350.551702 87.906393 
L 352.730592 88.13526 
L 354.909481 89.31541 
L 357.088371 89.752314 
L 359.267261 88.853089 
L 361.44615 90.107584 
L 363.62504 89.732078 
L 365.803929 88.055234 
L 367.982819 87.303175 
L 370.161708 91.188923 
L 372.340598 89.16147 
L 374.519487 88.091756 
L 376.698377 87.663343 
L 381.056156 88.332661 
L 383.235046 88.221587 
L 385.413935 87.772798 
L 387.592825 87.63616 
L 389.771714 86.968553 
L 391.950604 87.93849 
L 394.129494 87.747687 
L 396.308383 89.456748 
L 398.487273 87.374916 
L 398.487273 87.374916 
" clip-path="url(#pf1d5e6801c)" style="fill: none; stroke: #d62728; stroke-linecap: square"/>
   </g>
   <g id="patch_3">
    <path d="M 57.6 307.584 
L 57.6 41.472 
" style="fill: none; stroke: #000000; stroke-width: 0.8; stroke-linejoin: miter; stroke-linecap: square"/>
   </g>
   <g id="patch_4">
    <path d="M 414.72 307.584 
L 414.72 41.472 
" style="fill: none; stroke: #000000; stroke-width: 0.8; stroke-linejoin: miter; stroke-linecap: square"/>
   </g>
   <g id="patch_5">
    <path d="M 57.6 307.584 
L 414.72 307.584 
" style="fill: none; stroke: #000000; stroke-width: 0.8; stroke-linejoin: miter; stroke-linecap: square"/>
   </g>
   <g id="patch_6">
    <path d="M 57.6 41.472 
L 414.72 41.472 
" style="fill: none; stroke: #000000; stroke-width: 0.8; stroke-linejoin: miter; stroke-linecap: square"/>
   </g>
   <g id="text_15">
    <!-- Accuracy of Yield -->
    <g transform="translate(184.887187 35.472) scale(0.12 -0.12)">
     <defs>
      <path id="DejaVuSans-41" d="M 2188 4044 
L 1331 1722 
L 3047 1722 
L 2188 4044 
z
M 1831 4666 
L 2547 4666 
L 4325 0 
L 3669 0 
L 3244 1197 
L 1141 1197 
L 716 0 
L 50 0 
L 1831 4666 
z
" transform="scale(0.015625)"/>
      <path id="DejaVuSans-75" d="M 544 1381 
L 544 3500 
L 1119 3500 
L 1119 1403 
Q 1119 906 1312 657 
Q 1506 409 1894 409 
Q 2359 409 2629 706 
Q 2900 1003 2900 1516 
L 2900 3500 
L 3475 3500 
L 3475 0 
L 2900 0 
L 2900 538 
Q 2691 219 2414 64 
Q 2138 -91 1772 -91 
Q 1169 -91 856 284 
Q 544 659 544 1381 
z
M 1991 3584 
L 1991 3584 
z
" transform="scale(0.015625)"/>
      <path id="DejaVuSans-72" d="M 2631 2963 
Q 2534 3019 2420 3045 
Q 2306 3072 2169 3072 
Q 1681 3072 1420 2755 
Q 1159 2438 1159 1844 
L 1159 0 
L 581 0 
L 581 3500 
L 1159 3500 
L 1159 2956 
Q 1341 3275 1631 3429 
Q 1922 3584 2338 3584 
Q 2397 3584 2469 3576 
Q 2541 3569 2628 3553 
L 2631 2963 
z
" transform="scale(0.015625)"/>
      <path id="DejaVuSans-61" d="M 2194 1759 
Q 1497 1759 1228 1600 
Q 959 1441 959 1056 
Q 959 750 1161 570 
Q 1363 391 1709 391 
Q 2188 391 2477 730 
Q 2766 1069 2766 1631 
L 2766 1759 
L 2194 1759 
z
M 3341 1997 
L 3341 0 
L 2766 0 
L 2766 531 
Q 2569 213 2275 61 
Q 1981 -91 1556 -91 
Q 1019 -91 701 211 
Q 384 513 384 1019 
Q 384 1609 779 1909 
Q 1175 2209 1959 2209 
L 2766 2209 
L 2766 2266 
Q 2766 2663 2505 2880 
Q 2244 3097 1772 3097 
Q 1472 3097 1187 3025 
Q 903 2953 641 2809 
L 641 3341 
Q 956 3463 1253 3523 
Q 1550 3584 1831 3584 
Q 2591 3584 2966 3190 
Q 3341 2797 3341 1997 
z
" transform="scale(0.015625)"/>
      <path id="DejaVuSans-79" d="M 2059 -325 
Q 1816 -950 1584 -1140 
Q 1353 -1331 966 -1331 
L 506 -1331 
L 506 -850 
L 844 -850 
Q 1081 -850 1212 -737 
Q 1344 -625 1503 -206 
L 1606 56 
L 191 3500 
L 800 3500 
L 1894 763 
L 2988 3500 
L 3597 3500 
L 2059 -325 
z
" transform="scale(0.015625)"/>
      <path id="DejaVuSans-20" transform="scale(0.015625)"/>
      <path id="DejaVuSans-66" d="M 2375 4863 
L 2375 4384 
L 1825 4384 
Q 1516 4384 1395 4259 
Q 1275 4134 1275 3809 
L 1275 3500 
L 2222 3500 
L 2222 3053 
L 1275 3053 
L 1275 0 
L 697 0 
L 697 3053 
L 147 3053 
L 147 3500 
L 697 3500 
L 697 3744 
Q 697 4328 969 4595 
Q 1241 4863 1831 4863 
L 2375 4863 
z
" transform="scale(0.015625)"/>
      <path id="DejaVuSans-59" d="M -13 4666 
L 666 4666 
L 1959 2747 
L 3244 4666 
L 3922 4666 
L 2272 2222 
L 2272 0 
L 1638 0 
L 1638 2222 
L -13 4666 
z
" transform="scale(0.015625)"/>
      <path id="DejaVuSans-69" d="M 603 3500 
L 1178 3500 
L 1178 0 
L 603 0 
L 603 3500 
z
M 603 4863 
L 1178 4863 
L 1178 4134 
L 603 4134 
L 603 4863 
z
" transform="scale(0.015625)"/>
      <path id="DejaVuSans-6c" d="M 603 4863 
L 1178 4863 
L 1178 0 
L 603 0 
L 603 4863 
z
" transform="scale(0.015625)"/>
      <path id="DejaVuSans-64" d="M 2906 2969 
L 2906 4863 
L 3481 4863 
L 3481 0 
L 2906 0 
L 2906 525 
Q 2725 213 2448 61 
Q 2172 -91 1784 -91 
Q 1150 -91 751 415 
Q 353 922 353 1747 
Q 353 2572 751 3078 
Q 1150 3584 1784 3584 
Q 2172 3584 2448 3432 
Q 2725 3281 2906 2969 
z
M 947 1747 
Q 947 1113 1208 752 
Q 1469 391 1925 391 
Q 2381 391 2643 752 
Q 2906 1113 2906 1747 
Q 2906 2381 2643 2742 
Q 2381 3103 1925 3103 
Q 1469 3103 1208 2742 
Q 947 2381 947 1747 
z
" transform="scale(0.015625)"/>
     </defs>
     <use xlink:href="#DejaVuSans-41"/>
     <use xlink:href="#DejaVuSans-63" x="66.658203"/>
     <use xlink:href="#DejaVuSans-63" x="121.638672"/>
     <use xlink:href="#DejaVuSans-75" x="176.619141"/>
     <use xlink:href="#DejaVuSans-72" x="239.998047"/>
     <use xlink:href="#DejaVuSans-61" x="281.111328"/>
     <use xlink:href="#DejaVuSans-63" x="342.390625"/>
     <use xlink:href="#DejaVuSans-79" x="397.371094"/>
     <use xlink:href="#DejaVuSans-20" x="456.550781"/>
     <use xlink:href="#DejaVuSans-6f" x="488.337891"/>
     <use xlink:href="#DejaVuSans-66" x="549.519531"/>
     <use xlink:href="#DejaVuSans-20" x="584.724609"/>
     <use xlink:href="#DejaVuSans-59" x="616.511719"/>
     <use xlink:href="#DejaVuSans-69" x="673.970703"/>
     <use xlink:href="#DejaVuSans-65" x="701.753906"/>
     <use xlink:href="#DejaVuSans-6c" x="763.277344"/>
     <use xlink:href="#DejaVuSans-64" x="791.060547"/>
    </g>
   </g>
   <g id="legend_1">
    <g id="patch_7">
     <path d="M 299.162188 302.584 
L 407.72 302.584 
Q 409.72 302.584 409.72 300.584 
L 409.72 242.8715 
Q 409.72 240.8715 407.72 240.8715 
L 299.162188 240.8715 
Q 297.162188 240.8715 297.162188 242.8715 
L 297.162188 300.584 
Q 297.162188 302.584 299.162188 302.584 
z
" style="fill: #ffffff; opacity: 0.8; stroke: #cccccc; stroke-linejoin: miter"/>
    </g>
    <g id="line2d_18">
     <path d="M 301.162188 248.969937 
L 311.162188 248.969937 
L 321.162188 248.969937 
" style="fill: none; stroke: #1f77b4; stroke-linecap: square"/>
    </g>
    <g id="text_16">
     <!-- 2000 samples -->
     <g transform="translate(329.162188 252.469937) scale(0.1 -0.1)">
      <defs>
       <path id="DejaVuSans-73" d="M 2834 3397 
L 2834 2853 
Q 2591 2978 2328 3040 
Q 2066 3103 1784 3103 
Q 1356 3103 1142 2972 
Q 928 2841 928 2578 
Q 928 2378 1081 2264 
Q 1234 2150 1697 2047 
L 1894 2003 
Q 2506 1872 2764 1633 
Q 3022 1394 3022 966 
Q 3022 478 2636 193 
Q 2250 -91 1575 -91 
Q 1294 -91 989 -36 
Q 684 19 347 128 
L 347 722 
Q 666 556 975 473 
Q 1284 391 1588 391 
Q 1994 391 2212 530 
Q 2431 669 2431 922 
Q 2431 1156 2273 1281 
Q 2116 1406 1581 1522 
L 1381 1569 
Q 847 1681 609 1914 
Q 372 2147 372 2553 
Q 372 3047 722 3315 
Q 1072 3584 1716 3584 
Q 2034 3584 2315 3537 
Q 2597 3491 2834 3397 
z
" transform="scale(0.015625)"/>
       <path id="DejaVuSans-6d" d="M 3328 2828 
Q 3544 3216 3844 3400 
Q 4144 3584 4550 3584 
Q 5097 3584 5394 3201 
Q 5691 2819 5691 2113 
L 5691 0 
L 5113 0 
L 5113 2094 
Q 5113 2597 4934 2840 
Q 4756 3084 4391 3084 
Q 3944 3084 3684 2787 
Q 3425 2491 3425 1978 
L 3425 0 
L 2847 0 
L 2847 2094 
Q 2847 2600 2669 2842 
Q 2491 3084 2119 3084 
Q 1678 3084 1418 2786 
Q 1159 2488 1159 1978 
L 1159 0 
L 581 0 
L 581 3500 
L 1159 3500 
L 1159 2956 
Q 1356 3278 1631 3431 
Q 1906 3584 2284 3584 
Q 2666 3584 2933 3390 
Q 3200 3197 3328 2828 
z
" transform="scale(0.015625)"/>
      </defs>
      <use xlink:href="#DejaVuSans-32"/>
      <use xlink:href="#DejaVuSans-30" x="63.623047"/>
      <use xlink:href="#DejaVuSans-30" x="127.246094"/>
      <use xlink:href="#DejaVuSans-30" x="190.869141"/>
      <use xlink:href="#DejaVuSans-20" x="254.492188"/>
      <use xlink:href="#DejaVuSans-73" x="286.279297"/>
      <use xlink:href="#DejaVuSans-61" x="338.378906"/>
      <use xlink:href="#DejaVuSans-6d" x="399.658203"/>
      <use xlink:href="#DejaVuSans-70" x="497.070312"/>
      <use xlink:href="#DejaVuSans-6c" x="560.546875"/>
      <use xlink:href="#DejaVuSans-65" x="588.330078"/>
      <use xlink:href="#DejaVuSans-73" x="649.853516"/>
     </g>
    </g>
    <g id="line2d_19">
     <path d="M 301.162188 263.648062 
L 311.162188 263.648062 
L 321.162188 263.648062 
" style="fill: none; stroke: #ff7f0e; stroke-linecap: square"/>
    </g>
    <g id="text_17">
     <!-- 5000 samples -->
     <g transform="translate(329.162188 267.148062) scale(0.1 -0.1)">
      <defs>
       <path id="DejaVuSans-35" d="M 691 4666 
L 3169 4666 
L 3169 4134 
L 1269 4134 
L 1269 2991 
Q 1406 3038 1543 3061 
Q 1681 3084 1819 3084 
Q 2600 3084 3056 2656 
Q 3513 2228 3513 1497 
Q 3513 744 3044 326 
Q 2575 -91 1722 -91 
Q 1428 -91 1123 -41 
Q 819 9 494 109 
L 494 744 
Q 775 591 1075 516 
Q 1375 441 1709 441 
Q 2250 441 2565 725 
Q 2881 1009 2881 1497 
Q 2881 1984 2565 2268 
Q 2250 2553 1709 2553 
Q 1456 2553 1204 2497 
Q 953 2441 691 2322 
L 691 4666 
z
" transform="scale(0.015625)"/>
      </defs>
      <use xlink:href="#DejaVuSans-35"/>
      <use xlink:href="#DejaVuSans-30" x="63.623047"/>
      <use xlink:href="#DejaVuSans-30" x="127.246094"/>
      <use xlink:href="#DejaVuSans-30" x="190.869141"/>
      <use xlink:href="#DejaVuSans-20" x="254.492188"/>
      <use xlink:href="#DejaVuSans-73" x="286.279297"/>
      <use xlink:href="#DejaVuSans-61" x="338.378906"/>
      <use xlink:href="#DejaVuSans-6d" x="399.658203"/>
      <use xlink:href="#DejaVuSans-70" x="497.070312"/>
      <use xlink:href="#DejaVuSans-6c" x="560.546875"/>
      <use xlink:href="#DejaVuSans-65" x="588.330078"/>
      <use xlink:href="#DejaVuSans-73" x="649.853516"/>
     </g>
    </g>
    <g id="line2d_20">
     <path d="M 301.162188 278.326187 
L 311.162188 278.326187 
L 321.162188 278.326187 
" style="fill: none; stroke: #2ca02c; stroke-linecap: square"/>
    </g>
    <g id="text_18">
     <!-- 8000 samples -->
     <g transform="translate(329.162188 281.826187) scale(0.1 -0.1)">
      <use xlink:href="#DejaVuSans-38"/>
      <use xlink:href="#DejaVuSans-30" x="63.623047"/>
      <use xlink:href="#DejaVuSans-30" x="127.246094"/>
      <use xlink:href="#DejaVuSans-30" x="190.869141"/>
      <use xlink:href="#DejaVuSans-20" x="254.492188"/>
      <use xlink:href="#DejaVuSans-73" x="286.279297"/>
      <use xlink:href="#DejaVuSans-61" x="338.378906"/>
      <use xlink:href="#DejaVuSans-6d" x="399.658203"/>
      <use xlink:href="#DejaVuSans-70" x="497.070312"/>
      <use xlink:href="#DejaVuSans-6c" x="560.546875"/>
      <use xlink:href="#DejaVuSans-65" x="588.330078"/>
      <use xlink:href="#DejaVuSans-73" x="649.853516"/>
     </g>
    </g>
    <g id="line2d_21">
     <path d="M 301.162188 293.004312 
L 311.162188 293.004312 
L 321.162188 293.004312 
" style="fill: none; stroke: #d62728; stroke-linecap: square"/>
    </g>
    <g id="text_19">
     <!-- 10000 samples -->
     <g transform="translate(329.162188 296.504312) scale(0.1 -0.1)">
      <use xlink:href="#DejaVuSans-31"/>
      <use xlink:href="#DejaVuSans-30" x="63.623047"/>
      <use xlink:href="#DejaVuSans-30" x="127.246094"/>
      <use xlink:href="#DejaVuSans-30" x="190.869141"/>
      <use xlink:href="#DejaVuSans-30" x="254.492188"/>
      <use xlink:href="#DejaVuSans-20" x="318.115234"/>
      <use xlink:href="#DejaVuSans-73" x="349.902344"/>
      <use xlink:href="#DejaVuSans-61" x="402.001953"/>
      <use xlink:href="#DejaVuSans-6d" x="463.28125"/>
      <use xlink:href="#DejaVuSans-70" x="560.693359"/>
      <use xlink:href="#DejaVuSans-6c" x="624.169922"/>
      <use xlink:href="#DejaVuSans-65" x="651.953125"/>
      <use xlink:href="#DejaVuSans-73" x="713.476562"/>
     </g>
    </g>
   </g>
  </g>
 </g>
 <defs>
  <clipPath id="pf1d5e6801c">
   <rect x="57.6" y="41.472" width="357.12" height="266.112"/>
  </clipPath>
 </defs>
</svg>
